<?xml version="1.0" encoding="UTF-8" standalone="no"?>
<svg
   xmlns:dc="http://purl.org/dc/elements/1.1/"
   xmlns:cc="http://creativecommons.org/ns#"
   xmlns:rdf="http://www.w3.org/1999/02/22-rdf-syntax-ns#"
   xmlns:svg="http://www.w3.org/2000/svg"
   xmlns="http://www.w3.org/2000/svg"
   xmlns:sodipodi="http://sodipodi.sourceforge.net/DTD/sodipodi-0.dtd"
   xmlns:inkscape="http://www.inkscape.org/namespaces/inkscape"
   width="101.6mm"
   height="128.5mm"
   viewBox="0 0 101.60001 128.50002"
   version="1.1"
   id="svg8"
   inkscape:version="1.0 (4035a4fb49, 2020-05-01)"
   sodipodi:docname="Celesta.svg">
  <defs
     id="defs2">
    <rect
       x="17.586334"
       y="199.5567"
       width="50.326851"
       height="29.747098"
       id="rect868" />
    <inkscape:path-effect
       hide_knots="false"
       only_selected="false"
       apply_with_radius="true"
       apply_no_radius="true"
       use_knot_distance="true"
       flexible="false"
       chamfer_steps="1"
       radius="4"
       mode="F"
       method="auto"
       unit="mm"
       satellites_param="F,0,0,1,0,4,0,1 @ F,0,0,1,0,4,0,1 @ F,0,0,1,0,4,0,1 @ F,0,0,1,0,4,0,1"
       lpeversion="1"
       is_visible="true"
       id="path-effect95"
       effect="fillet_chamfer" />
    <inkscape:path-effect
       hide_knots="false"
       only_selected="false"
       apply_with_radius="true"
       apply_no_radius="true"
       use_knot_distance="true"
       flexible="false"
       chamfer_steps="1"
       radius="4"
       mode="F"
       method="auto"
       unit="mm"
       satellites_param="F,0,0,1,0,4,0,1 @ F,0,0,1,0,4,0,1 @ F,0,0,1,0,4,0,1 @ F,0,0,1,0,4,0,1"
       lpeversion="1"
       is_visible="true"
       id="path-effect105"
       effect="fillet_chamfer" />
    <inkscape:path-effect
       hide_knots="false"
       only_selected="false"
       apply_with_radius="true"
       apply_no_radius="true"
       use_knot_distance="true"
       flexible="false"
       chamfer_steps="1"
       radius="4"
       mode="F"
       method="auto"
       unit="mm"
       satellites_param="F,0,0,1,0,4,0,1 @ F,0,0,1,0,4,0,1 @ F,0,0,1,0,4,0,1 @ F,0,0,1,0,4,0,1"
       lpeversion="1"
       is_visible="true"
       id="path-effect96"
       effect="fillet_chamfer" />
    <inkscape:path-effect
       effect="fillet_chamfer"
       id="path-effect77"
       is_visible="true"
       lpeversion="1"
       satellites_param="F,0,0,1,0,4,0,1 @ F,0,0,1,0,4,0,1 @ F,0,0,1,0,4,0,1 @ F,0,0,1,0,4,0,1"
       unit="mm"
       method="auto"
       mode="F"
       radius="4"
       chamfer_steps="1"
       flexible="false"
       use_knot_distance="true"
       apply_no_radius="true"
       apply_with_radius="true"
       only_selected="false"
       hide_knots="false" />
    <inkscape:path-effect
       effect="fillet_chamfer"
       id="path-effect161"
       is_visible="true"
       lpeversion="1"
       satellites_param="F,0,0,1,0,4,0,1 @ F,0,0,1,0,4,0,1 @ F,0,0,1,0,4,0,1 @ F,0,0,1,0,4,0,1"
       unit="mm"
       method="auto"
       mode="F"
       radius="4"
       chamfer_steps="1"
       flexible="false"
       use_knot_distance="true"
       apply_no_radius="true"
       apply_with_radius="true"
       only_selected="false"
       hide_knots="false" />
    <inkscape:path-effect
       effect="fillet_chamfer"
       id="path-effect152"
       is_visible="true"
       lpeversion="1"
       satellites_param="F,0,0,1,0,4,0,1 @ F,0,0,1,0,4,0,1 @ F,0,0,1,0,4,0,1 @ F,0,0,1,0,4,0,1"
       unit="mm"
       method="auto"
       mode="F"
       radius="4"
       chamfer_steps="1"
       flexible="false"
       use_knot_distance="true"
       apply_no_radius="true"
       apply_with_radius="true"
       only_selected="false"
       hide_knots="false" />
    <inkscape:path-effect
       effect="fillet_chamfer"
       id="path-effect143"
       is_visible="true"
       lpeversion="1"
       satellites_param="F,0,0,1,0,4,0,1 @ F,0,0,1,0,4,0,1 @ F,0,0,1,0,4,0,1 @ F,0,0,1,0,4,0,1"
       unit="mm"
       method="auto"
       mode="F"
       radius="4"
       chamfer_steps="1"
       flexible="false"
       use_knot_distance="true"
       apply_no_radius="true"
       apply_with_radius="true"
       only_selected="false"
       hide_knots="false" />
    <inkscape:path-effect
       hide_knots="false"
       only_selected="false"
       apply_with_radius="true"
       apply_no_radius="true"
       use_knot_distance="true"
       flexible="false"
       chamfer_steps="1"
       radius="4"
       mode="F"
       method="auto"
       unit="mm"
       satellites_param="F,0,0,1,0,4,0,1 @ F,0,0,1,0,4,0,1 @ F,0,0,1,0,4,0,1 @ F,0,0,1,0,4,0,1"
       lpeversion="1"
       is_visible="true"
       id="path-effect124"
       effect="fillet_chamfer" />
    <inkscape:path-effect
       effect="fillet_chamfer"
       id="path-effect154"
       is_visible="true"
       lpeversion="1"
       satellites_param="F,0,0,1,0,4,0,1 @ F,0,0,1,0,4,0,1 @ F,0,0,1,0,4,0,1 @ F,0,0,1,0,4,0,1"
       unit="mm"
       method="auto"
       mode="F"
       radius="4"
       chamfer_steps="1"
       flexible="false"
       use_knot_distance="true"
       apply_no_radius="true"
       apply_with_radius="true"
       only_selected="false"
       hide_knots="false" />
  </defs>
  <sodipodi:namedview
     id="base"
     pagecolor="#ffffff"
     bordercolor="#666666"
     borderopacity="1.0"
     inkscape:pageopacity="0.0"
     inkscape:pageshadow="2"
     inkscape:zoom="2.8284272"
     inkscape:cx="201.1218"
     inkscape:cy="407.68141"
     inkscape:document-units="mm"
     inkscape:current-layer="layer1"
     showgrid="true"
     units="mm"
     inkscape:snap-bbox="true"
     inkscape:snap-page="true"
     inkscape:bbox-nodes="false"
     inkscape:snap-bbox-edge-midpoints="false"
     inkscape:window-width="1858"
     inkscape:window-height="1057"
     inkscape:window-x="1912"
     inkscape:window-y="-8"
     inkscape:window-maximized="1"
     inkscape:snap-bbox-midpoints="true"
     inkscape:snap-nodes="false"
     inkscape:document-rotation="0"
     inkscape:lockguides="false"
     objecttolerance="24.3"
     gridtolerance="26.6"
     guidetolerance="28.7">
    <inkscape:grid
       type="xygrid"
       id="grid86"
       units="mm"
       color="#ffd984"
       opacity="0.53333333"
       spacingx="2.5400004"
       spacingy="2.5400004"
       empcolor="#71530f"
       empopacity="0.25098039"
       empspacing="4" />
  </sodipodi:namedview>
  <metadata
     id="metadata5">
    <rdf:RDF>
      <cc:Work
         rdf:about="">
        <dc:format>image/svg+xml</dc:format>
        <dc:type
           rdf:resource="http://purl.org/dc/dcmitype/StillImage" />
        <dc:title />
        <dc:creator>
          <cc:Agent>
            <dc:title>Firo Lightfog</dc:title>
          </cc:Agent>
        </dc:creator>
      </cc:Work>
    </rdf:RDF>
  </metadata>
  <g
     style="display:inline"
     inkscape:label="Layer 1"
     inkscape:groupmode="layer"
     id="layer1"
     transform="translate(0,-168.49998)">
    <path
       d="M 0.06850275,168.49834 H 101.53152 V 297.04512 H 0.06850275 Z"
       style="display:inline;opacity:1;vector-effect:none;fill:#cccccc;fill-opacity:1;fill-rule:evenodd;stroke:none;stroke-width:1.18498;stroke-linecap:butt;stroke-linejoin:miter;stroke-miterlimit:4;stroke-dasharray:none;stroke-dashoffset:0;stroke-opacity:1;paint-order:normal"
       id="rect420" />
    <text
       xml:space="preserve"
       style="font-size:10.5833px;line-height:1.25;font-family:'Eras Bold ITC';-inkscape-font-specification:'Eras Bold ITC';stroke-width:0.264583"
       x="1.1693041"
       y="277.43234"
       id="text59"><tspan
         sodipodi:role="line"
         id="tspan57"
         x="1.1693041"
         y="277.43234"
         style="font-size:2.82222px;fill:#ffff00;stroke-width:0.264583" /></text>
    <text
       xml:space="preserve"
       style="font-size:10.5833px;line-height:1.25;font-family:'Eras Bold ITC';-inkscape-font-specification:'Eras Bold ITC';stroke-width:0.264583"
       x="-78.577248"
       y="172.05467"
       id="text127"><tspan
         sodipodi:role="line"
         id="tspan125"
         x="-78.577248"
         y="172.05467"
         style="stroke-width:0.264583" /></text>
    <text
       xml:space="preserve"
       style="font-size:10.5833px;line-height:1.25;font-family:'Eras Bold ITC';-inkscape-font-specification:'Eras Bold ITC';stroke-width:0.264583"
       x="-89.989647"
       y="186.46049"
       id="text131"><tspan
         sodipodi:role="line"
         id="tspan129"
         x="-89.989647"
         y="186.46049"
         style="stroke-width:0.264583" /></text>
    <g
       aria-label="b"
       id="text104"
       style="font-weight:bold;font-size:6.35px;line-height:1.25;font-family:Tahoma;-inkscape-font-specification:'Tahoma, Bold';fill:#000000;stroke-width:0.264583">
      <path
         d="m 3.2732611,177.4586 v 0.68213 q 0.3927406,0 0.592556,0.19982 0.2067056,0.19981 0.3927406,0.76481 l 0.110243,0.34451 q 0.37207,1.14377 1.2195628,1.50206 -0.7854811,0.15158 -1.2540138,0.64768 -0.4616424,0.4892 -0.4616424,1.16444 0,0.94395 0.7096891,1.56407 0.7096891,0.61323 1.7983385,0.61323 1.6536445,0 2.5562588,-1.41938 L 8.4064495,183.0741 q -0.5856658,0.62701 -1.2057825,0.62701 -0.5098738,0 -0.8750536,-0.33073 -0.3651799,-0.33762 -0.3651799,-0.79926 0,-0.38585 0.2824977,-0.66835 0.2893878,-0.28249 0.6752382,-0.28249 0.6959087,0 1.9499225,0.98529 l 0.4203013,0.33073 q 2.0463848,1.6123 3.9067348,1.6123 1.612304,0 2.728514,-1.06108 1.1231,-1.06109 1.1231,-2.58382 0,-1.54341 -1.157551,-2.49425 -1.157551,-0.95085 -3.038572,-0.95085 h -0.227376 v 0.68213 q 1.11621,0.0758 1.770778,0.77859 0.654567,0.69591 0.654567,1.81212 0,1.10243 -0.826822,1.88791 -0.826822,0.77859 -1.998154,0.77859 -1.12999,0 -2.011934,-0.68901 -0.8819437,-0.68902 -0.8819437,-1.57097 0,-0.4203 0.2687173,-0.70969 0.2756074,-0.28938 0.6752384,-0.28938 0.399631,0 0.599446,0.22048 0.206705,0.2136 0.206705,0.65457 0,0.26872 -0.151584,0.6339 l 0.620117,0.28249 q 0.413411,-0.9784 0.413411,-1.63986 0,-0.81304 -0.530544,-1.39182 -0.523654,-0.58566 -1.267794,-0.58566 -0.475423,0 -0.8681636,0.23426 -0.3927406,0.23427 -0.7027989,0.70969 -0.3996308,-0.99907 -1.2677942,-1.39871 -0.8612732,-0.39963 -2.6182705,-0.39963 z m 4.9609337,3.36241 Q 7.2213375,180.62809 6.3807349,179.13292 L 6.2636017,178.9331 q -0.3651798,-0.64767 -0.8819437,-0.84749 2.6320509,0 2.8525368,2.7354 z"
         style="font-style:normal;font-variant:normal;font-weight:bold;font-stretch:normal;font-size:14.1111px;font-family:'Wingdings 2';-inkscape-font-specification:'Wingdings 2 Bold';fill:#000000;stroke-width:0.264583"
         id="path116" />
    </g>
    <g
       aria-label="CELESTA"
       transform="translate(21.282404,91.080085)"
       id="text866"
       style="font-weight:bold;font-size:4.23333px;line-height:1.25;font-family:Tahoma;-inkscape-font-specification:'Tahoma, Bold';letter-spacing:0px;white-space:pre;shape-inside:url(#rect868)">
      <path
         d="m 19.231314,203.47878 q -0.692464,0 -1.099674,-0.41754 -0.40721,-0.41962 -0.40721,-1.17823 0,-0.73173 0.40721,-1.16582 0.409277,-0.43614 1.101741,-0.43614 0.183968,0 0.330729,0.0207 0.146761,0.0207 0.281119,0.0579 0.10542,0.031 0.229443,0.0848 0.124024,0.0537 0.200505,0.093 v 0.7338 h -0.07855 q -0.05581,-0.0496 -0.14056,-0.11782 -0.08475,-0.0703 -0.192236,-0.13642 -0.107487,-0.0661 -0.237712,-0.11162 -0.128157,-0.0476 -0.268717,-0.0476 -0.167431,0 -0.307991,0.0537 -0.138493,0.0517 -0.264583,0.1819 -0.115755,0.11782 -0.190169,0.31832 -0.07235,0.20051 -0.07235,0.47336 0,0.28732 0.07648,0.48369 0.07648,0.1943 0.200504,0.31419 0.119889,0.11576 0.26665,0.16744 0.148828,0.0517 0.295589,0.0517 0.152962,0 0.291455,-0.0496 0.138493,-0.0517 0.233577,-0.11369 0.103353,-0.0641 0.181901,-0.13022 0.07855,-0.0662 0.136426,-0.11782 h 0.07028 v 0.72347 q -0.08475,0.0393 -0.196371,0.0909 -0.111621,0.0496 -0.229443,0.0848 -0.144694,0.0434 -0.270784,0.0661 -0.12609,0.0227 -0.347265,0.0227 z"
         id="path872" />
      <path
         d="m 20.731996,203.41884 v -3.07785 h 2.081525 v 0.58704 h -1.31258 v 0.53951 h 1.209227 v 0.58704 h -1.209227 v 0.77721 h 1.31258 v 0.58705 z"
         id="path874" />
      <path
         d="m 25.39114,203.41884 h -2.054654 v -3.07785 h 0.773079 v 2.4908 h 1.281575 z"
         id="path876" />
      <path
         d="m 25.759075,203.41884 v -3.07785 H 27.8406 v 0.58704 h -1.31258 v 0.53951 h 1.209227 v 0.58704 H 26.52802 v 0.77721 h 1.31258 v 0.58705 z"
         id="path878" />
      <path
         d="m 29.314411,203.47465 q -0.353467,0 -0.622184,-0.0682 -0.26665,-0.0682 -0.496093,-0.1695 v -0.73173 h 0.07028 q 0.231511,0.19637 0.510563,0.30179 0.279053,0.10542 0.541569,0.10542 0.06614,0 0.173632,-0.0145 0.109554,-0.0145 0.1757,-0.0455 0.08061,-0.0351 0.136426,-0.0971 0.05581,-0.0641 0.05581,-0.16743 0,-0.11576 -0.09095,-0.1881 -0.09095,-0.0724 -0.217041,-0.10542 -0.157096,-0.0413 -0.33693,-0.0786 -0.177767,-0.0372 -0.332796,-0.0909 -0.357601,-0.12609 -0.51263,-0.339 -0.155029,-0.2129 -0.155029,-0.5333 0,-0.43201 0.365869,-0.69866 0.365869,-0.26872 0.913638,-0.26872 0.274919,0 0.545703,0.0558 0.272851,0.0558 0.487825,0.1509 v 0.70279 h -0.06821 q -0.171565,-0.14676 -0.419612,-0.24804 -0.24598,-0.10129 -0.506429,-0.10129 -0.101285,0 -0.1819,0.0145 -0.08062,0.0145 -0.169499,0.0558 -0.07235,0.0331 -0.12609,0.0992 -0.05168,0.0641 -0.05168,0.14469 0,0.11783 0.08268,0.18811 0.08475,0.0682 0.324528,0.12402 0.155029,0.0351 0.297656,0.0682 0.144694,0.0331 0.307991,0.0909 0.320394,0.11576 0.475423,0.31213 0.157096,0.1943 0.157096,0.51469 0,0.45889 -0.361734,0.73794 -0.359668,0.27906 -0.973583,0.27906 z"
         id="path880" />
      <path
         d="m 31.633647,203.41884 v -2.49081 h -0.909504 v -0.58704 h 2.592088 v 0.58704 h -0.909505 v 2.49081 z"
         id="path882" />
      <path
         d="m 33.307962,203.41884 1.039729,-3.07785 h 0.843358 l 1.039729,3.07785 h -0.795816 l -0.192236,-0.62839 h -0.967382 l -0.192237,0.62839 z m 1.765265,-1.18649 -0.314192,-1.01493 -0.314193,1.01493 z"
         id="path884" />
    </g>
    <path
       sodipodi:type="rect"
       inkscape:path-effect="#path-effect124"
       style="display:inline;fill:#de8787;stroke-width:0.662752"
       id="recta"
       width="10.583328"
       height="99.605957"
       x="86.148354"
       y="191.0331"
       d="m 90.148354,191.0331 h 2.583328 a 4,4 45 0 1 4,4 v 91.60595 a 4,4 135 0 1 -4,4 h -2.583328 a 4,4 45 0 1 -4,-4 V 195.0331 a 4,4 135 0 1 4,-4 z" />
    <g
       transform="translate(-0.65685585,1.6223986)"
       style="font-weight:bold;font-size:4.23333px;line-height:1.25;font-family:Tahoma;-inkscape-font-specification:'Tahoma, Bold';letter-spacing:0px;stroke-width:0.264583"
       id="text878"
       aria-label="CLOCK">
      <path
         id="path963"
         style="font-size:2.82222px;stroke-width:0.264583"
         d="m 7.083755,190.8035 q -0.4616425,0 -0.7331158,-0.27837 -0.2714733,-0.27974 -0.2714733,-0.78548 0,-0.48782 0.2714733,-0.77721 0.2728514,-0.29077 0.7344938,-0.29077 0.1226453,0 0.2204859,0.0138 0.097841,0.0138 0.1874131,0.0386 0.07028,0.0207 0.1529621,0.0565 0.082682,0.0358 0.1336696,0.062 v 0.4892 h -0.052365 q -0.037207,-0.0331 -0.093707,-0.0785 -0.056499,-0.0469 -0.1281575,-0.0909 -0.071658,-0.0441 -0.1584742,-0.0744 -0.085438,-0.0317 -0.1791449,-0.0317 -0.111621,0 -0.2053275,0.0358 -0.092328,0.0344 -0.1763888,0.12126 -0.07717,0.0785 -0.1267794,0.21222 -0.048231,0.13367 -0.048231,0.31557 0,0.19155 0.050987,0.32246 0.050987,0.12954 0.1336696,0.20946 0.079926,0.0772 0.1777668,0.11162 0.099219,0.0345 0.1970593,0.0345 0.1019747,0 0.1943032,-0.0331 0.092328,-0.0345 0.1557182,-0.0758 0.068902,-0.0427 0.1212673,-0.0868 0.052365,-0.0441 0.09095,-0.0785 h 0.046853 v 0.48231 q -0.0565,0.0262 -0.1309135,0.0606 -0.074414,0.0331 -0.1529621,0.0565 -0.096463,0.0289 -0.1805229,0.0441 -0.08406,0.0152 -0.2315102,0.0152 z" />
      <path
         id="path965"
         style="font-size:2.82222px;stroke-width:0.264583"
         d="M 9.4539789,190.76353 H 8.08421 v -2.05189 h 0.5153858 v 1.66053 h 0.8543831 z" />
      <path
         id="path967"
         style="font-size:2.82222px;stroke-width:0.264583"
         d="m 11.567888,189.73827 q 0,0.49748 -0.265961,0.78273 -0.265962,0.28525 -0.728982,0.28525 -0.464399,0 -0.7289817,-0.28801 -0.2645831,-0.28938 -0.2645831,-0.77997 0,-0.49471 0.2645831,-0.78134 0.2645827,-0.28801 0.7289817,-0.28801 0.46302,0 0.728982,0.28663 0.265961,0.28525 0.265961,0.78272 z m -0.531923,-0.001 q 0,-0.18328 -0.03858,-0.31144 -0.03721,-0.12954 -0.100596,-0.21222 -0.06615,-0.0841 -0.150206,-0.11989 -0.08268,-0.0372 -0.172255,-0.0372 -0.09508,0 -0.172255,0.0344 -0.07717,0.0331 -0.148828,0.11989 -0.06339,0.0799 -0.103352,0.21221 -0.03859,0.1323 -0.03859,0.31557 0,0.1888 0.03721,0.3142 0.03721,0.12402 0.101974,0.20808 0.06615,0.0854 0.150206,0.12265 0.08406,0.0358 0.173633,0.0358 0.09095,0 0.176389,-0.0386 0.08544,-0.04 0.14745,-0.12265 0.06615,-0.0896 0.101975,-0.20808 0.03583,-0.11989 0.03583,-0.31281 z" />
      <path
         id="path969"
         style="font-size:2.82222px;stroke-width:0.264583"
         d="m 12.755756,190.8035 q -0.461643,0 -0.733116,-0.27837 -0.271473,-0.27974 -0.271473,-0.78548 0,-0.48782 0.271473,-0.77721 0.272851,-0.29077 0.734494,-0.29077 0.122645,0 0.220486,0.0138 0.09784,0.0138 0.187413,0.0386 0.07028,0.0207 0.152962,0.0565 0.08268,0.0358 0.13367,0.062 v 0.4892 h -0.05237 q -0.03721,-0.0331 -0.09371,-0.0785 -0.0565,-0.0469 -0.128158,-0.0909 -0.07166,-0.0441 -0.158474,-0.0744 -0.08544,-0.0317 -0.179145,-0.0317 -0.111621,0 -0.205327,0.0358 -0.09233,0.0344 -0.176389,0.12126 -0.07717,0.0785 -0.12678,0.21222 -0.04823,0.13367 -0.04823,0.31557 0,0.19155 0.05099,0.32246 0.05099,0.12954 0.13367,0.20946 0.07993,0.0772 0.177767,0.11162 0.09922,0.0345 0.197059,0.0345 0.101975,0 0.194303,-0.0331 0.09233,-0.0345 0.155719,-0.0758 0.0689,-0.0427 0.121267,-0.0868 0.05236,-0.0441 0.09095,-0.0785 h 0.04685 v 0.48231 q -0.0565,0.0262 -0.130914,0.0606 -0.07441,0.0331 -0.152962,0.0565 -0.09646,0.0289 -0.180523,0.0441 -0.08406,0.0152 -0.23151,0.0152 z" />
      <path
         id="path971"
         style="font-size:2.82222px;stroke-width:0.264583"
         d="m 15.554549,190.76353 h -0.622873 l -0.559483,-0.83371 -0.100596,0.14056 v 0.69315 h -0.515386 v -2.05189 h 0.515386 v 0.91088 l 0.655945,-0.91088 h 0.59669 l -0.731737,0.95222 z" />
    </g>
    <g
       transform="translate(-4.0000015e-7,2.5401876)"
       style="font-weight:bold;font-size:4.23333px;line-height:1.25;font-family:Tahoma;-inkscape-font-specification:'Tahoma, Bold';letter-spacing:0px;stroke-width:0.264583"
       id="text882"
       aria-label="RESET">
      <path
         id="path974"
         style="font-size:2.82222px;stroke-width:0.264583"
         d="M 7.6450842,215.24594 H 7.0166993 L 6.4448138,214.49353 H 6.2601569 v 0.75241 H 5.747527 v -2.0519 h 0.8254443 q 0.1708766,0 0.297656,0.0221 0.1267794,0.0207 0.2342663,0.0882 0.110243,0.0703 0.1750107,0.17914 0.064768,0.10749 0.064768,0.27423 0,0.23565 -0.1061089,0.3831 -0.1061088,0.14607 -0.2838756,0.23288 z m -0.8295784,-1.42351 q 0,-0.0772 -0.030317,-0.13229 -0.028939,-0.0565 -0.097841,-0.0868 -0.048231,-0.0207 -0.1074869,-0.0262 -0.059256,-0.006 -0.14745,-0.006 h -0.172254 v 0.55259 h 0.1474499 q 0.1074869,0 0.1819009,-0.0124 0.075792,-0.0138 0.1281575,-0.0565 0.049609,-0.0386 0.073036,-0.0923 0.024805,-0.0537 0.024805,-0.14056 z" />
      <path
         id="path976"
         style="font-size:2.82222px;stroke-width:0.264583"
         d="m 7.7980463,215.24594 v -2.0519 h 1.3876834 v 0.39137 H 8.3106761 v 0.35966 h 0.8061517 v 0.39137 H 8.3106761 v 0.51814 h 0.8750536 v 0.39136 z" />
      <path
         id="path978"
         style="font-size:2.82222px;stroke-width:0.264583"
         d="m 10.16827,215.28315 q -0.2356441,0 -0.4147889,-0.0455 -0.1777668,-0.0455 -0.3307289,-0.113 v -0.48782 h 0.046853 q 0.1543401,0.13091 0.3403751,0.20119 0.186035,0.0703 0.3610457,0.0703 0.0441,0 0.115755,-0.01 0.07304,-0.01 0.117134,-0.0303 0.05374,-0.0234 0.09095,-0.0648 0.03721,-0.0427 0.03721,-0.11162 0,-0.0772 -0.06063,-0.1254 -0.06063,-0.0482 -0.144693,-0.0703 -0.104731,-0.0276 -0.22462,-0.0524 -0.118512,-0.0248 -0.2218648,-0.0606 -0.2384004,-0.0841 -0.3417532,-0.226 -0.1033528,-0.14194 -0.1033528,-0.35553 0,-0.28801 0.2439126,-0.46578 0.2439126,-0.17914 0.6090932,-0.17914 0.183278,0 0.363801,0.0372 0.181901,0.0372 0.325217,0.1006 v 0.46853 h -0.04547 q -0.114377,-0.0978 -0.279742,-0.16536 -0.163986,-0.0675 -0.337619,-0.0675 -0.06752,0 -0.121267,0.01 -0.05374,0.01 -0.112999,0.0372 -0.04823,0.022 -0.08406,0.0661 -0.034451,0.0427 -0.034451,0.0965 0,0.0785 0.055121,0.1254 0.0565,0.0455 0.216352,0.0827 0.103353,0.0234 0.198437,0.0455 0.09646,0.022 0.205328,0.0606 0.213596,0.0772 0.316948,0.20808 0.104731,0.12954 0.104731,0.34313 0,0.30593 -0.241156,0.49196 -0.239779,0.18604 -0.649056,0.18604 z" />
      <path
         id="path980"
         style="font-size:2.82222px;stroke-width:0.264583"
         d="m 11.320309,215.24594 v -2.0519 h 1.387683 v 0.39137 h -0.875053 v 0.35966 h 0.806152 v 0.39137 h -0.806152 v 0.51814 h 0.875053 v 0.39136 z" />
      <path
         id="path982"
         style="font-size:2.82222px;stroke-width:0.264583"
         d="m 13.450754,215.24594 v -1.66053 h -0.606336 v -0.39137 h 1.728059 v 0.39137 H 13.96614 v 1.66053 z" />
    </g>
    <g
       transform="translate(-0.39993365,5.6502516)"
       style="font-weight:bold;font-size:4.23333px;line-height:1.25;font-family:Tahoma;-inkscape-font-specification:'Tahoma, Bold';letter-spacing:0px;stroke-width:0.264583"
       id="text886"
       aria-label="PREC">
      <path
         id="path985"
         style="font-size:2.82222px;stroke-width:0.264583"
         d="m 8.5266401,236.13147 q 0,0.14332 -0.045475,0.27285 -0.045475,0.12954 -0.1309135,0.21635 -0.052365,0.0538 -0.1157552,0.0992 -0.062012,0.0455 -0.1378037,0.0772 -0.075792,0.0317 -0.1653644,0.0496 -0.088194,0.0179 -0.1984374,0.0179 H 7.4627954 v 0.6711 H 6.9474095 v -2.0519 H 7.743915 q 0.1777668,0 0.3059243,0.0331 0.1295355,0.0317 0.2342663,0.10197 0.1157551,0.0772 0.1791448,0.20671 0.06339,0.12815 0.06339,0.30592 z m -0.5291662,0.0124 q 0,-0.0868 -0.041341,-0.14883 -0.041341,-0.0634 -0.099219,-0.0868 -0.073036,-0.0317 -0.1405598,-0.0358 -0.066146,-0.006 -0.1805229,-0.006 h -0.073036 v 0.6146 h 0.035829 q 0.073036,0 0.1378037,-0.001 0.064768,-0.001 0.1129991,-0.01 0.041341,-0.007 0.086816,-0.0262 0.046853,-0.0207 0.071658,-0.0455 0.052365,-0.051 0.07028,-0.10611 0.019293,-0.0551 0.019293,-0.14883 z" />
      <path
         id="path987"
         style="font-size:2.82222px;stroke-width:0.264583"
         d="m 10.702561,237.53569 h -0.628385 l -0.5718855,-0.75241 h -0.184657 v 0.75241 H 8.8050037 v -2.0519 h 0.8254442 q 0.1708766,0 0.2976561,0.0221 0.126779,0.0207 0.234266,0.0882 0.110243,0.0703 0.175011,0.17914 0.06477,0.10749 0.06477,0.27423 0,0.23564 -0.106109,0.38309 -0.106109,0.14608 -0.283876,0.23289 z m -0.8295785,-1.42351 q 0,-0.0772 -0.030317,-0.13229 -0.028939,-0.0565 -0.097841,-0.0868 -0.048231,-0.0207 -0.1074869,-0.0262 -0.059256,-0.006 -0.14745,-0.006 H 9.3176335 v 0.55259 h 0.14745 q 0.1074869,0 0.1819009,-0.0124 0.075792,-0.0138 0.1281574,-0.0565 0.049609,-0.0386 0.073036,-0.0923 0.024805,-0.0537 0.024805,-0.14056 z" />
      <path
         id="path989"
         style="font-size:2.82222px;stroke-width:0.264583"
         d="m 10.855523,237.53569 v -2.0519 h 1.387683 v 0.39137 h -0.875053 v 0.35966 h 0.806152 v 0.39137 h -0.806152 v 0.51814 h 0.875053 v 0.39136 z" />
      <path
         id="path991"
         style="font-size:2.82222px;stroke-width:0.264583"
         d="m 13.47655,237.57565 q -0.461643,0 -0.733116,-0.27836 -0.271474,-0.27974 -0.271474,-0.78548 0,-0.48783 0.271474,-0.77721 0.272851,-0.29077 0.734494,-0.29077 0.122645,0 0.220486,0.0138 0.09784,0.0138 0.187413,0.0386 0.07028,0.0207 0.152962,0.0565 0.08268,0.0358 0.133669,0.062 v 0.4892 h -0.05236 q -0.03721,-0.0331 -0.09371,-0.0786 -0.0565,-0.0469 -0.128157,-0.0909 -0.07166,-0.0441 -0.158474,-0.0744 -0.08544,-0.0317 -0.179145,-0.0317 -0.111621,0 -0.205328,0.0358 -0.09233,0.0345 -0.176388,0.12127 -0.07717,0.0786 -0.12678,0.21222 -0.04823,0.13367 -0.04823,0.31557 0,0.19154 0.05099,0.32246 0.05099,0.12953 0.13367,0.20946 0.07993,0.0772 0.177767,0.11162 0.09922,0.0344 0.197059,0.0344 0.101975,0 0.194303,-0.0331 0.09233,-0.0344 0.155718,-0.0758 0.0689,-0.0427 0.121268,-0.0868 0.05236,-0.0441 0.09095,-0.0785 h 0.04685 v 0.48231 q -0.0565,0.0262 -0.130913,0.0606 -0.07441,0.0331 -0.152962,0.0565 -0.09646,0.0289 -0.180523,0.0441 -0.08406,0.0152 -0.23151,0.0152 z" />
    </g>
    <g
       transform="translate(2.0000009e-7,10.160005)"
       style="font-weight:bold;font-size:4.23333px;line-height:1.25;font-family:Tahoma;-inkscape-font-specification:'Tahoma, Bold';letter-spacing:0px;stroke-width:0.264583"
       id="text890"
       aria-label="OCT">
      <path
         id="path995"
         style="font-size:2.82222px;stroke-width:0.264583"
         d="m 9.3021734,254.86068 q 0,0.49747 -0.2659612,0.78273 -0.2659611,0.28525 -0.7289816,0.28525 -0.4643985,0 -0.7289817,-0.28801 -0.2645831,-0.28939 -0.2645831,-0.77997 0,-0.49471 0.2645831,-0.78135 0.2645832,-0.28801 0.7289817,-0.28801 0.4630205,0 0.7289816,0.28664 0.2659612,0.28525 0.2659612,0.78272 z m -0.5319223,-0.001 q 0,-0.18328 -0.038585,-0.31143 -0.037207,-0.12954 -0.1005967,-0.21222 -0.066146,-0.0841 -0.150206,-0.11989 -0.082682,-0.0372 -0.1722547,-0.0372 -0.095084,0 -0.1722546,0.0344 -0.07717,0.0331 -0.148828,0.11989 -0.06339,0.0799 -0.1033528,0.21222 -0.038585,0.13229 -0.038585,0.31557 0,0.18879 0.037207,0.31419 0.037207,0.12403 0.1019747,0.20809 0.066146,0.0854 0.1502061,0.12264 0.08406,0.0358 0.1736326,0.0358 0.09095,0 0.1763888,-0.0386 0.085438,-0.04 0.14745,-0.12265 0.066146,-0.0896 0.1019747,-0.20808 0.035829,-0.11989 0.035829,-0.31282 z" />
      <path
         id="path997"
         style="font-size:2.82222px;stroke-width:0.264583"
         d="m 10.490041,255.9259 q -0.461642,0 -0.7331153,-0.27836 -0.2714733,-0.27974 -0.2714733,-0.78548 0,-0.48783 0.2714733,-0.77721 0.2728513,-0.29077 0.7344933,-0.29077 0.122646,0 0.220486,0.0138 0.09784,0.0138 0.187413,0.0386 0.07028,0.0207 0.152963,0.0565 0.08268,0.0358 0.133669,0.062 v 0.4892 h -0.05236 q -0.03721,-0.0331 -0.09371,-0.0786 -0.0565,-0.0469 -0.128157,-0.0909 -0.07166,-0.0441 -0.158474,-0.0744 -0.08544,-0.0317 -0.179145,-0.0317 -0.111621,0 -0.205328,0.0358 -0.09233,0.0344 -0.176389,0.12127 -0.07717,0.0786 -0.126779,0.21222 -0.04823,0.13367 -0.04823,0.31557 0,0.19154 0.05099,0.32246 0.05099,0.12953 0.13367,0.20946 0.07993,0.0772 0.177766,0.11162 0.09922,0.0344 0.19706,0.0344 0.101975,0 0.194303,-0.0331 0.09233,-0.0345 0.155718,-0.0758 0.0689,-0.0427 0.121267,-0.0868 0.05237,-0.0441 0.09095,-0.0786 h 0.04685 v 0.48231 q -0.0565,0.0262 -0.130913,0.0606 -0.07441,0.0331 -0.152962,0.0565 -0.09646,0.0289 -0.180523,0.0441 -0.08406,0.0152 -0.231511,0.0152 z" />
      <path
         id="path999"
         style="font-size:2.82222px;stroke-width:0.264583"
         d="m 11.884615,255.88594 v -1.66053 h -0.606336 v -0.39137 h 1.728058 v 0.39137 h -0.606336 v 1.66053 z" />
    </g>
    <g
       transform="translate(3.9000013e-6,2.5399994)"
       style="font-weight:bold;font-size:4.23333px;line-height:1.25;font-family:Tahoma;-inkscape-font-specification:'Tahoma, Bold';letter-spacing:0px;stroke-width:0.264583"
       id="text894"
       aria-label="A">
      <path
         id="path951"
         style="font-size:2.82222px;stroke-width:0.264583"
         d="m 90.465738,194.92593 0.693153,-2.05189 h 0.562239 l 0.693153,2.05189 h -0.530544 l -0.128158,-0.41892 H 91.11066 l -0.128158,0.41892 z m 1.176844,-0.79099 -0.209461,-0.67662 -0.209462,0.67662 z" />
    </g>
    <g
       transform="translate(3.9000013e-6,2.5399864)"
       style="font-weight:bold;font-size:4.23333px;line-height:1.25;font-family:Tahoma;-inkscape-font-specification:'Tahoma, Bold';letter-spacing:0px;stroke-width:0.264583"
       id="text898"
       aria-label="B">
      <path
         id="path948"
         style="font-size:2.82222px;stroke-width:0.264583"
         d="m 92.260633,206.99755 q 0,0.15296 -0.05788,0.26871 -0.05788,0.11576 -0.155719,0.19155 -0.115755,0.0909 -0.254937,0.12954 -0.137803,0.0386 -0.351399,0.0386 h -0.82131 v -2.0519 h 0.724847 q 0.225999,0 0.341754,0.0179 0.117133,0.0165 0.219108,0.0717 0.110243,0.0592 0.163986,0.15847 0.05512,0.0992 0.05512,0.22875 0,0.15021 -0.07579,0.26734 -0.07441,0.11714 -0.206705,0.17226 v 0.011 q 0.190169,0.04 0.304546,0.16399 0.114377,0.12264 0.114377,0.33211 z m -0.66008,-0.84336 q 0,-0.0496 -0.02618,-0.10198 -0.02481,-0.0524 -0.07855,-0.0758 -0.05099,-0.022 -0.121268,-0.0234 -0.0689,-0.003 -0.206705,-0.003 h -0.03583 v 0.43408 h 0.06477 q 0.132292,0 0.184657,-0.003 0.05374,-0.003 0.110243,-0.0289 0.06201,-0.0289 0.08544,-0.0799 0.02343,-0.051 0.02343,-0.11851 z m 0.129536,0.83371 q 0,-0.0951 -0.03859,-0.14883 -0.03858,-0.0537 -0.115755,-0.0813 -0.04685,-0.0179 -0.129536,-0.0193 -0.0813,-0.003 -0.219108,-0.003 h -0.09508 v 0.51401 h 0.02756 q 0.201194,0 0.278364,-0.003 0.07717,-0.003 0.157096,-0.0372 0.07028,-0.0303 0.101975,-0.0882 0.03307,-0.0593 0.03307,-0.13367 z" />
    </g>
    <g
       transform="translate(3.9999749e-7,2.5399934)"
       style="font-weight:bold;font-size:4.23333px;line-height:1.25;font-family:Tahoma;-inkscape-font-specification:'Tahoma, Bold';letter-spacing:0px;stroke-width:0.264583"
       id="text902"
       aria-label="C">
      <path
         id="path945"
         style="font-size:2.82222px;stroke-width:0.264583"
         d="m 91.594354,220.36591 q -0.461642,0 -0.733116,-0.27837 -0.271473,-0.27974 -0.271473,-0.78548 0,-0.48782 0.271473,-0.77721 0.272852,-0.29077 0.734494,-0.29077 0.122645,0 0.220486,0.0138 0.09784,0.0138 0.187413,0.0386 0.07028,0.0207 0.152962,0.0565 0.08268,0.0358 0.13367,0.062 v 0.4892 h -0.05237 q -0.03721,-0.0331 -0.09371,-0.0786 -0.0565,-0.0469 -0.128158,-0.0909 -0.07166,-0.0441 -0.158474,-0.0744 -0.08544,-0.0317 -0.179145,-0.0317 -0.111621,0 -0.205327,0.0358 -0.09233,0.0344 -0.176389,0.12127 -0.07717,0.0785 -0.126779,0.21222 -0.04823,0.13367 -0.04823,0.31557 0,0.19155 0.05099,0.32246 0.05099,0.12954 0.133669,0.20946 0.07993,0.0772 0.177767,0.11162 0.09922,0.0344 0.197059,0.0344 0.101975,0 0.194304,-0.0331 0.09233,-0.0345 0.155718,-0.0758 0.0689,-0.0427 0.121267,-0.0868 0.05237,-0.0441 0.09095,-0.0786 h 0.04685 v 0.48232 q -0.0565,0.0262 -0.130914,0.0606 -0.07441,0.0331 -0.152962,0.0565 -0.09646,0.0289 -0.180523,0.0441 -0.08406,0.0152 -0.23151,0.0152 z" />
    </g>
    <g
       style="font-weight:bold;font-size:4.23333px;line-height:1.25;font-family:Tahoma;-inkscape-font-specification:'Tahoma, Bold';letter-spacing:0px;stroke-width:0.264583"
       id="text906"
       aria-label="SUM">
      <path
         id="path938"
         style="font-size:2.82222px;stroke-width:0.264583"
         d="m 89.146957,273.70038 q -0.235644,0 -0.414789,-0.0455 -0.177767,-0.0455 -0.330729,-0.113 v -0.48782 h 0.04685 q 0.15434,0.13091 0.340375,0.20119 0.186035,0.0703 0.361046,0.0703 0.0441,0 0.115755,-0.01 0.07304,-0.01 0.117133,-0.0303 0.05374,-0.0234 0.09095,-0.0648 0.03721,-0.0427 0.03721,-0.11162 0,-0.0772 -0.06063,-0.1254 -0.06063,-0.0482 -0.144694,-0.0703 -0.10473,-0.0276 -0.22462,-0.0524 -0.118511,-0.0248 -0.221864,-0.0606 -0.2384,-0.0841 -0.341753,-0.226 -0.103353,-0.14194 -0.103353,-0.35554 0,-0.28801 0.243913,-0.46577 0.243912,-0.17915 0.609092,-0.17915 0.183279,0 0.363802,0.0372 0.181901,0.0372 0.325217,0.1006 v 0.46853 h -0.04547 q -0.114377,-0.0978 -0.279742,-0.16536 -0.163986,-0.0675 -0.337619,-0.0675 -0.06752,0 -0.121267,0.01 -0.05374,0.01 -0.112999,0.0372 -0.04823,0.022 -0.08406,0.0661 -0.03445,0.0427 -0.03445,0.0965 0,0.0786 0.05512,0.1254 0.0565,0.0455 0.216352,0.0827 0.103353,0.0234 0.198437,0.0455 0.09646,0.022 0.205328,0.0606 0.213595,0.0772 0.316948,0.20808 0.104731,0.12953 0.104731,0.34313 0,0.30592 -0.241156,0.49196 -0.239779,0.18603 -0.649056,0.18603 z" />
      <path
         id="path940"
         style="font-size:2.82222px;stroke-width:0.264583"
         d="m 91.128574,273.7059 q -0.413411,0 -0.636653,-0.19982 -0.221864,-0.19981 -0.221864,-0.58429 v -1.31051 h 0.515386 v 1.2802 q 0,0.21359 0.07993,0.31832 0.08131,0.10473 0.263205,0.10473 0.177767,0 0.26045,-0.10059 0.08406,-0.1006 0.08406,-0.32246 v -1.2802 h 0.515386 v 1.30914 q 0,0.37896 -0.21773,0.58291 -0.216352,0.20257 -0.642166,0.20257 z" />
      <path
         id="path942"
         style="font-size:2.82222px;stroke-width:0.264583"
         d="m 94.478583,273.66318 h -0.51263 v -1.36013 l -0.373448,0.87781 h -0.3514 l -0.373448,-0.87781 v 1.36013 h -0.485069 v -2.0519 h 0.593934 l 0.454753,1.01286 0.453374,-1.01286 h 0.593934 z" />
    </g>
    <g
       transform="translate(-5.0800007,10.159998)"
       style="font-weight:bold;font-size:4.23333px;line-height:1.25;font-family:Tahoma;-inkscape-font-specification:'Tahoma, Bold';letter-spacing:0px;display:inline;stroke-width:0.264583"
       id="text894-7"
       aria-label="A">
      <path
         id="path960"
         style="font-size:2.82223px;stroke-width:0.264583"
         d="m 34.58573,179.68593 0.693155,-2.05191 h 0.562241 l 0.693155,2.05191 H 36.003735 L 35.875577,179.267 h -0.644924 l -0.128158,0.41893 z m 1.176848,-0.791 -0.209463,-0.67662 -0.209462,0.67662 z" />
    </g>
    <g
       transform="translate(-2.5400011,10.159998)"
       style="font-weight:bold;font-size:4.23333px;line-height:1.25;font-family:Tahoma;-inkscape-font-specification:'Tahoma, Bold';letter-spacing:0px;display:inline;stroke-width:0.264583"
       id="text898-1"
       aria-label="B">
      <path
         id="path957"
         style="font-size:2.82223px;stroke-width:0.264583"
         d="m 56.700635,179.05754 q 0,0.15296 -0.05788,0.26872 -0.05788,0.11575 -0.155719,0.19155 -0.115756,0.0909 -0.254938,0.12953 -0.137804,0.0386 -0.351401,0.0386 h -0.821313 v -2.05191 h 0.724851 q 0.225998,0 0.341754,0.0179 0.117134,0.0165 0.219109,0.0717 0.110243,0.0592 0.163987,0.15847 0.05512,0.0992 0.05512,0.22876 0,0.1502 -0.07579,0.26734 -0.07441,0.11713 -0.206706,0.17225 v 0.011 q 0.19017,0.04 0.304547,0.16398 0.114378,0.12265 0.114379,0.33211 z m -0.660083,-0.84336 q 0,-0.0496 -0.02618,-0.10198 -0.02481,-0.0524 -0.07855,-0.0758 -0.05099,-0.022 -0.121268,-0.0234 -0.0689,-0.003 -0.206706,-0.003 h -0.03583 v 0.43408 h 0.06477 q 0.132292,0 0.184658,-0.003 0.05374,-0.003 0.110243,-0.0289 0.06201,-0.0289 0.08544,-0.0799 0.02343,-0.051 0.02343,-0.11851 z m 0.129536,0.83371 q 0,-0.0951 -0.03858,-0.14882 -0.03859,-0.0538 -0.115755,-0.0813 -0.04685,-0.0179 -0.129536,-0.0193 -0.08131,-0.003 -0.219109,-0.003 h -0.09508 v 0.51401 h 0.02756 q 0.201194,0 0.278364,-0.003 0.07717,-0.003 0.157097,-0.0372 0.07028,-0.0303 0.101975,-0.0882 0.03307,-0.0592 0.03307,-0.13367 z" />
    </g>
    <g
       transform="translate(0,10.159998)"
       style="font-weight:bold;font-size:4.23333px;line-height:1.25;font-family:Tahoma;-inkscape-font-specification:'Tahoma, Bold';letter-spacing:0px;display:inline;stroke-width:0.264583"
       id="text902-4"
       aria-label="C">
      <path
         id="path954"
         style="font-size:2.82223px;stroke-width:0.264583"
         d="m 76.354352,179.72589 q -0.461644,0 -0.733118,-0.27836 -0.271474,-0.27975 -0.271474,-0.78549 0,-0.48782 0.271474,-0.77721 0.272852,-0.29077 0.734497,-0.29077 0.122645,0 0.220486,0.0138 0.09784,0.0138 0.187414,0.0386 0.07028,0.0207 0.152963,0.0565 0.08268,0.0358 0.13367,0.062 v 0.4892 h -0.05237 q -0.03721,-0.0331 -0.09371,-0.0786 -0.0565,-0.0469 -0.128158,-0.0909 -0.07166,-0.0441 -0.158474,-0.0744 -0.08544,-0.0317 -0.179146,-0.0317 -0.111621,0 -0.205328,0.0358 -0.09233,0.0344 -0.17639,0.12127 -0.07717,0.0786 -0.126779,0.21222 -0.04823,0.13367 -0.04823,0.31557 0,0.19155 0.05099,0.32246 0.05099,0.12954 0.13367,0.20947 0.07993,0.0772 0.177767,0.11162 0.09922,0.0344 0.19706,0.0344 0.101975,0 0.194304,-0.0331 0.09233,-0.0344 0.155719,-0.0758 0.0689,-0.0427 0.121268,-0.0868 0.05237,-0.0441 0.09095,-0.0785 h 0.04685 v 0.48231 q -0.0565,0.0262 -0.130914,0.0606 -0.07441,0.0331 -0.152963,0.0565 -0.09646,0.0289 -0.180523,0.0441 -0.08406,0.0152 -0.231512,0.0152 z" />
    </g>
  </g>
  <g
     inkscape:groupmode="layer"
     id="layer2"
     inkscape:label="components"
     style="display:inline">
    <circle
       id="path30"
       style="fill:#000000;stroke:#000000;stroke-width:0.264583"
       cx="-43.920834"
       cy="-48.154167"
       r="0.035242248" />
    <circle
       id="path32"
       style="fill:#000000;stroke:#000000;stroke-width:0.264583"
       cx="-32.279167"
       cy="-2.5135417"
       r="0.0088105621" />
    <circle
       id="path34"
       style="fill:#000000;stroke:#000000;stroke-width:0.264583"
       cx="-17.991667"
       cy="0.1984375"
       r="0.0088105621" />
    <circle
       id="path36"
       style="fill:#000000;stroke:#000000;stroke-width:0.264583"
       cx="-25.069271"
       cy="2.9104166"
       r="0.0088105621" />
    <text
       xml:space="preserve"
       style="font-size:10.5833px;line-height:1.25;font-family:'Eras Bold ITC';-inkscape-font-specification:'Eras Bold ITC';stroke-width:0.264583"
       x="-38.695312"
       y="11.90625"
       id="text42"><tspan
         sodipodi:role="line"
         id="tspan40"
         x="-38.695312"
         y="11.90625"
         style="font-style:normal;font-variant:normal;font-weight:bold;font-stretch:normal;font-size:3.52778px;font-family:Garamond;-inkscape-font-specification:'Garamond Bold';stroke-width:0.264583" /></text>
    <text
       xml:space="preserve"
       style="font-size:10.5833px;line-height:1.25;font-family:'Eras Bold ITC';-inkscape-font-specification:'Eras Bold ITC';stroke-width:0.264583"
       x="-45.111458"
       y="16.668749"
       id="text78"><tspan
         sodipodi:role="line"
         id="tspan76"
         x="-45.111458"
         y="16.668749"
         style="stroke-width:0.264583" /></text>
  </g>
</svg>
