<?xml version="1.0" encoding="UTF-8" standalone="no"?>
<svg
   xmlns:dc="http://purl.org/dc/elements/1.1/"
   xmlns:cc="http://creativecommons.org/ns#"
   xmlns:rdf="http://www.w3.org/1999/02/22-rdf-syntax-ns#"
   xmlns:svg="http://www.w3.org/2000/svg"
   xmlns="http://www.w3.org/2000/svg"
   xmlns:sodipodi="http://sodipodi.sourceforge.net/DTD/sodipodi-0.dtd"
   xmlns:inkscape="http://www.inkscape.org/namespaces/inkscape"
   sodipodi:docname="Celei.svg"
   inkscape:version="1.0 (4035a4fb49, 2020-05-01)"
   id="svg8"
   version="1.1"
   viewBox="0 0 35.560005 128.50002"
   height="128.5mm"
   width="35.560001mm">
  <defs
     id="defs2">
    <inkscape:path-effect
       hide_knots="false"
       only_selected="false"
       apply_with_radius="true"
       apply_no_radius="true"
       use_knot_distance="true"
       flexible="false"
       chamfer_steps="1"
       radius="4"
       mode="F"
       method="auto"
       unit="mm"
       satellites_param="F,0,0,1,0,4,0,1 @ F,0,0,1,0,4,0,1 @ F,0,0,1,0,4,0,1 @ F,0,0,1,0,4,0,1"
       lpeversion="1"
       is_visible="true"
       id="path-effect2327"
       effect="fillet_chamfer" />
    <inkscape:path-effect
       effect="fillet_chamfer"
       id="path-effect95"
       is_visible="true"
       lpeversion="1"
       satellites_param="F,0,0,1,0,4,0,1 @ F,0,0,1,0,4,0,1 @ F,0,0,1,0,4,0,1 @ F,0,0,1,0,4,0,1"
       unit="mm"
       method="auto"
       mode="F"
       radius="4"
       chamfer_steps="1"
       flexible="false"
       use_knot_distance="true"
       apply_no_radius="true"
       apply_with_radius="true"
       only_selected="false"
       hide_knots="false" />
    <inkscape:path-effect
       effect="fillet_chamfer"
       id="path-effect105"
       is_visible="true"
       lpeversion="1"
       satellites_param="F,0,0,1,0,4,0,1 @ F,0,0,1,0,4,0,1 @ F,0,0,1,0,4,0,1 @ F,0,0,1,0,4,0,1"
       unit="mm"
       method="auto"
       mode="F"
       radius="4"
       chamfer_steps="1"
       flexible="false"
       use_knot_distance="true"
       apply_no_radius="true"
       apply_with_radius="true"
       only_selected="false"
       hide_knots="false" />
    <inkscape:path-effect
       effect="fillet_chamfer"
       id="path-effect96"
       is_visible="true"
       lpeversion="1"
       satellites_param="F,0,0,1,0,4,0,1 @ F,0,0,1,0,4,0,1 @ F,0,0,1,0,4,0,1 @ F,0,0,1,0,4,0,1"
       unit="mm"
       method="auto"
       mode="F"
       radius="4"
       chamfer_steps="1"
       flexible="false"
       use_knot_distance="true"
       apply_no_radius="true"
       apply_with_radius="true"
       only_selected="false"
       hide_knots="false" />
    <inkscape:path-effect
       hide_knots="false"
       only_selected="false"
       apply_with_radius="true"
       apply_no_radius="true"
       use_knot_distance="true"
       flexible="false"
       chamfer_steps="1"
       radius="4"
       mode="F"
       method="auto"
       unit="mm"
       satellites_param="F,0,0,1,0,4,0,1 @ F,0,0,1,0,4,0,1 @ F,0,0,1,0,4,0,1 @ F,0,0,1,0,4,0,1"
       lpeversion="1"
       is_visible="true"
       id="path-effect77"
       effect="fillet_chamfer" />
    <inkscape:path-effect
       hide_knots="false"
       only_selected="false"
       apply_with_radius="true"
       apply_no_radius="true"
       use_knot_distance="true"
       flexible="false"
       chamfer_steps="1"
       radius="4"
       mode="F"
       method="auto"
       unit="mm"
       satellites_param="F,0,0,1,0,4,0,1 @ F,0,0,1,0,4,0,1 @ F,0,0,1,0,4,0,1 @ F,0,0,1,0,4,0,1"
       lpeversion="1"
       is_visible="true"
       id="path-effect161"
       effect="fillet_chamfer" />
    <inkscape:path-effect
       hide_knots="false"
       only_selected="false"
       apply_with_radius="true"
       apply_no_radius="true"
       use_knot_distance="true"
       flexible="false"
       chamfer_steps="1"
       radius="4"
       mode="F"
       method="auto"
       unit="mm"
       satellites_param="F,0,0,1,0,4,0,1 @ F,0,0,1,0,4,0,1 @ F,0,0,1,0,4,0,1 @ F,0,0,1,0,4,0,1"
       lpeversion="1"
       is_visible="true"
       id="path-effect152"
       effect="fillet_chamfer" />
    <inkscape:path-effect
       hide_knots="false"
       only_selected="false"
       apply_with_radius="true"
       apply_no_radius="true"
       use_knot_distance="true"
       flexible="false"
       chamfer_steps="1"
       radius="4"
       mode="F"
       method="auto"
       unit="mm"
       satellites_param="F,0,0,1,0,4,0,1 @ F,0,0,1,0,4,0,1 @ F,0,0,1,0,4,0,1 @ F,0,0,1,0,4,0,1"
       lpeversion="1"
       is_visible="true"
       id="path-effect143"
       effect="fillet_chamfer" />
    <inkscape:path-effect
       effect="fillet_chamfer"
       id="path-effect124"
       is_visible="true"
       lpeversion="1"
       satellites_param="F,0,0,1,0,4,0,1 @ F,0,0,1,0,4,0,1 @ F,0,0,1,0,4,0,1 @ F,0,0,1,0,4,0,1"
       unit="mm"
       method="auto"
       mode="F"
       radius="4"
       chamfer_steps="1"
       flexible="false"
       use_knot_distance="true"
       apply_no_radius="true"
       apply_with_radius="true"
       only_selected="false"
       hide_knots="false" />
    <inkscape:path-effect
       hide_knots="false"
       only_selected="false"
       apply_with_radius="true"
       apply_no_radius="true"
       use_knot_distance="true"
       flexible="false"
       chamfer_steps="1"
       radius="4"
       mode="F"
       method="auto"
       unit="mm"
       satellites_param="F,0,0,1,0,4,0,1 @ F,0,0,1,0,4,0,1 @ F,0,0,1,0,4,0,1 @ F,0,0,1,0,4,0,1"
       lpeversion="1"
       is_visible="true"
       id="path-effect154"
       effect="fillet_chamfer" />
  </defs>
  <sodipodi:namedview
     guidetolerance="28.7"
     gridtolerance="26.6"
     objecttolerance="24.3"
     inkscape:lockguides="false"
     inkscape:document-rotation="0"
     inkscape:snap-nodes="false"
     inkscape:snap-bbox-midpoints="true"
     inkscape:window-maximized="1"
     inkscape:window-y="-11"
     inkscape:window-x="-11"
     inkscape:window-height="1046"
     inkscape:window-width="1821"
     inkscape:snap-bbox-edge-midpoints="false"
     inkscape:bbox-nodes="false"
     inkscape:snap-page="true"
     inkscape:snap-bbox="true"
     units="mm"
     showgrid="true"
     inkscape:current-layer="layer1"
     inkscape:document-units="mm"
     inkscape:cy="137.07709"
     inkscape:cx="107.43974"
     inkscape:zoom="5.6568542"
     inkscape:pageshadow="2"
     inkscape:pageopacity="0.0"
     borderopacity="1.0"
     bordercolor="#666666"
     pagecolor="#ffffff"
     id="base">
    <inkscape:grid
       empspacing="4"
       empopacity="0.25098039"
       empcolor="#71530f"
       spacingy="2.5400004"
       spacingx="2.5400004"
       opacity="0.53333333"
       color="#ffd984"
       units="mm"
       id="grid86"
       type="xygrid" />
  </sodipodi:namedview>
  <metadata
     id="metadata5">
    <rdf:RDF>
      <cc:Work
         rdf:about="">
        <dc:format>image/svg+xml</dc:format>
        <dc:type
           rdf:resource="http://purl.org/dc/dcmitype/StillImage" />
        <dc:title></dc:title>
        <dc:creator>
          <cc:Agent>
            <dc:title>Firo Lightfog</dc:title>
          </cc:Agent>
        </dc:creator>
      </cc:Work>
    </rdf:RDF>
  </metadata>
  <g
     transform="translate(0,-168.49998)"
     id="layer1"
     inkscape:groupmode="layer"
     inkscape:label="Layer 1"
     style="display:inline">
    <rect
       y="168.49834"
       x="0.068502754"
       height="128.54678"
       width="35.423"
       id="rect420"
       style="display:inline;opacity:1;vector-effect:none;fill:#cccccc;fill-opacity:1;fill-rule:evenodd;stroke:none;stroke-width:0.700163;stroke-linecap:butt;stroke-linejoin:miter;stroke-miterlimit:4;stroke-dasharray:none;stroke-dashoffset:0;stroke-opacity:1;paint-order:normal" />
    <text
       id="text59"
       y="277.43234"
       x="1.1693041"
       style="font-size:10.5833px;line-height:1.25;font-family:'Eras Bold ITC';-inkscape-font-specification:'Eras Bold ITC';stroke-width:0.264583"
       xml:space="preserve"><tspan
         style="font-size:2.82222px;fill:#ffff00;stroke-width:0.264583"
         y="277.43234"
         x="1.1693041"
         id="tspan57"
         sodipodi:role="line" /></text>
    <text
       id="text127"
       y="172.05467"
       x="-78.577248"
       style="font-size:10.5833px;line-height:1.25;font-family:'Eras Bold ITC';-inkscape-font-specification:'Eras Bold ITC';stroke-width:0.264583"
       xml:space="preserve"><tspan
         style="stroke-width:0.264583"
         y="172.05467"
         x="-78.577248"
         id="tspan125"
         sodipodi:role="line" /></text>
    <text
       id="text131"
       y="186.46049"
       x="-89.989647"
       style="font-size:10.5833px;line-height:1.25;font-family:'Eras Bold ITC';-inkscape-font-specification:'Eras Bold ITC';stroke-width:0.264583"
       xml:space="preserve"><tspan
         style="stroke-width:0.264583"
         y="186.46049"
         x="-89.989647"
         id="tspan129"
         sodipodi:role="line" /></text>
    <g
       style="font-weight:bold;font-size:6.35px;line-height:1.25;font-family:Tahoma;-inkscape-font-specification:'Tahoma, Bold';fill:#000000;stroke-width:0.264583"
       id="text104"
       aria-label="b">
      <path
         id="path116"
         style="font-style:normal;font-variant:normal;font-weight:bold;font-stretch:normal;font-size:14.1111px;font-family:'Wingdings 2';-inkscape-font-specification:'Wingdings 2 Bold';fill:#000000;stroke-width:0.264583"
         d="m 3.2732611,177.4586 v 0.68213 q 0.3927406,0 0.592556,0.19982 0.2067056,0.19981 0.3927406,0.76481 l 0.110243,0.34451 q 0.37207,1.14377 1.2195628,1.50206 -0.7854811,0.15158 -1.2540138,0.64768 -0.4616424,0.4892 -0.4616424,1.16444 0,0.94395 0.7096891,1.56407 0.7096891,0.61323 1.7983385,0.61323 1.6536445,0 2.5562588,-1.41938 L 8.4064495,183.0741 q -0.5856658,0.62701 -1.2057825,0.62701 -0.5098738,0 -0.8750536,-0.33073 -0.3651799,-0.33762 -0.3651799,-0.79926 0,-0.38585 0.2824977,-0.66835 0.2893878,-0.28249 0.6752382,-0.28249 0.6959087,0 1.9499225,0.98529 l 0.4203013,0.33073 q 2.0463848,1.6123 3.9067348,1.6123 1.612304,0 2.728514,-1.06108 1.1231,-1.06109 1.1231,-2.58382 0,-1.54341 -1.157551,-2.49425 -1.157551,-0.95085 -3.038572,-0.95085 h -0.227376 v 0.68213 q 1.11621,0.0758 1.770778,0.77859 0.654567,0.69591 0.654567,1.81212 0,1.10243 -0.826822,1.88791 -0.826822,0.77859 -1.998154,0.77859 -1.12999,0 -2.011934,-0.68901 -0.8819437,-0.68902 -0.8819437,-1.57097 0,-0.4203 0.2687173,-0.70969 0.2756074,-0.28938 0.6752384,-0.28938 0.399631,0 0.599446,0.22048 0.206705,0.2136 0.206705,0.65457 0,0.26872 -0.151584,0.6339 l 0.620117,0.28249 q 0.413411,-0.9784 0.413411,-1.63986 0,-0.81304 -0.530544,-1.39182 -0.523654,-0.58566 -1.267794,-0.58566 -0.475423,0 -0.8681636,0.23426 -0.3927406,0.23427 -0.7027989,0.70969 -0.3996308,-0.99907 -1.2677942,-1.39871 -0.8612732,-0.39963 -2.6182705,-0.39963 z m 4.9609337,3.36241 Q 7.2213375,180.62809 6.3807349,179.13292 L 6.2636017,178.9331 q -0.3651798,-0.64767 -0.8819437,-0.84749 2.6320509,0 2.8525368,2.7354 z" />
    </g>
    <g
       aria-label="CELEI"
       id="text1528"
       style="font-weight:bold;font-size:4.23333px;line-height:1.25;font-family:Tahoma;-inkscape-font-specification:'Tahoma, Bold';letter-spacing:0px;stroke-width:0.264583">
      <path
         d="m 10.66044,294.55888 q -0.6924632,0 -1.0996731,-0.41755 -0.4072099,-0.41961 -0.4072099,-1.17822 0,-0.73174 0.4072099,-1.16582 0.409277,-0.43615 1.1017411,-0.43615 0.183967,0 0.330728,0.0207 0.146761,0.0207 0.28112,0.0579 0.10542,0.031 0.229443,0.0848 0.124023,0.0537 0.200505,0.093 v 0.7338 h -0.07855 q -0.05581,-0.0496 -0.140559,-0.11782 -0.08475,-0.0703 -0.192237,-0.13643 -0.107486,-0.0661 -0.237711,-0.11162 -0.128157,-0.0475 -0.268717,-0.0475 -0.167432,0 -0.307991,0.0537 -0.138493,0.0517 -0.264584,0.1819 -0.115755,0.11783 -0.190169,0.31833 -0.072347,0.20051 -0.072347,0.47336 0,0.28732 0.076481,0.48369 0.07648,0.1943 0.200505,0.31419 0.119889,0.11576 0.26665,0.16743 0.148828,0.0517 0.295589,0.0517 0.152962,0 0.291455,-0.0496 0.138493,-0.0517 0.233577,-0.11369 0.103353,-0.0641 0.181901,-0.13022 0.07855,-0.0661 0.136426,-0.11783 h 0.07028 v 0.72347 q -0.08475,0.0393 -0.196371,0.091 -0.111621,0.0496 -0.229443,0.0847 -0.144694,0.0434 -0.270784,0.0661 -0.126091,0.0227 -0.347266,0.0227 z"
         style="stroke-width:0.264583"
         id="path903" />
      <path
         d="m 12.161123,294.49893 v -3.07784 h 2.081525 v 0.58704 h -1.31258 v 0.5395 h 1.209227 v 0.58705 h -1.209227 v 0.77721 h 1.31258 v 0.58704 z"
         style="stroke-width:0.264583"
         id="path905" />
      <path
         d="m 16.820266,294.49893 h -2.054653 v -3.07784 h 0.773079 v 2.4908 h 1.281574 z"
         style="stroke-width:0.264583"
         id="path907" />
      <path
         d="m 17.188202,294.49893 v -3.07784 h 2.081525 v 0.58704 h -1.31258 v 0.5395 h 1.209227 v 0.58705 h -1.209227 v 0.77721 h 1.31258 v 0.58704 z"
         style="stroke-width:0.264583"
         id="path909" />
      <path
         d="m 21.326447,294.49893 h -1.657779 v -0.53743 h 0.44235 v -2.00298 h -0.44235 v -0.53743 h 1.657779 v 0.53743 h -0.44235 v 2.00298 h 0.44235 z"
         style="stroke-width:0.264583"
         id="path911" />
    </g>
    <path
       d="m 26.64834,191.37482 h 2.583328 a 4,4 45 0 1 4,4 v 91.793 a 4,4 135 0 1 -4,4 H 26.64834 a 4,4 45 0 1 -4,-4 v -91.793 a 4,4 135 0 1 4,-4 z"
       sodipodi:type="rect"
       inkscape:path-effect="#path-effect124"
       style="display:inline;fill:#de8787;stroke-width:0.663375"
       id="recta"
       width="10.583327"
       height="99.793007"
       x="22.64834"
       y="191.37482" />
    <path
       d="m 6.3283339,201.53241 h 2.5833349 a 4,4 45 0 1 4.0000002,4 v 3.91274 a 4,4 135 0 1 -4.0000002,4 H 6.3283339 a 4,4 45 0 1 -4,-4 v -3.91274 a 4,4 135 0 1 4,-4 z"
       y="201.53241"
       x="2.3283339"
       height="11.912741"
       width="10.583335"
       id="recta-2"
       style="display:inline;fill:#de8787;stroke-width:0.2292"
       inkscape:path-effect="#path-effect2327"
       sodipodi:type="rect" />
    <g
       aria-label="CLK"
       id="text877"
       style="font-weight:bold;font-size:2.82222px;line-height:1.25;font-family:Tahoma;-inkscape-font-specification:'Tahoma, Bold';letter-spacing:0px;stroke-width:0.264583">
      <path
         d="m 5.9153671,268.6259 q -0.4616425,0 -0.7331158,-0.27836 -0.2714733,-0.27974 -0.2714733,-0.78548 0,-0.48783 0.2714733,-0.77722 0.2728514,-0.29076 0.7344938,-0.29076 0.1226453,0 0.220486,0.0138 0.097841,0.0138 0.187413,0.0386 0.07028,0.0207 0.1529621,0.0565 0.082682,0.0358 0.1336696,0.062 v 0.48921 h -0.052365 q -0.037207,-0.0331 -0.093707,-0.0786 -0.056499,-0.0469 -0.1281575,-0.0909 -0.071658,-0.0441 -0.1584742,-0.0744 -0.085438,-0.0317 -0.1791449,-0.0317 -0.111621,0 -0.2053275,0.0358 -0.092328,0.0344 -0.1763888,0.12127 -0.07717,0.0785 -0.1267794,0.21221 -0.048231,0.13367 -0.048231,0.31557 0,0.19155 0.050987,0.32246 0.050987,0.12954 0.1336696,0.20947 0.079926,0.0772 0.1777668,0.11162 0.099219,0.0344 0.1970593,0.0344 0.1019748,0 0.1943032,-0.0331 0.092328,-0.0345 0.1557182,-0.0758 0.068902,-0.0427 0.1212673,-0.0868 0.052365,-0.0441 0.09095,-0.0786 h 0.046853 v 0.48231 q -0.056499,0.0262 -0.1309135,0.0606 -0.074414,0.0331 -0.1529621,0.0565 -0.096463,0.0289 -0.1805229,0.0441 -0.08406,0.0152 -0.2315102,0.0152 z"
         style="font-size:2.82222px;stroke-width:0.264583"
         id="path921" />
      <path
         d="M 8.285591,268.58594 H 6.9158221 v -2.0519 H 7.431208 v 1.66053 h 0.854383 z"
         style="font-size:2.82222px;stroke-width:0.264583"
         id="path923" />
      <path
         d="M 10.32922,268.58594 H 9.7063472 l -0.559483,-0.83371 -0.1005967,0.14055 v 0.69316 H 8.5308816 v -2.0519 h 0.5153859 v 0.91088 l 0.6559456,-0.91088 h 0.5966899 l -0.7317375,0.95222 z"
         style="font-size:2.82222px;stroke-width:0.264583"
         id="path925" />
    </g>
    <g
       aria-label="RST"
       id="text881"
       style="font-weight:bold;font-size:4.23333px;line-height:1.25;font-family:Tahoma;-inkscape-font-specification:'Tahoma, Bold';letter-spacing:0px;stroke-width:0.264583">
      <path
         d="m 6.8414105,281.28595 h -0.628385 l -0.5718854,-0.75241 h -0.184657 v 0.75241 H 4.9438533 v -2.0519 h 0.8254442 q 0.1708767,0 0.2976561,0.022 0.1267794,0.0207 0.2342663,0.0882 0.110243,0.0703 0.1750107,0.17914 0.064768,0.10749 0.064768,0.27423 0,0.23564 -0.1061089,0.38309 -0.1061089,0.14608 -0.2838757,0.23289 z m -0.8295784,-1.42351 q 0,-0.0772 -0.030317,-0.13229 -0.028939,-0.0565 -0.097841,-0.0868 -0.048231,-0.0207 -0.1074869,-0.0262 -0.059256,-0.006 -0.1474499,-0.006 H 5.4564831 v 0.5526 h 0.14745 q 0.1074869,0 0.1819009,-0.0124 0.075792,-0.0138 0.1281574,-0.0565 0.049609,-0.0386 0.073036,-0.0923 0.024805,-0.0537 0.024805,-0.14056 z"
         style="font-size:2.82222px;stroke-width:0.264583"
         id="path914" />
      <path
         d="m 7.6282696,281.32316 q -0.2356443,0 -0.4147892,-0.0455 -0.1777668,-0.0455 -0.3307289,-0.113 v -0.48782 h 0.046853 q 0.1543401,0.13091 0.3403752,0.20119 0.186035,0.0703 0.3610457,0.0703 0.044097,0 0.1157551,-0.01 0.073036,-0.01 0.1171332,-0.0303 0.053743,-0.0234 0.09095,-0.0648 0.037207,-0.0427 0.037207,-0.11162 0,-0.0772 -0.060634,-0.1254 -0.060634,-0.0482 -0.1446939,-0.0703 -0.1047308,-0.0276 -0.2246201,-0.0524 -0.1185112,-0.0248 -0.221864,-0.0606 -0.2384004,-0.0841 -0.3417532,-0.226 -0.1033528,-0.14194 -0.1033528,-0.35553 0,-0.28801 0.2439126,-0.46578 0.2439126,-0.17914 0.6090924,-0.17914 0.183279,0 0.3638019,0.0372 0.1819009,0.0372 0.3252167,0.1006 v 0.46853 h -0.045475 q -0.1143771,-0.0978 -0.2797415,-0.16536 -0.1639865,-0.0675 -0.3376192,-0.0675 -0.067524,0 -0.1212672,0.01 -0.053744,0.01 -0.1129991,0.0372 -0.048231,0.0221 -0.08406,0.0661 -0.034451,0.0427 -0.034451,0.0965 0,0.0785 0.055122,0.1254 0.056499,0.0455 0.2163519,0.0827 0.1033527,0.0234 0.1984373,0.0455 0.096463,0.0221 0.2053275,0.0606 0.2135958,0.0772 0.3169486,0.20808 0.1047308,0.12954 0.1047308,0.34313 0,0.30593 -0.2411565,0.49196 -0.2397785,0.18604 -0.6490555,0.18604 z"
         style="font-size:2.82222px;stroke-width:0.264583"
         id="path916" />
      <path
         d="m 9.1744273,281.28595 v -1.66054 H 8.5680909 v -0.39136 H 10.29615 v 0.39136 H 9.6898132 v 1.66054 z"
         style="font-size:2.82222px;stroke-width:0.264583"
         id="path918" />
    </g>
    <g
       aria-label="STEPS"
       id="text885"
       style="font-weight:bold;font-size:4.23333px;line-height:1.25;font-family:Tahoma;-inkscape-font-specification:'Tahoma, Bold';letter-spacing:0px;stroke-width:0.264583"
       transform="translate(0.7914151,2.9576082)">
      <path
         d="m 18.440906,186.92573 q -0.235644,0 -0.414789,-0.0455 -0.177767,-0.0455 -0.330729,-0.113 v -0.48782 h 0.04685 q 0.154341,0.13091 0.340376,0.20119 0.186035,0.0703 0.361045,0.0703 0.0441,0 0.115755,-0.01 0.07304,-0.01 0.117134,-0.0303 0.05374,-0.0234 0.09095,-0.0648 0.03721,-0.0427 0.03721,-0.11162 0,-0.0772 -0.06063,-0.1254 -0.06063,-0.0482 -0.144694,-0.0703 -0.10473,-0.0276 -0.22462,-0.0524 -0.118511,-0.0248 -0.221864,-0.0606 -0.2384,-0.0841 -0.341753,-0.226 -0.103353,-0.14194 -0.103353,-0.35553 0,-0.28801 0.243913,-0.46578 0.243913,-0.17915 0.609092,-0.17915 0.183279,0 0.363802,0.0372 0.181901,0.0372 0.325217,0.1006 v 0.46853 h -0.04547 q -0.114377,-0.0978 -0.279742,-0.16536 -0.163986,-0.0675 -0.337619,-0.0675 -0.06752,0 -0.121267,0.01 -0.05374,0.01 -0.112999,0.0372 -0.04823,0.022 -0.08406,0.0661 -0.03445,0.0427 -0.03445,0.0965 0,0.0786 0.05512,0.12541 0.0565,0.0455 0.216352,0.0827 0.103353,0.0234 0.198437,0.0455 0.09646,0.0221 0.205328,0.0606 0.213596,0.0772 0.316948,0.20808 0.104731,0.12954 0.104731,0.34313 0,0.30593 -0.241156,0.49196 -0.239779,0.18604 -0.649056,0.18604 z"
         style="font-size:2.82222px;stroke-width:0.264583"
         id="path963" />
      <path
         d="m 19.987064,186.88852 v -1.66054 h -0.606336 v -0.39136 h 1.728058 v 0.39136 H 20.50245 v 1.66054 z"
         style="font-size:2.82222px;stroke-width:0.264583"
         id="path965" />
      <path
         d="m 21.32376,186.88852 v -2.0519 h 1.387683 v 0.39136 H 21.83639 v 0.35967 h 0.806152 v 0.39136 H 21.83639 v 0.51815 h 0.875053 v 0.39136 z"
         style="font-size:2.82222px;stroke-width:0.264583"
         id="path967" />
      <path
         d="m 24.639317,185.4843 q 0,0.14332 -0.04547,0.27285 -0.04547,0.12954 -0.130914,0.21635 -0.05237,0.0538 -0.115755,0.0992 -0.06201,0.0455 -0.137803,0.0772 -0.07579,0.0317 -0.165365,0.0496 -0.08819,0.0179 -0.198437,0.0179 h -0.270095 v 0.6711 h -0.515386 v -2.0519 h 0.796505 q 0.177767,0 0.305924,0.0331 0.129536,0.0317 0.234267,0.10198 0.115755,0.0772 0.179145,0.20671 0.06339,0.12815 0.06339,0.30592 z m -0.529166,0.0124 q 0,-0.0868 -0.04134,-0.14883 -0.04134,-0.0634 -0.09922,-0.0868 -0.07304,-0.0317 -0.14056,-0.0358 -0.06614,-0.006 -0.180522,-0.006 h -0.07304 v 0.6146 h 0.03583 q 0.07304,0 0.137803,-10e-4 0.06477,-0.001 0.112999,-0.01 0.04134,-0.007 0.08682,-0.0262 0.04685,-0.0207 0.07166,-0.0455 0.05236,-0.051 0.07028,-0.10611 0.01929,-0.0551 0.01929,-0.14883 z"
         style="font-size:2.82222px;stroke-width:0.264583"
         id="path969" />
      <path
         d="m 25.551578,186.92573 q -0.235644,0 -0.414789,-0.0455 -0.177767,-0.0455 -0.330729,-0.113 v -0.48782 h 0.04685 q 0.154341,0.13091 0.340376,0.20119 0.186035,0.0703 0.361045,0.0703 0.0441,0 0.115755,-0.01 0.07304,-0.01 0.117134,-0.0303 0.05374,-0.0234 0.09095,-0.0648 0.03721,-0.0427 0.03721,-0.11162 0,-0.0772 -0.06063,-0.1254 -0.06063,-0.0482 -0.144694,-0.0703 -0.10473,-0.0276 -0.22462,-0.0524 -0.118511,-0.0248 -0.221864,-0.0606 -0.2384,-0.0841 -0.341753,-0.226 -0.103353,-0.14194 -0.103353,-0.35553 0,-0.28801 0.243913,-0.46578 0.243913,-0.17915 0.609092,-0.17915 0.183279,0 0.363802,0.0372 0.181901,0.0372 0.325217,0.1006 v 0.46853 h -0.04548 q -0.114377,-0.0978 -0.279742,-0.16536 -0.163986,-0.0675 -0.337619,-0.0675 -0.06752,0 -0.121267,0.01 -0.05374,0.01 -0.112999,0.0372 -0.04823,0.022 -0.08406,0.0661 -0.03445,0.0427 -0.03445,0.0965 0,0.0786 0.05512,0.12541 0.0565,0.0455 0.216352,0.0827 0.103353,0.0234 0.198437,0.0455 0.09646,0.0221 0.205328,0.0606 0.213596,0.0772 0.316948,0.20808 0.104731,0.12954 0.104731,0.34313 0,0.30593 -0.241156,0.49196 -0.239779,0.18604 -0.649056,0.18604 z"
         style="font-size:2.82222px;stroke-width:0.264583"
         id="path971" />
    </g>
    <g
       aria-label="ADD"
       id="text889"
       style="font-weight:bold;font-size:4.23333px;line-height:1.25;font-family:Tahoma;-inkscape-font-specification:'Tahoma, Bold';letter-spacing:0px;stroke-width:0.264583">
      <path
         d="m 4.5566245,189.84593 0.6931527,-2.0519 h 0.5622392 l 0.6931527,2.0519 H 5.9746248 L 5.8464673,189.42701 H 5.2015459 l -0.1281574,0.41892 z m 1.1768438,-0.79099 -0.2094617,-0.67662 -0.2094616,0.67662 z"
         style="font-size:2.82222px;stroke-width:0.264583"
         id="path956" />
      <path
         d="m 8.544664,188.82205 q 0,0.28663 -0.1254013,0.51401 -0.1254014,0.226 -0.3169486,0.34726 -0.1598523,0.10336 -0.3486434,0.13367 -0.187413,0.0289 -0.3996308,0.0289 H 6.7118746 v -2.0519 h 0.6366532 q 0.2163518,0 0.4051429,0.0276 0.1887911,0.0276 0.3541556,0.13367 0.2025714,0.12953 0.3197046,0.35002 0.1171331,0.2191 0.1171331,0.51676 z m -0.5291662,-0.004 q 0,-0.20258 -0.07028,-0.34589 -0.068902,-0.14469 -0.2135958,-0.226 -0.1047308,-0.0579 -0.2204859,-0.0634 -0.1143771,-0.006 -0.2742294,-0.006 h -0.00965 v 1.28433 h 0.00965 q 0.1736327,0 0.2921439,-0.006 0.1198892,-0.007 0.2273761,-0.0744 0.1267794,-0.0799 0.1929252,-0.22048 0.066146,-0.14056 0.066146,-0.34313 z"
         style="font-size:2.82222px;stroke-width:0.264583"
         id="path958" />
      <path
         d="m 10.683378,188.82205 q 0,0.28663 -0.125402,0.51401 -0.125401,0.226 -0.316948,0.34726 -0.159853,0.10336 -0.3486437,0.13367 -0.187413,0.0289 -0.3996308,0.0289 H 8.8505882 v -2.0519 h 0.6366532 q 0.2163518,0 0.4051429,0.0276 0.1887907,0.0276 0.3541557,0.13367 0.202571,0.12953 0.319704,0.35002 0.117134,0.2191 0.117134,0.51676 z m -0.529167,-0.004 q 0,-0.20258 -0.07028,-0.34589 -0.0689,-0.14469 -0.2135953,-0.226 -0.1047308,-0.0579 -0.2204859,-0.0634 -0.1143771,-0.006 -0.2742294,-0.006 h -0.00965 v 1.28433 h 0.00965 q 0.1736327,0 0.2921439,-0.006 0.1198892,-0.007 0.2273761,-0.0744 0.1267796,-0.0799 0.1929256,-0.22048 0.06615,-0.14056 0.06615,-0.34313 z"
         style="font-size:2.82222px;stroke-width:0.264583"
         id="path960" />
    </g>
    <g
       aria-label="OUT"
       id="text893"
       style="font-weight:bold;font-size:4.23333px;line-height:1.25;font-family:Tahoma;-inkscape-font-specification:'Tahoma, Bold';letter-spacing:0px;stroke-width:0.264583">
      <path
         d="m 6.446461,203.72263 q 0,0.49748 -0.2659612,0.78273 -0.2659611,0.28525 -0.7289816,0.28525 -0.4643985,0 -0.7289817,-0.28801 -0.2645831,-0.28938 -0.2645831,-0.77997 0,-0.49471 0.2645831,-0.78134 0.2645832,-0.28801 0.7289817,-0.28801 0.4630205,0 0.7289816,0.28663 0.2659612,0.28525 0.2659612,0.78272 z m -0.5319223,-0.001 q 0,-0.18328 -0.038585,-0.31144 -0.037207,-0.12954 -0.1005967,-0.21222 -0.066146,-0.0841 -0.150206,-0.11989 -0.082682,-0.0372 -0.1722547,-0.0372 -0.095084,0 -0.1722546,0.0344 -0.07717,0.0331 -0.148828,0.11989 -0.06339,0.0799 -0.1033528,0.21221 -0.038585,0.1323 -0.038585,0.31557 0,0.1888 0.037207,0.3142 0.037207,0.12402 0.1019748,0.20808 0.066146,0.0854 0.150206,0.12265 0.08406,0.0358 0.1736327,0.0358 0.09095,0 0.1763888,-0.0386 0.085438,-0.04 0.1474499,-0.12265 0.066146,-0.0896 0.1019748,-0.20808 0.035829,-0.11989 0.035829,-0.31281 z"
         style="font-size:2.82222px;stroke-width:0.264583"
         id="path949" />
      <path
         d="m 7.5792075,204.79061 q -0.4134111,0 -0.6366531,-0.19981 -0.221864,-0.19982 -0.221864,-0.58429 V 202.696 h 0.5153859 v 1.28019 q 0,0.2136 0.079926,0.31833 0.081304,0.10473 0.2632051,0.10473 0.1777668,0 0.2604491,-0.1006 0.08406,-0.10059 0.08406,-0.32246 V 202.696 h 0.5153859 v 1.30913 q 0,0.37896 -0.2177298,0.58291 -0.2163519,0.20257 -0.6421651,0.20257 z"
         style="font-size:2.82222px;stroke-width:0.264583"
         id="path951" />
      <path
         d="m 9.22734,204.74789 v -1.66053 H 8.6210036 V 202.696 h 1.7280584 v 0.39136 H 9.7427259 v 1.66053 z"
         style="font-size:2.82222px;stroke-width:0.264583"
         id="path953" />
    </g>
    <g
       aria-label="OCT"
       id="text897"
       style="font-weight:bold;font-size:4.23333px;line-height:1.25;font-family:Tahoma;-inkscape-font-specification:'Tahoma, Bold';letter-spacing:0px;stroke-width:0.264583"
       transform="translate(0,-2.5400074)">
      <path
         d="m 6.762173,219.30068 q 0,0.49747 -0.2659612,0.78273 -0.2659612,0.28525 -0.7289816,0.28525 -0.4643986,0 -0.7289817,-0.28801 -0.2645831,-0.28939 -0.2645831,-0.77997 0,-0.49471 0.2645831,-0.78134 0.2645831,-0.28801 0.7289817,-0.28801 0.4630204,0 0.7289816,0.28663 0.2659612,0.28525 0.2659612,0.78272 z m -0.5319224,-0.001 q 0,-0.18328 -0.038585,-0.31144 -0.037207,-0.12954 -0.1005967,-0.21222 -0.066146,-0.0841 -0.1502061,-0.11989 -0.082682,-0.0372 -0.1722546,-0.0372 -0.095085,0 -0.1722547,0.0345 -0.07717,0.0331 -0.148828,0.11989 -0.06339,0.0799 -0.1033528,0.21221 -0.038585,0.13229 -0.038585,0.31557 0,0.18879 0.037207,0.3142 0.037207,0.12402 0.1019748,0.20808 0.066146,0.0854 0.150206,0.12264 0.08406,0.0358 0.1736327,0.0358 0.09095,0 0.1763887,-0.0386 0.085438,-0.04 0.14745,-0.12265 0.066146,-0.0896 0.1019748,-0.20808 0.035829,-0.11989 0.035829,-0.31281 z"
         style="font-size:2.82222px;stroke-width:0.264583"
         id="path942" />
      <path
         d="m 7.950041,220.36591 q -0.4616424,0 -0.7331158,-0.27837 -0.2714733,-0.27974 -0.2714733,-0.78548 0,-0.48782 0.2714733,-0.77721 0.2728514,-0.29077 0.7344938,-0.29077 0.1226453,0 0.220486,0.0138 0.097841,0.0138 0.187413,0.0386 0.07028,0.0207 0.1529622,0.0565 0.082682,0.0358 0.1336696,0.062 v 0.4892 h -0.052366 q -0.037207,-0.0331 -0.093706,-0.0786 -0.0565,-0.0469 -0.1281574,-0.0909 -0.071658,-0.0441 -0.1584743,-0.0744 -0.085438,-0.0317 -0.1791448,-0.0317 -0.111621,0 -0.2053276,0.0358 -0.092328,0.0344 -0.1763887,0.12127 -0.07717,0.0785 -0.1267794,0.21222 -0.048231,0.13367 -0.048231,0.31557 0,0.19155 0.050987,0.32246 0.050987,0.12954 0.1336696,0.20946 0.079926,0.0772 0.1777668,0.11162 0.099219,0.0344 0.1970593,0.0344 0.1019748,0 0.1943033,-0.0331 0.092328,-0.0345 0.1557182,-0.0758 0.068902,-0.0427 0.1212672,-0.0868 0.052366,-0.0441 0.09095,-0.0786 h 0.046853 v 0.48232 q -0.0565,0.0262 -0.1309136,0.0606 -0.074414,0.0331 -0.1529621,0.0565 -0.096463,0.0289 -0.1805229,0.0441 -0.08406,0.0152 -0.2315102,0.0152 z"
         style="font-size:2.82222px;stroke-width:0.264583"
         id="path944" />
      <path
         d="m 9.3446147,220.32594 v -1.66053 H 8.7382784 v -0.39136 h 1.7280586 v 0.39136 H 9.8600006 v 1.66053 z"
         style="font-size:2.82222px;stroke-width:0.264583"
         id="path946" />
    </g>
    <g
       aria-label="RNG"
       id="text901"
       style="font-weight:bold;font-size:4.23333px;line-height:1.25;font-family:Tahoma;-inkscape-font-specification:'Tahoma, Bold';letter-spacing:0px;stroke-width:0.264583"
       transform="translate(2.4999995e-7,-2.5400404)">
      <path
         d="M 6.54651,233.02457 H 5.9181251 l -0.5718854,-0.75241 h -0.184657 v 0.75241 H 4.6489529 v -2.0519 h 0.8254442 q 0.1708766,0 0.2976561,0.0221 0.1267794,0.0207 0.2342663,0.0882 0.1102429,0.0703 0.1750107,0.17915 0.064768,0.10748 0.064768,0.27423 0,0.23564 -0.1061088,0.38309 -0.1061089,0.14607 -0.2838757,0.23289 z m -0.8295783,-1.42352 q 0,-0.0772 -0.030317,-0.13229 -0.028939,-0.0565 -0.097841,-0.0868 -0.048231,-0.0207 -0.1074869,-0.0262 -0.059256,-0.006 -0.14745,-0.006 H 5.1615827 v 0.55259 h 0.14745 q 0.1074869,0 0.1819009,-0.0124 0.075792,-0.0138 0.1281574,-0.0565 0.049609,-0.0386 0.073036,-0.0923 0.024805,-0.0537 0.024805,-0.14056 z"
         style="font-size:2.82222px;stroke-width:0.264583"
         id="path935" />
      <path
         d="M 8.4578475,233.02457 H 7.9617541 l -0.7909933,-1.43041 v 1.43041 H 6.6994721 v -2.0519 h 0.6325191 l 0.6545676,1.17547 v -1.17547 h 0.4712887 z"
         style="font-size:2.82222px;stroke-width:0.264583"
         id="path937" />
      <path
         d="m 10.591049,232.90743 q -0.135048,0.0551 -0.351399,0.10749 -0.214974,0.0524 -0.4244358,0.0524 -0.4836911,0 -0.7717008,-0.27837 -0.2866317,-0.27974 -0.2866317,-0.79237 0,-0.48231 0.2866317,-0.77308 0.2880097,-0.29076 0.7868592,-0.29076 0.2576934,0 0.4189234,0.0496 0.16123,0.0482 0.333485,0.13229 v 0.48093 h -0.04685 q -0.03721,-0.0289 -0.107487,-0.0813 -0.0689,-0.0538 -0.135048,-0.0909 -0.07717,-0.0441 -0.179145,-0.0758 -0.100596,-0.0317 -0.2135955,-0.0317 -0.1322916,0 -0.2411565,0.0413 -0.1088649,0.0413 -0.1943032,0.12678 -0.081304,0.0827 -0.1295355,0.20946 -0.046853,0.12678 -0.046853,0.2949 0,0.35967 0.1805229,0.53055 0.1805228,0.17087 0.4933373,0.17087 0.027561,0 0.064768,-0.001 0.03721,-10e-4 0.06477,-0.004 V 232.2818 H 9.6939469 v -0.38447 h 0.8971021 z"
         style="font-size:2.82222px;stroke-width:0.264583"
         id="path939" />
    </g>
  </g>
  <g
     style="display:inline"
     inkscape:label="components"
     id="layer2"
     inkscape:groupmode="layer">
    <circle
       r="0.035242248"
       cy="-48.154167"
       cx="-43.920834"
       style="fill:#000000;stroke:#000000;stroke-width:0.264583"
       id="path30" />
    <circle
       r="0.0088105621"
       cy="-2.5135417"
       cx="-32.279167"
       style="fill:#000000;stroke:#000000;stroke-width:0.264583"
       id="path32" />
    <circle
       r="0.0088105621"
       cy="0.1984375"
       cx="-17.991667"
       style="fill:#000000;stroke:#000000;stroke-width:0.264583"
       id="path34" />
    <circle
       r="0.0088105621"
       cy="2.9104166"
       cx="-25.069271"
       style="fill:#000000;stroke:#000000;stroke-width:0.264583"
       id="path36" />
    <text
       id="text42"
       y="11.90625"
       x="-38.695312"
       style="font-size:10.5833px;line-height:1.25;font-family:'Eras Bold ITC';-inkscape-font-specification:'Eras Bold ITC';stroke-width:0.264583"
       xml:space="preserve"><tspan
         style="font-style:normal;font-variant:normal;font-weight:bold;font-stretch:normal;font-size:3.52778px;font-family:Garamond;-inkscape-font-specification:'Garamond Bold';stroke-width:0.264583"
         y="11.90625"
         x="-38.695312"
         id="tspan40"
         sodipodi:role="line" /></text>
    <text
       id="text78"
       y="16.668749"
       x="-45.111458"
       style="font-size:10.5833px;line-height:1.25;font-family:'Eras Bold ITC';-inkscape-font-specification:'Eras Bold ITC';stroke-width:0.264583"
       xml:space="preserve"><tspan
         style="stroke-width:0.264583"
         y="16.668749"
         x="-45.111458"
         id="tspan76"
         sodipodi:role="line" /></text>
  </g>
</svg>
