<?xml version="1.0" encoding="UTF-8" standalone="no"?>
<svg
   xmlns:dc="http://purl.org/dc/elements/1.1/"
   xmlns:cc="http://creativecommons.org/ns#"
   xmlns:rdf="http://www.w3.org/1999/02/22-rdf-syntax-ns#"
   xmlns:svg="http://www.w3.org/2000/svg"
   xmlns="http://www.w3.org/2000/svg"
   xmlns:sodipodi="http://sodipodi.sourceforge.net/DTD/sodipodi-0.dtd"
   xmlns:inkscape="http://www.inkscape.org/namespaces/inkscape"
   width="10.16mm"
   height="128.5mm"
   viewBox="0 0 10.160001 128.50002"
   version="1.1"
   id="svg8"
   inkscape:version="1.0 (4035a4fb49, 2020-05-01)"
   sodipodi:docname="ChSel2.svg">
  <defs
     id="defs2">
    <inkscape:path-effect
       effect="fillet_chamfer"
       id="path-effect77"
       is_visible="true"
       lpeversion="1"
       satellites_param="F,0,0,1,0,0,0,1 @ F,0,0,1,0,0,0,1 @ F,0,0,1,0,0,0,1 @ F,0,0,1,0,0,0,1"
       unit="mm"
       method="auto"
       mode="F"
       radius="0"
       chamfer_steps="1"
       flexible="false"
       use_knot_distance="true"
       apply_no_radius="true"
       apply_with_radius="true"
       only_selected="false"
       hide_knots="false" />
  </defs>
  <sodipodi:namedview
     id="base"
     pagecolor="#ffffff"
     bordercolor="#666666"
     borderopacity="1.0"
     inkscape:pageopacity="0.0"
     inkscape:pageshadow="2"
     inkscape:zoom="1.4142136"
     inkscape:cx="149.87397"
     inkscape:cy="220.78759"
     inkscape:document-units="mm"
     inkscape:current-layer="layer1"
     showgrid="true"
     units="mm"
     inkscape:snap-bbox="true"
     inkscape:snap-page="true"
     inkscape:bbox-nodes="false"
     inkscape:snap-bbox-edge-midpoints="false"
     inkscape:window-width="1780"
     inkscape:window-height="1046"
     inkscape:window-x="-11"
     inkscape:window-y="-11"
     inkscape:window-maximized="1"
     inkscape:snap-bbox-midpoints="true"
     inkscape:snap-nodes="false"
     inkscape:document-rotation="0"
     inkscape:lockguides="false"
     objecttolerance="10000"
     gridtolerance="10000"
     guidetolerance="10000"
     inkscape:snap-others="true">
    <inkscape:grid
       type="xygrid"
       id="grid86"
       units="mm"
       color="#ffd984"
       opacity="0.53333333"
       spacingx="2.5400004"
       spacingy="2.5400004"
       empcolor="#71530f"
       empopacity="0.25098039"
       empspacing="4" />
  </sodipodi:namedview>
  <metadata
     id="metadata5">
    <rdf:RDF>
      <cc:Work
         rdf:about="">
        <dc:format>image/svg+xml</dc:format>
        <dc:type
           rdf:resource="http://purl.org/dc/dcmitype/StillImage" />
        <dc:title />
        <dc:creator>
          <cc:Agent>
            <dc:title>Firo Lightfog</dc:title>
          </cc:Agent>
        </dc:creator>
      </cc:Work>
    </rdf:RDF>
  </metadata>
  <g
     style="display:inline"
     inkscape:label="Layer 1"
     inkscape:groupmode="layer"
     id="layer1"
     transform="translate(0,-168.49998)">
    <rect
       style="display:inline;opacity:1;vector-effect:none;fill:#cccccc;fill-opacity:1;fill-rule:evenodd;stroke:none;stroke-width:0.378664;stroke-linecap:butt;stroke-linejoin:miter;stroke-miterlimit:4;stroke-dasharray:none;stroke-dashoffset:0;stroke-opacity:1;paint-order:normal"
       id="rect420"
       width="10.303629"
       height="129.26068"
       x="-0.071813658"
       y="167.74997" />
    <text
       xml:space="preserve"
       style="font-size:10.5833px;line-height:1.25;font-family:'Eras Bold ITC';-inkscape-font-specification:'Eras Bold ITC';stroke-width:0.264583"
       x="1.1693041"
       y="277.43234"
       id="text59"><tspan
         sodipodi:role="line"
         id="tspan57"
         x="1.1693041"
         y="277.43234"
         style="font-size:2.82222px;fill:#ffff00;stroke-width:0.264583" /></text>
    <g
       style="font-weight:bold;font-size:6.08438px;line-height:1.25;font-family:'Wingdings 2';-inkscape-font-specification:'Wingdings 2 Bold';display:inline;fill:#000000;stroke-width:0.142602"
       id="text51"
       transform="translate(0,168.49998)"
       aria-label="b">
      <path
         id="path49"
         style="font-size:6.08438px;fill:#000000;stroke-width:0.142602"
         d="M 2.1105974,0.92680782 V 1.2209258 q 0.1693407,0 0.2554965,0.086156 0.089127,0.086156 0.1693406,0.3297686 l 0.047534,0.1485445 Q 2.7433967,2.2785622 3.1088161,2.4330484 2.7701347,2.498408 2.5681143,2.712312 2.3690648,2.9232451 2.3690648,3.2143922 q 0,0.4070117 0.3060015,0.6743917 0.3060015,0.2644091 0.775402,0.2644091 0.7130133,0 1.1021997,-0.6120031 L 4.3239095,3.3480821 Q 4.071384,3.618433 3.804004,3.618433 3.5841583,3.618433 3.4267011,3.4758304 3.269244,3.3302568 3.269244,3.1312073 q 0,-0.1663698 0.1218065,-0.2881762 0.1247773,-0.1218065 0.2911471,-0.1218065 0.3000597,0 0.8407615,0.4248371 l 0.1812242,0.1426027 q 0.882354,0.6951879 1.6844939,0.6951879 0.695188,0 1.176472,-0.4575168 Q 8.049404,3.0688186 8.049404,2.4122522 8.049404,1.7467731 7.5502947,1.3367905 7.0511854,0.92680782 6.2401328,0.92680782 H 6.1420935 V 1.2209258 q 0.4812839,0.03268 0.7635184,0.3357104 0.2822344,0.3000598 0.2822344,0.7813438 0,0.4753422 -0.3565066,0.8140235 -0.3565067,0.3357104 -0.8615578,0.3357104 -0.4872257,0 -0.8674995,-0.2970889 -0.3802738,-0.2970888 -0.3802738,-0.6773626 0,-0.1812242 0.1158647,-0.3060015 0.1188356,-0.1247774 0.2911471,-0.1247774 0.1723115,0 0.2584673,0.095068 0.089127,0.092097 0.089127,0.2822344 0,0.1158647 -0.06536,0.2733218 l 0.26738,0.1218064 Q 5.856888,2.4330479 5.856888,2.1478426 5.856888,1.7972777 5.6281296,1.5477231 5.4023422,1.295198 5.0814862,1.295198 q -0.2049913,0 -0.374332,0.1010102 Q 4.5378135,1.4972185 4.4041235,1.7022098 4.231812,1.2714309 3.85748,1.0991194 3.4861189,0.92680782 2.7285423,0.92680782 Z M 4.2496373,2.3766015 Q 3.8129167,2.2934166 3.4504683,1.6487338 L 3.3999632,1.562578 Q 3.242506,1.2833145 3.0196894,1.1971587 q 1.1348795,0 1.2299479,1.1794428 z" />
    </g>
    <rect
       style="display:inline;fill:#de8787;stroke-width:0.265337"
       id="rect48-7"
       width="10.583333"
       height="15.965763"
       x="-0.211666"
       y="206.44971" />
    <g
       transform="translate(-3.0952153e-7,201.51998)"
       style="font-weight:bold;font-size:4.23333px;line-height:1.25;font-family:Tahoma;-inkscape-font-specification:'Tahoma, Bold';display:inline;stroke-width:0.264583;fill:#000000"
       id="text76"
       aria-label="OUT">
      <path
         id="path78"
         style="font-size:2.82222px;fill:#000000;stroke-width:0.264583"
         d="m 4.1229539,7.6206907 q 0,0.4974714 -0.2659611,0.7827251 -0.2659612,0.2852537 -0.7289817,0.2852537 -0.4643985,0 -0.7289816,-0.2880098 -0.2645832,-0.2893878 -0.2645832,-0.779969 0,-0.4947154 0.2645832,-0.7813471 0.2645831,-0.2880098 0.7289816,-0.2880098 0.4630205,0 0.7289817,0.2866318 0.2659611,0.2852537 0.2659611,0.7827251 z m -0.5319223,-0.00138 q 0,-0.1832789 -0.038585,-0.3114364 -0.037207,-0.1295354 -0.1005968,-0.2122177 -0.066146,-0.08406 -0.150206,-0.1198892 -0.082682,-0.037207 -0.1722547,-0.037207 -0.095085,0 -0.1722546,0.034451 -0.07717,0.033073 -0.148828,0.1198892 -0.06339,0.079926 -0.1033528,0.2122178 -0.038585,0.1322915 -0.038585,0.3155705 0,0.1887911 0.037207,0.3141924 0.037207,0.1240234 0.1019747,0.2080837 0.066146,0.085438 0.1502061,0.1226453 0.08406,0.035829 0.1736326,0.035829 0.09095,0 0.1763888,-0.038585 0.085438,-0.039963 0.14745,-0.1226453 0.066146,-0.089572 0.1019747,-0.2080836 0.035829,-0.1198893 0.035829,-0.3128147 z" />
      <path
         id="path80"
         style="font-size:2.82222px;fill:#000000;stroke-width:0.264583"
         d="m 5.2557005,8.6886695 q -0.4134112,0 -0.6366532,-0.1998154 Q 4.3971833,8.2890387 4.3971833,7.9045663 V 6.594053 h 0.5153859 v 1.2801965 q 0,0.2135958 0.079926,0.3183266 0.081304,0.1047308 0.2632051,0.1047308 0.1777668,0 0.260449,-0.1005967 0.08406,-0.1005967 0.08406,-0.3224607 V 6.594053 h 0.5153859 v 1.3091353 q 0,0.3789602 -0.2177299,0.5829097 -0.2163519,0.2025715 -0.6421648,0.2025715 z" />
      <path
         id="path82"
         style="font-size:2.82222px;fill:#000000;stroke-width:0.264583"
         d="M 6.9038329,8.6459503 V 6.9854155 H 6.2974966 V 6.594053 H 8.0255551 V 6.9854155 H 7.4192188 v 1.6605348 z" />
    </g>
    <rect
       y="68.429733"
       x="-0.21166347"
       height="15.965763"
       width="10.583333"
       id="rect48-7-3"
       style="display:inline;fill:#de8787;stroke-width:0.265337"
       transform="translate(0,168.49998)" />
    <g
       aria-label="OUT"
       id="text76-6"
       style="display:inline;font-weight:bold;font-size:4.23333px;line-height:1.25;font-family:Tahoma;-inkscape-font-specification:'Tahoma, Bold';stroke-width:0.264583;fill:#000000"
       transform="translate(1.4953368e-6,231.99999)">
      <path
         d="m 4.1229539,7.6206907 q 0,0.4974714 -0.2659611,0.7827251 -0.2659612,0.2852537 -0.7289817,0.2852537 -0.4643985,0 -0.7289816,-0.2880098 -0.2645832,-0.2893878 -0.2645832,-0.779969 0,-0.4947154 0.2645832,-0.7813471 0.2645831,-0.2880098 0.7289816,-0.2880098 0.4630205,0 0.7289817,0.2866318 0.2659611,0.2852537 0.2659611,0.7827251 z m -0.5319223,-0.00138 q 0,-0.1832789 -0.038585,-0.3114364 -0.037207,-0.1295354 -0.1005968,-0.2122177 -0.066146,-0.08406 -0.150206,-0.1198892 -0.082682,-0.037207 -0.1722547,-0.037207 -0.095085,0 -0.1722546,0.034451 -0.07717,0.033073 -0.148828,0.1198892 -0.06339,0.079926 -0.1033528,0.2122178 -0.038585,0.1322915 -0.038585,0.3155705 0,0.1887911 0.037207,0.3141924 0.037207,0.1240234 0.1019747,0.2080837 0.066146,0.085438 0.1502061,0.1226453 0.08406,0.035829 0.1736326,0.035829 0.09095,0 0.1763888,-0.038585 0.085438,-0.039963 0.14745,-0.1226453 0.066146,-0.089572 0.1019747,-0.2080836 0.035829,-0.1198893 0.035829,-0.3128147 z"
         style="font-size:2.82222px;fill:#000000;stroke-width:0.264583"
         id="path78-1" />
      <path
         d="m 5.2557005,8.6886695 q -0.4134112,0 -0.6366532,-0.1998154 Q 4.3971833,8.2890387 4.3971833,7.9045663 V 6.594053 h 0.5153859 v 1.2801965 q 0,0.2135958 0.079926,0.3183266 0.081304,0.1047308 0.2632051,0.1047308 0.1777668,0 0.260449,-0.1005967 0.08406,-0.1005967 0.08406,-0.3224607 V 6.594053 h 0.5153859 v 1.3091353 q 0,0.3789602 -0.2177299,0.5829097 -0.2163519,0.2025715 -0.6421648,0.2025715 z"
         style="font-size:2.82222px;fill:#000000;stroke-width:0.264583"
         id="path80-1" />
      <path
         d="M 6.9038329,8.6459503 V 6.9854155 H 6.2974966 V 6.594053 H 8.0255551 V 6.9854155 H 7.4192188 v 1.6605348 z"
         style="font-size:2.82222px;fill:#000000;stroke-width:0.264583"
         id="path82-8" />
    </g>
    <g
       transform="translate(0,168.49998)"
       style="display:inline;font-weight:bold;font-size:4.23333px;line-height:1.25;font-family:Tahoma;-inkscape-font-specification:'Tahoma, Bold';letter-spacing:0px;stroke-width:0.264583;fill:#000000"
       id="text308"
       aria-label="CHS2">
      <path
         id="path310"
         style="font-size:3.52778px;fill:#000000;stroke-width:0.264583"
         d="m 1.6796895,125.79239 q -0.5770538,0 -0.91639596,-0.34795 -0.33934212,-0.34968 -0.33934212,-0.98185 0,-0.60979 0.33934212,-0.97152 0.34106466,-0.36346 0.91811856,-0.36346 0.1533068,0 0.2756078,0.0172 0.122301,0.0172 0.2342666,0.0482 0.08785,0.0258 0.191203,0.0706 0.1033529,0.0448 0.1670872,0.0775 v 0.6115 h -0.065457 q -0.046509,-0.0413 -0.1171333,-0.0982 -0.070625,-0.0586 -0.160197,-0.11369 -0.089573,-0.0551 -0.1980931,-0.093 -0.1067981,-0.0396 -0.2239314,-0.0396 -0.1395264,0 -0.2566598,0.0448 -0.1154107,0.0431 -0.2204862,0.15158 -0.096463,0.0982 -0.1584745,0.26527 -0.060289,0.16709 -0.060289,0.39447 0,0.23943 0.063734,0.40307 0.063734,0.16192 0.1670872,0.26183 0.099908,0.0965 0.2222088,0.13953 0.1240235,0.0431 0.2463245,0.0431 0.1274686,0 0.2428794,-0.0413 0.1154108,-0.0431 0.194648,-0.0947 0.086127,-0.0534 0.1515843,-0.10852 0.065457,-0.0551 0.1136882,-0.0982 h 0.058567 v 0.6029 q -0.070624,0.0327 -0.1636421,0.0758 -0.093018,0.0413 -0.191203,0.0706 -0.1205784,0.0362 -0.2256539,0.0551 -0.1050754,0.0189 -0.2893882,0.0189 z" />
      <path
         id="path312"
         style="font-size:3.52778px;fill:#000000;stroke-width:0.264583"
         d="M 5.0955038,125.74244 H 4.4512705 v -1.13688 H 3.5744932 v 1.13688 H 2.9302599 v -2.56488 h 0.6442333 v 0.93879 h 0.8767773 v -0.93879 h 0.6442333 z" />
      <path
         id="path314"
         style="font-size:3.52778px;fill:#000000;stroke-width:0.264583"
         d="m 6.4166989,125.78895 q -0.2945558,0 -0.5184872,-0.0568 Q 5.6760029,125.67535 5.4848,125.5909 v -0.60978 h 0.058567 q 0.1929255,0.16364 0.4254696,0.25149 0.2325441,0.0878 0.4513078,0.0878 0.055122,0 0.1446941,-0.0121 0.091295,-0.0121 0.1464167,-0.0379 0.067179,-0.0293 0.1136882,-0.081 0.046509,-0.0534 0.046509,-0.13953 0,-0.0965 -0.075792,-0.15675 -0.075792,-0.0603 -0.1808677,-0.0879 -0.1309137,-0.0344 -0.2807754,-0.0654 -0.1481392,-0.031 -0.2773304,-0.0758 -0.298001,-0.10507 -0.4271921,-0.28249 -0.1291912,-0.17743 -0.1291912,-0.44442 0,-0.36001 0.3048912,-0.58222 0.3048911,-0.22393 0.7613666,-0.22393 0.229099,0 0.4547529,0.0465 0.2273764,0.0465 0.4065215,0.12575 v 0.58567 H 7.370991 q -0.1429716,-0.1223 -0.3496774,-0.20671 -0.2049834,-0.0844 -0.4220245,-0.0844 -0.084405,0 -0.1515843,0.0121 -0.067179,0.0121 -0.141249,0.0465 -0.060289,0.0276 -0.1050755,0.0827 -0.043064,0.0534 -0.043064,0.12058 0,0.0982 0.068902,0.15676 0.070625,0.0568 0.2704402,0.10335 0.1291912,0.0293 0.248047,0.0568 0.1205785,0.0276 0.2566598,0.0758 0.2669951,0.0965 0.3961863,0.26011 0.1309137,0.16192 0.1309137,0.42891 0,0.38241 -0.3014461,0.61495 -0.2997235,0.23255 -0.8113205,0.23255 z" />
      <path
         id="path316"
         style="font-size:3.52778px;fill:#000000;stroke-width:0.264583"
         d="M 9.7360505,125.74244 H 7.8515821 v -0.41858 q 0.2394343,-0.18948 0.4289147,-0.35829 0.1912029,-0.16881 0.335897,-0.32039 0.1877578,-0.1981 0.2721627,-0.34796 0.084405,-0.14986 0.084405,-0.30834 0,-0.17914 -0.106798,-0.27388 -0.1067981,-0.0965 -0.298001,-0.0965 -0.098185,0 -0.1860353,0.0241 -0.086127,0.0241 -0.1756999,0.062 -0.08785,0.0396 -0.1498618,0.081 -0.062012,0.0413 -0.093018,0.062 h -0.049954 v -0.55983 q 0.1085205,-0.0517 0.3393421,-0.10508 0.2308215,-0.0551 0.4444176,-0.0551 0.4564754,0 0.6907421,0.20326 0.2359892,0.20326 0.2359892,0.57189 0,0.22737 -0.1067981,0.44614 -0.106798,0.21704 -0.354845,0.46681 -0.1550294,0.1533 -0.3014461,0.27388 -0.1464166,0.11886 -0.2118735,0.16881 h 1.0869283 z" />
    </g>
    <g
       style="font-weight:bold;font-size:2.82222px;line-height:1.25;font-family:Tahoma;-inkscape-font-specification:'Tahoma, Bold';letter-spacing:0px;display:inline;fill:#000000;stroke-width:0.264583"
       id="text55"
       aria-label="PIN"
       transform="translate(-9.9999953e-8,48.260004)">
      <path
         id="path59"
         style="font-size:2.82222px;fill:#000000;stroke-width:0.264583"
         d="m 4.1677403,175.74172 q 0,0.14331 -0.045475,0.27285 -0.045475,0.12953 -0.1309136,0.21635 -0.052365,0.0537 -0.1157551,0.0992 -0.062012,0.0455 -0.1378037,0.0772 -0.075792,0.0317 -0.1653645,0.0496 -0.088194,0.0179 -0.1984373,0.0179 H 3.1038956 v 0.67111 H 2.5885097 v -2.0519 h 0.7965055 q 0.1777668,0 0.3059242,0.0331 0.1295355,0.0317 0.2342663,0.10198 0.1157552,0.0772 0.1791449,0.2067 0.06339,0.12816 0.06339,0.30593 z m -0.5291663,0.0124 q 0,-0.0868 -0.041341,-0.14883 -0.041341,-0.0634 -0.099219,-0.0868 -0.073036,-0.0317 -0.1405598,-0.0358 -0.066146,-0.006 -0.1805228,-0.006 h -0.073036 v 0.61461 h 0.035829 q 0.073036,0 0.1378037,-10e-4 0.064768,-0.001 0.112999,-0.01 0.041341,-0.007 0.086816,-0.0262 0.046853,-0.0207 0.071658,-0.0455 0.052365,-0.051 0.07028,-0.1061 0.019293,-0.0551 0.019293,-0.14883 z" />
      <path
         id="path61"
         style="font-size:2.82222px;fill:#000000;stroke-width:0.264583"
         d="M 5.4686074,177.14594 H 4.3634216 v -0.35829 h 0.2949 v -1.33532 h -0.2949 v -0.35829 h 1.1051858 v 0.35829 H 5.1737075 v 1.33532 h 0.2948999 z" />
      <path
         id="path63"
         style="font-size:2.82222px;fill:#000000;stroke-width:0.264583"
         d="M 7.5714921,177.14594 H 7.0753987 l -0.7909933,-1.43041 v 1.43041 H 5.8131167 v -2.0519 h 0.6325191 l 0.6545676,1.17546 v -1.17546 h 0.4712887 z" />
    </g>
  </g>
  <g
     inkscape:groupmode="layer"
     id="layer2"
     inkscape:label="components"
     style="display:none">
    <circle
       id="path30"
       style="fill:#000000;stroke:#000000;stroke-width:0.264583"
       cx="-43.920834"
       cy="-48.154167"
       r="0.035242248" />
    <circle
       id="path32"
       style="fill:#000000;stroke:#000000;stroke-width:0.264583"
       cx="-32.279167"
       cy="-2.5135417"
       r="0.0088105621" />
    <circle
       id="path34"
       style="fill:#000000;stroke:#000000;stroke-width:0.264583"
       cx="-17.991667"
       cy="0.1984375"
       r="0.0088105621" />
    <circle
       id="path36"
       style="fill:#000000;stroke:#000000;stroke-width:0.264583"
       cx="-25.069271"
       cy="2.9104166"
       r="0.0088105621" />
    <text
       xml:space="preserve"
       style="font-size:10.5833px;line-height:1.25;font-family:'Eras Bold ITC';-inkscape-font-specification:'Eras Bold ITC';stroke-width:0.264583"
       x="-38.695312"
       y="11.90625"
       id="text42"><tspan
         sodipodi:role="line"
         id="tspan40"
         x="-38.695312"
         y="11.90625"
         style="font-style:normal;font-variant:normal;font-weight:bold;font-stretch:normal;font-size:3.52778px;font-family:Garamond;-inkscape-font-specification:'Garamond Bold';stroke-width:0.264583" /></text>
    <circle
       style="display:inline;opacity:1;vector-effect:none;fill:#00ff00;fill-opacity:1;fill-rule:evenodd;stroke:none;stroke-width:1;stroke-linecap:butt;stroke-linejoin:miter;stroke-miterlimit:4;stroke-dasharray:none;stroke-dashoffset:0;stroke-opacity:1;paint-order:normal"
       id="polyin"
       cx="5.0800009"
       cy="63.500011"
       r="4"
       inkscape:label="polyin" />
    <circle
       inkscape:label="out1"
       style="display:inline;opacity:1;vector-effect:none;fill:#0000ff;fill-opacity:1;fill-rule:evenodd;stroke:none;stroke-width:1;stroke-linecap:butt;stroke-linejoin:miter;stroke-miterlimit:4;stroke-dasharray:none;stroke-dashoffset:0;stroke-opacity:1;paint-order:normal"
       id="out1"
       cx="5.0800009"
       cy="48.260006"
       r="4" />
    <circle
       inkscape:label="slider1"
       style="display:inline;opacity:1;vector-effect:none;fill:#ff0000;fill-opacity:1;fill-rule:evenodd;stroke:none;stroke-width:1;stroke-linecap:butt;stroke-linejoin:miter;stroke-miterlimit:4;stroke-dasharray:none;stroke-dashoffset:0;stroke-opacity:1;paint-order:normal"
       id="slider1"
       cx="5.0800009"
       cy="20.320004"
       r="4" />
    <circle
       inkscape:label="cv2"
       style="display:inline;opacity:1;vector-effect:none;fill:#00ff00;fill-opacity:1;fill-rule:evenodd;stroke:none;stroke-width:1;stroke-linecap:butt;stroke-linejoin:miter;stroke-miterlimit:4;stroke-dasharray:none;stroke-dashoffset:0;stroke-opacity:1;paint-order:normal"
       id="cv2"
       cx="5.0800009"
       cy="116.84002"
       r="4" />
    <circle
       r="4"
       cy="78.740013"
       cx="5.0800009"
       id="out2"
       style="display:inline;opacity:1;vector-effect:none;fill:#0000ff;fill-opacity:1;fill-rule:evenodd;stroke:none;stroke-width:1;stroke-linecap:butt;stroke-linejoin:miter;stroke-miterlimit:4;stroke-dasharray:none;stroke-dashoffset:0;stroke-opacity:1;paint-order:normal"
       inkscape:label="out2" />
    <circle
       r="4"
       cy="98.84742"
       cx="5.0799985"
       id="slider2"
       style="display:inline;opacity:1;vector-effect:none;fill:#ff0000;fill-opacity:1;fill-rule:evenodd;stroke:none;stroke-width:1;stroke-linecap:butt;stroke-linejoin:miter;stroke-miterlimit:4;stroke-dasharray:none;stroke-dashoffset:0;stroke-opacity:1;paint-order:normal"
       inkscape:label="slider2" />
  </g>
</svg>
