<?xml version="1.0" encoding="UTF-8" standalone="no"?>
<svg
   xmlns:dc="http://purl.org/dc/elements/1.1/"
   xmlns:cc="http://creativecommons.org/ns#"
   xmlns:rdf="http://www.w3.org/1999/02/22-rdf-syntax-ns#"
   xmlns:svg="http://www.w3.org/2000/svg"
   xmlns="http://www.w3.org/2000/svg"
   xmlns:sodipodi="http://sodipodi.sourceforge.net/DTD/sodipodi-0.dtd"
   xmlns:inkscape="http://www.inkscape.org/namespaces/inkscape"
   width="20.32mm"
   height="128.5mm"
   viewBox="0 0 20.320002 128.50002"
   version="1.1"
   id="svg8"
   inkscape:version="1.0 (4035a4fb49, 2020-05-01)"
   sodipodi:docname="Enveloop.svg">
  <defs
     id="defs2">
    <inkscape:path-effect
       hide_knots="false"
       only_selected="false"
       apply_with_radius="true"
       apply_no_radius="true"
       use_knot_distance="true"
       flexible="false"
       chamfer_steps="1"
       radius="4"
       mode="F"
       method="auto"
       unit="mm"
       satellites_param="F,0,0,1,0,4,0,1 @ F,0,0,1,0,4,0,1 @ F,0,0,1,0,4,0,1 @ F,0,0,1,0,4,0,1"
       lpeversion="1"
       is_visible="true"
       id="path-effect95"
       effect="fillet_chamfer" />
    <inkscape:path-effect
       hide_knots="false"
       only_selected="false"
       apply_with_radius="true"
       apply_no_radius="true"
       use_knot_distance="true"
       flexible="false"
       chamfer_steps="1"
       radius="4"
       mode="F"
       method="auto"
       unit="mm"
       satellites_param="F,0,0,1,0,4,0,1 @ F,0,0,1,0,4,0,1 @ F,0,0,1,0,4,0,1 @ F,0,0,1,0,4,0,1"
       lpeversion="1"
       is_visible="true"
       id="path-effect105"
       effect="fillet_chamfer" />
    <inkscape:path-effect
       hide_knots="false"
       only_selected="false"
       apply_with_radius="true"
       apply_no_radius="true"
       use_knot_distance="true"
       flexible="false"
       chamfer_steps="1"
       radius="4"
       mode="F"
       method="auto"
       unit="mm"
       satellites_param="F,0,0,1,0,4,0,1 @ F,0,0,1,0,4,0,1 @ F,0,0,1,0,4,0,1 @ F,0,0,1,0,4,0,1"
       lpeversion="1"
       is_visible="true"
       id="path-effect96"
       effect="fillet_chamfer" />
    <inkscape:path-effect
       effect="fillet_chamfer"
       id="path-effect77"
       is_visible="true"
       lpeversion="1"
       satellites_param="F,0,0,1,0,4,0,1 @ F,0,0,1,0,4,0,1 @ F,0,0,1,0,4,0,1 @ F,0,0,1,0,4,0,1"
       unit="mm"
       method="auto"
       mode="F"
       radius="4"
       chamfer_steps="1"
       flexible="false"
       use_knot_distance="true"
       apply_no_radius="true"
       apply_with_radius="true"
       only_selected="false"
       hide_knots="false" />
    <inkscape:path-effect
       effect="fillet_chamfer"
       id="path-effect161"
       is_visible="true"
       lpeversion="1"
       satellites_param="F,0,0,1,0,4,0,1 @ F,0,0,1,0,4,0,1 @ F,0,0,1,0,4,0,1 @ F,0,0,1,0,4,0,1"
       unit="mm"
       method="auto"
       mode="F"
       radius="4"
       chamfer_steps="1"
       flexible="false"
       use_knot_distance="true"
       apply_no_radius="true"
       apply_with_radius="true"
       only_selected="false"
       hide_knots="false" />
    <inkscape:path-effect
       effect="fillet_chamfer"
       id="path-effect152"
       is_visible="true"
       lpeversion="1"
       satellites_param="F,0,0,1,0,4,0,1 @ F,0,0,1,0,4,0,1 @ F,0,0,1,0,4,0,1 @ F,0,0,1,0,4,0,1"
       unit="mm"
       method="auto"
       mode="F"
       radius="4"
       chamfer_steps="1"
       flexible="false"
       use_knot_distance="true"
       apply_no_radius="true"
       apply_with_radius="true"
       only_selected="false"
       hide_knots="false" />
    <inkscape:path-effect
       effect="fillet_chamfer"
       id="path-effect143"
       is_visible="true"
       lpeversion="1"
       satellites_param="F,0,0,1,0,4,0,1 @ F,0,0,1,0,4,0,1 @ F,0,0,1,0,4,0,1 @ F,0,0,1,0,4,0,1"
       unit="mm"
       method="auto"
       mode="F"
       radius="4"
       chamfer_steps="1"
       flexible="false"
       use_knot_distance="true"
       apply_no_radius="true"
       apply_with_radius="true"
       only_selected="false"
       hide_knots="false" />
    <inkscape:path-effect
       hide_knots="false"
       only_selected="false"
       apply_with_radius="true"
       apply_no_radius="true"
       use_knot_distance="true"
       flexible="false"
       chamfer_steps="1"
       radius="4"
       mode="F"
       method="auto"
       unit="mm"
       satellites_param="F,0,0,1,0,4,0,1 @ F,0,0,1,0,4,0,1 @ F,0,0,1,0,4,0,1 @ F,0,0,1,0,4,0,1"
       lpeversion="1"
       is_visible="true"
       id="path-effect124"
       effect="fillet_chamfer" />
    <inkscape:path-effect
       effect="fillet_chamfer"
       id="path-effect154"
       is_visible="true"
       lpeversion="1"
       satellites_param="F,0,0,1,0,4,0,1 @ F,0,0,1,0,4,0,1 @ F,0,0,1,0,4,0,1 @ F,0,0,1,0,4,0,1"
       unit="mm"
       method="auto"
       mode="F"
       radius="4"
       chamfer_steps="1"
       flexible="false"
       use_knot_distance="true"
       apply_no_radius="true"
       apply_with_radius="true"
       only_selected="false"
       hide_knots="false" />
  </defs>
  <sodipodi:namedview
     id="base"
     pagecolor="#ffffff"
     bordercolor="#666666"
     borderopacity="1.0"
     inkscape:pageopacity="0.0"
     inkscape:pageshadow="2"
     inkscape:zoom="2.161326"
     inkscape:cx="66.410203"
     inkscape:cy="234.91622"
     inkscape:document-units="mm"
     inkscape:current-layer="layer1"
     showgrid="true"
     units="mm"
     inkscape:snap-bbox="true"
     inkscape:snap-page="true"
     inkscape:bbox-nodes="false"
     inkscape:snap-bbox-edge-midpoints="false"
     inkscape:window-width="929"
     inkscape:window-height="1057"
     inkscape:window-x="2841"
     inkscape:window-y="-8"
     inkscape:window-maximized="0"
     inkscape:snap-bbox-midpoints="true"
     inkscape:snap-nodes="false"
     inkscape:document-rotation="0"
     inkscape:lockguides="false"
     objecttolerance="24.3"
     gridtolerance="26.6"
     guidetolerance="28.7">
    <inkscape:grid
       type="xygrid"
       id="grid86"
       units="mm"
       color="#ffd984"
       opacity="0.53333333"
       spacingx="2.5400004"
       spacingy="2.5400004"
       empcolor="#71530f"
       empopacity="0.25098039"
       empspacing="4" />
  </sodipodi:namedview>
  <metadata
     id="metadata5">
    <rdf:RDF>
      <cc:Work
         rdf:about="">
        <dc:format>image/svg+xml</dc:format>
        <dc:type
           rdf:resource="http://purl.org/dc/dcmitype/StillImage" />
        <dc:title />
        <dc:creator>
          <cc:Agent>
            <dc:title>Firo Lightfog</dc:title>
          </cc:Agent>
        </dc:creator>
      </cc:Work>
    </rdf:RDF>
  </metadata>
  <g
     style="display:inline"
     inkscape:label="Layer 1"
     inkscape:groupmode="layer"
     id="layer1"
     transform="translate(0,-168.49998)">
    <rect
       style="display:inline;opacity:1;vector-effect:none;fill:#cccccc;fill-opacity:1;fill-rule:evenodd;stroke:none;stroke-width:0.528505;stroke-linecap:butt;stroke-linejoin:miter;stroke-miterlimit:4;stroke-dasharray:none;stroke-dashoffset:0;stroke-opacity:1;paint-order:normal"
       id="rect420"
       width="20.182999"
       height="128.54678"
       x="0.068502754"
       y="168.49834" />
    <text
       xml:space="preserve"
       style="font-size:10.5833px;line-height:1.25;font-family:'Eras Bold ITC';-inkscape-font-specification:'Eras Bold ITC';stroke-width:0.264583"
       x="1.1693041"
       y="277.43234"
       id="text59"><tspan
         sodipodi:role="line"
         id="tspan57"
         x="1.1693041"
         y="277.43234"
         style="font-size:2.82222px;fill:#ffff00;stroke-width:0.264583" /></text>
    <text
       xml:space="preserve"
       style="font-size:10.5833px;line-height:1.25;font-family:'Eras Bold ITC';-inkscape-font-specification:'Eras Bold ITC';stroke-width:0.264583"
       x="-78.577248"
       y="172.05467"
       id="text127"><tspan
         sodipodi:role="line"
         id="tspan125"
         x="-78.577248"
         y="172.05467"
         style="stroke-width:0.264583" /></text>
    <text
       xml:space="preserve"
       style="font-size:10.5833px;line-height:1.25;font-family:'Eras Bold ITC';-inkscape-font-specification:'Eras Bold ITC';stroke-width:0.264583"
       x="-89.989647"
       y="186.46049"
       id="text131"><tspan
         sodipodi:role="line"
         id="tspan129"
         x="-89.989647"
         y="186.46049"
         style="stroke-width:0.264583" /></text>
    <g
       aria-label="b"
       id="text104"
       style="font-weight:bold;font-size:6.35px;line-height:1.25;font-family:Tahoma;-inkscape-font-specification:'Tahoma, Bold';fill:#000000;stroke-width:0.264583">
      <path
         d="m 3.2732611,177.4586 v 0.68213 q 0.3927406,0 0.592556,0.19982 0.2067056,0.19981 0.3927406,0.76481 l 0.110243,0.34451 q 0.37207,1.14377 1.2195628,1.50206 -0.7854811,0.15158 -1.2540138,0.64768 -0.4616424,0.4892 -0.4616424,1.16444 0,0.94395 0.7096891,1.56407 0.7096891,0.61323 1.7983385,0.61323 1.6536445,0 2.5562588,-1.41938 L 8.4064495,183.0741 q -0.5856658,0.62701 -1.2057825,0.62701 -0.5098738,0 -0.8750536,-0.33073 -0.3651799,-0.33762 -0.3651799,-0.79926 0,-0.38585 0.2824977,-0.66835 0.2893878,-0.28249 0.6752382,-0.28249 0.6959087,0 1.9499225,0.98529 l 0.4203013,0.33073 q 2.0463848,1.6123 3.9067348,1.6123 1.612304,0 2.728514,-1.06108 1.1231,-1.06109 1.1231,-2.58382 0,-1.54341 -1.157551,-2.49425 -1.157551,-0.95085 -3.038572,-0.95085 h -0.227376 v 0.68213 q 1.11621,0.0758 1.770778,0.77859 0.654567,0.69591 0.654567,1.81212 0,1.10243 -0.826822,1.88791 -0.826822,0.77859 -1.998154,0.77859 -1.12999,0 -2.011934,-0.68901 -0.8819437,-0.68902 -0.8819437,-1.57097 0,-0.4203 0.2687173,-0.70969 0.2756074,-0.28938 0.6752384,-0.28938 0.399631,0 0.599446,0.22048 0.206705,0.2136 0.206705,0.65457 0,0.26872 -0.151584,0.6339 l 0.620117,0.28249 q 0.413411,-0.9784 0.413411,-1.63986 0,-0.81304 -0.530544,-1.39182 -0.523654,-0.58566 -1.267794,-0.58566 -0.475423,0 -0.8681636,0.23426 -0.3927406,0.23427 -0.7027989,0.70969 -0.3996308,-0.99907 -1.2677942,-1.39871 -0.8612732,-0.39963 -2.6182705,-0.39963 z m 4.9609337,3.36241 Q 7.2213375,180.62809 6.3807349,179.13292 L 6.2636017,178.9331 q -0.3651798,-0.64767 -0.8819437,-0.84749 2.6320509,0 2.8525368,2.7354 z"
         style="font-style:normal;font-variant:normal;font-weight:bold;font-stretch:normal;font-size:14.1111px;font-family:'Wingdings 2';-inkscape-font-specification:'Wingdings 2 Bold';fill:#000000;stroke-width:0.264583"
         id="path116" />
    </g>
    <g
       style="font-weight:bold;font-size:4.23333px;line-height:1.25;font-family:Tahoma;-inkscape-font-specification:'Tahoma, Bold';letter-spacing:0px;stroke-width:0.264583"
       id="text184"
       aria-label="ELOOP">
      <path
         id="path203"
         style="stroke-width:0.264583"
         d="m 3.2043596,294.49893 v -3.07784 h 2.081525 v 0.58704 H 3.9733043 v 0.5395 h 1.2092275 v 0.58705 H 3.9733043 v 0.77721 h 1.3125803 v 0.58704 z" />
      <path
         id="path205"
         style="stroke-width:0.264583"
         d="M 7.8635029,294.49893 H 5.8088497 v -3.07784 h 0.7730787 v 2.4908 h 1.2815745 z" />
      <path
         id="path207"
         style="stroke-width:0.264583"
         d="m 11.034366,292.96104 q 0,0.74621 -0.398942,1.17409 -0.398941,0.42788 -1.0934721,0.42788 -0.6965977,0 -1.0934723,-0.43201 -0.3968747,-0.43409 -0.3968747,-1.16996 0,-0.74207 0.3968747,-1.17202 0.3968746,-0.43201 1.0934723,-0.43201 0.6945311,0 1.0934721,0.42994 0.398942,0.42789 0.398942,1.17409 z m -0.797883,-0.002 q 0,-0.27492 -0.05788,-0.46716 -0.05581,-0.1943 -0.150895,-0.31833 -0.099219,-0.12609 -0.2253091,-0.17983 -0.1240233,-0.0558 -0.2583819,-0.0558 -0.1426268,0 -0.2583819,0.0517 -0.1157552,0.0496 -0.223242,0.17983 -0.095085,0.11989 -0.1550292,0.31833 -0.057878,0.19843 -0.057878,0.47335 0,0.28319 0.05581,0.47129 0.05581,0.18604 0.1529621,0.31213 0.099219,0.12815 0.2253091,0.18396 0.1260904,0.0537 0.260449,0.0537 0.1364257,0 0.2645831,-0.0579 0.1281575,-0.0599 0.2211749,-0.18397 0.09922,-0.13436 0.152962,-0.31212 0.05374,-0.17984 0.05374,-0.46922 z" />
      <path
         id="path209"
         style="stroke-width:0.264583"
         d="m 14.292046,292.96104 q 0,0.74621 -0.398942,1.17409 -0.398942,0.42788 -1.093473,0.42788 -0.696597,0 -1.093472,-0.43201 -0.396875,-0.43409 -0.396875,-1.16996 0,-0.74207 0.396875,-1.17202 0.396875,-0.43201 1.093472,-0.43201 0.694531,0 1.093473,0.42994 0.398942,0.42789 0.398942,1.17409 z m -0.797884,-0.002 q 0,-0.27492 -0.05788,-0.46716 -0.05581,-0.1943 -0.150896,-0.31833 -0.09922,-0.12609 -0.225309,-0.17983 -0.124023,-0.0558 -0.258382,-0.0558 -0.142626,0 -0.258381,0.0517 -0.115756,0.0496 -0.223242,0.17983 -0.09508,0.11989 -0.15503,0.31833 -0.05788,0.19843 -0.05788,0.47335 0,0.28319 0.05581,0.47129 0.05581,0.18604 0.152962,0.31213 0.09922,0.12815 0.225309,0.18396 0.126091,0.0537 0.260449,0.0537 0.136426,0 0.264584,-0.0579 0.128157,-0.0599 0.221175,-0.18397 0.09922,-0.13436 0.152962,-0.31212 0.05374,-0.17984 0.05374,-0.46922 z" />
      <path
         id="path211"
         style="stroke-width:0.264583"
         d="m 17.115644,292.3926 q 0,0.21498 -0.06821,0.40928 -0.06821,0.1943 -0.19637,0.32453 -0.07855,0.0806 -0.173633,0.14882 -0.09302,0.0682 -0.206706,0.11576 -0.113688,0.0475 -0.248046,0.0744 -0.132292,0.0269 -0.297656,0.0269 h -0.405143 v 1.00665 h -0.773079 v -3.07784 h 1.194758 q 0.26665,0 0.458887,0.0496 0.194303,0.0475 0.351399,0.15296 0.173633,0.11575 0.268717,0.31006 0.09509,0.19223 0.09509,0.45888 z m -0.79375,0.0186 q 0,-0.13023 -0.06201,-0.22325 -0.06201,-0.0951 -0.148828,-0.13022 -0.109554,-0.0475 -0.21084,-0.0537 -0.09922,-0.008 -0.270784,-0.008 h -0.109554 v 0.9219 h 0.05374 q 0.109554,0 0.206706,-0.002 0.09715,-0.002 0.169498,-0.0145 0.06201,-0.0103 0.130225,-0.0393 0.07028,-0.031 0.107487,-0.0682 0.07855,-0.0765 0.10542,-0.15916 0.02894,-0.0827 0.02894,-0.22324 z" />
    </g>
    <path
       d="M 3.7883347,277.1626 H 16.531669 a 4,4 45 0 1 4,4 v 3.27477 a 4,4 135 0 1 -4,4 H 3.7883347 a 4,4 45 0 1 -4,-4 v -3.27477 a 4,4 135 0 1 4,-4 z"
       y="277.1626"
       x="-0.2116653"
       height="11.274776"
       width="20.743334"
       id="recta"
       style="display:inline;fill:#de8787;stroke-width:0.312169"
       inkscape:path-effect="#path-effect124"
       sodipodi:type="rect" />
    <g
       transform="translate(-5.0000036e-8,5.0799952)"
       style="font-weight:bold;font-size:4.23333px;line-height:1.25;font-family:Tahoma;-inkscape-font-specification:'Tahoma, Bold';letter-spacing:0px;stroke-width:0.264583"
       id="text216"
       aria-label="A">
      <path
         id="path260"
         style="font-size:3.52778px;stroke-width:0.264583"
         d="m 1.3221584,197.72243 0.866442,-2.56488 h 0.7028 l 0.8664421,2.56488 H 3.0946611 l -0.160197,-0.52366 H 2.1283112 l -0.160197,0.52366 z m 1.4710567,-0.98875 -0.2618274,-0.84577 -0.2618275,0.84577 z" />
    </g>
    <g
       transform="translate(0,7.619988)"
       style="font-weight:bold;font-size:4.23333px;line-height:1.25;font-family:Tahoma;-inkscape-font-specification:'Tahoma, Bold';letter-spacing:0px;stroke-width:0.264583"
       id="text220"
       aria-label="D">
      <path
         id="path257"
         style="font-size:3.52778px;stroke-width:0.264583"
         d="m 3.6854954,211.68256 q 0,0.35829 -0.156752,0.64251 -0.1567519,0.2825 -0.3961862,0.43409 -0.1998157,0.12919 -0.4358049,0.16708 -0.2342666,0.0362 -0.4995391,0.0362 H 1.3945054 v -2.56488 H 2.190323 q 0.2704401,0 0.5064293,0.0345 0.2359892,0.0344 0.4426951,0.16709 0.2532147,0.16192 0.3996313,0.43753 0.1464167,0.27388 0.1464167,0.64595 z m -0.6614588,-0.005 q 0,-0.25322 -0.08785,-0.43236 -0.086127,-0.18087 -0.266995,-0.2825 -0.1309138,-0.0724 -0.2756079,-0.0792 -0.1429715,-0.007 -0.3427872,-0.007 h -0.012058 v 1.60542 h 0.012058 q 0.2170412,0 0.3651804,-0.007 0.1498617,-0.009 0.2842205,-0.093 0.1584745,-0.0999 0.2411569,-0.27561 0.082682,-0.1757 0.082682,-0.42891 z" />
    </g>
    <g
       transform="translate(0,5.0800058)"
       style="font-weight:bold;font-size:4.23333px;line-height:1.25;font-family:Tahoma;-inkscape-font-specification:'Tahoma, Bold';letter-spacing:0px;stroke-width:0.264583"
       id="text224"
       aria-label="R">
      <path
         id="path254"
         style="font-size:3.52778px;stroke-width:0.264583"
         d="M 3.7259753,233.28242 H 2.940493 L 2.2256352,232.34191 H 1.9948137 v 0.94051 H 1.3540255 v -2.56487 h 1.0318068 q 0.213596,0 0.3720705,0.0276 0.1584745,0.0258 0.2928333,0.11024 0.1378039,0.0879 0.2187637,0.22393 0.08096,0.13436 0.08096,0.34279 0,0.29456 -0.1326362,0.47887 -0.1326363,0.18259 -0.3548451,0.29111 z m -1.0369744,-1.77939 q 0,-0.0965 -0.037896,-0.16536 -0.036174,-0.0706 -0.122301,-0.10852 -0.060289,-0.0258 -0.1343588,-0.0327 -0.07407,-0.007 -0.1843127,-0.007 H 1.9948137 v 0.69074 h 0.1843127 q 0.1343588,0 0.2273765,-0.0155 0.09474,-0.0172 0.160197,-0.0706 0.062012,-0.0482 0.091295,-0.11541 0.031006,-0.0672 0.031006,-0.1757 z" />
    </g>
    <g
       transform="translate(-4.9999953e-8,5.0799586)"
       style="font-weight:bold;font-size:4.23333px;line-height:1.25;font-family:Tahoma;-inkscape-font-specification:'Tahoma, Bold';letter-spacing:0px;stroke-width:0.264583"
       id="text228"
       aria-label="GATE">
      <path
         id="path245"
         style="font-size:2.82222px;stroke-width:0.264583"
         d="m 3.2747723,250.68743 q -0.1350476,0.0551 -0.3513995,0.10749 -0.2149738,0.0524 -0.4244354,0.0524 -0.483691,0 -0.7717008,-0.27836 -0.2866317,-0.27974 -0.2866317,-0.79237 0,-0.48231 0.2866317,-0.77308 0.2880098,-0.29076 0.7868592,-0.29076 0.257693,0 0.4189233,0.0496 0.1612303,0.0482 0.333485,0.1323 v 0.48093 h -0.046853 q -0.037207,-0.0289 -0.1074869,-0.0813 -0.068902,-0.0538 -0.1350476,-0.0909 -0.07717,-0.0441 -0.1791448,-0.0758 -0.1005968,-0.0317 -0.2135958,-0.0317 -0.1322916,0 -0.2411565,0.0413 -0.1088649,0.0413 -0.1943032,0.12678 -0.081304,0.0827 -0.1295355,0.20946 -0.046853,0.12678 -0.046853,0.2949 0,0.35967 0.1805229,0.53055 0.1805228,0.17087 0.4933373,0.17087 0.027561,0 0.064768,-0.001 0.037207,-0.001 0.064768,-0.004 V 250.0618 H 2.3776701 v -0.38447 h 0.8971022 z" />
      <path
         id="path247"
         style="font-size:2.82222px;stroke-width:0.264583"
         d="m 3.4456488,250.80457 0.6931527,-2.0519 h 0.5622391 l 0.6931527,2.0519 H 4.863649 L 4.7354916,250.38564 H 4.0905702 l -0.1281575,0.41893 z m 1.1768437,-0.791 -0.2094616,-0.67661 -0.2094617,0.67661 z" />
      <path
         id="path249"
         style="font-size:2.82222px;stroke-width:0.264583"
         d="m 5.9950175,250.80457 v -1.66054 H 5.3886812 v -0.39136 h 1.7280586 v 0.39136 H 6.5104034 v 1.66054 z" />
      <path
         id="path251"
         style="font-size:2.82222px;stroke-width:0.264583"
         d="m 7.3317134,250.80457 v -2.0519 h 1.3876834 v 0.39136 H 7.8443432 v 0.35967 h 0.8061517 v 0.39136 H 7.8443432 v 0.51814 h 0.8750536 v 0.39137 z" />
    </g>
    <g
       transform="translate(-1.000001e-7,5.0800036)"
       style="font-weight:bold;font-size:4.23333px;line-height:1.25;font-family:Tahoma;-inkscape-font-specification:'Tahoma, Bold';letter-spacing:0px;stroke-width:0.264583"
       id="text232"
       aria-label="NOISE">
      <path
         id="path234"
         style="font-size:2.82222px;stroke-width:0.264583"
         d="m 12.553519,250.80594 h -0.496093 l -0.790994,-1.4304 v 1.4304 h -0.471288 v -2.0519 h 0.632519 l 0.654567,1.17547 v -1.17547 h 0.471289 z" />
      <path
         id="path236"
         style="font-size:2.82222px;stroke-width:0.264583"
         d="m 14.841061,249.78068 q 0,0.49747 -0.265961,0.78272 -0.265962,0.28526 -0.728982,0.28526 -0.464399,0 -0.728982,-0.28801 -0.264583,-0.28939 -0.264583,-0.77997 0,-0.49472 0.264583,-0.78135 0.264583,-0.28801 0.728982,-0.28801 0.46302,0 0.728982,0.28663 0.265961,0.28526 0.265961,0.78273 z m -0.531923,-10e-4 q 0,-0.18328 -0.03859,-0.31144 -0.03721,-0.12953 -0.100596,-0.21221 -0.06615,-0.0841 -0.150206,-0.11989 -0.08268,-0.0372 -0.172255,-0.0372 -0.09508,0 -0.172255,0.0345 -0.07717,0.0331 -0.148828,0.11989 -0.06339,0.0799 -0.103353,0.21222 -0.03858,0.13229 -0.03858,0.31557 0,0.18879 0.03721,0.31419 0.03721,0.12402 0.101975,0.20809 0.06615,0.0854 0.150206,0.12264 0.08406,0.0358 0.173633,0.0358 0.09095,0 0.176389,-0.0386 0.08544,-0.04 0.14745,-0.12264 0.06615,-0.0896 0.101974,-0.20808 0.03583,-0.11989 0.03583,-0.31282 z" />
      <path
         id="path238"
         style="font-size:2.82222px;stroke-width:0.264583"
         d="m 16.166732,250.80594 h -1.105185 v -0.35829 h 0.2949 v -1.33532 h -0.2949 v -0.35829 h 1.105185 v 0.35829 h -0.2949 v 1.33532 h 0.2949 z" />
      <path
         id="path240"
         style="font-size:2.82222px;stroke-width:0.264583"
         d="m 17.145139,250.84315 q -0.235644,0 -0.414789,-0.0455 -0.177767,-0.0455 -0.330729,-0.113 v -0.48782 h 0.04685 q 0.15434,0.13091 0.340375,0.20119 0.186035,0.0703 0.361046,0.0703 0.0441,0 0.115755,-0.01 0.07304,-0.01 0.117133,-0.0303 0.05374,-0.0234 0.09095,-0.0648 0.03721,-0.0427 0.03721,-0.11162 0,-0.0772 -0.06063,-0.1254 -0.06063,-0.0482 -0.144694,-0.0703 -0.104731,-0.0276 -0.22462,-0.0524 -0.118511,-0.0248 -0.221864,-0.0606 -0.2384,-0.0841 -0.341753,-0.226 -0.103353,-0.14194 -0.103353,-0.35553 0,-0.28801 0.243913,-0.46578 0.243912,-0.17915 0.609092,-0.17915 0.183279,0 0.363802,0.0372 0.181901,0.0372 0.325217,0.1006 v 0.46853 h -0.04548 q -0.114377,-0.0978 -0.279741,-0.16536 -0.163986,-0.0675 -0.337619,-0.0675 -0.06752,0 -0.121267,0.01 -0.05374,0.01 -0.112999,0.0372 -0.04823,0.022 -0.08406,0.0661 -0.03445,0.0427 -0.03445,0.0965 0,0.0785 0.05512,0.12541 0.0565,0.0455 0.216352,0.0827 0.103352,0.0234 0.198437,0.0455 0.09646,0.022 0.205328,0.0606 0.213595,0.0772 0.316948,0.20808 0.104731,0.12954 0.104731,0.34313 0,0.30593 -0.241157,0.49196 -0.239778,0.18604 -0.649055,0.18604 z" />
      <path
         id="path242"
         style="font-size:2.82222px;stroke-width:0.264583"
         d="m 18.297178,250.80594 v -2.0519 h 1.387683 v 0.39136 h -0.875053 v 0.35967 h 0.806151 v 0.39136 h -0.806151 v 0.51815 h 0.875053 v 0.39136 z" />
    </g>
  </g>
  <g
     inkscape:groupmode="layer"
     id="layer2"
     inkscape:label="components"
     style="display:inline">
    <circle
       id="path30"
       style="fill:#000000;stroke:#000000;stroke-width:0.264583"
       cx="-43.920834"
       cy="-48.154167"
       r="0.035242248" />
    <circle
       id="path32"
       style="fill:#000000;stroke:#000000;stroke-width:0.264583"
       cx="-32.279167"
       cy="-2.5135417"
       r="0.0088105621" />
    <circle
       id="path34"
       style="fill:#000000;stroke:#000000;stroke-width:0.264583"
       cx="-17.991667"
       cy="0.1984375"
       r="0.0088105621" />
    <circle
       id="path36"
       style="fill:#000000;stroke:#000000;stroke-width:0.264583"
       cx="-25.069271"
       cy="2.9104166"
       r="0.0088105621" />
    <text
       xml:space="preserve"
       style="font-size:10.5833px;line-height:1.25;font-family:'Eras Bold ITC';-inkscape-font-specification:'Eras Bold ITC';stroke-width:0.264583"
       x="-38.695312"
       y="11.90625"
       id="text42"><tspan
         sodipodi:role="line"
         id="tspan40"
         x="-38.695312"
         y="11.90625"
         style="font-style:normal;font-variant:normal;font-weight:bold;font-stretch:normal;font-size:3.52778px;font-family:Garamond;-inkscape-font-specification:'Garamond Bold';stroke-width:0.264583" /></text>
    <text
       xml:space="preserve"
       style="font-size:10.5833px;line-height:1.25;font-family:'Eras Bold ITC';-inkscape-font-specification:'Eras Bold ITC';stroke-width:0.264583"
       x="-45.111458"
       y="16.668749"
       id="text78"><tspan
         sodipodi:role="line"
         id="tspan76"
         x="-45.111458"
         y="16.668749"
         style="stroke-width:0.264583" /></text>
  </g>
</svg>
