<?xml version="1.0" encoding="UTF-8" standalone="no"?>
<svg
   xmlns:dc="http://purl.org/dc/elements/1.1/"
   xmlns:cc="http://creativecommons.org/ns#"
   xmlns:rdf="http://www.w3.org/1999/02/22-rdf-syntax-ns#"
   xmlns:svg="http://www.w3.org/2000/svg"
   xmlns="http://www.w3.org/2000/svg"
   xmlns:sodipodi="http://sodipodi.sourceforge.net/DTD/sodipodi-0.dtd"
   xmlns:inkscape="http://www.inkscape.org/namespaces/inkscape"
   width="20.32mm"
   height="128.5mm"
   viewBox="0 0 20.320002 128.50002"
   version="1.1"
   id="svg8"
   inkscape:version="1.0 (4035a4fb49, 2020-05-01)"
   sodipodi:docname="Euclk.svg">
  <defs
     id="defs2">
    <rect
       x="-33.734375"
       y="120.12083"
       width="28.178123"
       height="8.2020826"
       id="rect495" />
    <inkscape:path-effect
       hide_knots="false"
       only_selected="false"
       apply_with_radius="true"
       apply_no_radius="true"
       use_knot_distance="true"
       flexible="false"
       chamfer_steps="1"
       radius="4"
       mode="F"
       method="auto"
       unit="mm"
       satellites_param="F,0,0,1,0,4,0,1 @ F,0,0,1,0,4,0,1 @ F,0,0,1,0,4,0,1 @ F,0,0,1,0,4,0,1"
       lpeversion="1"
       is_visible="true"
       id="path-effect77"
       effect="fillet_chamfer" />
    <inkscape:path-effect
       effect="fillet_chamfer"
       id="path-effect154"
       is_visible="true"
       lpeversion="1"
       satellites_param="F,0,0,1,0,4,0,1 @ F,0,0,1,0,4,0,1 @ F,0,0,1,0,4,0,1 @ F,0,0,1,0,4,0,1"
       unit="mm"
       method="auto"
       mode="F"
       radius="4"
       chamfer_steps="1"
       flexible="false"
       use_knot_distance="true"
       apply_no_radius="true"
       apply_with_radius="true"
       only_selected="false"
       hide_knots="false" />
  </defs>
  <sodipodi:namedview
     id="base"
     pagecolor="#ffffff"
     bordercolor="#666666"
     borderopacity="1.0"
     inkscape:pageopacity="0.0"
     inkscape:pageshadow="2"
     inkscape:zoom="1.4142136"
     inkscape:cx="32.339937"
     inkscape:cy="229.35237"
     inkscape:document-units="mm"
     inkscape:current-layer="layer1"
     showgrid="true"
     units="mm"
     inkscape:snap-bbox="true"
     inkscape:snap-page="true"
     inkscape:bbox-nodes="false"
     inkscape:snap-bbox-edge-midpoints="false"
     inkscape:window-width="966"
     inkscape:window-height="1024"
     inkscape:window-x="879"
     inkscape:window-y="-11"
     inkscape:window-maximized="0"
     inkscape:snap-bbox-midpoints="true"
     inkscape:snap-nodes="false"
     inkscape:document-rotation="0"
     inkscape:lockguides="false"
     objecttolerance="10"
     gridtolerance="10"
     guidetolerance="10">
    <inkscape:grid
       type="xygrid"
       id="grid86"
       units="mm"
       color="#ffd984"
       opacity="0.53333333"
       spacingx="2.5400004"
       spacingy="2.5400004"
       empcolor="#71530f"
       empopacity="0.25098039"
       empspacing="4" />
  </sodipodi:namedview>
  <metadata
     id="metadata5">
    <rdf:RDF>
      <cc:Work
         rdf:about="">
        <dc:format>image/svg+xml</dc:format>
        <dc:type
           rdf:resource="http://purl.org/dc/dcmitype/StillImage" />
        <dc:title />
        <dc:creator>
          <cc:Agent>
            <dc:title>Firo Lightfog</dc:title>
          </cc:Agent>
        </dc:creator>
      </cc:Work>
    </rdf:RDF>
  </metadata>
  <g
     style="display:inline"
     inkscape:label="Layer 1"
     inkscape:groupmode="layer"
     id="layer1"
     transform="translate(0,-168.49998)">
    <text
       xml:space="preserve"
       style="font-size:10.5833px;line-height:1.25;font-family:'Eras Bold ITC';-inkscape-font-specification:'Eras Bold ITC';stroke-width:0.264583"
       x="1.1693041"
       y="277.43234"
       id="text59"><tspan
         sodipodi:role="line"
         id="tspan57"
         x="1.1693041"
         y="277.43234"
         style="font-size:2.82222px;fill:#ffff00;stroke-width:0.264583" /></text>
    <text
       xml:space="preserve"
       style="font-size:10.5833px;line-height:1.25;font-family:'Eras Bold ITC';-inkscape-font-specification:'Eras Bold ITC';stroke-width:0.264583"
       x="-78.577248"
       y="172.05467"
       id="text127"><tspan
         sodipodi:role="line"
         id="tspan125"
         x="-78.577248"
         y="172.05467"
         style="stroke-width:0.264583" /></text>
    <text
       xml:space="preserve"
       style="font-size:10.5833px;line-height:1.25;font-family:'Eras Bold ITC';-inkscape-font-specification:'Eras Bold ITC';stroke-width:0.264583"
       x="-89.989647"
       y="186.46049"
       id="text131"><tspan
         sodipodi:role="line"
         id="tspan129"
         x="-89.989647"
         y="186.46049"
         style="stroke-width:0.264583" /></text>
    <path
       d="M 0.06831339,168.71921 H 20.25169 V 297.26515 H 0.06831339 Z"
       style="display:inline;fill:#cccccc;fill-opacity:1;stroke-width:0.220845"
       id="rect232" />
    <g
       aria-label="EUCLK"
       id="text72"
       style="font-weight:bold;font-size:4.23333px;line-height:1.25;font-family:Tahoma;-inkscape-font-specification:'Tahoma, Bold';letter-spacing:0px;stroke-width:0.264583">
      <path
         d="m 3.3211485,294.49686 v -3.07785 h 2.0815249 v 0.58704 H 4.0900931 v 0.53951 h 1.2092275 v 0.58704 H 4.0900931 v 0.77721 h 1.3125803 v 0.58705 z"
         style="stroke-width:0.264583"
         id="path74" />
      <path
         d="m 7.170006,294.56094 q -0.6201167,0 -0.9549797,-0.29973 -0.3327959,-0.29972 -0.3327959,-0.87643 v -1.96577 h 0.7730787 v 1.9203 q 0,0.32039 0.1198893,0.47749 0.1219562,0.15709 0.3948076,0.15709 0.2666501,0 0.3906735,-0.15089 0.1260904,-0.1509 0.1260904,-0.48369 v -1.9203 h 0.7730787 v 1.9637 q 0,0.56844 -0.3265947,0.87437 -0.3245278,0.30386 -0.9632479,0.30386 z"
         style="stroke-width:0.264583"
         id="path76" />
      <path
         d="m 10.378076,294.5568 q -0.6924635,0 -1.0996735,-0.41754 -0.4072099,-0.41962 -0.4072099,-1.17823 0,-0.73173 0.4072099,-1.16581 0.409277,-0.43615 1.1017405,-0.43615 0.183968,0 0.330729,0.0207 0.146761,0.0207 0.28112,0.0579 0.105419,0.031 0.229443,0.0847 0.124023,0.0538 0.200504,0.093 v 0.73381 h -0.07855 q -0.05581,-0.0496 -0.14056,-0.11783 -0.08475,-0.0703 -0.192236,-0.13642 -0.107487,-0.0661 -0.237711,-0.11162 -0.128158,-0.0476 -0.268718,-0.0476 -0.167431,0 -0.307991,0.0538 -0.138493,0.0517 -0.2645829,0.1819 -0.1157551,0.11782 -0.1901691,0.31833 -0.072347,0.2005 -0.072347,0.47335 0,0.28732 0.076481,0.48369 0.076481,0.19431 0.2005044,0.31419 0.1198895,0.11576 0.2666505,0.16744 0.148828,0.0517 0.295589,0.0517 0.152962,0 0.291454,-0.0496 0.138493,-0.0517 0.233578,-0.11368 0.103352,-0.0641 0.181901,-0.13023 0.07855,-0.0661 0.136425,-0.11782 h 0.07028 v 0.72347 q -0.08475,0.0393 -0.19637,0.091 -0.111621,0.0496 -0.229443,0.0847 -0.144694,0.0434 -0.270785,0.0661 -0.12609,0.0227 -0.347265,0.0227 z"
         style="stroke-width:0.264583"
         id="path78" />
      <path
         d="m 13.933411,294.49686 h -2.054653 v -3.07785 h 0.773079 v 2.4908 h 1.281574 z"
         style="stroke-width:0.264583"
         id="path80" />
      <path
         d="m 16.998855,294.49686 h -0.934309 l -0.839225,-1.25057 -0.150895,0.21084 v 1.03973 h -0.773079 v -3.07785 h 0.773079 v 1.36632 l 0.983919,-1.36632 h 0.895035 l -1.097607,1.42834 z"
         style="stroke-width:0.264583"
         id="path82" />
    </g>
    <rect
       y="191.2097"
       x="-0.2116653"
       height="15.540577"
       width="20.743334"
       id="rect48-7-4"
       style="display:inline;fill:#e9afaf;stroke-width:0.366491" />
    <g
       transform="translate(-2.5534174e-6,33.020053)"
       style="font-weight:bold;font-size:3.52778px;line-height:1.25;font-family:Tahoma;-inkscape-font-specification:'Tahoma, Bold';letter-spacing:0px;stroke-width:0.264583"
       id="text70"
       aria-label="RST">
      <path
         id="path101"
         style="font-size:3.52778px;stroke-width:0.264583"
         d="M 4.1067631,187.56242 H 3.3212809 L 2.6064231,186.62191 H 2.3756015 v 0.94051 H 1.7348134 v -2.56487 h 1.0318067 q 0.2135961,0 0.3720706,0.0276 0.1584745,0.0258 0.2928333,0.11024 0.1378039,0.0879 0.2187637,0.22393 0.08096,0.13436 0.08096,0.34279 0,0.29456 -0.1326363,0.47887 -0.1326362,0.18259 -0.354845,0.29111 z m -1.0369744,-1.77939 q 0,-0.0965 -0.037896,-0.16536 -0.036173,-0.0706 -0.1223009,-0.10852 -0.060289,-0.0258 -0.1343588,-0.0327 -0.07407,-0.007 -0.1843128,-0.007 H 2.3756015 v 0.69074 h 0.1843128 q 0.1343588,0 0.2273764,-0.0155 0.09474,-0.0172 0.1601971,-0.0706 0.062012,-0.0482 0.091295,-0.11541 0.031006,-0.0672 0.031006,-0.1757 z" />
      <path
         id="path103"
         style="font-size:3.52778px;stroke-width:0.264583"
         d="m 5.0903386,187.60893 q -0.2945558,0 -0.5184872,-0.0568 -0.2222088,-0.0568 -0.4134117,-0.14125 v -0.60978 h 0.058567 q 0.1929254,0.16364 0.4254695,0.25149 0.2325441,0.0879 0.4513078,0.0879 0.055122,0 0.1446941,-0.0121 0.091295,-0.0121 0.1464167,-0.0379 0.067179,-0.0293 0.1136882,-0.081 0.046509,-0.0534 0.046509,-0.13953 0,-0.0965 -0.075792,-0.15675 -0.075792,-0.0603 -0.1808677,-0.0879 -0.1309137,-0.0344 -0.2807754,-0.0655 -0.1481392,-0.031 -0.2773304,-0.0758 -0.2980009,-0.10508 -0.4271921,-0.2825 -0.1291912,-0.17742 -0.1291912,-0.44442 0,-0.36001 0.3048912,-0.58222 0.3048911,-0.22393 0.7613666,-0.22393 0.229099,0 0.4547529,0.0465 0.2273764,0.0465 0.4065215,0.12574 v 0.58567 h -0.056844 q -0.1429716,-0.1223 -0.3496774,-0.2067 -0.2049833,-0.0844 -0.4220245,-0.0844 -0.084405,0 -0.1515843,0.0121 -0.067179,0.0121 -0.141249,0.0465 -0.060289,0.0276 -0.1050755,0.0827 -0.043064,0.0534 -0.043064,0.12058 0,0.0982 0.068902,0.15675 0.070625,0.0568 0.2704402,0.10335 0.1291912,0.0293 0.2480471,0.0568 0.1205784,0.0276 0.2566597,0.0758 0.2669951,0.0965 0.3961863,0.2601 0.1309137,0.16192 0.1309137,0.42892 0,0.3824 -0.3014461,0.61495 -0.2997235,0.23254 -0.8113205,0.23254 z" />
      <path
         id="path105"
         style="font-size:3.52778px;stroke-width:0.264583"
         d="m 7.0230384,187.56242 v -2.07567 H 6.2651169 v -0.4892 h 2.1600763 v 0.4892 H 7.6672717 v 2.07567 z" />
    </g>
    <g
       transform="translate(10.16,20.320008)"
       style="font-weight:bold;font-size:3.52778px;line-height:1.25;font-family:Tahoma;-inkscape-font-specification:'Tahoma, Bold';letter-spacing:0px;stroke-width:0.264583"
       id="text74"
       aria-label="CLK">
      <path
         id="path108"
         style="font-size:3.52778px;stroke-width:0.264583"
         d="m 2.9492101,200.31237 q -0.5770539,0 -0.916396,-0.34795 -0.3393421,-0.34968 -0.3393421,-0.98185 0,-0.60979 0.3393421,-0.97152 0.3410647,-0.36346 0.9181186,-0.36346 0.1533068,0 0.2756078,0.0172 0.1223009,0.0172 0.2342666,0.0482 0.08785,0.0258 0.1912029,0.0706 0.103353,0.0448 0.1670873,0.0775 v 0.6115 h -0.065457 q -0.046509,-0.0413 -0.1171333,-0.0982 -0.070625,-0.0586 -0.160197,-0.11369 -0.089573,-0.0551 -0.1980932,-0.093 -0.106798,-0.0396 -0.2239313,-0.0396 -0.1395265,0 -0.2566598,0.0448 -0.1154108,0.0431 -0.2204862,0.15158 -0.096463,0.0982 -0.1584745,0.26528 -0.060289,0.16708 -0.060289,0.39446 0,0.23943 0.063734,0.40308 0.063734,0.16192 0.1670872,0.26182 0.099908,0.0965 0.2222088,0.13953 0.1240235,0.0431 0.2463245,0.0431 0.1274686,0 0.2428794,-0.0413 0.1154108,-0.0431 0.194648,-0.0947 0.086127,-0.0534 0.1515843,-0.10852 0.065457,-0.0551 0.1136882,-0.0982 h 0.058567 v 0.60289 q -0.070625,0.0327 -0.1636422,0.0758 -0.093018,0.0413 -0.1912029,0.0706 -0.1205784,0.0362 -0.2256539,0.0551 -0.1050755,0.0189 -0.2893882,0.0189 z" />
      <path
         id="path110"
         style="font-size:3.52778px;stroke-width:0.264583"
         d="M 5.9119941,200.26242 H 4.1997805 v -2.56487 h 0.6442333 v 2.07567 h 1.0679803 z" />
      <path
         id="path112"
         style="font-size:3.52778px;stroke-width:0.264583"
         d="M 8.4665337,200.26242 H 7.6879416 l -0.6993548,-1.04214 -0.1257461,0.1757 v 0.86644 H 6.2186075 v -2.56487 h 0.6442332 v 1.1386 l 0.8199333,-1.1386 h 0.7458636 l -0.9146734,1.19028 z" />
    </g>
    <g
       transform="translate(10.159999,-12.699993)"
       style="font-weight:bold;font-size:3.52778px;line-height:1.25;font-family:Tahoma;-inkscape-font-specification:'Tahoma, Bold';letter-spacing:0px;stroke-width:0.264583"
       id="text79"
       aria-label="OUT">
      <path
         id="path115"
         style="font-size:3.52778px;stroke-width:0.264583"
         d="m 3.8836932,216.76084 q 0,0.62184 -0.332452,0.97841 -0.3324519,0.35657 -0.9112283,0.35657 -0.580499,0 -0.9112284,-0.36001 -0.3307293,-0.36174 -0.3307293,-0.97497 0,-0.61839 0.3307293,-0.97668 0.3307294,-0.36001 0.9112284,-0.36001 0.5787764,0 0.9112283,0.35829 0.332452,0.35656 0.332452,0.9784 z m -0.6649039,-0.002 q 0,-0.2291 -0.048231,-0.3893 -0.046509,-0.16192 -0.125746,-0.26527 -0.082682,-0.10507 -0.1877579,-0.14986 -0.1033529,-0.0465 -0.2153186,-0.0465 -0.1188558,0 -0.2153186,0.0431 -0.096463,0.0413 -0.1860352,0.14986 -0.079237,0.0999 -0.1291912,0.26527 -0.048231,0.16536 -0.048231,0.39446 0,0.23599 0.046509,0.39274 0.046509,0.15503 0.1274687,0.26011 0.082682,0.1068 0.1877578,0.15331 0.1050755,0.0448 0.2170411,0.0448 0.1136883,0 0.2204863,-0.0482 0.106798,-0.0499 0.1843127,-0.15331 0.082682,-0.11196 0.1274686,-0.2601 0.044786,-0.14986 0.044786,-0.39102 z" />
      <path
         id="path117"
         style="font-size:3.52778px;stroke-width:0.264583"
         d="m 5.2996283,218.09582 q -0.5167647,0 -0.7958176,-0.24977 -0.2773304,-0.24977 -0.2773304,-0.73036 v -1.63815 h 0.6442333 v 1.60025 q 0,0.267 0.099908,0.39791 0.1016304,0.13091 0.3290069,0.13091 0.2222088,0 0.3255617,-0.12574 0.1050755,-0.12575 0.1050755,-0.40308 v -1.60025 H 6.374499 v 1.63643 q 0,0.4737 -0.2721628,0.72863 -0.2704401,0.25322 -0.8027079,0.25322 z" />
      <path
         id="path119"
         style="font-size:3.52778px;stroke-width:0.264583"
         d="m 7.3597969,218.04242 v -2.07567 H 6.6018754 v -0.48921 h 2.1600763 v 0.48921 H 8.0040302 v 2.07567 z" />
    </g>
    <g
       transform="translate(5.0799986,5.0799962)"
       style="font-weight:bold;font-size:3.52778px;line-height:1.25;font-family:Tahoma;-inkscape-font-specification:'Tahoma, Bold';letter-spacing:0px;stroke-width:0.264583"
       id="text83"
       aria-label="LEN">
      <path
         id="path122"
         style="font-size:3.52778px;stroke-width:0.264583"
         d="M 3.5986111,235.82243 H 1.8863975 v -2.56487 h 0.6442333 v 2.07567 h 1.0679803 z" />
      <path
         id="path124"
         style="font-size:3.52778px;stroke-width:0.264583"
         d="m 3.9052247,235.82243 v -2.56487 h 1.7346067 v 0.4892 H 4.5460129 v 0.44959 H 5.553704 v 0.4892 H 4.5460129 v 0.64768 h 1.0938185 v 0.4892 z" />
      <path
         id="path126"
         style="font-size:3.52778px;stroke-width:0.264583"
         d="M 8.2736084,235.82243 H 7.6534908 l -0.988743,-1.788 v 1.788 H 6.0756361 v -2.56487 H 6.866286 l 0.8182107,1.46933 v -1.46933 h 0.5891117 z" />
    </g>
    <g
       transform="translate(5.0800007,5.0800086)"
       style="font-weight:bold;font-size:3.52778px;line-height:1.25;font-family:Tahoma;-inkscape-font-specification:'Tahoma, Bold';letter-spacing:0px;stroke-width:0.264583"
       id="text87"
       aria-label="HIT">
      <path
         id="path151"
         style="font-size:3.52778px;stroke-width:0.264583"
         d="M 4.0964254,251.06242 H 3.4521921 v -1.13688 H 2.5754147 v 1.13688 H 1.9311815 v -2.56487 h 0.6442332 v 0.93879 h 0.8767774 v -0.93879 h 0.6442333 z" />
      <path
         id="path153"
         style="font-size:3.52778px;stroke-width:0.264583"
         d="M 5.9033792,251.06242 H 4.521895 v -0.44786 h 0.3686255 v -1.66915 H 4.521895 v -0.44786 h 1.3814842 v 0.44786 H 5.5347538 v 1.66915 h 0.3686254 z" />
      <path
         id="path155"
         style="font-size:3.52778px;stroke-width:0.264583"
         d="m 6.8266653,251.06242 v -2.07567 H 6.0687438 v -0.4892 h 2.1600763 v 0.4892 H 7.4708986 v 2.07567 z" />
    </g>
    <g
       transform="translate(5.0799982,5.079996)"
       style="font-weight:bold;font-size:3.52778px;line-height:1.25;font-family:Tahoma;-inkscape-font-specification:'Tahoma, Bold';letter-spacing:0px;stroke-width:0.264583"
       id="text91"
       aria-label="SHF">
      <path
         id="path130"
         style="font-size:3.52778px;stroke-width:0.264583"
         d="m 2.6202034,266.34894 q -0.2945558,0 -0.5184872,-0.0569 -0.2222088,-0.0568 -0.4134117,-0.14125 v -0.60978 h 0.058567 q 0.1929255,0.16364 0.4254696,0.25149 0.2325441,0.0879 0.4513078,0.0879 0.055122,0 0.1446941,-0.012 0.091295,-0.0121 0.1464167,-0.0379 0.067179,-0.0293 0.1136882,-0.081 0.046509,-0.0534 0.046509,-0.13953 0,-0.0965 -0.075792,-0.15675 -0.075792,-0.0603 -0.1808677,-0.0879 -0.1309137,-0.0344 -0.2807754,-0.0654 -0.1481392,-0.031 -0.2773304,-0.0758 -0.298001,-0.10507 -0.4271921,-0.28249 -0.1291912,-0.17743 -0.1291912,-0.44442 0,-0.36001 0.3048912,-0.58222 0.3048911,-0.22393 0.7613666,-0.22393 0.229099,0 0.4547529,0.0465 0.2273764,0.0465 0.4065215,0.12575 v 0.58567 h -0.056844 q -0.1429716,-0.1223 -0.3496774,-0.20671 -0.2049834,-0.0844 -0.4220245,-0.0844 -0.084405,0 -0.1515843,0.012 -0.067179,0.0121 -0.141249,0.0465 -0.060289,0.0276 -0.1050755,0.0827 -0.043064,0.0534 -0.043064,0.12058 0,0.0982 0.068902,0.15676 0.070625,0.0568 0.2704402,0.10335 0.1291912,0.0293 0.248047,0.0568 0.1205785,0.0276 0.2566598,0.0758 0.2669951,0.0965 0.3961863,0.26011 0.1309137,0.16192 0.1309137,0.42891 0,0.38241 -0.3014461,0.61495 -0.2997235,0.23255 -0.8113205,0.23255 z" />
      <path
         id="path132"
         style="font-size:3.52778px;stroke-width:0.264583"
         d="M 6.2254982,266.30243 H 5.5812649 v -1.13688 H 4.7044875 v 1.13688 H 4.0602542 v -2.56488 h 0.6442333 v 0.93879 h 0.8767774 v -0.93879 h 0.6442333 z" />
      <path
         id="path134"
         style="font-size:3.52778px;stroke-width:0.264583"
         d="M 8.471702,264.22676 H 7.3951089 v 0.48403 H 8.3855745 V 265.2 H 7.3951089 v 1.10243 H 6.7543208 v -2.56488 H 8.471702 Z" />
    </g>
    <g
       aria-label="PRC"
       id="text160"
       style="font-weight:bold;font-size:3.52778px;line-height:1.25;font-family:Tahoma;-inkscape-font-specification:'Tahoma, Bold';letter-spacing:0px;stroke-width:0.264583"
       transform="translate(5.0800007,7.6200012)">
      <path
         d="m 3.6235855,277.24716 q 0,0.17915 -0.056844,0.34107 -0.056844,0.16192 -0.1636422,0.27044 -0.065457,0.0672 -0.1446941,0.12402 -0.077515,0.0568 -0.1722549,0.0965 -0.09474,0.0396 -0.2067058,0.062 -0.1102431,0.0224 -0.248047,0.0224 H 2.2937778 v 0.83888 H 1.6495445 v -2.56487 h 0.9956332 q 0.2222088,0 0.3824059,0.0413 0.1619196,0.0396 0.2928333,0.12747 0.1446941,0.0965 0.2239313,0.25838 0.079237,0.1602 0.079237,0.3824 z m -0.6614588,0.0155 q 0,-0.10852 -0.051676,-0.18604 -0.051677,-0.0792 -0.1240236,-0.10852 -0.091295,-0.0396 -0.1756999,-0.0448 -0.082682,-0.007 -0.2256539,-0.007 h -0.091295 v 0.76826 h 0.044786 q 0.091295,0 0.1722549,-0.002 0.08096,-0.002 0.141249,-0.0121 0.051677,-0.009 0.1085206,-0.0327 0.058567,-0.0258 0.089573,-0.0568 0.065457,-0.0637 0.08785,-0.13264 0.024116,-0.0689 0.024116,-0.18603 z"
         style="font-size:3.52778px;stroke-width:0.264583"
         id="path154" />
      <path
         d="M 6.3434903,279.00244 H 5.558008 L 4.8431502,278.06193 H 4.6123287 v 0.94051 H 3.9715405 v -2.56487 h 1.0318067 q 0.2135961,0 0.3720706,0.0276 0.1584745,0.0258 0.2928333,0.11024 0.1378039,0.0879 0.2187637,0.22393 0.08096,0.13436 0.08096,0.34279 0,0.29455 -0.1326363,0.47887 -0.1326362,0.18259 -0.354845,0.29111 z m -1.0369745,-1.77939 q 0,-0.0965 -0.037896,-0.16537 -0.036174,-0.0706 -0.122301,-0.10852 -0.060289,-0.0258 -0.1343588,-0.0327 -0.07407,-0.007 -0.1843127,-0.007 H 4.6123287 v 0.69075 h 0.1843127 q 0.1343588,0 0.2273764,-0.0155 0.09474,-0.0172 0.1601971,-0.0706 0.062012,-0.0482 0.091295,-0.11541 0.031006,-0.0672 0.031006,-0.1757 z"
         style="font-size:3.52778px;stroke-width:0.264583"
         id="path156" />
      <path
         d="m 7.6405699,279.0524 q -0.5770539,0 -0.916396,-0.34796 -0.3393421,-0.34968 -0.3393421,-0.98185 0,-0.60978 0.3393421,-0.97152 0.3410647,-0.36346 0.9181185,-0.36346 0.1533069,0 0.2756078,0.0172 0.122301,0.0172 0.2342667,0.0482 0.08785,0.0258 0.1912029,0.0706 0.1033529,0.0448 0.1670872,0.0775 v 0.6115 H 8.445 q -0.046509,-0.0413 -0.1171333,-0.0982 -0.070624,-0.0586 -0.1601971,-0.11369 -0.089573,-0.0551 -0.1980931,-0.093 -0.106798,-0.0396 -0.2239313,-0.0396 -0.1395265,0 -0.2566598,0.0448 -0.1154108,0.0431 -0.2204863,0.15158 -0.096463,0.0982 -0.1584745,0.26528 -0.060289,0.16708 -0.060289,0.39446 0,0.23943 0.063734,0.40308 0.063734,0.16192 0.1670873,0.26182 0.099908,0.0965 0.2222088,0.13953 0.1240235,0.0431 0.2463244,0.0431 0.1274687,0 0.2428794,-0.0413 0.1154108,-0.0431 0.1946481,-0.0947 0.086127,-0.0534 0.1515843,-0.10852 0.065457,-0.0551 0.1136882,-0.0982 h 0.058567 v 0.60289 q -0.070625,0.0327 -0.1636421,0.0758 -0.093018,0.0413 -0.1912029,0.0706 -0.1205784,0.0362 -0.2256539,0.0551 -0.1050755,0.0189 -0.2893882,0.0189 z"
         style="font-size:3.52778px;stroke-width:0.264583"
         id="path158" />
    </g>
    <g
       transform="translate(3.9658232e-7,17.780009)"
       style="font-weight:bold;font-size:4.23333px;line-height:1.25;font-family:Tahoma;-inkscape-font-specification:'Tahoma, Bold';letter-spacing:0px;stroke-width:0.264583"
       id="text77"
       aria-label="INV">
      <path
         id="path79"
         style="font-size:3.52778px;stroke-width:0.264583"
         d="M 3.1231855,187.56242 H 1.7417014 v -0.44786 h 0.3686254 v -1.66915 H 1.7417014 v -0.44786 h 1.3814841 v 0.44786 H 2.7545601 v 1.66915 h 0.3686254 z" />
      <path
         id="path81"
         style="font-size:3.52778px;stroke-width:0.264583"
         d="M 5.7517951,187.56242 H 5.1316775 l -0.988743,-1.788 v 1.788 H 3.5538228 v -2.56487 h 0.7906499 l 0.8182107,1.46933 v -1.46933 h 0.5891117 z" />
      <path
         id="path83"
         style="font-size:3.52778px;stroke-width:0.264583"
         d="m 8.4183007,184.99755 -0.881945,2.56487 H 6.8645616 l -0.881945,-2.56487 h 0.6683489 l 0.5581059,1.73805 0.5581058,-1.73805 z" />
    </g>
    <g
       aria-label="b"
       id="text104"
       style="font-weight:bold;font-size:6.35px;line-height:1.25;font-family:Tahoma;-inkscape-font-specification:'Tahoma, Bold';display:inline;fill:#000000;stroke-width:0.264583">
      <path
         d="m 3.2732611,177.4586 v 0.68213 q 0.3927406,0 0.592556,0.19982 0.2067056,0.19981 0.3927406,0.76481 l 0.110243,0.34451 q 0.37207,1.14377 1.2195628,1.50206 -0.7854811,0.15158 -1.2540138,0.64768 -0.4616424,0.4892 -0.4616424,1.16444 0,0.94395 0.7096891,1.56407 0.7096891,0.61323 1.7983385,0.61323 1.6536445,0 2.5562588,-1.41938 L 8.4064495,183.0741 q -0.5856658,0.62701 -1.2057825,0.62701 -0.5098738,0 -0.8750536,-0.33073 -0.3651799,-0.33762 -0.3651799,-0.79926 0,-0.38585 0.2824977,-0.66835 0.2893878,-0.28249 0.6752382,-0.28249 0.6959087,0 1.9499225,0.98529 l 0.4203013,0.33073 q 2.0463848,1.6123 3.9067348,1.6123 1.612304,0 2.728514,-1.06108 1.1231,-1.06109 1.1231,-2.58382 0,-1.54341 -1.157551,-2.49425 -1.157551,-0.95085 -3.038572,-0.95085 h -0.227376 v 0.68213 q 1.11621,0.0758 1.770778,0.77859 0.654567,0.69591 0.654567,1.81212 0,1.10243 -0.826822,1.88791 -0.826822,0.77859 -1.998154,0.77859 -1.12999,0 -2.011934,-0.68901 -0.8819437,-0.68902 -0.8819437,-1.57097 0,-0.4203 0.2687173,-0.70969 0.2756074,-0.28938 0.6752384,-0.28938 0.399631,0 0.599446,0.22048 0.206705,0.2136 0.206705,0.65457 0,0.26872 -0.151584,0.6339 l 0.620117,0.28249 q 0.413411,-0.9784 0.413411,-1.63986 0,-0.81304 -0.530544,-1.39182 -0.523654,-0.58566 -1.267794,-0.58566 -0.475423,0 -0.8681636,0.23426 -0.3927406,0.23427 -0.7027989,0.70969 -0.3996308,-0.99907 -1.2677942,-1.39871 -0.8612732,-0.39963 -2.6182705,-0.39963 z m 4.9609337,3.36241 Q 7.2213375,180.62809 6.3807349,179.13292 L 6.2636017,178.9331 q -0.3651798,-0.64767 -0.8819437,-0.84749 2.6320509,0 2.8525368,2.7354 z"
         style="font-style:normal;font-variant:normal;font-weight:bold;font-stretch:normal;font-size:14.1111px;font-family:'Wingdings 2';-inkscape-font-specification:'Wingdings 2 Bold';fill:#000000;stroke-width:0.264583"
         id="path116" />
    </g>
  </g>
  <g
     inkscape:groupmode="layer"
     id="layer2"
     inkscape:label="components"
     style="display:inline">
    <circle
       id="path30"
       style="fill:#000000;stroke:#000000;stroke-width:0.264583"
       cx="-43.920834"
       cy="-48.154167"
       r="0.035242248" />
    <circle
       id="path32"
       style="fill:#000000;stroke:#000000;stroke-width:0.264583"
       cx="-32.279167"
       cy="-2.5135417"
       r="0.0088105621" />
    <circle
       id="path34"
       style="fill:#000000;stroke:#000000;stroke-width:0.264583"
       cx="-17.991667"
       cy="0.1984375"
       r="0.0088105621" />
    <circle
       id="path36"
       style="fill:#000000;stroke:#000000;stroke-width:0.264583"
       cx="-25.069271"
       cy="2.9104166"
       r="0.0088105621" />
    <text
       xml:space="preserve"
       style="font-size:10.5833px;line-height:1.25;font-family:'Eras Bold ITC';-inkscape-font-specification:'Eras Bold ITC';stroke-width:0.264583"
       x="-38.695312"
       y="11.90625"
       id="text42"><tspan
         sodipodi:role="line"
         id="tspan40"
         x="-38.695312"
         y="11.90625"
         style="font-style:normal;font-variant:normal;font-weight:bold;font-stretch:normal;font-size:3.52778px;font-family:Garamond;-inkscape-font-specification:'Garamond Bold';stroke-width:0.264583" /></text>
    <text
       xml:space="preserve"
       style="font-size:10.5833px;line-height:1.25;font-family:'Eras Bold ITC';-inkscape-font-specification:'Eras Bold ITC';stroke-width:0.264583"
       x="-45.111458"
       y="16.668749"
       id="text78"><tspan
         sodipodi:role="line"
         id="tspan76"
         x="-45.111458"
         y="16.668749"
         style="stroke-width:0.264583" /></text>
  </g>
</svg>
