<?xml version="1.0" encoding="UTF-8" standalone="no"?>
<svg
   xmlns:dc="http://purl.org/dc/elements/1.1/"
   xmlns:cc="http://creativecommons.org/ns#"
   xmlns:rdf="http://www.w3.org/1999/02/22-rdf-syntax-ns#"
   xmlns:svg="http://www.w3.org/2000/svg"
   xmlns="http://www.w3.org/2000/svg"
   xmlns:sodipodi="http://sodipodi.sourceforge.net/DTD/sodipodi-0.dtd"
   xmlns:inkscape="http://www.inkscape.org/namespaces/inkscape"
   width="20.32mm"
   height="128.5mm"
   viewBox="0 0 20.320002 128.50002"
   version="1.1"
   id="svg8"
   inkscape:version="1.0 (4035a4fb49, 2020-05-01)"
   sodipodi:docname="Euclk.svg">
  <defs
     id="defs2">
    <inkscape:path-effect
       effect="fillet_chamfer"
       id="path-effect154"
       is_visible="true"
       lpeversion="1"
       satellites_param="F,0,0,1,0,4,0,1 @ F,0,0,1,0,4,0,1 @ F,0,0,1,0,4,0,1 @ F,0,0,1,0,4,0,1"
       unit="mm"
       method="auto"
       mode="F"
       radius="4"
       chamfer_steps="1"
       flexible="false"
       use_knot_distance="true"
       apply_no_radius="true"
       apply_with_radius="true"
       only_selected="false"
       hide_knots="false" />
  </defs>
  <sodipodi:namedview
     id="base"
     pagecolor="#ffffff"
     bordercolor="#666666"
     borderopacity="1.0"
     inkscape:pageopacity="0.0"
     inkscape:pageshadow="2"
     inkscape:zoom="1.4142136"
     inkscape:cx="-2.8959935"
     inkscape:cy="282.03503"
     inkscape:document-units="mm"
     inkscape:current-layer="layer2"
     showgrid="true"
     units="mm"
     inkscape:snap-bbox="true"
     inkscape:snap-page="true"
     inkscape:bbox-nodes="false"
     inkscape:snap-bbox-edge-midpoints="false"
     inkscape:window-width="1780"
     inkscape:window-height="1046"
     inkscape:window-x="-11"
     inkscape:window-y="-11"
     inkscape:window-maximized="1"
     inkscape:snap-bbox-midpoints="true"
     inkscape:snap-nodes="false"
     inkscape:document-rotation="0"
     inkscape:lockguides="false"
     objecttolerance="24.3"
     gridtolerance="26.6"
     guidetolerance="28.7">
    <inkscape:grid
       type="xygrid"
       id="grid86"
       units="mm"
       color="#ffd984"
       opacity="0.53333333"
       spacingx="2.5400004"
       spacingy="2.5400004"
       empcolor="#71530f"
       empopacity="0.25098039"
       empspacing="4" />
  </sodipodi:namedview>
  <metadata
     id="metadata5">
    <rdf:RDF>
      <cc:Work
         rdf:about="">
        <dc:format>image/svg+xml</dc:format>
        <dc:type
           rdf:resource="http://purl.org/dc/dcmitype/StillImage" />
        <dc:title />
        <dc:creator>
          <cc:Agent>
            <dc:title>Firo Lightfog</dc:title>
          </cc:Agent>
        </dc:creator>
      </cc:Work>
    </rdf:RDF>
  </metadata>
  <g
     style="display:inline"
     inkscape:label="Layer 1"
     inkscape:groupmode="layer"
     id="layer1"
     transform="translate(0,-168.49998)">
    <rect
       style="display:inline;opacity:1;vector-effect:none;fill:#aa0044;fill-opacity:1;fill-rule:evenodd;stroke:none;stroke-width:0.53381;stroke-linecap:butt;stroke-linejoin:miter;stroke-miterlimit:4;stroke-dasharray:none;stroke-dashoffset:0;stroke-opacity:1;paint-order:normal"
       id="rect420"
       width="20.463631"
       height="129.3419"
       x="-0.11858591"
       y="168.54512" />
    <path
       y="209.97157"
       x="2.3283269"
       height="16.7132"
       width="15.663334"
       id="rect48"
       style="fill:#000000;stroke-width:0.330268"
       inkscape:path-effect="#path-effect154"
       d="m 6.3283269,209.97157 h 7.6633341 a 4,4 45 0 1 4,4 v 8.7132 a 4,4 135 0 1 -4,4 H 6.3283269 a 4,4 45 0 1 -4,-4 v -8.7132 a 4,4 135 0 1 4,-4 z"
       sodipodi:type="rect" />
    <text
       xml:space="preserve"
       style="font-size:10.5833px;line-height:1.25;font-family:'Eras Bold ITC';-inkscape-font-specification:'Eras Bold ITC';stroke-width:0.264583"
       x="1.1693041"
       y="277.43234"
       id="text59"><tspan
         sodipodi:role="line"
         id="tspan57"
         x="1.1693041"
         y="277.43234"
         style="font-size:2.82222px;fill:#ffff00;stroke-width:0.264583" /></text>
    <g
       aria-label="OUT"
       id="text63"
       style="font-size:10.5833px;line-height:1.25;font-family:'Eras Bold ITC';-inkscape-font-specification:'Eras Bold ITC';fill:#ffeeaa;stroke-width:0.264583"
       transform="translate(5.0800011,-64.439336)">
      <path
         d="m 3.0694446,276.74367 q 0.2204859,0 0.4244354,0.0593 0.2039495,0.0593 0.3569116,0.19017 0.1529622,0.12953 0.2287542,0.29903 0.075792,0.1695 0.075792,0.38999 0,0.23151 -0.08406,0.42581 -0.082682,0.19292 -0.2397785,0.32797 -0.1570962,0.13505 -0.3748261,0.19844 -0.2177299,0.062 -0.4533742,0.062 -0.2328883,0 -0.4464841,-0.0606 -0.2135957,-0.062 -0.37207,-0.19844 -0.1570962,-0.1378 -0.223242,-0.30592 -0.066146,-0.16812 -0.066146,-0.37345 0,-0.30179 0.1391818,-0.52917 0.1405598,-0.22875 0.4147892,-0.35691 0.2756074,-0.12816 0.6201167,-0.12816 z m -0.024805,0.41479 q -0.1584743,0 -0.2866317,0.0786 -0.1281575,0.0772 -0.1970593,0.21635 -0.068902,0.13781 -0.068902,0.29628 0,0.14607 0.062012,0.26734 0.06339,0.12127 0.1915471,0.19017 0.1281575,0.0675 0.2714734,0.0675 0.1529621,0 0.2797415,-0.0758 0.1281575,-0.0772 0.1943032,-0.21497 0.067524,-0.13919 0.067524,-0.29077 0,-0.14745 -0.062012,-0.27147 -0.062012,-0.1254 -0.1819009,-0.19431 -0.1198892,-0.0689 -0.2700953,-0.0689 z"
         style="font-size:2.82222px;fill:#ffeeaa;stroke-width:0.264583"
         id="path65" />
      <path
         d="m 4.461262,276.7795 q 0.2149738,0.003 0.3031682,0.003 0.110243,0 0.2935219,-0.003 l -0.041341,0.58567 q -0.012402,0.16536 -0.019292,0.31006 -0.00551,0.14469 -0.00551,0.19981 0,0.10473 0.015158,0.17501 0.015158,0.0703 0.055122,0.11989 0.039963,0.0482 0.110243,0.073 0.071658,0.0248 0.148828,0.0248 0.066146,0 0.1240233,-0.0152 0.045475,-0.0124 0.081304,-0.0344 0.031695,-0.0207 0.055122,-0.0482 0.028939,-0.0331 0.050987,-0.0827 0.022049,-0.0469 0.033073,-0.12127 0.012402,-0.0758 0.033073,-0.34451 0.017914,-0.22875 0.027561,-0.41892 0.00827,-0.18466 0.015158,-0.42306 0.2080836,0.003 0.3279729,0.003 l 0.2797415,-0.003 -0.067524,0.97841 q -0.00138,0.0276 -0.00138,0.0455 -0.00551,0.28664 -0.035829,0.40515 -0.028939,0.11713 -0.097841,0.20395 -0.068902,0.0868 -0.2011934,0.15709 -0.1322915,0.0689 -0.3004121,0.0978 -0.1681205,0.0289 -0.3403752,0.0289 -0.1543401,0 -0.297656,-0.022 -0.1322915,-0.0221 -0.2384004,-0.0634 -0.1061089,-0.0427 -0.184657,-0.0992 -0.071658,-0.0524 -0.110243,-0.1061 -0.038585,-0.0551 -0.060634,-0.13092 -0.024805,-0.0854 -0.024805,-0.18328 0,-0.0331 0.00276,-0.0992 0.00276,-0.0675 0.012402,-0.19292 l 0.017914,-0.22049 q 0.00689,-0.0868 0.015158,-0.25493 z"
         style="font-size:2.82222px;fill:#ffeeaa;stroke-width:0.264583"
         id="path67" />
      <path
         d="m 6.9913383,278.66052 q 0.068902,-0.66972 0.082682,-1.4745 l -0.5870439,0.0152 0.00689,-0.15296 q 0.00551,-0.12265 0.00827,-0.26872 0.3913626,0.003 0.9122606,0.003 l 0.3403752,-10e-4 h 0.3307289 l 0.1791449,-0.001 -0.00827,0.13367 q -0.00551,0.10749 -0.00827,0.17777 -0.00138,0.0703 -0.00138,0.10611 -0.2949,-0.0138 -0.4864471,-0.0138 h -0.096463 q -0.020671,0.24391 -0.031695,0.45061 -0.015158,0.29628 -0.023427,0.57602 -0.00827,0.27837 -0.00827,0.45062 -0.2259981,-0.003 -0.2921439,-0.003 -0.059256,0 -0.3169486,0.003 z"
         style="font-size:2.82222px;fill:#ffeeaa;stroke-width:0.264583"
         id="path69" />
    </g>
    <text
       xml:space="preserve"
       style="font-size:10.5833px;line-height:1.25;font-family:'Eras Bold ITC';-inkscape-font-specification:'Eras Bold ITC';stroke-width:0.264583"
       x="-78.577248"
       y="172.05467"
       id="text127"><tspan
         sodipodi:role="line"
         id="tspan125"
         x="-78.577248"
         y="172.05467"
         style="stroke-width:0.264583" /></text>
    <text
       xml:space="preserve"
       style="font-size:10.5833px;line-height:1.25;font-family:'Eras Bold ITC';-inkscape-font-specification:'Eras Bold ITC';stroke-width:0.264583"
       x="-89.989647"
       y="186.46049"
       id="text131"><tspan
         sodipodi:role="line"
         id="tspan129"
         x="-89.989647"
         y="186.46049"
         style="stroke-width:0.264583" /></text>
    <g
       aria-label="b"
       id="text104"
       style="font-weight:bold;font-size:6.35px;line-height:1.25;font-family:Tahoma;-inkscape-font-specification:'Tahoma, Bold';fill:#ffeeaa;stroke-width:0.264583">
      <path
         d="m 3.2732611,177.4586 v 0.68213 q 0.3927406,0 0.592556,0.19982 0.2067056,0.19981 0.3927406,0.76481 l 0.110243,0.34451 q 0.37207,1.14377 1.2195628,1.50206 -0.7854811,0.15158 -1.2540138,0.64768 -0.4616424,0.4892 -0.4616424,1.16444 0,0.94395 0.7096891,1.56407 0.7096891,0.61323 1.7983385,0.61323 1.6536445,0 2.5562588,-1.41938 L 8.4064495,183.0741 q -0.5856658,0.62701 -1.2057825,0.62701 -0.5098738,0 -0.8750536,-0.33073 -0.3651799,-0.33762 -0.3651799,-0.79926 0,-0.38585 0.2824977,-0.66835 0.2893878,-0.28249 0.6752382,-0.28249 0.6959087,0 1.9499225,0.98529 l 0.4203013,0.33073 q 2.0463848,1.6123 3.9067348,1.6123 1.612304,0 2.728514,-1.06108 1.1231,-1.06109 1.1231,-2.58382 0,-1.54341 -1.157551,-2.49425 -1.157551,-0.95085 -3.038572,-0.95085 h -0.227376 v 0.68213 q 1.11621,0.0758 1.770778,0.77859 0.654567,0.69591 0.654567,1.81212 0,1.10243 -0.826822,1.88791 -0.826822,0.77859 -1.998154,0.77859 -1.12999,0 -2.011934,-0.68901 -0.8819437,-0.68902 -0.8819437,-1.57097 0,-0.4203 0.2687173,-0.70969 0.2756074,-0.28938 0.6752384,-0.28938 0.399631,0 0.599446,0.22048 0.206705,0.2136 0.206705,0.65457 0,0.26872 -0.151584,0.6339 l 0.620117,0.28249 q 0.413411,-0.9784 0.413411,-1.63986 0,-0.81304 -0.530544,-1.39182 -0.523654,-0.58566 -1.267794,-0.58566 -0.475423,0 -0.8681636,0.23426 -0.3927406,0.23427 -0.7027989,0.70969 -0.3996308,-0.99907 -1.2677942,-1.39871 -0.8612732,-0.39963 -2.6182705,-0.39963 z m 4.9609337,3.36241 Q 7.2213375,180.62809 6.3807349,179.13292 L 6.2636017,178.9331 q -0.3651798,-0.64767 -0.8819437,-0.84749 2.6320509,0 2.8525368,2.7354 z"
         style="font-style:normal;font-variant:normal;font-weight:bold;font-stretch:normal;font-size:14.1111px;font-family:'Wingdings 2';-inkscape-font-specification:'Wingdings 2 Bold';fill:#ffeeaa;stroke-width:0.264583"
         id="path116" />
    </g>
    <g
       style="font-weight:bold;font-size:4.23333px;line-height:1.25;font-family:Tahoma;-inkscape-font-specification:'Tahoma, Bold';display:inline;fill:#ffeeaa;stroke-width:0.264583"
       id="text116"
       aria-label="EUCLK">
      <path
         id="path73"
         style="fill:#ffeeaa;stroke-width:0.264583"
         d="m 3.6859227,294.56018 v -3.07785 h 2.0815249 v 0.58705 H 4.4548674 v 0.5395 h 1.2092275 v 0.58704 H 4.4548674 v 0.77722 h 1.3125802 v 0.58704 z" />
      <path
         id="path75"
         style="fill:#ffeeaa;stroke-width:0.264583"
         d="m 7.5347802,294.62426 q -0.6201167,0 -0.9549797,-0.29972 -0.3327959,-0.29973 -0.3327959,-0.87644 v -1.96577 h 0.7730788 v 1.9203 q 0,0.32039 0.1198892,0.47749 0.1219563,0.1571 0.3948076,0.1571 0.2666502,0 0.3906735,-0.1509 0.1260904,-0.15089 0.1260904,-0.48369 v -1.9203 h 0.7730788 v 1.96371 q 0,0.56844 -0.3265948,0.87436 -0.3245277,0.30386 -0.9632479,0.30386 z" />
      <path
         id="path77"
         style="fill:#ffeeaa;stroke-width:0.264583"
         d="m 10.74285,294.62013 q -0.692463,0 -1.0996732,-0.41755 -0.40721,-0.41961 -0.40721,-1.17822 0,-0.73174 0.40721,-1.16582 0.4092772,-0.43615 1.1017402,-0.43615 0.183968,0 0.330729,0.0207 0.146761,0.0207 0.28112,0.0579 0.10542,0.031 0.229443,0.0847 0.124023,0.0537 0.200504,0.093 v 0.7338 h -0.07855 q -0.05581,-0.0496 -0.14056,-0.11782 -0.08475,-0.0703 -0.192236,-0.13643 -0.107487,-0.0661 -0.237711,-0.11162 -0.128158,-0.0475 -0.268717,-0.0475 -0.167432,0 -0.307992,0.0537 -0.138492,0.0517 -0.264583,0.1819 -0.115755,0.11783 -0.190169,0.31833 -0.07235,0.2005 -0.07235,0.47336 0,0.28732 0.07648,0.48369 0.07648,0.1943 0.200505,0.31419 0.119889,0.11575 0.26665,0.16743 0.148828,0.0517 0.295589,0.0517 0.152962,0 0.291455,-0.0496 0.138492,-0.0517 0.233577,-0.11369 0.103353,-0.0641 0.181901,-0.13023 0.07855,-0.0661 0.136425,-0.11782 h 0.07028 v 0.72347 q -0.08475,0.0393 -0.19637,0.0909 -0.111621,0.0496 -0.229443,0.0848 -0.144694,0.0434 -0.270784,0.0661 -0.126091,0.0227 -0.347266,0.0227 z" />
      <path
         id="path79"
         style="fill:#ffeeaa;stroke-width:0.264583"
         d="m 14.298185,294.56018 h -2.054653 v -3.07785 h 0.773079 v 2.49081 h 1.281574 z" />
      <path
         id="path81"
         style="fill:#ffeeaa;stroke-width:0.264583"
         d="M 17.363629,294.56018 H 16.42932 l -0.839225,-1.25057 -0.150895,0.21084 v 1.03973 h -0.773078 v -3.07785 H 15.4392 v 1.36633 l 0.983919,-1.36633 h 0.895035 l -1.097607,1.42834 z" />
    </g>
    <g
       aria-label="SHFT"
       id="text110"
       style="font-weight:bold;font-size:2.82222px;line-height:1.25;font-family:Tahoma;-inkscape-font-specification:'Tahoma, Bold';display:inline;fill:#ffeeaa;stroke-width:0.264583"
       transform="translate(-4.1500001e-6,-30.479799)">
      <path
         d="m 7.2998854,238.14315 q -0.2356443,0 -0.4147891,-0.0455 -0.1777668,-0.0455 -0.330729,-0.113 v -0.48782 h 0.046853 q 0.1543402,0.13091 0.3403752,0.20119 0.186035,0.0703 0.3610457,0.0703 0.044097,0 0.1157551,-0.01 0.073036,-0.01 0.1171332,-0.0303 0.053744,-0.0234 0.09095,-0.0648 0.037207,-0.0427 0.037207,-0.11162 0,-0.0772 -0.060634,-0.1254 -0.060634,-0.0482 -0.1446939,-0.0703 -0.1047308,-0.0276 -0.22462,-0.0524 -0.1185112,-0.0248 -0.221864,-0.0606 -0.2384004,-0.0841 -0.3417532,-0.226 -0.1033528,-0.14194 -0.1033528,-0.35553 0,-0.28801 0.2439126,-0.46578 0.2439125,-0.17914 0.6090924,-0.17914 0.1832789,0 0.3638018,0.0372 0.1819009,0.0372 0.3252168,0.1006 v 0.46853 H 8.063318 q -0.1143771,-0.0978 -0.2797415,-0.16536 -0.1639864,-0.0675 -0.3376191,-0.0675 -0.067524,0 -0.1212673,0.01 -0.053743,0.01 -0.112999,0.0372 -0.048231,0.0221 -0.08406,0.0661 -0.034451,0.0427 -0.034451,0.0965 0,0.0786 0.055122,0.1254 0.0565,0.0455 0.2163518,0.0827 0.1033528,0.0234 0.1984373,0.0455 0.096463,0.022 0.2053276,0.0606 0.2135957,0.0772 0.3169485,0.20808 0.1047308,0.12954 0.1047308,0.34313 0,0.30593 -0.2411565,0.49196 -0.2397784,0.18604 -0.6490555,0.18604 z"
         style="font-size:2.82222px;fill:#ffeeaa;stroke-width:0.264583"
         id="path128" />
      <path
         d="M 10.184117,238.10594 H 9.6687313 v -0.9095 H 8.9673104 v 0.9095 H 8.4519245 v -2.0519 h 0.5153859 v 0.75103 h 0.7014209 v -0.75103 h 0.5153857 z"
         style="font-size:2.82222px;fill:#ffeeaa;stroke-width:0.264583"
         id="path130" />
      <path
         d="m 11.981078,236.44541 h -0.861274 v 0.38723 h 0.792372 v 0.39136 h -0.792372 v 0.88194 h -0.512629 v -2.0519 h 1.373903 z"
         style="font-size:2.82222px;fill:#ffeeaa;stroke-width:0.264583"
         id="path132" />
      <path
         d="m 12.643913,238.10594 v -1.66053 h -0.606336 v -0.39137 h 1.728059 v 0.39137 h -0.606337 v 1.66053 z"
         style="font-size:2.82222px;fill:#ffeeaa;stroke-width:0.264583"
         id="path134" />
    </g>
    <g
       aria-label="HITS"
       id="text114"
       style="font-weight:bold;font-size:2.82222px;line-height:1.25;font-family:Tahoma;-inkscape-font-specification:'Tahoma, Bold';display:inline;fill:#ffeeaa;stroke-width:0.264583"
       transform="translate(-4.1500001e-6,-30.479799)">
      <path
         d="M 8.5036012,235.56593 H 7.9882153 v -0.9095 H 7.2867944 v 0.9095 H 6.7714085 v -2.05189 h 0.5153859 v 0.75103 h 0.7014209 v -0.75103 h 0.5153859 z"
         style="font-size:2.82222px;fill:#ffeeaa;stroke-width:0.264583"
         id="path137" />
      <path
         d="M 9.9491621,235.56593 H 8.8439763 v -0.35829 h 0.2949 v -1.33531 h -0.2949 v -0.35829 h 1.1051858 v 0.35829 H 9.6542622 v 1.33531 h 0.2948999 z"
         style="font-size:2.82222px;fill:#ffeeaa;stroke-width:0.264583"
         id="path139" />
      <path
         d="m 10.68779,235.56593 v -1.66053 h -0.606336 v -0.39136 h 1.728058 v 0.39136 h -0.606336 v 1.66053 z"
         style="font-size:2.82222px;fill:#ffeeaa;stroke-width:0.264583"
         id="path141" />
      <path
         d="m 12.658383,235.60314 q -0.235644,0 -0.414789,-0.0455 -0.177767,-0.0455 -0.330729,-0.113 v -0.48783 h 0.04685 q 0.15434,0.13091 0.340375,0.20119 0.186035,0.0703 0.361046,0.0703 0.0441,0 0.115755,-0.01 0.07304,-0.01 0.117133,-0.0303 0.05374,-0.0234 0.09095,-0.0648 0.03721,-0.0427 0.03721,-0.11162 0,-0.0772 -0.06063,-0.1254 -0.06063,-0.0482 -0.144694,-0.0703 -0.10473,-0.0276 -0.22462,-0.0524 -0.118511,-0.0248 -0.221864,-0.0606 -0.2384,-0.0841 -0.341753,-0.226 -0.103353,-0.14193 -0.103353,-0.35553 0,-0.28801 0.243913,-0.46578 0.243912,-0.17914 0.609092,-0.17914 0.183279,0 0.363802,0.0372 0.181901,0.0372 0.325217,0.10059 v 0.46854 h -0.04547 q -0.114377,-0.0978 -0.279742,-0.16537 -0.163986,-0.0675 -0.337619,-0.0675 -0.06752,0 -0.121267,0.01 -0.05374,0.01 -0.112999,0.0372 -0.04823,0.0221 -0.08406,0.0661 -0.03445,0.0427 -0.03445,0.0965 0,0.0786 0.05512,0.1254 0.0565,0.0455 0.216352,0.0827 0.103353,0.0234 0.198437,0.0455 0.09646,0.0221 0.205328,0.0606 0.213595,0.0772 0.316948,0.20808 0.104731,0.12954 0.104731,0.34314 0,0.30592 -0.241156,0.49196 -0.239779,0.18603 -0.649056,0.18603 z"
         style="font-size:2.82222px;fill:#ffeeaa;stroke-width:0.264583"
         id="path143" />
    </g>
    <g
       aria-label="RST"
       id="text94"
       style="font-weight:bold;font-size:2.82222px;line-height:1.25;font-family:Tahoma;-inkscape-font-specification:'Tahoma, Bold';display:inline;fill:#ffeeaa;stroke-width:0.264583">
      <path
         d="M 4.3014095,188.57681 H 3.6730246 L 3.1011392,187.8244 h -0.184657 v 0.75241 H 2.4038524 v -2.05189 h 0.8254442 q 0.1708766,0 0.2976561,0.022 0.1267794,0.0207 0.2342663,0.0882 0.1102429,0.0703 0.1750107,0.17914 0.064768,0.10749 0.064768,0.27423 0,0.23565 -0.1061088,0.3831 -0.1061089,0.14607 -0.2838757,0.23289 z M 3.4718312,187.1533 q 0,-0.0772 -0.030317,-0.13229 -0.028939,-0.0565 -0.097841,-0.0868 -0.048231,-0.0207 -0.1074869,-0.0262 -0.059256,-0.006 -0.14745,-0.006 H 2.9164822 v 0.55259 h 0.14745 q 0.1074869,0 0.1819009,-0.0124 0.075792,-0.0138 0.1281574,-0.0565 0.049609,-0.0386 0.073036,-0.0923 0.024805,-0.0537 0.024805,-0.14056 z"
         style="font-size:2.82222px;fill:#ffeeaa;stroke-width:0.264583"
         id="path160" />
      <path
         d="m 5.0882687,188.61402 q -0.2356444,0 -0.4147892,-0.0455 -0.1777668,-0.0455 -0.3307289,-0.11299 v -0.48783 h 0.046853 q 0.1543401,0.13091 0.3403751,0.20119 0.1860351,0.0703 0.3610458,0.0703 0.044097,0 0.1157551,-0.01 0.073036,-0.01 0.1171331,-0.0303 0.053743,-0.0234 0.09095,-0.0648 0.037207,-0.0427 0.037207,-0.11162 0,-0.0772 -0.060634,-0.1254 -0.060634,-0.0482 -0.1446939,-0.0703 -0.1047309,-0.0276 -0.2246201,-0.0524 -0.1185112,-0.0248 -0.221864,-0.0606 -0.2384004,-0.0841 -0.3417532,-0.226 -0.1033528,-0.14193 -0.1033528,-0.35553 0,-0.28801 0.2439126,-0.46578 0.2439126,-0.17914 0.6090924,-0.17914 0.183279,0 0.3638018,0.0372 0.1819009,0.0372 0.3252168,0.10059 v 0.46853 h -0.045475 q -0.1143771,-0.0978 -0.2797416,-0.16536 -0.1639864,-0.0675 -0.3376191,-0.0675 -0.067524,0 -0.1212672,0.01 -0.053744,0.01 -0.1129991,0.0372 -0.048231,0.0221 -0.08406,0.0662 -0.034451,0.0427 -0.034451,0.0965 0,0.0786 0.055122,0.1254 0.056499,0.0455 0.2163518,0.0827 0.1033528,0.0234 0.1984374,0.0455 0.096463,0.022 0.2053275,0.0606 0.2135958,0.0772 0.3169486,0.20808 0.1047308,0.12954 0.1047308,0.34314 0,0.30592 -0.2411565,0.49195 -0.2397785,0.18604 -0.6490555,0.18604 z"
         style="font-size:2.82222px;fill:#ffeeaa;stroke-width:0.264583"
         id="path162" />
      <path
         d="m 6.6344263,188.57681 v -1.66053 H 6.02809 v -0.39136 h 1.7280586 v 0.39136 H 7.1498122 v 1.66053 z"
         style="font-size:2.82222px;fill:#ffeeaa;stroke-width:0.264583"
         id="path164" />
    </g>
    <g
       aria-label="CLK"
       id="text98"
       style="font-weight:bold;font-size:2.82222px;line-height:1.25;font-family:Tahoma;-inkscape-font-specification:'Tahoma, Bold';display:inline;fill:#ffeeaa;stroke-width:0.264583">
      <path
         d="m 13.53537,188.61678 q -0.461642,0 -0.733115,-0.27837 -0.271474,-0.27974 -0.271474,-0.78548 0,-0.48782 0.271474,-0.77721 0.272851,-0.29077 0.734493,-0.29077 0.122646,0 0.220486,0.0138 0.09784,0.0138 0.187413,0.0386 0.07028,0.0207 0.152962,0.0565 0.08268,0.0358 0.13367,0.062 v 0.4892 h -0.05236 q -0.03721,-0.0331 -0.09371,-0.0785 -0.0565,-0.0469 -0.128157,-0.091 -0.07166,-0.0441 -0.158475,-0.0744 -0.08544,-0.0317 -0.179144,-0.0317 -0.111621,0 -0.205328,0.0358 -0.09233,0.0344 -0.176389,0.12127 -0.07717,0.0786 -0.126779,0.21222 -0.04823,0.13367 -0.04823,0.31557 0,0.19155 0.05099,0.32246 0.05099,0.12954 0.13367,0.20946 0.07993,0.0772 0.177766,0.11162 0.09922,0.0345 0.19706,0.0345 0.101974,0 0.194303,-0.0331 0.09233,-0.0344 0.155718,-0.0758 0.0689,-0.0427 0.121267,-0.0868 0.05237,-0.0441 0.09095,-0.0786 h 0.04685 v 0.48232 q -0.0565,0.0262 -0.130913,0.0606 -0.07441,0.0331 -0.152963,0.0565 -0.09646,0.0289 -0.180522,0.0441 -0.08406,0.0152 -0.231511,0.0152 z"
         style="font-size:2.82222px;fill:#ffeeaa;stroke-width:0.264583"
         id="path153" />
      <path
         d="m 15.905594,188.57681 h -1.369769 v -2.05189 h 0.515386 v 1.66053 h 0.854383 z"
         style="font-size:2.82222px;fill:#ffeeaa;stroke-width:0.264583"
         id="path155" />
      <path
         d="M 17.949223,188.57681 H 17.32635 l -0.559483,-0.83371 -0.100596,0.14056 v 0.69315 h -0.515386 v -2.05189 h 0.515386 v 0.91088 l 0.655945,-0.91088 h 0.59669 l -0.731737,0.95222 z"
         style="font-size:2.82222px;fill:#ffeeaa;stroke-width:0.264583"
         id="path157" />
    </g>
    <g
       style="font-weight:bold;font-size:4.23333px;line-height:1.25;font-family:Tahoma;-inkscape-font-specification:'Tahoma, Bold';stroke-width:0.264583"
       id="text79"
       aria-label="LENGTH">
      <path
         id="path76"
         style="font-size:2.82222px;fill:#ffeeaa;stroke-width:0.264583"
         d="m 5.6006892,202.4538 h -1.369769 v -2.0519 h 0.5153859 v 1.66053 h 0.8543831 z" />
      <path
         id="path78"
         style="font-size:2.82222px;fill:#ffeeaa;stroke-width:0.264583"
         d="m 5.8459797,202.4538 v -2.0519 h 1.3876834 v 0.39136 H 6.3586095 v 0.35967 h 0.8061518 v 0.39136 H 6.3586095 v 0.51814 h 0.8750536 v 0.39137 z" />
      <path
         id="path80"
         style="font-size:2.82222px;fill:#ffeeaa;stroke-width:0.264583"
         d="M 9.3406819,202.4538 H 8.8445886 l -0.7909934,-1.43041 v 1.43041 H 7.5823065 v -2.0519 h 0.6325191 l 0.6545676,1.17546 v -1.17546 h 0.4712887 z" />
      <path
         id="path82"
         style="font-size:2.82222px;fill:#ffeeaa;stroke-width:0.264583"
         d="m 11.473884,202.33666 q -0.135048,0.0551 -0.3514,0.10749 -0.214974,0.0524 -0.424435,0.0524 -0.483691,0 -0.7717012,-0.27837 -0.2866317,-0.27974 -0.2866317,-0.79237 0,-0.48231 0.2866317,-0.77308 0.2880102,-0.29076 0.7868592,-0.29076 0.257693,0 0.418923,0.0496 0.161231,0.0482 0.333485,0.13229 v 0.48093 h -0.04685 q -0.03721,-0.0289 -0.107487,-0.0813 -0.0689,-0.0537 -0.135047,-0.0909 -0.07717,-0.0441 -0.179145,-0.0758 -0.100597,-0.0317 -0.213596,-0.0317 -0.132292,0 -0.241157,0.0413 -0.108865,0.0413 -0.194303,0.12678 -0.0813,0.0827 -0.129535,0.20946 -0.04685,0.12678 -0.04685,0.2949 0,0.35967 0.180523,0.53055 0.180523,0.17087 0.493338,0.17087 0.02756,0 0.06477,-0.001 0.03721,-0.001 0.06477,-0.004 v -0.40239 h -0.398253 v -0.38447 h 0.897103 z" />
      <path
         id="path84"
         style="font-size:2.82222px;fill:#ffeeaa;stroke-width:0.264583"
         d="m 12.259365,202.4538 v -1.66054 h -0.606337 v -0.39136 h 1.728059 v 0.39136 h -0.606336 v 1.66054 z" />
      <path
         id="path86"
         style="font-size:2.82222px;fill:#ffeeaa;stroke-width:0.264583"
         d="m 15.328254,202.4538 h -0.515386 v -0.90951 h -0.701421 v 0.90951 h -0.515386 v -2.0519 h 0.515386 v 0.75103 h 0.701421 v -0.75103 h 0.515386 z" />
    </g>
  </g>
  <g
     inkscape:groupmode="layer"
     id="layer2"
     inkscape:label="components"
     style="display:inline">
    <circle
       style="display:inline;opacity:1;vector-effect:none;fill:#0000ff;fill-opacity:1;fill-rule:evenodd;stroke:none;stroke-width:1;stroke-linecap:butt;stroke-linejoin:miter;stroke-miterlimit:4;stroke-dasharray:none;stroke-dashoffset:0;stroke-opacity:1;paint-order:normal"
       id="circle11"
       cx="10.160002"
       cy="50.588318"
       r="4"
       inkscape:label="polyout" />
    <circle
       inkscape:label="monoin1"
       style="display:inline;opacity:1;vector-effect:none;fill:#ff0000;fill-opacity:1;fill-rule:evenodd;stroke:none;stroke-width:1;stroke-linecap:butt;stroke-linejoin:miter;stroke-miterlimit:4;stroke-dasharray:none;stroke-dashoffset:0;stroke-opacity:1;paint-order:normal"
       id="circle1"
       cx="10.160002"
       cy="66.040009"
       r="4" />
    <circle
       inkscape:label="monoin4"
       style="display:inline;opacity:1;vector-effect:none;fill:#00ff00;fill-opacity:1;fill-rule:evenodd;stroke:none;stroke-width:1;stroke-linecap:butt;stroke-linejoin:miter;stroke-miterlimit:4;stroke-dasharray:none;stroke-dashoffset:0;stroke-opacity:1;paint-order:normal"
       id="circle4"
       cx="10.160002"
       cy="106.68001"
       r="4" />
    <circle
       inkscape:label="monoin5"
       style="display:inline;opacity:1;vector-effect:none;fill:#ff0000;fill-opacity:1;fill-rule:evenodd;stroke:none;stroke-width:1;stroke-linecap:butt;stroke-linejoin:miter;stroke-miterlimit:4;stroke-dasharray:none;stroke-dashoffset:0;stroke-opacity:1;paint-order:normal"
       id="circle5"
       cx="10.160002"
       cy="86.360008"
       r="4" />
    <circle
       inkscape:label="monoin6"
       style="display:inline;opacity:1;vector-effect:none;fill:#00ff00;fill-opacity:1;fill-rule:evenodd;stroke:none;stroke-width:1;stroke-linecap:butt;stroke-linejoin:miter;stroke-miterlimit:4;stroke-dasharray:none;stroke-dashoffset:0;stroke-opacity:1;paint-order:normal"
       id="circle6"
       cx="10.160002"
       cy="116.83996"
       r="4" />
    <circle
       inkscape:label="rst"
       style="display:inline;opacity:1;vector-effect:none;fill:#00ff00;fill-opacity:1;fill-rule:evenodd;stroke:none;stroke-width:1;stroke-linecap:butt;stroke-linejoin:miter;stroke-miterlimit:4;stroke-dasharray:none;stroke-dashoffset:0;stroke-opacity:1;paint-order:normal"
       id="rst"
       cx="5.0800009"
       cy="25.400003"
       r="4" />
    <circle
       inkscape:label="clk"
       style="display:inline;opacity:1;vector-effect:none;fill:#00ff00;fill-opacity:1;fill-rule:evenodd;stroke:none;stroke-width:1;stroke-linecap:butt;stroke-linejoin:miter;stroke-miterlimit:4;stroke-dasharray:none;stroke-dashoffset:0;stroke-opacity:1;paint-order:normal"
       id="clk"
       cx="15.240003"
       cy="25.400003"
       r="4" />
    <ellipse
       ry="4.0000014"
       rx="4"
       inkscape:label="monoin3"
       style="display:inline;opacity:1;vector-effect:none;fill:#ff0000;fill-opacity:1;fill-rule:evenodd;stroke:none;stroke-width:1;stroke-linecap:butt;stroke-linejoin:miter;stroke-miterlimit:4;stroke-dasharray:none;stroke-dashoffset:0;stroke-opacity:1;paint-order:normal"
       id="circle3"
       cx="10.160002"
       cy="76.200012" />
    <circle
       inkscape:label="monoin2"
       style="display:inline;opacity:1;vector-effect:none;fill:#00ff00;fill-opacity:1;fill-rule:evenodd;stroke:none;stroke-width:1;stroke-linecap:butt;stroke-linejoin:miter;stroke-miterlimit:4;stroke-dasharray:none;stroke-dashoffset:0;stroke-opacity:1;paint-order:normal"
       id="circle2"
       cx="10.160002"
       cy="96.520012"
       r="4" />
    <circle
       id="path30"
       style="fill:#000000;stroke:#000000;stroke-width:0.264583"
       cx="-43.920834"
       cy="-48.154167"
       r="0.035242248" />
    <circle
       id="path32"
       style="fill:#000000;stroke:#000000;stroke-width:0.264583"
       cx="-32.279167"
       cy="-2.5135417"
       r="0.0088105621" />
    <circle
       id="path34"
       style="fill:#000000;stroke:#000000;stroke-width:0.264583"
       cx="-17.991667"
       cy="0.1984375"
       r="0.0088105621" />
    <circle
       id="path36"
       style="fill:#000000;stroke:#000000;stroke-width:0.264583"
       cx="-25.069271"
       cy="2.9104166"
       r="0.0088105621" />
    <text
       xml:space="preserve"
       style="font-size:10.5833px;line-height:1.25;font-family:'Eras Bold ITC';-inkscape-font-specification:'Eras Bold ITC';stroke-width:0.264583"
       x="-38.695312"
       y="11.90625"
       id="text42"><tspan
         sodipodi:role="line"
         id="tspan40"
         x="-38.695312"
         y="11.90625"
         style="font-style:normal;font-variant:normal;font-weight:bold;font-stretch:normal;font-size:3.52778px;font-family:Garamond;-inkscape-font-specification:'Garamond Bold';stroke-width:0.264583" /></text>
    <text
       xml:space="preserve"
       style="font-size:10.5833px;line-height:1.25;font-family:'Eras Bold ITC';-inkscape-font-specification:'Eras Bold ITC';stroke-width:0.264583"
       x="-45.111458"
       y="16.668749"
       id="text78"><tspan
         sodipodi:role="line"
         id="tspan76"
         x="-45.111458"
         y="16.668749"
         style="stroke-width:0.264583" /></text>
  </g>
</svg>
