<?xml version="1.0" encoding="UTF-8" standalone="no"?>
<svg
   xmlns:dc="http://purl.org/dc/elements/1.1/"
   xmlns:cc="http://creativecommons.org/ns#"
   xmlns:rdf="http://www.w3.org/1999/02/22-rdf-syntax-ns#"
   xmlns:svg="http://www.w3.org/2000/svg"
   xmlns="http://www.w3.org/2000/svg"
   xmlns:sodipodi="http://sodipodi.sourceforge.net/DTD/sodipodi-0.dtd"
   xmlns:inkscape="http://www.inkscape.org/namespaces/inkscape"
   sodipodi:docname="FromTo.svg"
   inkscape:version="1.0 (4035a4fb49, 2020-05-01)"
   id="svg8"
   version="1.1"
   viewBox="0 0 10.160001 128.50002"
   height="128.5mm"
   width="10.16mm">
  <defs
     id="defs2">
    <inkscape:path-effect
       effect="fillet_chamfer"
       id="path-effect81"
       is_visible="true"
       lpeversion="1"
       satellites_param="F,0,0,1,0,0,0,1 @ F,0,0,1,0,0,0,1 @ F,0,0,1,0,0,0,1 @ F,0,0,1,0,0,0,1"
       unit="mm"
       method="auto"
       mode="F"
       radius="0"
       chamfer_steps="1"
       flexible="false"
       use_knot_distance="true"
       apply_no_radius="true"
       apply_with_radius="true"
       only_selected="false"
       hide_knots="false" />
    <inkscape:path-effect
       hide_knots="false"
       only_selected="false"
       apply_with_radius="true"
       apply_no_radius="true"
       use_knot_distance="true"
       flexible="false"
       chamfer_steps="1"
       radius="0"
       mode="F"
       method="auto"
       unit="mm"
       satellites_param="F,0,0,1,0,0,0,1 @ F,0,0,1,0,0,0,1 @ F,0,0,1,0,0,0,1 @ F,0,0,1,0,0,0,1"
       lpeversion="1"
       is_visible="true"
       id="path-effect77"
       effect="fillet_chamfer" />
  </defs>
  <sodipodi:namedview
     inkscape:snap-others="true"
     guidetolerance="10000"
     gridtolerance="10000"
     objecttolerance="10000"
     inkscape:lockguides="false"
     inkscape:document-rotation="0"
     inkscape:snap-nodes="false"
     inkscape:snap-bbox-midpoints="true"
     inkscape:window-maximized="1"
     inkscape:window-y="0"
     inkscape:window-x="114"
     inkscape:window-height="1024"
     inkscape:window-width="1624"
     inkscape:snap-bbox-edge-midpoints="false"
     inkscape:bbox-nodes="false"
     inkscape:snap-page="true"
     inkscape:snap-bbox="true"
     units="mm"
     showgrid="true"
     inkscape:current-layer="layer1"
     inkscape:document-units="mm"
     inkscape:cy="253.69677"
     inkscape:cx="37.217938"
     inkscape:zoom="6.7816772"
     inkscape:pageshadow="2"
     inkscape:pageopacity="0.0"
     borderopacity="1.0"
     bordercolor="#666666"
     pagecolor="#ffffff"
     id="base">
    <inkscape:grid
       empspacing="4"
       empopacity="0.25098039"
       empcolor="#71530f"
       spacingy="2.5400004"
       spacingx="2.5400004"
       opacity="0.53333333"
       color="#ffd984"
       units="mm"
       id="grid86"
       type="xygrid" />
  </sodipodi:namedview>
  <metadata
     id="metadata5">
    <rdf:RDF>
      <cc:Work
         rdf:about="">
        <dc:format>image/svg+xml</dc:format>
        <dc:type
           rdf:resource="http://purl.org/dc/dcmitype/StillImage" />
        <dc:title />
        <dc:creator>
          <cc:Agent>
            <dc:title>Firo Lightfog</dc:title>
          </cc:Agent>
        </dc:creator>
      </cc:Work>
    </rdf:RDF>
  </metadata>
  <g
     transform="translate(0,-168.49998)"
     id="layer1"
     inkscape:groupmode="layer"
     inkscape:label="Layer 1"
     style="display:inline">
    <g
       style="font-weight:bold;font-size:3.52778px;line-height:1.25;font-family:Tahoma;-inkscape-font-specification:'Tahoma, Bold';letter-spacing:0px;fill:#ffeeaa;stroke-width:0.264583"
       id="text53"
       aria-label="RV10">
      <path
         id="path55"
         style="font-size:3.52778px;fill:#ffeeaa;stroke-width:0.264583"
         d="M 2.93198,294.24158 H 2.1464977 L 1.4316399,293.30107 H 1.2008184 v 0.94051 H 0.56003022 V 291.6767 H 1.591837 q 0.213596,0 0.3720705,0.0276 0.1584745,0.0258 0.2928333,0.11025 0.1378039,0.0879 0.2187637,0.22393 0.08096,0.13436 0.08096,0.34278 0,0.29456 -0.1326362,0.47887 -0.1326363,0.18259 -0.3548451,0.29111 z m -1.0369744,-1.7794 q 0,-0.0965 -0.037896,-0.16536 -0.036173,-0.0706 -0.122301,-0.10852 -0.060289,-0.0258 -0.1343588,-0.0327 -0.07407,-0.007 -0.1843127,-0.007 H 1.2008184 v 0.69074 h 0.1843127 q 0.1343588,0 0.2273765,-0.0155 0.09474,-0.0172 0.160197,-0.0706 0.062012,-0.0482 0.091295,-0.11541 0.031006,-0.0672 0.031006,-0.1757 z" />
      <path
         id="path57"
         style="font-size:3.52778px;fill:#ffeeaa;stroke-width:0.264583"
         d="m 5.2660338,291.6767 -0.881945,2.56488 H 3.7122947 l -0.881945,-2.56488 h 0.668349 l 0.5581058,1.73805 0.5581058,-1.73805 z" />
      <path
         id="path59"
         style="font-size:3.52778px;fill:#ffeeaa;stroke-width:0.264583"
         d="M 7.2728035,294.24158 H 5.5778154 v -0.44787 h 0.5408804 v -1.35564 H 5.5778154 v -0.41858 q 0.1188559,0 0.2359892,-0.0155 0.1171334,-0.0155 0.1877579,-0.05 0.082682,-0.0413 0.1274686,-0.11024 0.046509,-0.0706 0.053399,-0.17398 H 6.743981 v 2.1239 h 0.5288225 z" />
      <path
         id="path61"
         style="font-size:3.52778px;fill:#ffeeaa;stroke-width:0.264583"
         d="m 9.5999667,292.95828 q 0,0.33245 -0.053399,0.58222 -0.053399,0.24977 -0.1705323,0.41686 -0.1171333,0.16708 -0.3048912,0.25321 -0.1877578,0.0844 -0.4599205,0.0844 -0.2704402,0 -0.458198,-0.0844 -0.1877578,-0.0861 -0.3066137,-0.25666 -0.1171333,-0.16881 -0.1705323,-0.41513 -0.053399,-0.24805 -0.053399,-0.57878 0,-0.34106 0.051677,-0.58222 0.053399,-0.24116 0.1757,-0.41513 0.1205784,-0.17054 0.3100588,-0.25322 0.1894804,-0.0844 0.4513078,-0.0844 0.2773304,0 0.4616431,0.0879 0.1860353,0.0861 0.3048911,0.25838 0.1171334,0.16881 0.1688098,0.41685 0.053399,0.24805 0.053399,0.57017 z m -0.6459558,0 q 0,-0.47543 -0.079237,-0.66663 -0.077515,-0.19292 -0.26355,-0.19292 -0.1843127,0 -0.26355,0.19292 -0.079237,0.1912 -0.079237,0.67007 0,0.46854 0.079237,0.66491 0.079237,0.19465 0.26355,0.19465 0.1843127,0 0.26355,-0.19465 0.079237,-0.19637 0.079237,-0.66835 z" />
    </g>
    <rect
       y="167.74997"
       x="-0.071813658"
       height="129.26068"
       width="10.303629"
       id="rect420"
       style="display:inline;opacity:1;vector-effect:none;fill:#cccccc;fill-opacity:1;fill-rule:evenodd;stroke:none;stroke-width:0.378664;stroke-linecap:butt;stroke-linejoin:miter;stroke-miterlimit:4;stroke-dasharray:none;stroke-dashoffset:0;stroke-opacity:1;paint-order:normal" />
    <text
       id="text59"
       y="277.43234"
       x="1.1693041"
       style="font-size:10.5833px;line-height:1.25;font-family:'Eras Bold ITC';-inkscape-font-specification:'Eras Bold ITC';stroke-width:0.264583"
       xml:space="preserve"><tspan
         style="font-size:2.82222px;fill:#ffff00;stroke-width:0.264583"
         y="277.43234"
         x="1.1693041"
         id="tspan57"
         sodipodi:role="line" /></text>
    <g
       aria-label="b"
       transform="translate(0,168.49998)"
       id="text51"
       style="font-weight:bold;font-size:6.08438px;line-height:1.25;font-family:'Wingdings 2';-inkscape-font-specification:'Wingdings 2 Bold';display:inline;fill:#000000;stroke-width:0.142602">
      <path
         d="M 2.1105974,0.92680782 V 1.2209258 q 0.1693407,0 0.2554965,0.086156 0.089127,0.086156 0.1693406,0.3297686 l 0.047534,0.1485445 Q 2.7433967,2.2785622 3.1088161,2.4330484 2.7701347,2.498408 2.5681143,2.712312 2.3690648,2.9232451 2.3690648,3.2143922 q 0,0.4070117 0.3060015,0.6743917 0.3060015,0.2644091 0.775402,0.2644091 0.7130133,0 1.1021997,-0.6120031 L 4.3239095,3.3480821 Q 4.071384,3.618433 3.804004,3.618433 3.5841583,3.618433 3.4267011,3.4758304 3.269244,3.3302568 3.269244,3.1312073 q 0,-0.1663698 0.1218065,-0.2881762 0.1247773,-0.1218065 0.2911471,-0.1218065 0.3000597,0 0.8407615,0.4248371 l 0.1812242,0.1426027 q 0.882354,0.6951879 1.6844939,0.6951879 0.695188,0 1.176472,-0.4575168 Q 8.049404,3.0688186 8.049404,2.4122522 8.049404,1.7467731 7.5502947,1.3367905 7.0511854,0.92680782 6.2401328,0.92680782 H 6.1420935 V 1.2209258 q 0.4812839,0.03268 0.7635184,0.3357104 0.2822344,0.3000598 0.2822344,0.7813438 0,0.4753422 -0.3565066,0.8140235 -0.3565067,0.3357104 -0.8615578,0.3357104 -0.4872257,0 -0.8674995,-0.2970889 -0.3802738,-0.2970888 -0.3802738,-0.6773626 0,-0.1812242 0.1158647,-0.3060015 0.1188356,-0.1247774 0.2911471,-0.1247774 0.1723115,0 0.2584673,0.095068 0.089127,0.092097 0.089127,0.2822344 0,0.1158647 -0.06536,0.2733218 l 0.26738,0.1218064 Q 5.856888,2.4330479 5.856888,2.1478426 5.856888,1.7972777 5.6281296,1.5477231 5.4023422,1.295198 5.0814862,1.295198 q -0.2049913,0 -0.374332,0.1010102 Q 4.5378135,1.4972185 4.4041235,1.7022098 4.231812,1.2714309 3.85748,1.0991194 3.4861189,0.92680782 2.7285423,0.92680782 Z M 4.2496373,2.3766015 Q 3.8129167,2.2934166 3.4504683,1.6487338 L 3.3999632,1.562578 Q 3.242506,1.2833145 3.0196894,1.1971587 q 1.1348795,0 1.2299479,1.1794428 z"
         style="font-size:6.08438px;fill:#000000;stroke-width:0.142602"
         id="path49" />
    </g>
    <path
       style="display:inline;fill:#de8787;stroke-width:0.329516"
       d="M -0.17291835,221.91838 H 10.150427 L 10.33292,247.1616 H 0.00957408 Z"
       id="rect48-1-6" />
    <g
       style="font-weight:bold;font-size:3.52778px;line-height:1.25;font-family:Tahoma;-inkscape-font-specification:'Tahoma, Bold';letter-spacing:0px;fill:#000000;stroke-width:0.264583"
       id="text85"
       aria-label="RV10">
      <g
         style="font-weight:bold;font-size:3.52778px;line-height:1.25;font-family:Tahoma;-inkscape-font-specification:'Tahoma, Bold';letter-spacing:0px;stroke-width:0.0700042"
         id="text100"
         aria-label="FRTO">
        <path
           id="path131"
           style="font-size:3.52778px;stroke-width:0.0700042"
           d="m 2.2395212,292.16676 h -1.076593 v 0.48404 H 2.1533938 V 293.14 H 1.1629282 v 1.10243 H 0.52213999 v -2.56487 H 2.2395212 Z" />
        <path
           id="path133"
           style="font-size:3.52778px;stroke-width:0.0700042"
           d="M 4.947368,294.24243 H 4.1618857 L 3.4470279,293.30192 H 3.2162064 v 0.94051 H 2.5754182 v -2.56487 H 3.607225 q 0.213596,0 0.3720705,0.0276 0.1584745,0.0258 0.2928333,0.11024 0.1378039,0.0879 0.2187637,0.22393 0.08096,0.13436 0.08096,0.34279 0,0.29455 -0.1326362,0.47887 -0.1326363,0.18259 -0.3548451,0.29111 z m -1.0369744,-1.77939 q 0,-0.0965 -0.037896,-0.16537 -0.036174,-0.0706 -0.122301,-0.10852 -0.060289,-0.0258 -0.1343588,-0.0327 -0.07407,-0.007 -0.1843127,-0.007 H 3.2162064 v 0.69075 h 0.1843127 q 0.1343588,0 0.2273765,-0.0155 0.09474,-0.0172 0.160197,-0.0706 0.062012,-0.0482 0.091295,-0.11541 0.031006,-0.0672 0.031006,-0.1757 z" />
        <path
           id="path135"
           style="font-size:3.52778px;stroke-width:0.0700042"
           d="m 5.6312202,294.24243 v -2.07567 H 4.8732987 v -0.4892 H 7.033375 v 0.4892 H 6.2754535 v 2.07567 z" />
        <path
           id="path137"
           style="font-size:3.52778px;stroke-width:0.0700042"
           d="m 9.6378683,292.96086 q 0,0.62184 -0.3324519,0.9784 -0.332452,0.35657 -0.9112284,0.35657 -0.5804989,0 -0.9112283,-0.36001 -0.3307294,-0.36174 -0.3307294,-0.97496 0,-0.6184 0.3307294,-0.97669 0.3307294,-0.36001 0.9112283,-0.36001 0.5787764,0 0.9112284,0.35829 0.3324519,0.35657 0.3324519,0.97841 z m -0.6649039,-0.002 q 0,-0.2291 -0.048231,-0.38929 -0.046509,-0.16192 -0.1257461,-0.26528 -0.082682,-0.10507 -0.1877578,-0.14986 -0.103353,-0.0465 -0.2153186,-0.0465 -0.1188559,0 -0.2153186,0.0431 -0.096463,0.0413 -0.1860353,0.14986 -0.079237,0.0999 -0.1291912,0.26527 -0.048231,0.16537 -0.048231,0.39447 0,0.23598 0.046509,0.39274 0.046509,0.15503 0.1274686,0.2601 0.082682,0.1068 0.1877578,0.15331 0.1050755,0.0448 0.2170412,0.0448 0.1136882,0 0.2204862,-0.0482 0.106798,-0.0499 0.1843127,-0.1533 0.082682,-0.11197 0.1274687,-0.26011 0.044786,-0.14986 0.044786,-0.39102 z" />
      </g>
    </g>
    <g
       aria-label="FROM"
       id="text82"
       style="font-weight:bold;font-size:2.82222px;line-height:1.25;font-family:Tahoma;-inkscape-font-specification:'Tahoma, Bold';letter-spacing:0px;stroke-width:0.264583">
      <path
         d="M 2.4734429,175.4854 H 1.6121697 v 0.38723 h 0.7923714 v 0.39136 H 1.6121697 v 0.88195 H 1.0995399 v -2.0519 h 1.373903 z"
         style="font-size:2.82222px;stroke-width:0.264583"
         id="path159" />
      <path
         d="M 4.6397174,177.14594 H 4.0113325 L 3.439447,176.39353 H 3.2547901 v 0.75241 H 2.7421602 v -2.0519 h 0.8254443 q 0.1708766,0 0.297656,0.0221 0.1267794,0.0207 0.2342663,0.0882 0.110243,0.0703 0.1750107,0.17915 0.064768,0.10748 0.064768,0.27422 0,0.23565 -0.1061089,0.3831 -0.1061088,0.14607 -0.2838756,0.23289 z M 3.810139,175.72242 q 0,-0.0772 -0.030317,-0.13229 -0.028939,-0.0565 -0.097841,-0.0868 -0.048231,-0.0207 -0.1074869,-0.0262 -0.059256,-0.006 -0.14745,-0.006 H 3.2547901 v 0.55259 H 3.40224 q 0.1074869,0 0.1819009,-0.0124 0.075792,-0.0138 0.1281575,-0.0565 0.049609,-0.0386 0.073036,-0.0923 0.024805,-0.0537 0.024805,-0.14056 z"
         style="font-size:2.82222px;stroke-width:0.264583"
         id="path161" />
      <path
         d="m 6.6612978,176.12068 q 0,0.49747 -0.2659611,0.78272 -0.2659612,0.28525 -0.7289817,0.28525 -0.4643985,0 -0.7289816,-0.28801 -0.2645832,-0.28938 -0.2645832,-0.77996 0,-0.49472 0.2645832,-0.78135 0.2645831,-0.28801 0.7289816,-0.28801 0.4630205,0 0.7289817,0.28663 0.2659611,0.28525 0.2659611,0.78273 z m -0.5319223,-0.001 q 0,-0.18328 -0.038585,-0.31144 -0.037207,-0.12953 -0.1005968,-0.21222 -0.066146,-0.0841 -0.150206,-0.11989 -0.082682,-0.0372 -0.1722546,-0.0372 -0.095085,0 -0.1722547,0.0345 -0.07717,0.0331 -0.148828,0.11989 -0.06339,0.0799 -0.1033528,0.21221 -0.038585,0.1323 -0.038585,0.31558 0,0.18879 0.037207,0.31419 0.037207,0.12402 0.1019747,0.20808 0.066146,0.0854 0.1502061,0.12265 0.08406,0.0358 0.1736327,0.0358 0.09095,0 0.1763887,-0.0386 0.085438,-0.04 0.14745,-0.12264 0.066146,-0.0896 0.1019747,-0.20809 0.035829,-0.11989 0.035829,-0.31281 z"
         style="font-size:2.82222px;stroke-width:0.264583"
         id="path163" />
      <path
         d="M 9.0604608,177.14594 H 8.5478309 v -1.36013 l -0.373448,0.87781 H 7.8229834 l -0.3734481,-0.87781 v 1.36013 H 6.9644662 v -2.0519 h 0.5939341 l 0.4547522,1.01286 0.4533742,-1.01286 h 0.5939341 z"
         style="font-size:2.82222px;stroke-width:0.264583"
         id="path165" />
    </g>
    <g
       aria-label="TO"
       id="text86"
       style="font-weight:bold;font-size:2.82222px;line-height:1.25;font-family:Tahoma;-inkscape-font-specification:'Tahoma, Bold';letter-spacing:0px;stroke-width:0.264583">
      <path
         d="m 3.7805104,192.38594 v -1.66053 H 3.1741741 v -0.39137 h 1.7280586 v 0.39137 H 4.2958963 v 1.66053 z"
         style="font-size:2.82222px;stroke-width:0.264583"
         id="path168" />
      <path
         d="m 6.9858249,191.36068 q 0,0.49747 -0.2659612,0.78273 -0.2659612,0.28525 -0.7289817,0.28525 -0.4643985,0 -0.7289816,-0.28801 -0.2645831,-0.28939 -0.2645831,-0.77997 0,-0.49471 0.2645831,-0.78135 0.2645831,-0.28801 0.7289816,-0.28801 0.4630205,0 0.7289817,0.28664 0.2659612,0.28525 0.2659612,0.78272 z m -0.5319224,-0.001 q 0,-0.18328 -0.038585,-0.31143 -0.037207,-0.12954 -0.1005967,-0.21222 -0.066146,-0.0841 -0.1502061,-0.11989 -0.082682,-0.0372 -0.1722546,-0.0372 -0.095085,0 -0.1722547,0.0344 -0.07717,0.0331 -0.148828,0.11989 -0.06339,0.0799 -0.1033528,0.21222 -0.038585,0.13229 -0.038585,0.31557 0,0.18879 0.037207,0.31419 0.037207,0.12403 0.1019747,0.20809 0.066146,0.0854 0.1502061,0.12264 0.08406,0.0358 0.1736327,0.0358 0.09095,0 0.1763887,-0.0386 0.085438,-0.04 0.14745,-0.12265 0.066146,-0.0896 0.1019748,-0.20808 0.035829,-0.11989 0.035829,-0.31282 z"
         style="font-size:2.82222px;stroke-width:0.264583"
         id="path170" />
    </g>
    <g
       aria-label="DIV"
       id="text90"
       style="font-weight:bold;font-size:2.82222px;line-height:1.25;font-family:Tahoma;-inkscape-font-specification:'Tahoma, Bold';letter-spacing:0px;stroke-width:0.264583">
      <path
         d="m 4.3027879,206.60205 q 0,0.28663 -0.1254014,0.51401 -0.1254013,0.226 -0.3169485,0.34726 -0.1598523,0.10336 -0.3486434,0.13367 -0.1874131,0.0289 -0.3996308,0.0289 H 2.4699985 v -2.0519 h 0.6366532 q 0.2163518,0 0.4051429,0.0276 0.1887911,0.0276 0.3541555,0.13367 0.2025715,0.12954 0.3197047,0.35003 0.1171331,0.2191 0.1171331,0.51676 z m -0.5291662,-0.004 q 0,-0.20258 -0.07028,-0.34589 -0.068902,-0.1447 -0.2135958,-0.226 -0.1047308,-0.0579 -0.2204859,-0.0634 -0.1143771,-0.006 -0.2742294,-0.006 h -0.00965 v 1.28433 h 0.00965 q 0.1736326,0 0.2921438,-0.006 0.1198893,-0.007 0.2273762,-0.0744 0.1267794,-0.0799 0.1929252,-0.22048 0.066146,-0.14056 0.066146,-0.34313 z"
         style="font-size:2.82222px;stroke-width:0.264583"
         id="path173" />
      <path
         d="M 5.6312157,207.62593 H 4.5260299 v -0.35829 h 0.2948999 v -1.33532 H 4.5260299 v -0.35829 h 1.1051858 v 0.35829 h -0.2949 v 1.33532 h 0.2949 z"
         style="font-size:2.82222px;stroke-width:0.264583"
         id="path175" />
      <path
         d="m 7.6900031,205.57403 -0.7055551,2.0519 H 6.4470136 l -0.7055551,-2.0519 h 0.5346784 l 0.4464841,1.39044 0.446484,-1.39044 z"
         style="font-size:2.82222px;stroke-width:0.264583"
         id="path177" />
    </g>
    <g
       aria-label="OUT"
       id="text94"
       style="font-weight:bold;font-size:2.82222px;line-height:1.25;font-family:Tahoma;-inkscape-font-specification:'Tahoma, Bold';letter-spacing:0px;stroke-width:0.264583">
      <path
         d="m 4.122952,224.38069 q 0,0.49747 -0.2659611,0.78272 -0.2659612,0.28525 -0.7289817,0.28525 -0.4643985,0 -0.7289817,-0.28801 -0.2645831,-0.28938 -0.2645831,-0.77996 0,-0.49472 0.2645831,-0.78135 0.2645832,-0.28801 0.7289817,-0.28801 0.4630205,0 0.7289817,0.28663 0.2659611,0.28525 0.2659611,0.78273 z m -0.5319223,-0.001 q 0,-0.18328 -0.038585,-0.31144 -0.037207,-0.12953 -0.1005967,-0.21222 -0.066146,-0.0841 -0.150206,-0.11989 -0.082682,-0.0372 -0.1722547,-0.0372 -0.095085,0 -0.1722546,0.0345 -0.07717,0.0331 -0.148828,0.11989 -0.06339,0.0799 -0.1033528,0.21221 -0.038585,0.1323 -0.038585,0.31558 0,0.18879 0.037207,0.31419 0.037207,0.12402 0.1019747,0.20808 0.066146,0.0854 0.1502061,0.12265 0.08406,0.0358 0.1736326,0.0358 0.09095,0 0.1763888,-0.0386 0.085438,-0.04 0.14745,-0.12264 0.066146,-0.0896 0.1019747,-0.20809 0.035829,-0.11989 0.035829,-0.31281 z"
         style="font-size:2.82222px;stroke-width:0.264583"
         id="path180" />
      <path
         d="m 5.2556986,225.44866 q -0.4134112,0 -0.6366532,-0.19981 -0.221864,-0.19982 -0.221864,-0.58429 v -1.31051 h 0.5153859 v 1.28019 q 0,0.2136 0.079926,0.31833 0.081304,0.10473 0.2632051,0.10473 0.1777668,0 0.260449,-0.1006 0.08406,-0.10059 0.08406,-0.32246 v -1.28019 h 0.5153859 v 1.30913 q 0,0.37896 -0.2177298,0.58291 -0.2163519,0.20257 -0.6421653,0.20257 z"
         style="font-size:2.82222px;stroke-width:0.264583"
         id="path182" />
      <path
         d="m 6.903831,225.40594 v -1.66053 H 6.2974946 v -0.39136 h 1.7280586 v 0.39136 H 7.4192169 v 1.66053 z"
         style="font-size:2.82222px;stroke-width:0.264583"
         id="path184" />
    </g>
    <g
       aria-label="ALL"
       id="text98"
       style="font-weight:bold;font-size:2.82222px;line-height:1.25;font-family:Tahoma;-inkscape-font-specification:'Tahoma, Bold';letter-spacing:0px;stroke-width:0.264583">
      <path
         d="m 2.5099591,238.10594 0.6931527,-2.0519 H 3.765351 l 0.6931526,2.0519 H 3.9279593 L 3.7998019,237.68702 H 3.1548805 l -0.1281575,0.41892 z m 1.1768437,-0.79099 -0.2094616,-0.67662 -0.2094617,0.67662 z"
         style="font-size:2.82222px;stroke-width:0.264583"
         id="path187" />
      <path
         d="M 6.0349781,238.10594 H 4.6652092 v -2.0519 h 0.5153859 v 1.66054 h 0.854383 z"
         style="font-size:2.82222px;stroke-width:0.264583"
         id="path189" />
      <path
         d="m 7.6500378,238.10594 h -1.369769 v -2.0519 h 0.5153859 v 1.66054 h 0.8543831 z"
         style="font-size:2.82222px;stroke-width:0.264583"
         id="path191" />
    </g>
    <g
       aria-label="CLK"
       id="text102"
       style="font-weight:bold;font-size:2.82222px;line-height:1.25;font-family:Tahoma;-inkscape-font-specification:'Tahoma, Bold';letter-spacing:0px;stroke-width:0.264583">
      <path
         d="m 3.3753664,268.6259 q -0.4616425,0 -0.7331158,-0.27836 -0.2714733,-0.27974 -0.2714733,-0.78548 0,-0.48783 0.2714733,-0.77722 0.2728514,-0.29076 0.7344938,-0.29076 0.1226453,0 0.220486,0.0138 0.097841,0.0138 0.187413,0.0386 0.07028,0.0207 0.1529622,0.0565 0.082682,0.0358 0.1336696,0.062 v 0.48921 h -0.052365 q -0.037207,-0.0331 -0.093707,-0.0786 -0.056499,-0.0469 -0.1281574,-0.0909 -0.071658,-0.0441 -0.1584743,-0.0744 -0.085438,-0.0317 -0.1791448,-0.0317 -0.1116211,0 -0.2053276,0.0358 -0.092328,0.0344 -0.1763887,0.12127 -0.07717,0.0785 -0.1267794,0.21221 -0.048231,0.13367 -0.048231,0.31557 0,0.19155 0.050987,0.32246 0.050987,0.12954 0.1336696,0.20947 0.079926,0.0772 0.1777668,0.11162 0.099219,0.0344 0.1970593,0.0344 0.1019748,0 0.1943033,-0.0331 0.092328,-0.0345 0.1557182,-0.0758 0.068902,-0.0427 0.1212672,-0.0868 0.052365,-0.0441 0.09095,-0.0786 h 0.046853 v 0.48231 q -0.0565,0.0262 -0.1309136,0.0606 -0.074414,0.0331 -0.1529621,0.0565 -0.096463,0.0289 -0.1805229,0.0441 -0.08406,0.0152 -0.2315102,0.0152 z"
         style="font-size:2.82222px;stroke-width:0.264583"
         id="path194" />
      <path
         d="M 5.7455903,268.58594 H 4.3758214 v -2.0519 h 0.5153859 v 1.66053 h 0.854383 z"
         style="font-size:2.82222px;stroke-width:0.264583"
         id="path196" />
      <path
         d="M 7.7892194,268.58594 H 7.1663466 l -0.5594831,-0.83371 -0.1005967,0.14055 v 0.69316 H 5.9908809 v -2.0519 h 0.5153859 v 0.91088 l 0.6559457,-0.91088 h 0.59669 l -0.7317377,0.95222 z"
         style="font-size:2.82222px;stroke-width:0.264583"
         id="path198" />
    </g>
    <g
       aria-label="RST"
       id="text106"
       style="font-weight:bold;font-size:2.82222px;line-height:1.25;font-family:Tahoma;-inkscape-font-specification:'Tahoma, Bold';letter-spacing:0px;stroke-width:0.264583">
      <path
         d="m 4.3014079,281.28595 h -0.628385 l -0.5718854,-0.75241 h -0.184657 v 0.75241 H 2.4038507 v -2.0519 H 3.229295 q 0.1708766,0 0.297656,0.022 0.1267794,0.0207 0.2342663,0.0882 0.110243,0.0703 0.1750107,0.17914 0.064768,0.10749 0.064768,0.27423 0,0.23564 -0.1061089,0.38309 -0.1061089,0.14608 -0.2838756,0.23289 z m -0.8295784,-1.42351 q 0,-0.0772 -0.030317,-0.13229 -0.028939,-0.0565 -0.097841,-0.0868 -0.048231,-0.0207 -0.1074869,-0.0262 -0.059256,-0.006 -0.1474499,-0.006 H 2.9164805 v 0.5526 h 0.14745 q 0.1074869,0 0.1819009,-0.0124 0.075792,-0.0138 0.1281575,-0.0565 0.049609,-0.0386 0.073036,-0.0923 0.024805,-0.0537 0.024805,-0.14056 z"
         style="font-size:2.82222px;stroke-width:0.264583"
         id="path201" />
      <path
         d="m 5.088267,281.32316 q -0.2356443,0 -0.4147892,-0.0455 -0.1777668,-0.0455 -0.3307289,-0.113 v -0.48782 h 0.046853 q 0.1543402,0.13091 0.3403752,0.20119 0.186035,0.0703 0.3610457,0.0703 0.044097,0 0.1157551,-0.01 0.073036,-0.01 0.1171332,-0.0303 0.053743,-0.0234 0.09095,-0.0648 0.037207,-0.0427 0.037207,-0.11162 0,-0.0772 -0.060634,-0.1254 -0.060634,-0.0482 -0.1446939,-0.0703 -0.1047308,-0.0276 -0.2246201,-0.0524 -0.1185112,-0.0248 -0.2218639,-0.0606 -0.2384005,-0.0841 -0.3417533,-0.226 -0.1033527,-0.14194 -0.1033527,-0.35553 0,-0.28801 0.2439125,-0.46578 0.2439126,-0.17914 0.6090925,-0.17914 0.1832789,0 0.3638018,0.0372 0.1819009,0.0372 0.3252167,0.1006 v 0.46853 h -0.045475 q -0.1143771,-0.0978 -0.2797415,-0.16536 -0.1639865,-0.0675 -0.3376191,-0.0675 -0.067524,0 -0.1212673,0.01 -0.053743,0.01 -0.1129991,0.0372 -0.048231,0.0221 -0.08406,0.0661 -0.034451,0.0427 -0.034451,0.0965 0,0.0785 0.055121,0.1254 0.0565,0.0455 0.2163519,0.0827 0.1033528,0.0234 0.1984373,0.0455 0.096463,0.0221 0.2053276,0.0606 0.2135957,0.0772 0.3169485,0.20808 0.1047308,0.12954 0.1047308,0.34313 0,0.30593 -0.2411565,0.49196 -0.2397784,0.18604 -0.6490555,0.18604 z"
         style="font-size:2.82222px;stroke-width:0.264583"
         id="path203" />
      <path
         d="m 6.6344247,281.28595 v -1.66054 H 6.0280883 v -0.39136 h 1.7280586 v 0.39136 H 7.1498106 v 1.66054 z"
         style="font-size:2.82222px;stroke-width:0.264583"
         id="path205" />
    </g>
  </g>
  <g
     style="display:none"
     inkscape:label="components"
     id="layer2"
     inkscape:groupmode="layer">
    <circle
       inkscape:label="out9"
       style="display:inline;opacity:1;vector-effect:none;fill:#0000ff;fill-opacity:1;fill-rule:evenodd;stroke:none;stroke-width:1;stroke-linecap:butt;stroke-linejoin:miter;stroke-miterlimit:4;stroke-dasharray:none;stroke-dashoffset:0;stroke-opacity:1;paint-order:normal"
       id="circle9"
       cx="5.0800009"
       cy="106.68002"
       r="4" />
    <circle
       inkscape:label="polyin"
       r="4"
       cy="66.040009"
       cx="5.0800009"
       id="circle11"
       style="display:inline;opacity:1;vector-effect:none;fill:#00ff00;fill-opacity:1;fill-rule:evenodd;stroke:none;stroke-width:1;stroke-linecap:butt;stroke-linejoin:miter;stroke-miterlimit:4;stroke-dasharray:none;stroke-dashoffset:0;stroke-opacity:1;paint-order:normal" />
    <circle
       r="4"
       cy="10.160002"
       cx="5.0800009"
       id="circle1"
       style="display:inline;opacity:1;vector-effect:none;fill:#0000ff;fill-opacity:1;fill-rule:evenodd;stroke:none;stroke-width:1;stroke-linecap:butt;stroke-linejoin:miter;stroke-miterlimit:4;stroke-dasharray:none;stroke-dashoffset:0;stroke-opacity:1;paint-order:normal"
       inkscape:label="out1" />
    <circle
       r="4"
       cy="40.640007"
       cx="5.0800009"
       id="circle4"
       style="display:inline;opacity:1;vector-effect:none;fill:#0000ff;fill-opacity:1;fill-rule:evenodd;stroke:none;stroke-width:1;stroke-linecap:butt;stroke-linejoin:miter;stroke-miterlimit:4;stroke-dasharray:none;stroke-dashoffset:0;stroke-opacity:1;paint-order:normal"
       inkscape:label="out4" />
    <circle
       r="4"
       cy="50.800007"
       cx="5.0800009"
       id="circle5"
       style="display:inline;opacity:1;vector-effect:none;fill:#0000ff;fill-opacity:1;fill-rule:evenodd;stroke:none;stroke-width:1;stroke-linecap:butt;stroke-linejoin:miter;stroke-miterlimit:4;stroke-dasharray:none;stroke-dashoffset:0;stroke-opacity:1;paint-order:normal"
       inkscape:label="out5" />
    <circle
       r="4"
       cy="76.200012"
       cx="5.0800009"
       id="circle6"
       style="display:inline;opacity:1;vector-effect:none;fill:#0000ff;fill-opacity:1;fill-rule:evenodd;stroke:none;stroke-width:1;stroke-linecap:butt;stroke-linejoin:miter;stroke-miterlimit:4;stroke-dasharray:none;stroke-dashoffset:0;stroke-opacity:1;paint-order:normal"
       inkscape:label="out6" />
    <circle
       r="4"
       cy="86.360016"
       cx="5.0800009"
       id="circle7"
       style="display:inline;opacity:1;vector-effect:none;fill:#0000ff;fill-opacity:1;fill-rule:evenodd;stroke:none;stroke-width:1;stroke-linecap:butt;stroke-linejoin:miter;stroke-miterlimit:4;stroke-dasharray:none;stroke-dashoffset:0;stroke-opacity:1;paint-order:normal"
       inkscape:label="out7" />
    <circle
       r="4"
       cy="96.52002"
       cx="5.0800009"
       id="circle8"
       style="display:inline;opacity:1;vector-effect:none;fill:#0000ff;fill-opacity:1;fill-rule:evenodd;stroke:none;stroke-width:1;stroke-linecap:butt;stroke-linejoin:miter;stroke-miterlimit:4;stroke-dasharray:none;stroke-dashoffset:0;stroke-opacity:1;paint-order:normal"
       inkscape:label="out8" />
    <circle
       r="4"
       cy="30.480005"
       cx="5.0800009"
       id="circle3"
       style="display:inline;opacity:1;vector-effect:none;fill:#0000ff;fill-opacity:1;fill-rule:evenodd;stroke:none;stroke-width:1;stroke-linecap:butt;stroke-linejoin:miter;stroke-miterlimit:4;stroke-dasharray:none;stroke-dashoffset:0;stroke-opacity:1;paint-order:normal"
       inkscape:label="out3" />
    <circle
       r="4"
       cy="20.320004"
       cx="5.0800009"
       id="circle2"
       style="display:inline;opacity:1;vector-effect:none;fill:#0000ff;fill-opacity:1;fill-rule:evenodd;stroke:none;stroke-width:1;stroke-linecap:butt;stroke-linejoin:miter;stroke-miterlimit:4;stroke-dasharray:none;stroke-dashoffset:0;stroke-opacity:1;paint-order:normal"
       inkscape:label="out2" />
    <circle
       r="4"
       cy="116.84002"
       cx="5.0800009"
       id="circle10"
       style="display:inline;opacity:1;vector-effect:none;fill:#0000ff;fill-opacity:1;fill-rule:evenodd;stroke:none;stroke-width:1;stroke-linecap:butt;stroke-linejoin:miter;stroke-miterlimit:4;stroke-dasharray:none;stroke-dashoffset:0;stroke-opacity:1;paint-order:normal"
       inkscape:label="out10" />
    <circle
       r="0.035242248"
       cy="-48.154167"
       cx="-43.920834"
       style="fill:#000000;stroke:#000000;stroke-width:0.264583"
       id="path30" />
    <circle
       r="0.0088105621"
       cy="-2.5135417"
       cx="-32.279167"
       style="fill:#000000;stroke:#000000;stroke-width:0.264583"
       id="path32" />
    <circle
       r="0.0088105621"
       cy="0.1984375"
       cx="-17.991667"
       style="fill:#000000;stroke:#000000;stroke-width:0.264583"
       id="path34" />
    <circle
       r="0.0088105621"
       cy="2.9104166"
       cx="-25.069271"
       style="fill:#000000;stroke:#000000;stroke-width:0.264583"
       id="path36" />
    <text
       id="text42"
       y="11.90625"
       x="-38.695312"
       style="font-size:10.5833px;line-height:1.25;font-family:'Eras Bold ITC';-inkscape-font-specification:'Eras Bold ITC';stroke-width:0.264583"
       xml:space="preserve"><tspan
         style="font-style:normal;font-variant:normal;font-weight:bold;font-stretch:normal;font-size:3.52778px;font-family:Garamond;-inkscape-font-specification:'Garamond Bold';stroke-width:0.264583"
         y="11.90625"
         x="-38.695312"
         id="tspan40"
         sodipodi:role="line" /></text>
  </g>
</svg>
