<?xml version="1.0" encoding="UTF-8" standalone="no"?>
<svg
   xmlns:dc="http://purl.org/dc/elements/1.1/"
   xmlns:cc="http://creativecommons.org/ns#"
   xmlns:rdf="http://www.w3.org/1999/02/22-rdf-syntax-ns#"
   xmlns:svg="http://www.w3.org/2000/svg"
   xmlns="http://www.w3.org/2000/svg"
   xmlns:sodipodi="http://sodipodi.sourceforge.net/DTD/sodipodi-0.dtd"
   xmlns:inkscape="http://www.inkscape.org/namespaces/inkscape"
   sodipodi:docname="MKnob.svg"
   inkscape:version="1.0 (4035a4fb49, 2020-05-01)"
   id="svg8"
   version="1.1"
   viewBox="0 0 15.240001 128.50002"
   height="128.5mm"
   width="15.24mm">
  <defs
     id="defs2">
    <inkscape:path-effect
       effect="fillet_chamfer"
       id="path-effect105"
       is_visible="true"
       lpeversion="1"
       satellites_param="F,0,0,1,0,4,0,1 @ F,0,0,1,0,4,0,1 @ F,0,0,1,0,4,0,1 @ F,0,0,1,0,4,0,1"
       unit="mm"
       method="auto"
       mode="F"
       radius="4"
       chamfer_steps="1"
       flexible="false"
       use_knot_distance="true"
       apply_no_radius="true"
       apply_with_radius="true"
       only_selected="false"
       hide_knots="false" />
    <inkscape:path-effect
       effect="fillet_chamfer"
       id="path-effect96"
       is_visible="true"
       lpeversion="1"
       satellites_param="F,0,0,1,0,4,0,1 @ F,0,0,1,0,4,0,1 @ F,0,0,1,0,4,0,1 @ F,0,0,1,0,4,0,1"
       unit="mm"
       method="auto"
       mode="F"
       radius="4"
       chamfer_steps="1"
       flexible="false"
       use_knot_distance="true"
       apply_no_radius="true"
       apply_with_radius="true"
       only_selected="false"
       hide_knots="false" />
    <inkscape:path-effect
       hide_knots="false"
       only_selected="false"
       apply_with_radius="true"
       apply_no_radius="true"
       use_knot_distance="true"
       flexible="false"
       chamfer_steps="1"
       radius="4"
       mode="F"
       method="auto"
       unit="mm"
       satellites_param="F,0,0,1,0,4,0,1 @ F,0,0,1,0,4,0,1 @ F,0,0,1,0,4,0,1 @ F,0,0,1,0,4,0,1"
       lpeversion="1"
       is_visible="true"
       id="path-effect77"
       effect="fillet_chamfer" />
    <inkscape:path-effect
       hide_knots="false"
       only_selected="false"
       apply_with_radius="true"
       apply_no_radius="true"
       use_knot_distance="true"
       flexible="false"
       chamfer_steps="1"
       radius="4"
       mode="F"
       method="auto"
       unit="mm"
       satellites_param="F,0,0,1,0,4,0,1 @ F,0,0,1,0,4,0,1 @ F,0,0,1,0,4,0,1 @ F,0,0,1,0,4,0,1"
       lpeversion="1"
       is_visible="true"
       id="path-effect161"
       effect="fillet_chamfer" />
    <inkscape:path-effect
       hide_knots="false"
       only_selected="false"
       apply_with_radius="true"
       apply_no_radius="true"
       use_knot_distance="true"
       flexible="false"
       chamfer_steps="1"
       radius="4"
       mode="F"
       method="auto"
       unit="mm"
       satellites_param="F,0,0,1,0,4,0,1 @ F,0,0,1,0,4,0,1 @ F,0,0,1,0,4,0,1 @ F,0,0,1,0,4,0,1"
       lpeversion="1"
       is_visible="true"
       id="path-effect152"
       effect="fillet_chamfer" />
    <inkscape:path-effect
       hide_knots="false"
       only_selected="false"
       apply_with_radius="true"
       apply_no_radius="true"
       use_knot_distance="true"
       flexible="false"
       chamfer_steps="1"
       radius="4"
       mode="F"
       method="auto"
       unit="mm"
       satellites_param="F,0,0,1,0,4,0,1 @ F,0,0,1,0,4,0,1 @ F,0,0,1,0,4,0,1 @ F,0,0,1,0,4,0,1"
       lpeversion="1"
       is_visible="true"
       id="path-effect143"
       effect="fillet_chamfer" />
    <inkscape:path-effect
       effect="fillet_chamfer"
       id="path-effect124"
       is_visible="true"
       lpeversion="1"
       satellites_param="F,0,0,1,0,4,0,1 @ F,0,0,1,0,4,0,1 @ F,0,0,1,0,4,0,1 @ F,0,0,1,0,4,0,1"
       unit="mm"
       method="auto"
       mode="F"
       radius="4"
       chamfer_steps="1"
       flexible="false"
       use_knot_distance="true"
       apply_no_radius="true"
       apply_with_radius="true"
       only_selected="false"
       hide_knots="false" />
    <inkscape:path-effect
       hide_knots="false"
       only_selected="false"
       apply_with_radius="true"
       apply_no_radius="true"
       use_knot_distance="true"
       flexible="false"
       chamfer_steps="1"
       radius="4"
       mode="F"
       method="auto"
       unit="mm"
       satellites_param="F,0,0,1,0,4,0,1 @ F,0,0,1,0,4,0,1 @ F,0,0,1,0,4,0,1 @ F,0,0,1,0,4,0,1"
       lpeversion="1"
       is_visible="true"
       id="path-effect154"
       effect="fillet_chamfer" />
  </defs>
  <sodipodi:namedview
     guidetolerance="28.7"
     gridtolerance="26.6"
     objecttolerance="24.3"
     inkscape:lockguides="false"
     inkscape:document-rotation="0"
     inkscape:snap-nodes="false"
     inkscape:snap-bbox-midpoints="true"
     inkscape:window-maximized="1"
     inkscape:window-y="0"
     inkscape:window-x="852"
     inkscape:window-height="1024"
     inkscape:window-width="966"
     inkscape:snap-bbox-edge-midpoints="false"
     inkscape:bbox-nodes="false"
     inkscape:snap-page="true"
     inkscape:snap-bbox="true"
     units="mm"
     showgrid="true"
     inkscape:current-layer="layer1"
     inkscape:document-units="mm"
     inkscape:cy="88.765394"
     inkscape:cx="-9.8548914"
     inkscape:zoom="2.4383681"
     inkscape:pageshadow="2"
     inkscape:pageopacity="0.0"
     borderopacity="1.0"
     bordercolor="#666666"
     pagecolor="#ffffff"
     id="base">
    <inkscape:grid
       empspacing="4"
       empopacity="0.25098039"
       empcolor="#71530f"
       spacingy="2.5400004"
       spacingx="2.5400004"
       opacity="0.53333333"
       color="#ffd984"
       units="mm"
       id="grid86"
       type="xygrid" />
  </sodipodi:namedview>
  <metadata
     id="metadata5">
    <rdf:RDF>
      <cc:Work
         rdf:about="">
        <dc:format>image/svg+xml</dc:format>
        <dc:type
           rdf:resource="http://purl.org/dc/dcmitype/StillImage" />
        <dc:title />
        <dc:creator>
          <cc:Agent>
            <dc:title>Firo Lightfog</dc:title>
          </cc:Agent>
        </dc:creator>
      </cc:Work>
    </rdf:RDF>
  </metadata>
  <g
     transform="translate(0,-168.49998)"
     id="layer1"
     inkscape:groupmode="layer"
     inkscape:label="Layer 1"
     style="display:inline">
    <rect
       y="168.54512"
       x="-0.11858591"
       height="129.3419"
       width="15.477174"
       id="rect420"
       style="display:inline;opacity:1;vector-effect:none;fill:#cccccc;fill-opacity:1;fill-rule:evenodd;stroke:none;stroke-width:0.464239;stroke-linecap:butt;stroke-linejoin:miter;stroke-miterlimit:4;stroke-dasharray:none;stroke-dashoffset:0;stroke-opacity:1;paint-order:normal" />
    <rect
       style="display:inline;fill:#de8787;fill-opacity:1;stroke-width:0.607711"
       id="rect48-7-4"
       width="15.177207"
       height="58.400787"
       x="0.031397704"
       y="229.48158" />
    <text
       id="text59"
       y="277.43234"
       x="1.1693041"
       style="font-size:10.5833px;line-height:1.25;font-family:'Eras Bold ITC';-inkscape-font-specification:'Eras Bold ITC';stroke-width:0.264583"
       xml:space="preserve"><tspan
         style="font-size:2.82222px;fill:#ffff00;stroke-width:0.264583"
         y="277.43234"
         x="1.1693041"
         id="tspan57"
         sodipodi:role="line" /></text>
    <g
       transform="translate(2.5399998,-5.0800286)"
       style="font-size:10.5833px;line-height:1.25;font-family:'Eras Bold ITC';-inkscape-font-specification:'Eras Bold ITC';fill:#000000;stroke-width:0.264583"
       id="text63"
       aria-label="OUT">
      <path
         id="path65"
         style="font-size:2.82222px;fill:#000000;stroke-width:0.264583"
         d="m 3.0694446,276.74367 q 0.2204859,0 0.4244354,0.0593 0.2039495,0.0593 0.3569116,0.19017 0.1529622,0.12953 0.2287542,0.29903 0.075792,0.1695 0.075792,0.38999 0,0.23151 -0.08406,0.42581 -0.082682,0.19292 -0.2397785,0.32797 -0.1570962,0.13505 -0.3748261,0.19844 -0.2177299,0.062 -0.4533742,0.062 -0.2328883,0 -0.4464841,-0.0606 -0.2135957,-0.062 -0.37207,-0.19844 -0.1570962,-0.1378 -0.223242,-0.30592 -0.066146,-0.16812 -0.066146,-0.37345 0,-0.30179 0.1391818,-0.52917 0.1405598,-0.22875 0.4147892,-0.35691 0.2756074,-0.12816 0.6201167,-0.12816 z m -0.024805,0.41479 q -0.1584743,0 -0.2866317,0.0786 -0.1281575,0.0772 -0.1970593,0.21635 -0.068902,0.13781 -0.068902,0.29628 0,0.14607 0.062012,0.26734 0.06339,0.12127 0.1915471,0.19017 0.1281575,0.0675 0.2714734,0.0675 0.1529621,0 0.2797415,-0.0758 0.1281575,-0.0772 0.1943032,-0.21497 0.067524,-0.13919 0.067524,-0.29077 0,-0.14745 -0.062012,-0.27147 -0.062012,-0.1254 -0.1819009,-0.19431 -0.1198892,-0.0689 -0.2700953,-0.0689 z" />
      <path
         id="path67"
         style="font-size:2.82222px;fill:#000000;stroke-width:0.264583"
         d="m 4.461262,276.7795 q 0.2149738,0.003 0.3031682,0.003 0.110243,0 0.2935219,-0.003 l -0.041341,0.58567 q -0.012402,0.16536 -0.019292,0.31006 -0.00551,0.14469 -0.00551,0.19981 0,0.10473 0.015158,0.17501 0.015158,0.0703 0.055122,0.11989 0.039963,0.0482 0.110243,0.073 0.071658,0.0248 0.148828,0.0248 0.066146,0 0.1240233,-0.0152 0.045475,-0.0124 0.081304,-0.0344 0.031695,-0.0207 0.055122,-0.0482 0.028939,-0.0331 0.050987,-0.0827 0.022049,-0.0469 0.033073,-0.12127 0.012402,-0.0758 0.033073,-0.34451 0.017914,-0.22875 0.027561,-0.41892 0.00827,-0.18466 0.015158,-0.42306 0.2080836,0.003 0.3279729,0.003 l 0.2797415,-0.003 -0.067524,0.97841 q -0.00138,0.0276 -0.00138,0.0455 -0.00551,0.28664 -0.035829,0.40515 -0.028939,0.11713 -0.097841,0.20395 -0.068902,0.0868 -0.2011934,0.15709 -0.1322915,0.0689 -0.3004121,0.0978 -0.1681205,0.0289 -0.3403752,0.0289 -0.1543401,0 -0.297656,-0.022 -0.1322915,-0.0221 -0.2384004,-0.0634 -0.1061089,-0.0427 -0.184657,-0.0992 -0.071658,-0.0524 -0.110243,-0.1061 -0.038585,-0.0551 -0.060634,-0.13092 -0.024805,-0.0854 -0.024805,-0.18328 0,-0.0331 0.00276,-0.0992 0.00276,-0.0675 0.012402,-0.19292 l 0.017914,-0.22049 q 0.00689,-0.0868 0.015158,-0.25493 z" />
      <path
         id="path69"
         style="font-size:2.82222px;fill:#000000;stroke-width:0.264583"
         d="m 6.9913383,278.66052 q 0.068902,-0.66972 0.082682,-1.4745 l -0.5870439,0.0152 0.00689,-0.15296 q 0.00551,-0.12265 0.00827,-0.26872 0.3913626,0.003 0.9122606,0.003 l 0.3403752,-10e-4 h 0.3307289 l 0.1791449,-0.001 -0.00827,0.13367 q -0.00551,0.10749 -0.00827,0.17777 -0.00138,0.0703 -0.00138,0.10611 -0.2949,-0.0138 -0.4864471,-0.0138 h -0.096463 q -0.020671,0.24391 -0.031695,0.45061 -0.015158,0.29628 -0.023427,0.57602 -0.00827,0.27837 -0.00827,0.45062 -0.2259981,-0.003 -0.2921439,-0.003 -0.059256,0 -0.3169486,0.003 z" />
    </g>
    <text
       id="text127"
       y="172.05467"
       x="-78.577248"
       style="font-size:10.5833px;line-height:1.25;font-family:'Eras Bold ITC';-inkscape-font-specification:'Eras Bold ITC';stroke-width:0.264583"
       xml:space="preserve"><tspan
         style="stroke-width:0.264583"
         y="172.05467"
         x="-78.577248"
         id="tspan125"
         sodipodi:role="line" /></text>
    <text
       id="text131"
       y="186.46049"
       x="-89.989647"
       style="font-size:10.5833px;line-height:1.25;font-family:'Eras Bold ITC';-inkscape-font-specification:'Eras Bold ITC';stroke-width:0.264583"
       xml:space="preserve"><tspan
         style="stroke-width:0.264583"
         y="186.46049"
         x="-89.989647"
         id="tspan129"
         sodipodi:role="line" /></text>
    <g
       style="font-weight:bold;font-size:4.23333px;line-height:1.25;font-family:Tahoma;-inkscape-font-specification:'Tahoma, Bold';display:inline;fill:#000000;stroke-width:0.264583"
       id="text165"
       aria-label="MKNOB"
       transform="translate(18.312576,168.31035)">
      <g
         aria-label="MKNOB"
         id="text269"
         style="font-weight:bold;font-size:3.52778px;line-height:1.25;font-family:Tahoma;-inkscape-font-specification:'Tahoma, Bold';letter-spacing:0px;stroke-width:0.0700042">
        <path
           d="m -14.620848,125.93208 h -0.640788 v -1.70015 l -0.46681,1.09726 h -0.43925 l -0.466811,-1.09726 v 1.70015 h -0.606337 v -2.56487 h 0.742418 l 0.568441,1.26607 0.566719,-1.26607 h 0.742418 z"
           style="font-size:3.52778px;stroke-width:0.0700042"
           id="path289" />
        <path
           d="m -11.844099,125.93208 h -0.778592 l -0.699355,-1.04214 -0.125746,0.1757 v 0.86644 h -0.644233 v -2.56487 h 0.644233 v 1.1386 l 0.819933,-1.1386 h 0.745864 l -0.914673,1.19028 z"
           style="font-size:3.52778px;stroke-width:0.0700042"
           id="path291" />
        <path
           d="m -9.4342533,125.93208 h -0.6201177 l -0.988743,-1.788 v 1.788 h -0.589112 v -2.56487 h 0.79065 l 0.818211,1.46933 v -1.46933 h 0.5891117 z"
           style="font-size:3.52778px;stroke-width:0.0700042"
           id="path293" />
        <path
           d="m -6.5748221,124.65051 q 0,0.62184 -0.332452,0.9784 -0.3324519,0.35657 -0.9112283,0.35657 -0.580499,0 -0.9112283,-0.36001 -0.3307294,-0.36174 -0.3307294,-0.97496 0,-0.6184 0.3307294,-0.97669 0.3307293,-0.36001 0.9112283,-0.36001 0.5787764,0 0.9112283,0.35829 0.332452,0.35657 0.332452,0.97841 z m -0.6649039,-0.002 q 0,-0.22909 -0.048231,-0.38929 -0.046509,-0.16192 -0.1257461,-0.26527 -0.082682,-0.10508 -0.1877578,-0.14987 -0.103353,-0.0465 -0.2153186,-0.0465 -0.1188559,0 -0.2153187,0.0431 -0.096463,0.0413 -0.1860352,0.14986 -0.079237,0.0999 -0.1291912,0.26527 -0.048231,0.16537 -0.048231,0.39447 0,0.23599 0.046509,0.39274 0.046509,0.15503 0.1274686,0.2601 0.082682,0.1068 0.1877578,0.15331 0.1050755,0.0448 0.2170412,0.0448 0.1136882,0 0.2204862,-0.0482 0.106798,-0.0499 0.1843127,-0.1533 0.082682,-0.11197 0.1274686,-0.26011 0.044786,-0.14986 0.044786,-0.39102 z"
           style="font-size:3.52778px;stroke-width:0.0700042"
           id="path295" />
        <path
           d="m -4.1443057,125.1466 q 0,0.1912 -0.072347,0.3359 -0.072347,0.14469 -0.194648,0.23943 -0.1446941,0.11369 -0.3186716,0.16192 -0.1722548,0.0482 -0.4392499,0.0482 h -1.0266391 v -2.56487 h 0.9060607 q 0.282498,0 0.4271921,0.0224 0.1464166,0.0207 0.2738852,0.0896 0.137804,0.0741 0.2049834,0.1981 0.068902,0.12402 0.068902,0.28594 0,0.18776 -0.09474,0.33417 -0.093018,0.14642 -0.2583823,0.21532 v 0.0138 q 0.2377117,0.05 0.3806833,0.20499 0.1429716,0.1533 0.1429716,0.41513 z m -0.8251009,-1.0542 q 0,-0.062 -0.032729,-0.12747 -0.031006,-0.0654 -0.098185,-0.0947 -0.063734,-0.0276 -0.1515843,-0.0293 -0.086127,-0.003 -0.2583823,-0.003 h -0.044786 v 0.54261 h 0.08096 q 0.1653647,0 0.2308216,-0.003 0.067179,-0.003 0.1378039,-0.0362 0.077515,-0.0362 0.106798,-0.0999 0.029283,-0.0637 0.029283,-0.14814 z m 0.1619195,1.04214 q 0,-0.11885 -0.048231,-0.18603 -0.048231,-0.0672 -0.1446941,-0.10163 -0.058567,-0.0224 -0.1619196,-0.0241 -0.1016304,-0.003 -0.2738853,-0.003 h -0.1188559 v 0.64251 h 0.034451 q 0.2514922,0 0.3479549,-0.003 0.096463,-0.003 0.1963706,-0.0465 0.08785,-0.0379 0.1274686,-0.11024 0.041341,-0.0741 0.041341,-0.16709 z"
           style="font-size:3.52778px;stroke-width:0.0700042"
           id="path297" />
      </g>
    </g>
    <g
       aria-label="b"
       transform="translate(2.5400005,168.49998)"
       id="text51"
       style="font-weight:bold;font-size:6.08438px;line-height:1.25;font-family:'Wingdings 2';-inkscape-font-specification:'Wingdings 2 Bold';display:inline;fill:#000000;stroke-width:0.142602">
      <path
         d="M 2.1105974,0.92680782 V 1.2209258 q 0.1693407,0 0.2554965,0.086156 0.089127,0.086156 0.1693406,0.3297686 l 0.047534,0.1485445 Q 2.7433967,2.2785622 3.1088161,2.4330484 2.7701347,2.498408 2.5681143,2.712312 2.3690648,2.9232451 2.3690648,3.2143922 q 0,0.4070117 0.3060015,0.6743917 0.3060015,0.2644091 0.775402,0.2644091 0.7130133,0 1.1021997,-0.6120031 L 4.3239095,3.3480821 Q 4.071384,3.618433 3.804004,3.618433 3.5841583,3.618433 3.4267011,3.4758304 3.269244,3.3302568 3.269244,3.1312073 q 0,-0.1663698 0.1218065,-0.2881762 0.1247773,-0.1218065 0.2911471,-0.1218065 0.3000597,0 0.8407615,0.4248371 l 0.1812242,0.1426027 q 0.882354,0.6951879 1.6844939,0.6951879 0.695188,0 1.176472,-0.4575168 Q 8.049404,3.0688186 8.049404,2.4122522 8.049404,1.7467731 7.5502947,1.3367905 7.0511854,0.92680782 6.2401328,0.92680782 H 6.1420935 V 1.2209258 q 0.4812839,0.03268 0.7635184,0.3357104 0.2822344,0.3000598 0.2822344,0.7813438 0,0.4753422 -0.3565066,0.8140235 -0.3565067,0.3357104 -0.8615578,0.3357104 -0.4872257,0 -0.8674995,-0.2970889 -0.3802738,-0.2970888 -0.3802738,-0.6773626 0,-0.1812242 0.1158647,-0.3060015 0.1188356,-0.1247774 0.2911471,-0.1247774 0.1723115,0 0.2584673,0.095068 0.089127,0.092097 0.089127,0.2822344 0,0.1158647 -0.06536,0.2733218 l 0.26738,0.1218064 Q 5.856888,2.4330479 5.856888,2.1478426 5.856888,1.7972777 5.6281296,1.5477231 5.4023422,1.295198 5.0814862,1.295198 q -0.2049913,0 -0.374332,0.1010102 Q 4.5378135,1.4972185 4.4041235,1.7022098 4.231812,1.2714309 3.85748,1.0991194 3.4861189,0.92680782 2.7285423,0.92680782 Z M 4.2496373,2.3766015 Q 3.8129167,2.2934166 3.4504683,1.6487338 L 3.3999632,1.562578 Q 3.242506,1.2833145 3.0196894,1.1971587 q 1.1348795,0 1.2299479,1.1794428 z"
         style="font-size:6.08438px;fill:#000000;stroke-width:0.142602"
         id="path49" />
    </g>
  </g>
  <g
     style="display:none"
     inkscape:label="components"
     id="layer2"
     inkscape:groupmode="layer">
    <circle
       inkscape:label="polyout"
       r="4"
       cy="111.76002"
       cx="10.160002"
       id="circle11"
       style="display:inline;opacity:1;vector-effect:none;fill:#0000ff;fill-opacity:1;fill-rule:evenodd;stroke:none;stroke-width:1;stroke-linecap:butt;stroke-linejoin:miter;stroke-miterlimit:4;stroke-dasharray:none;stroke-dashoffset:0;stroke-opacity:1;paint-order:normal" />
    <circle
       inkscape:transform-center-y="0.93544344"
       inkscape:transform-center-x="0.18708869"
       r="4"
       cy="25.400009"
       cx="10.160002"
       id="knoba"
       style="display:inline;opacity:1;vector-effect:none;fill:#ff0000;fill-opacity:1;fill-rule:evenodd;stroke:none;stroke-width:1;stroke-linecap:butt;stroke-linejoin:miter;stroke-miterlimit:4;stroke-dasharray:none;stroke-dashoffset:0;stroke-opacity:1;paint-order:normal"
       inkscape:label="knoba" />
    <circle
       r="4"
       cy="76.200012"
       cx="10.160002"
       id="socketb"
       style="display:inline;opacity:1;vector-effect:none;fill:#0000ff;fill-opacity:1;fill-rule:evenodd;stroke:none;stroke-width:1;stroke-linecap:butt;stroke-linejoin:miter;stroke-miterlimit:4;stroke-dasharray:none;stroke-dashoffset:0;stroke-opacity:1;paint-order:normal"
       inkscape:label="socketb" />
    <circle
       r="4"
       cy="45.720009"
       cx="10.160002"
       id="knobc"
       style="display:inline;opacity:1;vector-effect:none;fill:#ff0000;fill-opacity:1;fill-rule:evenodd;stroke:none;stroke-width:1;stroke-linecap:butt;stroke-linejoin:miter;stroke-miterlimit:4;stroke-dasharray:none;stroke-dashoffset:0;stroke-opacity:1;paint-order:normal"
       inkscape:label="knobc" />
    <circle
       r="4"
       cy="86.360016"
       cx="10.160002"
       id="socketc"
       style="display:inline;opacity:1;vector-effect:none;fill:#0000ff;fill-opacity:1;fill-rule:evenodd;stroke:none;stroke-width:1;stroke-linecap:butt;stroke-linejoin:miter;stroke-miterlimit:4;stroke-dasharray:none;stroke-dashoffset:0;stroke-opacity:1;paint-order:normal"
       inkscape:label="socketc" />
    <ellipse
       cy="35.560005"
       cx="10.160002"
       id="knobb"
       style="display:inline;opacity:1;vector-effect:none;fill:#ff0000;fill-opacity:1;fill-rule:evenodd;stroke:none;stroke-width:1;stroke-linecap:butt;stroke-linejoin:miter;stroke-miterlimit:4;stroke-dasharray:none;stroke-dashoffset:0;stroke-opacity:1;paint-order:normal"
       inkscape:label="knobb"
       rx="4"
       ry="4.0000014" />
    <circle
       r="4"
       cy="66.040009"
       cx="10.160002"
       id="socketa"
       style="display:inline;opacity:1;vector-effect:none;fill:#0000ff;fill-opacity:1;fill-rule:evenodd;stroke:none;stroke-width:1;stroke-linecap:butt;stroke-linejoin:miter;stroke-miterlimit:4;stroke-dasharray:none;stroke-dashoffset:0;stroke-opacity:1;paint-order:normal"
       inkscape:label="socketa" />
    <circle
       r="0.035242248"
       cy="-48.154167"
       cx="-43.920834"
       style="fill:#000000;stroke:#000000;stroke-width:0.264583"
       id="path30" />
    <circle
       r="0.0088105621"
       cy="-2.5135417"
       cx="-32.279167"
       style="fill:#000000;stroke:#000000;stroke-width:0.264583"
       id="path32" />
    <circle
       r="0.0088105621"
       cy="0.1984375"
       cx="-17.991667"
       style="fill:#000000;stroke:#000000;stroke-width:0.264583"
       id="path34" />
    <circle
       r="0.0088105621"
       cy="2.9104166"
       cx="-25.069271"
       style="fill:#000000;stroke:#000000;stroke-width:0.264583"
       id="path36" />
    <text
       id="text42"
       y="11.90625"
       x="-38.695312"
       style="font-size:10.5833px;line-height:1.25;font-family:'Eras Bold ITC';-inkscape-font-specification:'Eras Bold ITC';stroke-width:0.264583"
       xml:space="preserve"><tspan
         style="font-style:normal;font-variant:normal;font-weight:bold;font-stretch:normal;font-size:3.52778px;font-family:Garamond;-inkscape-font-specification:'Garamond Bold';stroke-width:0.264583"
         y="11.90625"
         x="-38.695312"
         id="tspan40"
         sodipodi:role="line" /></text>
    <text
       id="text78"
       y="16.668749"
       x="-45.111458"
       style="font-size:10.5833px;line-height:1.25;font-family:'Eras Bold ITC';-inkscape-font-specification:'Eras Bold ITC';stroke-width:0.264583"
       xml:space="preserve"><tspan
         style="stroke-width:0.264583"
         y="16.668749"
         x="-45.111458"
         id="tspan76"
         sodipodi:role="line" /></text>
    <circle
       inkscape:label="knobd"
       style="display:inline;opacity:1;vector-effect:none;fill:#ff0000;fill-opacity:1;fill-rule:evenodd;stroke:none;stroke-width:1;stroke-linecap:butt;stroke-linejoin:miter;stroke-miterlimit:4;stroke-dasharray:none;stroke-dashoffset:0;stroke-opacity:1;paint-order:normal"
       id="knobd"
       cx="10.160002"
       cy="55.880009"
       r="4" />
    <circle
       inkscape:label="socketd"
       style="display:inline;opacity:1;vector-effect:none;fill:#0000ff;fill-opacity:1;fill-rule:evenodd;stroke:none;stroke-width:1;stroke-linecap:butt;stroke-linejoin:miter;stroke-miterlimit:4;stroke-dasharray:none;stroke-dashoffset:0;stroke-opacity:1;paint-order:normal"
       id="socketd"
       cx="10.160002"
       cy="96.520012"
       r="4" />
  </g>
</svg>
