<?xml version="1.0" encoding="UTF-8" standalone="no"?>
<svg
   xmlns:dc="http://purl.org/dc/elements/1.1/"
   xmlns:cc="http://creativecommons.org/ns#"
   xmlns:rdf="http://www.w3.org/1999/02/22-rdf-syntax-ns#"
   xmlns:svg="http://www.w3.org/2000/svg"
   xmlns="http://www.w3.org/2000/svg"
   xmlns:sodipodi="http://sodipodi.sourceforge.net/DTD/sodipodi-0.dtd"
   xmlns:inkscape="http://www.inkscape.org/namespaces/inkscape"
   sodipodi:docname="Organic.svg"
   inkscape:version="1.0 (4035a4fb49, 2020-05-01)"
   id="svg8"
   version="1.1"
   viewBox="0 0 55.880007 128.50002"
   height="128.5mm"
   width="55.880001mm">
  <defs
     id="defs2">
    <rect
       id="rect116"
       height="13.598816"
       width="11.877447"
       y="219.62464"
       x="9.9839407" />
    <rect
       id="rect110"
       height="6.1969287"
       width="8.0904347"
       y="220.8296"
       x="12.22172" />
    <rect
       id="rect104"
       height="6.7133394"
       width="8.6068454"
       y="211.53421"
       x="12.565994" />
    <rect
       id="rect98"
       height="6.3690656"
       width="6.1969287"
       y="203.96018"
       x="14.287363" />
    <inkscape:path-effect
       effect="fillet_chamfer"
       id="path-effect95"
       is_visible="true"
       lpeversion="1"
       satellites_param="F,0,0,1,0,4,0,1 @ F,0,0,1,0,4,0,1 @ F,0,0,1,0,4,0,1 @ F,0,0,1,0,4,0,1"
       unit="mm"
       method="auto"
       mode="F"
       radius="4"
       chamfer_steps="1"
       flexible="false"
       use_knot_distance="true"
       apply_no_radius="true"
       apply_with_radius="true"
       only_selected="false"
       hide_knots="false" />
    <inkscape:path-effect
       effect="fillet_chamfer"
       id="path-effect105"
       is_visible="true"
       lpeversion="1"
       satellites_param="F,0,0,1,0,4,0,1 @ F,0,0,1,0,4,0,1 @ F,0,0,1,0,4,0,1 @ F,0,0,1,0,4,0,1"
       unit="mm"
       method="auto"
       mode="F"
       radius="4"
       chamfer_steps="1"
       flexible="false"
       use_knot_distance="true"
       apply_no_radius="true"
       apply_with_radius="true"
       only_selected="false"
       hide_knots="false" />
    <inkscape:path-effect
       effect="fillet_chamfer"
       id="path-effect96"
       is_visible="true"
       lpeversion="1"
       satellites_param="F,0,0,1,0,4,0,1 @ F,0,0,1,0,4,0,1 @ F,0,0,1,0,4,0,1 @ F,0,0,1,0,4,0,1"
       unit="mm"
       method="auto"
       mode="F"
       radius="4"
       chamfer_steps="1"
       flexible="false"
       use_knot_distance="true"
       apply_no_radius="true"
       apply_with_radius="true"
       only_selected="false"
       hide_knots="false" />
    <inkscape:path-effect
       hide_knots="false"
       only_selected="false"
       apply_with_radius="true"
       apply_no_radius="true"
       use_knot_distance="true"
       flexible="false"
       chamfer_steps="1"
       radius="4"
       mode="F"
       method="auto"
       unit="mm"
       satellites_param="F,0,0,1,0,4,0,1 @ F,0,0,1,0,4,0,1 @ F,0,0,1,0,4,0,1 @ F,0,0,1,0,4,0,1"
       lpeversion="1"
       is_visible="true"
       id="path-effect77"
       effect="fillet_chamfer" />
    <inkscape:path-effect
       hide_knots="false"
       only_selected="false"
       apply_with_radius="true"
       apply_no_radius="true"
       use_knot_distance="true"
       flexible="false"
       chamfer_steps="1"
       radius="4"
       mode="F"
       method="auto"
       unit="mm"
       satellites_param="F,0,0,1,0,4,0,1 @ F,0,0,1,0,4,0,1 @ F,0,0,1,0,4,0,1 @ F,0,0,1,0,4,0,1"
       lpeversion="1"
       is_visible="true"
       id="path-effect161"
       effect="fillet_chamfer" />
    <inkscape:path-effect
       hide_knots="false"
       only_selected="false"
       apply_with_radius="true"
       apply_no_radius="true"
       use_knot_distance="true"
       flexible="false"
       chamfer_steps="1"
       radius="4"
       mode="F"
       method="auto"
       unit="mm"
       satellites_param="F,0,0,1,0,4,0,1 @ F,0,0,1,0,4,0,1 @ F,0,0,1,0,4,0,1 @ F,0,0,1,0,4,0,1"
       lpeversion="1"
       is_visible="true"
       id="path-effect152"
       effect="fillet_chamfer" />
    <inkscape:path-effect
       hide_knots="false"
       only_selected="false"
       apply_with_radius="true"
       apply_no_radius="true"
       use_knot_distance="true"
       flexible="false"
       chamfer_steps="1"
       radius="4"
       mode="F"
       method="auto"
       unit="mm"
       satellites_param="F,0,0,1,0,4,0,1 @ F,0,0,1,0,4,0,1 @ F,0,0,1,0,4,0,1 @ F,0,0,1,0,4,0,1"
       lpeversion="1"
       is_visible="true"
       id="path-effect143"
       effect="fillet_chamfer" />
    <inkscape:path-effect
       effect="fillet_chamfer"
       id="path-effect124"
       is_visible="true"
       lpeversion="1"
       satellites_param="F,0,0,1,0,4,0,1 @ F,0,0,1,0,4,0,1 @ F,0,0,1,0,4,0,1 @ F,0,0,1,0,4,0,1"
       unit="mm"
       method="auto"
       mode="F"
       radius="4"
       chamfer_steps="1"
       flexible="false"
       use_knot_distance="true"
       apply_no_radius="true"
       apply_with_radius="true"
       only_selected="false"
       hide_knots="false" />
    <inkscape:path-effect
       hide_knots="false"
       only_selected="false"
       apply_with_radius="true"
       apply_no_radius="true"
       use_knot_distance="true"
       flexible="false"
       chamfer_steps="1"
       radius="4"
       mode="F"
       method="auto"
       unit="mm"
       satellites_param="F,0,0,1,0,4,0,1 @ F,0,0,1,0,4,0,1 @ F,0,0,1,0,4,0,1 @ F,0,0,1,0,4,0,1"
       lpeversion="1"
       is_visible="true"
       id="path-effect154"
       effect="fillet_chamfer" />
  </defs>
  <sodipodi:namedview
     guidetolerance="28.7"
     gridtolerance="26.6"
     objecttolerance="24.3"
     inkscape:lockguides="false"
     inkscape:document-rotation="0"
     inkscape:snap-nodes="false"
     inkscape:snap-bbox-midpoints="true"
     inkscape:window-maximized="0"
     inkscape:window-y="-11"
     inkscape:window-x="845"
     inkscape:window-height="1024"
     inkscape:window-width="961"
     inkscape:snap-bbox-edge-midpoints="false"
     inkscape:bbox-nodes="false"
     inkscape:snap-page="true"
     inkscape:snap-bbox="true"
     units="mm"
     showgrid="true"
     inkscape:current-layer="layer1"
     inkscape:document-units="mm"
     inkscape:cy="239.65969"
     inkscape:cx="113.69634"
     inkscape:zoom="1.6535905"
     inkscape:pageshadow="2"
     inkscape:pageopacity="0.0"
     borderopacity="1.0"
     bordercolor="#666666"
     pagecolor="#ffffff"
     id="base"
     width="55.88in">
    <inkscape:grid
       empspacing="4"
       empopacity="0.25098039"
       empcolor="#71530f"
       spacingy="2.5400004"
       spacingx="2.5400004"
       opacity="0.53333333"
       color="#ffd984"
       units="mm"
       id="grid86"
       type="xygrid" />
  </sodipodi:namedview>
  <metadata
     id="metadata5">
    <rdf:RDF>
      <cc:Work
         rdf:about="">
        <dc:format>image/svg+xml</dc:format>
        <dc:type
           rdf:resource="http://purl.org/dc/dcmitype/StillImage" />
        <dc:title />
        <dc:creator>
          <cc:Agent>
            <dc:title>Firo Lightfog</dc:title>
          </cc:Agent>
        </dc:creator>
      </cc:Work>
    </rdf:RDF>
  </metadata>
  <g
     transform="translate(0,-168.49998)"
     id="layer1"
     inkscape:groupmode="layer"
     inkscape:label="Layer 1"
     style="display:inline">
    <rect
       y="168.49834"
       x="0.068502754"
       height="128.54678"
       width="55.743004"
       id="rect420"
       style="display:inline;opacity:1;vector-effect:none;fill:#cccccc;fill-opacity:1;fill-rule:evenodd;stroke:none;stroke-width:0.87832;stroke-linecap:butt;stroke-linejoin:miter;stroke-miterlimit:4;stroke-dasharray:none;stroke-dashoffset:0;stroke-opacity:1;paint-order:normal" />
    <text
       id="text59"
       y="277.43234"
       x="1.1693041"
       style="font-size:10.5833px;line-height:1.25;font-family:'Eras Bold ITC';-inkscape-font-specification:'Eras Bold ITC';stroke-width:0.264583"
       xml:space="preserve"><tspan
         style="font-size:2.82222px;fill:#ffff00;stroke-width:0.264583"
         y="277.43234"
         x="1.1693041"
         id="tspan57"
         sodipodi:role="line" /></text>
    <text
       id="text127"
       y="172.05467"
       x="-78.577248"
       style="font-size:10.5833px;line-height:1.25;font-family:'Eras Bold ITC';-inkscape-font-specification:'Eras Bold ITC';stroke-width:0.264583"
       xml:space="preserve"><tspan
         style="stroke-width:0.264583"
         y="172.05467"
         x="-78.577248"
         id="tspan125"
         sodipodi:role="line" /></text>
    <text
       id="text131"
       y="186.46049"
       x="-89.989647"
       style="font-size:10.5833px;line-height:1.25;font-family:'Eras Bold ITC';-inkscape-font-specification:'Eras Bold ITC';stroke-width:0.264583"
       xml:space="preserve"><tspan
         style="stroke-width:0.264583"
         y="186.46049"
         x="-89.989647"
         id="tspan129"
         sodipodi:role="line" /></text>
    <g
       style="font-weight:bold;font-size:6.35px;line-height:1.25;font-family:Tahoma;-inkscape-font-specification:'Tahoma, Bold';fill:#000000;stroke-width:0.264583"
       id="text104"
       aria-label="b"
       transform="translate(5.0800008,7.6200082)">
      <path
         id="path116"
         style="font-style:normal;font-variant:normal;font-weight:bold;font-stretch:normal;font-size:14.1111px;font-family:'Wingdings 2';-inkscape-font-specification:'Wingdings 2 Bold';fill:#000000;stroke-width:0.264583"
         d="m 3.2732611,177.4586 v 0.68213 q 0.3927406,0 0.592556,0.19982 0.2067056,0.19981 0.3927406,0.76481 l 0.110243,0.34451 q 0.37207,1.14377 1.2195628,1.50206 -0.7854811,0.15158 -1.2540138,0.64768 -0.4616424,0.4892 -0.4616424,1.16444 0,0.94395 0.7096891,1.56407 0.7096891,0.61323 1.7983385,0.61323 1.6536445,0 2.5562588,-1.41938 L 8.4064495,183.0741 q -0.5856658,0.62701 -1.2057825,0.62701 -0.5098738,0 -0.8750536,-0.33073 -0.3651799,-0.33762 -0.3651799,-0.79926 0,-0.38585 0.2824977,-0.66835 0.2893878,-0.28249 0.6752382,-0.28249 0.6959087,0 1.9499225,0.98529 l 0.4203013,0.33073 q 2.0463848,1.6123 3.9067348,1.6123 1.612304,0 2.728514,-1.06108 1.1231,-1.06109 1.1231,-2.58382 0,-1.54341 -1.157551,-2.49425 -1.157551,-0.95085 -3.038572,-0.95085 h -0.227376 v 0.68213 q 1.11621,0.0758 1.770778,0.77859 0.654567,0.69591 0.654567,1.81212 0,1.10243 -0.826822,1.88791 -0.826822,0.77859 -1.998154,0.77859 -1.12999,0 -2.011934,-0.68901 -0.8819437,-0.68902 -0.8819437,-1.57097 0,-0.4203 0.2687173,-0.70969 0.2756074,-0.28938 0.6752384,-0.28938 0.399631,0 0.599446,0.22048 0.206705,0.2136 0.206705,0.65457 0,0.26872 -0.151584,0.6339 l 0.620117,0.28249 q 0.413411,-0.9784 0.413411,-1.63986 0,-0.81304 -0.530544,-1.39182 -0.523654,-0.58566 -1.267794,-0.58566 -0.475423,0 -0.8681636,0.23426 -0.3927406,0.23427 -0.7027989,0.70969 -0.3996308,-0.99907 -1.2677942,-1.39871 -0.8612732,-0.39963 -2.6182705,-0.39963 z m 4.9609337,3.36241 Q 7.2213375,180.62809 6.3807349,179.13292 L 6.2636017,178.9331 q -0.3651798,-0.64767 -0.8819437,-0.84749 2.6320509,0 2.8525368,2.7354 z" />
    </g>
    <g
       style="font-weight:bold;font-size:4.23333px;line-height:1.25;font-family:Tahoma;-inkscape-font-specification:'Tahoma, Bold';letter-spacing:0px;stroke-width:0.264583"
       id="text79"
       aria-label="ORGANIC">
      <path
         id="path81"
         style="font-size:4.23333px;stroke-width:0.264583"
         d="m 20.792118,292.96104 q 0,0.74621 -0.398942,1.17409 -0.398941,0.42788 -1.093472,0.42788 -0.696598,0 -1.093473,-0.43201 -0.396874,-0.43409 -0.396874,-1.16996 0,-0.74207 0.396874,-1.17202 0.396875,-0.43201 1.093473,-0.43201 0.694531,0 1.093472,0.42994 0.398942,0.42789 0.398942,1.17409 z m -0.797883,-0.002 q 0,-0.27492 -0.05788,-0.46716 -0.05581,-0.1943 -0.150895,-0.31833 -0.09922,-0.12609 -0.225309,-0.17983 -0.124023,-0.0558 -0.258382,-0.0558 -0.142627,0 -0.258382,0.0517 -0.115755,0.0496 -0.223242,0.17983 -0.09508,0.11989 -0.155029,0.31833 -0.05788,0.19843 -0.05788,0.47335 0,0.28319 0.05581,0.47129 0.05581,0.18604 0.152962,0.31213 0.09922,0.12815 0.225309,0.18396 0.12609,0.0537 0.260449,0.0537 0.136426,0 0.264583,-0.0579 0.128157,-0.0599 0.221175,-0.18397 0.09922,-0.13436 0.152962,-0.31212 0.05374,-0.17984 0.05374,-0.46922 z" />
      <path
         id="path83"
         style="font-size:4.23333px;stroke-width:0.264583"
         d="M 24.093206,294.49893 H 23.150628 L 22.2928,293.37032 h -0.276985 v 1.12861 H 21.24687 v -3.07784 h 1.238166 q 0.256315,0 0.446484,0.0331 0.19017,0.031 0.3514,0.13229 0.165364,0.10542 0.262516,0.26872 0.09715,0.16123 0.09715,0.41134 0,0.35347 -0.159164,0.57464 -0.159163,0.21911 -0.425813,0.34934 z m -1.244368,-2.13527 q 0,-0.11575 -0.04547,-0.19843 -0.04341,-0.0847 -0.146761,-0.13023 -0.07235,-0.031 -0.16123,-0.0393 -0.08888,-0.008 -0.221175,-0.008 h -0.258382 v 0.82889 h 0.221175 q 0.16123,0 0.272851,-0.0186 0.113688,-0.0207 0.192236,-0.0847 0.07441,-0.0579 0.109554,-0.1385 0.03721,-0.0806 0.03721,-0.21084 z" />
      <path
         id="path85"
         style="font-size:4.23333px;stroke-width:0.264583"
         d="m 26.894066,294.32323 q -0.202572,0.0827 -0.527099,0.16123 -0.322461,0.0786 -0.636654,0.0786 -0.725536,0 -1.157551,-0.41754 -0.429947,-0.41962 -0.429947,-1.18856 0,-0.72347 0.429947,-1.15962 0.432015,-0.43615 1.180289,-0.43615 0.386539,0 0.628385,0.0744 0.241845,0.0723 0.500227,0.19843 v 0.72141 h -0.07028 q -0.05581,-0.0434 -0.16123,-0.12196 -0.103353,-0.0806 -0.202571,-0.13643 -0.115755,-0.0661 -0.268718,-0.11368 -0.150895,-0.0476 -0.320393,-0.0476 -0.198437,0 -0.361735,0.062 -0.163297,0.062 -0.291455,0.19017 -0.121956,0.12403 -0.194303,0.3142 -0.07028,0.19017 -0.07028,0.44235 0,0.5395 0.270784,0.79581 0.270785,0.25632 0.740006,0.25632 0.04134,0 0.09715,-0.002 0.05581,-0.002 0.09715,-0.006 v -0.60358 h -0.597379 v -0.57671 h 1.345653 z" />
      <path
         id="path87"
         style="font-size:4.23333px;stroke-width:0.264583"
         d="m 27.15038,294.49893 1.039729,-3.07784 h 0.843359 l 1.039729,3.07784 H 29.27738 l -0.192236,-0.62838 h -0.967382 l -0.192236,0.62838 z m 1.765266,-1.18649 -0.314193,-1.01492 -0.314192,1.01492 z" />
      <path
         id="path89"
         style="font-size:4.23333px;stroke-width:0.264583"
         d="m 33.020818,294.49893 h -0.74414 l -1.186489,-2.1456 v 2.1456 h -0.706933 v -3.07784 h 0.948778 l 0.981851,1.76319 v -1.76319 h 0.706933 z" />
      <path
         id="path91"
         style="font-size:4.23333px;stroke-width:0.264583"
         d="m 35.182959,294.49893 h -1.657778 v -0.53743 h 0.442349 v -2.00298 h -0.442349 v -0.53743 h 1.657778 v 0.53743 h -0.44235 v 2.00298 h 0.44235 z" />
      <path
         id="path93"
         style="font-size:4.23333px;stroke-width:0.264583"
         d="m 37.026772,294.55888 q -0.692464,0 -1.099674,-0.41755 -0.40721,-0.41961 -0.40721,-1.17822 0,-0.73174 0.40721,-1.16582 0.409277,-0.43615 1.101741,-0.43615 0.183968,0 0.330729,0.0207 0.14676,0.0207 0.281119,0.0579 0.10542,0.031 0.229443,0.0848 0.124024,0.0537 0.200505,0.093 v 0.7338 h -0.07855 q -0.05581,-0.0496 -0.14056,-0.11782 -0.08475,-0.0703 -0.192236,-0.13643 -0.107487,-0.0661 -0.237712,-0.11162 -0.128157,-0.0475 -0.268717,-0.0475 -0.167432,0 -0.307991,0.0537 -0.138493,0.0517 -0.264583,0.1819 -0.115756,0.11783 -0.19017,0.31833 -0.07235,0.20051 -0.07235,0.47336 0,0.28732 0.07648,0.48369 0.07648,0.1943 0.200504,0.31419 0.119889,0.11576 0.26665,0.16743 0.148828,0.0517 0.295589,0.0517 0.152962,0 0.291455,-0.0496 0.138493,-0.0517 0.233577,-0.11369 0.103353,-0.0641 0.181901,-0.13022 0.07855,-0.0661 0.136426,-0.11783 h 0.07028 v 0.72347 q -0.08475,0.0393 -0.196371,0.091 -0.111621,0.0496 -0.229443,0.0847 -0.144694,0.0434 -0.270784,0.0661 -0.12609,0.0227 -0.347265,0.0227 z" />
    </g>
    <g
       style="font-weight:bold;font-size:3.52778px;line-height:1.25;font-family:Tahoma;-inkscape-font-specification:'Tahoma, Bold';letter-spacing:0px;white-space:pre;shape-inside:url(#rect98)"
       id="text96"
       transform="translate(2.3094915,-6.9138413)"
       aria-label="1">
      <path
         id="path140"
         style="font-size:3.52778px"
         d="m 16.317994,207.17944 h -1.694988 v -0.44786 h 0.540881 v -1.35565 h -0.540881 v -0.41858 q 0.118856,0 0.23599,-0.0155 0.117133,-0.0155 0.187757,-0.05 0.08268,-0.0413 0.127469,-0.11024 0.04651,-0.0706 0.0534,-0.17398 h 0.561551 v 2.12391 h 0.528822 z" />
    </g>
    <g
       style="font-weight:bold;font-size:3.52778px;line-height:1.25;font-family:Tahoma;-inkscape-font-specification:'Tahoma, Bold';letter-spacing:0px;white-space:pre;shape-inside:url(#rect104)"
       id="text102"
       transform="translate(4.0112573,-4.3062536)"
       aria-label="2">
      <path
         id="path143"
         style="font-size:3.52778px"
         d="m 14.71098,214.75366 h -1.884469 v -0.41858 q 0.239434,-0.18948 0.428915,-0.35829 0.191203,-0.16881 0.335897,-0.3204 0.187758,-0.19809 0.272163,-0.34795 0.0844,-0.14986 0.0844,-0.30834 0,-0.17914 -0.106798,-0.27388 -0.106798,-0.0965 -0.298001,-0.0965 -0.09819,0 -0.186035,0.0241 -0.08613,0.0241 -0.1757,0.062 -0.08785,0.0396 -0.149862,0.081 -0.06201,0.0413 -0.09302,0.062 h -0.04995 v -0.55983 q 0.10852,-0.0517 0.339342,-0.10507 0.230822,-0.0551 0.444418,-0.0551 0.456475,0 0.690742,0.20326 0.235989,0.20326 0.235989,0.57188 0,0.22738 -0.106798,0.44614 -0.106798,0.21705 -0.354845,0.46682 -0.15503,0.1533 -0.301446,0.27388 -0.146417,0.11886 -0.211874,0.16881 h 1.086929 z" />
    </g>
    <text
       style="font-weight:bold;font-size:5.64444px;line-height:1.25;font-family:Tahoma;-inkscape-font-specification:'Tahoma, Bold';letter-spacing:0px;white-space:pre;shape-inside:url(#rect110);"
       id="text108"
       xml:space="preserve" />
    <g
       style="font-weight:bold;font-size:3.52778px;line-height:1.25;font-family:Tahoma;-inkscape-font-specification:'Tahoma, Bold';letter-spacing:0px;white-space:pre;shape-inside:url(#rect116)"
       id="text114"
       transform="translate(6.6664853,-2.261347)"
       aria-label="3">
      <path
         id="path146"
         style="font-size:3.52778px"
         d="m 12.065214,222.06663 q 0,0.18776 -0.07062,0.34279 -0.0689,0.15503 -0.203261,0.26355 -0.136082,0.10852 -0.320394,0.16709 -0.182591,0.0568 -0.44614,0.0568 -0.299724,0 -0.515043,-0.0499 -0.213596,-0.05 -0.347954,-0.11197 v -0.55638 h 0.06201 q 0.141249,0.0896 0.33073,0.15503 0.191203,0.0654 0.347955,0.0654 0.09302,0 0.201538,-0.0155 0.110243,-0.0172 0.184312,-0.0724 0.05857,-0.0431 0.09302,-0.10507 0.03617,-0.0637 0.03617,-0.17915 0,-0.11369 -0.04995,-0.17397 -0.04995,-0.062 -0.132637,-0.0896 -0.08268,-0.0293 -0.198093,-0.0327 -0.11541,-0.003 -0.20326,-0.003 h -0.110244 v -0.45131 h 0.101631 q 0.117133,0 0.215318,-0.0103 0.09819,-0.0103 0.167088,-0.0413 0.0689,-0.0327 0.106798,-0.0913 0.03962,-0.0586 0.03962,-0.15847 0,-0.0775 -0.03617,-0.12575 -0.03617,-0.0499 -0.08957,-0.0775 -0.06201,-0.031 -0.144694,-0.0413 -0.08268,-0.0103 -0.141249,-0.0103 -0.09474,0 -0.192925,0.0224 -0.09819,0.0224 -0.191203,0.0569 -0.07235,0.0276 -0.151585,0.0723 -0.07924,0.0431 -0.117133,0.0655 h -0.0534 v -0.54949 q 0.132636,-0.0568 0.356568,-0.10852 0.225654,-0.0534 0.45992,-0.0534 0.229099,0 0.396187,0.0396 0.168809,0.0396 0.287665,0.11541 0.130914,0.081 0.196371,0.2067 0.06546,0.12403 0.06546,0.28078 0,0.21876 -0.127469,0.38413 -0.125746,0.16364 -0.332452,0.21187 v 0.0241 q 0.0913,0.0138 0.177423,0.0465 0.08785,0.0327 0.170532,0.1068 0.07752,0.0672 0.127469,0.17398 0.05168,0.10507 0.05168,0.25149 z" />
    </g>
    <g
       transform="translate(2.5399998,-5.079995)"
       style="font-weight:bold;font-size:3.52778px;line-height:1.25;font-family:Tahoma;-inkscape-font-specification:'Tahoma, Bold';letter-spacing:0px;stroke-width:0.264583"
       id="text122"
       aria-label="4">
      <path
         id="path149"
         style="font-size:3.52778px;stroke-width:0.264583"
         d="m 16.288174,237.76125 h -0.346233 v 0.60462 h -0.62184 v -0.60462 h -1.128269 v -0.47886 l 1.107599,-1.48829 h 0.64251 v 1.50551 h 0.346233 z m -0.968073,-0.46164 v -0.87333 l -0.649401,0.87333 z" />
    </g>
    <g
       transform="translate(2.5399983,-5.080028)"
       style="font-weight:bold;font-size:3.52778px;line-height:1.25;font-family:Tahoma;-inkscape-font-specification:'Tahoma, Bold';letter-spacing:0px;stroke-width:0.264583"
       id="text126"
       aria-label="5">
      <path
         id="path152"
         style="font-size:3.52778px;stroke-width:0.264583"
         d="m 16.179653,250.16757 q 0,0.19982 -0.0689,0.37035 -0.06718,0.17053 -0.203261,0.29456 -0.134359,0.1223 -0.320394,0.18948 -0.184313,0.0672 -0.454753,0.0672 -0.285943,-0.002 -0.492649,-0.05 -0.204983,-0.0465 -0.339342,-0.10507 v -0.55983 h 0.05857 q 0.04823,0.0276 0.10852,0.062 0.06029,0.0344 0.158475,0.0724 0.0913,0.0362 0.184312,0.0603 0.09474,0.0224 0.210151,0.0224 0.09991,0 0.215319,-0.0241 0.115411,-0.0258 0.186035,-0.0913 0.05168,-0.0517 0.08096,-0.11541 0.02928,-0.0637 0.02928,-0.17054 0,-0.0896 -0.0379,-0.1533 -0.03617,-0.0655 -0.09646,-0.10508 -0.08785,-0.0586 -0.211874,-0.0741 -0.124023,-0.0172 -0.213596,-0.0172 -0.141249,0 -0.275608,0.0224 -0.132636,0.0224 -0.230821,0.0482 h -0.05512 v -1.44005 h 1.698433 v 0.48404 h -1.090373 v 0.42719 q 0.05168,-0.003 0.122301,-0.005 0.07235,-0.003 0.111965,-0.003 0.184313,0 0.341065,0.0379 0.156752,0.0362 0.27733,0.11369 0.146417,0.0947 0.227377,0.25494 0.08096,0.15847 0.08096,0.38757 z" />
    </g>
    <g
       transform="translate(2.5400028,-7.6200314)"
       style="font-weight:bold;font-size:3.52778px;line-height:1.25;font-family:Tahoma;-inkscape-font-specification:'Tahoma, Bold';letter-spacing:0px;stroke-width:0.264583"
       id="text130"
       aria-label="6">
      <path
         id="path155"
         style="font-size:3.52778px;stroke-width:0.264583"
         d="m 16.220133,262.88652 q 0,0.4048 -0.25666,0.66663 -0.25666,0.26011 -0.704522,0.26011 -0.223932,0 -0.399632,-0.0637 -0.1757,-0.0654 -0.298001,-0.1912 -0.146416,-0.14814 -0.223931,-0.38241 -0.07752,-0.23426 -0.07752,-0.55983 0,-0.33761 0.07235,-0.59944 0.07235,-0.26183 0.23599,-0.46337 0.156752,-0.1912 0.409966,-0.298 0.253215,-0.10852 0.599447,-0.10852 0.125746,0 0.251492,0.0172 0.127469,0.0155 0.173978,0.0258 v 0.50471 h -0.04651 q -0.04479,-0.0224 -0.148139,-0.05 -0.103353,-0.0293 -0.235989,-0.0293 -0.301446,0 -0.465089,0.15848 -0.163642,0.15847 -0.201538,0.45475 0.125746,-0.081 0.254937,-0.12919 0.130914,-0.0482 0.294556,-0.0482 0.137804,0 0.258383,0.0379 0.122301,0.0362 0.217041,0.1068 0.132636,0.10163 0.210151,0.267 0.07924,0.16536 0.07924,0.42374 z m -0.747586,0.38758 q 0.04995,-0.062 0.07579,-0.13436 0.02756,-0.0741 0.02756,-0.22221 0,-0.12402 -0.03101,-0.20498 -0.03101,-0.081 -0.08785,-0.12919 -0.05684,-0.0482 -0.129191,-0.0655 -0.07235,-0.019 -0.153307,-0.019 -0.06718,0 -0.139527,0.0172 -0.07062,0.0172 -0.132636,0.0431 0,0.0172 -0.0017,0.0568 -0.0017,0.0396 -0.0017,0.0999 0,0.22049 0.0379,0.35485 0.03962,0.13436 0.09819,0.20326 0.04479,0.0551 0.101631,0.0792 0.05857,0.0241 0.122301,0.0241 0.05168,0 0.111965,-0.0258 0.06029,-0.0258 0.101631,-0.0775 z" />
    </g>
    <g
       transform="translate(2.5400003,-7.6199898)"
       style="font-weight:bold;font-size:3.52778px;line-height:1.25;font-family:Tahoma;-inkscape-font-specification:'Tahoma, Bold';letter-spacing:0px;stroke-width:0.264583"
       id="text134"
       aria-label="7">
      <path
         id="path158"
         style="font-size:3.52778px;stroke-width:0.264583"
         d="m 16.183098,271.86742 -1.092096,2.055 h -0.716581 l 1.145495,-2.08083 h -1.223009 v -0.48404 h 1.886191 z" />
    </g>
    <g
       transform="translate(2.5399998,-5.0800528)"
       style="font-weight:bold;font-size:3.52778px;line-height:1.25;font-family:Tahoma;-inkscape-font-specification:'Tahoma, Bold';letter-spacing:0px;stroke-width:0.264583"
       id="text138"
       aria-label="8">
      <path
         id="path161"
         style="font-size:3.52778px;stroke-width:0.264583"
         d="m 16.254585,283.36757 q 0,0.16536 -0.0689,0.30834 -0.06718,0.14125 -0.198094,0.2446 -0.130913,0.10335 -0.320394,0.16192 -0.187757,0.0586 -0.430637,0.0586 -0.258382,0 -0.45303,-0.0586 -0.194648,-0.0603 -0.318672,-0.16192 -0.122301,-0.10163 -0.180867,-0.23944 -0.05857,-0.1378 -0.05857,-0.29111 0,-0.22048 0.120578,-0.3669 0.122301,-0.14642 0.353123,-0.2446 v -0.0103 q -0.225654,-0.11024 -0.315227,-0.26699 -0.08957,-0.15675 -0.08957,-0.34968 0,-0.14125 0.06201,-0.26527 0.06201,-0.12403 0.186035,-0.22221 0.117133,-0.093 0.296278,-0.14814 0.180868,-0.0568 0.404799,-0.0568 0.237712,0 0.413412,0.0517 0.177423,0.05 0.291111,0.13264 0.117133,0.0844 0.179145,0.20498 0.06201,0.11886 0.06201,0.25838 0,0.18259 -0.106798,0.33073 -0.105076,0.14642 -0.32384,0.24633 v 0.0103 q 0.254938,0.10336 0.375516,0.27217 0.120579,0.16708 0.120579,0.40135 z m -0.68902,-1.18511 q 0,-0.13092 -0.08613,-0.20843 -0.08613,-0.0792 -0.234267,-0.0792 -0.141249,0 -0.229099,0.0706 -0.08613,0.0706 -0.08613,0.17397 0,0.10336 0.05168,0.16709 0.0534,0.062 0.163642,0.11541 0.04823,0.0241 0.113688,0.0499 0.06718,0.0258 0.177423,0.0672 0.06718,-0.0879 0.09818,-0.16881 0.03101,-0.0827 0.03101,-0.18775 z m 0.0534,1.21267 q 0,-0.12575 -0.0534,-0.19292 -0.0534,-0.0672 -0.229099,-0.15159 -0.04995,-0.0241 -0.144694,-0.0603 -0.09302,-0.0362 -0.165365,-0.0672 -0.06718,0.0672 -0.120578,0.16709 -0.05168,0.0982 -0.05168,0.21704 0,0.17915 0.113689,0.28594 0.113688,0.1068 0.299723,0.1068 0.04995,0 0.113688,-0.0155 0.06546,-0.0172 0.115411,-0.0517 0.05512,-0.0396 0.08785,-0.093 0.03445,-0.0534 0.03445,-0.1447 z" />
    </g>
  </g>
  <g
     style="display:inline"
     inkscape:label="components"
     id="layer2"
     inkscape:groupmode="layer">
    <circle
       r="0.035242248"
       cy="-48.154167"
       cx="-43.920834"
       style="fill:#000000;stroke:#000000;stroke-width:0.264583"
       id="path30" />
    <circle
       r="0.0088105621"
       cy="-2.5135417"
       cx="-32.279167"
       style="fill:#000000;stroke:#000000;stroke-width:0.264583"
       id="path32" />
    <circle
       r="0.0088105621"
       cy="0.1984375"
       cx="-17.991667"
       style="fill:#000000;stroke:#000000;stroke-width:0.264583"
       id="path34" />
    <circle
       r="0.0088105621"
       cy="2.9104166"
       cx="-25.069271"
       style="fill:#000000;stroke:#000000;stroke-width:0.264583"
       id="path36" />
    <text
       id="text42"
       y="11.90625"
       x="-38.695312"
       style="font-size:10.5833px;line-height:1.25;font-family:'Eras Bold ITC';-inkscape-font-specification:'Eras Bold ITC';stroke-width:0.264583"
       xml:space="preserve"><tspan
         style="font-style:normal;font-variant:normal;font-weight:bold;font-stretch:normal;font-size:3.52778px;font-family:Garamond;-inkscape-font-specification:'Garamond Bold';stroke-width:0.264583"
         y="11.90625"
         x="-38.695312"
         id="tspan40"
         sodipodi:role="line" /></text>
    <text
       id="text78"
       y="16.668749"
       x="-45.111458"
       style="font-size:10.5833px;line-height:1.25;font-family:'Eras Bold ITC';-inkscape-font-specification:'Eras Bold ITC';stroke-width:0.264583"
       xml:space="preserve"><tspan
         style="stroke-width:0.264583"
         y="16.668749"
         x="-45.111458"
         id="tspan76"
         sodipodi:role="line" /></text>
  </g>
</svg>
