<?xml version="1.0" encoding="UTF-8" standalone="no"?>
<svg
   xmlns:dc="http://purl.org/dc/elements/1.1/"
   xmlns:cc="http://creativecommons.org/ns#"
   xmlns:rdf="http://www.w3.org/1999/02/22-rdf-syntax-ns#"
   xmlns:svg="http://www.w3.org/2000/svg"
   xmlns="http://www.w3.org/2000/svg"
   xmlns:sodipodi="http://sodipodi.sourceforge.net/DTD/sodipodi-0.dtd"
   xmlns:inkscape="http://www.inkscape.org/namespaces/inkscape"
   sodipodi:docname="PokeMe.svg"
   inkscape:version="1.0 (4035a4fb49, 2020-05-01)"
   id="svg8"
   version="1.1"
   viewBox="0 0 15.240001 128.50002"
   height="128.5mm"
   width="15.24mm">
  <defs
     id="defs2">
    <inkscape:path-effect
       effect="fillet_chamfer"
       id="path-effect95"
       is_visible="true"
       lpeversion="1"
       satellites_param="F,0,0,1,0,4,0,1 @ F,0,0,1,0,4,0,1 @ F,0,0,1,0,4,0,1 @ F,0,0,1,0,4,0,1"
       unit="mm"
       method="auto"
       mode="F"
       radius="4"
       chamfer_steps="1"
       flexible="false"
       use_knot_distance="true"
       apply_no_radius="true"
       apply_with_radius="true"
       only_selected="false"
       hide_knots="false" />
    <inkscape:path-effect
       effect="fillet_chamfer"
       id="path-effect105"
       is_visible="true"
       lpeversion="1"
       satellites_param="F,0,0,1,0,4,0,1 @ F,0,0,1,0,4,0,1 @ F,0,0,1,0,4,0,1 @ F,0,0,1,0,4,0,1"
       unit="mm"
       method="auto"
       mode="F"
       radius="4"
       chamfer_steps="1"
       flexible="false"
       use_knot_distance="true"
       apply_no_radius="true"
       apply_with_radius="true"
       only_selected="false"
       hide_knots="false" />
    <inkscape:path-effect
       effect="fillet_chamfer"
       id="path-effect96"
       is_visible="true"
       lpeversion="1"
       satellites_param="F,0,0,1,0,4,0,1 @ F,0,0,1,0,4,0,1 @ F,0,0,1,0,4,0,1 @ F,0,0,1,0,4,0,1"
       unit="mm"
       method="auto"
       mode="F"
       radius="4"
       chamfer_steps="1"
       flexible="false"
       use_knot_distance="true"
       apply_no_radius="true"
       apply_with_radius="true"
       only_selected="false"
       hide_knots="false" />
    <inkscape:path-effect
       hide_knots="false"
       only_selected="false"
       apply_with_radius="true"
       apply_no_radius="true"
       use_knot_distance="true"
       flexible="false"
       chamfer_steps="1"
       radius="4"
       mode="F"
       method="auto"
       unit="mm"
       satellites_param="F,0,0,1,0,4,0,1 @ F,0,0,1,0,4,0,1 @ F,0,0,1,0,4,0,1 @ F,0,0,1,0,4,0,1"
       lpeversion="1"
       is_visible="true"
       id="path-effect77"
       effect="fillet_chamfer" />
    <inkscape:path-effect
       hide_knots="false"
       only_selected="false"
       apply_with_radius="true"
       apply_no_radius="true"
       use_knot_distance="true"
       flexible="false"
       chamfer_steps="1"
       radius="4"
       mode="F"
       method="auto"
       unit="mm"
       satellites_param="F,0,0,1,0,4,0,1 @ F,0,0,1,0,4,0,1 @ F,0,0,1,0,4,0,1 @ F,0,0,1,0,4,0,1"
       lpeversion="1"
       is_visible="true"
       id="path-effect161"
       effect="fillet_chamfer" />
    <inkscape:path-effect
       hide_knots="false"
       only_selected="false"
       apply_with_radius="true"
       apply_no_radius="true"
       use_knot_distance="true"
       flexible="false"
       chamfer_steps="1"
       radius="4"
       mode="F"
       method="auto"
       unit="mm"
       satellites_param="F,0,0,1,0,4,0,1 @ F,0,0,1,0,4,0,1 @ F,0,0,1,0,4,0,1 @ F,0,0,1,0,4,0,1"
       lpeversion="1"
       is_visible="true"
       id="path-effect152"
       effect="fillet_chamfer" />
    <inkscape:path-effect
       hide_knots="false"
       only_selected="false"
       apply_with_radius="true"
       apply_no_radius="true"
       use_knot_distance="true"
       flexible="false"
       chamfer_steps="1"
       radius="4"
       mode="F"
       method="auto"
       unit="mm"
       satellites_param="F,0,0,1,0,4,0,1 @ F,0,0,1,0,4,0,1 @ F,0,0,1,0,4,0,1 @ F,0,0,1,0,4,0,1"
       lpeversion="1"
       is_visible="true"
       id="path-effect143"
       effect="fillet_chamfer" />
    <inkscape:path-effect
       effect="fillet_chamfer"
       id="path-effect124"
       is_visible="true"
       lpeversion="1"
       satellites_param="F,0,0,1,0,4,0,1 @ F,0,0,1,0,4,0,1 @ F,0,0,1,0,4,0,1 @ F,0,0,1,0,4,0,1"
       unit="mm"
       method="auto"
       mode="F"
       radius="4"
       chamfer_steps="1"
       flexible="false"
       use_knot_distance="true"
       apply_no_radius="true"
       apply_with_radius="true"
       only_selected="false"
       hide_knots="false" />
    <inkscape:path-effect
       hide_knots="false"
       only_selected="false"
       apply_with_radius="true"
       apply_no_radius="true"
       use_knot_distance="true"
       flexible="false"
       chamfer_steps="1"
       radius="4"
       mode="F"
       method="auto"
       unit="mm"
       satellites_param="F,0,0,1,0,4,0,1 @ F,0,0,1,0,4,0,1 @ F,0,0,1,0,4,0,1 @ F,0,0,1,0,4,0,1"
       lpeversion="1"
       is_visible="true"
       id="path-effect154"
       effect="fillet_chamfer" />
  </defs>
  <sodipodi:namedview
     guidetolerance="28.7"
     gridtolerance="26.6"
     objecttolerance="24.3"
     inkscape:lockguides="false"
     inkscape:document-rotation="0"
     inkscape:snap-nodes="false"
     inkscape:snap-bbox-midpoints="true"
     inkscape:window-maximized="1"
     inkscape:window-y="-11"
     inkscape:window-x="-11"
     inkscape:window-height="1046"
     inkscape:window-width="1780"
     inkscape:snap-bbox-edge-midpoints="false"
     inkscape:bbox-nodes="false"
     inkscape:snap-page="true"
     inkscape:snap-bbox="true"
     units="mm"
     showgrid="true"
     inkscape:current-layer="layer1"
     inkscape:document-units="mm"
     inkscape:cy="146.81082"
     inkscape:cx="146.71862"
     inkscape:zoom="2.0000001"
     inkscape:pageshadow="2"
     inkscape:pageopacity="0.0"
     borderopacity="1.0"
     bordercolor="#666666"
     pagecolor="#ffffff"
     id="base">
    <inkscape:grid
       empspacing="4"
       empopacity="0.25098039"
       empcolor="#71530f"
       spacingy="2.5400004"
       spacingx="2.5400004"
       opacity="0.53333333"
       color="#ffd984"
       units="mm"
       id="grid86"
       type="xygrid" />
  </sodipodi:namedview>
  <metadata
     id="metadata5">
    <rdf:RDF>
      <cc:Work
         rdf:about="">
        <dc:format>image/svg+xml</dc:format>
        <dc:type
           rdf:resource="http://purl.org/dc/dcmitype/StillImage" />
        <dc:title />
        <dc:creator>
          <cc:Agent>
            <dc:title>Firo Lightfog</dc:title>
          </cc:Agent>
        </dc:creator>
      </cc:Work>
    </rdf:RDF>
  </metadata>
  <g
     transform="translate(0,-168.49998)"
     id="layer1"
     inkscape:groupmode="layer"
     inkscape:label="Layer 1"
     style="display:inline">
    <rect
       y="168.49834"
       x="0.068502754"
       height="128.54678"
       width="15.102997"
       id="rect420"
       style="display:inline;opacity:1;vector-effect:none;fill:#cccccc;fill-opacity:1;fill-rule:evenodd;stroke:none;stroke-width:0.457181;stroke-linecap:butt;stroke-linejoin:miter;stroke-miterlimit:4;stroke-dasharray:none;stroke-dashoffset:0;stroke-opacity:1;paint-order:normal" />
    <g
       aria-label="PKM"
       id="text195"
       style="font-weight:bold;font-size:5.64444px;line-height:1.25;font-family:Tahoma;-inkscape-font-specification:'Tahoma, Bold';letter-spacing:0px;stroke-width:0.264583">
      <path
         d="m 4.8570365,292.20346 q 0,0.28663 -0.090951,0.5457 -0.09095,0.25908 -0.261827,0.43271 -0.1047309,0.10749 -0.2315103,0.19844 -0.1240233,0.0909 -0.2756074,0.15434 -0.1515841,0.0634 -0.3307289,0.0992 -0.1763888,0.0358 -0.3968747,0.0358 H 2.7293471 v 1.34221 H 1.6985753 v -4.10379 h 1.593011 q 0.3555336,0 0.6118485,0.0661 0.259071,0.0634 0.4685326,0.20395 0.2315102,0.15434 0.3582897,0.41341 0.1267794,0.25632 0.1267794,0.61185 z m -1.0583326,0.0248 q 0,-0.17364 -0.082682,-0.29766 -0.082682,-0.12678 -0.1984373,-0.17363 -0.146072,-0.0634 -0.2811196,-0.0717 -0.1322916,-0.011 -0.3610457,-0.011 h -0.146072 v 1.22921 h 0.071658 q 0.146072,0 0.2756075,-0.003 0.1295355,-0.003 0.2259981,-0.0193 0.082682,-0.0138 0.1736326,-0.0524 0.093707,-0.0413 0.1433159,-0.091 0.1047308,-0.10197 0.1405598,-0.21222 0.038585,-0.11024 0.038585,-0.29765 z"
         style="font-size:5.64444px;stroke-width:0.264583"
         id="path197" />
      <path
         d="M 9.0104406,295.0119 H 7.764695 l -1.1189662,-1.66742 -0.2011934,0.28112 v 1.3863 H 5.4137636 v -4.10379 h 1.0307718 v 1.82176 l 1.3118913,-1.82176 h 1.1933802 l -1.4634754,1.90444 z"
         style="font-size:5.64444px;stroke-width:0.264583"
         id="path199" />
      <path
         d="m 13.541427,295.0119 h -1.02526 v -2.72024 l -0.746896,1.75562 h -0.702799 l -0.746896,-1.75562 v 2.72024 H 9.349438 v -4.10379 h 1.187868 l 0.909505,2.02571 0.906748,-2.02571 h 1.187868 z"
         style="font-size:5.64444px;stroke-width:0.264583"
         id="path201" />
    </g>
    <text
       id="text59"
       y="277.43234"
       x="1.1693041"
       style="font-size:10.5833px;line-height:1.25;font-family:'Eras Bold ITC';-inkscape-font-specification:'Eras Bold ITC';stroke-width:0.264583"
       xml:space="preserve"><tspan
         style="font-size:2.82222px;fill:#ffff00;stroke-width:0.264583"
         y="277.43234"
         x="1.1693041"
         id="tspan57"
         sodipodi:role="line" /></text>
    <g
       transform="translate(2.5399997,-78.74004)"
       style="font-size:10.5833px;line-height:1.25;font-family:'Eras Bold ITC';-inkscape-font-specification:'Eras Bold ITC';fill:#000000;stroke-width:0.264583"
       id="text63"
       aria-label="OUT">
      <path
         id="path65"
         style="font-size:2.82222px;fill:#000000;stroke-width:0.264583"
         d="m 3.0694446,276.74367 q 0.2204859,0 0.4244354,0.0593 0.2039495,0.0593 0.3569116,0.19017 0.1529622,0.12953 0.2287542,0.29903 0.075792,0.1695 0.075792,0.38999 0,0.23151 -0.08406,0.42581 -0.082682,0.19292 -0.2397785,0.32797 -0.1570962,0.13505 -0.3748261,0.19844 -0.2177299,0.062 -0.4533742,0.062 -0.2328883,0 -0.4464841,-0.0606 -0.2135957,-0.062 -0.37207,-0.19844 -0.1570962,-0.1378 -0.223242,-0.30592 -0.066146,-0.16812 -0.066146,-0.37345 0,-0.30179 0.1391818,-0.52917 0.1405598,-0.22875 0.4147892,-0.35691 0.2756074,-0.12816 0.6201167,-0.12816 z m -0.024805,0.41479 q -0.1584743,0 -0.2866317,0.0786 -0.1281575,0.0772 -0.1970593,0.21635 -0.068902,0.13781 -0.068902,0.29628 0,0.14607 0.062012,0.26734 0.06339,0.12127 0.1915471,0.19017 0.1281575,0.0675 0.2714734,0.0675 0.1529621,0 0.2797415,-0.0758 0.1281575,-0.0772 0.1943032,-0.21497 0.067524,-0.13919 0.067524,-0.29077 0,-0.14745 -0.062012,-0.27147 -0.062012,-0.1254 -0.1819009,-0.19431 -0.1198892,-0.0689 -0.2700953,-0.0689 z" />
      <path
         id="path67"
         style="font-size:2.82222px;fill:#000000;stroke-width:0.264583"
         d="m 4.461262,276.7795 q 0.2149738,0.003 0.3031682,0.003 0.110243,0 0.2935219,-0.003 l -0.041341,0.58567 q -0.012402,0.16536 -0.019292,0.31006 -0.00551,0.14469 -0.00551,0.19981 0,0.10473 0.015158,0.17501 0.015158,0.0703 0.055122,0.11989 0.039963,0.0482 0.110243,0.073 0.071658,0.0248 0.148828,0.0248 0.066146,0 0.1240233,-0.0152 0.045475,-0.0124 0.081304,-0.0344 0.031695,-0.0207 0.055122,-0.0482 0.028939,-0.0331 0.050987,-0.0827 0.022049,-0.0469 0.033073,-0.12127 0.012402,-0.0758 0.033073,-0.34451 0.017914,-0.22875 0.027561,-0.41892 0.00827,-0.18466 0.015158,-0.42306 0.2080836,0.003 0.3279729,0.003 l 0.2797415,-0.003 -0.067524,0.97841 q -0.00138,0.0276 -0.00138,0.0455 -0.00551,0.28664 -0.035829,0.40515 -0.028939,0.11713 -0.097841,0.20395 -0.068902,0.0868 -0.2011934,0.15709 -0.1322915,0.0689 -0.3004121,0.0978 -0.1681205,0.0289 -0.3403752,0.0289 -0.1543401,0 -0.297656,-0.022 -0.1322915,-0.0221 -0.2384004,-0.0634 -0.1061089,-0.0427 -0.184657,-0.0992 -0.071658,-0.0524 -0.110243,-0.1061 -0.038585,-0.0551 -0.060634,-0.13092 -0.024805,-0.0854 -0.024805,-0.18328 0,-0.0331 0.00276,-0.0992 0.00276,-0.0675 0.012402,-0.19292 l 0.017914,-0.22049 q 0.00689,-0.0868 0.015158,-0.25493 z" />
      <path
         id="path69"
         style="font-size:2.82222px;fill:#000000;stroke-width:0.264583"
         d="m 6.9913383,278.66052 q 0.068902,-0.66972 0.082682,-1.4745 l -0.5870439,0.0152 0.00689,-0.15296 q 0.00551,-0.12265 0.00827,-0.26872 0.3913626,0.003 0.9122606,0.003 l 0.3403752,-10e-4 h 0.3307289 l 0.1791449,-0.001 -0.00827,0.13367 q -0.00551,0.10749 -0.00827,0.17777 -0.00138,0.0703 -0.00138,0.10611 -0.2949,-0.0138 -0.4864471,-0.0138 h -0.096463 q -0.020671,0.24391 -0.031695,0.45061 -0.015158,0.29628 -0.023427,0.57602 -0.00827,0.27837 -0.00827,0.45062 -0.2259981,-0.003 -0.2921439,-0.003 -0.059256,0 -0.3169486,0.003 z" />
    </g>
    <path
       style="display:inline;fill:#de8787;stroke-width:0.252486"
       d="M -0.17291861,193.98499 H 15.142185 l 0.270736,9.98999 H 0.09781639 Z"
       id="rect48-1-6" />
    <text
       id="text127"
       y="172.05467"
       x="-78.577248"
       style="font-size:10.5833px;line-height:1.25;font-family:'Eras Bold ITC';-inkscape-font-specification:'Eras Bold ITC';stroke-width:0.264583"
       xml:space="preserve"><tspan
         style="stroke-width:0.264583"
         y="172.05467"
         x="-78.577248"
         id="tspan125"
         sodipodi:role="line" /></text>
    <text
       id="text131"
       y="186.46049"
       x="-89.989647"
       style="font-size:10.5833px;line-height:1.25;font-family:'Eras Bold ITC';-inkscape-font-specification:'Eras Bold ITC';stroke-width:0.264583"
       xml:space="preserve"><tspan
         style="stroke-width:0.264583"
         y="186.46049"
         x="-89.989647"
         id="tspan129"
         sodipodi:role="line" /></text>
    <g
       aria-label="b"
       transform="translate(2.5400005,168.49998)"
       id="text51"
       style="font-weight:bold;font-size:6.08438px;line-height:1.25;font-family:'Wingdings 2';-inkscape-font-specification:'Wingdings 2 Bold';display:inline;fill:#000000;stroke-width:0.142602">
      <path
         d="M 2.1105974,0.92680782 V 1.2209258 q 0.1693407,0 0.2554965,0.086156 0.089127,0.086156 0.1693406,0.3297686 l 0.047534,0.1485445 Q 2.7433967,2.2785622 3.1088161,2.4330484 2.7701347,2.498408 2.5681143,2.712312 2.3690648,2.9232451 2.3690648,3.2143922 q 0,0.4070117 0.3060015,0.6743917 0.3060015,0.2644091 0.775402,0.2644091 0.7130133,0 1.1021997,-0.6120031 L 4.3239095,3.3480821 Q 4.071384,3.618433 3.804004,3.618433 3.5841583,3.618433 3.4267011,3.4758304 3.269244,3.3302568 3.269244,3.1312073 q 0,-0.1663698 0.1218065,-0.2881762 0.1247773,-0.1218065 0.2911471,-0.1218065 0.3000597,0 0.8407615,0.4248371 l 0.1812242,0.1426027 q 0.882354,0.6951879 1.6844939,0.6951879 0.695188,0 1.176472,-0.4575168 Q 8.049404,3.0688186 8.049404,2.4122522 8.049404,1.7467731 7.5502947,1.3367905 7.0511854,0.92680782 6.2401328,0.92680782 H 6.1420935 V 1.2209258 q 0.4812839,0.03268 0.7635184,0.3357104 0.2822344,0.3000598 0.2822344,0.7813438 0,0.4753422 -0.3565066,0.8140235 -0.3565067,0.3357104 -0.8615578,0.3357104 -0.4872257,0 -0.8674995,-0.2970889 -0.3802738,-0.2970888 -0.3802738,-0.6773626 0,-0.1812242 0.1158647,-0.3060015 0.1188356,-0.1247774 0.2911471,-0.1247774 0.1723115,0 0.2584673,0.095068 0.089127,0.092097 0.089127,0.2822344 0,0.1158647 -0.06536,0.2733218 l 0.26738,0.1218064 Q 5.856888,2.4330479 5.856888,2.1478426 5.856888,1.7972777 5.6281296,1.5477231 5.4023422,1.295198 5.0814862,1.295198 q -0.2049913,0 -0.374332,0.1010102 Q 4.5378135,1.4972185 4.4041235,1.7022098 4.231812,1.2714309 3.85748,1.0991194 3.4861189,0.92680782 2.7285423,0.92680782 Z M 4.2496373,2.3766015 Q 3.8129167,2.2934166 3.4504683,1.6487338 L 3.3999632,1.562578 Q 3.242506,1.2833145 3.0196894,1.1971587 q 1.1348795,0 1.2299479,1.1794428 z"
         style="font-size:6.08438px;fill:#000000;stroke-width:0.142602"
         id="path49" />
    </g>
  </g>
  <g
     style="display:inline"
     inkscape:label="components"
     id="layer2"
     inkscape:groupmode="layer">
    <circle
       r="0.035242248"
       cy="-48.154167"
       cx="-43.920834"
       style="fill:#000000;stroke:#000000;stroke-width:0.264583"
       id="path30" />
    <circle
       r="0.0088105621"
       cy="-2.5135417"
       cx="-32.279167"
       style="fill:#000000;stroke:#000000;stroke-width:0.264583"
       id="path32" />
    <circle
       r="0.0088105621"
       cy="0.1984375"
       cx="-17.991667"
       style="fill:#000000;stroke:#000000;stroke-width:0.264583"
       id="path34" />
    <circle
       r="0.0088105621"
       cy="2.9104166"
       cx="-25.069271"
       style="fill:#000000;stroke:#000000;stroke-width:0.264583"
       id="path36" />
    <text
       id="text42"
       y="11.90625"
       x="-38.695312"
       style="font-size:10.5833px;line-height:1.25;font-family:'Eras Bold ITC';-inkscape-font-specification:'Eras Bold ITC';stroke-width:0.264583"
       xml:space="preserve"><tspan
         style="font-style:normal;font-variant:normal;font-weight:bold;font-stretch:normal;font-size:3.52778px;font-family:Garamond;-inkscape-font-specification:'Garamond Bold';stroke-width:0.264583"
         y="11.90625"
         x="-38.695312"
         id="tspan40"
         sodipodi:role="line" /></text>
    <text
       id="text78"
       y="16.668749"
       x="-45.111458"
       style="font-size:10.5833px;line-height:1.25;font-family:'Eras Bold ITC';-inkscape-font-specification:'Eras Bold ITC';stroke-width:0.264583"
       xml:space="preserve"><tspan
         style="stroke-width:0.264583"
         y="16.668749"
         x="-45.111458"
         id="tspan76"
         sodipodi:role="line" /></text>
  </g>
</svg>
