<?xml version="1.0" encoding="UTF-8" standalone="no"?>
<svg
   xmlns:dc="http://purl.org/dc/elements/1.1/"
   xmlns:cc="http://creativecommons.org/ns#"
   xmlns:rdf="http://www.w3.org/1999/02/22-rdf-syntax-ns#"
   xmlns:svg="http://www.w3.org/2000/svg"
   xmlns="http://www.w3.org/2000/svg"
   xmlns:sodipodi="http://sodipodi.sourceforge.net/DTD/sodipodi-0.dtd"
   xmlns:inkscape="http://www.inkscape.org/namespaces/inkscape"
   sodipodi:docname="PolyExp8.svg"
   inkscape:version="1.0 (4035a4fb49, 2020-05-01)"
   id="svg8"
   version="1.1"
   viewBox="0 0 10.160001 128.50002"
   height="128.5mm"
   width="10.16mm">
  <defs
     id="defs2">
    <inkscape:path-effect
       hide_knots="false"
       only_selected="false"
       apply_with_radius="true"
       apply_no_radius="true"
       use_knot_distance="true"
       flexible="false"
       chamfer_steps="1"
       radius="0"
       mode="F"
       method="auto"
       unit="mm"
       satellites_param="F,0,0,1,0,0,0,1 @ F,0,0,1,0,0,0,1 @ F,0,0,1,0,0,0,1 @ F,0,0,1,0,0,0,1"
       lpeversion="1"
       is_visible="true"
       id="path-effect77"
       effect="fillet_chamfer" />
  </defs>
  <sodipodi:namedview
     inkscape:snap-others="true"
     guidetolerance="10000"
     gridtolerance="10000"
     objecttolerance="10000"
     inkscape:lockguides="false"
     inkscape:document-rotation="0"
     inkscape:snap-nodes="false"
     inkscape:snap-bbox-midpoints="true"
     inkscape:window-maximized="1"
     inkscape:window-y="-11"
     inkscape:window-x="-11"
     inkscape:window-height="1046"
     inkscape:window-width="1780"
     inkscape:snap-bbox-edge-midpoints="false"
     inkscape:bbox-nodes="false"
     inkscape:snap-page="true"
     inkscape:snap-bbox="true"
     units="mm"
     showgrid="true"
     inkscape:current-layer="layer1"
     inkscape:document-units="mm"
     inkscape:cy="355.0404"
     inkscape:cx="-17.572327"
     inkscape:zoom="2.8284272"
     inkscape:pageshadow="2"
     inkscape:pageopacity="0.0"
     borderopacity="1.0"
     bordercolor="#666666"
     pagecolor="#ffffff"
     id="base">
    <inkscape:grid
       empspacing="4"
       empopacity="0.25098039"
       empcolor="#71530f"
       spacingy="2.5400004"
       spacingx="2.5400004"
       opacity="0.53333333"
       color="#ffd984"
       units="mm"
       id="grid86"
       type="xygrid" />
  </sodipodi:namedview>
  <metadata
     id="metadata5">
    <rdf:RDF>
      <cc:Work
         rdf:about="">
        <dc:format>image/svg+xml</dc:format>
        <dc:type
           rdf:resource="http://purl.org/dc/dcmitype/StillImage" />
        <dc:title />
        <dc:creator>
          <cc:Agent>
            <dc:title>Firo Lightfog</dc:title>
          </cc:Agent>
        </dc:creator>
      </cc:Work>
    </rdf:RDF>
  </metadata>
  <g
     transform="translate(0,-168.49998)"
     id="layer1"
     inkscape:groupmode="layer"
     inkscape:label="Layer 1"
     style="display:inline">
    <rect
       y="167.74997"
       x="-0.071813658"
       height="129.26068"
       width="10.303629"
       id="rect420"
       style="display:inline;opacity:1;vector-effect:none;fill:#cccccc;fill-opacity:1;fill-rule:evenodd;stroke:none;stroke-width:0.378664;stroke-linecap:butt;stroke-linejoin:miter;stroke-miterlimit:4;stroke-dasharray:none;stroke-dashoffset:0;stroke-opacity:1;paint-order:normal" />
    <g
       style="font-weight:bold;font-size:4.23333px;line-height:1.25;font-family:Tahoma;-inkscape-font-specification:'Tahoma, Bold';letter-spacing:0px;stroke-width:0.264583"
       id="text61"
       aria-label="PE8">
      <path
         id="path63"
         style="stroke-width:0.264583"
         d="m 3.6299615,292.3926 q 0,0.21498 -0.068213,0.40928 -0.068213,0.1943 -0.1963702,0.32453 -0.078548,0.0806 -0.1736327,0.14882 -0.093017,0.0682 -0.2067056,0.11576 -0.113688,0.0475 -0.2480466,0.0744 -0.1322916,0.0269 -0.297656,0.0269 H 2.0341946 v 1.00665 H 1.2611158 v -3.07784 h 1.1947581 q 0.2666502,0 0.4588864,0.0496 0.1943032,0.0475 0.3513994,0.15296 0.1736327,0.11575 0.2687172,0.31006 0.095085,0.19223 0.095085,0.45888 z m -0.7937494,0.0186 q 0,-0.13023 -0.062012,-0.22325 -0.062012,-0.0951 -0.148828,-0.13022 -0.109554,-0.0475 -0.2108397,-0.0537 -0.099219,-0.008 -0.2707843,-0.008 H 2.0341946 v 0.9219 h 0.053743 q 0.109554,0 0.2067056,-0.002 0.097152,-0.002 0.1694985,-0.0145 0.062012,-0.0103 0.1302245,-0.0393 0.07028,-0.031 0.1074869,-0.0682 0.078548,-0.0765 0.1054199,-0.15916 0.028939,-0.0827 0.028939,-0.22324 z" />
      <path
         id="path65"
         style="stroke-width:0.264583"
         d="m 4.0475066,294.49893 v -3.07784 h 2.0815249 v 0.58704 H 4.8164513 v 0.5395 h 1.2092275 v 0.58705 H 4.8164513 v 0.77721 h 1.3125802 v 0.58704 z" />
      <path
         id="path67"
         style="stroke-width:0.264583"
         d="m 8.8988858,293.6411 q 0,0.19844 -0.082682,0.37001 -0.080615,0.1695 -0.2377114,0.29352 -0.1570962,0.12402 -0.3844724,0.1943 -0.225309,0.0703 -0.5167638,0.0703 -0.3100584,0 -0.5436357,-0.0703 -0.2335772,-0.0723 -0.3824052,-0.1943 -0.146761,-0.12196 -0.2170409,-0.28732 -0.07028,-0.16537 -0.07028,-0.34933 0,-0.26459 0.1446939,-0.44029 0.146761,-0.1757 0.4237464,-0.29352 v -0.0124 q -0.2707843,-0.13229 -0.3782711,-0.3204 -0.1074869,-0.1881 -0.1074869,-0.41961 0,-0.1695 0.074414,-0.31832 0.074414,-0.14883 0.223242,-0.26665 0.1405597,-0.11163 0.3555335,-0.17777 0.2170409,-0.0682 0.4857581,-0.0682 0.2852536,0 0.4960933,0.062 0.2129067,0.0599 0.3493324,0.15916 0.1405598,0.10129 0.2149738,0.24598 0.074414,0.14263 0.074414,0.31006 0,0.21911 -0.1281575,0.39687 -0.1260904,0.1757 -0.3886064,0.29559 v 0.0124 q 0.3059242,0.12402 0.4506181,0.32659 0.1446939,0.2005 0.1446939,0.48162 z m -0.8268222,-1.42213 q 0,-0.1571 -0.1033528,-0.25011 -0.1033528,-0.0951 -0.2811196,-0.0951 -0.1694985,0 -0.2749184,0.0848 -0.1033527,0.0847 -0.1033527,0.20877 0,0.12403 0.062012,0.20051 0.064079,0.0744 0.1963703,0.13849 0.057878,0.0289 0.1364257,0.0599 0.080615,0.031 0.2129067,0.0806 0.080615,-0.10542 0.1178222,-0.20257 0.037207,-0.0992 0.037207,-0.22531 z m 0.064079,1.45521 q 0,-0.1509 -0.064079,-0.23151 -0.064079,-0.0806 -0.2749184,-0.1819 -0.059945,-0.0289 -0.1736327,-0.0723 -0.111621,-0.0434 -0.1984373,-0.0806 -0.080615,0.0806 -0.1446939,0.20051 -0.062012,0.11782 -0.062012,0.26045 0,0.21497 0.1364257,0.34313 0.1364257,0.12816 0.3596677,0.12816 0.059945,0 0.1364256,-0.0186 0.078548,-0.0207 0.1384927,-0.062 0.066146,-0.0475 0.1054199,-0.11162 0.041341,-0.0641 0.041341,-0.17363 z" />
    </g>
    <text
       id="text59"
       y="277.43234"
       x="1.1693041"
       style="font-size:10.5833px;line-height:1.25;font-family:'Eras Bold ITC';-inkscape-font-specification:'Eras Bold ITC';stroke-width:0.264583"
       xml:space="preserve"><tspan
         style="font-size:2.82222px;fill:#ffff00;stroke-width:0.264583"
         y="277.43234"
         x="1.1693041"
         id="tspan57"
         sodipodi:role="line" /></text>
    <g
       aria-label="b"
       transform="translate(0,168.49998)"
       id="text51"
       style="font-weight:bold;font-size:6.08438px;line-height:1.25;font-family:'Wingdings 2';-inkscape-font-specification:'Wingdings 2 Bold';display:inline;fill:#000000;stroke-width:0.142602">
      <path
         d="M 2.1105974,0.92680782 V 1.2209258 q 0.1693407,0 0.2554965,0.086156 0.089127,0.086156 0.1693406,0.3297686 l 0.047534,0.1485445 Q 2.7433967,2.2785622 3.1088161,2.4330484 2.7701347,2.498408 2.5681143,2.712312 2.3690648,2.9232451 2.3690648,3.2143922 q 0,0.4070117 0.3060015,0.6743917 0.3060015,0.2644091 0.775402,0.2644091 0.7130133,0 1.1021997,-0.6120031 L 4.3239095,3.3480821 Q 4.071384,3.618433 3.804004,3.618433 3.5841583,3.618433 3.4267011,3.4758304 3.269244,3.3302568 3.269244,3.1312073 q 0,-0.1663698 0.1218065,-0.2881762 0.1247773,-0.1218065 0.2911471,-0.1218065 0.3000597,0 0.8407615,0.4248371 l 0.1812242,0.1426027 q 0.882354,0.6951879 1.6844939,0.6951879 0.695188,0 1.176472,-0.4575168 Q 8.049404,3.0688186 8.049404,2.4122522 8.049404,1.7467731 7.5502947,1.3367905 7.0511854,0.92680782 6.2401328,0.92680782 H 6.1420935 V 1.2209258 q 0.4812839,0.03268 0.7635184,0.3357104 0.2822344,0.3000598 0.2822344,0.7813438 0,0.4753422 -0.3565066,0.8140235 -0.3565067,0.3357104 -0.8615578,0.3357104 -0.4872257,0 -0.8674995,-0.2970889 -0.3802738,-0.2970888 -0.3802738,-0.6773626 0,-0.1812242 0.1158647,-0.3060015 0.1188356,-0.1247774 0.2911471,-0.1247774 0.1723115,0 0.2584673,0.095068 0.089127,0.092097 0.089127,0.2822344 0,0.1158647 -0.06536,0.2733218 l 0.26738,0.1218064 q 0.1782533,-0.4218662 0.1782533,-0.7070715 0,-0.3505649 -0.2287584,-0.6001195 Q 5.4023422,1.295198 5.0814862,1.295198 q -0.2049913,0 -0.374332,0.1010102 Q 4.5378135,1.4972185 4.4041235,1.7022098 4.231812,1.2714309 3.85748,1.0991194 3.4861189,0.92680782 2.7285423,0.92680782 Z M 4.2496373,2.3766015 Q 3.8129167,2.2934166 3.4504683,1.6487338 L 3.3999632,1.562578 Q 3.242506,1.2833145 3.0196894,1.1971587 q 1.1348795,0 1.2299479,1.1794428 z"
         style="font-size:6.08438px;fill:#000000;stroke-width:0.142602"
         id="path49" />
    </g>
    <path
       transform="matrix(1,0,0.00224957,0.99999747,0,0)"
       sodipodi:type="rect"
       inkscape:path-effect="#path-effect77"
       style="display:inline;fill:#de8787;stroke-width:0.590713"
       id="rect48-1"
       width="10.323345"
       height="81.123421"
       x="-0.60928738"
       y="193.97887"
       d="M -0.60928738,193.97887 H 9.7140578 v 81.12342 H -0.60928738 Z" />
    <g
       aria-label="PIN"
       id="text236"
       style="font-weight:bold;font-size:2.82222px;line-height:1.25;font-family:Tahoma;-inkscape-font-specification:'Tahoma, Bold';letter-spacing:0px;fill:#000000;stroke-width:0.264583">
      <path
         d="m 4.5910701,277.34172 q 0,0.14332 -0.045475,0.27285 -0.045475,0.12954 -0.1309135,0.21635 -0.052365,0.0538 -0.1157552,0.0992 -0.062012,0.0455 -0.1378037,0.0772 -0.075792,0.0317 -0.1653644,0.0496 -0.088194,0.0179 -0.1984374,0.0179 H 3.5272254 v 0.6711 H 3.0118395 v -2.0519 H 3.808345 q 0.1777668,0 0.3059243,0.0331 0.1295355,0.0317 0.2342663,0.10197 0.1157551,0.0772 0.1791448,0.20671 0.06339,0.12815 0.06339,0.30592 z m -0.5291662,0.0124 q 0,-0.0868 -0.041341,-0.14882 -0.041341,-0.0634 -0.099219,-0.0868 -0.073036,-0.0317 -0.1405598,-0.0358 -0.066146,-0.006 -0.1805229,-0.006 h -0.073036 v 0.6146 h 0.035829 q 0.073036,0 0.1378037,-0.001 0.064768,-0.001 0.1129991,-0.01 0.041341,-0.007 0.086816,-0.0262 0.046853,-0.0207 0.071658,-0.0455 0.052365,-0.051 0.07028,-0.10611 0.019293,-0.0551 0.019293,-0.14883 z"
         style="font-size:2.82222px;fill:#000000;stroke-width:0.264583"
         id="path242" />
      <path
         d="M 5.8919372,278.74594 H 4.7867514 v -0.35829 h 0.2949 v -1.33532 h -0.2949 v -0.35829 h 1.1051858 v 0.35829 H 5.5970373 v 1.33532 h 0.2948999 z"
         style="font-size:2.82222px;fill:#000000;stroke-width:0.264583"
         id="path244" />
      <path
         d="M 7.9948219,278.74594 H 7.4987286 l -0.7909934,-1.4304 v 1.4304 H 6.2364465 v -2.0519 h 0.6325191 l 0.6545676,1.17547 v -1.17547 h 0.4712887 z"
         style="font-size:2.82222px;fill:#000000;stroke-width:0.264583"
         id="path246" />
    </g>
    <g
       aria-label="1-8"
       id="text92"
       style="font-weight:bold;font-size:2.82222px;line-height:1.25;font-family:Tahoma;-inkscape-font-specification:'Tahoma, Bold';letter-spacing:0px;stroke-width:0.264583">
      <path
         d="M 4.2077034,192.38593 H 2.8517148 v -0.35829 h 0.4327037 v -1.08452 H 2.8517148 v -0.33486 q 0.095085,0 0.1887911,-0.0124 0.093707,-0.0124 0.150206,-0.04 0.066146,-0.0331 0.1019748,-0.0882 0.037207,-0.0565 0.042719,-0.13918 H 3.784646 v 1.69912 h 0.4230574 z"
         style="font-size:2.82222px;stroke-width:0.264583"
         id="path98" />
      <path
         d="M 5.4451808,191.6721 H 4.5315421 v -0.38309 h 0.9136387 z"
         style="font-size:2.82222px;stroke-width:0.264583"
         id="path100" />
      <path
         d="m 7.308287,191.81404 q 0,0.13229 -0.055122,0.24667 -0.053743,0.113 -0.1584743,0.19568 -0.1047308,0.0827 -0.2563149,0.12954 -0.1502061,0.0469 -0.3445093,0.0469 -0.2067056,0 -0.3624238,-0.0469 -0.1557182,-0.0482 -0.2549368,-0.12954 -0.097841,-0.0813 -0.1446939,-0.19155 -0.046853,-0.11024 -0.046853,-0.23289 0,-0.17638 0.096463,-0.29352 0.097841,-0.11713 0.2824976,-0.19568 v -0.008 q -0.1805228,-0.0882 -0.2521808,-0.21359 -0.071658,-0.1254 -0.071658,-0.27974 0,-0.113 0.049609,-0.21222 0.049609,-0.0992 0.148828,-0.17777 0.093707,-0.0744 0.2370224,-0.11851 0.1446939,-0.0455 0.3238388,-0.0455 0.1901691,0 0.3307289,0.0413 0.1419378,0.04 0.2328883,0.1061 0.093706,0.0675 0.1433158,0.16399 0.049609,0.0951 0.049609,0.20671 0,0.14607 -0.085438,0.26458 -0.08406,0.11713 -0.259071,0.19706 v 0.008 q 0.2039495,0.0827 0.3004121,0.21773 0.096463,0.13367 0.096463,0.32108 z m -0.5512149,-0.94809 q 0,-0.10473 -0.068902,-0.16674 -0.068902,-0.0634 -0.187413,-0.0634 -0.112999,0 -0.1832789,0.0565 -0.068902,0.0565 -0.068902,0.13918 0,0.0827 0.041341,0.13367 0.042719,0.0496 0.1309135,0.0923 0.038585,0.0193 0.09095,0.04 0.053743,0.0207 0.1419378,0.0537 0.053744,-0.0703 0.078548,-0.13504 0.024805,-0.0662 0.024805,-0.15021 z m 0.042719,0.97014 q 0,-0.1006 -0.042719,-0.15434 -0.042719,-0.0538 -0.1832789,-0.12127 -0.039963,-0.0193 -0.1157552,-0.0482 -0.074414,-0.0289 -0.1322915,-0.0537 -0.053744,0.0537 -0.096463,0.13367 -0.041341,0.0785 -0.041341,0.17363 0,0.14331 0.09095,0.22875 0.09095,0.0854 0.2397785,0.0854 0.039963,0 0.09095,-0.0124 0.052365,-0.0138 0.092328,-0.0413 0.044097,-0.0317 0.07028,-0.0744 0.027561,-0.0427 0.027561,-0.11575 z"
         style="font-size:2.82222px;stroke-width:0.264583"
         id="path102" />
    </g>
    <g
       aria-label="9-16"
       id="text96"
       style="font-weight:bold;font-size:2.82222px;line-height:1.25;font-family:Tahoma;-inkscape-font-specification:'Tahoma, Bold';letter-spacing:0px;stroke-width:0.264583">
      <path
         d="m 3.4373779,176.00423 q 0,0.26183 -0.060634,0.47956 -0.060634,0.21773 -0.1887911,0.37345 -0.1322916,0.15847 -0.3293509,0.24391 -0.1956812,0.0841 -0.4809349,0.0841 -0.096463,0 -0.2011935,-0.0124 -0.1047308,-0.0124 -0.1391817,-0.0221 V 176.747 h 0.039963 q 0.038585,0.0193 0.1088649,0.0413 0.071658,0.0221 0.1970593,0.0221 0.1005967,0 0.1943033,-0.0262 0.093707,-0.0276 0.1612303,-0.0854 0.07028,-0.0606 0.1171332,-0.15158 0.046853,-0.0909 0.06339,-0.22738 -0.110243,0.0689 -0.2053276,0.10611 -0.093707,0.0358 -0.2342663,0.0358 -0.1061088,0 -0.2039495,-0.0276 -0.096463,-0.0289 -0.1763887,-0.0882 -0.1061089,-0.0827 -0.1681206,-0.21222 -0.062012,-0.13091 -0.062012,-0.33762 0,-0.15985 0.053743,-0.2949 0.055122,-0.13643 0.1557182,-0.23702 0.099219,-0.0992 0.2439126,-0.15572 0.1446939,-0.0565 0.3224607,-0.0565 0.1791448,0 0.3183266,0.051 0.1391817,0.0496 0.2384004,0.15296 0.1157551,0.11713 0.1750107,0.30179 0.060634,0.18466 0.060634,0.44648 z m -0.5098737,-0.0772 q 0,-0.16674 -0.028939,-0.27423 -0.027561,-0.10886 -0.078548,-0.16949 -0.035829,-0.0441 -0.081304,-0.0634 -0.044097,-0.0193 -0.096463,-0.0193 -0.045475,0 -0.089572,0.0193 -0.042719,0.0179 -0.082682,0.0634 -0.035829,0.04 -0.060634,0.11713 -0.024805,0.0772 -0.024805,0.1695 0,0.0992 0.024805,0.16398 0.026183,0.0634 0.07028,0.10198 0.044097,0.0372 0.1005967,0.0524 0.0565,0.0152 0.1254014,0.0152 0.057878,0 0.1185112,-0.0152 0.062012,-0.0165 0.099219,-0.0331 0,-0.0152 0.00138,-0.0427 0.00276,-0.0289 0.00276,-0.0854 z"
         style="font-size:2.82222px;stroke-width:0.264583"
         id="path105" />
      <path
         d="M 4.6376483,176.43143 H 3.7240097 v -0.3831 h 0.9136386 z"
         style="font-size:2.82222px;stroke-width:0.264583"
         id="path107" />
      <path
         d="M 6.4153162,177.14525 H 5.0593277 v -0.35829 h 0.4327036 v -1.08452 H 5.0593277 v -0.33486 q 0.095085,0 0.1887911,-0.0124 0.093706,-0.0124 0.150206,-0.04 0.066146,-0.0331 0.1019748,-0.0882 0.037207,-0.0565 0.042719,-0.13918 h 0.4492401 v 1.69912 h 0.4230574 z"
         style="font-size:2.82222px;stroke-width:0.264583"
         id="path109" />
      <path
         d="m 8.2908247,176.44658 q 0,0.32384 -0.2053275,0.5333 -0.2053276,0.20809 -0.5636172,0.20809 -0.1791449,0 -0.3197046,-0.051 -0.1405598,-0.0524 -0.2384005,-0.15296 -0.1171331,-0.11851 -0.1791448,-0.30593 -0.062012,-0.18741 -0.062012,-0.44786 0,-0.27009 0.057878,-0.47956 0.057878,-0.20946 0.1887911,-0.37069 0.1254014,-0.15296 0.3279728,-0.2384 0.2025715,-0.0868 0.4795569,-0.0868 0.1005968,0 0.2011935,0.0138 0.1019747,0.0124 0.1391817,0.0207 v 0.40376 H 8.079985 q -0.035829,-0.0179 -0.1185112,-0.04 -0.082682,-0.0234 -0.1887911,-0.0234 -0.2411565,0 -0.37207,0.12678 -0.1309135,0.12678 -0.1612303,0.3638 0.1005967,-0.0648 0.2039495,-0.10335 0.1047308,-0.0386 0.2356443,-0.0386 0.110243,0 0.2067056,0.0303 0.097841,0.0289 0.1736327,0.0854 0.1061088,0.0813 0.1681205,0.2136 0.06339,0.13229 0.06339,0.33899 z m -0.5980681,0.31006 q 0.039963,-0.0496 0.060634,-0.10748 0.022049,-0.0593 0.022049,-0.17777 0,-0.0992 -0.024805,-0.16399 -0.024805,-0.0648 -0.07028,-0.10335 -0.045475,-0.0386 -0.1033527,-0.0524 -0.057878,-0.0152 -0.1226453,-0.0152 -0.053744,0 -0.1116211,0.0138 -0.056499,0.0138 -0.1061088,0.0345 0,0.0138 -0.00138,0.0455 -0.00138,0.0317 -0.00138,0.0799 0,0.17639 0.030317,0.28387 0.031695,0.10749 0.078548,0.16261 0.035829,0.0441 0.081304,0.0634 0.046853,0.0193 0.097841,0.0193 0.041341,0 0.089572,-0.0207 0.048231,-0.0207 0.081304,-0.062 z"
         style="font-size:2.82222px;stroke-width:0.264583"
         id="path111" />
    </g>
  </g>
  <g
     style="display:none"
     inkscape:label="components"
     id="layer2"
     inkscape:groupmode="layer">
    <circle
       inkscape:label="out9"
       style="display:inline;opacity:1;vector-effect:none;fill:#0000ff;fill-opacity:1;fill-rule:evenodd;stroke:none;stroke-width:1;stroke-linecap:butt;stroke-linejoin:miter;stroke-miterlimit:4;stroke-dasharray:none;stroke-dashoffset:0;stroke-opacity:1;paint-order:normal"
       id="circle9"
       cx="5.0800009"
       cy="91.440018"
       r="4" />
    <circle
       inkscape:label="polyin"
       r="4"
       cy="116.84002"
       cx="5.0800009"
       id="circle11"
       style="display:inline;opacity:1;vector-effect:none;fill:#00ff00;fill-opacity:1;fill-rule:evenodd;stroke:none;stroke-width:1;stroke-linecap:butt;stroke-linejoin:miter;stroke-miterlimit:4;stroke-dasharray:none;stroke-dashoffset:0;stroke-opacity:1;paint-order:normal" />
    <circle
       r="4"
       cy="10.160002"
       cx="5.0800009"
       id="circle1"
       style="display:inline;opacity:1;vector-effect:none;fill:#0000ff;fill-opacity:1;fill-rule:evenodd;stroke:none;stroke-width:1;stroke-linecap:butt;stroke-linejoin:miter;stroke-miterlimit:4;stroke-dasharray:none;stroke-dashoffset:0;stroke-opacity:1;paint-order:normal"
       inkscape:label="out1" />
    <circle
       r="4"
       cy="40.640007"
       cx="5.0800009"
       id="circle4"
       style="display:inline;opacity:1;vector-effect:none;fill:#0000ff;fill-opacity:1;fill-rule:evenodd;stroke:none;stroke-width:1;stroke-linecap:butt;stroke-linejoin:miter;stroke-miterlimit:4;stroke-dasharray:none;stroke-dashoffset:0;stroke-opacity:1;paint-order:normal"
       inkscape:label="out4" />
    <circle
       r="4"
       cy="50.800007"
       cx="5.0800009"
       id="circle5"
       style="display:inline;opacity:1;vector-effect:none;fill:#0000ff;fill-opacity:1;fill-rule:evenodd;stroke:none;stroke-width:1;stroke-linecap:butt;stroke-linejoin:miter;stroke-miterlimit:4;stroke-dasharray:none;stroke-dashoffset:0;stroke-opacity:1;paint-order:normal"
       inkscape:label="out5" />
    <circle
       r="4"
       cy="60.960011"
       cx="5.0800009"
       id="circle6"
       style="display:inline;opacity:1;vector-effect:none;fill:#0000ff;fill-opacity:1;fill-rule:evenodd;stroke:none;stroke-width:1;stroke-linecap:butt;stroke-linejoin:miter;stroke-miterlimit:4;stroke-dasharray:none;stroke-dashoffset:0;stroke-opacity:1;paint-order:normal"
       inkscape:label="out6" />
    <circle
       r="4"
       cy="71.12001"
       cx="5.0800009"
       id="circle7"
       style="display:inline;opacity:1;vector-effect:none;fill:#0000ff;fill-opacity:1;fill-rule:evenodd;stroke:none;stroke-width:1;stroke-linecap:butt;stroke-linejoin:miter;stroke-miterlimit:4;stroke-dasharray:none;stroke-dashoffset:0;stroke-opacity:1;paint-order:normal"
       inkscape:label="out7" />
    <circle
       r="4"
       cy="81.280014"
       cx="5.0800009"
       id="circle8"
       style="display:inline;opacity:1;vector-effect:none;fill:#0000ff;fill-opacity:1;fill-rule:evenodd;stroke:none;stroke-width:1;stroke-linecap:butt;stroke-linejoin:miter;stroke-miterlimit:4;stroke-dasharray:none;stroke-dashoffset:0;stroke-opacity:1;paint-order:normal"
       inkscape:label="out8" />
    <circle
       r="4"
       cy="30.480005"
       cx="5.0800009"
       id="circle3"
       style="display:inline;opacity:1;vector-effect:none;fill:#0000ff;fill-opacity:1;fill-rule:evenodd;stroke:none;stroke-width:1;stroke-linecap:butt;stroke-linejoin:miter;stroke-miterlimit:4;stroke-dasharray:none;stroke-dashoffset:0;stroke-opacity:1;paint-order:normal"
       inkscape:label="out3" />
    <circle
       r="4"
       cy="20.320004"
       cx="5.0800009"
       id="circle2"
       style="display:inline;opacity:1;vector-effect:none;fill:#0000ff;fill-opacity:1;fill-rule:evenodd;stroke:none;stroke-width:1;stroke-linecap:butt;stroke-linejoin:miter;stroke-miterlimit:4;stroke-dasharray:none;stroke-dashoffset:0;stroke-opacity:1;paint-order:normal"
       inkscape:label="out2" />
    <circle
       r="4"
       cy="101.60001"
       cx="5.0800009"
       id="circle10"
       style="display:inline;opacity:1;vector-effect:none;fill:#0000ff;fill-opacity:1;fill-rule:evenodd;stroke:none;stroke-width:1;stroke-linecap:butt;stroke-linejoin:miter;stroke-miterlimit:4;stroke-dasharray:none;stroke-dashoffset:0;stroke-opacity:1;paint-order:normal"
       inkscape:label="out10" />
    <circle
       r="0.035242248"
       cy="-48.154167"
       cx="-43.920834"
       style="fill:#000000;stroke:#000000;stroke-width:0.264583"
       id="path30" />
    <circle
       r="0.0088105621"
       cy="-2.5135417"
       cx="-32.279167"
       style="fill:#000000;stroke:#000000;stroke-width:0.264583"
       id="path32" />
    <circle
       r="0.0088105621"
       cy="0.1984375"
       cx="-17.991667"
       style="fill:#000000;stroke:#000000;stroke-width:0.264583"
       id="path34" />
    <circle
       r="0.0088105621"
       cy="2.9104166"
       cx="-25.069271"
       style="fill:#000000;stroke:#000000;stroke-width:0.264583"
       id="path36" />
    <text
       id="text42"
       y="11.90625"
       x="-38.695312"
       style="font-size:10.5833px;line-height:1.25;font-family:'Eras Bold ITC';-inkscape-font-specification:'Eras Bold ITC';stroke-width:0.264583"
       xml:space="preserve"><tspan
         style="font-style:normal;font-variant:normal;font-weight:bold;font-stretch:normal;font-size:3.52778px;font-family:Garamond;-inkscape-font-specification:'Garamond Bold';stroke-width:0.264583"
         y="11.90625"
         x="-38.695312"
         id="tspan40"
         sodipodi:role="line" /></text>
  </g>
</svg>
