<?xml version="1.0" encoding="UTF-8" standalone="no"?>
<svg
   xmlns:dc="http://purl.org/dc/elements/1.1/"
   xmlns:cc="http://creativecommons.org/ns#"
   xmlns:rdf="http://www.w3.org/1999/02/22-rdf-syntax-ns#"
   xmlns:svg="http://www.w3.org/2000/svg"
   xmlns="http://www.w3.org/2000/svg"
   xmlns:sodipodi="http://sodipodi.sourceforge.net/DTD/sodipodi-0.dtd"
   xmlns:inkscape="http://www.inkscape.org/namespaces/inkscape"
   sodipodi:docname="PolyCopy10.svg"
   inkscape:version="1.0 (4035a4fb49, 2020-05-01)"
   id="svg8"
   version="1.1"
   viewBox="0 0 10.160001 128.50002"
   height="128.5mm"
   width="10.16mm">
  <defs
     id="defs2" />
  <sodipodi:namedview
     guidetolerance="10000"
     gridtolerance="10000"
     objecttolerance="10000"
     inkscape:lockguides="false"
     inkscape:document-rotation="0"
     inkscape:snap-nodes="false"
     inkscape:snap-bbox-midpoints="true"
     inkscape:window-maximized="1"
     inkscape:window-y="-11"
     inkscape:window-x="-11"
     inkscape:window-height="1046"
     inkscape:window-width="1780"
     inkscape:snap-bbox-edge-midpoints="false"
     inkscape:bbox-nodes="false"
     inkscape:snap-page="true"
     inkscape:snap-bbox="true"
     units="mm"
     showgrid="true"
     inkscape:current-layer="layer1"
     inkscape:document-units="mm"
     inkscape:cy="229.44911"
     inkscape:cx="18.446307"
     inkscape:zoom="1.4142136"
     inkscape:pageshadow="2"
     inkscape:pageopacity="0.0"
     borderopacity="1.0"
     bordercolor="#666666"
     pagecolor="#ffffff"
     id="base">
    <inkscape:grid
       empspacing="4"
       empopacity="0.25098039"
       empcolor="#71530f"
       spacingy="2.5400004"
       spacingx="2.5400004"
       opacity="0.53333333"
       color="#ffd984"
       units="mm"
       id="grid86"
       type="xygrid" />
  </sodipodi:namedview>
  <metadata
     id="metadata5">
    <rdf:RDF>
      <cc:Work
         rdf:about="">
        <dc:format>image/svg+xml</dc:format>
        <dc:type
           rdf:resource="http://purl.org/dc/dcmitype/StillImage" />
        <dc:title />
        <dc:creator>
          <cc:Agent>
            <dc:title>Firo Lightfog</dc:title>
          </cc:Agent>
        </dc:creator>
      </cc:Work>
    </rdf:RDF>
  </metadata>
  <g
     transform="translate(0,-168.49998)"
     id="layer1"
     inkscape:groupmode="layer"
     inkscape:label="Layer 1"
     style="display:inline">
    <rect
       y="167.74997"
       x="-0.071813658"
       height="129.26068"
       width="10.303629"
       id="rect420"
       style="display:inline;opacity:1;vector-effect:none;fill:#cccccc;fill-opacity:1;fill-rule:evenodd;stroke:none;stroke-width:0.378664;stroke-linecap:butt;stroke-linejoin:miter;stroke-miterlimit:4;stroke-dasharray:none;stroke-dashoffset:0;stroke-opacity:1;paint-order:normal" />
    <rect
       style="fill:#a02c2c;stroke-width:0.265338"
       id="rect48"
       width="10.583333"
       height="15.965763"
       x="-0.2116657"
       y="274.81711" />
    <g
       transform="translate(-2.6500019e-7,121.92001)"
       style="font-size:10.5833px;line-height:1.25;font-family:'Eras Bold ITC';-inkscape-font-specification:'Eras Bold ITC';fill:#000000;stroke-width:0.264583"
       id="text46"
       aria-label="PC10">
      <path
         id="path48"
         style="font-style:normal;font-variant:normal;font-weight:bold;font-stretch:normal;font-size:3.52778px;font-family:Tahoma;-inkscape-font-specification:'Tahoma Bold';fill:#000000;stroke-width:0.264583"
         d="m 2.6684324,170.56629 q 0,0.17914 -0.056844,0.34106 -0.056844,0.16192 -0.1636421,0.27044 -0.065457,0.0672 -0.1446941,0.12402 -0.077515,0.0568 -0.1722549,0.0965 -0.09474,0.0396 -0.2067059,0.062 -0.1102431,0.0224 -0.248047,0.0224 H 1.3386247 v 0.83888 H 0.69439143 v -2.56487 H 1.6900247 q 0.2222088,0 0.3824058,0.0413 0.1619196,0.0396 0.2928333,0.12747 0.1446941,0.0965 0.2239314,0.25838 0.079237,0.1602 0.079237,0.38241 z m -0.6614587,0.0155 q 0,-0.10852 -0.051677,-0.18604 -0.051676,-0.0792 -0.1240235,-0.10852 -0.091295,-0.0396 -0.1757,-0.0448 -0.082682,-0.007 -0.2256539,-0.007 h -0.091295 v 0.76825 h 0.044786 q 0.091295,0 0.1722549,-0.002 0.08096,-0.002 0.141249,-0.0121 0.051676,-0.009 0.1085205,-0.0327 0.058567,-0.0258 0.089573,-0.0568 0.065457,-0.0637 0.08785,-0.13264 0.024116,-0.0689 0.024116,-0.18603 z" />
      <path
         id="path50"
         style="font-style:normal;font-variant:normal;font-weight:bold;font-stretch:normal;font-size:3.52778px;font-family:Tahoma;-inkscape-font-specification:'Tahoma Bold';fill:#000000;stroke-width:0.264583"
         d="m 4.1222638,172.37152 q -0.5770539,0 -0.916396,-0.34796 -0.3393422,-0.34967 -0.3393422,-0.98185 0,-0.60978 0.3393422,-0.97152 0.3410646,-0.36346 0.9181185,-0.36346 0.1533069,0 0.2756078,0.0172 0.122301,0.0172 0.2342667,0.0482 0.08785,0.0258 0.1912029,0.0706 0.1033529,0.0448 0.1670872,0.0775 v 0.61151 h -0.065457 q -0.046509,-0.0413 -0.1171333,-0.0982 -0.070625,-0.0586 -0.1601971,-0.11369 -0.089573,-0.0551 -0.1980931,-0.093 -0.106798,-0.0396 -0.2239314,-0.0396 -0.1395264,0 -0.2566597,0.0448 -0.1154108,0.0431 -0.2204863,0.15159 -0.096463,0.0982 -0.1584745,0.26527 -0.060289,0.16709 -0.060289,0.39446 0,0.23944 0.063734,0.40308 0.063734,0.16192 0.1670873,0.26183 0.099908,0.0965 0.2222088,0.13952 0.1240235,0.0431 0.2463244,0.0431 0.1274687,0 0.2428794,-0.0413 0.1154108,-0.0431 0.1946481,-0.0947 0.086127,-0.0534 0.1515843,-0.10853 0.065457,-0.0551 0.1136882,-0.0982 h 0.058567 v 0.60289 q -0.070625,0.0327 -0.1636421,0.0758 -0.093018,0.0413 -0.1912029,0.0706 -0.1205784,0.0362 -0.2256539,0.0551 -0.1050755,0.019 -0.2893882,0.019 z" />
      <path
         id="path52"
         style="font-style:normal;font-variant:normal;font-weight:bold;font-stretch:normal;font-size:3.52778px;font-family:Tahoma;-inkscape-font-specification:'Tahoma Bold';fill:#000000;stroke-width:0.264583"
         d="M 7.138447,172.32156 H 5.4434589 v -0.44786 h 0.5408803 v -1.35564 H 5.4434589 v -0.41858 q 0.1188559,0 0.2359892,-0.0155 0.1171333,-0.0155 0.1877578,-0.0499 0.082682,-0.0413 0.1274686,-0.11024 0.046509,-0.0706 0.053399,-0.17398 h 0.561551 v 2.1239 H 7.138447 Z" />
      <path
         id="path54"
         style="font-style:normal;font-variant:normal;font-weight:bold;font-stretch:normal;font-size:3.52778px;font-family:Tahoma;-inkscape-font-specification:'Tahoma Bold';fill:#000000;stroke-width:0.264583"
         d="m 9.4656102,171.03826 q 0,0.33246 -0.053399,0.58223 -0.053399,0.24977 -0.1705324,0.41685 -0.1171333,0.16709 -0.3048911,0.25322 -0.1877578,0.0844 -0.4599206,0.0844 -0.2704401,0 -0.458198,-0.0844 -0.1877578,-0.0861 -0.3066137,-0.25666 -0.1171333,-0.16881 -0.1705323,-0.41514 -0.053399,-0.24804 -0.053399,-0.57877 0,-0.34107 0.051677,-0.58222 0.053399,-0.24116 0.1756999,-0.41514 0.1205785,-0.17053 0.3100588,-0.25321 0.1894804,-0.0844 0.4513078,-0.0844 0.2773304,0 0.4616431,0.0879 0.1860353,0.0861 0.3048912,0.25838 0.1171333,0.16881 0.1688098,0.41686 0.053399,0.24805 0.053399,0.57016 z m -0.6459558,0 q 0,-0.47542 -0.079237,-0.66662 -0.077515,-0.19293 -0.26355,-0.19293 -0.1843127,0 -0.2635499,0.19293 -0.079237,0.1912 -0.079237,0.67007 0,0.46853 0.079237,0.6649 0.079237,0.19465 0.2635499,0.19465 0.1843128,0 0.26355,-0.19465 0.079237,-0.19637 0.079237,-0.66835 z" />
    </g>
    <text
       id="text59"
       y="277.43234"
       x="1.1693041"
       style="font-size:10.5833px;line-height:1.25;font-family:'Eras Bold ITC';-inkscape-font-specification:'Eras Bold ITC';stroke-width:0.264583"
       xml:space="preserve"><tspan
         style="font-size:2.82222px;fill:#ffff00;stroke-width:0.264583"
         y="277.43234"
         x="1.1693041"
         id="tspan57"
         sodipodi:role="line" /></text>
    <g
       style="font-size:10.5833px;line-height:1.25;font-family:'Eras Bold ITC';-inkscape-font-specification:'Eras Bold ITC';stroke-width:0.264583;fill:#000000"
       id="text63"
       aria-label="OUT">
      <path
         id="path65"
         style="font-size:2.82222px;fill:#000000;stroke-width:0.264583"
         d="m 3.0694446,276.74367 q 0.2204859,0 0.4244354,0.0593 0.2039495,0.0593 0.3569116,0.19017 0.1529622,0.12953 0.2287542,0.29903 0.075792,0.1695 0.075792,0.38999 0,0.23151 -0.08406,0.42581 -0.082682,0.19292 -0.2397785,0.32797 -0.1570962,0.13505 -0.3748261,0.19844 -0.2177299,0.062 -0.4533742,0.062 -0.2328883,0 -0.4464841,-0.0606 -0.2135957,-0.062 -0.37207,-0.19844 -0.1570962,-0.1378 -0.223242,-0.30592 -0.066146,-0.16812 -0.066146,-0.37345 0,-0.30179 0.1391818,-0.52917 0.1405598,-0.22875 0.4147892,-0.35691 0.2756074,-0.12816 0.6201167,-0.12816 z m -0.024805,0.41479 q -0.1584743,0 -0.2866317,0.0786 -0.1281575,0.0772 -0.1970593,0.21635 -0.068902,0.13781 -0.068902,0.29628 0,0.14607 0.062012,0.26734 0.06339,0.12127 0.1915471,0.19017 0.1281575,0.0675 0.2714734,0.0675 0.1529621,0 0.2797415,-0.0758 0.1281575,-0.0772 0.1943032,-0.21497 0.067524,-0.13919 0.067524,-0.29077 0,-0.14745 -0.062012,-0.27147 -0.062012,-0.1254 -0.1819009,-0.19431 -0.1198892,-0.0689 -0.2700953,-0.0689 z" />
      <path
         id="path67"
         style="font-size:2.82222px;fill:#000000;stroke-width:0.264583"
         d="m 4.461262,276.7795 q 0.2149738,0.003 0.3031682,0.003 0.110243,0 0.2935219,-0.003 l -0.041341,0.58567 q -0.012402,0.16536 -0.019292,0.31006 -0.00551,0.14469 -0.00551,0.19981 0,0.10473 0.015158,0.17501 0.015158,0.0703 0.055122,0.11989 0.039963,0.0482 0.110243,0.073 0.071658,0.0248 0.148828,0.0248 0.066146,0 0.1240233,-0.0152 0.045475,-0.0124 0.081304,-0.0344 0.031695,-0.0207 0.055122,-0.0482 0.028939,-0.0331 0.050987,-0.0827 0.022049,-0.0469 0.033073,-0.12127 0.012402,-0.0758 0.033073,-0.34451 0.017914,-0.22875 0.027561,-0.41892 0.00827,-0.18466 0.015158,-0.42306 0.2080836,0.003 0.3279729,0.003 l 0.2797415,-0.003 -0.067524,0.97841 q -0.00138,0.0276 -0.00138,0.0455 -0.00551,0.28664 -0.035829,0.40515 -0.028939,0.11713 -0.097841,0.20395 -0.068902,0.0868 -0.2011934,0.15709 -0.1322915,0.0689 -0.3004121,0.0978 -0.1681205,0.0289 -0.3403752,0.0289 -0.1543401,0 -0.297656,-0.022 -0.1322915,-0.0221 -0.2384004,-0.0634 -0.1061089,-0.0427 -0.184657,-0.0992 -0.071658,-0.0524 -0.110243,-0.1061 -0.038585,-0.0551 -0.060634,-0.13092 -0.024805,-0.0854 -0.024805,-0.18328 0,-0.0331 0.00276,-0.0992 0.00276,-0.0675 0.012402,-0.19292 l 0.017914,-0.22049 q 0.00689,-0.0868 0.015158,-0.25493 z" />
      <path
         id="path69"
         style="font-size:2.82222px;fill:#000000;stroke-width:0.264583"
         d="m 6.9913383,278.66052 q 0.068902,-0.66972 0.082682,-1.4745 l -0.5870439,0.0152 0.00689,-0.15296 q 0.00551,-0.12265 0.00827,-0.26872 0.3913626,0.003 0.9122606,0.003 l 0.3403752,-0.001 h 0.3307289 l 0.1791449,-0.001 -0.00827,0.13367 q -0.00551,0.10749 -0.00827,0.17777 -0.00138,0.0703 -0.00138,0.10611 -0.2949,-0.0138 -0.4864471,-0.0138 h -0.096463 q -0.020671,0.24391 -0.031695,0.45061 -0.015158,0.29628 -0.023427,0.57602 -0.00827,0.27837 -0.00827,0.45062 -0.2259981,-0.003 -0.2921439,-0.003 -0.059256,0 -0.3169486,0.003 z" />
    </g>
    <g
       aria-label="b"
       transform="translate(0,168.49998)"
       id="text51"
       style="font-weight:bold;font-size:6.08438px;line-height:1.25;font-family:'Wingdings 2';-inkscape-font-specification:'Wingdings 2 Bold';display:inline;fill:#000000;stroke-width:0.142602">
      <path
         d="M 2.1105974,0.92680782 V 1.2209258 q 0.1693407,0 0.2554965,0.086156 0.089127,0.086156 0.1693406,0.3297686 l 0.047534,0.1485445 Q 2.7433967,2.2785622 3.1088161,2.4330484 2.7701347,2.498408 2.5681143,2.712312 2.3690648,2.9232451 2.3690648,3.2143922 q 0,0.4070117 0.3060015,0.6743917 0.3060015,0.2644091 0.775402,0.2644091 0.7130133,0 1.1021997,-0.6120031 L 4.3239095,3.3480821 Q 4.071384,3.618433 3.804004,3.618433 3.5841583,3.618433 3.4267011,3.4758304 3.269244,3.3302568 3.269244,3.1312073 q 0,-0.1663698 0.1218065,-0.2881762 0.1247773,-0.1218065 0.2911471,-0.1218065 0.3000597,0 0.8407615,0.4248371 l 0.1812242,0.1426027 q 0.882354,0.6951879 1.6844939,0.6951879 0.695188,0 1.176472,-0.4575168 Q 8.049404,3.0688186 8.049404,2.4122522 8.049404,1.7467731 7.5502947,1.3367905 7.0511854,0.92680782 6.2401328,0.92680782 H 6.1420935 V 1.2209258 q 0.4812839,0.03268 0.7635184,0.3357104 0.2822344,0.3000598 0.2822344,0.7813438 0,0.4753422 -0.3565066,0.8140235 -0.3565067,0.3357104 -0.8615578,0.3357104 -0.4872257,0 -0.8674995,-0.2970889 -0.3802738,-0.2970888 -0.3802738,-0.6773626 0,-0.1812242 0.1158647,-0.3060015 0.1188356,-0.1247774 0.2911471,-0.1247774 0.1723115,0 0.2584673,0.095068 0.089127,0.092097 0.089127,0.2822344 0,0.1158647 -0.06536,0.2733218 l 0.26738,0.1218064 q 0.1782533,-0.4218662 0.1782533,-0.7070715 0,-0.3505649 -0.2287584,-0.6001195 Q 5.4023422,1.295198 5.0814862,1.295198 q -0.2049913,0 -0.374332,0.1010102 Q 4.5378135,1.4972185 4.4041235,1.7022098 4.231812,1.2714309 3.85748,1.0991194 3.4861189,0.92680782 2.7285423,0.92680782 Z M 4.2496373,2.3766015 Q 3.8129167,2.2934166 3.4504683,1.6487338 L 3.3999632,1.562578 Q 3.242506,1.2833145 3.0196894,1.1971587 q 1.1348795,0 1.2299479,1.1794428 z"
         style="font-size:6.08438px;fill:#000000;stroke-width:0.142602"
         id="path49" />
    </g>
  </g>
  <g
     style="display:none"
     inkscape:label="components"
     id="layer2"
     inkscape:groupmode="layer">
    <circle
       inkscape:label="monoin9"
       style="display:inline;opacity:1;vector-effect:none;fill:#00ff00;fill-opacity:1;fill-rule:evenodd;stroke:none;stroke-width:1;stroke-linecap:butt;stroke-linejoin:miter;stroke-miterlimit:4;stroke-dasharray:none;stroke-dashoffset:0;stroke-opacity:1;paint-order:normal"
       id="circle9"
       cx="5.0800009"
       cy="91.440018"
       r="4" />
    <circle
       inkscape:label="polyout"
       r="4"
       cy="116.84002"
       cx="5.0800009"
       id="circle11"
       style="display:inline;opacity:1;vector-effect:none;fill:#0000ff;fill-opacity:1;fill-rule:evenodd;stroke:none;stroke-width:1;stroke-linecap:butt;stroke-linejoin:miter;stroke-miterlimit:4;stroke-dasharray:none;stroke-dashoffset:0;stroke-opacity:1;paint-order:normal" />
    <circle
       r="4"
       cy="10.160002"
       cx="5.0800009"
       id="circle1"
       style="display:inline;opacity:1;vector-effect:none;fill:#00ff00;fill-opacity:1;fill-rule:evenodd;stroke:none;stroke-width:1;stroke-linecap:butt;stroke-linejoin:miter;stroke-miterlimit:4;stroke-dasharray:none;stroke-dashoffset:0;stroke-opacity:1;paint-order:normal"
       inkscape:label="monoin1" />
    <circle
       r="4"
       cy="40.640007"
       cx="5.0800009"
       id="circle4"
       style="display:inline;opacity:1;vector-effect:none;fill:#00ff00;fill-opacity:1;fill-rule:evenodd;stroke:none;stroke-width:1;stroke-linecap:butt;stroke-linejoin:miter;stroke-miterlimit:4;stroke-dasharray:none;stroke-dashoffset:0;stroke-opacity:1;paint-order:normal"
       inkscape:label="monoin4" />
    <circle
       r="4"
       cy="50.800007"
       cx="5.0800009"
       id="circle5"
       style="display:inline;opacity:1;vector-effect:none;fill:#00ff00;fill-opacity:1;fill-rule:evenodd;stroke:none;stroke-width:1;stroke-linecap:butt;stroke-linejoin:miter;stroke-miterlimit:4;stroke-dasharray:none;stroke-dashoffset:0;stroke-opacity:1;paint-order:normal"
       inkscape:label="monoin5" />
    <circle
       r="4"
       cy="60.960011"
       cx="5.0800009"
       id="circle6"
       style="display:inline;opacity:1;vector-effect:none;fill:#00ff00;fill-opacity:1;fill-rule:evenodd;stroke:none;stroke-width:1;stroke-linecap:butt;stroke-linejoin:miter;stroke-miterlimit:4;stroke-dasharray:none;stroke-dashoffset:0;stroke-opacity:1;paint-order:normal"
       inkscape:label="monoin6" />
    <circle
       r="4"
       cy="71.12001"
       cx="5.0800009"
       id="circle7"
       style="display:inline;opacity:1;vector-effect:none;fill:#00ff00;fill-opacity:1;fill-rule:evenodd;stroke:none;stroke-width:1;stroke-linecap:butt;stroke-linejoin:miter;stroke-miterlimit:4;stroke-dasharray:none;stroke-dashoffset:0;stroke-opacity:1;paint-order:normal"
       inkscape:label="monoin7" />
    <circle
       r="4"
       cy="81.280014"
       cx="5.0800009"
       id="circle8"
       style="display:inline;opacity:1;vector-effect:none;fill:#00ff00;fill-opacity:1;fill-rule:evenodd;stroke:none;stroke-width:1;stroke-linecap:butt;stroke-linejoin:miter;stroke-miterlimit:4;stroke-dasharray:none;stroke-dashoffset:0;stroke-opacity:1;paint-order:normal"
       inkscape:label="monoin8" />
    <circle
       r="4"
       cy="30.480005"
       cx="5.0800009"
       id="circle3"
       style="display:inline;opacity:1;vector-effect:none;fill:#00ff00;fill-opacity:1;fill-rule:evenodd;stroke:none;stroke-width:1;stroke-linecap:butt;stroke-linejoin:miter;stroke-miterlimit:4;stroke-dasharray:none;stroke-dashoffset:0;stroke-opacity:1;paint-order:normal"
       inkscape:label="monoin3" />
    <circle
       r="4"
       cy="20.320004"
       cx="5.0800009"
       id="circle2"
       style="display:inline;opacity:1;vector-effect:none;fill:#00ff00;fill-opacity:1;fill-rule:evenodd;stroke:none;stroke-width:1;stroke-linecap:butt;stroke-linejoin:miter;stroke-miterlimit:4;stroke-dasharray:none;stroke-dashoffset:0;stroke-opacity:1;paint-order:normal"
       inkscape:label="monoin2" />
    <circle
       r="4"
       cy="101.60001"
       cx="5.0800009"
       id="circle10"
       style="display:inline;opacity:1;vector-effect:none;fill:#00ff00;fill-opacity:1;fill-rule:evenodd;stroke:none;stroke-width:1;stroke-linecap:butt;stroke-linejoin:miter;stroke-miterlimit:4;stroke-dasharray:none;stroke-dashoffset:0;stroke-opacity:1;paint-order:normal"
       inkscape:label="monoin10" />
    <circle
       r="0.035242248"
       cy="-48.154167"
       cx="-43.920834"
       style="fill:#000000;stroke:#000000;stroke-width:0.264583"
       id="path30" />
    <circle
       r="0.0088105621"
       cy="-2.5135417"
       cx="-32.279167"
       style="fill:#000000;stroke:#000000;stroke-width:0.264583"
       id="path32" />
    <circle
       r="0.0088105621"
       cy="0.1984375"
       cx="-17.991667"
       style="fill:#000000;stroke:#000000;stroke-width:0.264583"
       id="path34" />
    <circle
       r="0.0088105621"
       cy="2.9104166"
       cx="-25.069271"
       style="fill:#000000;stroke:#000000;stroke-width:0.264583"
       id="path36" />
    <text
       id="text42"
       y="11.90625"
       x="-38.695312"
       style="font-size:10.5833px;line-height:1.25;font-family:'Eras Bold ITC';-inkscape-font-specification:'Eras Bold ITC';stroke-width:0.264583"
       xml:space="preserve"><tspan
         style="font-style:normal;font-variant:normal;font-weight:bold;font-stretch:normal;font-size:3.52778px;font-family:Garamond;-inkscape-font-specification:'Garamond Bold';stroke-width:0.264583"
         y="11.90625"
         x="-38.695312"
         id="tspan40"
         sodipodi:role="line" /></text>
  </g>
</svg>
