<?xml version="1.0" encoding="UTF-8" standalone="no"?>
<svg
   xmlns:dc="http://purl.org/dc/elements/1.1/"
   xmlns:cc="http://creativecommons.org/ns#"
   xmlns:rdf="http://www.w3.org/1999/02/22-rdf-syntax-ns#"
   xmlns:svg="http://www.w3.org/2000/svg"
   xmlns="http://www.w3.org/2000/svg"
   xmlns:sodipodi="http://sodipodi.sourceforge.net/DTD/sodipodi-0.dtd"
   xmlns:inkscape="http://www.inkscape.org/namespaces/inkscape"
   sodipodi:docname="Quant12.svg"
   inkscape:version="1.0 (4035a4fb49, 2020-05-01)"
   id="svg8"
   version="1.1"
   viewBox="0 0 20.320002 128.50002"
   height="128.5mm"
   width="20.32mm">
  <defs
     id="defs2">
    <inkscape:path-effect
       effect="fillet_chamfer"
       id="path-effect95"
       is_visible="true"
       lpeversion="1"
       satellites_param="F,0,0,1,0,4,0,1 @ F,0,0,1,0,4,0,1 @ F,0,0,1,0,4,0,1 @ F,0,0,1,0,4,0,1"
       unit="mm"
       method="auto"
       mode="F"
       radius="4"
       chamfer_steps="1"
       flexible="false"
       use_knot_distance="true"
       apply_no_radius="true"
       apply_with_radius="true"
       only_selected="false"
       hide_knots="false" />
    <inkscape:path-effect
       effect="fillet_chamfer"
       id="path-effect105"
       is_visible="true"
       lpeversion="1"
       satellites_param="F,0,0,1,0,4,0,1 @ F,0,0,1,0,4,0,1 @ F,0,0,1,0,4,0,1 @ F,0,0,1,0,4,0,1"
       unit="mm"
       method="auto"
       mode="F"
       radius="4"
       chamfer_steps="1"
       flexible="false"
       use_knot_distance="true"
       apply_no_radius="true"
       apply_with_radius="true"
       only_selected="false"
       hide_knots="false" />
    <inkscape:path-effect
       effect="fillet_chamfer"
       id="path-effect96"
       is_visible="true"
       lpeversion="1"
       satellites_param="F,0,0,1,0,4,0,1 @ F,0,0,1,0,4,0,1 @ F,0,0,1,0,4,0,1 @ F,0,0,1,0,4,0,1"
       unit="mm"
       method="auto"
       mode="F"
       radius="4"
       chamfer_steps="1"
       flexible="false"
       use_knot_distance="true"
       apply_no_radius="true"
       apply_with_radius="true"
       only_selected="false"
       hide_knots="false" />
    <inkscape:path-effect
       hide_knots="false"
       only_selected="false"
       apply_with_radius="true"
       apply_no_radius="true"
       use_knot_distance="true"
       flexible="false"
       chamfer_steps="1"
       radius="4"
       mode="F"
       method="auto"
       unit="mm"
       satellites_param="F,0,0,1,0,4,0,1 @ F,0,0,1,0,4,0,1 @ F,0,0,1,0,4,0,1 @ F,0,0,1,0,4,0,1"
       lpeversion="1"
       is_visible="true"
       id="path-effect77"
       effect="fillet_chamfer" />
    <inkscape:path-effect
       hide_knots="false"
       only_selected="false"
       apply_with_radius="true"
       apply_no_radius="true"
       use_knot_distance="true"
       flexible="false"
       chamfer_steps="1"
       radius="4"
       mode="F"
       method="auto"
       unit="mm"
       satellites_param="F,0,0,1,0,4,0,1 @ F,0,0,1,0,4,0,1 @ F,0,0,1,0,4,0,1 @ F,0,0,1,0,4,0,1"
       lpeversion="1"
       is_visible="true"
       id="path-effect161"
       effect="fillet_chamfer" />
    <inkscape:path-effect
       hide_knots="false"
       only_selected="false"
       apply_with_radius="true"
       apply_no_radius="true"
       use_knot_distance="true"
       flexible="false"
       chamfer_steps="1"
       radius="4"
       mode="F"
       method="auto"
       unit="mm"
       satellites_param="F,0,0,1,0,4,0,1 @ F,0,0,1,0,4,0,1 @ F,0,0,1,0,4,0,1 @ F,0,0,1,0,4,0,1"
       lpeversion="1"
       is_visible="true"
       id="path-effect152"
       effect="fillet_chamfer" />
    <inkscape:path-effect
       hide_knots="false"
       only_selected="false"
       apply_with_radius="true"
       apply_no_radius="true"
       use_knot_distance="true"
       flexible="false"
       chamfer_steps="1"
       radius="4"
       mode="F"
       method="auto"
       unit="mm"
       satellites_param="F,0,0,1,0,4,0,1 @ F,0,0,1,0,4,0,1 @ F,0,0,1,0,4,0,1 @ F,0,0,1,0,4,0,1"
       lpeversion="1"
       is_visible="true"
       id="path-effect143"
       effect="fillet_chamfer" />
    <inkscape:path-effect
       effect="fillet_chamfer"
       id="path-effect124"
       is_visible="true"
       lpeversion="1"
       satellites_param="F,0,0,1,0,4,0,1 @ F,0,0,1,0,4,0,1 @ F,0,0,1,0,4,0,1 @ F,0,0,1,0,4,0,1"
       unit="mm"
       method="auto"
       mode="F"
       radius="4"
       chamfer_steps="1"
       flexible="false"
       use_knot_distance="true"
       apply_no_radius="true"
       apply_with_radius="true"
       only_selected="false"
       hide_knots="false" />
    <inkscape:path-effect
       hide_knots="false"
       only_selected="false"
       apply_with_radius="true"
       apply_no_radius="true"
       use_knot_distance="true"
       flexible="false"
       chamfer_steps="1"
       radius="4"
       mode="F"
       method="auto"
       unit="mm"
       satellites_param="F,0,0,1,0,4,0,1 @ F,0,0,1,0,4,0,1 @ F,0,0,1,0,4,0,1 @ F,0,0,1,0,4,0,1"
       lpeversion="1"
       is_visible="true"
       id="path-effect154"
       effect="fillet_chamfer" />
    <inkscape:path-effect
       effect="fillet_chamfer"
       id="path-effect81"
       is_visible="true"
       lpeversion="1"
       satellites_param="F,0,0,1,0,0,0,1 @ F,0,0,1,0,0,0,1 @ F,0,0,1,0,0,0,1 @ F,0,0,1,0,0,0,1"
       unit="mm"
       method="auto"
       mode="F"
       radius="0"
       chamfer_steps="1"
       flexible="false"
       use_knot_distance="true"
       apply_no_radius="true"
       apply_with_radius="true"
       only_selected="false"
       hide_knots="false" />
  </defs>
  <sodipodi:namedview
     guidetolerance="28.7"
     gridtolerance="26.6"
     objecttolerance="24.3"
     inkscape:lockguides="false"
     inkscape:document-rotation="0"
     inkscape:snap-nodes="false"
     inkscape:snap-bbox-midpoints="true"
     inkscape:window-maximized="0"
     inkscape:window-y="0"
     inkscape:window-x="2904"
     inkscape:window-height="1048"
     inkscape:window-width="927"
     inkscape:snap-bbox-edge-midpoints="false"
     inkscape:bbox-nodes="false"
     inkscape:snap-page="true"
     inkscape:snap-bbox="true"
     units="mm"
     showgrid="true"
     inkscape:current-layer="layer1"
     inkscape:document-units="mm"
     inkscape:cy="225.32637"
     inkscape:cx="-132.35264"
     inkscape:zoom="1.2574305"
     inkscape:pageshadow="2"
     inkscape:pageopacity="0.0"
     borderopacity="1.0"
     bordercolor="#666666"
     pagecolor="#ffffff"
     id="base">
    <inkscape:grid
       empspacing="4"
       empopacity="0.25098039"
       empcolor="#71530f"
       spacingy="2.5400004"
       spacingx="2.5400004"
       opacity="0.53333333"
       color="#ffd984"
       units="mm"
       id="grid86"
       type="xygrid" />
  </sodipodi:namedview>
  <metadata
     id="metadata5">
    <rdf:RDF>
      <cc:Work
         rdf:about="">
        <dc:format>image/svg+xml</dc:format>
        <dc:type
           rdf:resource="http://purl.org/dc/dcmitype/StillImage" />
        <dc:title></dc:title>
        <dc:creator>
          <cc:Agent>
            <dc:title>Firo Lightfog</dc:title>
          </cc:Agent>
        </dc:creator>
      </cc:Work>
    </rdf:RDF>
  </metadata>
  <g
     transform="translate(0,-168.49998)"
     id="layer1"
     inkscape:groupmode="layer"
     inkscape:label="Layer 1"
     style="display:inline">
    <rect
       y="168.49834"
       x="0.068502754"
       height="128.54678"
       width="20.182999"
       id="rect420"
       style="display:inline;opacity:1;vector-effect:none;fill:#cccccc;fill-opacity:1;fill-rule:evenodd;stroke:none;stroke-width:0.528505;stroke-linecap:butt;stroke-linejoin:miter;stroke-miterlimit:4;stroke-dasharray:none;stroke-dashoffset:0;stroke-opacity:1;paint-order:normal" />
    <g
       transform="translate(17.780002,-0.11378202)"
       style="font-weight:bold;font-size:3.52778px;line-height:1.25;font-family:Tahoma;-inkscape-font-specification:'Tahoma, Bold';letter-spacing:0px;stroke-width:0.264583"
       id="text93"
       aria-label="NOTES">
      <path
         id="path96"
         style="font-size:3.52778px;stroke-width:0.264583"
         d="m -11.259747,219.31993 h -0.620118 l -0.988743,-1.788 v 1.788 h -0.589111 v -2.56487 h 0.79065 l 0.81821,1.46933 v -1.46933 h 0.589112 z" />
      <path
         id="path99"
         style="font-size:3.52778px;stroke-width:0.264583"
         d="m -8.4003159,218.03835 q 0,0.62184 -0.332452,0.97841 -0.3324519,0.35657 -0.9112283,0.35657 -0.5804988,0 -0.9112288,-0.36001 -0.330729,-0.36174 -0.330729,-0.97497 0,-0.61839 0.330729,-0.97668 0.33073,-0.36001 0.9112288,-0.36001 0.5787764,0 0.9112283,0.35829 0.332452,0.35656 0.332452,0.9784 z m -0.6649039,-0.002 q 0,-0.2291 -0.048231,-0.38929 -0.046509,-0.16192 -0.125746,-0.26528 -0.082682,-0.10507 -0.1877579,-0.14986 -0.1033529,-0.0465 -0.2153186,-0.0465 -0.1188558,0 -0.2153186,0.0431 -0.096463,0.0413 -0.1860361,0.14986 -0.07924,0.0999 -0.129191,0.26527 -0.04823,0.16537 -0.04823,0.39446 0,0.23599 0.04651,0.39275 0.04651,0.15503 0.127468,0.2601 0.082683,0.1068 0.1877586,0.15331 0.1050755,0.0448 0.2170411,0.0448 0.1136883,0 0.2204863,-0.0482 0.106798,-0.0499 0.1843127,-0.1533 0.082682,-0.11197 0.1274686,-0.26011 0.044786,-0.14986 0.044786,-0.39102 z" />
      <path
         id="path101"
         style="font-size:3.52778px;stroke-width:0.264583"
         d="m -7.5287063,219.31993 v -2.07567 h -0.7579215 v -0.4892 h 2.1600763 v 0.4892 H -6.884473 v 2.07567 z" />
      <path
         id="path103"
         style="font-size:3.52778px;stroke-width:0.264583"
         d="m -5.857834,219.31993 v -2.56487 h 1.7346067 v 0.4892 h -1.0938185 v 0.44958 h 1.0076911 v 0.48921 h -1.0076911 v 0.64768 h 1.0938185 v 0.4892 z" />
      <path
         id="path105"
         style="font-size:3.52778px;stroke-width:0.264583"
         d="m -2.8950499,219.36644 q -0.2945558,0 -0.5184872,-0.0568 -0.2222088,-0.0568 -0.4134117,-0.14125 v -0.60979 h 0.058567 q 0.1929255,0.16365 0.4254696,0.2515 0.2325441,0.0879 0.4513078,0.0879 0.055122,0 0.1446941,-0.0121 0.091295,-0.0121 0.1464167,-0.0379 0.067179,-0.0293 0.1136882,-0.081 0.046509,-0.0534 0.046509,-0.13952 0,-0.0965 -0.075792,-0.15676 -0.075792,-0.0603 -0.1808677,-0.0879 -0.1309137,-0.0344 -0.2807754,-0.0654 -0.1481392,-0.031 -0.2773304,-0.0758 -0.298001,-0.10508 -0.4271921,-0.2825 -0.1291912,-0.17743 -0.1291912,-0.44442 0,-0.36001 0.3048912,-0.58222 0.3048911,-0.22393 0.7613666,-0.22393 0.229099,0 0.4547529,0.0465 0.2273764,0.0465 0.4065215,0.12574 v 0.58567 h -0.056844 q -0.1429716,-0.1223 -0.3496774,-0.20671 -0.2049834,-0.0844 -0.4220245,-0.0844 -0.084405,0 -0.1515843,0.0121 -0.067179,0.012 -0.141249,0.0465 -0.060289,0.0276 -0.1050755,0.0827 -0.043064,0.0534 -0.043064,0.12058 0,0.0982 0.068902,0.15675 0.070625,0.0568 0.2704402,0.10335 0.1291912,0.0293 0.248047,0.0568 0.1205785,0.0276 0.2566598,0.0758 0.2669951,0.0965 0.3961863,0.2601 0.1309137,0.16192 0.1309137,0.42892 0,0.3824 -0.3014461,0.61495 -0.2997235,0.23254 -0.8113211,0.23254 z" />
    </g>
    <text
       id="text59"
       y="277.43234"
       x="1.1693041"
       style="font-size:10.5833px;line-height:1.25;font-family:'Eras Bold ITC';-inkscape-font-specification:'Eras Bold ITC';stroke-width:0.264583"
       xml:space="preserve"><tspan
         style="font-size:2.82222px;fill:#ffff00;stroke-width:0.264583"
         y="277.43234"
         x="1.1693041"
         id="tspan57"
         sodipodi:role="line" /></text>
    <text
       id="text127"
       y="172.05467"
       x="-78.577248"
       style="font-size:10.5833px;line-height:1.25;font-family:'Eras Bold ITC';-inkscape-font-specification:'Eras Bold ITC';stroke-width:0.264583"
       xml:space="preserve"><tspan
         style="stroke-width:0.264583"
         y="172.05467"
         x="-78.577248"
         id="tspan125"
         sodipodi:role="line" /></text>
    <text
       id="text131"
       y="186.46049"
       x="-89.989647"
       style="font-size:10.5833px;line-height:1.25;font-family:'Eras Bold ITC';-inkscape-font-specification:'Eras Bold ITC';stroke-width:0.264583"
       xml:space="preserve"><tspan
         style="stroke-width:0.264583"
         y="186.46049"
         x="-89.989647"
         id="tspan129"
         sodipodi:role="line" /></text>
    <g
       style="font-weight:bold;font-size:6.35px;line-height:1.25;font-family:Tahoma;-inkscape-font-specification:'Tahoma, Bold';fill:#000000;stroke-width:0.264583"
       id="text104"
       aria-label="b">
      <path
         id="path116"
         style="font-style:normal;font-variant:normal;font-weight:bold;font-stretch:normal;font-size:14.1111px;font-family:'Wingdings 2';-inkscape-font-specification:'Wingdings 2 Bold';fill:#000000;stroke-width:0.264583"
         d="m 3.2732611,177.4586 v 0.68213 q 0.3927406,0 0.592556,0.19982 0.2067056,0.19981 0.3927406,0.76481 l 0.110243,0.34451 q 0.37207,1.14377 1.2195628,1.50206 -0.7854811,0.15158 -1.2540138,0.64768 -0.4616424,0.4892 -0.4616424,1.16444 0,0.94395 0.7096891,1.56407 0.7096891,0.61323 1.7983385,0.61323 1.6536445,0 2.5562588,-1.41938 L 8.4064495,183.0741 q -0.5856658,0.62701 -1.2057825,0.62701 -0.5098738,0 -0.8750536,-0.33073 -0.3651799,-0.33762 -0.3651799,-0.79926 0,-0.38585 0.2824977,-0.66835 0.2893878,-0.28249 0.6752382,-0.28249 0.6959087,0 1.9499225,0.98529 l 0.4203013,0.33073 q 2.0463848,1.6123 3.9067348,1.6123 1.612304,0 2.728514,-1.06108 1.1231,-1.06109 1.1231,-2.58382 0,-1.54341 -1.157551,-2.49425 -1.157551,-0.95085 -3.038572,-0.95085 h -0.227376 v 0.68213 q 1.11621,0.0758 1.770778,0.77859 0.654567,0.69591 0.654567,1.81212 0,1.10243 -0.826822,1.88791 -0.826822,0.77859 -1.998154,0.77859 -1.12999,0 -2.011934,-0.68901 -0.8819437,-0.68902 -0.8819437,-1.57097 0,-0.4203 0.2687173,-0.70969 0.2756074,-0.28938 0.6752384,-0.28938 0.399631,0 0.599446,0.22048 0.206705,0.2136 0.206705,0.65457 0,0.26872 -0.151584,0.6339 l 0.620117,0.28249 q 0.413411,-0.9784 0.413411,-1.63986 0,-0.81304 -0.530544,-1.39182 -0.523654,-0.58566 -1.267794,-0.58566 -0.475423,0 -0.8681636,0.23426 -0.3927406,0.23427 -0.7027989,0.70969 -0.3996308,-0.99907 -1.2677942,-1.39871 -0.8612732,-0.39963 -2.6182705,-0.39963 z m 4.9609337,3.36241 Q 7.2213375,180.62809 6.3807349,179.13292 L 6.2636017,178.9331 q -0.3651798,-0.64767 -0.8819437,-0.84749 2.6320509,0 2.8525368,2.7354 z" />
    </g>
    <path
       y="270.22122"
       x="-4.9830647"
       height="20.166403"
       width="20.30686"
       id="rect48-1-6"
       style="display:inline;fill:#de8787;stroke-width:0.413075"
       inkscape:path-effect="#path-effect81"
       sodipodi:type="rect"
       transform="matrix(1,0,0.01780078,0.99984155,0,0)"
       d="M -4.9830647,270.22122 H 15.323795 v 20.1664 H -4.9830647 Z" />
    <g
       aria-label="QET"
       id="text217"
       style="font-weight:bold;font-size:4.23333px;line-height:1.25;font-family:Tahoma;-inkscape-font-specification:'Tahoma, Bold';letter-spacing:0px;stroke-width:0.264583">
      <path
         d="m 8.9807467,294.9082 q -0.1240233,0.031 -0.2501137,0.0455 -0.1240233,0.0145 -0.3906735,0.0145 -0.2439125,0 -0.4154782,-0.062 -0.1694985,-0.0599 -0.2831866,-0.17156 -0.113688,-0.10956 -0.1715656,-0.26045 -0.055811,-0.1509 -0.064079,-0.32453 -0.6531896,-0.0289 -1.0293937,-0.45268 -0.374137,-0.42375 -0.374137,-1.14102 0,-0.74207 0.3968746,-1.17202 0.3968747,-0.43201 1.0934724,-0.43201 0.6945307,0 1.0934724,0.42994 0.3989417,0.42788 0.3989417,1.17409 0,0.54364 -0.2273761,0.93431 -0.225309,0.38861 -0.6387201,0.5519 0.00413,0.22531 0.099219,0.31006 0.097152,0.0868 0.3389971,0.0868 0.093018,0 0.1963703,-0.0289 0.1054199,-0.0269 0.1508951,-0.0517 h 0.076481 z m -1.0004549,-1.57303 q 0.099219,-0.13436 0.1529622,-0.31212 0.053743,-0.17984 0.053743,-0.46923 0,-0.27491 -0.057878,-0.46715 -0.05581,-0.1943 -0.150895,-0.31833 -0.099219,-0.12609 -0.2253091,-0.17983 -0.1240233,-0.0558 -0.2583819,-0.0558 -0.1426268,0 -0.258382,0.0517 -0.1157551,0.0496 -0.223242,0.17983 -0.095085,0.11989 -0.1550291,0.31833 -0.057878,0.19843 -0.057878,0.47335 0,0.28319 0.055811,0.47129 0.05581,0.18603 0.1529621,0.31213 0.099219,0.12815 0.2253091,0.18396 0.1260904,0.0537 0.260449,0.0537 0.1364257,0 0.2645831,-0.0579 0.1281574,-0.06 0.2211749,-0.18397 z"
         style="stroke-width:0.264583"
         id="path219" />
      <path
         d="m 9.439633,294.09378 v -3.07785 h 2.081525 v 0.58705 h -1.31258 v 0.5395 h 1.209227 v 0.58704 h -1.209227 v 0.77722 h 1.31258 v 0.58704 z"
         style="stroke-width:0.264583"
         id="path221" />
      <path
         d="m 12.635301,294.09378 v -2.4908 h -0.909505 v -0.58705 h 2.592088 v 0.58705 h -0.909505 v 2.4908 z"
         style="stroke-width:0.264583"
         id="path223" />
    </g>
    <g
       transform="translate(0.30450925,-4.1288386)"
       style="font-weight:bold;font-size:3.52778px;line-height:1.25;font-family:Tahoma;-inkscape-font-specification:'Tahoma, Bold';letter-spacing:0px;stroke-width:0.264583"
       id="text51"
       aria-label="OUT">
      <path
         id="path78"
         style="font-size:3.52778px;stroke-width:0.264583"
         d="m 8.659183,276.76969 q 0,0.62184 -0.3324517,0.97841 -0.3324517,0.35657 -0.9112277,0.35657 -0.5804986,0 -0.9112278,-0.36001 -0.3307291,-0.36174 -0.3307291,-0.97497 0,-0.61839 0.3307291,-0.97668 0.3307292,-0.36001 0.9112278,-0.36001 0.578776,0 0.9112277,0.35829 0.3324517,0.35656 0.3324517,0.9784 z m -0.6649034,-0.002 q 0,-0.2291 -0.048231,-0.38929 -0.046509,-0.16192 -0.125746,-0.26528 -0.082682,-0.10507 -0.1877577,-0.14986 -0.1033529,-0.0465 -0.2153185,-0.0465 -0.1188558,0 -0.2153184,0.0431 -0.096463,0.0413 -0.1860352,0.14986 -0.079237,0.0999 -0.1291911,0.26527 -0.048231,0.16537 -0.048231,0.39446 0,0.23599 0.046509,0.39274 0.046509,0.15503 0.1274685,0.26011 0.082682,0.1068 0.1877577,0.15331 0.1050754,0.0448 0.217041,0.0448 0.1136882,0 0.2204861,-0.0482 0.106798,-0.05 0.1843126,-0.15331 0.082682,-0.11196 0.1274686,-0.2601 0.044786,-0.14986 0.044786,-0.39102 z" />
      <path
         id="path80"
         style="font-size:3.52778px;stroke-width:0.264583"
         d="m 10.075117,278.10467 q -0.516764,0 -0.7958167,-0.24977 -0.2773302,-0.24977 -0.2773302,-0.73036 v -1.63814 h 0.6442328 v 1.60024 q 0,0.267 0.099908,0.39791 0.1016303,0.13091 0.3290061,0.13091 0.222209,0 0.325562,-0.12574 0.105075,-0.12575 0.105075,-0.40308 v -1.60024 h 0.644233 v 1.63642 q 0,0.4737 -0.272162,0.72863 -0.27044,0.25322 -0.802708,0.25322 z" />
      <path
         id="path82"
         style="font-size:3.52778px;stroke-width:0.264583"
         d="m 12.135284,278.05127 v -2.07567 h -0.757921 v -0.4892 h 2.160075 v 0.4892 h -0.757921 v 2.07567 z" />
    </g>
    <g
       style="font-weight:bold;font-size:3.52778px;line-height:1.25;font-family:Tahoma;-inkscape-font-specification:'Tahoma, Bold';letter-spacing:0px;stroke-width:0.264583"
       id="text55"
       aria-label="TRANSP"
       transform="translate(-8.5999999e-6,-5.0799394)">
      <path
         id="path85"
         style="font-size:3.52778px;stroke-width:0.264583"
         d="m 3.7486799,273.92242 v -2.07567 H 2.9907584 v -0.4892 h 2.1600763 v 0.4892 H 4.3929132 v 2.07567 z" />
      <path
         id="path87"
         style="font-size:3.52778px;stroke-width:0.264583"
         d="M 7.791502,273.92242 H 7.0060197 L 6.291162,272.98191 H 6.0603404 v 0.94051 H 5.4195522 v -2.56487 H 6.451359 q 0.2135961,0 0.3720705,0.0276 0.1584745,0.0258 0.2928334,0.11024 0.1378039,0.0879 0.2187637,0.22393 0.08096,0.13436 0.08096,0.34279 0,0.29456 -0.1326363,0.47887 -0.1326363,0.18259 -0.3548451,0.29111 z m -1.0369744,-1.77939 q 0,-0.0965 -0.037896,-0.16536 -0.036174,-0.0706 -0.1223009,-0.10852 -0.060289,-0.0258 -0.1343589,-0.0327 -0.07407,-0.007 -0.1843127,-0.007 H 6.0603404 v 0.69074 h 0.1843127 q 0.1343588,0 0.2273765,-0.0155 0.09474,-0.0172 0.160197,-0.0706 0.062012,-0.0482 0.091295,-0.11541 0.031006,-0.0672 0.031006,-0.1757 z" />
      <path
         id="path89"
         style="font-size:3.52778px;stroke-width:0.264583"
         d="m 7.7070972,273.92242 0.8664421,-2.56487 h 0.7027999 l 0.8664418,2.56487 H 9.4796 L 9.3194029,273.39877 H 8.5132501 l -0.1601971,0.52365 z m 1.4710567,-0.98874 -0.2618274,-0.84577 -0.2618274,0.84577 z" />
      <path
         id="path91"
         style="font-size:3.52778px;stroke-width:0.264583"
         d="m 12.599136,273.92242 h -0.620117 l -0.988743,-1.788 v 1.788 h -0.589112 v -2.56487 h 0.79065 l 0.818211,1.46933 v -1.46933 h 0.589111 z" />
      <path
         id="path93"
         style="font-size:3.52778px;stroke-width:0.264583"
         d="m 13.915164,273.96893 q -0.294556,0 -0.518488,-0.0568 -0.222208,-0.0568 -0.413411,-0.14125 v -0.60978 h 0.05857 q 0.192926,0.16364 0.42547,0.25149 0.232544,0.0879 0.451308,0.0879 0.05512,0 0.144694,-0.0121 0.0913,-0.0121 0.146417,-0.0379 0.06718,-0.0293 0.113688,-0.081 0.04651,-0.0534 0.04651,-0.13953 0,-0.0965 -0.07579,-0.15675 -0.07579,-0.0603 -0.180867,-0.0879 -0.130914,-0.0344 -0.280776,-0.0655 -0.148139,-0.031 -0.27733,-0.0758 -0.298001,-0.10508 -0.427192,-0.2825 -0.129191,-0.17742 -0.129191,-0.44442 0,-0.36001 0.304891,-0.58222 0.304891,-0.22393 0.761366,-0.22393 0.229099,0 0.454753,0.0465 0.227377,0.0465 0.406522,0.12575 v 0.58566 h -0.05684 q -0.142972,-0.1223 -0.349678,-0.2067 -0.204983,-0.0844 -0.422024,-0.0844 -0.08441,0 -0.151584,0.0121 -0.06718,0.0121 -0.141249,0.0465 -0.06029,0.0276 -0.105076,0.0827 -0.04306,0.0534 -0.04306,0.12058 0,0.0982 0.0689,0.15675 0.07062,0.0568 0.27044,0.10335 0.129192,0.0293 0.248048,0.0568 0.120578,0.0276 0.256659,0.0758 0.266995,0.0965 0.396187,0.2601 0.130913,0.16192 0.130913,0.42892 0,0.3824 -0.301446,0.61495 -0.299723,0.23254 -0.81132,0.23254 z" />
      <path
         id="path95"
         style="font-size:3.52778px;stroke-width:0.264583"
         d="m 17.329255,272.16715 q 0,0.17914 -0.05684,0.34106 -0.05684,0.16192 -0.163642,0.27044 -0.06546,0.0672 -0.144694,0.12403 -0.07752,0.0568 -0.172255,0.0965 -0.09474,0.0396 -0.206706,0.062 -0.110243,0.0224 -0.248047,0.0224 h -0.33762 v 0.83888 h -0.644233 v -2.56487 h 0.995633 q 0.222209,0 0.382406,0.0413 0.16192,0.0396 0.292833,0.12747 0.144695,0.0965 0.223932,0.25838 0.07924,0.1602 0.07924,0.38241 z m -0.661459,0.0155 q 0,-0.10852 -0.05168,-0.18604 -0.05168,-0.0792 -0.124024,-0.10852 -0.09129,-0.0396 -0.1757,-0.0448 -0.08268,-0.007 -0.225654,-0.007 h -0.09129 v 0.76825 h 0.04479 q 0.09129,0 0.172254,-0.002 0.08096,-0.002 0.141249,-0.0121 0.05168,-0.009 0.108521,-0.0327 0.05857,-0.0258 0.08957,-0.0568 0.06546,-0.0637 0.08785,-0.13263 0.02411,-0.0689 0.02411,-0.18604 z" />
    </g>
    <g
       transform="translate(-3.9999999e-6,-5.0800114)"
       style="font-weight:bold;font-size:3.52778px;line-height:1.25;font-family:Tahoma;-inkscape-font-specification:'Tahoma, Bold';letter-spacing:0px;stroke-width:0.264583"
       id="text60"
       aria-label="NOISE">
      <path
         id="path98"
         style="font-size:3.52778px;stroke-width:0.264583"
         d="M 6.8018965,261.22244 H 6.1817789 l -0.988743,-1.788 v 1.788 H 4.6039242 v -2.56487 h 0.7906499 l 0.8182107,1.46933 v -1.46933 h 0.5891117 z" />
      <path
         id="path100"
         style="font-size:3.52778px;stroke-width:0.264583"
         d="m 9.6613277,259.94087 q 0,0.62184 -0.332452,0.9784 -0.3324519,0.35657 -0.9112283,0.35657 -0.580499,0 -0.9112284,-0.36001 -0.3307293,-0.36174 -0.3307293,-0.97496 0,-0.6184 0.3307293,-0.97669 0.3307294,-0.36001 0.9112284,-0.36001 0.5787764,0 0.9112283,0.35829 0.332452,0.35657 0.332452,0.97841 z m -0.6649039,-0.002 q 0,-0.2291 -0.048231,-0.38929 -0.046509,-0.16192 -0.125746,-0.26527 -0.082682,-0.10508 -0.1877579,-0.14987 -0.1033529,-0.0465 -0.2153186,-0.0465 -0.1188558,0 -0.2153186,0.0431 -0.096463,0.0413 -0.1860352,0.14986 -0.079237,0.0999 -0.1291912,0.26527 -0.048231,0.16537 -0.048231,0.39447 0,0.23599 0.046509,0.39274 0.046509,0.15503 0.1274687,0.2601 0.082682,0.1068 0.1877578,0.15331 0.1050755,0.0448 0.2170411,0.0448 0.1136883,0 0.2204863,-0.0482 0.106798,-0.0499 0.1843127,-0.1533 0.082682,-0.11197 0.1274686,-0.26011 0.044786,-0.14986 0.044786,-0.39102 z" />
      <path
         id="path102"
         style="font-size:3.52778px;stroke-width:0.264583"
         d="M 11.31842,261.22244 H 9.9369354 v -0.44786 h 0.3686256 v -1.66915 H 9.9369354 v -0.44786 H 11.31842 v 0.44786 h -0.368626 v 1.66915 h 0.368626 z" />
      <path
         id="path104"
         style="font-size:3.52778px;stroke-width:0.264583"
         d="m 12.541429,261.26895 q -0.294556,0 -0.518487,-0.0568 -0.222209,-0.0568 -0.413412,-0.14125 v -0.60978 h 0.05857 q 0.192925,0.16364 0.425469,0.25149 0.232545,0.0878 0.451308,0.0878 0.05512,0 0.144694,-0.0121 0.0913,-0.0121 0.146417,-0.0379 0.06718,-0.0293 0.113688,-0.081 0.04651,-0.0534 0.04651,-0.13952 0,-0.0965 -0.07579,-0.15675 -0.07579,-0.0603 -0.180868,-0.0879 -0.130913,-0.0344 -0.280775,-0.0655 -0.148139,-0.031 -0.277331,-0.0758 -0.298,-0.10508 -0.427192,-0.2825 -0.129191,-0.17742 -0.129191,-0.44442 0,-0.36001 0.304891,-0.58222 0.304891,-0.22393 0.761367,-0.22393 0.229099,0 0.454753,0.0465 0.227376,0.0465 0.406521,0.12574 v 0.58567 h -0.05684 q -0.142971,-0.1223 -0.349677,-0.20671 -0.204983,-0.0844 -0.422025,-0.0844 -0.08441,0 -0.151584,0.0121 -0.06718,0.0121 -0.141249,0.0465 -0.06029,0.0276 -0.105075,0.0827 -0.04306,0.0534 -0.04306,0.12058 0,0.0982 0.0689,0.15675 0.07062,0.0568 0.27044,0.10335 0.129191,0.0293 0.248047,0.0568 0.120578,0.0276 0.25666,0.0758 0.266995,0.0965 0.396186,0.2601 0.130914,0.16192 0.130914,0.42892 0,0.3824 -0.301446,0.61495 -0.299724,0.23254 -0.811321,0.23254 z" />
      <path
         id="path106"
         style="font-size:3.52778px;stroke-width:0.264583"
         d="m 13.98148,261.22244 v -2.56487 h 1.734607 v 0.4892 h -1.093819 v 0.44959 h 1.007691 v 0.4892 h -1.007691 v 0.64768 h 1.093819 v 0.4892 z" />
    </g>
    <g
       transform="translate(-3.0000039e-7,-2.5399534)"
       style="font-weight:bold;font-size:3.52778px;line-height:1.25;font-family:Tahoma;-inkscape-font-specification:'Tahoma, Bold';letter-spacing:0px;stroke-width:0.264583"
       id="text64"
       aria-label="TRIG">
      <path
         id="path109"
         style="font-size:3.52778px;stroke-width:0.264583"
         d="m 6.4961403,245.98071 v -2.07567 H 5.7382188 v -0.4892 H 7.898295 v 0.4892 H 7.1403736 v 2.07567 z" />
      <path
         id="path111"
         style="font-size:3.52778px;stroke-width:0.264583"
         d="M 10.538962,245.98071 H 9.7534801 L 9.0386223,245.0402 H 8.8078008 v 0.94051 H 8.1670126 v -2.56487 h 1.0318068 q 0.213596,0 0.3720705,0.0276 0.1584745,0.0258 0.2928333,0.11024 0.1378038,0.0879 0.2187638,0.22393 0.08096,0.13436 0.08096,0.34279 0,0.29456 -0.132637,0.47887 -0.1326358,0.18259 -0.3548446,0.29111 z m -1.036974,-1.77939 q 0,-0.0965 -0.037896,-0.16536 -0.036174,-0.0706 -0.122301,-0.10853 -0.060289,-0.0258 -0.1343588,-0.0327 -0.07407,-0.007 -0.1843127,-0.007 H 8.8078008 v 0.69074 h 0.1843127 q 0.1343588,0 0.2273764,-0.0155 0.09474,-0.0172 0.1601971,-0.0706 0.062012,-0.0482 0.091295,-0.11541 0.031006,-0.0672 0.031006,-0.1757 z" />
      <path
         id="path113"
         style="font-size:3.52778px;stroke-width:0.264583"
         d="m 12.008297,245.98071 h -1.381485 v -0.44786 h 0.368626 v -1.66915 h -0.368626 v -0.44786 h 1.381485 v 0.44786 h -0.368626 v 1.66915 h 0.368626 z" />
      <path
         id="path115"
         style="font-size:3.52778px;stroke-width:0.264583"
         d="m 14.581785,245.8343 q -0.16881,0.0689 -0.43925,0.13436 -0.268718,0.0654 -0.530545,0.0654 -0.604615,0 -0.964628,-0.34795 -0.35829,-0.34968 -0.35829,-0.99047 0,-0.60289 0.35829,-0.96635 0.360013,-0.36346 0.983576,-0.36346 0.322116,0 0.523654,0.062 0.201539,0.0603 0.416857,0.16536 v 0.60117 h -0.05857 q -0.04651,-0.0362 -0.134359,-0.10163 -0.08613,-0.0672 -0.16881,-0.11369 -0.09646,-0.0551 -0.223931,-0.0947 -0.125746,-0.0396 -0.266995,-0.0396 -0.165365,0 -0.301446,0.0517 -0.136082,0.0517 -0.24288,0.15847 -0.10163,0.10336 -0.161919,0.26183 -0.05857,0.15848 -0.05857,0.36863 0,0.44958 0.225654,0.66318 0.225654,0.21359 0.616672,0.21359 0.03445,0 0.08096,-0.002 0.04651,-0.002 0.08096,-0.005 v -0.50298 h -0.497817 v -0.48059 h 1.12138 z" />
    </g>
    <g
       style="font-weight:bold;font-size:3.52778px;line-height:1.25;font-family:Tahoma;-inkscape-font-specification:'Tahoma, Bold';letter-spacing:0px;stroke-width:0.264583"
       id="text68"
       aria-label="MODE">
      <path
         id="path118"
         style="font-size:3.52778px;stroke-width:0.264583"
         d="M 7.6442229,228.20242 H 7.0034347 v -1.70015 l -0.4668107,1.09726 h -0.43925 l -0.4668107,-1.09726 v 1.70015 H 5.0242261 v -2.56487 h 0.7424186 l 0.5684411,1.26607 0.5667185,-1.26607 h 0.7424186 z" />
      <path
         id="path120"
         style="font-size:3.52778px;stroke-width:0.264583"
         d="m 10.508822,226.92085 q 0,0.62184 -0.332452,0.9784 -0.3324523,0.35657 -0.9112287,0.35657 -0.580499,0 -0.9112284,-0.36001 -0.3307293,-0.36174 -0.3307293,-0.97496 0,-0.6184 0.3307293,-0.97669 0.3307294,-0.36001 0.9112284,-0.36001 0.5787764,0 0.9112287,0.35829 0.332452,0.35657 0.332452,0.97841 z m -0.6649043,-0.002 q 0,-0.22909 -0.048231,-0.38929 -0.046509,-0.16192 -0.125746,-0.26527 -0.082682,-0.10508 -0.1877579,-0.14987 -0.1033529,-0.0465 -0.2153186,-0.0465 -0.1188558,0 -0.2153186,0.0431 -0.096463,0.0413 -0.1860353,0.14986 -0.079237,0.0999 -0.1291911,0.26527 -0.048231,0.16537 -0.048231,0.39447 0,0.23599 0.046509,0.39274 0.046509,0.15503 0.1274686,0.2601 0.082682,0.1068 0.1877579,0.15331 0.1050755,0.0448 0.2170411,0.0448 0.1136883,0 0.2204863,-0.0482 0.106798,-0.0499 0.1843127,-0.1533 0.082682,-0.11197 0.1274686,-0.26011 0.044786,-0.14986 0.044786,-0.39102 z" />
      <path
         id="path122"
         style="font-size:3.52778px;stroke-width:0.264583"
         d="m 13.178772,226.92257 q 0,0.35829 -0.156752,0.64251 -0.156752,0.2825 -0.396186,0.43408 -0.199816,0.12919 -0.435805,0.16709 -0.234267,0.0362 -0.499539,0.0362 h -0.802708 v -2.56487 H 11.6836 q 0.27044,0 0.506429,0.0344 0.235989,0.0344 0.442695,0.16709 0.253215,0.16192 0.399631,0.43752 0.146417,0.27389 0.146417,0.64596 z m -0.661459,-0.005 q 0,-0.25321 -0.08785,-0.43236 -0.08613,-0.18087 -0.266995,-0.2825 -0.130914,-0.0723 -0.275608,-0.0792 -0.142971,-0.007 -0.342787,-0.007 h -0.01206 v 1.60541 h 0.01206 q 0.217041,0 0.36518,-0.007 0.149862,-0.009 0.284221,-0.093 0.158475,-0.0999 0.241157,-0.2756 0.08268,-0.1757 0.08268,-0.42892 z" />
      <path
         id="path124"
         style="font-size:3.52778px;stroke-width:0.264583"
         d="m 13.561178,228.20242 v -2.56487 h 1.734607 v 0.4892 h -1.093819 v 0.44959 h 1.007691 v 0.4892 h -1.007691 v 0.64768 h 1.093819 v 0.4892 z" />
    </g>
  </g>
  <g
     style="display:inline"
     inkscape:label="components"
     id="layer2"
     inkscape:groupmode="layer">
    <circle
       r="0.035242248"
       cy="-48.154167"
       cx="-43.920834"
       style="fill:#000000;stroke:#000000;stroke-width:0.264583"
       id="path30" />
    <circle
       r="0.0088105621"
       cy="-2.5135417"
       cx="-32.279167"
       style="fill:#000000;stroke:#000000;stroke-width:0.264583"
       id="path32" />
    <circle
       r="0.0088105621"
       cy="0.1984375"
       cx="-17.991667"
       style="fill:#000000;stroke:#000000;stroke-width:0.264583"
       id="path34" />
    <circle
       r="0.0088105621"
       cy="2.9104166"
       cx="-25.069271"
       style="fill:#000000;stroke:#000000;stroke-width:0.264583"
       id="path36" />
    <text
       id="text42"
       y="11.90625"
       x="-38.695312"
       style="font-size:10.5833px;line-height:1.25;font-family:'Eras Bold ITC';-inkscape-font-specification:'Eras Bold ITC';stroke-width:0.264583"
       xml:space="preserve"><tspan
         style="font-style:normal;font-variant:normal;font-weight:bold;font-stretch:normal;font-size:3.52778px;font-family:Garamond;-inkscape-font-specification:'Garamond Bold';stroke-width:0.264583"
         y="11.90625"
         x="-38.695312"
         id="tspan40"
         sodipodi:role="line" /></text>
    <text
       id="text78"
       y="16.668749"
       x="-45.111458"
       style="font-size:10.5833px;line-height:1.25;font-family:'Eras Bold ITC';-inkscape-font-specification:'Eras Bold ITC';stroke-width:0.264583"
       xml:space="preserve"><tspan
         style="stroke-width:0.264583"
         y="16.668749"
         x="-45.111458"
         id="tspan76"
         sodipodi:role="line" /></text>
  </g>
</svg>
