<?xml version="1.0" encoding="UTF-8" standalone="no"?>
<svg
   xmlns:dc="http://purl.org/dc/elements/1.1/"
   xmlns:cc="http://creativecommons.org/ns#"
   xmlns:rdf="http://www.w3.org/1999/02/22-rdf-syntax-ns#"
   xmlns:svg="http://www.w3.org/2000/svg"
   xmlns="http://www.w3.org/2000/svg"
   xmlns:sodipodi="http://sodipodi.sourceforge.net/DTD/sodipodi-0.dtd"
   xmlns:inkscape="http://www.inkscape.org/namespaces/inkscape"
   width="20.32mm"
   height="128.5mm"
   viewBox="0 0 20.320002 128.50002"
   version="1.1"
   id="svg8"
   inkscape:version="1.0 (4035a4fb49, 2020-05-01)"
   sodipodi:docname="RotaTrig.svg">
  <defs
     id="defs2">
    <inkscape:path-effect
       hide_knots="false"
       only_selected="false"
       apply_with_radius="true"
       apply_no_radius="true"
       use_knot_distance="true"
       flexible="false"
       chamfer_steps="1"
       radius="4"
       mode="F"
       method="auto"
       unit="mm"
       satellites_param="F,0,0,1,0,4,0,1 @ F,0,0,1,0,4,0,1 @ F,0,0,1,0,4,0,1 @ F,0,0,1,0,4,0,1"
       lpeversion="1"
       is_visible="true"
       id="path-effect95"
       effect="fillet_chamfer" />
    <inkscape:path-effect
       hide_knots="false"
       only_selected="false"
       apply_with_radius="true"
       apply_no_radius="true"
       use_knot_distance="true"
       flexible="false"
       chamfer_steps="1"
       radius="4"
       mode="F"
       method="auto"
       unit="mm"
       satellites_param="F,0,0,1,0,4,0,1 @ F,0,0,1,0,4,0,1 @ F,0,0,1,0,4,0,1 @ F,0,0,1,0,4,0,1"
       lpeversion="1"
       is_visible="true"
       id="path-effect105"
       effect="fillet_chamfer" />
    <inkscape:path-effect
       hide_knots="false"
       only_selected="false"
       apply_with_radius="true"
       apply_no_radius="true"
       use_knot_distance="true"
       flexible="false"
       chamfer_steps="1"
       radius="4"
       mode="F"
       method="auto"
       unit="mm"
       satellites_param="F,0,0,1,0,4,0,1 @ F,0,0,1,0,4,0,1 @ F,0,0,1,0,4,0,1 @ F,0,0,1,0,4,0,1"
       lpeversion="1"
       is_visible="true"
       id="path-effect96"
       effect="fillet_chamfer" />
    <inkscape:path-effect
       effect="fillet_chamfer"
       id="path-effect77"
       is_visible="true"
       lpeversion="1"
       satellites_param="F,0,0,1,0,4,0,1 @ F,0,0,1,0,4,0,1 @ F,0,0,1,0,4,0,1 @ F,0,0,1,0,4,0,1"
       unit="mm"
       method="auto"
       mode="F"
       radius="4"
       chamfer_steps="1"
       flexible="false"
       use_knot_distance="true"
       apply_no_radius="true"
       apply_with_radius="true"
       only_selected="false"
       hide_knots="false" />
    <inkscape:path-effect
       effect="fillet_chamfer"
       id="path-effect161"
       is_visible="true"
       lpeversion="1"
       satellites_param="F,0,0,1,0,4,0,1 @ F,0,0,1,0,4,0,1 @ F,0,0,1,0,4,0,1 @ F,0,0,1,0,4,0,1"
       unit="mm"
       method="auto"
       mode="F"
       radius="4"
       chamfer_steps="1"
       flexible="false"
       use_knot_distance="true"
       apply_no_radius="true"
       apply_with_radius="true"
       only_selected="false"
       hide_knots="false" />
    <inkscape:path-effect
       effect="fillet_chamfer"
       id="path-effect152"
       is_visible="true"
       lpeversion="1"
       satellites_param="F,0,0,1,0,4,0,1 @ F,0,0,1,0,4,0,1 @ F,0,0,1,0,4,0,1 @ F,0,0,1,0,4,0,1"
       unit="mm"
       method="auto"
       mode="F"
       radius="4"
       chamfer_steps="1"
       flexible="false"
       use_knot_distance="true"
       apply_no_radius="true"
       apply_with_radius="true"
       only_selected="false"
       hide_knots="false" />
    <inkscape:path-effect
       effect="fillet_chamfer"
       id="path-effect143"
       is_visible="true"
       lpeversion="1"
       satellites_param="F,0,0,1,0,4,0,1 @ F,0,0,1,0,4,0,1 @ F,0,0,1,0,4,0,1 @ F,0,0,1,0,4,0,1"
       unit="mm"
       method="auto"
       mode="F"
       radius="4"
       chamfer_steps="1"
       flexible="false"
       use_knot_distance="true"
       apply_no_radius="true"
       apply_with_radius="true"
       only_selected="false"
       hide_knots="false" />
    <inkscape:path-effect
       hide_knots="false"
       only_selected="false"
       apply_with_radius="true"
       apply_no_radius="true"
       use_knot_distance="true"
       flexible="false"
       chamfer_steps="1"
       radius="4"
       mode="F"
       method="auto"
       unit="mm"
       satellites_param="F,0,0,1,0,4,0,1 @ F,0,0,1,0,4,0,1 @ F,0,0,1,0,4,0,1 @ F,0,0,1,0,4,0,1"
       lpeversion="1"
       is_visible="true"
       id="path-effect124"
       effect="fillet_chamfer" />
    <inkscape:path-effect
       effect="fillet_chamfer"
       id="path-effect154"
       is_visible="true"
       lpeversion="1"
       satellites_param="F,0,0,1,0,4,0,1 @ F,0,0,1,0,4,0,1 @ F,0,0,1,0,4,0,1 @ F,0,0,1,0,4,0,1"
       unit="mm"
       method="auto"
       mode="F"
       radius="4"
       chamfer_steps="1"
       flexible="false"
       use_knot_distance="true"
       apply_no_radius="true"
       apply_with_radius="true"
       only_selected="false"
       hide_knots="false" />
    <inkscape:path-effect
       effect="fillet_chamfer"
       id="path-effect2327"
       is_visible="true"
       lpeversion="1"
       satellites_param="F,0,0,1,0,4,0,1 @ F,0,0,1,0,4,0,1 @ F,0,0,1,0,4,0,1 @ F,0,0,1,0,4,0,1"
       unit="mm"
       method="auto"
       mode="F"
       radius="4"
       chamfer_steps="1"
       flexible="false"
       use_knot_distance="true"
       apply_no_radius="true"
       apply_with_radius="true"
       only_selected="false"
       hide_knots="false" />
  </defs>
  <sodipodi:namedview
     id="base"
     pagecolor="#ffffff"
     bordercolor="#666666"
     borderopacity="1.0"
     inkscape:pageopacity="0.0"
     inkscape:pageshadow="2"
     inkscape:zoom="9.5760231"
     inkscape:cx="42.796838"
     inkscape:cy="98.312794"
     inkscape:document-units="mm"
     inkscape:current-layer="layer1"
     showgrid="true"
     units="mm"
     inkscape:snap-bbox="true"
     inkscape:snap-page="true"
     inkscape:bbox-nodes="false"
     inkscape:snap-bbox-edge-midpoints="false"
     inkscape:window-width="927"
     inkscape:window-height="1048"
     inkscape:window-x="2904"
     inkscape:window-y="0"
     inkscape:window-maximized="0"
     inkscape:snap-bbox-midpoints="true"
     inkscape:snap-nodes="false"
     inkscape:document-rotation="0"
     inkscape:lockguides="false"
     objecttolerance="24.3"
     gridtolerance="26.6"
     guidetolerance="28.7">
    <inkscape:grid
       type="xygrid"
       id="grid86"
       units="mm"
       color="#ffd984"
       opacity="0.53333333"
       spacingx="2.5400004"
       spacingy="2.5400004"
       empcolor="#71530f"
       empopacity="0.25098039"
       empspacing="4" />
  </sodipodi:namedview>
  <metadata
     id="metadata5">
    <rdf:RDF>
      <cc:Work
         rdf:about="">
        <dc:format>image/svg+xml</dc:format>
        <dc:type
           rdf:resource="http://purl.org/dc/dcmitype/StillImage" />
        <dc:title />
        <dc:creator>
          <cc:Agent>
            <dc:title>Firo Lightfog</dc:title>
          </cc:Agent>
        </dc:creator>
      </cc:Work>
    </rdf:RDF>
  </metadata>
  <g
     style="display:inline"
     inkscape:label="Layer 1"
     inkscape:groupmode="layer"
     id="layer1"
     transform="translate(0,-168.49998)">
    <rect
       style="display:inline;opacity:1;vector-effect:none;fill:#cccccc;fill-opacity:1;fill-rule:evenodd;stroke:none;stroke-width:0.528505;stroke-linecap:butt;stroke-linejoin:miter;stroke-miterlimit:4;stroke-dasharray:none;stroke-dashoffset:0;stroke-opacity:1;paint-order:normal"
       id="rect420"
       width="20.182999"
       height="128.54678"
       x="0.068502754"
       y="168.49834" />
    <text
       xml:space="preserve"
       style="font-size:10.5833px;line-height:1.25;font-family:'Eras Bold ITC';-inkscape-font-specification:'Eras Bold ITC';stroke-width:0.264583"
       x="1.1693041"
       y="277.43234"
       id="text59"><tspan
         sodipodi:role="line"
         id="tspan57"
         x="1.1693041"
         y="277.43234"
         style="font-size:2.82222px;fill:#ffff00;stroke-width:0.264583" /></text>
    <text
       xml:space="preserve"
       style="font-size:10.5833px;line-height:1.25;font-family:'Eras Bold ITC';-inkscape-font-specification:'Eras Bold ITC';stroke-width:0.264583"
       x="-78.577248"
       y="172.05467"
       id="text127"><tspan
         sodipodi:role="line"
         id="tspan125"
         x="-78.577248"
         y="172.05467"
         style="stroke-width:0.264583" /></text>
    <text
       xml:space="preserve"
       style="font-size:10.5833px;line-height:1.25;font-family:'Eras Bold ITC';-inkscape-font-specification:'Eras Bold ITC';stroke-width:0.264583"
       x="-89.989647"
       y="186.46049"
       id="text131"><tspan
         sodipodi:role="line"
         id="tspan129"
         x="-89.989647"
         y="186.46049"
         style="stroke-width:0.264583" /></text>
    <g
       aria-label="b"
       id="text104"
       style="font-weight:bold;font-size:6.35px;line-height:1.25;font-family:Tahoma;-inkscape-font-specification:'Tahoma, Bold';fill:#000000;stroke-width:0.264583">
      <path
         d="m 3.2732611,177.4586 v 0.68213 q 0.3927406,0 0.592556,0.19982 0.2067056,0.19981 0.3927406,0.76481 l 0.110243,0.34451 q 0.37207,1.14377 1.2195628,1.50206 -0.7854811,0.15158 -1.2540138,0.64768 -0.4616424,0.4892 -0.4616424,1.16444 0,0.94395 0.7096891,1.56407 0.7096891,0.61323 1.7983385,0.61323 1.6536445,0 2.5562588,-1.41938 L 8.4064495,183.0741 q -0.5856658,0.62701 -1.2057825,0.62701 -0.5098738,0 -0.8750536,-0.33073 -0.3651799,-0.33762 -0.3651799,-0.79926 0,-0.38585 0.2824977,-0.66835 0.2893878,-0.28249 0.6752382,-0.28249 0.6959087,0 1.9499225,0.98529 l 0.4203013,0.33073 q 2.0463848,1.6123 3.9067348,1.6123 1.612304,0 2.728514,-1.06108 1.1231,-1.06109 1.1231,-2.58382 0,-1.54341 -1.157551,-2.49425 -1.157551,-0.95085 -3.038572,-0.95085 h -0.227376 v 0.68213 q 1.11621,0.0758 1.770778,0.77859 0.654567,0.69591 0.654567,1.81212 0,1.10243 -0.826822,1.88791 -0.826822,0.77859 -1.998154,0.77859 -1.12999,0 -2.011934,-0.68901 -0.8819437,-0.68902 -0.8819437,-1.57097 0,-0.4203 0.2687173,-0.70969 0.2756074,-0.28938 0.6752384,-0.28938 0.399631,0 0.599446,0.22048 0.206705,0.2136 0.206705,0.65457 0,0.26872 -0.151584,0.6339 l 0.620117,0.28249 q 0.413411,-0.9784 0.413411,-1.63986 0,-0.81304 -0.530544,-1.39182 -0.523654,-0.58566 -1.267794,-0.58566 -0.475423,0 -0.8681636,0.23426 -0.3927406,0.23427 -0.7027989,0.70969 -0.3996308,-0.99907 -1.2677942,-1.39871 -0.8612732,-0.39963 -2.6182705,-0.39963 z m 4.9609337,3.36241 Q 7.2213375,180.62809 6.3807349,179.13292 L 6.2636017,178.9331 q -0.3651798,-0.64767 -0.8819437,-0.84749 2.6320509,0 2.8525368,2.7354 z"
         style="font-style:normal;font-variant:normal;font-weight:bold;font-stretch:normal;font-size:14.1111px;font-family:'Wingdings 2';-inkscape-font-specification:'Wingdings 2 Bold';fill:#000000;stroke-width:0.264583"
         id="path116" />
    </g>
    <path
       d="m 15.316009,214.22485 a 3.9247303,3.9247303 46.10965 0 1 3.847988,4 v 68.1903 a 4,4 135 0 1 -4,4 3.9247303,3.9247303 46.10965 0 1 -3.847988,-4 v -68.1903 a 4,4 135 0 1 4,-4 z"
       sodipodi:type="rect"
       inkscape:path-effect="#path-effect2327"
       style="display:inline;fill:#de8787;stroke-width:0.499144"
       id="recta-2"
       width="7.8479886"
       height="76.190292"
       x="11.316009"
       y="214.22485" />
    <g
       style="font-weight:bold;font-size:3.52778px;line-height:1.25;font-family:Tahoma;-inkscape-font-specification:'Tahoma, Bold';letter-spacing:0px;stroke-width:0.264583"
       id="text657"
       aria-label="ROTATRIG">
      <path
         id="path735"
         style="font-size:3.52778px;stroke-width:0.264583"
         d="M 3.3128762,294.24243 H 2.5273939 L 1.8125361,293.30192 H 1.5817146 v 0.94051 H 0.9409264 v -2.56487 h 1.0318068 q 0.213596,0 0.3720705,0.0276 0.1584745,0.0258 0.2928333,0.11024 0.1378039,0.0879 0.2187637,0.22393 0.08096,0.13436 0.08096,0.34279 0,0.29455 -0.1326362,0.47887 -0.1326363,0.18259 -0.3548451,0.29111 z m -1.0369744,-1.77939 q 0,-0.0965 -0.037896,-0.16537 -0.036173,-0.0706 -0.122301,-0.10852 -0.060289,-0.0258 -0.1343588,-0.0327 -0.07407,-0.007 -0.1843127,-0.007 H 1.5817146 v 0.69075 h 0.1843127 q 0.1343588,0 0.2273764,-0.0155 0.09474,-0.0172 0.1601971,-0.0706 0.062012,-0.0482 0.091295,-0.11541 0.031006,-0.0672 0.031006,-0.1757 z" />
      <path
         id="path737"
         style="font-size:3.52778px;stroke-width:0.264583"
         d="m 5.8398554,292.96086 q 0,0.62184 -0.3324519,0.9784 -0.3324519,0.35657 -0.9112283,0.35657 -0.580499,0 -0.9112284,-0.36001 -0.3307294,-0.36174 -0.3307294,-0.97496 0,-0.6184 0.3307294,-0.97669 0.3307294,-0.36001 0.9112284,-0.36001 0.5787764,0 0.9112283,0.35829 0.3324519,0.35657 0.3324519,0.97841 z m -0.6649038,-0.002 q 0,-0.2291 -0.048231,-0.38929 -0.046509,-0.16192 -0.1257461,-0.26528 -0.082682,-0.10507 -0.1877578,-0.14986 -0.1033529,-0.0465 -0.2153186,-0.0465 -0.1188559,0 -0.2153186,0.0431 -0.096463,0.0413 -0.1860353,0.14986 -0.079237,0.0999 -0.1291911,0.26527 -0.048231,0.16537 -0.048231,0.39447 0,0.23598 0.046509,0.39274 0.046509,0.15503 0.1274686,0.2601 0.082682,0.1068 0.1877579,0.15331 0.1050754,0.0448 0.2170411,0.0448 0.1136882,0 0.2204863,-0.0482 0.106798,-0.0499 0.1843127,-0.1533 0.082682,-0.11197 0.1274686,-0.26011 0.044786,-0.14986 0.044786,-0.39102 z" />
      <path
         id="path739"
         style="font-size:3.52778px;stroke-width:0.264583"
         d="m 6.7114651,294.24243 v -2.07567 H 5.9535436 v -0.4892 h 2.1600763 v 0.4892 H 7.3556984 v 2.07567 z" />
      <path
         id="path741"
         style="font-size:3.52778px;stroke-width:0.264583"
         d="m 8.1067296,294.24243 0.8664421,-2.56487 h 0.7027999 l 0.8664424,2.56487 H 9.8792324 L 9.7190353,293.71878 H 8.9128825 l -0.1601971,0.52365 z m 1.4710567,-0.98874 -0.2618274,-0.84577 -0.2618274,0.84577 z" />
      <path
         id="path743"
         style="font-size:3.52778px;stroke-width:0.264583"
         d="m 11.293445,294.24243 v -2.07567 h -0.757921 v -0.4892 H 12.6956 v 0.4892 h -0.757921 v 2.07567 z" />
      <path
         id="path745"
         style="font-size:3.52778px;stroke-width:0.264583"
         d="m 15.336267,294.24243 h -0.785482 l -0.714858,-0.94051 h -0.230822 v 0.94051 h -0.640788 v -2.56487 h 1.031807 q 0.213596,0 0.37207,0.0276 0.158475,0.0258 0.292834,0.11024 0.137804,0.0879 0.218763,0.22393 0.08096,0.13436 0.08096,0.34279 0,0.29455 -0.132636,0.47887 -0.132636,0.18259 -0.354845,0.29111 z m -1.036974,-1.77939 q 0,-0.0965 -0.0379,-0.16537 -0.03617,-0.0706 -0.122301,-0.10852 -0.06029,-0.0258 -0.134358,-0.0327 -0.07407,-0.007 -0.184313,-0.007 h -0.215319 v 0.69075 h 0.184313 q 0.134359,0 0.227377,-0.0155 0.09474,-0.0172 0.160197,-0.0706 0.06201,-0.0482 0.0913,-0.11541 0.03101,-0.0672 0.03101,-0.1757 z" />
      <path
         id="path747"
         style="font-size:3.52778px;stroke-width:0.264583"
         d="m 16.805602,294.24243 h -1.381484 v -0.44786 h 0.368625 v -1.66915 h -0.368625 v -0.44786 h 1.381484 v 0.44786 h -0.368626 v 1.66915 h 0.368626 z" />
      <path
         id="path749"
         style="font-size:3.52778px;stroke-width:0.264583"
         d="m 19.37909,294.09601 q -0.16881,0.0689 -0.43925,0.13436 -0.268718,0.0655 -0.530545,0.0655 -0.604615,0 -0.964627,-0.34795 -0.35829,-0.34968 -0.35829,-0.99047 0,-0.60289 0.35829,-0.96635 0.360012,-0.36346 0.983575,-0.36346 0.322117,0 0.523655,0.062 0.201538,0.0603 0.416857,0.16537 v 0.60117 h -0.05857 q -0.04651,-0.0362 -0.134359,-0.10163 -0.08613,-0.0672 -0.168809,-0.11369 -0.09646,-0.0551 -0.223932,-0.0947 -0.125746,-0.0396 -0.266995,-0.0396 -0.165365,0 -0.301446,0.0517 -0.136081,0.0517 -0.242879,0.15847 -0.101631,0.10335 -0.16192,0.26183 -0.05857,0.15847 -0.05857,0.36862 0,0.44959 0.225654,0.66319 0.225654,0.21359 0.616673,0.21359 0.03445,0 0.08096,-0.002 0.04651,-0.002 0.08096,-0.005 v -0.50298 h -0.497816 v -0.48059 h 1.121379 z" />
    </g>
    <g
       transform="translate(-2.5399982,-80.093866)"
       style="font-weight:bold;font-size:2.82222px;line-height:1.25;font-family:Tahoma;-inkscape-font-specification:'Tahoma, Bold';letter-spacing:0px;display:inline;stroke-width:0.264583"
       id="text877"
       aria-label="CLK">
      <path
         id="path921"
         style="font-size:2.82222px;stroke-width:0.264583"
         d="m 5.9153671,268.6259 q -0.4616425,0 -0.7331158,-0.27836 -0.2714733,-0.27974 -0.2714733,-0.78548 0,-0.48783 0.2714733,-0.77722 0.2728514,-0.29076 0.7344938,-0.29076 0.1226453,0 0.220486,0.0138 0.097841,0.0138 0.187413,0.0386 0.07028,0.0207 0.1529621,0.0565 0.082682,0.0358 0.1336696,0.062 v 0.48921 h -0.052365 q -0.037207,-0.0331 -0.093707,-0.0786 -0.056499,-0.0469 -0.1281575,-0.0909 -0.071658,-0.0441 -0.1584742,-0.0744 -0.085438,-0.0317 -0.1791449,-0.0317 -0.111621,0 -0.2053275,0.0358 -0.092328,0.0344 -0.1763888,0.12127 -0.07717,0.0785 -0.1267794,0.21221 -0.048231,0.13367 -0.048231,0.31557 0,0.19155 0.050987,0.32246 0.050987,0.12954 0.1336696,0.20947 0.079926,0.0772 0.1777668,0.11162 0.099219,0.0344 0.1970593,0.0344 0.1019748,0 0.1943032,-0.0331 0.092328,-0.0345 0.1557182,-0.0758 0.068902,-0.0427 0.1212673,-0.0868 0.052365,-0.0441 0.09095,-0.0786 h 0.046853 v 0.48231 q -0.056499,0.0262 -0.1309135,0.0606 -0.074414,0.0331 -0.1529621,0.0565 -0.096463,0.0289 -0.1805229,0.0441 -0.08406,0.0152 -0.2315102,0.0152 z" />
      <path
         id="path923"
         style="font-size:2.82222px;stroke-width:0.264583"
         d="M 8.285591,268.58594 H 6.9158221 v -2.0519 H 7.431208 v 1.66053 h 0.854383 z" />
      <path
         id="path925"
         style="font-size:2.82222px;stroke-width:0.264583"
         d="M 10.32922,268.58594 H 9.7063472 l -0.559483,-0.83371 -0.1005967,0.14055 v 0.69316 H 8.5308816 v -2.0519 h 0.5153859 v 0.91088 l 0.6559456,-0.91088 h 0.5966899 l -0.7317375,0.95222 z" />
    </g>
    <g
       transform="translate(4.0000002e-7,-6.4338606)"
       style="font-weight:bold;font-size:4.23333px;line-height:1.25;font-family:Tahoma;-inkscape-font-specification:'Tahoma, Bold';letter-spacing:0px;stroke-width:0.264583"
       id="text685"
       aria-label="MODE">
      <path
         id="path699"
         style="font-size:2.82222px;stroke-width:0.264583"
         d="m 13.227379,194.92593 h -0.51263 v -1.36012 l -0.373448,0.87781 h -0.3514 l -0.373448,-0.87781 v 1.36012 h -0.485069 v -2.05189 h 0.593934 l 0.454753,1.01285 0.453374,-1.01285 h 0.593934 z" />
      <path
         id="path701"
         style="font-size:2.82222px;stroke-width:0.264583"
         d="m 15.519055,193.90067 q 0,0.49748 -0.265961,0.78273 -0.265962,0.28525 -0.728982,0.28525 -0.464399,0 -0.728982,-0.28801 -0.264583,-0.28938 -0.264583,-0.77997 0,-0.49471 0.264583,-0.78134 0.264583,-0.28801 0.728982,-0.28801 0.46302,0 0.728982,0.28663 0.265961,0.28525 0.265961,0.78272 z m -0.531923,-0.001 q 0,-0.18328 -0.03859,-0.31144 -0.03721,-0.12954 -0.100596,-0.21222 -0.06615,-0.0841 -0.150206,-0.11989 -0.08268,-0.0372 -0.172255,-0.0372 -0.09508,0 -0.172255,0.0344 -0.07717,0.0331 -0.148828,0.11989 -0.06339,0.0799 -0.103353,0.21221 -0.03858,0.1323 -0.03858,0.31557 0,0.1888 0.03721,0.3142 0.03721,0.12402 0.101975,0.20808 0.06615,0.0854 0.150206,0.12265 0.08406,0.0358 0.173633,0.0358 0.09095,0 0.176389,-0.0386 0.08544,-0.04 0.14745,-0.12265 0.06615,-0.0896 0.101974,-0.20808 0.03583,-0.11989 0.03583,-0.31281 z" />
      <path
         id="path703"
         style="font-size:2.82222px;stroke-width:0.264583"
         d="m 17.655013,193.90205 q 0,0.28663 -0.125402,0.51401 -0.125401,0.226 -0.316948,0.34727 -0.159853,0.10335 -0.348644,0.13367 -0.187413,0.0289 -0.399631,0.0289 h -0.642165 v -2.05189 h 0.636653 q 0.216352,0 0.405143,0.0276 0.188791,0.0276 0.354156,0.13367 0.202571,0.12953 0.319704,0.35002 0.117134,0.21911 0.117134,0.51676 z m -0.529167,-0.004 q 0,-0.20257 -0.07028,-0.34589 -0.0689,-0.14469 -0.213595,-0.226 -0.104731,-0.0579 -0.220486,-0.0634 -0.114377,-0.006 -0.27423,-0.006 h -0.0096 v 1.28433 h 0.0096 q 0.173633,0 0.292144,-0.006 0.119889,-0.007 0.227376,-0.0744 0.12678,-0.0799 0.192925,-0.22049 0.06615,-0.14056 0.06615,-0.34313 z" />
      <path
         id="path705"
         style="font-size:2.82222px;stroke-width:0.264583"
         d="m 17.960936,194.92593 v -2.05189 h 1.387684 v 0.39136 h -0.875054 v 0.35967 h 0.806152 v 0.39136 h -0.806152 v 0.51814 h 0.875054 v 0.39136 z" />
    </g>
    <g
       transform="translate(-3.8500001e-6,-5.0799948)"
       style="font-weight:bold;font-size:4.23333px;line-height:1.25;font-family:Tahoma;-inkscape-font-specification:'Tahoma, Bold';letter-spacing:0px;stroke-width:0.264583"
       id="text689"
       aria-label="SLOTS">
      <path
         id="path708"
         style="font-size:2.82222px;stroke-width:0.264583"
         d="m 6.435856,207.66314 q -0.2356443,0 -0.4147891,-0.0455 -0.1777668,-0.0455 -0.330729,-0.113 v -0.48782 h 0.046853 q 0.1543402,0.13091 0.3403752,0.20119 0.186035,0.0703 0.3610457,0.0703 0.044097,0 0.1157551,-0.01 0.073036,-0.01 0.1171332,-0.0303 0.053743,-0.0234 0.09095,-0.0648 0.037207,-0.0427 0.037207,-0.11162 0,-0.0772 -0.060634,-0.1254 -0.060634,-0.0482 -0.1446939,-0.0703 -0.1047308,-0.0276 -0.22462,-0.0524 -0.1185112,-0.0248 -0.221864,-0.0606 -0.2384005,-0.0841 -0.3417532,-0.226 -0.1033528,-0.14194 -0.1033528,-0.35553 0,-0.28801 0.2439126,-0.46578 0.2439125,-0.17914 0.6090924,-0.17914 0.1832789,0 0.3638018,0.0372 0.1819009,0.0372 0.3252167,0.1006 v 0.46853 h -0.045475 q -0.1143771,-0.0978 -0.2797415,-0.16536 -0.1639864,-0.0675 -0.3376191,-0.0675 -0.067524,0 -0.1212673,0.01 -0.053743,0.01 -0.112999,0.0372 -0.048231,0.0221 -0.08406,0.0661 -0.034451,0.0427 -0.034451,0.0965 0,0.0785 0.055121,0.1254 0.0565,0.0455 0.2163518,0.0827 0.1033528,0.0234 0.1984373,0.0455 0.096463,0.022 0.2053276,0.0606 0.2135957,0.0772 0.3169485,0.20808 0.1047308,0.12954 0.1047308,0.34313 0,0.30593 -0.2411565,0.49196 -0.2397784,0.18604 -0.6490555,0.18604 z" />
      <path
         id="path710"
         style="font-size:2.82222px;stroke-width:0.264583"
         d="M 8.957664,207.62593 H 7.5878951 v -2.0519 H 8.103281 v 1.66054 h 0.854383 z" />
      <path
         id="path712"
         style="font-size:2.82222px;stroke-width:0.264583"
         d="m 11.071573,206.60067 q 0,0.49747 -0.265961,0.78273 -0.265961,0.28525 -0.728982,0.28525 -0.4643983,0 -0.7289814,-0.28801 -0.2645831,-0.28939 -0.2645831,-0.77997 0,-0.49471 0.2645831,-0.78135 0.2645831,-0.28801 0.7289814,-0.28801 0.463021,0 0.728982,0.28664 0.265961,0.28525 0.265961,0.78272 z m -0.531922,-0.001 q 0,-0.18328 -0.03858,-0.31143 -0.03721,-0.12954 -0.100597,-0.21222 -0.06615,-0.0841 -0.150206,-0.11989 -0.08268,-0.0372 -0.172255,-0.0372 -0.095084,0 -0.1722544,0.0344 -0.07717,0.0331 -0.148828,0.11989 -0.06339,0.0799 -0.1033528,0.21222 -0.038585,0.13229 -0.038585,0.31557 0,0.18879 0.037207,0.31419 0.037207,0.12403 0.1019747,0.20809 0.066146,0.0854 0.1502061,0.12264 0.08406,0.0358 0.1736324,0.0358 0.09095,0 0.176389,-0.0386 0.08544,-0.04 0.14745,-0.12265 0.06615,-0.0896 0.101975,-0.20808 0.03583,-0.11989 0.03583,-0.31282 z" />
      <path
         id="path714"
         style="font-size:2.82222px;stroke-width:0.264583"
         d="m 11.76886,207.62593 v -1.66053 h -0.606337 v -0.39137 h 1.728059 v 0.39137 h -0.606336 v 1.66053 z" />
      <path
         id="path716"
         style="font-size:2.82222px;stroke-width:0.264583"
         d="m 13.739453,207.66314 q -0.235644,0 -0.414789,-0.0455 -0.177767,-0.0455 -0.330729,-0.113 v -0.48782 h 0.04685 q 0.15434,0.13091 0.340375,0.20119 0.186035,0.0703 0.361046,0.0703 0.0441,0 0.115755,-0.01 0.07304,-0.01 0.117133,-0.0303 0.05374,-0.0234 0.09095,-0.0648 0.03721,-0.0427 0.03721,-0.11162 0,-0.0772 -0.06063,-0.1254 -0.06063,-0.0482 -0.144694,-0.0703 -0.104731,-0.0276 -0.22462,-0.0524 -0.118511,-0.0248 -0.221864,-0.0606 -0.2384,-0.0841 -0.341753,-0.226 -0.103353,-0.14194 -0.103353,-0.35553 0,-0.28801 0.243913,-0.46578 0.243912,-0.17914 0.609092,-0.17914 0.183279,0 0.363802,0.0372 0.181901,0.0372 0.325217,0.1006 v 0.46853 h -0.04547 q -0.114377,-0.0978 -0.279742,-0.16536 -0.163986,-0.0675 -0.337619,-0.0675 -0.06752,0 -0.121267,0.01 -0.05374,0.01 -0.112999,0.0372 -0.04823,0.0221 -0.08406,0.0661 -0.03445,0.0427 -0.03445,0.0965 0,0.0785 0.05512,0.1254 0.0565,0.0455 0.216352,0.0827 0.103353,0.0234 0.198437,0.0455 0.09646,0.022 0.205328,0.0606 0.213595,0.0772 0.316948,0.20808 0.104731,0.12954 0.104731,0.34313 0,0.30593 -0.241156,0.49196 -0.239779,0.18604 -0.649056,0.18604 z" />
    </g>
    <g
       transform="translate(0,-5.0800074)"
       style="font-weight:bold;font-size:4.23333px;line-height:1.25;font-family:Tahoma;-inkscape-font-specification:'Tahoma, Bold';letter-spacing:0px;stroke-width:0.264583"
       id="text693"
       aria-label="ENBL">
      <path
         id="path719"
         style="font-size:2.82222px;stroke-width:0.264583"
         d="m 1.4709215,222.86594 v -2.0519 H 2.858605 v 0.39136 H 1.9835514 v 0.35967 h 0.8061517 v 0.39136 H 1.9835514 v 0.51814 H 2.858605 v 0.39137 z" />
      <path
         id="path721"
         style="font-size:2.82222px;stroke-width:0.264583"
         d="M 4.9656238,222.86594 H 4.4695304 l -0.7909933,-1.43041 v 1.43041 H 3.2072484 v -2.0519 h 0.632519 l 0.6545677,1.17546 v -1.17546 h 0.4712887 z" />
      <path
         id="path723"
         style="font-size:2.82222px;stroke-width:0.264583"
         d="m 7.0257895,222.23755 q 0,0.15296 -0.057878,0.26872 -0.057878,0.11575 -0.1557182,0.19155 -0.1157552,0.0909 -0.2549369,0.12953 -0.1378037,0.0386 -0.3513995,0.0386 H 5.3845473 v -2.0519 h 0.7248475 q 0.2259981,0 0.3417532,0.0179 0.1171332,0.0165 0.2191079,0.0717 0.110243,0.0593 0.1639865,0.15848 0.055121,0.0992 0.055121,0.22875 0,0.15021 -0.075792,0.26734 -0.074414,0.11713 -0.2067056,0.17225 v 0.011 q 0.1901691,0.04 0.3045462,0.16398 0.1143771,0.12265 0.1143771,0.33211 z m -0.6600798,-0.84336 q 0,-0.0496 -0.026183,-0.10197 -0.024805,-0.0524 -0.078548,-0.0758 -0.050987,-0.0221 -0.1212673,-0.0234 -0.068902,-0.003 -0.2067055,-0.003 h -0.035829 v 0.43408 h 0.064768 q 0.1322916,0 0.184657,-0.003 0.053744,-0.003 0.110243,-0.0289 0.062012,-0.0289 0.085438,-0.0799 0.023427,-0.051 0.023427,-0.11851 z m 0.1295355,0.83372 q 0,-0.0951 -0.038585,-0.14883 -0.038585,-0.0538 -0.1157552,-0.0813 -0.046853,-0.0179 -0.1295354,-0.0193 -0.081304,-0.003 -0.2191079,-0.003 h -0.095085 v 0.51401 h 0.027561 q 0.2011935,0 0.2783635,-0.003 0.07717,-0.003 0.1570963,-0.0372 0.07028,-0.0303 0.1019747,-0.0882 0.033073,-0.0592 0.033073,-0.13366 z" />
      <path
         id="path725"
         style="font-size:2.82222px;stroke-width:0.264583"
         d="M 8.6890801,222.86594 H 7.3193112 v -2.0519 h 0.5153859 v 1.66053 h 0.854383 z" />
    </g>
    <g
       transform="translate(-1.000001e-7,-5.0800024)"
       style="font-weight:bold;font-size:4.23333px;line-height:1.25;font-family:Tahoma;-inkscape-font-specification:'Tahoma, Bold';letter-spacing:0px;stroke-width:0.264583"
       id="text697"
       aria-label="OUT">
      <path
         id="path728"
         style="font-size:2.82222px;stroke-width:0.264583"
         d="m 14.282956,221.84068 q 0,0.49747 -0.265961,0.78272 -0.265961,0.28526 -0.728982,0.28526 -0.464398,0 -0.728982,-0.28801 -0.264583,-0.28939 -0.264583,-0.77997 0,-0.49472 0.264583,-0.78135 0.264584,-0.28801 0.728982,-0.28801 0.463021,0 0.728982,0.28663 0.265961,0.28526 0.265961,0.78273 z m -0.531922,-0.001 q 0,-0.18328 -0.03859,-0.31144 -0.03721,-0.12953 -0.100597,-0.21222 -0.06615,-0.0841 -0.150206,-0.11988 -0.08268,-0.0372 -0.172255,-0.0372 -0.09508,0 -0.172255,0.0345 -0.07717,0.0331 -0.148828,0.11989 -0.06339,0.0799 -0.103352,0.21222 -0.03858,0.13229 -0.03858,0.31557 0,0.18879 0.03721,0.31419 0.03721,0.12402 0.101974,0.20808 0.06615,0.0854 0.150206,0.12265 0.08406,0.0358 0.173633,0.0358 0.09095,0 0.176389,-0.0386 0.08544,-0.04 0.14745,-0.12264 0.06615,-0.0896 0.101975,-0.20809 0.03583,-0.11989 0.03583,-0.31281 z" />
      <path
         id="path730"
         style="font-size:2.82222px;stroke-width:0.264583"
         d="m 15.415702,222.90866 q -0.413411,0 -0.636653,-0.19982 -0.221864,-0.19982 -0.221864,-0.58429 v -1.31051 h 0.515386 v 1.2802 q 0,0.21359 0.07993,0.31832 0.08131,0.10473 0.263205,0.10473 0.177767,0 0.260449,-0.10059 0.08406,-0.1006 0.08406,-0.32246 v -1.2802 h 0.515386 v 1.30913 q 0,0.37896 -0.21773,0.58291 -0.216352,0.20258 -0.642166,0.20258 z" />
      <path
         id="path732"
         style="font-size:2.82222px;stroke-width:0.264583"
         d="m 17.063835,222.86594 v -1.66054 h -0.606336 v -0.39136 h 1.728058 v 0.39136 h -0.606336 v 1.66054 z" />
    </g>
  </g>
  <g
     inkscape:groupmode="layer"
     id="layer2"
     inkscape:label="components"
     style="display:inline">
    <circle
       id="path30"
       style="fill:#000000;stroke:#000000;stroke-width:0.264583"
       cx="-43.920834"
       cy="-48.154167"
       r="0.035242248" />
    <circle
       id="path32"
       style="fill:#000000;stroke:#000000;stroke-width:0.264583"
       cx="-32.279167"
       cy="-2.5135417"
       r="0.0088105621" />
    <circle
       id="path34"
       style="fill:#000000;stroke:#000000;stroke-width:0.264583"
       cx="-17.991667"
       cy="0.1984375"
       r="0.0088105621" />
    <circle
       id="path36"
       style="fill:#000000;stroke:#000000;stroke-width:0.264583"
       cx="-25.069271"
       cy="2.9104166"
       r="0.0088105621" />
    <text
       xml:space="preserve"
       style="font-size:10.5833px;line-height:1.25;font-family:'Eras Bold ITC';-inkscape-font-specification:'Eras Bold ITC';stroke-width:0.264583"
       x="-38.695312"
       y="11.90625"
       id="text42"><tspan
         sodipodi:role="line"
         id="tspan40"
         x="-38.695312"
         y="11.90625"
         style="font-style:normal;font-variant:normal;font-weight:bold;font-stretch:normal;font-size:3.52778px;font-family:Garamond;-inkscape-font-specification:'Garamond Bold';stroke-width:0.264583" /></text>
    <text
       xml:space="preserve"
       style="font-size:10.5833px;line-height:1.25;font-family:'Eras Bold ITC';-inkscape-font-specification:'Eras Bold ITC';stroke-width:0.264583"
       x="-45.111458"
       y="16.668749"
       id="text78"><tspan
         sodipodi:role="line"
         id="tspan76"
         x="-45.111458"
         y="16.668749"
         style="stroke-width:0.264583" /></text>
  </g>
</svg>
