<?xml version="1.0" encoding="UTF-8" standalone="no"?>
<svg
   xmlns:dc="http://purl.org/dc/elements/1.1/"
   xmlns:cc="http://creativecommons.org/ns#"
   xmlns:rdf="http://www.w3.org/1999/02/22-rdf-syntax-ns#"
   xmlns:svg="http://www.w3.org/2000/svg"
   xmlns="http://www.w3.org/2000/svg"
   xmlns:sodipodi="http://sodipodi.sourceforge.net/DTD/sodipodi-0.dtd"
   xmlns:inkscape="http://www.inkscape.org/namespaces/inkscape"
   width="30.48mm"
   height="128.5mm"
   viewBox="0 0 30.480003 128.50002"
   version="1.1"
   id="svg8"
   inkscape:version="1.0 (4035a4fb49, 2020-05-01)"
   sodipodi:docname="SaveMeMonoWide.svg">
  <defs
     id="defs2">
    <rect
       x="11.056658"
       y="204.68541"
       width="10.697676"
       height="4.4513818"
       id="rect278" />
    <inkscape:path-effect
       hide_knots="false"
       only_selected="false"
       apply_with_radius="true"
       apply_no_radius="true"
       use_knot_distance="true"
       flexible="false"
       chamfer_steps="1"
       radius="4"
       mode="F"
       method="auto"
       unit="mm"
       satellites_param="F,0,0,1,0,4,0,1 @ F,0,0,1,0,4,0,1 @ F,0,0,1,0,4,0,1 @ F,0,0,1,0,4,0,1"
       lpeversion="1"
       is_visible="true"
       id="path-effect95"
       effect="fillet_chamfer" />
    <inkscape:path-effect
       hide_knots="false"
       only_selected="false"
       apply_with_radius="true"
       apply_no_radius="true"
       use_knot_distance="true"
       flexible="false"
       chamfer_steps="1"
       radius="4"
       mode="F"
       method="auto"
       unit="mm"
       satellites_param="F,0,0,1,0,4,0,1 @ F,0,0,1,0,4,0,1 @ F,0,0,1,0,4,0,1 @ F,0,0,1,0,4,0,1"
       lpeversion="1"
       is_visible="true"
       id="path-effect105"
       effect="fillet_chamfer" />
    <inkscape:path-effect
       hide_knots="false"
       only_selected="false"
       apply_with_radius="true"
       apply_no_radius="true"
       use_knot_distance="true"
       flexible="false"
       chamfer_steps="1"
       radius="4"
       mode="F"
       method="auto"
       unit="mm"
       satellites_param="F,0,0,1,0,4,0,1 @ F,0,0,1,0,4,0,1 @ F,0,0,1,0,4,0,1 @ F,0,0,1,0,4,0,1"
       lpeversion="1"
       is_visible="true"
       id="path-effect96"
       effect="fillet_chamfer" />
    <inkscape:path-effect
       effect="fillet_chamfer"
       id="path-effect77"
       is_visible="true"
       lpeversion="1"
       satellites_param="F,0,0,1,0,4,0,1 @ F,0,0,1,0,4,0,1 @ F,0,0,1,0,4,0,1 @ F,0,0,1,0,4,0,1"
       unit="mm"
       method="auto"
       mode="F"
       radius="4"
       chamfer_steps="1"
       flexible="false"
       use_knot_distance="true"
       apply_no_radius="true"
       apply_with_radius="true"
       only_selected="false"
       hide_knots="false" />
    <inkscape:path-effect
       effect="fillet_chamfer"
       id="path-effect161"
       is_visible="true"
       lpeversion="1"
       satellites_param="F,0,0,1,0,4,0,1 @ F,0,0,1,0,4,0,1 @ F,0,0,1,0,4,0,1 @ F,0,0,1,0,4,0,1"
       unit="mm"
       method="auto"
       mode="F"
       radius="4"
       chamfer_steps="1"
       flexible="false"
       use_knot_distance="true"
       apply_no_radius="true"
       apply_with_radius="true"
       only_selected="false"
       hide_knots="false" />
    <inkscape:path-effect
       effect="fillet_chamfer"
       id="path-effect152"
       is_visible="true"
       lpeversion="1"
       satellites_param="F,0,0,1,0,4,0,1 @ F,0,0,1,0,4,0,1 @ F,0,0,1,0,4,0,1 @ F,0,0,1,0,4,0,1"
       unit="mm"
       method="auto"
       mode="F"
       radius="4"
       chamfer_steps="1"
       flexible="false"
       use_knot_distance="true"
       apply_no_radius="true"
       apply_with_radius="true"
       only_selected="false"
       hide_knots="false" />
    <inkscape:path-effect
       effect="fillet_chamfer"
       id="path-effect143"
       is_visible="true"
       lpeversion="1"
       satellites_param="F,0,0,1,0,4,0,1 @ F,0,0,1,0,4,0,1 @ F,0,0,1,0,4,0,1 @ F,0,0,1,0,4,0,1"
       unit="mm"
       method="auto"
       mode="F"
       radius="4"
       chamfer_steps="1"
       flexible="false"
       use_knot_distance="true"
       apply_no_radius="true"
       apply_with_radius="true"
       only_selected="false"
       hide_knots="false" />
    <inkscape:path-effect
       hide_knots="false"
       only_selected="false"
       apply_with_radius="true"
       apply_no_radius="true"
       use_knot_distance="true"
       flexible="false"
       chamfer_steps="1"
       radius="4"
       mode="F"
       method="auto"
       unit="mm"
       satellites_param="F,0,0,1,0,4,0,1 @ F,0,0,1,0,4,0,1 @ F,0,0,1,0,4,0,1 @ F,0,0,1,0,4,0,1"
       lpeversion="1"
       is_visible="true"
       id="path-effect124"
       effect="fillet_chamfer" />
    <inkscape:path-effect
       effect="fillet_chamfer"
       id="path-effect154"
       is_visible="true"
       lpeversion="1"
       satellites_param="F,0,0,1,0,4,0,1 @ F,0,0,1,0,4,0,1 @ F,0,0,1,0,4,0,1 @ F,0,0,1,0,4,0,1"
       unit="mm"
       method="auto"
       mode="F"
       radius="4"
       chamfer_steps="1"
       flexible="false"
       use_knot_distance="true"
       apply_no_radius="true"
       apply_with_radius="true"
       only_selected="false"
       hide_knots="false" />
    <inkscape:path-effect
       effect="fillet_chamfer"
       id="path-effect81"
       is_visible="true"
       lpeversion="1"
       satellites_param="F,0,0,1,0,0,0,1 @ F,0,0,1,0,0,0,1 @ F,0,0,1,0,0,0,1 @ F,0,0,1,0,0,0,1"
       unit="mm"
       method="auto"
       mode="F"
       radius="0"
       chamfer_steps="1"
       flexible="false"
       use_knot_distance="true"
       apply_no_radius="true"
       apply_with_radius="true"
       only_selected="false"
       hide_knots="false" />
  </defs>
  <sodipodi:namedview
     id="base"
     pagecolor="#ffffff"
     bordercolor="#666666"
     borderopacity="1.0"
     inkscape:pageopacity="0.0"
     inkscape:pageshadow="2"
     inkscape:zoom="2.0000001"
     inkscape:cx="57.600008"
     inkscape:cy="242.91684"
     inkscape:document-units="mm"
     inkscape:current-layer="layer1"
     showgrid="true"
     units="mm"
     inkscape:snap-bbox="true"
     inkscape:snap-page="true"
     inkscape:bbox-nodes="false"
     inkscape:snap-bbox-edge-midpoints="false"
     inkscape:window-width="1824"
     inkscape:window-height="1046"
     inkscape:window-x="-11"
     inkscape:window-y="-11"
     inkscape:window-maximized="1"
     inkscape:snap-bbox-midpoints="true"
     inkscape:snap-nodes="false"
     inkscape:document-rotation="0"
     inkscape:lockguides="false"
     objecttolerance="24.3"
     gridtolerance="26.6"
     guidetolerance="28.7">
    <inkscape:grid
       type="xygrid"
       id="grid86"
       units="mm"
       color="#ffd984"
       opacity="0.53333333"
       spacingx="2.5400004"
       spacingy="2.5400004"
       empcolor="#71530f"
       empopacity="0.25098039"
       empspacing="4" />
  </sodipodi:namedview>
  <metadata
     id="metadata5">
    <rdf:RDF>
      <cc:Work
         rdf:about="">
        <dc:format>image/svg+xml</dc:format>
        <dc:type
           rdf:resource="http://purl.org/dc/dcmitype/StillImage" />
        <dc:title />
        <dc:creator>
          <cc:Agent>
            <dc:title>Firo Lightfog</dc:title>
          </cc:Agent>
        </dc:creator>
      </cc:Work>
    </rdf:RDF>
  </metadata>
  <g
     style="display:inline"
     inkscape:label="Layer 1"
     inkscape:groupmode="layer"
     id="layer1"
     transform="translate(0,-168.49998)">
    <rect
       style="display:inline;opacity:1;vector-effect:none;fill:#cccccc;fill-opacity:1;fill-rule:evenodd;stroke:none;stroke-width:0.648016;stroke-linecap:butt;stroke-linejoin:miter;stroke-miterlimit:4;stroke-dasharray:none;stroke-dashoffset:0;stroke-opacity:1;paint-order:normal"
       id="rect420"
       width="30.342999"
       height="128.54678"
       x="0.068502754"
       y="168.49834" />
    <text
       xml:space="preserve"
       style="font-size:10.5833px;line-height:1.25;font-family:'Eras Bold ITC';-inkscape-font-specification:'Eras Bold ITC';stroke-width:0.264583"
       x="1.1693041"
       y="277.43234"
       id="text59"><tspan
         sodipodi:role="line"
         id="tspan57"
         x="1.1693041"
         y="277.43234"
         style="font-size:2.82222px;fill:#ffff00;stroke-width:0.264583" /></text>
    <text
       xml:space="preserve"
       style="font-size:10.5833px;line-height:1.25;font-family:'Eras Bold ITC';-inkscape-font-specification:'Eras Bold ITC';stroke-width:0.264583"
       x="-78.577248"
       y="172.05467"
       id="text127"><tspan
         sodipodi:role="line"
         id="tspan125"
         x="-78.577248"
         y="172.05467"
         style="stroke-width:0.264583" /></text>
    <text
       xml:space="preserve"
       style="font-size:10.5833px;line-height:1.25;font-family:'Eras Bold ITC';-inkscape-font-specification:'Eras Bold ITC';stroke-width:0.264583"
       x="-89.989647"
       y="186.46049"
       id="text131"><tspan
         sodipodi:role="line"
         id="tspan129"
         x="-89.989647"
         y="186.46049"
         style="stroke-width:0.264583" /></text>
    <g
       aria-label="b"
       id="text104"
       style="font-weight:bold;font-size:6.35px;line-height:1.25;font-family:Tahoma;-inkscape-font-specification:'Tahoma, Bold';fill:#000000;stroke-width:0.264583">
      <path
         d="m 3.2732611,177.4586 v 0.68213 q 0.3927406,0 0.592556,0.19982 0.2067056,0.19981 0.3927406,0.76481 l 0.110243,0.34451 q 0.37207,1.14377 1.2195628,1.50206 -0.7854811,0.15158 -1.2540138,0.64768 -0.4616424,0.4892 -0.4616424,1.16444 0,0.94395 0.7096891,1.56407 0.7096891,0.61323 1.7983385,0.61323 1.6536445,0 2.5562588,-1.41938 L 8.4064495,183.0741 q -0.5856658,0.62701 -1.2057825,0.62701 -0.5098738,0 -0.8750536,-0.33073 -0.3651799,-0.33762 -0.3651799,-0.79926 0,-0.38585 0.2824977,-0.66835 0.2893878,-0.28249 0.6752382,-0.28249 0.6959087,0 1.9499225,0.98529 l 0.4203013,0.33073 q 2.0463848,1.6123 3.9067348,1.6123 1.612304,0 2.728514,-1.06108 1.1231,-1.06109 1.1231,-2.58382 0,-1.54341 -1.157551,-2.49425 -1.157551,-0.95085 -3.038572,-0.95085 h -0.227376 v 0.68213 q 1.11621,0.0758 1.770778,0.77859 0.654567,0.69591 0.654567,1.81212 0,1.10243 -0.826822,1.88791 -0.826822,0.77859 -1.998154,0.77859 -1.12999,0 -2.011934,-0.68901 -0.8819437,-0.68902 -0.8819437,-1.57097 0,-0.4203 0.2687173,-0.70969 0.2756074,-0.28938 0.6752384,-0.28938 0.399631,0 0.599446,0.22048 0.206705,0.2136 0.206705,0.65457 0,0.26872 -0.151584,0.6339 l 0.620117,0.28249 q 0.413411,-0.9784 0.413411,-1.63986 0,-0.81304 -0.530544,-1.39182 -0.523654,-0.58566 -1.267794,-0.58566 -0.475423,0 -0.8681636,0.23426 -0.3927406,0.23427 -0.7027989,0.70969 -0.3996308,-0.99907 -1.2677942,-1.39871 -0.8612732,-0.39963 -2.6182705,-0.39963 z m 4.9609337,3.36241 Q 7.2213375,180.62809 6.3807349,179.13292 L 6.2636017,178.9331 q -0.3651798,-0.64767 -0.8819437,-0.84749 2.6320509,0 2.8525368,2.7354 z"
         style="font-style:normal;font-variant:normal;font-weight:bold;font-stretch:normal;font-size:14.1111px;font-family:'Wingdings 2';-inkscape-font-specification:'Wingdings 2 Bold';fill:#000000;stroke-width:0.264583"
         id="path116" />
    </g>
    <g
       aria-label="SAVEME-MW"
       id="text45"
       style="font-weight:bold;font-size:4.23333px;line-height:1.25;font-family:Tahoma;-inkscape-font-specification:'Tahoma, Bold';letter-spacing:0px;stroke-width:0.264583">
      <path
         d="m 2.7715234,294.55474 q -0.3534665,0 -0.6221837,-0.0682 -0.2666502,-0.0682 -0.4960934,-0.1695 v -0.73174 h 0.07028 q 0.2315103,0.19637 0.5105627,0.30179 0.2790525,0.10542 0.5415686,0.10542 0.066146,0 0.1736327,-0.0145 0.1095539,-0.0145 0.1756997,-0.0455 0.080615,-0.0351 0.1364257,-0.0971 0.055811,-0.0641 0.055811,-0.16743 0,-0.11576 -0.09095,-0.18811 -0.09095,-0.0723 -0.2170408,-0.10542 -0.1570962,-0.0413 -0.3369301,-0.0785 -0.1777668,-0.0372 -0.3327959,-0.0909 -0.3576006,-0.1261 -0.5126298,-0.339 -0.1550292,-0.21291 -0.1550292,-0.5333 0,-0.43202 0.3658689,-0.69867 0.3658688,-0.26871 0.9136385,-0.26871 0.2749184,0 0.5457027,0.0558 0.2728513,0.0558 0.4878251,0.15089 v 0.7028 h -0.068213 q -0.1715656,-0.14676 -0.4196123,-0.24805 -0.2459796,-0.10128 -0.5064286,-0.10128 -0.1012857,0 -0.1819009,0.0145 -0.080615,0.0145 -0.1694986,0.0558 -0.072347,0.0331 -0.1260904,0.0992 -0.051676,0.0641 -0.051676,0.14469 0,0.11782 0.082682,0.1881 0.084749,0.0682 0.3245277,0.12403 0.1550292,0.0351 0.297656,0.0682 0.1446939,0.0331 0.3079913,0.091 0.3203936,0.11575 0.4754228,0.31212 0.1570962,0.19431 0.1570962,0.5147 0,0.45889 -0.3617347,0.73794 -0.3596677,0.27905 -0.9735832,0.27905 z"
         style="stroke-width:0.264583"
         id="path381" />
      <path
         d="m 4.168853,294.49893 1.039729,-3.07784 h 0.8433586 l 1.039729,3.07784 H 6.2958532 L 6.103617,293.87055 H 5.136235 l -0.1922362,0.62838 z m 1.7652654,-1.18649 -0.3141924,-1.01492 -0.3141924,1.01492 z"
         style="stroke-width:0.264583"
         id="path383" />
      <path
         d="m 9.9731449,291.42109 -1.0583325,3.07784 H 8.1086608 l -1.0583325,-3.07784 h 0.8020176 l 0.669726,2.08566 0.669726,-2.08566 z"
         style="stroke-width:0.264583"
         id="path385" />
      <path
         d="m 10.262532,294.49893 v -3.07784 h 2.081525 v 0.58704 h -1.31258 v 0.5395 h 1.209227 v 0.58705 h -1.209227 v 0.77721 h 1.31258 v 0.58704 z"
         style="stroke-width:0.264583"
         id="path387" />
      <path
         d="m 16.011014,294.49893 h -0.768945 v -2.04018 l -0.560172,1.31671 h -0.527099 l -0.560172,-1.31671 v 2.04018 h -0.727603 v -3.07784 h 0.890901 l 0.682128,1.51928 0.680061,-1.51928 h 0.890901 z"
         style="stroke-width:0.264583"
         id="path389" />
      <path
         d="m 16.6456,294.49893 v -3.07784 h 2.081525 v 0.58704 h -1.31258 v 0.5395 h 1.209228 v 0.58705 h -1.209228 v 0.77721 h 1.31258 v 0.58704 z"
         style="stroke-width:0.264583"
         id="path391" />
      <path
         d="M 20.529598,293.4282 H 19.15914 v -0.57464 h 1.370458 z"
         style="stroke-width:0.264583"
         id="path393" />
      <path
         d="m 24.221358,294.49893 h -0.768944 v -2.04018 l -0.560172,1.31671 h -0.527099 l -0.560173,-1.31671 v 2.04018 h -0.727603 v -3.07784 h 0.890901 l 0.682128,1.51928 0.680061,-1.51928 h 0.890901 z"
         style="stroke-width:0.264583"
         id="path395" />
      <path
         d="m 28.826758,291.42109 -0.77928,3.07784 h -0.847492 l -0.494027,-1.90376 -0.479556,1.90376 H 25.37891 l -0.77928,-3.07784 h 0.802017 l 0.423747,2.06498 0.516764,-2.06498 h 0.766877 l 0.489892,2.06498 0.446484,-2.06498 z"
         style="stroke-width:0.264583"
         id="path397" />
    </g>
    <g
       style="font-weight:bold;font-size:2.82222px;line-height:1.25;font-family:Tahoma;-inkscape-font-specification:'Tahoma, Bold';letter-spacing:0px;display:inline;stroke-width:0.264583"
       id="text104-0"
       aria-label="LFO"
       transform="translate(2.5400004,83.820022)">
      <path
         id="path126"
         style="font-size:2.82222px;stroke-width:0.264583"
         d="M 3.8866205,192.38593 H 2.5168516 v -2.0519 h 0.5153859 v 1.66053 h 0.854383 z" />
      <path
         id="path128"
         style="font-size:2.82222px;stroke-width:0.264583"
         d="M 5.5058141,190.72539 H 4.6445409 v 0.38723 h 0.7923714 v 0.39136 H 4.6445409 v 0.88195 H 4.1319111 v -2.0519 h 1.373903 z" />
      <path
         id="path130"
         style="font-size:2.82222px;stroke-width:0.264583"
         d="m 7.6431499,191.36067 q 0,0.49747 -0.2659612,0.78272 -0.2659611,0.28525 -0.7289816,0.28525 -0.4643985,0 -0.7289817,-0.28801 -0.2645831,-0.28938 -0.2645831,-0.77996 0,-0.49472 0.2645831,-0.78135 0.2645832,-0.28801 0.7289817,-0.28801 0.4630205,0 0.7289816,0.28663 0.2659612,0.28525 0.2659612,0.78273 z m -0.5319223,-0.001 q 0,-0.18328 -0.038585,-0.31144 -0.037207,-0.12953 -0.1005967,-0.21222 -0.066146,-0.0841 -0.150206,-0.11989 -0.082682,-0.0372 -0.1722547,-0.0372 -0.095085,0 -0.1722546,0.0344 -0.07717,0.0331 -0.148828,0.11989 -0.06339,0.0799 -0.1033528,0.21222 -0.038585,0.13229 -0.038585,0.31557 0,0.18879 0.037207,0.31419 0.037207,0.12402 0.1019748,0.20808 0.066146,0.0854 0.150206,0.12265 0.08406,0.0358 0.1736327,0.0358 0.09095,0 0.1763888,-0.0386 0.085438,-0.04 0.1474499,-0.12264 0.066146,-0.0896 0.1019748,-0.20809 0.035829,-0.11989 0.035829,-0.31281 z" />
    </g>
    <g
       style="font-weight:bold;font-size:2.82222px;line-height:1.25;font-family:Tahoma;-inkscape-font-specification:'Tahoma, Bold';letter-spacing:0px;display:inline;stroke-width:0.264583"
       id="text124"
       aria-label="STEPS"
       transform="translate(10.160004,30.480193)">
      <path
         id="path169"
         style="font-size:2.82222px;stroke-width:0.264583"
         d="m 1.4523146,187.34315 q -0.2356444,0 -0.4147892,-0.0455 -0.17776682,-0.0455 -0.33072895,-0.113 v -0.48782 h 0.0468533 q 0.15434016,0.13091 0.34037515,0.20119 0.186035,0.0703 0.3610457,0.0703 0.044097,0 0.1157551,-0.01 0.073036,-0.01 0.1171332,-0.0303 0.053744,-0.0234 0.090951,-0.0648 0.037207,-0.0427 0.037207,-0.11162 0,-0.0772 -0.060634,-0.1254 -0.060634,-0.0482 -0.1446939,-0.0703 -0.1047308,-0.0276 -0.22462,-0.0524 -0.1185112,-0.0248 -0.221864,-0.0606 -0.23840041,-0.0841 -0.3417532,-0.226 -0.10335278,-0.14194 -0.10335278,-0.35553 0,-0.28801 0.24391257,-0.46578 0.24391251,-0.17915 0.60909241,-0.17915 0.1832789,0 0.3638018,0.0372 0.1819009,0.0372 0.3252168,0.1006 v 0.46853 h -0.045475 q -0.114377,-0.0978 -0.2797415,-0.16536 -0.1639864,-0.0675 -0.3376191,-0.0675 -0.067524,0 -0.1212673,0.01 -0.053743,0.01 -0.112999,0.0372 -0.048231,0.022 -0.08406,0.0661 -0.034451,0.0427 -0.034451,0.0965 0,0.0785 0.055122,0.12541 0.056499,0.0455 0.2163518,0.0827 0.1033528,0.0234 0.1984373,0.0455 0.096463,0.022 0.2053276,0.0606 0.2135957,0.0772 0.3169485,0.20808 0.1047309,0.12954 0.1047309,0.34313 0,0.30593 -0.2411565,0.49196 -0.2397785,0.18604 -0.6490555,0.18604 z" />
      <path
         id="path171"
         style="font-size:2.82222px;stroke-width:0.264583"
         d="M 2.9984722,187.30594 V 185.6454 H 2.3921359 v -0.39136 h 1.7280585 v 0.39136 H 3.5138581 v 1.66054 z" />
      <path
         id="path173"
         style="font-size:2.82222px;stroke-width:0.264583"
         d="m 4.3351683,187.30594 v -2.0519 h 1.3876834 v 0.39136 H 4.8477981 v 0.35967 h 0.8061517 v 0.39136 H 4.8477981 v 0.51815 h 0.8750536 v 0.39136 z" />
      <path
         id="path175"
         style="font-size:2.82222px;stroke-width:0.264583"
         d="m 7.6507255,185.90172 q 0,0.14331 -0.045475,0.27285 -0.045475,0.12954 -0.1309135,0.21635 -0.052365,0.0538 -0.1157551,0.0992 -0.062012,0.0455 -0.1378037,0.0772 -0.075792,0.0317 -0.1653645,0.0496 -0.088194,0.0179 -0.1984374,0.0179 H 6.5868809 v 0.67111 H 6.071495 v -2.0519 h 0.7965054 q 0.1777668,0 0.3059243,0.0331 0.1295355,0.0317 0.2342663,0.10198 0.1157551,0.0772 0.1791448,0.2067 0.06339,0.12816 0.06339,0.30593 z m -0.5291662,0.0124 q 0,-0.0868 -0.041341,-0.14883 -0.041341,-0.0634 -0.099219,-0.0868 -0.073036,-0.0317 -0.1405598,-0.0358 -0.066146,-0.006 -0.1805229,-0.006 h -0.073036 v 0.6146 h 0.035829 q 0.073036,0 0.1378037,-0.001 0.064768,-0.001 0.1129991,-0.01 0.041341,-0.007 0.086816,-0.0262 0.046853,-0.0207 0.071658,-0.0455 0.052365,-0.051 0.07028,-0.10611 0.019293,-0.0551 0.019293,-0.14883 z" />
      <path
         id="path177"
         style="font-size:2.82222px;stroke-width:0.264583"
         d="m 8.5629865,187.34315 q -0.2356443,0 -0.4147891,-0.0455 -0.1777668,-0.0455 -0.3307289,-0.113 v -0.48782 h 0.046853 q 0.1543402,0.13091 0.3403752,0.20119 0.186035,0.0703 0.3610457,0.0703 0.044097,0 0.1157551,-0.01 0.073036,-0.01 0.1171332,-0.0303 0.053744,-0.0234 0.090951,-0.0648 0.037207,-0.0427 0.037207,-0.11162 0,-0.0772 -0.060634,-0.1254 -0.060634,-0.0482 -0.1446939,-0.0703 -0.1047308,-0.0276 -0.22462,-0.0524 -0.1185112,-0.0248 -0.221864,-0.0606 -0.2384004,-0.0841 -0.3417532,-0.226 -0.1033528,-0.14194 -0.1033528,-0.35553 0,-0.28801 0.2439126,-0.46578 0.2439125,-0.17915 0.6090924,-0.17915 0.1832789,0 0.3638018,0.0372 0.1819009,0.0372 0.3252168,0.1006 v 0.46853 h -0.045475 q -0.1143771,-0.0978 -0.2797415,-0.16536 -0.1639864,-0.0675 -0.3376191,-0.0675 -0.067524,0 -0.1212673,0.01 -0.053743,0.01 -0.112999,0.0372 -0.048231,0.022 -0.08406,0.0661 -0.034451,0.0427 -0.034451,0.0965 0,0.0785 0.055122,0.12541 0.0565,0.0455 0.2163518,0.0827 0.1033528,0.0234 0.1984373,0.0455 0.096463,0.022 0.2053276,0.0606 0.2135957,0.0772 0.3169485,0.20808 0.1047308,0.12954 0.1047308,0.34313 0,0.30593 -0.2411565,0.49196 -0.2397784,0.18604 -0.6490555,0.18604 z" />
    </g>
    <g
       aria-label="REC"
       id="text84"
       style="font-weight:bold;font-size:4.23333px;line-height:1.25;font-family:Tahoma;-inkscape-font-specification:'Tahoma, Bold';letter-spacing:0px;display:inline;stroke-width:0.264583"
       transform="translate(17.780003,60.960007)">
      <path
         d="m 4.2938307,215.24594 h -0.628385 l -0.5718854,-0.75241 h -0.184657 v 0.75241 H 2.3962735 v -2.0519 h 0.8254443 q 0.1708766,0 0.297656,0.0221 0.1267794,0.0207 0.2342663,0.0882 0.110243,0.0703 0.1750107,0.17914 0.064768,0.10749 0.064768,0.27423 0,0.23565 -0.1061089,0.3831 -0.1061088,0.14607 -0.2838756,0.23288 z m -0.8295784,-1.42351 q 0,-0.0772 -0.030317,-0.13229 -0.028939,-0.0565 -0.097841,-0.0868 -0.048231,-0.0207 -0.1074869,-0.0262 -0.059256,-0.006 -0.14745,-0.006 H 2.9089033 v 0.55259 h 0.14745 q 0.1074869,0 0.1819009,-0.0124 0.075792,-0.0138 0.1281575,-0.0565 0.049609,-0.0386 0.073036,-0.0923 0.024805,-0.0537 0.024805,-0.14056 z"
         style="font-size:2.82222px;stroke-width:0.264583"
         id="path129" />
      <path
         d="m 4.4467928,215.24594 v -2.0519 h 1.3876834 v 0.39137 H 4.9594226 v 0.35966 h 0.8061517 v 0.39137 H 4.9594226 v 0.51814 h 0.8750536 v 0.39136 z"
         style="font-size:2.82222px;stroke-width:0.264583"
         id="path131" />
      <path
         d="m 7.0678195,215.2859 q -0.4616424,0 -0.7331157,-0.27836 -0.2714733,-0.27974 -0.2714733,-0.78548 0,-0.48783 0.2714733,-0.77721 0.2728513,-0.29077 0.7344938,-0.29077 0.1226453,0 0.2204859,0.0138 0.097841,0.0138 0.1874131,0.0386 0.07028,0.0207 0.1529621,0.0565 0.082682,0.0358 0.1336696,0.062 v 0.4892 h -0.052365 q -0.037207,-0.0331 -0.093706,-0.0785 -0.0565,-0.0469 -0.1281575,-0.091 -0.071658,-0.0441 -0.1584743,-0.0744 -0.085438,-0.0317 -0.1791448,-0.0317 -0.111621,0 -0.2053275,0.0358 -0.092328,0.0345 -0.1763888,0.12127 -0.07717,0.0786 -0.1267794,0.21222 -0.048231,0.13367 -0.048231,0.31557 0,0.19154 0.050987,0.32246 0.050987,0.12953 0.1336696,0.20946 0.079926,0.0772 0.1777668,0.11162 0.099219,0.0344 0.1970593,0.0344 0.1019747,0 0.1943032,-0.0331 0.092328,-0.0344 0.1557182,-0.0758 0.068902,-0.0427 0.1212673,-0.0868 0.052365,-0.0441 0.09095,-0.0786 h 0.046853 v 0.48232 q -0.0565,0.0262 -0.1309135,0.0606 -0.074414,0.0331 -0.1529622,0.0565 -0.096463,0.0289 -0.1805228,0.0441 -0.08406,0.0152 -0.2315103,0.0152 z"
         style="font-size:2.82222px;stroke-width:0.264583"
         id="path133" />
    </g>
    <g
       aria-label="CLK"
       id="text88"
       style="font-weight:bold;font-size:2.82222px;line-height:1.25;font-family:Tahoma;-inkscape-font-specification:'Tahoma, Bold';letter-spacing:0px;display:inline;stroke-width:0.264583"
       transform="translate(2.5400005,-27.939995)">
      <path
         d="m 3.3753688,230.52589 q -0.4616425,0 -0.7331158,-0.27836 -0.2714733,-0.27974 -0.2714733,-0.78548 0,-0.48783 0.2714733,-0.77721 0.2728514,-0.29077 0.7344938,-0.29077 0.1226453,0 0.220486,0.0138 0.097841,0.0138 0.187413,0.0386 0.07028,0.0207 0.1529621,0.0565 0.082682,0.0358 0.1336696,0.062 v 0.4892 h -0.052365 q -0.037207,-0.0331 -0.093706,-0.0786 -0.0565,-0.0468 -0.1281575,-0.0909 -0.071658,-0.0441 -0.1584742,-0.0744 -0.085438,-0.0317 -0.1791449,-0.0317 -0.111621,0 -0.2053275,0.0358 -0.092328,0.0344 -0.1763887,0.12127 -0.07717,0.0786 -0.1267795,0.21222 -0.048231,0.13367 -0.048231,0.31557 0,0.19154 0.050987,0.32246 0.050987,0.12953 0.1336696,0.20946 0.079926,0.0772 0.1777668,0.11162 0.099219,0.0345 0.1970593,0.0345 0.1019748,0 0.1943033,-0.0331 0.092328,-0.0344 0.1557182,-0.0758 0.068902,-0.0427 0.1212672,-0.0868 0.052365,-0.0441 0.09095,-0.0786 h 0.046853 v 0.48232 q -0.0565,0.0262 -0.1309135,0.0606 -0.074414,0.0331 -0.1529621,0.0565 -0.096463,0.0289 -0.1805229,0.0441 -0.08406,0.0152 -0.2315103,0.0152 z"
         style="font-size:2.82222px;stroke-width:0.264583"
         id="path136" />
      <path
         d="M 5.7455927,230.48593 H 4.3758238 v -2.0519 h 0.5153859 v 1.66054 h 0.854383 z"
         style="font-size:2.82222px;stroke-width:0.264583"
         id="path138" />
      <path
         d="M 7.7892217,230.48593 H 7.166349 l -0.5594831,-0.83371 -0.1005967,0.14056 v 0.69315 H 5.9908833 v -2.0519 h 0.5153859 v 0.91089 l 0.6559456,-0.91089 h 0.5966901 l -0.7317377,0.95223 z"
         style="font-size:2.82222px;stroke-width:0.264583"
         id="path140" />
    </g>
    <g
       aria-label="RST"
       id="text92"
       style="font-weight:bold;font-size:2.82222px;line-height:1.25;font-family:Tahoma;-inkscape-font-specification:'Tahoma, Bold';letter-spacing:0px;display:inline;stroke-width:0.264583"
       transform="translate(17.780003,-40.63981)">
      <path
         d="m 4.3014098,243.18594 h -0.628385 l -0.5718854,-0.7524 h -0.184657 v 0.7524 H 2.4038526 v -2.05189 h 0.8254443 q 0.1708766,0 0.297656,0.022 0.1267794,0.0207 0.2342663,0.0882 0.110243,0.0703 0.1750107,0.17914 0.064768,0.10749 0.064768,0.27423 0,0.23565 -0.1061089,0.3831 -0.1061088,0.14607 -0.2838756,0.23289 z m -0.8295784,-1.42351 q 0,-0.0772 -0.030317,-0.13229 -0.028939,-0.0565 -0.097841,-0.0868 -0.048231,-0.0207 -0.1074869,-0.0262 -0.059256,-0.006 -0.14745,-0.006 H 2.9164824 v 0.55259 h 0.14745 q 0.1074869,0 0.1819009,-0.0124 0.075792,-0.0138 0.1281575,-0.0565 0.049609,-0.0386 0.073036,-0.0923 0.024805,-0.0537 0.024805,-0.14056 z"
         style="font-size:2.82222px;stroke-width:0.264583"
         id="path143" />
      <path
         d="m 5.0882689,243.22315 q -0.2356443,0 -0.4147892,-0.0455 -0.1777667,-0.0455 -0.3307289,-0.113 v -0.48783 h 0.046853 q 0.1543402,0.13091 0.3403752,0.20119 0.186035,0.0703 0.3610457,0.0703 0.044097,0 0.1157551,-0.01 0.073036,-0.01 0.1171332,-0.0303 0.053743,-0.0234 0.09095,-0.0648 0.037207,-0.0427 0.037207,-0.11162 0,-0.0772 -0.060634,-0.1254 -0.060634,-0.0482 -0.1446939,-0.0703 -0.1047308,-0.0276 -0.2246201,-0.0524 -0.1185111,-0.0248 -0.2218639,-0.0606 -0.2384005,-0.0841 -0.3417532,-0.226 -0.1033528,-0.14193 -0.1033528,-0.35553 0,-0.28801 0.2439125,-0.46578 0.2439126,-0.17914 0.6090925,-0.17914 0.1832789,0 0.3638018,0.0372 0.1819009,0.0372 0.3252167,0.10059 v 0.46854 h -0.045475 q -0.1143771,-0.0978 -0.2797415,-0.16537 -0.1639864,-0.0675 -0.3376191,-0.0675 -0.067524,0 -0.1212673,0.01 -0.053743,0.01 -0.112999,0.0372 -0.048231,0.022 -0.08406,0.0661 -0.034451,0.0427 -0.034451,0.0965 0,0.0785 0.055121,0.1254 0.0565,0.0455 0.2163519,0.0827 0.1033528,0.0234 0.1984373,0.0455 0.096463,0.0221 0.2053276,0.0606 0.2135957,0.0772 0.3169485,0.20809 0.1047308,0.12953 0.1047308,0.34313 0,0.30592 -0.2411565,0.49196 -0.2397784,0.18603 -0.6490555,0.18603 z"
         style="font-size:2.82222px;stroke-width:0.264583"
         id="path145" />
      <path
         d="m 6.6344266,243.18594 v -1.66053 H 6.0280902 v -0.39136 h 1.7280586 v 0.39136 H 7.1498125 v 1.66053 z"
         style="font-size:2.82222px;stroke-width:0.264583"
         id="path147" />
    </g>
    <g
       aria-label="&lt;    &gt;"
       transform="translate(0.2201269,15.485013)"
       id="text276"
       style="font-weight:bold;font-size:2.82222px;line-height:1.25;font-family:Tahoma;-inkscape-font-specification:'Tahoma, Bold';letter-spacing:0px;white-space:pre;shape-inside:url(#rect278)">
      <path
         d="m 13.075465,207.24105 -1.7694,-0.73449 v -0.30317 l 1.7694,-0.73449 v 0.38033 l -1.238855,0.50712 1.238855,0.50436 z"
         style="font-size:2.82222px"
         id="path400" />
      <path
         d="m 18.733686,206.50656 -1.7694,0.73449 v -0.38034 l 1.238855,-0.50574 -1.238855,-0.50574 v -0.38033 l 1.7694,0.73449 z"
         style="font-size:2.82222px"
         id="path402" />
    </g>
    <path
       id="rect48-1-6"
       d="M -0.17291767,226.99839 H 30.117459 l 0.535463,15.0832 H 0.36254552 Z"
       style="display:inline;fill:#de8787;stroke-width:0.436308" />
    <g
       aria-label="OUTS"
       id="text96"
       style="font-weight:bold;font-size:2.82222px;line-height:1.25;font-family:Tahoma;-inkscape-font-specification:'Tahoma, Bold';letter-spacing:0px;display:inline;stroke-width:0.264583"
       transform="translate(10.160001,-27.940001)">
      <path
         d="m 3.2534124,257.40067 q 0,0.49748 -0.2659612,0.78273 -0.2659611,0.28525 -0.7289816,0.28525 -0.4643985,0 -0.7289817,-0.28801 -0.2645831,-0.28938 -0.2645831,-0.77997 0,-0.49471 0.2645831,-0.78134 0.2645832,-0.28801 0.7289817,-0.28801 0.4630205,0 0.7289816,0.28663 0.2659612,0.28525 0.2659612,0.78272 z m -0.5319223,-10e-4 q 0,-0.18328 -0.038585,-0.31144 -0.037207,-0.12954 -0.1005967,-0.21222 -0.066146,-0.0841 -0.150206,-0.11989 -0.082682,-0.0372 -0.1722547,-0.0372 -0.095085,0 -0.1722546,0.0344 -0.07717,0.0331 -0.148828,0.11989 -0.06339,0.0799 -0.1033528,0.21221 -0.038585,0.1323 -0.038585,0.31557 0,0.1888 0.037207,0.3142 0.037207,0.12402 0.1019748,0.20808 0.066146,0.0854 0.150206,0.12265 0.08406,0.0358 0.1736327,0.0358 0.09095,0 0.1763888,-0.0386 0.085438,-0.04 0.14745,-0.12265 0.066146,-0.0896 0.1019747,-0.20808 0.035829,-0.11989 0.035829,-0.31281 z"
         style="font-size:2.82222px;stroke-width:0.264583"
         id="path150" />
      <path
         d="m 4.3861589,258.46865 q -0.4134111,0 -0.6366531,-0.19981 -0.221864,-0.19982 -0.221864,-0.58429 v -1.31051 h 0.5153859 v 1.28019 q 0,0.2136 0.079926,0.31833 0.081304,0.10473 0.2632051,0.10473 0.1777668,0 0.2604491,-0.1006 0.08406,-0.10059 0.08406,-0.32246 v -1.28019 h 0.5153859 v 1.30913 q 0,0.37896 -0.2177298,0.58291 -0.2163519,0.20257 -0.6421651,0.20257 z"
         style="font-size:2.82222px;stroke-width:0.264583"
         id="path152" />
      <path
         d="M 6.0342914,258.42593 V 256.7654 H 5.427955 v -0.39136 h 1.7280586 v 0.39136 H 6.5496773 v 1.66053 z"
         style="font-size:2.82222px;stroke-width:0.264583"
         id="path154" />
      <path
         d="m 8.0048848,258.46314 q -0.2356444,0 -0.4147892,-0.0455 -0.1777668,-0.0455 -0.3307289,-0.113 v -0.48783 h 0.046853 q 0.1543402,0.13091 0.3403752,0.20119 0.186035,0.0703 0.3610458,0.0703 0.044097,0 0.1157551,-0.01 0.073036,-0.01 0.1171331,-0.0303 0.053743,-0.0234 0.09095,-0.0648 0.037207,-0.0427 0.037207,-0.11162 0,-0.0772 -0.060634,-0.1254 -0.060634,-0.0482 -0.1446939,-0.0703 -0.1047308,-0.0276 -0.22462,-0.0524 -0.1185112,-0.0248 -0.221864,-0.0606 -0.2384004,-0.0841 -0.3417532,-0.226 -0.1033528,-0.14193 -0.1033528,-0.35553 0,-0.28801 0.2439126,-0.46578 0.2439126,-0.17914 0.6090924,-0.17914 0.1832789,0 0.3638018,0.0372 0.1819009,0.0372 0.3252168,0.10059 v 0.46854 h -0.045475 q -0.1143771,-0.0978 -0.2797416,-0.16537 -0.1639864,-0.0675 -0.3376191,-0.0675 -0.067524,0 -0.1212673,0.01 -0.053743,0.01 -0.112999,0.0372 -0.048231,0.022 -0.08406,0.0661 -0.034451,0.0427 -0.034451,0.0965 0,0.0786 0.055122,0.1254 0.0565,0.0455 0.2163518,0.0827 0.1033528,0.0234 0.1984374,0.0455 0.096463,0.0221 0.2053275,0.0606 0.2135958,0.0772 0.3169486,0.20809 0.1047308,0.12953 0.1047308,0.34313 0,0.30592 -0.2411565,0.49196 -0.2397785,0.18603 -0.6490555,0.18603 z"
         style="font-size:2.82222px;stroke-width:0.264583"
         id="path156" />
    </g>
    <g
       aria-label="LFOMODE"
       id="text375"
       style="font-weight:bold;font-size:2.82222px;line-height:1.25;font-family:Tahoma;-inkscape-font-specification:'Tahoma, Bold';letter-spacing:0px;stroke-width:0.264583"
       transform="translate(-28.98139,-3.28e-5)">
      <path
         d="m 49.82877,278.74598 h -0.51263 v -1.36012 l -0.373448,0.87781 h -0.3514 l -0.373448,-0.87781 v 1.36012 h -0.485069 v -2.0519 h 0.593934 l 0.454753,1.01286 0.453374,-1.01286 h 0.593934 z"
         style="font-size:2.82222px;stroke-width:0.264583"
         id="path427" />
      <path
         d="m 52.120446,277.72072 q 0,0.49747 -0.265961,0.78273 -0.265961,0.28525 -0.728982,0.28525 -0.464398,0 -0.728981,-0.28801 -0.264583,-0.28939 -0.264583,-0.77997 0,-0.49471 0.264583,-0.78135 0.264583,-0.28801 0.728981,-0.28801 0.463021,0 0.728982,0.28664 0.265961,0.28525 0.265961,0.78272 z m -0.531922,-10e-4 q 0,-0.18328 -0.03858,-0.31143 -0.03721,-0.12954 -0.100597,-0.21222 -0.06615,-0.0841 -0.150206,-0.11989 -0.08268,-0.0372 -0.172255,-0.0372 -0.09508,0 -0.172254,0.0344 -0.07717,0.0331 -0.148828,0.11989 -0.06339,0.0799 -0.103353,0.21222 -0.03858,0.13229 -0.03858,0.31557 0,0.18879 0.03721,0.31419 0.03721,0.12403 0.101975,0.20809 0.06614,0.0854 0.150206,0.12264 0.08406,0.0358 0.173632,0.0358 0.09095,0 0.176389,-0.0386 0.08544,-0.04 0.14745,-0.12265 0.06615,-0.0896 0.101975,-0.20808 0.03583,-0.11989 0.03583,-0.31282 z"
         style="font-size:2.82222px;stroke-width:0.264583"
         id="path429" />
      <path
         d="m 54.256404,277.7221 q 0,0.28663 -0.125401,0.51401 -0.125402,0.226 -0.316949,0.34726 -0.159852,0.10336 -0.348643,0.13367 -0.187413,0.0289 -0.399631,0.0289 h -0.642165 v -2.0519 h 0.636653 q 0.216352,0 0.405143,0.0276 0.188791,0.0276 0.354155,0.13367 0.202572,0.12954 0.319705,0.35003 0.117133,0.2191 0.117133,0.51676 z m -0.529166,-0.004 q 0,-0.20258 -0.07028,-0.34589 -0.0689,-0.1447 -0.213596,-0.226 -0.104731,-0.0579 -0.220486,-0.0634 -0.114377,-0.006 -0.274229,-0.006 h -0.0096 v 1.28433 h 0.0096 q 0.173632,0 0.292144,-0.006 0.119889,-0.007 0.227376,-0.0744 0.126779,-0.0799 0.192925,-0.22048 0.06615,-0.14056 0.06615,-0.34313 z"
         style="font-size:2.82222px;stroke-width:0.264583"
         id="path431" />
      <path
         d="m 54.562328,278.74598 v -2.0519 h 1.387684 v 0.39137 h -0.875054 v 0.35966 h 0.806152 v 0.39137 h -0.806152 v 0.51814 h 0.875054 v 0.39136 z"
         style="font-size:2.82222px;stroke-width:0.264583"
         id="path433" />
    </g>
    <g
       transform="translate(15.240004,-48.260002)"
       style="font-weight:bold;font-size:2.82222px;line-height:1.25;font-family:Tahoma;-inkscape-font-specification:'Tahoma, Bold';letter-spacing:0px;display:inline;stroke-width:0.264583"
       id="text379-6"
       aria-label="PW">
      <path
         id="path436-8"
         style="font-size:2.82222px;stroke-width:0.264583"
         d="m 6.9468281,236.70172 q 0,0.14332 -0.045475,0.27285 -0.045475,0.12954 -0.1309135,0.21636 -0.052365,0.0537 -0.1157551,0.0992 -0.062012,0.0455 -0.1378037,0.0772 -0.075792,0.0317 -0.1653645,0.0496 -0.088194,0.0179 -0.1984373,0.0179 H 5.8829834 v 0.6711 H 5.3675975 v -2.0519 H 6.164103 q 0.1777668,0 0.3059242,0.0331 0.1295355,0.0317 0.2342663,0.10197 0.1157552,0.0772 0.1791449,0.20671 0.06339,0.12816 0.06339,0.30592 z m -0.5291663,0.0124 q 0,-0.0868 -0.041341,-0.14882 -0.041341,-0.0634 -0.099219,-0.0868 -0.073036,-0.0317 -0.1405598,-0.0358 -0.066146,-0.006 -0.1805228,-0.006 h -0.073036 v 0.6146 h 0.035829 q 0.073036,0 0.1378037,-0.001 0.064768,-0.001 0.112999,-0.01 0.041341,-0.007 0.086816,-0.0262 0.046853,-0.0207 0.071658,-0.0455 0.052365,-0.051 0.07028,-0.10611 0.019293,-0.0551 0.019293,-0.14883 z" />
      <path
         id="path438-2"
         style="font-size:2.82222px;stroke-width:0.264583"
         d="m 9.872401,236.05404 -0.51952,2.0519 H 8.7878858 l -0.3293509,-1.26917 -0.3197046,1.26917 H 7.573835 l -0.51952,-2.0519 h 0.5346784 l 0.2824977,1.37666 0.3445092,-1.37666 h 0.5112518 l 0.3265948,1.37666 0.2976561,-1.37666 z" />
    </g>
    <g
       transform="translate(-44.221392,-3.28e-5)"
       style="font-weight:bold;font-size:2.82222px;line-height:1.25;font-family:Tahoma;-inkscape-font-specification:'Tahoma, Bold';letter-spacing:0px;display:inline;stroke-width:0.264583"
       id="text375-9"
       aria-label="LFOMODE">
      <path
         id="path427-3"
         style="font-size:2.82222px;stroke-width:0.264583"
         d="m 49.82877,278.74598 h -0.51263 v -1.36012 l -0.373448,0.87781 h -0.3514 l -0.373448,-0.87781 v 1.36012 h -0.485069 v -2.0519 h 0.593934 l 0.454753,1.01286 0.453374,-1.01286 h 0.593934 z" />
      <path
         id="path429-8"
         style="font-size:2.82222px;stroke-width:0.264583"
         d="m 52.120446,277.72072 q 0,0.49747 -0.265961,0.78273 -0.265961,0.28525 -0.728982,0.28525 -0.464398,0 -0.728981,-0.28801 -0.264583,-0.28939 -0.264583,-0.77997 0,-0.49471 0.264583,-0.78135 0.264583,-0.28801 0.728981,-0.28801 0.463021,0 0.728982,0.28664 0.265961,0.28525 0.265961,0.78272 z m -0.531922,-10e-4 q 0,-0.18328 -0.03858,-0.31143 -0.03721,-0.12954 -0.100597,-0.21222 -0.06615,-0.0841 -0.150206,-0.11989 -0.08268,-0.0372 -0.172255,-0.0372 -0.09508,0 -0.172254,0.0344 -0.07717,0.0331 -0.148828,0.11989 -0.06339,0.0799 -0.103353,0.21222 -0.03858,0.13229 -0.03858,0.31557 0,0.18879 0.03721,0.31419 0.03721,0.12403 0.101975,0.20809 0.06614,0.0854 0.150206,0.12264 0.08406,0.0358 0.173632,0.0358 0.09095,0 0.176389,-0.0386 0.08544,-0.04 0.14745,-0.12265 0.06615,-0.0896 0.101975,-0.20808 0.03583,-0.11989 0.03583,-0.31282 z" />
      <path
         id="path431-5"
         style="font-size:2.82222px;stroke-width:0.264583"
         d="m 54.256404,277.7221 q 0,0.28663 -0.125401,0.51401 -0.125402,0.226 -0.316949,0.34726 -0.159852,0.10336 -0.348643,0.13367 -0.187413,0.0289 -0.399631,0.0289 h -0.642165 v -2.0519 h 0.636653 q 0.216352,0 0.405143,0.0276 0.188791,0.0276 0.354155,0.13367 0.202572,0.12954 0.319705,0.35003 0.117133,0.2191 0.117133,0.51676 z m -0.529166,-0.004 q 0,-0.20258 -0.07028,-0.34589 -0.0689,-0.1447 -0.213596,-0.226 -0.104731,-0.0579 -0.220486,-0.0634 -0.114377,-0.006 -0.274229,-0.006 h -0.0096 v 1.28433 h 0.0096 q 0.173632,0 0.292144,-0.006 0.119889,-0.007 0.227376,-0.0744 0.126779,-0.0799 0.192925,-0.22048 0.06615,-0.14056 0.06615,-0.34313 z" />
      <path
         id="path433-2"
         style="font-size:2.82222px;stroke-width:0.264583"
         d="m 54.562328,278.74598 v -2.0519 h 1.387684 v 0.39137 h -0.875054 v 0.35966 h 0.806152 v 0.39137 h -0.806152 v 0.51814 h 0.875054 v 0.39136 z" />
    </g>
  </g>
  <g
     inkscape:groupmode="layer"
     id="layer2"
     inkscape:label="components"
     style="display:inline">
    <circle
       id="path30"
       style="fill:#000000;stroke:#000000;stroke-width:0.264583"
       cx="-43.920834"
       cy="-48.154167"
       r="0.035242248" />
    <circle
       id="path32"
       style="fill:#000000;stroke:#000000;stroke-width:0.264583"
       cx="-32.279167"
       cy="-2.5135417"
       r="0.0088105621" />
    <circle
       id="path34"
       style="fill:#000000;stroke:#000000;stroke-width:0.264583"
       cx="-17.991667"
       cy="0.1984375"
       r="0.0088105621" />
    <circle
       id="path36"
       style="fill:#000000;stroke:#000000;stroke-width:0.264583"
       cx="-25.069271"
       cy="2.9104166"
       r="0.0088105621" />
    <text
       xml:space="preserve"
       style="font-size:10.5833px;line-height:1.25;font-family:'Eras Bold ITC';-inkscape-font-specification:'Eras Bold ITC';stroke-width:0.264583"
       x="-38.695312"
       y="11.90625"
       id="text42"><tspan
         sodipodi:role="line"
         id="tspan40"
         x="-38.695312"
         y="11.90625"
         style="font-style:normal;font-variant:normal;font-weight:bold;font-stretch:normal;font-size:3.52778px;font-family:Garamond;-inkscape-font-specification:'Garamond Bold';stroke-width:0.264583" /></text>
    <text
       xml:space="preserve"
       style="font-size:10.5833px;line-height:1.25;font-family:'Eras Bold ITC';-inkscape-font-specification:'Eras Bold ITC';stroke-width:0.264583"
       x="-45.111458"
       y="16.668749"
       id="text78"><tspan
         sodipodi:role="line"
         id="tspan76"
         x="-45.111458"
         y="16.668749"
         style="stroke-width:0.264583" /></text>
  </g>
</svg>
