<?xml version="1.0" encoding="UTF-8" standalone="no"?>
<svg
   xmlns:dc="http://purl.org/dc/elements/1.1/"
   xmlns:cc="http://creativecommons.org/ns#"
   xmlns:rdf="http://www.w3.org/1999/02/22-rdf-syntax-ns#"
   xmlns:svg="http://www.w3.org/2000/svg"
   xmlns="http://www.w3.org/2000/svg"
   xmlns:sodipodi="http://sodipodi.sourceforge.net/DTD/sodipodi-0.dtd"
   xmlns:inkscape="http://www.inkscape.org/namespaces/inkscape"
   width="15.24mm"
   height="128.5mm"
   viewBox="0 0 15.240001 128.50002"
   version="1.1"
   id="svg8"
   inkscape:version="1.0 (4035a4fb49, 2020-05-01)"
   sodipodi:docname="SaveMeMono.svg">
  <defs
     id="defs2">
    <inkscape:path-effect
       hide_knots="false"
       only_selected="false"
       apply_with_radius="true"
       apply_no_radius="true"
       use_knot_distance="true"
       flexible="false"
       chamfer_steps="1"
       radius="0"
       mode="F"
       method="auto"
       unit="mm"
       satellites_param="F,0,0,1,0,0,0,1 @ F,0,0,1,0,0,0,1 @ F,0,0,1,0,0,0,1 @ F,0,0,1,0,0,0,1"
       lpeversion="1"
       is_visible="true"
       id="path-effect81"
       effect="fillet_chamfer" />
    <inkscape:path-effect
       effect="fillet_chamfer"
       id="path-effect77"
       is_visible="true"
       lpeversion="1"
       satellites_param="F,0,0,1,0,0,0,1 @ F,0,0,1,0,0,0,1 @ F,0,0,1,0,0,0,1 @ F,0,0,1,0,0,0,1"
       unit="mm"
       method="auto"
       mode="F"
       radius="0"
       chamfer_steps="1"
       flexible="false"
       use_knot_distance="true"
       apply_no_radius="true"
       apply_with_radius="true"
       only_selected="false"
       hide_knots="false" />
  </defs>
  <sodipodi:namedview
     inkscape:snap-text-baseline="true"
     id="base"
     pagecolor="#ffffff"
     bordercolor="#666666"
     borderopacity="1.0"
     inkscape:pageopacity="0.0"
     inkscape:pageshadow="2"
     inkscape:zoom="1.039713"
     inkscape:cx="104.46063"
     inkscape:cy="141.78744"
     inkscape:document-units="mm"
     inkscape:current-layer="layer1"
     showgrid="true"
     units="mm"
     inkscape:snap-bbox="true"
     inkscape:snap-page="true"
     inkscape:bbox-nodes="false"
     inkscape:snap-bbox-edge-midpoints="false"
     inkscape:window-width="1821"
     inkscape:window-height="1046"
     inkscape:window-x="-11"
     inkscape:window-y="-11"
     inkscape:window-maximized="1"
     inkscape:snap-bbox-midpoints="true"
     inkscape:snap-nodes="false"
     inkscape:document-rotation="0"
     inkscape:lockguides="false"
     objecttolerance="10000"
     gridtolerance="10000"
     guidetolerance="10000"
     inkscape:snap-others="true">
    <inkscape:grid
       type="xygrid"
       id="grid86"
       units="mm"
       color="#ffd984"
       opacity="0.53333333"
       spacingx="2.5400004"
       spacingy="2.5400004"
       empcolor="#71530f"
       empopacity="0.25098039"
       empspacing="4" />
  </sodipodi:namedview>
  <metadata
     id="metadata5">
    <rdf:RDF>
      <cc:Work
         rdf:about="">
        <dc:format>image/svg+xml</dc:format>
        <dc:type
           rdf:resource="http://purl.org/dc/dcmitype/StillImage" />
        <dc:title />
        <dc:creator>
          <cc:Agent>
            <dc:title>Firo Lightfog</dc:title>
          </cc:Agent>
        </dc:creator>
      </cc:Work>
    </rdf:RDF>
  </metadata>
  <g
     style="display:inline"
     inkscape:label="Layer 1"
     inkscape:groupmode="layer"
     id="layer1"
     transform="translate(0,-168.49998)">
    <g
       aria-label="RV10"
       id="text53"
       style="font-weight:bold;font-size:3.52778px;line-height:1.25;font-family:Tahoma;-inkscape-font-specification:'Tahoma, Bold';letter-spacing:0px;fill:#ffeeaa;stroke-width:0.264583">
      <path
         d="M 2.93198,294.24158 H 2.1464977 L 1.4316399,293.30107 H 1.2008184 v 0.94051 H 0.56003022 V 291.6767 H 1.591837 q 0.213596,0 0.3720705,0.0276 0.1584745,0.0258 0.2928333,0.11025 0.1378039,0.0879 0.2187637,0.22393 0.08096,0.13436 0.08096,0.34278 0,0.29456 -0.1326362,0.47887 -0.1326363,0.18259 -0.3548451,0.29111 z m -1.0369744,-1.7794 q 0,-0.0965 -0.037896,-0.16536 -0.036173,-0.0706 -0.122301,-0.10852 -0.060289,-0.0258 -0.1343588,-0.0327 -0.07407,-0.007 -0.1843127,-0.007 H 1.2008184 v 0.69074 h 0.1843127 q 0.1343588,0 0.2273765,-0.0155 0.09474,-0.0172 0.160197,-0.0706 0.062012,-0.0482 0.091295,-0.11541 0.031006,-0.0672 0.031006,-0.1757 z"
         style="font-size:3.52778px;fill:#ffeeaa;stroke-width:0.264583"
         id="path55" />
      <path
         d="m 5.2660338,291.6767 -0.881945,2.56488 H 3.7122947 l -0.881945,-2.56488 h 0.668349 l 0.5581058,1.73805 0.5581058,-1.73805 z"
         style="font-size:3.52778px;fill:#ffeeaa;stroke-width:0.264583"
         id="path57" />
      <path
         d="M 7.2728035,294.24158 H 5.5778154 v -0.44787 h 0.5408804 v -1.35564 H 5.5778154 v -0.41858 q 0.1188559,0 0.2359892,-0.0155 0.1171334,-0.0155 0.1877579,-0.05 0.082682,-0.0413 0.1274686,-0.11024 0.046509,-0.0706 0.053399,-0.17398 H 6.743981 v 2.1239 h 0.5288225 z"
         style="font-size:3.52778px;fill:#ffeeaa;stroke-width:0.264583"
         id="path59" />
      <path
         d="m 9.5999667,292.95828 q 0,0.33245 -0.053399,0.58222 -0.053399,0.24977 -0.1705323,0.41686 -0.1171333,0.16708 -0.3048912,0.25321 -0.1877578,0.0844 -0.4599205,0.0844 -0.2704402,0 -0.458198,-0.0844 -0.1877578,-0.0861 -0.3066137,-0.25666 -0.1171333,-0.16881 -0.1705323,-0.41513 -0.053399,-0.24805 -0.053399,-0.57878 0,-0.34106 0.051677,-0.58222 0.053399,-0.24116 0.1757,-0.41513 0.1205784,-0.17054 0.3100588,-0.25322 0.1894804,-0.0844 0.4513078,-0.0844 0.2773304,0 0.4616431,0.0879 0.1860353,0.0861 0.3048911,0.25838 0.1171334,0.16881 0.1688098,0.41685 0.053399,0.24805 0.053399,0.57017 z m -0.6459558,0 q 0,-0.47543 -0.079237,-0.66663 -0.077515,-0.19292 -0.26355,-0.19292 -0.1843127,0 -0.26355,0.19292 -0.079237,0.1912 -0.079237,0.67007 0,0.46854 0.079237,0.66491 0.079237,0.19465 0.26355,0.19465 0.1843127,0 0.26355,-0.19465 0.079237,-0.19637 0.079237,-0.66835 z"
         style="font-size:3.52778px;fill:#ffeeaa;stroke-width:0.264583"
         id="path61" />
    </g>
    <rect
       style="display:inline;opacity:1;vector-effect:none;fill:#cccccc;fill-opacity:1;fill-rule:evenodd;stroke:none;stroke-width:0.462688;stroke-linecap:butt;stroke-linejoin:miter;stroke-miterlimit:4;stroke-dasharray:none;stroke-dashoffset:0;stroke-opacity:1;paint-order:normal"
       id="rect420"
       width="15.38363"
       height="129.26068"
       x="-0.071813658"
       y="167.74997" />
    <text
       xml:space="preserve"
       style="font-size:10.5833px;line-height:1.25;font-family:'Eras Bold ITC';-inkscape-font-specification:'Eras Bold ITC';stroke-width:0.264583"
       x="1.1693041"
       y="277.43234"
       id="text59"><tspan
         sodipodi:role="line"
         id="tspan57"
         x="1.1693041"
         y="277.43234"
         style="font-size:2.82222px;fill:#ffff00;stroke-width:0.264583" /></text>
    <g
       style="font-weight:bold;font-size:6.08438px;line-height:1.25;font-family:'Wingdings 2';-inkscape-font-specification:'Wingdings 2 Bold';display:inline;fill:#000000;stroke-width:0.142602"
       id="text51"
       transform="translate(2.5400004,168.49998)"
       aria-label="b">
      <path
         id="path49"
         style="font-size:6.08438px;fill:#000000;stroke-width:0.142602"
         d="M 2.1105974,0.92680782 V 1.2209258 q 0.1693407,0 0.2554965,0.086156 0.089127,0.086156 0.1693406,0.3297686 l 0.047534,0.1485445 Q 2.7433967,2.2785622 3.1088161,2.4330484 2.7701347,2.498408 2.5681143,2.712312 2.3690648,2.9232451 2.3690648,3.2143922 q 0,0.4070117 0.3060015,0.6743917 0.3060015,0.2644091 0.775402,0.2644091 0.7130133,0 1.1021997,-0.6120031 L 4.3239095,3.3480821 Q 4.071384,3.618433 3.804004,3.618433 3.5841583,3.618433 3.4267011,3.4758304 3.269244,3.3302568 3.269244,3.1312073 q 0,-0.1663698 0.1218065,-0.2881762 0.1247773,-0.1218065 0.2911471,-0.1218065 0.3000597,0 0.8407615,0.4248371 l 0.1812242,0.1426027 q 0.882354,0.6951879 1.6844939,0.6951879 0.695188,0 1.176472,-0.4575168 Q 8.049404,3.0688186 8.049404,2.4122522 8.049404,1.7467731 7.5502947,1.3367905 7.0511854,0.92680782 6.2401328,0.92680782 H 6.1420935 V 1.2209258 q 0.4812839,0.03268 0.7635184,0.3357104 0.2822344,0.3000598 0.2822344,0.7813438 0,0.4753422 -0.3565066,0.8140235 -0.3565067,0.3357104 -0.8615578,0.3357104 -0.4872257,0 -0.8674995,-0.2970889 -0.3802738,-0.2970888 -0.3802738,-0.6773626 0,-0.1812242 0.1158647,-0.3060015 0.1188356,-0.1247774 0.2911471,-0.1247774 0.1723115,0 0.2584673,0.095068 0.089127,0.092097 0.089127,0.2822344 0,0.1158647 -0.06536,0.2733218 l 0.26738,0.1218064 Q 5.856888,2.4330479 5.856888,2.1478426 5.856888,1.7972777 5.6281296,1.5477231 5.4023422,1.295198 5.0814862,1.295198 q -0.2049913,0 -0.374332,0.1010102 Q 4.5378135,1.4972185 4.4041235,1.7022098 4.231812,1.2714309 3.85748,1.0991194 3.4861189,0.92680782 2.7285423,0.92680782 Z M 4.2496373,2.3766015 Q 3.8129167,2.2934166 3.4504683,1.6487338 L 3.3999632,1.562578 Q 3.242506,1.2833145 3.0196894,1.1971587 q 1.1348795,0 1.2299479,1.1794428 z" />
    </g>
    <path
       transform="matrix(1,0,0.00764697,0.99997076,0,0)"
       sodipodi:type="rect"
       inkscape:path-effect="#path-effect81"
       style="display:inline;fill:#de8787;stroke-width:0.475314"
       id="rect48-1-6"
       width="15.315103"
       height="35.404259"
       x="-2.1224797"
       y="254.94583"
       d="M -2.1224797,254.94583 H 13.192623 v 35.40426 H -2.1224797 Z" />
    <g
       aria-label="RV10"
       id="text85"
       style="font-weight:bold;font-size:3.52778px;line-height:1.25;font-family:Tahoma;-inkscape-font-specification:'Tahoma, Bold';letter-spacing:0px;fill:#000000;stroke-width:0.264583"
       transform="translate(2.5399975,4.96e-5)">
      <g
         aria-label="SMM"
         id="text100"
         style="font-weight:bold;font-size:3.52778px;line-height:1.25;font-family:Tahoma;-inkscape-font-specification:'Tahoma, Bold';letter-spacing:0px;stroke-width:0.0700042">
        <path
           d="m 1.9415197,294.28894 q -0.2945559,0 -0.5184873,-0.0568 -0.2222088,-0.0568 -0.4134117,-0.14125 v -0.60978 h 0.058567 q 0.1929255,0.16364 0.4254695,0.25149 0.2325441,0.0879 0.4513078,0.0879 0.055122,0 0.1446942,-0.0121 0.091295,-0.0121 0.1464166,-0.0379 0.067179,-0.0293 0.1136882,-0.081 0.046509,-0.0534 0.046509,-0.13952 0,-0.0965 -0.075792,-0.15675 -0.075792,-0.0603 -0.1808676,-0.0879 -0.1309137,-0.0345 -0.2807755,-0.0655 -0.1481392,-0.031 -0.2773304,-0.0758 -0.2980009,-0.10508 -0.4271921,-0.2825 -0.1291911,-0.17742 -0.1291911,-0.44442 0,-0.36001 0.3048911,-0.58222 0.3048912,-0.22393 0.7613666,-0.22393 0.229099,0 0.4547529,0.0465 0.2273764,0.0465 0.4065215,0.12574 v 0.58567 h -0.056844 q -0.1429715,-0.1223 -0.3496774,-0.20671 -0.2049833,-0.0844 -0.4220245,-0.0844 -0.084405,0 -0.1515843,0.0121 -0.067179,0.012 -0.141249,0.0465 -0.060289,0.0276 -0.1050755,0.0827 -0.043064,0.0534 -0.043064,0.12058 0,0.0982 0.068902,0.15675 0.070624,0.0568 0.2704401,0.10335 0.1291912,0.0293 0.2480471,0.0568 0.1205784,0.0276 0.2566598,0.0758 0.266995,0.0965 0.3961862,0.2601 0.1309137,0.16192 0.1309137,0.42892 0,0.3824 -0.301446,0.61495 -0.2997235,0.23254 -0.8113205,0.23254 z"
           style="font-size:3.52778px;stroke-width:0.0700042"
           id="path180" />
        <path
           d="M 6.0015673,294.24243 H 5.3607791 v -1.70015 l -0.4668107,1.09726 h -0.43925 l -0.4668107,-1.09726 v 1.70015 H 3.3815705 v -2.56487 H 4.123989 l 0.5684412,1.26607 0.5667185,-1.26607 h 0.7424186 z"
           style="font-size:3.52778px;stroke-width:0.0700042"
           id="path182" />
        <path
           d="M 9.1503867,294.24243 H 8.5095986 v -1.70015 l -0.4668108,1.09726 H 7.6035379 l -0.4668108,-1.09726 v 1.70015 H 6.5303899 v -2.56487 h 0.7424186 l 0.5684411,1.26607 0.5667186,-1.26607 h 0.7424185 z"
           style="font-size:3.52778px;stroke-width:0.0700042"
           id="path184" />
      </g>
    </g>
    <g
       aria-label="LFO"
       id="text104"
       style="font-weight:bold;font-size:2.82222px;line-height:1.25;font-family:Tahoma;-inkscape-font-specification:'Tahoma, Bold';letter-spacing:0px;stroke-width:0.264583"
       transform="translate(2.5400004)">
      <path
         d="M 3.8866205,192.38593 H 2.5168516 v -2.0519 h 0.5153859 v 1.66053 h 0.854383 z"
         style="font-size:2.82222px;stroke-width:0.264583"
         id="path126" />
      <path
         d="M 5.5058141,190.72539 H 4.6445409 v 0.38723 h 0.7923714 v 0.39136 H 4.6445409 v 0.88195 H 4.1319111 v -2.0519 h 1.373903 z"
         style="font-size:2.82222px;stroke-width:0.264583"
         id="path128" />
      <path
         d="m 7.6431499,191.36067 q 0,0.49747 -0.2659612,0.78272 -0.2659611,0.28525 -0.7289816,0.28525 -0.4643985,0 -0.7289817,-0.28801 -0.2645831,-0.28938 -0.2645831,-0.77996 0,-0.49472 0.2645831,-0.78135 0.2645832,-0.28801 0.7289817,-0.28801 0.4630205,0 0.7289816,0.28663 0.2659612,0.28525 0.2659612,0.78273 z m -0.5319223,-0.001 q 0,-0.18328 -0.038585,-0.31144 -0.037207,-0.12953 -0.1005967,-0.21222 -0.066146,-0.0841 -0.150206,-0.11989 -0.082682,-0.0372 -0.1722547,-0.0372 -0.095085,0 -0.1722546,0.0344 -0.07717,0.0331 -0.148828,0.11989 -0.06339,0.0799 -0.1033528,0.21222 -0.038585,0.13229 -0.038585,0.31557 0,0.18879 0.037207,0.31419 0.037207,0.12402 0.1019748,0.20808 0.066146,0.0854 0.150206,0.12265 0.08406,0.0358 0.1736327,0.0358 0.09095,0 0.1763888,-0.0386 0.085438,-0.04 0.1474499,-0.12264 0.066146,-0.0896 0.1019748,-0.20809 0.035829,-0.11989 0.035829,-0.31281 z"
         style="font-size:2.82222px;stroke-width:0.264583"
         id="path130" />
    </g>
    <g
       aria-label="STEPS"
       id="text124"
       style="font-weight:bold;font-size:2.82222px;line-height:1.25;font-family:Tahoma;-inkscape-font-specification:'Tahoma, Bold';letter-spacing:0px;stroke-width:0.264583"
       transform="translate(2.5400004)">
      <path
         d="m 1.4523146,187.34315 q -0.2356444,0 -0.4147892,-0.0455 -0.17776682,-0.0455 -0.33072895,-0.113 v -0.48782 h 0.0468533 q 0.15434016,0.13091 0.34037515,0.20119 0.186035,0.0703 0.3610457,0.0703 0.044097,0 0.1157551,-0.01 0.073036,-0.01 0.1171332,-0.0303 0.053744,-0.0234 0.090951,-0.0648 0.037207,-0.0427 0.037207,-0.11162 0,-0.0772 -0.060634,-0.1254 -0.060634,-0.0482 -0.1446939,-0.0703 -0.1047308,-0.0276 -0.22462,-0.0524 -0.1185112,-0.0248 -0.221864,-0.0606 -0.23840041,-0.0841 -0.3417532,-0.226 -0.10335278,-0.14194 -0.10335278,-0.35553 0,-0.28801 0.24391257,-0.46578 0.24391251,-0.17915 0.60909241,-0.17915 0.1832789,0 0.3638018,0.0372 0.1819009,0.0372 0.3252168,0.1006 v 0.46853 h -0.045475 q -0.114377,-0.0978 -0.2797415,-0.16536 -0.1639864,-0.0675 -0.3376191,-0.0675 -0.067524,0 -0.1212673,0.01 -0.053743,0.01 -0.112999,0.0372 -0.048231,0.022 -0.08406,0.0661 -0.034451,0.0427 -0.034451,0.0965 0,0.0785 0.055122,0.12541 0.056499,0.0455 0.2163518,0.0827 0.1033528,0.0234 0.1984373,0.0455 0.096463,0.022 0.2053276,0.0606 0.2135957,0.0772 0.3169485,0.20808 0.1047309,0.12954 0.1047309,0.34313 0,0.30593 -0.2411565,0.49196 -0.2397785,0.18604 -0.6490555,0.18604 z"
         style="font-size:2.82222px;stroke-width:0.264583"
         id="path169" />
      <path
         d="M 2.9984722,187.30594 V 185.6454 H 2.3921359 v -0.39136 h 1.7280585 v 0.39136 H 3.5138581 v 1.66054 z"
         style="font-size:2.82222px;stroke-width:0.264583"
         id="path171" />
      <path
         d="m 4.3351683,187.30594 v -2.0519 h 1.3876834 v 0.39136 H 4.8477981 v 0.35967 h 0.8061517 v 0.39136 H 4.8477981 v 0.51815 h 0.8750536 v 0.39136 z"
         style="font-size:2.82222px;stroke-width:0.264583"
         id="path173" />
      <path
         d="m 7.6507255,185.90172 q 0,0.14331 -0.045475,0.27285 -0.045475,0.12954 -0.1309135,0.21635 -0.052365,0.0538 -0.1157551,0.0992 -0.062012,0.0455 -0.1378037,0.0772 -0.075792,0.0317 -0.1653645,0.0496 -0.088194,0.0179 -0.1984374,0.0179 H 6.5868809 v 0.67111 H 6.071495 v -2.0519 h 0.7965054 q 0.1777668,0 0.3059243,0.0331 0.1295355,0.0317 0.2342663,0.10198 0.1157551,0.0772 0.1791448,0.2067 0.06339,0.12816 0.06339,0.30593 z m -0.5291662,0.0124 q 0,-0.0868 -0.041341,-0.14883 -0.041341,-0.0634 -0.099219,-0.0868 -0.073036,-0.0317 -0.1405598,-0.0358 -0.066146,-0.006 -0.1805229,-0.006 h -0.073036 v 0.6146 h 0.035829 q 0.073036,0 0.1378037,-0.001 0.064768,-0.001 0.1129991,-0.01 0.041341,-0.007 0.086816,-0.0262 0.046853,-0.0207 0.071658,-0.0455 0.052365,-0.051 0.07028,-0.10611 0.019293,-0.0551 0.019293,-0.14883 z"
         style="font-size:2.82222px;stroke-width:0.264583"
         id="path175" />
      <path
         d="m 8.5629865,187.34315 q -0.2356443,0 -0.4147891,-0.0455 -0.1777668,-0.0455 -0.3307289,-0.113 v -0.48782 h 0.046853 q 0.1543402,0.13091 0.3403752,0.20119 0.186035,0.0703 0.3610457,0.0703 0.044097,0 0.1157551,-0.01 0.073036,-0.01 0.1171332,-0.0303 0.053744,-0.0234 0.090951,-0.0648 0.037207,-0.0427 0.037207,-0.11162 0,-0.0772 -0.060634,-0.1254 -0.060634,-0.0482 -0.1446939,-0.0703 -0.1047308,-0.0276 -0.22462,-0.0524 -0.1185112,-0.0248 -0.221864,-0.0606 -0.2384004,-0.0841 -0.3417532,-0.226 -0.1033528,-0.14194 -0.1033528,-0.35553 0,-0.28801 0.2439126,-0.46578 0.2439125,-0.17915 0.6090924,-0.17915 0.1832789,0 0.3638018,0.0372 0.1819009,0.0372 0.3252168,0.1006 v 0.46853 h -0.045475 q -0.1143771,-0.0978 -0.2797415,-0.16536 -0.1639864,-0.0675 -0.3376191,-0.0675 -0.067524,0 -0.1212673,0.01 -0.053743,0.01 -0.112999,0.0372 -0.048231,0.022 -0.08406,0.0661 -0.034451,0.0427 -0.034451,0.0965 0,0.0785 0.055122,0.12541 0.0565,0.0455 0.2163518,0.0827 0.1033528,0.0234 0.1984373,0.0455 0.096463,0.022 0.2053276,0.0606 0.2135957,0.0772 0.3169485,0.20808 0.1047308,0.12954 0.1047308,0.34313 0,0.30593 -0.2411565,0.49196 -0.2397784,0.18604 -0.6490555,0.18604 z"
         style="font-size:2.82222px;stroke-width:0.264583"
         id="path177" />
    </g>
    <g
       transform="translate(2.5400003,-10.160004)"
       style="font-weight:bold;font-size:4.23333px;line-height:1.25;font-family:Tahoma;-inkscape-font-specification:'Tahoma, Bold';letter-spacing:0px;stroke-width:0.264583"
       id="text84"
       aria-label="REC">
      <path
         id="path129"
         style="font-size:2.82222px;stroke-width:0.264583"
         d="m 4.2938307,215.24594 h -0.628385 l -0.5718854,-0.75241 h -0.184657 v 0.75241 H 2.3962735 v -2.0519 h 0.8254443 q 0.1708766,0 0.297656,0.0221 0.1267794,0.0207 0.2342663,0.0882 0.110243,0.0703 0.1750107,0.17914 0.064768,0.10749 0.064768,0.27423 0,0.23565 -0.1061089,0.3831 -0.1061088,0.14607 -0.2838756,0.23288 z m -0.8295784,-1.42351 q 0,-0.0772 -0.030317,-0.13229 -0.028939,-0.0565 -0.097841,-0.0868 -0.048231,-0.0207 -0.1074869,-0.0262 -0.059256,-0.006 -0.14745,-0.006 H 2.9089033 v 0.55259 h 0.14745 q 0.1074869,0 0.1819009,-0.0124 0.075792,-0.0138 0.1281575,-0.0565 0.049609,-0.0386 0.073036,-0.0923 0.024805,-0.0537 0.024805,-0.14056 z" />
      <path
         id="path131"
         style="font-size:2.82222px;stroke-width:0.264583"
         d="m 4.4467928,215.24594 v -2.0519 h 1.3876834 v 0.39137 H 4.9594226 v 0.35966 h 0.8061517 v 0.39137 H 4.9594226 v 0.51814 h 0.8750536 v 0.39136 z" />
      <path
         id="path133"
         style="font-size:2.82222px;stroke-width:0.264583"
         d="m 7.0678195,215.2859 q -0.4616424,0 -0.7331157,-0.27836 -0.2714733,-0.27974 -0.2714733,-0.78548 0,-0.48783 0.2714733,-0.77721 0.2728513,-0.29077 0.7344938,-0.29077 0.1226453,0 0.2204859,0.0138 0.097841,0.0138 0.1874131,0.0386 0.07028,0.0207 0.1529621,0.0565 0.082682,0.0358 0.1336696,0.062 v 0.4892 h -0.052365 q -0.037207,-0.0331 -0.093706,-0.0785 -0.0565,-0.0469 -0.1281575,-0.091 -0.071658,-0.0441 -0.1584743,-0.0744 -0.085438,-0.0317 -0.1791448,-0.0317 -0.111621,0 -0.2053275,0.0358 -0.092328,0.0345 -0.1763888,0.12127 -0.07717,0.0786 -0.1267794,0.21222 -0.048231,0.13367 -0.048231,0.31557 0,0.19154 0.050987,0.32246 0.050987,0.12953 0.1336696,0.20946 0.079926,0.0772 0.1777668,0.11162 0.099219,0.0344 0.1970593,0.0344 0.1019747,0 0.1943032,-0.0331 0.092328,-0.0344 0.1557182,-0.0758 0.068902,-0.0427 0.1212673,-0.0868 0.052365,-0.0441 0.09095,-0.0786 h 0.046853 v 0.48232 q -0.0565,0.0262 -0.1309135,0.0606 -0.074414,0.0331 -0.1529622,0.0565 -0.096463,0.0289 -0.1805228,0.0441 -0.08406,0.0152 -0.2315103,0.0152 z" />
    </g>
    <g
       style="font-weight:bold;font-size:2.82222px;line-height:1.25;font-family:Tahoma;-inkscape-font-specification:'Tahoma, Bold';letter-spacing:0px;stroke-width:0.264583"
       id="text88"
       aria-label="CLK"
       transform="translate(2.5400004)">
      <path
         id="path136"
         style="font-size:2.82222px;stroke-width:0.264583"
         d="m 3.3753688,230.52589 q -0.4616425,0 -0.7331158,-0.27836 -0.2714733,-0.27974 -0.2714733,-0.78548 0,-0.48783 0.2714733,-0.77721 0.2728514,-0.29077 0.7344938,-0.29077 0.1226453,0 0.220486,0.0138 0.097841,0.0138 0.187413,0.0386 0.07028,0.0207 0.1529621,0.0565 0.082682,0.0358 0.1336696,0.062 v 0.4892 h -0.052365 q -0.037207,-0.0331 -0.093706,-0.0786 -0.0565,-0.0468 -0.1281575,-0.0909 -0.071658,-0.0441 -0.1584742,-0.0744 -0.085438,-0.0317 -0.1791449,-0.0317 -0.111621,0 -0.2053275,0.0358 -0.092328,0.0344 -0.1763887,0.12127 -0.07717,0.0786 -0.1267795,0.21222 -0.048231,0.13367 -0.048231,0.31557 0,0.19154 0.050987,0.32246 0.050987,0.12953 0.1336696,0.20946 0.079926,0.0772 0.1777668,0.11162 0.099219,0.0345 0.1970593,0.0345 0.1019748,0 0.1943033,-0.0331 0.092328,-0.0344 0.1557182,-0.0758 0.068902,-0.0427 0.1212672,-0.0868 0.052365,-0.0441 0.09095,-0.0786 h 0.046853 v 0.48232 q -0.0565,0.0262 -0.1309135,0.0606 -0.074414,0.0331 -0.1529621,0.0565 -0.096463,0.0289 -0.1805229,0.0441 -0.08406,0.0152 -0.2315103,0.0152 z" />
      <path
         id="path138"
         style="font-size:2.82222px;stroke-width:0.264583"
         d="M 5.7455927,230.48593 H 4.3758238 v -2.0519 h 0.5153859 v 1.66054 h 0.854383 z" />
      <path
         id="path140"
         style="font-size:2.82222px;stroke-width:0.264583"
         d="M 7.7892217,230.48593 H 7.166349 l -0.5594831,-0.83371 -0.1005967,0.14056 v 0.69315 H 5.9908833 v -2.0519 h 0.5153859 v 0.91089 l 0.6559456,-0.91089 h 0.5966901 l -0.7317377,0.95223 z" />
    </g>
    <g
       style="font-weight:bold;font-size:2.82222px;line-height:1.25;font-family:Tahoma;-inkscape-font-specification:'Tahoma, Bold';letter-spacing:0px;stroke-width:0.264583"
       id="text92"
       aria-label="RST"
       transform="translate(2.5400004)">
      <path
         id="path143"
         style="font-size:2.82222px;stroke-width:0.264583"
         d="m 4.3014098,243.18594 h -0.628385 l -0.5718854,-0.7524 h -0.184657 v 0.7524 H 2.4038526 v -2.05189 h 0.8254443 q 0.1708766,0 0.297656,0.022 0.1267794,0.0207 0.2342663,0.0882 0.110243,0.0703 0.1750107,0.17914 0.064768,0.10749 0.064768,0.27423 0,0.23565 -0.1061089,0.3831 -0.1061088,0.14607 -0.2838756,0.23289 z m -0.8295784,-1.42351 q 0,-0.0772 -0.030317,-0.13229 -0.028939,-0.0565 -0.097841,-0.0868 -0.048231,-0.0207 -0.1074869,-0.0262 -0.059256,-0.006 -0.14745,-0.006 H 2.9164824 v 0.55259 h 0.14745 q 0.1074869,0 0.1819009,-0.0124 0.075792,-0.0138 0.1281575,-0.0565 0.049609,-0.0386 0.073036,-0.0923 0.024805,-0.0537 0.024805,-0.14056 z" />
      <path
         id="path145"
         style="font-size:2.82222px;stroke-width:0.264583"
         d="m 5.0882689,243.22315 q -0.2356443,0 -0.4147892,-0.0455 -0.1777667,-0.0455 -0.3307289,-0.113 v -0.48783 h 0.046853 q 0.1543402,0.13091 0.3403752,0.20119 0.186035,0.0703 0.3610457,0.0703 0.044097,0 0.1157551,-0.01 0.073036,-0.01 0.1171332,-0.0303 0.053743,-0.0234 0.09095,-0.0648 0.037207,-0.0427 0.037207,-0.11162 0,-0.0772 -0.060634,-0.1254 -0.060634,-0.0482 -0.1446939,-0.0703 -0.1047308,-0.0276 -0.2246201,-0.0524 -0.1185111,-0.0248 -0.2218639,-0.0606 -0.2384005,-0.0841 -0.3417532,-0.226 -0.1033528,-0.14193 -0.1033528,-0.35553 0,-0.28801 0.2439125,-0.46578 0.2439126,-0.17914 0.6090925,-0.17914 0.1832789,0 0.3638018,0.0372 0.1819009,0.0372 0.3252167,0.10059 v 0.46854 h -0.045475 q -0.1143771,-0.0978 -0.2797415,-0.16537 -0.1639864,-0.0675 -0.3376191,-0.0675 -0.067524,0 -0.1212673,0.01 -0.053743,0.01 -0.112999,0.0372 -0.048231,0.022 -0.08406,0.0661 -0.034451,0.0427 -0.034451,0.0965 0,0.0785 0.055121,0.1254 0.0565,0.0455 0.2163519,0.0827 0.1033528,0.0234 0.1984373,0.0455 0.096463,0.0221 0.2053276,0.0606 0.2135957,0.0772 0.3169485,0.20809 0.1047308,0.12953 0.1047308,0.34313 0,0.30592 -0.2411565,0.49196 -0.2397784,0.18603 -0.6490555,0.18603 z" />
      <path
         id="path147"
         style="font-size:2.82222px;stroke-width:0.264583"
         d="m 6.6344266,243.18594 v -1.66053 H 6.0280902 v -0.39136 h 1.7280586 v 0.39136 H 7.1498125 v 1.66053 z" />
    </g>
    <g
       transform="translate(2.5400004)"
       style="font-weight:bold;font-size:2.82222px;line-height:1.25;font-family:Tahoma;-inkscape-font-specification:'Tahoma, Bold';letter-spacing:0px;stroke-width:0.264583"
       id="text96"
       aria-label="OUTS">
      <path
         id="path150"
         style="font-size:2.82222px;stroke-width:0.264583"
         d="m 3.2534124,257.40067 q 0,0.49748 -0.2659612,0.78273 -0.2659611,0.28525 -0.7289816,0.28525 -0.4643985,0 -0.7289817,-0.28801 -0.2645831,-0.28938 -0.2645831,-0.77997 0,-0.49471 0.2645831,-0.78134 0.2645832,-0.28801 0.7289817,-0.28801 0.4630205,0 0.7289816,0.28663 0.2659612,0.28525 0.2659612,0.78272 z m -0.5319223,-10e-4 q 0,-0.18328 -0.038585,-0.31144 -0.037207,-0.12954 -0.1005967,-0.21222 -0.066146,-0.0841 -0.150206,-0.11989 -0.082682,-0.0372 -0.1722547,-0.0372 -0.095085,0 -0.1722546,0.0344 -0.07717,0.0331 -0.148828,0.11989 -0.06339,0.0799 -0.1033528,0.21221 -0.038585,0.1323 -0.038585,0.31557 0,0.1888 0.037207,0.3142 0.037207,0.12402 0.1019748,0.20808 0.066146,0.0854 0.150206,0.12265 0.08406,0.0358 0.1736327,0.0358 0.09095,0 0.1763888,-0.0386 0.085438,-0.04 0.14745,-0.12265 0.066146,-0.0896 0.1019747,-0.20808 0.035829,-0.11989 0.035829,-0.31281 z" />
      <path
         id="path152"
         style="font-size:2.82222px;stroke-width:0.264583"
         d="m 4.3861589,258.46865 q -0.4134111,0 -0.6366531,-0.19981 -0.221864,-0.19982 -0.221864,-0.58429 v -1.31051 h 0.5153859 v 1.28019 q 0,0.2136 0.079926,0.31833 0.081304,0.10473 0.2632051,0.10473 0.1777668,0 0.2604491,-0.1006 0.08406,-0.10059 0.08406,-0.32246 v -1.28019 h 0.5153859 v 1.30913 q 0,0.37896 -0.2177298,0.58291 -0.2163519,0.20257 -0.6421651,0.20257 z" />
      <path
         id="path154"
         style="font-size:2.82222px;stroke-width:0.264583"
         d="M 6.0342914,258.42593 V 256.7654 H 5.427955 v -0.39136 h 1.7280586 v 0.39136 H 6.5496773 v 1.66053 z" />
      <path
         id="path156"
         style="font-size:2.82222px;stroke-width:0.264583"
         d="m 8.0048848,258.46314 q -0.2356444,0 -0.4147892,-0.0455 -0.1777668,-0.0455 -0.3307289,-0.113 v -0.48783 h 0.046853 q 0.1543402,0.13091 0.3403752,0.20119 0.186035,0.0703 0.3610458,0.0703 0.044097,0 0.1157551,-0.01 0.073036,-0.01 0.1171331,-0.0303 0.053743,-0.0234 0.09095,-0.0648 0.037207,-0.0427 0.037207,-0.11162 0,-0.0772 -0.060634,-0.1254 -0.060634,-0.0482 -0.1446939,-0.0703 -0.1047308,-0.0276 -0.22462,-0.0524 -0.1185112,-0.0248 -0.221864,-0.0606 -0.2384004,-0.0841 -0.3417532,-0.226 -0.1033528,-0.14193 -0.1033528,-0.35553 0,-0.28801 0.2439126,-0.46578 0.2439126,-0.17914 0.6090924,-0.17914 0.1832789,0 0.3638018,0.0372 0.1819009,0.0372 0.3252168,0.10059 v 0.46854 h -0.045475 q -0.1143771,-0.0978 -0.2797416,-0.16537 -0.1639864,-0.0675 -0.3376191,-0.0675 -0.067524,0 -0.1212673,0.01 -0.053743,0.01 -0.112999,0.0372 -0.048231,0.022 -0.08406,0.0661 -0.034451,0.0427 -0.034451,0.0965 0,0.0786 0.055122,0.1254 0.0565,0.0455 0.2163518,0.0827 0.1033528,0.0234 0.1984374,0.0455 0.096463,0.0221 0.2053275,0.0606 0.2135958,0.0772 0.3169486,0.20809 0.1047308,0.12953 0.1047308,0.34313 0,0.30592 -0.2411565,0.49196 -0.2397785,0.18603 -0.6490555,0.18603 z" />
    </g>
    <g
       style="font-style:normal;font-variant:normal;font-weight:bold;font-stretch:normal;font-size:5.64444px;line-height:1.25;font-family:Tahoma;-inkscape-font-specification:'Tahoma Bold';letter-spacing:0px;stroke-width:0.264583;fill:#999999"
       id="text162"
       aria-label="256">
      <path
         id="path172"
         style="font-style:normal;font-variant:normal;font-weight:bold;font-stretch:normal;font-size:5.64444px;font-family:Tahoma;-inkscape-font-specification:'Tahoma Bold';stroke-width:0.264583;fill:#999999"
         d="M 5.5460512,226.42914 H 2.5309059 v -0.66973 q 0.3830944,-0.30317 0.6862625,-0.57326 0.3059243,-0.2701 0.5374345,-0.51263 0.3004121,-0.31695 0.4354598,-0.55673 0.1350476,-0.23978 0.1350476,-0.49334 0,-0.28663 -0.1708766,-0.43821 -0.1708766,-0.15434 -0.4768009,-0.15434 -0.1570962,0 -0.297656,0.0386 -0.1378037,0.0386 -0.2811196,0.0992 -0.1405598,0.0634 -0.2397784,0.12954 -0.099219,0.0661 -0.148828,0.0992 h -0.079926 v -0.89573 q 0.1736327,-0.0827 0.5429466,-0.16812 0.369314,-0.0882 0.7110672,-0.0882 0.7303597,0 1.1051858,0.32521 0.3775822,0.32522 0.3775822,0.91502 0,0.3638 -0.1708766,0.71382 -0.1708766,0.34727 -0.5677513,0.7469 -0.2480467,0.24529 -0.482313,0.43822 -0.2342664,0.19017 -0.3389972,0.27009 h 1.7390829 z" />
      <path
         id="path174"
         style="font-style:normal;font-variant:normal;font-weight:bold;font-stretch:normal;font-size:5.64444px;font-family:Tahoma;-inkscape-font-specification:'Tahoma Bold';stroke-width:0.264583;fill:#999999"
         d="m 9.0462656,225.04008 q 0,0.3197 -0.1102429,0.59255 -0.1074869,0.27285 -0.3252168,0.47129 -0.2149738,0.19568 -0.5126298,0.30317 -0.2949,0.10749 -0.7276036,0.10749 -0.4575084,-0.003 -0.7882373,-0.0799 -0.3279728,-0.0744 -0.5429466,-0.16812 v -0.89572 h 0.093707 q 0.07717,0.0441 0.1736327,0.0992 0.096463,0.0551 0.2535588,0.11576 0.1460719,0.0579 0.2949,0.0965 0.151584,0.0358 0.336241,0.0358 0.1598523,0 0.3445093,-0.0386 0.184657,-0.0413 0.297656,-0.14608 0.082682,-0.0827 0.1295355,-0.18465 0.046853,-0.10198 0.046853,-0.27285 0,-0.14332 -0.060634,-0.24529 -0.057878,-0.10474 -0.1543402,-0.16813 -0.1405598,-0.0937 -0.3389971,-0.11851 -0.1984374,-0.0276 -0.3417533,-0.0276 -0.225998,0 -0.4409718,0.0358 -0.2122178,0.0358 -0.369314,0.0772 h -0.088194 v -2.30408 h 2.7174893 v 0.77446 h -1.744595 v 0.68351 q 0.082682,-0.006 0.1956812,-0.008 0.1157551,-0.006 0.1791449,-0.006 0.2948999,0 0.5457027,0.0606 0.2508027,0.0579 0.4437279,0.1819 0.2342663,0.15159 0.3638018,0.4079 0.1295355,0.25356 0.1295355,0.62012 z" />
      <path
         id="path176"
         style="font-style:normal;font-variant:normal;font-weight:bold;font-stretch:normal;font-size:5.64444px;font-family:Tahoma;-inkscape-font-specification:'Tahoma Bold';stroke-width:0.264583;fill:#999999"
         d="m 12.709088,225.03181 q 0,0.64768 -0.410655,1.0666 -0.410655,0.41617 -1.127234,0.41617 -0.35829,0 -0.639409,-0.10198 -0.28112,-0.10473 -0.476801,-0.30592 -0.2342664,-0.23702 -0.3582898,-0.61185 -0.1240233,-0.37483 -0.1240233,-0.89573 0,-0.54019 0.1157551,-0.95911 0.1157551,-0.41892 0.377582,-0.74138 0.250803,-0.30593 0.655946,-0.4768 0.405143,-0.17364 0.959114,-0.17364 0.201193,0 0.402387,0.0276 0.203949,0.0248 0.278363,0.0413 v 0.80753 h -0.07441 q -0.07166,-0.0358 -0.237022,-0.0799 -0.165365,-0.0469 -0.377583,-0.0469 -0.482313,0 -0.74414,0.25355 -0.261827,0.25356 -0.32246,0.72761 0.201193,-0.12954 0.407899,-0.20671 0.209461,-0.0772 0.471288,-0.0772 0.220486,0 0.413412,0.0606 0.195681,0.0579 0.347265,0.17087 0.212218,0.16261 0.336241,0.42719 0.126779,0.26459 0.126779,0.678 z m -1.196136,0.62012 q 0.07993,-0.0992 0.121267,-0.21498 0.0441,-0.11851 0.0441,-0.35553 0,-0.19844 -0.04961,-0.32797 -0.04961,-0.12954 -0.140559,-0.20671 -0.09095,-0.0772 -0.206706,-0.10473 -0.115755,-0.0303 -0.245291,-0.0303 -0.107487,0 -0.223242,0.0276 -0.112999,0.0276 -0.212217,0.0689 0,0.0276 -0.0028,0.0909 -0.0028,0.0634 -0.0028,0.15986 0,0.35277 0.06063,0.56775 0.06339,0.21497 0.157096,0.32522 0.07166,0.0882 0.162609,0.12677 0.09371,0.0386 0.195681,0.0386 0.08268,0 0.179145,-0.0413 0.09646,-0.0413 0.162608,-0.12402 z" />
    </g>
  </g>
  <g
     inkscape:groupmode="layer"
     id="layer2"
     inkscape:label="components"
     style="display:none">
    <circle
       r="4"
       cy="106.68002"
       cx="5.0800009"
       id="circle9"
       style="display:inline;opacity:1;vector-effect:none;fill:#0000ff;fill-opacity:1;fill-rule:evenodd;stroke:none;stroke-width:1;stroke-linecap:butt;stroke-linejoin:miter;stroke-miterlimit:4;stroke-dasharray:none;stroke-dashoffset:0;stroke-opacity:1;paint-order:normal"
       inkscape:label="out9" />
    <circle
       style="display:inline;opacity:1;vector-effect:none;fill:#00ff00;fill-opacity:1;fill-rule:evenodd;stroke:none;stroke-width:1;stroke-linecap:butt;stroke-linejoin:miter;stroke-miterlimit:4;stroke-dasharray:none;stroke-dashoffset:0;stroke-opacity:1;paint-order:normal"
       id="circle11"
       cx="5.0800009"
       cy="66.040009"
       r="4"
       inkscape:label="polyin" />
    <circle
       inkscape:label="out1"
       style="display:inline;opacity:1;vector-effect:none;fill:#0000ff;fill-opacity:1;fill-rule:evenodd;stroke:none;stroke-width:1;stroke-linecap:butt;stroke-linejoin:miter;stroke-miterlimit:4;stroke-dasharray:none;stroke-dashoffset:0;stroke-opacity:1;paint-order:normal"
       id="circle1"
       cx="5.0800009"
       cy="10.160002"
       r="4" />
    <circle
       inkscape:label="out4"
       style="display:inline;opacity:1;vector-effect:none;fill:#0000ff;fill-opacity:1;fill-rule:evenodd;stroke:none;stroke-width:1;stroke-linecap:butt;stroke-linejoin:miter;stroke-miterlimit:4;stroke-dasharray:none;stroke-dashoffset:0;stroke-opacity:1;paint-order:normal"
       id="circle4"
       cx="5.0800009"
       cy="40.640007"
       r="4" />
    <circle
       inkscape:label="out5"
       style="display:inline;opacity:1;vector-effect:none;fill:#0000ff;fill-opacity:1;fill-rule:evenodd;stroke:none;stroke-width:1;stroke-linecap:butt;stroke-linejoin:miter;stroke-miterlimit:4;stroke-dasharray:none;stroke-dashoffset:0;stroke-opacity:1;paint-order:normal"
       id="circle5"
       cx="5.0800009"
       cy="50.800007"
       r="4" />
    <circle
       inkscape:label="out6"
       style="display:inline;opacity:1;vector-effect:none;fill:#0000ff;fill-opacity:1;fill-rule:evenodd;stroke:none;stroke-width:1;stroke-linecap:butt;stroke-linejoin:miter;stroke-miterlimit:4;stroke-dasharray:none;stroke-dashoffset:0;stroke-opacity:1;paint-order:normal"
       id="circle6"
       cx="5.0800009"
       cy="76.200012"
       r="4" />
    <circle
       inkscape:label="out7"
       style="display:inline;opacity:1;vector-effect:none;fill:#0000ff;fill-opacity:1;fill-rule:evenodd;stroke:none;stroke-width:1;stroke-linecap:butt;stroke-linejoin:miter;stroke-miterlimit:4;stroke-dasharray:none;stroke-dashoffset:0;stroke-opacity:1;paint-order:normal"
       id="circle7"
       cx="5.0800009"
       cy="86.360016"
       r="4" />
    <circle
       inkscape:label="out8"
       style="display:inline;opacity:1;vector-effect:none;fill:#0000ff;fill-opacity:1;fill-rule:evenodd;stroke:none;stroke-width:1;stroke-linecap:butt;stroke-linejoin:miter;stroke-miterlimit:4;stroke-dasharray:none;stroke-dashoffset:0;stroke-opacity:1;paint-order:normal"
       id="circle8"
       cx="5.0800009"
       cy="96.52002"
       r="4" />
    <circle
       inkscape:label="out3"
       style="display:inline;opacity:1;vector-effect:none;fill:#0000ff;fill-opacity:1;fill-rule:evenodd;stroke:none;stroke-width:1;stroke-linecap:butt;stroke-linejoin:miter;stroke-miterlimit:4;stroke-dasharray:none;stroke-dashoffset:0;stroke-opacity:1;paint-order:normal"
       id="circle3"
       cx="5.0800009"
       cy="30.480005"
       r="4" />
    <circle
       inkscape:label="out2"
       style="display:inline;opacity:1;vector-effect:none;fill:#0000ff;fill-opacity:1;fill-rule:evenodd;stroke:none;stroke-width:1;stroke-linecap:butt;stroke-linejoin:miter;stroke-miterlimit:4;stroke-dasharray:none;stroke-dashoffset:0;stroke-opacity:1;paint-order:normal"
       id="circle2"
       cx="5.0800009"
       cy="20.320004"
       r="4" />
    <circle
       inkscape:label="out10"
       style="display:inline;opacity:1;vector-effect:none;fill:#0000ff;fill-opacity:1;fill-rule:evenodd;stroke:none;stroke-width:1;stroke-linecap:butt;stroke-linejoin:miter;stroke-miterlimit:4;stroke-dasharray:none;stroke-dashoffset:0;stroke-opacity:1;paint-order:normal"
       id="circle10"
       cx="5.0800009"
       cy="116.84002"
       r="4" />
    <circle
       id="path30"
       style="fill:#000000;stroke:#000000;stroke-width:0.264583"
       cx="-43.920834"
       cy="-48.154167"
       r="0.035242248" />
    <circle
       id="path32"
       style="fill:#000000;stroke:#000000;stroke-width:0.264583"
       cx="-32.279167"
       cy="-2.5135417"
       r="0.0088105621" />
    <circle
       id="path34"
       style="fill:#000000;stroke:#000000;stroke-width:0.264583"
       cx="-17.991667"
       cy="0.1984375"
       r="0.0088105621" />
    <circle
       id="path36"
       style="fill:#000000;stroke:#000000;stroke-width:0.264583"
       cx="-25.069271"
       cy="2.9104166"
       r="0.0088105621" />
    <text
       xml:space="preserve"
       style="font-size:10.5833px;line-height:1.25;font-family:'Eras Bold ITC';-inkscape-font-specification:'Eras Bold ITC';stroke-width:0.264583"
       x="-38.695312"
       y="11.90625"
       id="text42"><tspan
         sodipodi:role="line"
         id="tspan40"
         x="-38.695312"
         y="11.90625"
         style="font-style:normal;font-variant:normal;font-weight:bold;font-stretch:normal;font-size:3.52778px;font-family:Garamond;-inkscape-font-specification:'Garamond Bold';stroke-width:0.264583" /></text>
  </g>
</svg>
