<?xml version="1.0" encoding="UTF-8" standalone="no"?>
<svg
   xmlns:dc="http://purl.org/dc/elements/1.1/"
   xmlns:cc="http://creativecommons.org/ns#"
   xmlns:rdf="http://www.w3.org/1999/02/22-rdf-syntax-ns#"
   xmlns:svg="http://www.w3.org/2000/svg"
   xmlns="http://www.w3.org/2000/svg"
   xmlns:sodipodi="http://sodipodi.sourceforge.net/DTD/sodipodi-0.dtd"
   xmlns:inkscape="http://www.inkscape.org/namespaces/inkscape"
   width="15.24mm"
   height="128.5mm"
   viewBox="0 0 15.240001 128.50002"
   version="1.1"
   id="svg8"
   inkscape:version="1.0 (4035a4fb49, 2020-05-01)"
   sodipodi:docname="SaveMeMore.svg">
  <defs
     id="defs2">
    <inkscape:path-effect
       hide_knots="false"
       only_selected="false"
       apply_with_radius="true"
       apply_no_radius="true"
       use_knot_distance="true"
       flexible="false"
       chamfer_steps="1"
       radius="0"
       mode="F"
       method="auto"
       unit="mm"
       satellites_param="F,0,0,1,0,0,0,1 @ F,0,0,1,0,0,0,1 @ F,0,0,1,0,0,0,1 @ F,0,0,1,0,0,0,1"
       lpeversion="1"
       is_visible="true"
       id="path-effect81"
       effect="fillet_chamfer" />
    <inkscape:path-effect
       effect="fillet_chamfer"
       id="path-effect77"
       is_visible="true"
       lpeversion="1"
       satellites_param="F,0,0,1,0,0,0,1 @ F,0,0,1,0,0,0,1 @ F,0,0,1,0,0,0,1 @ F,0,0,1,0,0,0,1"
       unit="mm"
       method="auto"
       mode="F"
       radius="0"
       chamfer_steps="1"
       flexible="false"
       use_knot_distance="true"
       apply_no_radius="true"
       apply_with_radius="true"
       only_selected="false"
       hide_knots="false" />
  </defs>
  <sodipodi:namedview
     id="base"
     pagecolor="#ffffff"
     bordercolor="#666666"
     borderopacity="1.0"
     inkscape:pageopacity="0.0"
     inkscape:pageshadow="2"
     inkscape:zoom="1.5788832"
     inkscape:cx="77.201896"
     inkscape:cy="253.15025"
     inkscape:document-units="mm"
     inkscape:current-layer="layer1"
     showgrid="true"
     units="mm"
     inkscape:snap-bbox="true"
     inkscape:snap-page="true"
     inkscape:bbox-nodes="false"
     inkscape:snap-bbox-edge-midpoints="false"
     inkscape:window-width="1780"
     inkscape:window-height="1046"
     inkscape:window-x="-11"
     inkscape:window-y="-11"
     inkscape:window-maximized="1"
     inkscape:snap-bbox-midpoints="true"
     inkscape:snap-nodes="false"
     inkscape:document-rotation="0"
     inkscape:lockguides="false"
     objecttolerance="10000"
     gridtolerance="10000"
     guidetolerance="10000"
     inkscape:snap-others="true">
    <inkscape:grid
       type="xygrid"
       id="grid86"
       units="mm"
       color="#ffd984"
       opacity="0.53333333"
       spacingx="2.5400004"
       spacingy="2.5400004"
       empcolor="#71530f"
       empopacity="0.25098039"
       empspacing="4" />
  </sodipodi:namedview>
  <metadata
     id="metadata5">
    <rdf:RDF>
      <cc:Work
         rdf:about="">
        <dc:format>image/svg+xml</dc:format>
        <dc:type
           rdf:resource="http://purl.org/dc/dcmitype/StillImage" />
        <dc:title />
        <dc:creator>
          <cc:Agent>
            <dc:title>Firo Lightfog</dc:title>
          </cc:Agent>
        </dc:creator>
      </cc:Work>
    </rdf:RDF>
  </metadata>
  <g
     style="display:inline"
     inkscape:label="Layer 1"
     inkscape:groupmode="layer"
     id="layer1"
     transform="translate(0,-168.49998)">
    <g
       aria-label="RV10"
       id="text53"
       style="font-weight:bold;font-size:3.52778px;line-height:1.25;font-family:Tahoma;-inkscape-font-specification:'Tahoma, Bold';letter-spacing:0px;fill:#ffeeaa;stroke-width:0.264583">
      <path
         d="M 2.93198,294.24158 H 2.1464977 L 1.4316399,293.30107 H 1.2008184 v 0.94051 H 0.56003022 V 291.6767 H 1.591837 q 0.213596,0 0.3720705,0.0276 0.1584745,0.0258 0.2928333,0.11025 0.1378039,0.0879 0.2187637,0.22393 0.08096,0.13436 0.08096,0.34278 0,0.29456 -0.1326362,0.47887 -0.1326363,0.18259 -0.3548451,0.29111 z m -1.0369744,-1.7794 q 0,-0.0965 -0.037896,-0.16536 -0.036173,-0.0706 -0.122301,-0.10852 -0.060289,-0.0258 -0.1343588,-0.0327 -0.07407,-0.007 -0.1843127,-0.007 H 1.2008184 v 0.69074 h 0.1843127 q 0.1343588,0 0.2273765,-0.0155 0.09474,-0.0172 0.160197,-0.0706 0.062012,-0.0482 0.091295,-0.11541 0.031006,-0.0672 0.031006,-0.1757 z"
         style="font-size:3.52778px;fill:#ffeeaa;stroke-width:0.264583"
         id="path55" />
      <path
         d="m 5.2660338,291.6767 -0.881945,2.56488 H 3.7122947 l -0.881945,-2.56488 h 0.668349 l 0.5581058,1.73805 0.5581058,-1.73805 z"
         style="font-size:3.52778px;fill:#ffeeaa;stroke-width:0.264583"
         id="path57" />
      <path
         d="M 7.2728035,294.24158 H 5.5778154 v -0.44787 h 0.5408804 v -1.35564 H 5.5778154 v -0.41858 q 0.1188559,0 0.2359892,-0.0155 0.1171334,-0.0155 0.1877579,-0.05 0.082682,-0.0413 0.1274686,-0.11024 0.046509,-0.0706 0.053399,-0.17398 H 6.743981 v 2.1239 h 0.5288225 z"
         style="font-size:3.52778px;fill:#ffeeaa;stroke-width:0.264583"
         id="path59" />
      <path
         d="m 9.5999667,292.95828 q 0,0.33245 -0.053399,0.58222 -0.053399,0.24977 -0.1705323,0.41686 -0.1171333,0.16708 -0.3048912,0.25321 -0.1877578,0.0844 -0.4599205,0.0844 -0.2704402,0 -0.458198,-0.0844 -0.1877578,-0.0861 -0.3066137,-0.25666 -0.1171333,-0.16881 -0.1705323,-0.41513 -0.053399,-0.24805 -0.053399,-0.57878 0,-0.34106 0.051677,-0.58222 0.053399,-0.24116 0.1757,-0.41513 0.1205784,-0.17054 0.3100588,-0.25322 0.1894804,-0.0844 0.4513078,-0.0844 0.2773304,0 0.4616431,0.0879 0.1860353,0.0861 0.3048911,0.25838 0.1171334,0.16881 0.1688098,0.41685 0.053399,0.24805 0.053399,0.57017 z m -0.6459558,0 q 0,-0.47543 -0.079237,-0.66663 -0.077515,-0.19292 -0.26355,-0.19292 -0.1843127,0 -0.26355,0.19292 -0.079237,0.1912 -0.079237,0.67007 0,0.46854 0.079237,0.66491 0.079237,0.19465 0.26355,0.19465 0.1843127,0 0.26355,-0.19465 0.079237,-0.19637 0.079237,-0.66835 z"
         style="font-size:3.52778px;fill:#ffeeaa;stroke-width:0.264583"
         id="path61" />
    </g>
    <rect
       style="display:inline;opacity:1;vector-effect:none;fill:#cccccc;fill-opacity:1;fill-rule:evenodd;stroke:none;stroke-width:0.462688;stroke-linecap:butt;stroke-linejoin:miter;stroke-miterlimit:4;stroke-dasharray:none;stroke-dashoffset:0;stroke-opacity:1;paint-order:normal"
       id="rect420"
       width="15.38363"
       height="129.26068"
       x="-0.071813658"
       y="167.74997" />
    <text
       xml:space="preserve"
       style="font-size:10.5833px;line-height:1.25;font-family:'Eras Bold ITC';-inkscape-font-specification:'Eras Bold ITC';stroke-width:0.264583"
       x="1.1693041"
       y="277.43234"
       id="text59"><tspan
         sodipodi:role="line"
         id="tspan57"
         x="1.1693041"
         y="277.43234"
         style="font-size:2.82222px;fill:#ffff00;stroke-width:0.264583" /></text>
    <g
       style="font-weight:bold;font-size:6.08438px;line-height:1.25;font-family:'Wingdings 2';-inkscape-font-specification:'Wingdings 2 Bold';display:inline;fill:#000000;stroke-width:0.142602"
       id="text51"
       transform="translate(2.5400005,168.49998)"
       aria-label="b">
      <path
         id="path49"
         style="font-size:6.08438px;fill:#000000;stroke-width:0.142602"
         d="M 2.1105974,0.92680782 V 1.2209258 q 0.1693407,0 0.2554965,0.086156 0.089127,0.086156 0.1693406,0.3297686 l 0.047534,0.1485445 Q 2.7433967,2.2785622 3.1088161,2.4330484 2.7701347,2.498408 2.5681143,2.712312 2.3690648,2.9232451 2.3690648,3.2143922 q 0,0.4070117 0.3060015,0.6743917 0.3060015,0.2644091 0.775402,0.2644091 0.7130133,0 1.1021997,-0.6120031 L 4.3239095,3.3480821 Q 4.071384,3.618433 3.804004,3.618433 3.5841583,3.618433 3.4267011,3.4758304 3.269244,3.3302568 3.269244,3.1312073 q 0,-0.1663698 0.1218065,-0.2881762 0.1247773,-0.1218065 0.2911471,-0.1218065 0.3000597,0 0.8407615,0.4248371 l 0.1812242,0.1426027 q 0.882354,0.6951879 1.6844939,0.6951879 0.695188,0 1.176472,-0.4575168 Q 8.049404,3.0688186 8.049404,2.4122522 8.049404,1.7467731 7.5502947,1.3367905 7.0511854,0.92680782 6.2401328,0.92680782 H 6.1420935 V 1.2209258 q 0.4812839,0.03268 0.7635184,0.3357104 0.2822344,0.3000598 0.2822344,0.7813438 0,0.4753422 -0.3565066,0.8140235 -0.3565067,0.3357104 -0.8615578,0.3357104 -0.4872257,0 -0.8674995,-0.2970889 -0.3802738,-0.2970888 -0.3802738,-0.6773626 0,-0.1812242 0.1158647,-0.3060015 0.1188356,-0.1247774 0.2911471,-0.1247774 0.1723115,0 0.2584673,0.095068 0.089127,0.092097 0.089127,0.2822344 0,0.1158647 -0.06536,0.2733218 l 0.26738,0.1218064 Q 5.856888,2.4330479 5.856888,2.1478426 5.856888,1.7972777 5.6281296,1.5477231 5.4023422,1.295198 5.0814862,1.295198 q -0.2049913,0 -0.374332,0.1010102 Q 4.5378135,1.4972185 4.4041235,1.7022098 4.231812,1.2714309 3.85748,1.0991194 3.4861189,0.92680782 2.7285423,0.92680782 Z M 4.2496373,2.3766015 Q 3.8129167,2.2934166 3.4504683,1.6487338 L 3.3999632,1.562578 Q 3.242506,1.2833145 3.0196894,1.1971587 q 1.1348795,0 1.2299479,1.1794428 z" />
    </g>
    <path
       transform="matrix(1,0,0.01072446,0.99994249,0,0)"
       sodipodi:type="rect"
       inkscape:path-effect="#path-effect81"
       style="display:inline;fill:#de8787;stroke-width:0.401363"
       id="rect48-1-6"
       width="15.315103"
       height="25.244658"
       x="-3.0161171"
       y="265.11365"
       d="M -3.0161171,265.11365 H 12.298985 V 290.3583 H -3.0161171 Z" />
    <g
       aria-label="RV10"
       id="text85"
       style="font-weight:bold;font-size:3.52778px;line-height:1.25;font-family:Tahoma;-inkscape-font-specification:'Tahoma, Bold';letter-spacing:0px;fill:#000000;stroke-width:0.264583"
       transform="translate(1.3453057,-0.004275)">
      <g
         aria-label="SMM"
         id="text100"
         style="font-weight:bold;font-size:3.52778px;line-height:1.25;font-family:Tahoma;-inkscape-font-specification:'Tahoma, Bold';letter-spacing:0px;stroke-width:0.0700042">
        <path
           d="m 1.9415197,294.28894 q -0.2945559,0 -0.5184873,-0.0568 -0.2222088,-0.0568 -0.4134117,-0.14125 v -0.60978 h 0.058567 q 0.1929255,0.16364 0.4254695,0.25149 0.2325441,0.0879 0.4513078,0.0879 0.055122,0 0.1446942,-0.0121 0.091295,-0.0121 0.1464166,-0.0379 0.067179,-0.0293 0.1136882,-0.081 0.046509,-0.0534 0.046509,-0.13952 0,-0.0965 -0.075792,-0.15675 -0.075792,-0.0603 -0.1808676,-0.0879 -0.1309137,-0.0345 -0.2807755,-0.0655 -0.1481392,-0.031 -0.2773304,-0.0758 -0.2980009,-0.10508 -0.4271921,-0.2825 -0.1291911,-0.17742 -0.1291911,-0.44442 0,-0.36001 0.3048911,-0.58222 0.3048912,-0.22393 0.7613666,-0.22393 0.229099,0 0.4547529,0.0465 0.2273764,0.0465 0.4065215,0.12574 v 0.58567 h -0.056844 q -0.1429715,-0.1223 -0.3496774,-0.20671 -0.2049833,-0.0844 -0.4220245,-0.0844 -0.084405,0 -0.1515843,0.0121 -0.067179,0.012 -0.141249,0.0465 -0.060289,0.0276 -0.1050755,0.0827 -0.043064,0.0534 -0.043064,0.12058 0,0.0982 0.068902,0.15675 0.070624,0.0568 0.2704401,0.10335 0.1291912,0.0293 0.2480471,0.0568 0.1205784,0.0276 0.2566598,0.0758 0.266995,0.0965 0.3961862,0.2601 0.1309137,0.16192 0.1309137,0.42892 0,0.3824 -0.301446,0.61495 -0.2997235,0.23254 -0.8113205,0.23254 z"
           style="font-size:3.52778px;stroke-width:0.0700042"
           id="path180" />
        <path
           d="M 6.0015673,294.24243 H 5.3607791 v -1.70015 l -0.4668107,1.09726 h -0.43925 l -0.4668107,-1.09726 v 1.70015 H 3.3815705 v -2.56487 H 4.123989 l 0.5684412,1.26607 0.5667185,-1.26607 h 0.7424186 z"
           style="font-size:3.52778px;stroke-width:0.0700042"
           id="path182" />
        <path
           d="M 9.1503867,294.24243 H 8.5095986 v -1.70015 l -0.4668108,1.09726 H 7.6035379 l -0.4668108,-1.09726 v 1.70015 H 6.5303899 v -2.56487 h 0.7424186 l 0.5684411,1.26607 0.5667186,-1.26607 h 0.7424185 z"
           style="font-size:3.52778px;stroke-width:0.0700042"
           id="path184" />
      </g>
    </g>
    <g
       transform="translate(2.5400004,10.160011)"
       style="font-weight:bold;font-size:2.82222px;line-height:1.25;font-family:Tahoma;-inkscape-font-specification:'Tahoma, Bold';letter-spacing:0px;stroke-width:0.264583"
       id="text96"
       aria-label="OUTS">
      <path
         id="path150"
         style="font-size:2.82222px;stroke-width:0.264583"
         d="m 3.2534124,257.40067 q 0,0.49748 -0.2659612,0.78273 -0.2659611,0.28525 -0.7289816,0.28525 -0.4643985,0 -0.7289817,-0.28801 -0.2645831,-0.28938 -0.2645831,-0.77997 0,-0.49471 0.2645831,-0.78134 0.2645832,-0.28801 0.7289817,-0.28801 0.4630205,0 0.7289816,0.28663 0.2659612,0.28525 0.2659612,0.78272 z m -0.5319223,-10e-4 q 0,-0.18328 -0.038585,-0.31144 -0.037207,-0.12954 -0.1005967,-0.21222 -0.066146,-0.0841 -0.150206,-0.11989 -0.082682,-0.0372 -0.1722547,-0.0372 -0.095085,0 -0.1722546,0.0344 -0.07717,0.0331 -0.148828,0.11989 -0.06339,0.0799 -0.1033528,0.21221 -0.038585,0.1323 -0.038585,0.31557 0,0.1888 0.037207,0.3142 0.037207,0.12402 0.1019748,0.20808 0.066146,0.0854 0.150206,0.12265 0.08406,0.0358 0.1736327,0.0358 0.09095,0 0.1763888,-0.0386 0.085438,-0.04 0.14745,-0.12265 0.066146,-0.0896 0.1019747,-0.20808 0.035829,-0.11989 0.035829,-0.31281 z" />
      <path
         id="path152"
         style="font-size:2.82222px;stroke-width:0.264583"
         d="m 4.3861589,258.46865 q -0.4134111,0 -0.6366531,-0.19981 -0.221864,-0.19982 -0.221864,-0.58429 v -1.31051 h 0.5153859 v 1.28019 q 0,0.2136 0.079926,0.31833 0.081304,0.10473 0.2632051,0.10473 0.1777668,0 0.2604491,-0.1006 0.08406,-0.10059 0.08406,-0.32246 v -1.28019 h 0.5153859 v 1.30913 q 0,0.37896 -0.2177298,0.58291 -0.2163519,0.20257 -0.6421651,0.20257 z" />
      <path
         id="path154"
         style="font-size:2.82222px;stroke-width:0.264583"
         d="M 6.0342914,258.42593 V 256.7654 H 5.427955 v -0.39136 h 1.7280586 v 0.39136 H 6.5496773 v 1.66053 z" />
      <path
         id="path156"
         style="font-size:2.82222px;stroke-width:0.264583"
         d="m 8.0048848,258.46314 q -0.2356444,0 -0.4147892,-0.0455 -0.1777668,-0.0455 -0.3307289,-0.113 v -0.48783 h 0.046853 q 0.1543402,0.13091 0.3403752,0.20119 0.186035,0.0703 0.3610458,0.0703 0.044097,0 0.1157551,-0.01 0.073036,-0.01 0.1171331,-0.0303 0.053743,-0.0234 0.09095,-0.0648 0.037207,-0.0427 0.037207,-0.11162 0,-0.0772 -0.060634,-0.1254 -0.060634,-0.0482 -0.1446939,-0.0703 -0.1047308,-0.0276 -0.22462,-0.0524 -0.1185112,-0.0248 -0.221864,-0.0606 -0.2384004,-0.0841 -0.3417532,-0.226 -0.1033528,-0.14193 -0.1033528,-0.35553 0,-0.28801 0.2439126,-0.46578 0.2439126,-0.17914 0.6090924,-0.17914 0.1832789,0 0.3638018,0.0372 0.1819009,0.0372 0.3252168,0.10059 v 0.46854 h -0.045475 q -0.1143771,-0.0978 -0.2797416,-0.16537 -0.1639864,-0.0675 -0.3376191,-0.0675 -0.067524,0 -0.1212673,0.01 -0.053743,0.01 -0.112999,0.0372 -0.048231,0.022 -0.08406,0.0661 -0.034451,0.0427 -0.034451,0.0965 0,0.0786 0.055122,0.1254 0.0565,0.0455 0.2163518,0.0827 0.1033528,0.0234 0.1984374,0.0455 0.096463,0.0221 0.2053275,0.0606 0.2135958,0.0772 0.3169486,0.20809 0.1047308,0.12953 0.1047308,0.34313 0,0.30592 -0.2411565,0.49196 -0.2397785,0.18603 -0.6490555,0.18603 z" />
    </g>
    <g
       aria-label="STEPS"
       id="text124"
       style="font-weight:bold;font-size:2.82222px;line-height:1.25;font-family:Tahoma;-inkscape-font-specification:'Tahoma, Bold';letter-spacing:0px;display:inline;stroke-width:0.264583"
       transform="translate(2.5400032,1.878e-4)">
      <path
         d="m 1.4523146,187.34315 q -0.2356444,0 -0.4147892,-0.0455 -0.17776682,-0.0455 -0.33072895,-0.113 v -0.48782 h 0.0468533 q 0.15434016,0.13091 0.34037515,0.20119 0.186035,0.0703 0.3610457,0.0703 0.044097,0 0.1157551,-0.01 0.073036,-0.01 0.1171332,-0.0303 0.053744,-0.0234 0.090951,-0.0648 0.037207,-0.0427 0.037207,-0.11162 0,-0.0772 -0.060634,-0.1254 -0.060634,-0.0482 -0.1446939,-0.0703 -0.1047308,-0.0276 -0.22462,-0.0524 -0.1185112,-0.0248 -0.221864,-0.0606 -0.23840041,-0.0841 -0.3417532,-0.226 -0.10335278,-0.14194 -0.10335278,-0.35553 0,-0.28801 0.24391257,-0.46578 0.24391251,-0.17915 0.60909241,-0.17915 0.1832789,0 0.3638018,0.0372 0.1819009,0.0372 0.3252168,0.1006 v 0.46853 h -0.045475 q -0.114377,-0.0978 -0.2797415,-0.16536 -0.1639864,-0.0675 -0.3376191,-0.0675 -0.067524,0 -0.1212673,0.01 -0.053743,0.01 -0.112999,0.0372 -0.048231,0.022 -0.08406,0.0661 -0.034451,0.0427 -0.034451,0.0965 0,0.0785 0.055122,0.12541 0.056499,0.0455 0.2163518,0.0827 0.1033528,0.0234 0.1984373,0.0455 0.096463,0.022 0.2053276,0.0606 0.2135957,0.0772 0.3169485,0.20808 0.1047309,0.12954 0.1047309,0.34313 0,0.30593 -0.2411565,0.49196 -0.2397785,0.18604 -0.6490555,0.18604 z"
         style="font-size:2.82222px;stroke-width:0.264583"
         id="path169" />
      <path
         d="M 2.9984722,187.30594 V 185.6454 H 2.3921359 v -0.39136 h 1.7280585 v 0.39136 H 3.5138581 v 1.66054 z"
         style="font-size:2.82222px;stroke-width:0.264583"
         id="path171" />
      <path
         d="m 4.3351683,187.30594 v -2.0519 h 1.3876834 v 0.39136 H 4.8477981 v 0.35967 h 0.8061517 v 0.39136 H 4.8477981 v 0.51815 h 0.8750536 v 0.39136 z"
         style="font-size:2.82222px;stroke-width:0.264583"
         id="path173" />
      <path
         d="m 7.6507255,185.90172 q 0,0.14331 -0.045475,0.27285 -0.045475,0.12954 -0.1309135,0.21635 -0.052365,0.0538 -0.1157551,0.0992 -0.062012,0.0455 -0.1378037,0.0772 -0.075792,0.0317 -0.1653645,0.0496 -0.088194,0.0179 -0.1984374,0.0179 H 6.5868809 v 0.67111 H 6.071495 v -2.0519 h 0.7965054 q 0.1777668,0 0.3059243,0.0331 0.1295355,0.0317 0.2342663,0.10198 0.1157551,0.0772 0.1791448,0.2067 0.06339,0.12816 0.06339,0.30593 z m -0.5291662,0.0124 q 0,-0.0868 -0.041341,-0.14883 -0.041341,-0.0634 -0.099219,-0.0868 -0.073036,-0.0317 -0.1405598,-0.0358 -0.066146,-0.006 -0.1805229,-0.006 h -0.073036 v 0.6146 h 0.035829 q 0.073036,0 0.1378037,-0.001 0.064768,-0.001 0.1129991,-0.01 0.041341,-0.007 0.086816,-0.0262 0.046853,-0.0207 0.071658,-0.0455 0.052365,-0.051 0.07028,-0.10611 0.019293,-0.0551 0.019293,-0.14883 z"
         style="font-size:2.82222px;stroke-width:0.264583"
         id="path175" />
      <path
         d="m 8.5629865,187.34315 q -0.2356443,0 -0.4147891,-0.0455 -0.1777668,-0.0455 -0.3307289,-0.113 v -0.48782 h 0.046853 q 0.1543402,0.13091 0.3403752,0.20119 0.186035,0.0703 0.3610457,0.0703 0.044097,0 0.1157551,-0.01 0.073036,-0.01 0.1171332,-0.0303 0.053744,-0.0234 0.090951,-0.0648 0.037207,-0.0427 0.037207,-0.11162 0,-0.0772 -0.060634,-0.1254 -0.060634,-0.0482 -0.1446939,-0.0703 -0.1047308,-0.0276 -0.22462,-0.0524 -0.1185112,-0.0248 -0.221864,-0.0606 -0.2384004,-0.0841 -0.3417532,-0.226 -0.1033528,-0.14194 -0.1033528,-0.35553 0,-0.28801 0.2439126,-0.46578 0.2439125,-0.17915 0.6090924,-0.17915 0.1832789,0 0.3638018,0.0372 0.1819009,0.0372 0.3252168,0.1006 v 0.46853 h -0.045475 q -0.1143771,-0.0978 -0.2797415,-0.16536 -0.1639864,-0.0675 -0.3376191,-0.0675 -0.067524,0 -0.1212673,0.01 -0.053743,0.01 -0.112999,0.0372 -0.048231,0.022 -0.08406,0.0661 -0.034451,0.0427 -0.034451,0.0965 0,0.0785 0.055122,0.12541 0.0565,0.0455 0.2163518,0.0827 0.1033528,0.0234 0.1984373,0.0455 0.096463,0.022 0.2053276,0.0606 0.2135957,0.0772 0.3169485,0.20808 0.1047308,0.12954 0.1047308,0.34313 0,0.30593 -0.2411565,0.49196 -0.2397784,0.18604 -0.6490555,0.18604 z"
         style="font-size:2.82222px;stroke-width:0.264583"
         id="path177" />
    </g>
    <g
       style="font-weight:bold;font-size:2.82222px;line-height:1.25;font-family:Tahoma;-inkscape-font-specification:'Tahoma, Bold';letter-spacing:0px;stroke-width:0.264583"
       id="text158"
       aria-label="START">
      <path
         id="path168"
         style="font-size:2.82222px;stroke-width:0.264583"
         d="m 3.8007676,202.58314 q -0.2356444,0 -0.4147892,-0.0455 -0.1777668,-0.0455 -0.3307289,-0.113 v -0.48782 h 0.046853 q 0.1543401,0.13091 0.3403751,0.20119 0.1860351,0.0703 0.3610458,0.0703 0.044097,0 0.1157551,-0.01 0.073036,-0.01 0.1171332,-0.0303 0.053743,-0.0234 0.09095,-0.0648 0.037207,-0.0427 0.037207,-0.11162 0,-0.0772 -0.060634,-0.1254 -0.060634,-0.0482 -0.1446939,-0.0703 -0.1047309,-0.0276 -0.2246201,-0.0524 -0.1185112,-0.0248 -0.221864,-0.0606 -0.2384004,-0.0841 -0.3417532,-0.226 -0.1033528,-0.14194 -0.1033528,-0.35553 0,-0.28801 0.2439126,-0.46578 0.2439126,-0.17915 0.6090924,-0.17915 0.183279,0 0.3638018,0.0372 0.1819009,0.0372 0.3252168,0.1006 v 0.46853 h -0.045475 q -0.1143771,-0.0978 -0.2797416,-0.16536 -0.1639864,-0.0675 -0.3376191,-0.0675 -0.067524,0 -0.1212672,0.01 -0.053743,0.01 -0.1129991,0.0372 -0.048231,0.022 -0.08406,0.0661 -0.034451,0.0427 -0.034451,0.0965 0,0.0786 0.055121,0.12541 0.0565,0.0455 0.2163518,0.0827 0.1033528,0.0234 0.1984374,0.0455 0.096463,0.022 0.2053275,0.0606 0.2135958,0.0772 0.3169486,0.20808 0.1047308,0.12954 0.1047308,0.34313 0,0.30593 -0.2411565,0.49196 -0.2397785,0.18604 -0.6490555,0.18604 z" />
      <path
         id="path170"
         style="font-size:2.82222px;stroke-width:0.264583"
         d="m 5.3469253,202.54593 v -1.66054 H 4.7405889 v -0.39136 h 1.7280586 v 0.39136 H 5.8623111 v 1.66054 z" />
      <path
         id="path172"
         style="font-size:2.82222px;stroke-width:0.264583"
         d="m 6.4631354,202.54593 0.6931527,-2.0519 h 0.5622391 l 0.6931527,2.0519 H 7.8811356 L 7.7529782,202.12701 H 7.1080568 l -0.1281575,0.41892 z m 1.1768437,-0.79099 -0.2094616,-0.67662 -0.2094617,0.67662 z" />
      <path
         id="path174"
         style="font-size:2.82222px;stroke-width:0.264583"
         d="M 10.515943,202.54593 H 9.8875579 l -0.5718854,-0.75241 h -0.184657 v 0.75241 H 8.6183857 v -2.0519 H 9.44383 q 0.1708766,0 0.297656,0.022 0.1267794,0.0207 0.2342663,0.0882 0.1102427,0.0703 0.1750107,0.17915 0.06477,0.10749 0.06477,0.27423 0,0.23564 -0.106109,0.38309 -0.106109,0.14608 -0.2838757,0.23289 z m -0.8295785,-1.42351 q 0,-0.0772 -0.030317,-0.13229 -0.028939,-0.0565 -0.097841,-0.0868 -0.048231,-0.0207 -0.1074869,-0.0262 -0.059256,-0.006 -0.1474499,-0.006 H 9.1310155 v 0.5526 h 0.14745 q 0.1074869,0 0.1819009,-0.0124 0.075792,-0.0138 0.1281575,-0.0565 0.049609,-0.0386 0.073036,-0.0923 0.024805,-0.0538 0.024805,-0.14056 z" />
      <path
         id="path176"
         style="font-size:2.82222px;stroke-width:0.264583"
         d="m 11.063023,202.54593 v -1.66054 h -0.606336 v -0.39136 h 1.728059 v 0.39136 h -0.606337 v 1.66054 z" />
    </g>
    <g
       style="font-weight:bold;font-size:2.82222px;line-height:1.25;font-family:Tahoma;-inkscape-font-specification:'Tahoma, Bold';letter-spacing:0px;stroke-width:0.264583"
       id="text162"
       aria-label="PW">
      <path
         id="path179"
         style="font-size:2.82222px;stroke-width:0.264583"
         d="m 6.9468281,241.78172 q 0,0.14332 -0.045475,0.27286 -0.045475,0.12953 -0.1309135,0.21635 -0.052365,0.0537 -0.1157551,0.0992 -0.062012,0.0455 -0.1378037,0.0772 -0.075792,0.0317 -0.1653645,0.0496 -0.088194,0.0179 -0.1984373,0.0179 H 5.8829834 v 0.6711 H 5.3675975 v -2.05189 H 6.164103 q 0.1777668,0 0.3059242,0.0331 0.1295355,0.0317 0.2342663,0.10197 0.1157552,0.0772 0.1791449,0.20671 0.06339,0.12816 0.06339,0.30592 z m -0.5291663,0.0124 q 0,-0.0868 -0.041341,-0.14883 -0.041341,-0.0634 -0.099219,-0.0868 -0.073036,-0.0317 -0.1405598,-0.0358 -0.066146,-0.006 -0.1805228,-0.006 h -0.073036 v 0.61461 h 0.035829 q 0.073036,0 0.1378037,-0.001 0.064768,-0.001 0.112999,-0.01 0.041341,-0.007 0.086816,-0.0262 0.046853,-0.0207 0.071658,-0.0455 0.052365,-0.051 0.07028,-0.10611 0.019293,-0.0551 0.019293,-0.14882 z" />
      <path
         id="path181"
         style="font-size:2.82222px;stroke-width:0.264583"
         d="m 9.872401,241.13405 -0.51952,2.05189 H 8.7878858 l -0.3293509,-1.26917 -0.3197046,1.26917 H 7.573835 l -0.51952,-2.05189 h 0.5346784 l 0.2824977,1.37666 0.3445092,-1.37666 h 0.5112518 l 0.3265948,1.37666 0.2976561,-1.37666 z" />
    </g>
    <g
       transform="translate(1.95e-6,10.159995)"
       style="font-weight:bold;font-size:2.82222px;line-height:1.25;font-family:Tahoma;-inkscape-font-specification:'Tahoma, Bold';letter-spacing:0px;stroke-width:0.264583"
       id="text166"
       aria-label="SYNC">
      <path
         id="path185"
         style="font-size:2.82222px;stroke-width:0.264583"
         d="m 4.5924506,220.36315 q -0.2356444,0 -0.4147892,-0.0455 -0.1777668,-0.0455 -0.3307289,-0.11299 v -0.48783 h 0.046853 q 0.1543402,0.13091 0.3403752,0.20119 0.186035,0.0703 0.3610457,0.0703 0.044097,0 0.1157552,-0.01 0.073036,-0.01 0.1171331,-0.0303 0.053744,-0.0234 0.09095,-0.0648 0.037207,-0.0427 0.037207,-0.11162 0,-0.0772 -0.060634,-0.1254 -0.060634,-0.0482 -0.1446939,-0.0703 -0.1047308,-0.0276 -0.22462,-0.0524 -0.1185112,-0.0248 -0.221864,-0.0606 -0.2384004,-0.0841 -0.3417532,-0.226 -0.1033528,-0.14193 -0.1033528,-0.35553 0,-0.28801 0.2439126,-0.46578 0.2439125,-0.17914 0.6090924,-0.17914 0.1832789,0 0.3638018,0.0372 0.1819009,0.0372 0.3252168,0.10059 v 0.46854 h -0.045475 q -0.114377,-0.0978 -0.2797415,-0.16537 -0.1639864,-0.0675 -0.3376191,-0.0675 -0.067524,0 -0.1212673,0.01 -0.053743,0.01 -0.112999,0.0372 -0.048231,0.0221 -0.08406,0.0661 -0.034451,0.0427 -0.034451,0.0965 0,0.0786 0.055122,0.1254 0.0565,0.0455 0.2163518,0.0827 0.1033528,0.0234 0.1984374,0.0455 0.096463,0.0221 0.2053275,0.0606 0.2135957,0.0772 0.3169485,0.20808 0.1047309,0.12954 0.1047309,0.34314 0,0.30592 -0.2411565,0.49195 -0.2397785,0.18604 -0.6490555,0.18604 z" />
      <path
         id="path187"
         style="font-size:2.82222px;stroke-width:0.264583"
         d="m 7.4504996,218.27405 -0.7083111,1.19475 v 0.85714 H 6.2268026 v -0.83095 L 5.5060892,218.27405 H 6.093133 l 0.4023868,0.73311 0.3872285,-0.73311 z" />
      <path
         id="path189"
         style="font-size:2.82222px;stroke-width:0.264583"
         d="M 9.393532,220.32594 H 8.8974386 l -0.7909933,-1.4304 v 1.4304 H 7.6351565 v -2.05189 h 0.6325191 l 0.6545676,1.17546 v -1.17546 H 9.393532 Z" />
      <path
         id="path191"
         style="font-size:2.82222px;stroke-width:0.264583"
         d="m 10.697155,220.36591 q -0.461642,0 -0.7331156,-0.27837 -0.2714733,-0.27974 -0.2714733,-0.78548 0,-0.48782 0.2714733,-0.77721 0.2728516,-0.29077 0.7344936,-0.29077 0.122646,0 0.220486,0.0138 0.09784,0.0138 0.187413,0.0386 0.07028,0.0207 0.152962,0.0565 0.08268,0.0358 0.13367,0.062 v 0.4892 h -0.05236 q -0.03721,-0.0331 -0.09371,-0.0786 -0.0565,-0.0469 -0.128157,-0.0909 -0.07166,-0.0441 -0.158475,-0.0744 -0.08544,-0.0317 -0.179145,-0.0317 -0.111621,0 -0.205327,0.0358 -0.09233,0.0344 -0.176389,0.12127 -0.07717,0.0785 -0.126779,0.21222 -0.04823,0.13367 -0.04823,0.31557 0,0.19155 0.05099,0.32246 0.05099,0.12954 0.133669,0.20946 0.07993,0.0772 0.177767,0.11162 0.09922,0.0344 0.19706,0.0344 0.101974,0 0.194303,-0.0331 0.09233,-0.0345 0.155718,-0.0758 0.0689,-0.0427 0.121267,-0.0868 0.05237,-0.0441 0.09095,-0.0786 h 0.04685 v 0.48232 q -0.0565,0.0262 -0.130914,0.0606 -0.07441,0.0331 -0.152962,0.0565 -0.09646,0.0289 -0.180523,0.0441 -0.08406,0.0152 -0.23151,0.0152 z" />
    </g>
    <g
       transform="translate(2.75e-6,12.699999)"
       style="font-weight:bold;font-size:2.82222px;line-height:1.25;font-family:Tahoma;-inkscape-font-specification:'Tahoma, Bold';letter-spacing:0px;stroke-width:0.264583"
       id="text196"
       aria-label="PREC">
      <path
         id="path198"
         style="font-size:2.82222px;stroke-width:0.264583"
         d="m 5.5867044,241.78172 q 0,0.14332 -0.045475,0.27286 -0.045475,0.12953 -0.1309135,0.21635 -0.052365,0.0537 -0.1157551,0.0992 -0.062012,0.0455 -0.1378038,0.0772 -0.075792,0.0317 -0.1653644,0.0496 -0.088194,0.0179 -0.1984374,0.0179 H 4.5228598 v 0.6711 H 4.0074739 v -2.05189 h 0.7965054 q 0.1777668,0 0.3059243,0.0331 0.1295355,0.0317 0.2342663,0.10197 0.1157551,0.0772 0.1791448,0.20671 0.06339,0.12816 0.06339,0.30592 z m -0.5291662,0.0124 q 0,-0.0868 -0.041341,-0.14883 -0.041341,-0.0634 -0.099219,-0.0868 -0.073036,-0.0317 -0.1405598,-0.0358 -0.066146,-0.006 -0.1805229,-0.006 h -0.073036 v 0.61461 h 0.035829 q 0.073036,0 0.1378037,-0.001 0.064768,-0.001 0.1129991,-0.01 0.041341,-0.007 0.086816,-0.0262 0.046853,-0.0207 0.071658,-0.0455 0.052365,-0.051 0.07028,-0.10611 0.019293,-0.0551 0.019293,-0.14882 z" />
      <path
         id="path200"
         style="font-size:2.82222px;stroke-width:0.264583"
         d="M 7.7626251,243.18594 H 7.1342402 l -0.5718854,-0.7524 h -0.184657 v 0.7524 H 5.865068 v -2.05189 h 0.8254442 q 0.1708767,0 0.2976561,0.022 0.1267794,0.0207 0.2342663,0.0882 0.110243,0.0703 0.1750107,0.17914 0.064768,0.10749 0.064768,0.27423 0,0.23565 -0.1061089,0.3831 -0.1061089,0.14607 -0.2838757,0.23289 z m -0.8295783,-1.42351 q 0,-0.0772 -0.030317,-0.13229 -0.028939,-0.0565 -0.097841,-0.0868 -0.048231,-0.0207 -0.1074869,-0.0262 -0.059256,-0.006 -0.1474499,-0.006 H 6.3776978 v 0.55259 h 0.14745 q 0.1074869,0 0.1819009,-0.0124 0.075792,-0.0138 0.1281574,-0.0565 0.049609,-0.0386 0.073036,-0.0923 0.024805,-0.0537 0.024805,-0.14056 z" />
      <path
         id="path202"
         style="font-size:2.82222px;stroke-width:0.264583"
         d="m 7.9155873,243.18594 v -2.05189 h 1.3876835 v 0.39136 H 8.4282172 v 0.35967 h 0.8061517 v 0.39136 H 8.4282172 v 0.51814 h 0.8750536 v 0.39136 z" />
      <path
         id="path204"
         style="font-size:2.82222px;stroke-width:0.264583"
         d="m 10.536614,243.22591 q -0.461643,0 -0.7331159,-0.27837 -0.2714733,-0.27974 -0.2714733,-0.78548 0,-0.48782 0.2714733,-0.77721 0.2728509,-0.29077 0.7344939,-0.29077 0.122645,0 0.220486,0.0138 0.09784,0.0138 0.187413,0.0386 0.07028,0.0207 0.152962,0.0565 0.08268,0.0358 0.13367,0.062 v 0.4892 h -0.05237 q -0.03721,-0.0331 -0.09371,-0.0786 -0.0565,-0.0469 -0.128158,-0.0909 -0.07166,-0.0441 -0.158474,-0.0744 -0.08544,-0.0317 -0.179145,-0.0317 -0.111621,0 -0.205327,0.0358 -0.09233,0.0345 -0.176389,0.12127 -0.07717,0.0786 -0.12678,0.21222 -0.04823,0.13367 -0.04823,0.31557 0,0.19155 0.05099,0.32246 0.05099,0.12954 0.133669,0.20946 0.07993,0.0772 0.177767,0.11162 0.09922,0.0344 0.197059,0.0344 0.101975,0 0.194303,-0.0331 0.09233,-0.0344 0.155719,-0.0758 0.0689,-0.0427 0.121267,-0.0868 0.05236,-0.0441 0.09095,-0.0785 h 0.04685 v 0.48232 q -0.0565,0.0262 -0.130914,0.0606 -0.07441,0.0331 -0.152962,0.0565 -0.09646,0.0289 -0.180523,0.0441 -0.08406,0.0152 -0.23151,0.0152 z" />
    </g>
    <g
       transform="translate(3.8999999e-6,2.5400176)"
       style="font-weight:bold;font-size:2.82222px;line-height:1.25;font-family:Tahoma;-inkscape-font-specification:'Tahoma, Bold';letter-spacing:0px;stroke-width:0.264583"
       id="text84"
       aria-label="DELAY">
      <path
         id="path86"
         style="font-size:2.82222px;stroke-width:0.264583"
         d="m 4.88735,214.22206 q 0,0.28663 -0.1254014,0.51401 -0.1254014,0.226 -0.3169485,0.34726 -0.1598523,0.10336 -0.3486434,0.13367 -0.1874131,0.0289 -0.3996308,0.0289 H 3.0545606 v -2.0519 h 0.6366531 q 0.2163519,0 0.405143,0.0276 0.1887911,0.0276 0.3541555,0.13367 0.2025715,0.12954 0.3197046,0.35003 0.1171332,0.2191 0.1171332,0.51676 z m -0.5291663,-0.004 q 0,-0.20258 -0.07028,-0.34589 -0.068902,-0.1447 -0.2135957,-0.226 -0.1047309,-0.0579 -0.220486,-0.0634 -0.1143771,-0.006 -0.2742294,-0.006 h -0.00965 v 1.28433 h 0.00965 q 0.1736327,0 0.2921439,-0.006 0.1198892,-0.007 0.2273761,-0.0744 0.1267795,-0.0799 0.1929252,-0.22048 0.066146,-0.14056 0.066146,-0.34313 z" />
      <path
         id="path88"
         style="font-size:2.82222px;stroke-width:0.264583"
         d="m 5.1932742,215.24594 v -2.0519 h 1.3876834 v 0.39137 H 5.705904 v 0.35966 h 0.8061517 v 0.39137 H 5.705904 v 0.51814 h 0.8750536 v 0.39136 z" />
      <path
         id="path90"
         style="font-size:2.82222px;stroke-width:0.264583"
         d="M 8.29937,215.24594 H 6.9296011 v -2.0519 H 7.444987 v 1.66054 H 8.29937 Z" />
      <path
         id="path92"
         style="font-size:2.82222px;stroke-width:0.264583"
         d="m 8.3241745,215.24594 0.6931527,-2.0519 h 0.5622392 l 0.6931526,2.0519 H 9.7421748 L 9.6140173,214.82702 H 8.9690959 l -0.1281574,0.41892 z m 1.1768438,-0.79099 -0.2094617,-0.67662 -0.2094616,0.67662 z" />
      <path
         id="path94"
         style="font-size:2.82222px;stroke-width:0.264583"
         d="m 12.185434,213.19404 -0.708311,1.19476 v 0.85714 h -0.515386 v -0.83096 l -0.720713,-1.22094 h 0.587044 l 0.402387,0.73312 0.387228,-0.73312 z" />
    </g>
  </g>
  <g
     inkscape:groupmode="layer"
     id="layer2"
     inkscape:label="components"
     style="display:none">
    <circle
       r="4"
       cy="106.68002"
       cx="5.0800009"
       id="circle9"
       style="display:inline;opacity:1;vector-effect:none;fill:#0000ff;fill-opacity:1;fill-rule:evenodd;stroke:none;stroke-width:1;stroke-linecap:butt;stroke-linejoin:miter;stroke-miterlimit:4;stroke-dasharray:none;stroke-dashoffset:0;stroke-opacity:1;paint-order:normal"
       inkscape:label="out9" />
    <circle
       style="display:inline;opacity:1;vector-effect:none;fill:#00ff00;fill-opacity:1;fill-rule:evenodd;stroke:none;stroke-width:1;stroke-linecap:butt;stroke-linejoin:miter;stroke-miterlimit:4;stroke-dasharray:none;stroke-dashoffset:0;stroke-opacity:1;paint-order:normal"
       id="circle11"
       cx="5.0800009"
       cy="66.040009"
       r="4"
       inkscape:label="polyin" />
    <circle
       inkscape:label="out1"
       style="display:inline;opacity:1;vector-effect:none;fill:#0000ff;fill-opacity:1;fill-rule:evenodd;stroke:none;stroke-width:1;stroke-linecap:butt;stroke-linejoin:miter;stroke-miterlimit:4;stroke-dasharray:none;stroke-dashoffset:0;stroke-opacity:1;paint-order:normal"
       id="circle1"
       cx="5.0800009"
       cy="10.160002"
       r="4" />
    <circle
       inkscape:label="out4"
       style="display:inline;opacity:1;vector-effect:none;fill:#0000ff;fill-opacity:1;fill-rule:evenodd;stroke:none;stroke-width:1;stroke-linecap:butt;stroke-linejoin:miter;stroke-miterlimit:4;stroke-dasharray:none;stroke-dashoffset:0;stroke-opacity:1;paint-order:normal"
       id="circle4"
       cx="5.0800009"
       cy="40.640007"
       r="4" />
    <circle
       inkscape:label="out5"
       style="display:inline;opacity:1;vector-effect:none;fill:#0000ff;fill-opacity:1;fill-rule:evenodd;stroke:none;stroke-width:1;stroke-linecap:butt;stroke-linejoin:miter;stroke-miterlimit:4;stroke-dasharray:none;stroke-dashoffset:0;stroke-opacity:1;paint-order:normal"
       id="circle5"
       cx="5.0800009"
       cy="50.800007"
       r="4" />
    <circle
       inkscape:label="out6"
       style="display:inline;opacity:1;vector-effect:none;fill:#0000ff;fill-opacity:1;fill-rule:evenodd;stroke:none;stroke-width:1;stroke-linecap:butt;stroke-linejoin:miter;stroke-miterlimit:4;stroke-dasharray:none;stroke-dashoffset:0;stroke-opacity:1;paint-order:normal"
       id="circle6"
       cx="5.0800009"
       cy="76.200012"
       r="4" />
    <circle
       inkscape:label="out7"
       style="display:inline;opacity:1;vector-effect:none;fill:#0000ff;fill-opacity:1;fill-rule:evenodd;stroke:none;stroke-width:1;stroke-linecap:butt;stroke-linejoin:miter;stroke-miterlimit:4;stroke-dasharray:none;stroke-dashoffset:0;stroke-opacity:1;paint-order:normal"
       id="circle7"
       cx="5.0800009"
       cy="86.360016"
       r="4" />
    <circle
       inkscape:label="out8"
       style="display:inline;opacity:1;vector-effect:none;fill:#0000ff;fill-opacity:1;fill-rule:evenodd;stroke:none;stroke-width:1;stroke-linecap:butt;stroke-linejoin:miter;stroke-miterlimit:4;stroke-dasharray:none;stroke-dashoffset:0;stroke-opacity:1;paint-order:normal"
       id="circle8"
       cx="5.0800009"
       cy="96.52002"
       r="4" />
    <circle
       inkscape:label="out3"
       style="display:inline;opacity:1;vector-effect:none;fill:#0000ff;fill-opacity:1;fill-rule:evenodd;stroke:none;stroke-width:1;stroke-linecap:butt;stroke-linejoin:miter;stroke-miterlimit:4;stroke-dasharray:none;stroke-dashoffset:0;stroke-opacity:1;paint-order:normal"
       id="circle3"
       cx="5.0800009"
       cy="30.480005"
       r="4" />
    <circle
       inkscape:label="out2"
       style="display:inline;opacity:1;vector-effect:none;fill:#0000ff;fill-opacity:1;fill-rule:evenodd;stroke:none;stroke-width:1;stroke-linecap:butt;stroke-linejoin:miter;stroke-miterlimit:4;stroke-dasharray:none;stroke-dashoffset:0;stroke-opacity:1;paint-order:normal"
       id="circle2"
       cx="5.0800009"
       cy="20.320004"
       r="4" />
    <circle
       inkscape:label="out10"
       style="display:inline;opacity:1;vector-effect:none;fill:#0000ff;fill-opacity:1;fill-rule:evenodd;stroke:none;stroke-width:1;stroke-linecap:butt;stroke-linejoin:miter;stroke-miterlimit:4;stroke-dasharray:none;stroke-dashoffset:0;stroke-opacity:1;paint-order:normal"
       id="circle10"
       cx="5.0800009"
       cy="116.84002"
       r="4" />
    <circle
       id="path30"
       style="fill:#000000;stroke:#000000;stroke-width:0.264583"
       cx="-43.920834"
       cy="-48.154167"
       r="0.035242248" />
    <circle
       id="path32"
       style="fill:#000000;stroke:#000000;stroke-width:0.264583"
       cx="-32.279167"
       cy="-2.5135417"
       r="0.0088105621" />
    <circle
       id="path34"
       style="fill:#000000;stroke:#000000;stroke-width:0.264583"
       cx="-17.991667"
       cy="0.1984375"
       r="0.0088105621" />
    <circle
       id="path36"
       style="fill:#000000;stroke:#000000;stroke-width:0.264583"
       cx="-25.069271"
       cy="2.9104166"
       r="0.0088105621" />
    <text
       xml:space="preserve"
       style="font-size:10.5833px;line-height:1.25;font-family:'Eras Bold ITC';-inkscape-font-specification:'Eras Bold ITC';stroke-width:0.264583"
       x="-38.695312"
       y="11.90625"
       id="text42"><tspan
         sodipodi:role="line"
         id="tspan40"
         x="-38.695312"
         y="11.90625"
         style="font-style:normal;font-variant:normal;font-weight:bold;font-stretch:normal;font-size:3.52778px;font-family:Garamond;-inkscape-font-specification:'Garamond Bold';stroke-width:0.264583" /></text>
  </g>
</svg>
