<?xml version="1.0" encoding="UTF-8" standalone="no"?>
<svg
   xmlns:dc="http://purl.org/dc/elements/1.1/"
   xmlns:cc="http://creativecommons.org/ns#"
   xmlns:rdf="http://www.w3.org/1999/02/22-rdf-syntax-ns#"
   xmlns:svg="http://www.w3.org/2000/svg"
   xmlns="http://www.w3.org/2000/svg"
   xmlns:sodipodi="http://sodipodi.sourceforge.net/DTD/sodipodi-0.dtd"
   xmlns:inkscape="http://www.inkscape.org/namespaces/inkscape"
   sodipodi:docname="SeqP5.svg"
   inkscape:version="1.0 (4035a4fb49, 2020-05-01)"
   id="svg8"
   version="1.1"
   viewBox="0 0 30.480003 128.50002"
   height="128.5mm"
   width="30.48mm">
  <defs
     id="defs2">
    <inkscape:path-effect
       effect="fillet_chamfer"
       id="path-effect77"
       is_visible="true"
       lpeversion="1"
       satellites_param="F,0,0,1,0,4,0,1 @ F,0,0,1,0,4,0,1 @ F,0,0,1,0,4,0,1 @ F,0,0,1,0,4,0,1"
       unit="mm"
       method="auto"
       mode="F"
       radius="4"
       chamfer_steps="1"
       flexible="false"
       use_knot_distance="true"
       apply_no_radius="true"
       apply_with_radius="true"
       only_selected="false"
       hide_knots="false" />
    <inkscape:path-effect
       hide_knots="false"
       only_selected="false"
       apply_with_radius="true"
       apply_no_radius="true"
       use_knot_distance="true"
       flexible="false"
       chamfer_steps="1"
       radius="4"
       mode="F"
       method="auto"
       unit="mm"
       satellites_param="F,0,0,1,0,4,0,1 @ F,0,0,1,0,4,0,1 @ F,0,0,1,0,4,0,1 @ F,0,0,1,0,4,0,1"
       lpeversion="1"
       is_visible="true"
       id="path-effect154"
       effect="fillet_chamfer" />
  </defs>
  <sodipodi:namedview
     guidetolerance="10"
     gridtolerance="10"
     objecttolerance="10"
     inkscape:lockguides="false"
     inkscape:document-rotation="0"
     inkscape:snap-nodes="false"
     inkscape:snap-bbox-midpoints="true"
     inkscape:window-maximized="1"
     inkscape:window-y="-11"
     inkscape:window-x="-11"
     inkscape:window-height="1046"
     inkscape:window-width="1780"
     inkscape:snap-bbox-edge-midpoints="false"
     inkscape:bbox-nodes="false"
     inkscape:snap-page="true"
     inkscape:snap-bbox="true"
     units="mm"
     showgrid="true"
     inkscape:current-layer="layer1"
     inkscape:document-units="mm"
     inkscape:cy="253.48682"
     inkscape:cx="214.51114"
     inkscape:zoom="1.4142136"
     inkscape:pageshadow="2"
     inkscape:pageopacity="0.0"
     borderopacity="1.0"
     bordercolor="#666666"
     pagecolor="#ffffff"
     id="base">
    <inkscape:grid
       empspacing="4"
       empopacity="0.25098039"
       empcolor="#71530f"
       spacingy="2.5400004"
       spacingx="2.5400004"
       opacity="0.53333333"
       color="#ffd984"
       units="mm"
       id="grid86"
       type="xygrid" />
  </sodipodi:namedview>
  <metadata
     id="metadata5">
    <rdf:RDF>
      <cc:Work
         rdf:about="">
        <dc:format>image/svg+xml</dc:format>
        <dc:type
           rdf:resource="http://purl.org/dc/dcmitype/StillImage" />
        <dc:title />
        <dc:creator>
          <cc:Agent>
            <dc:title>Firo Lightfog</dc:title>
          </cc:Agent>
        </dc:creator>
      </cc:Work>
    </rdf:RDF>
  </metadata>
  <g
     transform="translate(0,-168.49998)"
     id="layer1"
     inkscape:groupmode="layer"
     inkscape:label="Layer 1"
     style="display:inline">
    <rect
       y="168.57021"
       x="-0.071812481"
       height="128.31477"
       width="30.623631"
       id="rect420"
       style="display:inline;opacity:1;vector-effect:none;fill:#cccccc;fill-opacity:1;fill-rule:evenodd;stroke:none;stroke-width:0.650417;stroke-linecap:butt;stroke-linejoin:miter;stroke-miterlimit:4;stroke-dasharray:none;stroke-dashoffset:0;stroke-opacity:1;paint-order:normal" />
    <text
       id="text59"
       y="277.43234"
       x="1.1693041"
       style="font-size:10.5833px;line-height:1.25;font-family:'Eras Bold ITC';-inkscape-font-specification:'Eras Bold ITC';stroke-width:0.264583"
       xml:space="preserve"><tspan
         style="font-size:2.82222px;fill:#ffff00;stroke-width:0.264583"
         y="277.43234"
         x="1.1693041"
         id="tspan57"
         sodipodi:role="line" /></text>
    <text
       id="text127"
       y="172.05467"
       x="-78.577248"
       style="font-size:10.5833px;line-height:1.25;font-family:'Eras Bold ITC';-inkscape-font-specification:'Eras Bold ITC';stroke-width:0.264583"
       xml:space="preserve"><tspan
         style="stroke-width:0.264583"
         y="172.05467"
         x="-78.577248"
         id="tspan125"
         sodipodi:role="line" /></text>
    <text
       id="text131"
       y="186.46049"
       x="-89.989647"
       style="font-size:10.5833px;line-height:1.25;font-family:'Eras Bold ITC';-inkscape-font-specification:'Eras Bold ITC';stroke-width:0.264583"
       xml:space="preserve"><tspan
         style="stroke-width:0.264583"
         y="186.46049"
         x="-89.989647"
         id="tspan129"
         sodipodi:role="line" /></text>
    <path
       d="m 16.790685,267.03491 h 4.622804 a 4,4 45 0 1 4,4 v 8.34147 a 4,4 135 0 1 -4,4 h -4.622804 a 4,4 45 0 1 -4,-4 v -8.34147 a 4,4 135 0 1 4,-4 z"
       y="267.03491"
       x="12.790685"
       height="16.341467"
       width="12.622805"
       id="rect48-1"
       style="display:inline;fill:#de8787;stroke-width:0.293169"
       inkscape:path-effect="#path-effect77"
       sodipodi:type="rect"
       transform="matrix(1,0,0.01365494,0.99990677,0,0)" />
    <g
       aria-label="OUT"
       id="text63-3"
       style="font-size:10.5833px;line-height:1.25;font-family:'Eras Bold ITC';-inkscape-font-specification:'Eras Bold ITC';display:inline;fill:#000000;stroke-width:0.264583"
       transform="translate(17.780001,-7.6715718)">
      <path
         d="m 3.0694446,276.74367 q 0.2204859,0 0.4244354,0.0593 0.2039495,0.0593 0.3569116,0.19017 0.1529622,0.12953 0.2287542,0.29903 0.075792,0.1695 0.075792,0.38999 0,0.23151 -0.08406,0.42581 -0.082682,0.19292 -0.2397785,0.32797 -0.1570962,0.13505 -0.3748261,0.19844 -0.2177299,0.062 -0.4533742,0.062 -0.2328883,0 -0.4464841,-0.0606 -0.2135957,-0.062 -0.37207,-0.19844 -0.1570962,-0.1378 -0.223242,-0.30592 -0.066146,-0.16812 -0.066146,-0.37345 0,-0.30179 0.1391818,-0.52917 0.1405598,-0.22875 0.4147892,-0.35691 0.2756074,-0.12816 0.6201167,-0.12816 z m -0.024805,0.41479 q -0.1584743,0 -0.2866317,0.0786 -0.1281575,0.0772 -0.1970593,0.21635 -0.068902,0.13781 -0.068902,0.29628 0,0.14607 0.062012,0.26734 0.06339,0.12127 0.1915471,0.19017 0.1281575,0.0675 0.2714734,0.0675 0.1529621,0 0.2797415,-0.0758 0.1281575,-0.0772 0.1943032,-0.21497 0.067524,-0.13919 0.067524,-0.29077 0,-0.14745 -0.062012,-0.27147 -0.062012,-0.1254 -0.1819009,-0.19431 -0.1198892,-0.0689 -0.2700953,-0.0689 z"
         style="font-size:2.82222px;fill:#000000;stroke-width:0.264583"
         id="path65-7" />
      <path
         d="m 4.461262,276.7795 q 0.2149738,0.003 0.3031682,0.003 0.110243,0 0.2935219,-0.003 l -0.041341,0.58567 q -0.012402,0.16536 -0.019292,0.31006 -0.00551,0.14469 -0.00551,0.19981 0,0.10473 0.015158,0.17501 0.015158,0.0703 0.055122,0.11989 0.039963,0.0482 0.110243,0.073 0.071658,0.0248 0.148828,0.0248 0.066146,0 0.1240233,-0.0152 0.045475,-0.0124 0.081304,-0.0344 0.031695,-0.0207 0.055122,-0.0482 0.028939,-0.0331 0.050987,-0.0827 0.022049,-0.0469 0.033073,-0.12127 0.012402,-0.0758 0.033073,-0.34451 0.017914,-0.22875 0.027561,-0.41892 0.00827,-0.18466 0.015158,-0.42306 0.2080836,0.003 0.3279729,0.003 l 0.2797415,-0.003 -0.067524,0.97841 q -0.00138,0.0276 -0.00138,0.0455 -0.00551,0.28664 -0.035829,0.40515 -0.028939,0.11713 -0.097841,0.20395 -0.068902,0.0868 -0.2011934,0.15709 -0.1322915,0.0689 -0.3004121,0.0978 -0.1681205,0.0289 -0.3403752,0.0289 -0.1543401,0 -0.297656,-0.022 -0.1322915,-0.0221 -0.2384004,-0.0634 -0.1061089,-0.0427 -0.184657,-0.0992 -0.071658,-0.0524 -0.110243,-0.1061 -0.038585,-0.0551 -0.060634,-0.13092 -0.024805,-0.0854 -0.024805,-0.18328 0,-0.0331 0.00276,-0.0992 0.00276,-0.0675 0.012402,-0.19292 l 0.017914,-0.22049 q 0.00689,-0.0868 0.015158,-0.25493 z"
         style="font-size:2.82222px;fill:#000000;stroke-width:0.264583"
         id="path67-2" />
      <path
         d="m 6.9913383,278.66052 q 0.068902,-0.66972 0.082682,-1.4745 l -0.5870439,0.0152 0.00689,-0.15296 q 0.00551,-0.12265 0.00827,-0.26872 0.3913626,0.003 0.9122606,0.003 l 0.3403752,-10e-4 h 0.3307289 l 0.1791449,-0.001 -0.00827,0.13367 q -0.00551,0.10749 -0.00827,0.17777 -0.00138,0.0703 -0.00138,0.10611 -0.2949,-0.0138 -0.4864471,-0.0138 h -0.096463 q -0.020671,0.24391 -0.031695,0.45061 -0.015158,0.29628 -0.023427,0.57602 -0.00827,0.27837 -0.00827,0.45062 -0.2259981,-0.003 -0.2921439,-0.003 -0.059256,0 -0.3169486,0.003 z"
         style="font-size:2.82222px;fill:#000000;stroke-width:0.264583"
         id="path69-7" />
    </g>
    <g
       style="font-weight:bold;font-size:2.82223px;line-height:1.25;font-family:Tahoma;-inkscape-font-specification:'Tahoma, Bold';fill:#000000;stroke-width:0.264583"
       id="text223"
       aria-label="CLK">
      <path
         id="path309"
         style="fill:#000000;stroke-width:0.264583"
         d="m 5.9153633,288.94591 q -0.4616441,0 -0.7331183,-0.27837 -0.2714743,-0.27974 -0.2714743,-0.78548 0,-0.48783 0.2714743,-0.77722 0.2728523,-0.29076 0.7344964,-0.29076 0.1226457,0 0.2204867,0.0138 0.097841,0.0138 0.1874137,0.0386 0.07028,0.0207 0.1529627,0.0565 0.082682,0.0358 0.1336701,0.062 v 0.48921 H 6.558909 q -0.037207,-0.0331 -0.093707,-0.0786 -0.0565,-0.0468 -0.1281579,-0.0909 -0.071658,-0.0441 -0.1584748,-0.0744 -0.085439,-0.0317 -0.1791455,-0.0317 -0.1116214,0 -0.2053283,0.0358 -0.092329,0.0344 -0.1763893,0.12127 -0.07717,0.0785 -0.1267799,0.21222 -0.048231,0.13367 -0.048231,0.31557 0,0.19155 0.050988,0.32246 0.050987,0.12954 0.13367,0.20946 0.079927,0.0772 0.1777675,0.11162 0.099219,0.0344 0.19706,0.0344 0.1019751,0 0.1943039,-0.0331 0.092329,-0.0344 0.1557188,-0.0758 0.068902,-0.0427 0.1212677,-0.0868 0.052366,-0.0441 0.090951,-0.0786 h 0.046854 v 0.48232 q -0.0565,0.0262 -0.130914,0.0606 -0.074414,0.0331 -0.1529627,0.0565 -0.096463,0.0289 -0.1805235,0.0441 -0.084061,0.0152 -0.2315111,0.0152 z" />
      <path
         id="path311"
         style="fill:#000000;stroke-width:0.264583"
         d="M 8.2855957,288.90594 H 6.9158219 v -2.0519 h 0.5153877 v 1.66054 h 0.8543861 z" />
      <path
         id="path313"
         style="fill:#000000;stroke-width:0.264583"
         d="M 10.329232,288.90594 H 9.7063569 l -0.559485,-0.83371 -0.1005971,0.14056 v 0.69315 H 8.5308871 v -2.0519 h 0.5153877 v 0.91089 l 0.655948,-0.91089 h 0.5966922 l -0.7317403,0.95223 z" />
    </g>
    <g
       style="font-weight:bold;font-size:2.82223px;line-height:1.25;font-family:Tahoma;-inkscape-font-specification:'Tahoma, Bold';fill:#000000;stroke-width:0.264583"
       id="text227"
       aria-label="RST"
       transform="translate(-3.3214078e-7,-7.6197948)">
      <path
         id="path302"
         style="fill:#000000;stroke-width:0.264583"
         d="M 6.8414074,271.12595 H 6.2130203 L 5.6411328,270.37354 H 5.4564752 v 0.75241 H 4.9438436 v -2.05191 h 0.8254471 q 0.1708773,0 0.2976571,0.022 0.1267799,0.0207 0.2342672,0.0882 0.1102433,0.0703 0.1750113,0.17915 0.064768,0.10749 0.064768,0.27423 0,0.23565 -0.1061093,0.3831 -0.1061092,0.14607 -0.2838766,0.23289 z m -0.8295813,-1.42352 q 0,-0.0772 -0.030317,-0.13229 -0.028939,-0.0565 -0.097841,-0.0868 -0.048231,-0.0207 -0.1074873,-0.0262 -0.059256,-0.006 -0.1474505,-0.006 H 5.4564752 v 0.5526 h 0.1474505 q 0.1074873,0 0.1819015,-0.0124 0.075792,-0.0138 0.128158,-0.0565 0.049609,-0.0386 0.073036,-0.0923 0.024805,-0.0537 0.024805,-0.14056 z" />
      <path
         id="path304"
         style="fill:#000000;stroke-width:0.264583"
         d="m 7.6282695,271.16315 q -0.2356452,0 -0.4147906,-0.0455 -0.1777675,-0.0455 -0.3307301,-0.113 v -0.48783 h 0.046853 q 0.1543407,0.13092 0.3403764,0.2012 0.1860357,0.0703 0.361047,0.0703 0.044097,0 0.1157555,-0.01 0.073036,-0.01 0.1171336,-0.0303 0.053744,-0.0234 0.090951,-0.0648 0.037207,-0.0427 0.037207,-0.11162 0,-0.0772 -0.060634,-0.1254 -0.060634,-0.0482 -0.1446945,-0.0703 -0.1047311,-0.0276 -0.2246208,-0.0524 -0.1185116,-0.0248 -0.2218648,-0.0606 -0.2384012,-0.0841 -0.3417544,-0.226 -0.1033532,-0.14194 -0.1033532,-0.35553 0,-0.28801 0.2439135,-0.46578 0.2439134,-0.17915 0.6090946,-0.17915 0.1832796,0 0.3638031,0.0372 0.1819015,0.0372 0.3252179,0.1006 v 0.46853 h -0.045475 q -0.1143775,-0.0978 -0.2797425,-0.16536 -0.163987,-0.0675 -0.3376203,-0.0675 -0.067524,0 -0.1212677,0.01 -0.053744,0.01 -0.1129995,0.0372 -0.048231,0.0221 -0.084061,0.0661 -0.034451,0.0427 -0.034451,0.0965 0,0.0785 0.055122,0.1254 0.0565,0.0455 0.2163526,0.0827 0.1033531,0.0234 0.198438,0.0455 0.096463,0.022 0.2053283,0.0606 0.2135965,0.0772 0.3169497,0.20808 0.1047312,0.12954 0.1047312,0.34314 0,0.30592 -0.2411574,0.49196 -0.2397793,0.18603 -0.6490578,0.18603 z" />
      <path
         id="path306"
         style="fill:#000000;stroke-width:0.264583"
         d="m 9.1744328,271.12595 v -1.66054 H 8.5680943 v -0.39137 h 1.7280647 v 0.39137 H 9.6898205 v 1.66054 z" />
    </g>
    <g
       style="font-weight:bold;font-size:2.82223px;line-height:1.25;font-family:Tahoma;-inkscape-font-specification:'Tahoma, Bold';fill:#000000;stroke-width:0.264583"
       id="text231"
       aria-label="1"
       transform="translate(-8.2504946e-7,15.240003)">
      <path
         id="path316"
         style="fill:#000000;stroke-width:0.264583"
         d="m 28.618002,184.76869 h -1.355994 v -0.35829 h 0.432705 v -1.08452 h -0.432705 v -0.33486 q 0.09508,0 0.188792,-0.0124 0.09371,-0.0124 0.150206,-0.04 0.06615,-0.0331 0.101976,-0.0882 0.03721,-0.0565 0.04272,-0.13918 h 0.449242 v 1.69912 h 0.423059 z" />
    </g>
    <g
       style="font-weight:bold;font-size:3.12113px;line-height:1.25;font-family:Tahoma;-inkscape-font-specification:'Tahoma, Bold';fill:#000000;stroke-width:0.292605"
       id="text235"
       transform="matrix(1.1059091,0,0,0.90423343,-8.2504946e-7,15.240003)"
       aria-label="2">
      <path
         id="path319"
         style="fill:#000000;stroke-width:0.292605"
         d="m 26.097909,221.21048 h -1.667244 v -0.37033 q 0.211834,-0.16764 0.379473,-0.31699 0.169163,-0.14935 0.297178,-0.28346 0.166115,-0.17526 0.24079,-0.30785 0.07468,-0.13258 0.07468,-0.27279 0,-0.1585 -0.09449,-0.24232 -0.09449,-0.0853 -0.26365,-0.0853 -0.08687,0 -0.16459,0.0213 -0.0762,0.0213 -0.155447,0.0549 -0.07772,0.035 -0.132587,0.0716 -0.05486,0.0366 -0.0823,0.0549 h -0.0442 v -0.49529 q 0.09601,-0.0457 0.300226,-0.093 0.204215,-0.0488 0.39319,-0.0488 0.403857,0 0.611119,0.17983 0.208787,0.17984 0.208787,0.50597 0,0.20117 -0.09449,0.39471 -0.09449,0.19203 -0.313941,0.413 -0.137159,0.13564 -0.266698,0.24232 -0.12954,0.10515 -0.187451,0.14935 h 0.961637 z" />
    </g>
    <g
       style="font-weight:bold;font-size:2.82223px;line-height:1.25;font-family:Tahoma;-inkscape-font-specification:'Tahoma, Bold';fill:#000000;stroke-width:0.264583"
       id="text239"
       aria-label="3"
       transform="translate(-8.2504946e-7,15.240003)">
      <path
         id="path322"
         style="fill:#000000;stroke-width:0.264583"
         d="m 28.701372,214.62444 q 0,0.15021 -0.0565,0.27423 -0.05512,0.12403 -0.162609,0.21085 -0.108865,0.0868 -0.256315,0.13367 -0.146073,0.0455 -0.356913,0.0455 -0.23978,0 -0.412035,-0.04 -0.170877,-0.04 -0.278364,-0.0896 v -0.4451 h 0.04961 q 0.113,0.0717 0.264584,0.12402 0.152963,0.0524 0.278365,0.0524 0.07441,0 0.161231,-0.0124 0.08819,-0.0138 0.14745,-0.0579 0.04685,-0.0344 0.07441,-0.0841 0.02894,-0.051 0.02894,-0.14332 0,-0.0909 -0.03996,-0.13918 -0.03996,-0.0496 -0.106109,-0.0717 -0.06615,-0.0234 -0.158475,-0.0262 -0.09233,-0.003 -0.162609,-0.003 h -0.08819 v -0.36105 h 0.0813 q 0.09371,0 0.172255,-0.008 0.07855,-0.008 0.13367,-0.0331 0.05512,-0.0262 0.08544,-0.073 0.03169,-0.0469 0.03169,-0.12678 0,-0.062 -0.02894,-0.1006 -0.02894,-0.04 -0.07166,-0.062 -0.04961,-0.0248 -0.115756,-0.0331 -0.06615,-0.008 -0.112999,-0.008 -0.07579,0 -0.154341,0.0179 -0.07855,0.0179 -0.152963,0.0455 -0.05788,0.022 -0.121267,0.0579 -0.06339,0.0344 -0.09371,0.0524 h -0.04272 v -0.4396 q 0.106109,-0.0455 0.285254,-0.0868 0.180524,-0.0427 0.367937,-0.0427 0.18328,0 0.31695,0.0317 0.135048,0.0317 0.230133,0.0923 0.104731,0.0648 0.157097,0.16537 0.05237,0.0992 0.05237,0.22462 0,0.17501 -0.101976,0.3073 -0.100597,0.13091 -0.265962,0.1695 v 0.0193 q 0.07304,0.011 0.141939,0.0372 0.07028,0.0262 0.136426,0.0854 0.06201,0.0537 0.101975,0.13918 0.04134,0.0841 0.04134,0.20119 z" />
    </g>
    <g
       style="font-weight:bold;font-size:2.82223px;line-height:1.25;font-family:Tahoma;-inkscape-font-specification:'Tahoma, Bold';fill:#000000;stroke-width:0.264583"
       id="text243"
       aria-label="4"
       transform="translate(-8.2504946e-7,15.240003)">
      <path
         id="path325"
         style="fill:#000000;stroke-width:0.264583"
         d="m 28.778543,230.005 h -0.276987 v 0.4837 h -0.497473 v -0.4837 h -0.902618 v -0.38309 l 0.886081,-1.19063 h 0.51401 v 1.20441 h 0.276987 z m -0.77446,-0.36931 v -0.69867 l -0.519522,0.69867 z" />
    </g>
    <g
       style="font-weight:bold;font-size:2.82223px;line-height:1.25;font-family:Tahoma;-inkscape-font-specification:'Tahoma, Bold';fill:#000000;stroke-width:0.264583"
       id="text247"
       aria-label="5"
       transform="translate(-8.2504946e-7,15.240003)">
      <path
         id="path328"
         style="fill:#000000;stroke-width:0.264583"
         d="m 28.691726,245.01006 q 0,0.15985 -0.05512,0.29628 -0.05374,0.13642 -0.162609,0.23564 -0.107487,0.0978 -0.256316,0.15159 -0.14745,0.0537 -0.363803,0.0537 -0.228755,-10e-4 -0.39412,-0.04 -0.163987,-0.0372 -0.271474,-0.0841 v -0.44787 h 0.04685 q 0.03859,0.0221 0.08682,0.0496 0.04823,0.0276 0.12678,0.0579 0.07304,0.0289 0.14745,0.0482 0.07579,0.0179 0.168121,0.0179 0.07993,0 0.172256,-0.0193 0.09233,-0.0207 0.148828,-0.073 0.04134,-0.0413 0.06477,-0.0923 0.02343,-0.051 0.02343,-0.13643 0,-0.0717 -0.03032,-0.12264 -0.02894,-0.0524 -0.07717,-0.0841 -0.07028,-0.0469 -0.1695,-0.0592 -0.09922,-0.0138 -0.170877,-0.0138 -0.112999,0 -0.220486,0.0179 -0.10611,0.0179 -0.184658,0.0386 h -0.0441 v -1.15204 h 1.358749 v 0.38723 h -0.872301 v 0.34175 q 0.04134,-0.003 0.09784,-0.004 0.05788,-0.003 0.08957,-0.003 0.147451,0 0.272852,0.0303 0.125402,0.0289 0.221865,0.0909 0.117134,0.0758 0.181902,0.20395 0.06477,0.12678 0.06477,0.31006 z" />
    </g>
    <g
       style="font-weight:bold;font-size:6.35px;line-height:1.25;font-family:Tahoma;-inkscape-font-specification:'Tahoma, Bold';display:inline;fill:#000000;stroke-width:0.264583"
       id="text104"
       aria-label="b"
       transform="translate(5.291667,163.41998)">
      <path
         id="path197"
         style="font-style:normal;font-variant:normal;font-weight:bold;font-stretch:normal;font-size:14.1111px;font-family:'Wingdings 2';-inkscape-font-specification:'Wingdings 2 Bold';fill:#000000;stroke-width:0.264583"
         d="m 3.2732611,14.038632 v 0.682129 q 0.3927406,0 0.592556,0.199815 0.2067056,0.199815 0.3927406,0.764811 l 0.110243,0.344509 q 0.37207,1.143771 1.2195628,1.50206 -0.7854811,0.151584 -1.2540138,0.647678 -0.4616424,0.489203 -0.4616424,1.164441 0,0.943956 0.7096891,1.564072 0.7096891,0.613227 1.7983385,0.613227 1.6536445,0 2.5562588,-1.419378 L 8.4064495,19.654133 Q 7.8207837,20.28114 7.200667,20.28114 q -0.5098738,0 -0.8750536,-0.330729 -0.3651799,-0.337619 -0.3651799,-0.799261 0,-0.385851 0.2824977,-0.668348 0.2893878,-0.282498 0.6752382,-0.282498 0.6959087,0 1.9499225,0.985297 l 0.4203013,0.330729 q 2.0463848,1.612303 3.9067348,1.612303 1.612304,0 2.728514,-1.061088 1.1231,-1.061089 1.1231,-2.58382 0,-1.543402 -1.157551,-2.494247 -1.157551,-0.950846 -3.038572,-0.950846 h -0.227376 v 0.682129 q 1.11621,0.07579 1.770778,0.77859 0.654567,0.695909 0.654567,1.812119 0,1.10243 -0.826822,1.887911 -0.826822,0.778591 -1.998154,0.778591 -1.12999,0 -2.011934,-0.689018 -0.8819437,-0.689019 -0.8819437,-1.570963 0,-0.420301 0.2687173,-0.709689 0.2756074,-0.289388 0.6752384,-0.289388 0.399631,0 0.599446,0.220486 0.206705,0.213596 0.206705,0.654568 0,0.268717 -0.151584,0.633897 l 0.620117,0.282498 q 0.413411,-0.978407 0.413411,-1.639865 0,-0.813041 -0.530544,-1.391817 -0.523654,-0.585666 -1.267794,-0.585666 -0.475423,0 -0.8681636,0.234266 -0.3927406,0.234267 -0.7027989,0.70969 Q 8.1928537,14.837894 7.3246903,14.438263 6.4634171,14.038632 4.7064198,14.038632 Z m 4.9609337,3.362411 Q 7.2213375,17.208118 6.3807349,15.712947 L 6.2636017,15.513132 Q 5.8984219,14.865454 5.381658,14.665639 q 2.6320509,0 2.8525368,2.735404 z" />
    </g>
    <g
       aria-label="SEQP5"
       id="text99"
       style="font-weight:bold;font-size:4.23333px;line-height:1.25;font-family:Tahoma;-inkscape-font-specification:'Tahoma, Bold';letter-spacing:0px;fill:#000000;stroke-width:0.264583">
      <path
         d="m 9.518393,294.14959 q -0.3534665,0 -0.6221838,-0.0682 -0.2666501,-0.0682 -0.4960933,-0.1695 v -0.73174 h 0.07028 q 0.2315102,0.19637 0.5105627,0.30179 0.2790525,0.10542 0.5415686,0.10542 0.066146,0 0.1736326,-0.0145 0.109554,-0.0145 0.1756998,-0.0455 0.080615,-0.0351 0.1364254,-0.0971 0.05581,-0.0641 0.05581,-0.16744 0,-0.11575 -0.090951,-0.1881 -0.09095,-0.0723 -0.2170409,-0.10542 -0.1570962,-0.0413 -0.33693,-0.0785 -0.1777668,-0.0372 -0.332796,-0.091 -0.3576006,-0.12609 -0.5126297,-0.33899 -0.1550292,-0.21291 -0.1550292,-0.5333 0,-0.43202 0.3658688,-0.69867 0.3658689,-0.26872 0.9136386,-0.26872 0.2749184,0 0.5457024,0.0558 0.272852,0.0558 0.487826,0.1509 v 0.7028 h -0.06821 q -0.171566,-0.14676 -0.419613,-0.24805 -0.2459794,-0.10128 -0.5064284,-0.10128 -0.1012857,0 -0.1819008,0.0145 -0.080615,0.0145 -0.1694986,0.0558 -0.072347,0.0331 -0.1260904,0.0992 -0.051676,0.0641 -0.051676,0.1447 0,0.11782 0.082682,0.1881 0.084749,0.0682 0.3245278,0.12402 0.1550291,0.0351 0.297656,0.0682 0.1446934,0.0331 0.3079914,0.091 0.320393,0.11575 0.475423,0.31212 0.157096,0.19431 0.157096,0.5147 0,0.45889 -0.361735,0.73794 -0.359668,0.27905 -0.973583,0.27905 z"
         style="fill:#000000;stroke-width:0.264583"
         id="path80" />
      <path
         d="m 11.246451,294.09378 v -3.07785 h 2.081525 v 0.58705 h -1.31258 v 0.5395 h 1.209228 v 0.58704 h -1.209228 v 0.77722 h 1.31258 v 0.58704 z"
         style="fill:#000000;stroke-width:0.264583"
         id="path82" />
      <path
         d="m 16.649734,294.9082 q -0.124023,0.031 -0.250113,0.0455 -0.124024,0.0145 -0.390674,0.0145 -0.243912,0 -0.415478,-0.062 -0.169498,-0.0599 -0.283187,-0.17156 -0.113688,-0.10956 -0.171565,-0.26045 -0.05581,-0.1509 -0.06408,-0.32453 -0.653189,-0.0289 -1.029394,-0.45268 -0.374137,-0.42375 -0.374137,-1.14102 0,-0.74207 0.396875,-1.17202 0.396875,-0.43201 1.093472,-0.43201 0.694531,0 1.093473,0.42994 0.398942,0.42788 0.398942,1.17409 0,0.54364 -0.227377,0.93431 -0.225309,0.38861 -0.63872,0.5519 0.0041,0.22531 0.09922,0.31006 0.09715,0.0868 0.338997,0.0868 0.09302,0 0.19637,-0.0289 0.10542,-0.0269 0.150895,-0.0517 h 0.07648 z m -1.000454,-1.57303 q 0.09922,-0.13436 0.152962,-0.31212 0.05374,-0.17984 0.05374,-0.46923 0,-0.27491 -0.05788,-0.46715 -0.05581,-0.1943 -0.150895,-0.31833 -0.09922,-0.12609 -0.22531,-0.17983 -0.124023,-0.0558 -0.258381,-0.0558 -0.142627,0 -0.258382,0.0517 -0.115756,0.0496 -0.223242,0.17983 -0.09509,0.11989 -0.15503,0.31833 -0.05788,0.19843 -0.05788,0.47335 0,0.28319 0.05581,0.47129 0.05581,0.18603 0.152962,0.31213 0.09922,0.12815 0.22531,0.18396 0.12609,0.0537 0.260449,0.0537 0.136425,0 0.264583,-0.0579 0.128157,-0.06 0.221175,-0.18397 z"
         style="fill:#000000;stroke-width:0.264583"
         id="path84" />
      <path
         d="m 19.477467,291.98745 q 0,0.21497 -0.06821,0.40928 -0.06821,0.1943 -0.19637,0.32453 -0.07855,0.0806 -0.173633,0.14882 -0.09302,0.0682 -0.206705,0.11576 -0.113689,0.0475 -0.248047,0.0744 -0.132292,0.0269 -0.297656,0.0269 H 17.8817 v 1.00666 h -0.773079 v -3.07785 h 1.194758 q 0.26665,0 0.458887,0.0496 0.194303,0.0476 0.351399,0.15297 0.173633,0.11575 0.268717,0.31005 0.09509,0.19224 0.09509,0.45889 z m -0.793749,0.0186 q 0,-0.13022 -0.06201,-0.22324 -0.06201,-0.0951 -0.148828,-0.13022 -0.109554,-0.0475 -0.21084,-0.0537 -0.09922,-0.008 -0.270784,-0.008 H 17.8817 v 0.9219 h 0.05374 q 0.109554,0 0.206706,-0.002 0.09715,-0.002 0.169499,-0.0145 0.06201,-0.0103 0.130224,-0.0393 0.07028,-0.031 0.107487,-0.0682 0.07855,-0.0765 0.10542,-0.15916 0.02894,-0.0827 0.02894,-0.22325 z"
         style="fill:#000000;stroke-width:0.264583"
         id="path86" />
      <path
         d="m 22.079889,293.05198 q 0,0.23978 -0.08268,0.44442 -0.08061,0.20464 -0.243913,0.35347 -0.16123,0.14676 -0.384472,0.22737 -0.221175,0.0806 -0.545703,0.0806 -0.343131,-0.002 -0.591177,-0.06 -0.24598,-0.0558 -0.40721,-0.12609 v -0.67179 h 0.07028 q 0.05788,0.0331 0.130224,0.0744 0.07235,0.0413 0.190169,0.0868 0.109554,0.0434 0.221175,0.0724 0.113688,0.0269 0.252181,0.0269 0.119889,0 0.258382,-0.0289 0.138493,-0.031 0.223242,-0.10955 0.06201,-0.062 0.09715,-0.1385 0.03514,-0.0765 0.03514,-0.20463 0,-0.10749 -0.04548,-0.18397 -0.04341,-0.0785 -0.115755,-0.12609 -0.10542,-0.0703 -0.254248,-0.0889 -0.148828,-0.0207 -0.256315,-0.0207 -0.169498,0 -0.330729,0.0269 -0.159163,0.0269 -0.276985,0.0579 h -0.06615 v -1.72806 h 2.038117 v 0.58085 h -1.308446 v 0.51263 q 0.06201,-0.004 0.146761,-0.006 0.08682,-0.004 0.134358,-0.004 0.221175,0 0.409277,0.0455 0.188102,0.0434 0.332796,0.13642 0.1757,0.11369 0.272852,0.30593 0.09715,0.19017 0.09715,0.46508 z"
         style="fill:#000000;stroke-width:0.264583"
         id="path88" />
    </g>
    <text
       xml:space="preserve"
       style="font-weight:bold;font-size:4.23333px;line-height:1.25;font-family:Tahoma;-inkscape-font-specification:'Tahoma, Bold';letter-spacing:0px;stroke-width:0.264583"
       x="-15.99608"
       y="291.69788"
       id="text103"><tspan
         sodipodi:role="line"
         id="tspan101"
         x="-15.99608"
         y="291.69788"
         style="stroke-width:0.264583" /></text>
  </g>
  <g
     style="display:none"
     inkscape:label="components"
     id="layer2"
     inkscape:groupmode="layer">
    <circle
       r="4"
       cy="25.400003"
       cx="22.860004"
       id="circle1"
       style="display:inline;opacity:1;vector-effect:none;fill:#00ff00;fill-opacity:1;fill-rule:evenodd;stroke:none;stroke-width:1;stroke-linecap:butt;stroke-linejoin:miter;stroke-miterlimit:4;stroke-dasharray:none;stroke-dashoffset:0;stroke-opacity:1;paint-order:normal"
       inkscape:label="monoin1" />
    <circle
       r="0.035242248"
       cy="-48.154167"
       cx="-43.920834"
       style="fill:#000000;stroke:#000000;stroke-width:0.264583"
       id="path30" />
    <circle
       r="0.0088105621"
       cy="-2.5135417"
       cx="-32.279167"
       style="fill:#000000;stroke:#000000;stroke-width:0.264583"
       id="path32" />
    <circle
       r="0.0088105621"
       cy="0.1984375"
       cx="-17.991667"
       style="fill:#000000;stroke:#000000;stroke-width:0.264583"
       id="path34" />
    <circle
       r="0.0088105621"
       cy="2.9104166"
       cx="-25.069271"
       style="fill:#000000;stroke:#000000;stroke-width:0.264583"
       id="path36" />
    <text
       id="text42"
       y="11.90625"
       x="-38.695312"
       style="font-size:10.5833px;line-height:1.25;font-family:'Eras Bold ITC';-inkscape-font-specification:'Eras Bold ITC';stroke-width:0.264583"
       xml:space="preserve"><tspan
         style="font-style:normal;font-variant:normal;font-weight:bold;font-stretch:normal;font-size:3.52778px;font-family:Garamond;-inkscape-font-specification:'Garamond Bold';stroke-width:0.264583"
         y="11.90625"
         x="-38.695312"
         id="tspan40"
         sodipodi:role="line" /></text>
    <text
       id="text78"
       y="16.668749"
       x="-45.111458"
       style="font-size:10.5833px;line-height:1.25;font-family:'Eras Bold ITC';-inkscape-font-specification:'Eras Bold ITC';stroke-width:0.264583"
       xml:space="preserve"><tspan
         style="stroke-width:0.264583"
         y="16.668749"
         x="-45.111458"
         id="tspan76"
         sodipodi:role="line" /></text>
    <circle
       r="4"
       cy="71.12001"
       cx="22.860004"
       id="circle4"
       style="display:inline;opacity:1;vector-effect:none;fill:#00ff00;fill-opacity:1;fill-rule:evenodd;stroke:none;stroke-width:1;stroke-linecap:butt;stroke-linejoin:miter;stroke-miterlimit:4;stroke-dasharray:none;stroke-dashoffset:0;stroke-opacity:1;paint-order:normal"
       inkscape:label="monoin4" />
    <circle
       r="4"
       cy="86.360016"
       cx="22.860004"
       id="circle5"
       style="display:inline;opacity:1;vector-effect:none;fill:#00ff00;fill-opacity:1;fill-rule:evenodd;stroke:none;stroke-width:1;stroke-linecap:butt;stroke-linejoin:miter;stroke-miterlimit:4;stroke-dasharray:none;stroke-dashoffset:0;stroke-opacity:1;paint-order:normal"
       inkscape:label="monoin5" />
    <circle
       r="4"
       cy="101.60001"
       cx="7.6200013"
       id="circle7"
       style="display:inline;opacity:1;vector-effect:none;fill:#00ff00;fill-opacity:1;fill-rule:evenodd;stroke:none;stroke-width:1;stroke-linecap:butt;stroke-linejoin:miter;stroke-miterlimit:4;stroke-dasharray:none;stroke-dashoffset:0;stroke-opacity:1;paint-order:normal"
       inkscape:label="monoin7" />
    <circle
       r="4"
       cy="111.76002"
       cx="7.6200013"
       id="circle8"
       style="display:inline;opacity:1;vector-effect:none;fill:#00ff00;fill-opacity:1;fill-rule:evenodd;stroke:none;stroke-width:1;stroke-linecap:butt;stroke-linejoin:miter;stroke-miterlimit:4;stroke-dasharray:none;stroke-dashoffset:0;stroke-opacity:1;paint-order:normal"
       inkscape:label="monoin8" />
    <circle
       r="4"
       cy="55.880009"
       cx="22.860004"
       id="circle3"
       style="display:inline;opacity:1;vector-effect:none;fill:#00ff00;fill-opacity:1;fill-rule:evenodd;stroke:none;stroke-width:1;stroke-linecap:butt;stroke-linejoin:miter;stroke-miterlimit:4;stroke-dasharray:none;stroke-dashoffset:0;stroke-opacity:1;paint-order:normal"
       inkscape:label="monoin3" />
    <circle
       r="4"
       cy="40.640007"
       cx="22.860004"
       id="circle2"
       style="display:inline;opacity:1;vector-effect:none;fill:#00ff00;fill-opacity:1;fill-rule:evenodd;stroke:none;stroke-width:1;stroke-linecap:butt;stroke-linejoin:miter;stroke-miterlimit:4;stroke-dasharray:none;stroke-dashoffset:0;stroke-opacity:1;paint-order:normal"
       inkscape:label="monoin2" />
    <ellipse
       style="fill:#ff0000;stroke-width:0.264583"
       id="path1"
       cx="7.6200013"
       cy="33.020004"
       rx="4.3030391"
       ry="4.2094946"
       inkscape:label="step1" />
    <ellipse
       inkscape:label="step2"
       ry="4.2094946"
       rx="4.3030391"
       cy="48.260006"
       cx="7.6200013"
       id="path2"
       style="display:inline;fill:#ff0000;stroke-width:0.264583" />
    <ellipse
       inkscape:label="step3"
       ry="4.2094946"
       rx="4.3030391"
       cy="63.500011"
       cx="7.6200013"
       id="path3"
       style="display:inline;fill:#ff0000;stroke-width:0.264583" />
    <ellipse
       inkscape:label="step4"
       ry="4.2094946"
       rx="4.3030391"
       cy="78.740013"
       cx="7.6200013"
       id="path4"
       style="display:inline;fill:#ff0000;stroke-width:0.264583" />
    <ellipse
       style="display:inline;fill:#0000ff;stroke-width:0.264583"
       id="circleout"
       cx="22.860004"
       cy="107.47514"
       rx="4.3030391"
       ry="4.2094946"
       inkscape:label="outit" />
    <ellipse
       inkscape:label="blink1"
       ry="1.6694936"
       rx="1.763039"
       cy="25.400003"
       cx="15.240003"
       id="blink1"
       style="display:inline;fill:#ff00ff;stroke-width:0.106655" />
    <ellipse
       style="display:inline;fill:#ff00ff;stroke-width:0.106655"
       id="blink2"
       cx="15.240003"
       cy="40.640007"
       rx="1.763039"
       ry="1.6694936"
       inkscape:label="blink2" />
    <ellipse
       style="display:inline;fill:#ff00ff;stroke-width:0.106655"
       id="blink3"
       cx="15.134171"
       cy="55.774174"
       rx="1.763039"
       ry="1.6694936"
       inkscape:label="blink3" />
    <ellipse
       style="display:inline;fill:#ff00ff;stroke-width:0.106655"
       id="blink4"
       cx="15.134171"
       cy="71.014175"
       rx="1.763039"
       ry="1.6694936"
       inkscape:label="blink4" />
    <ellipse
       inkscape:label="blink5"
       ry="1.6694936"
       rx="1.763039"
       cy="86.360016"
       cx="15.240003"
       id="blink5"
       style="display:inline;fill:#ff00ff;stroke-width:0.106655" />
    <ellipse
       style="display:inline;fill:#ff00ff;stroke-width:0.106655"
       id="step1"
       cx="15.240003"
       cy="33.020004"
       rx="1.763039"
       ry="1.6694936"
       inkscape:label="step1" />
    <ellipse
       inkscape:label="step2"
       ry="1.6694936"
       rx="1.763039"
       cy="48.260006"
       cx="15.240003"
       id="step2"
       style="display:inline;fill:#ff00ff;stroke-width:0.106655" />
    <ellipse
       inkscape:label="step3"
       ry="1.6694936"
       rx="1.763039"
       cy="63.500008"
       cx="15.240003"
       id="step3"
       style="display:inline;fill:#ff00ff;stroke-width:0.106655" />
    <ellipse
       inkscape:label="step4"
       ry="1.6694936"
       rx="1.763039"
       cy="78.740013"
       cx="15.240003"
       id="step4"
       style="display:inline;fill:#ff00ff;stroke-width:0.106655" />
  </g>
</svg>
