<?xml version="1.0" encoding="UTF-8" standalone="no"?>
<svg
   xmlns:dc="http://purl.org/dc/elements/1.1/"
   xmlns:cc="http://creativecommons.org/ns#"
   xmlns:rdf="http://www.w3.org/1999/02/22-rdf-syntax-ns#"
   xmlns:svg="http://www.w3.org/2000/svg"
   xmlns="http://www.w3.org/2000/svg"
   xmlns:sodipodi="http://sodipodi.sourceforge.net/DTD/sodipodi-0.dtd"
   xmlns:inkscape="http://www.inkscape.org/namespaces/inkscape"
   sodipodi:docname="SeqP16.svg"
   inkscape:version="1.0 (4035a4fb49, 2020-05-01)"
   id="svg8"
   version="1.1"
   viewBox="0 0 20.320002 128.50002"
   height="128.5mm"
   width="20.32mm">
  <defs
     id="defs2">
    <inkscape:path-effect
       hide_knots="false"
       only_selected="false"
       apply_with_radius="true"
       apply_no_radius="true"
       use_knot_distance="true"
       flexible="false"
       chamfer_steps="1"
       radius="4"
       mode="F"
       method="auto"
       unit="mm"
       satellites_param="F,0,0,1,0,4,0,1 @ F,0,0,1,0,4,0,1 @ F,0,0,1,0,4,0,1 @ F,0,0,1,0,4,0,1"
       lpeversion="1"
       is_visible="true"
       id="path-effect316"
       effect="fillet_chamfer" />
    <inkscape:path-effect
       effect="fillet_chamfer"
       id="path-effect297"
       is_visible="true"
       lpeversion="1"
       satellites_param="F,0,0,1,0,4,0,1 @ F,0,0,1,0,4,0,1 @ F,0,0,1,0,4,0,1 @ F,0,0,1,0,4,0,1"
       unit="mm"
       method="auto"
       mode="F"
       radius="4"
       chamfer_steps="1"
       flexible="false"
       use_knot_distance="true"
       apply_no_radius="true"
       apply_with_radius="true"
       only_selected="false"
       hide_knots="false" />
    <inkscape:path-effect
       effect="fillet_chamfer"
       id="path-effect95"
       is_visible="true"
       lpeversion="1"
       satellites_param="F,0,0,1,0,4,0,1 @ F,0,0,1,0,4,0,1 @ F,0,0,1,0,4,0,1 @ F,0,0,1,0,4,0,1"
       unit="mm"
       method="auto"
       mode="F"
       radius="4"
       chamfer_steps="1"
       flexible="false"
       use_knot_distance="true"
       apply_no_radius="true"
       apply_with_radius="true"
       only_selected="false"
       hide_knots="false" />
    <inkscape:path-effect
       effect="fillet_chamfer"
       id="path-effect105"
       is_visible="true"
       lpeversion="1"
       satellites_param="F,0,0,1,0,4,0,1 @ F,0,0,1,0,4,0,1 @ F,0,0,1,0,4,0,1 @ F,0,0,1,0,4,0,1"
       unit="mm"
       method="auto"
       mode="F"
       radius="4"
       chamfer_steps="1"
       flexible="false"
       use_knot_distance="true"
       apply_no_radius="true"
       apply_with_radius="true"
       only_selected="false"
       hide_knots="false" />
    <inkscape:path-effect
       effect="fillet_chamfer"
       id="path-effect96"
       is_visible="true"
       lpeversion="1"
       satellites_param="F,0,0,1,0,4,0,1 @ F,0,0,1,0,4,0,1 @ F,0,0,1,0,4,0,1 @ F,0,0,1,0,4,0,1"
       unit="mm"
       method="auto"
       mode="F"
       radius="4"
       chamfer_steps="1"
       flexible="false"
       use_knot_distance="true"
       apply_no_radius="true"
       apply_with_radius="true"
       only_selected="false"
       hide_knots="false" />
    <inkscape:path-effect
       hide_knots="false"
       only_selected="false"
       apply_with_radius="true"
       apply_no_radius="true"
       use_knot_distance="true"
       flexible="false"
       chamfer_steps="1"
       radius="4"
       mode="F"
       method="auto"
       unit="mm"
       satellites_param="F,0,0,1,0,4,0,1 @ F,0,0,1,0,4,0,1 @ F,0,0,1,0,4,0,1 @ F,0,0,1,0,4,0,1"
       lpeversion="1"
       is_visible="true"
       id="path-effect77"
       effect="fillet_chamfer" />
    <inkscape:path-effect
       hide_knots="false"
       only_selected="false"
       apply_with_radius="true"
       apply_no_radius="true"
       use_knot_distance="true"
       flexible="false"
       chamfer_steps="1"
       radius="4"
       mode="F"
       method="auto"
       unit="mm"
       satellites_param="F,0,0,1,0,4,0,1 @ F,0,0,1,0,4,0,1 @ F,0,0,1,0,4,0,1 @ F,0,0,1,0,4,0,1"
       lpeversion="1"
       is_visible="true"
       id="path-effect161"
       effect="fillet_chamfer" />
    <inkscape:path-effect
       hide_knots="false"
       only_selected="false"
       apply_with_radius="true"
       apply_no_radius="true"
       use_knot_distance="true"
       flexible="false"
       chamfer_steps="1"
       radius="4"
       mode="F"
       method="auto"
       unit="mm"
       satellites_param="F,0,0,1,0,4,0,1 @ F,0,0,1,0,4,0,1 @ F,0,0,1,0,4,0,1 @ F,0,0,1,0,4,0,1"
       lpeversion="1"
       is_visible="true"
       id="path-effect152"
       effect="fillet_chamfer" />
    <inkscape:path-effect
       hide_knots="false"
       only_selected="false"
       apply_with_radius="true"
       apply_no_radius="true"
       use_knot_distance="true"
       flexible="false"
       chamfer_steps="1"
       radius="4"
       mode="F"
       method="auto"
       unit="mm"
       satellites_param="F,0,0,1,0,4,0,1 @ F,0,0,1,0,4,0,1 @ F,0,0,1,0,4,0,1 @ F,0,0,1,0,4,0,1"
       lpeversion="1"
       is_visible="true"
       id="path-effect143"
       effect="fillet_chamfer" />
    <inkscape:path-effect
       effect="fillet_chamfer"
       id="path-effect124"
       is_visible="true"
       lpeversion="1"
       satellites_param="F,0,0,1,0,4,0,1 @ F,0,0,1,0,4,0,1 @ F,0,0,1,0,4,0,1 @ F,0,0,1,0,4,0,1"
       unit="mm"
       method="auto"
       mode="F"
       radius="4"
       chamfer_steps="1"
       flexible="false"
       use_knot_distance="true"
       apply_no_radius="true"
       apply_with_radius="true"
       only_selected="false"
       hide_knots="false" />
    <inkscape:path-effect
       hide_knots="false"
       only_selected="false"
       apply_with_radius="true"
       apply_no_radius="true"
       use_knot_distance="true"
       flexible="false"
       chamfer_steps="1"
       radius="4"
       mode="F"
       method="auto"
       unit="mm"
       satellites_param="F,0,0,1,0,4,0,1 @ F,0,0,1,0,4,0,1 @ F,0,0,1,0,4,0,1 @ F,0,0,1,0,4,0,1"
       lpeversion="1"
       is_visible="true"
       id="path-effect154"
       effect="fillet_chamfer" />
  </defs>
  <sodipodi:namedview
     guidetolerance="28.7"
     gridtolerance="26.6"
     objecttolerance="24.3"
     inkscape:lockguides="false"
     inkscape:document-rotation="0"
     inkscape:snap-nodes="false"
     inkscape:snap-bbox-midpoints="true"
     inkscape:window-maximized="1"
     inkscape:window-y="-11"
     inkscape:window-x="-11"
     inkscape:window-height="1046"
     inkscape:window-width="1780"
     inkscape:snap-bbox-edge-midpoints="false"
     inkscape:bbox-nodes="false"
     inkscape:snap-page="true"
     inkscape:snap-bbox="true"
     units="mm"
     showgrid="true"
     inkscape:current-layer="layer1"
     inkscape:document-units="mm"
     inkscape:cy="328.01544"
     inkscape:cx="35.774673"
     inkscape:zoom="1"
     inkscape:pageshadow="2"
     inkscape:pageopacity="0.0"
     borderopacity="1.0"
     bordercolor="#666666"
     pagecolor="#ffffff"
     id="base">
    <inkscape:grid
       empspacing="4"
       empopacity="0.25098039"
       empcolor="#71530f"
       spacingy="2.5400004"
       spacingx="2.5400004"
       opacity="0.53333333"
       color="#ffd984"
       units="mm"
       id="grid86"
       type="xygrid" />
  </sodipodi:namedview>
  <metadata
     id="metadata5">
    <rdf:RDF>
      <cc:Work
         rdf:about="">
        <dc:format>image/svg+xml</dc:format>
        <dc:type
           rdf:resource="http://purl.org/dc/dcmitype/StillImage" />
        <dc:title />
        <dc:creator>
          <cc:Agent>
            <dc:title>Firo Lightfog</dc:title>
          </cc:Agent>
        </dc:creator>
      </cc:Work>
    </rdf:RDF>
  </metadata>
  <g
     transform="translate(0,-168.49998)"
     id="layer1"
     inkscape:groupmode="layer"
     inkscape:label="Layer 1"
     style="display:inline">
    <rect
       y="168.49834"
       x="0.068502754"
       height="128.54678"
       width="20.182999"
       id="rect420"
       style="display:inline;opacity:1;vector-effect:none;fill:#cccccc;fill-opacity:1;fill-rule:evenodd;stroke:none;stroke-width:0.528505;stroke-linecap:butt;stroke-linejoin:miter;stroke-miterlimit:4;stroke-dasharray:none;stroke-dashoffset:0;stroke-opacity:1;paint-order:normal" />
    <path
       sodipodi:type="rect"
       d="m 6.3283346,254.12315 h 7.6633334 a 4,4 45 0 1 4,4 v 8.7132 a 4,4 135 0 1 -4,4 H 6.3283346 a 4,4 45 0 1 -4,-4 v -8.7132 a 4,4 135 0 1 4,-4 z"
       inkscape:path-effect="#path-effect154"
       style="fill:#de8787;stroke-width:0.330268"
       id="rectmain"
       width="15.663334"
       height="16.7132"
       x="2.3283346"
       y="254.12315" />
    <text
       id="text59"
       y="277.43234"
       x="1.1693041"
       style="font-size:10.5833px;line-height:1.25;font-family:'Eras Bold ITC';-inkscape-font-specification:'Eras Bold ITC';stroke-width:0.264583"
       xml:space="preserve"><tspan
         style="font-size:2.82222px;fill:#ffff00;stroke-width:0.264583"
         y="277.43234"
         x="1.1693041"
         id="tspan57"
         sodipodi:role="line" /></text>
    <g
       transform="translate(5.08,-20.32006)"
       style="font-size:10.5833px;line-height:1.25;font-family:'Eras Bold ITC';-inkscape-font-specification:'Eras Bold ITC';fill:#000000;stroke-width:0.264583"
       id="text63"
       aria-label="OUT">
      <path
         id="path65"
         style="font-size:2.82222px;fill:#000000;stroke-width:0.264583"
         d="m 3.0694446,276.74367 q 0.2204859,0 0.4244354,0.0593 0.2039495,0.0593 0.3569116,0.19017 0.1529622,0.12953 0.2287542,0.29903 0.075792,0.1695 0.075792,0.38999 0,0.23151 -0.08406,0.42581 -0.082682,0.19292 -0.2397785,0.32797 -0.1570962,0.13505 -0.3748261,0.19844 -0.2177299,0.062 -0.4533742,0.062 -0.2328883,0 -0.4464841,-0.0606 -0.2135957,-0.062 -0.37207,-0.19844 -0.1570962,-0.1378 -0.223242,-0.30592 -0.066146,-0.16812 -0.066146,-0.37345 0,-0.30179 0.1391818,-0.52917 0.1405598,-0.22875 0.4147892,-0.35691 0.2756074,-0.12816 0.6201167,-0.12816 z m -0.024805,0.41479 q -0.1584743,0 -0.2866317,0.0786 -0.1281575,0.0772 -0.1970593,0.21635 -0.068902,0.13781 -0.068902,0.29628 0,0.14607 0.062012,0.26734 0.06339,0.12127 0.1915471,0.19017 0.1281575,0.0675 0.2714734,0.0675 0.1529621,0 0.2797415,-0.0758 0.1281575,-0.0772 0.1943032,-0.21497 0.067524,-0.13919 0.067524,-0.29077 0,-0.14745 -0.062012,-0.27147 -0.062012,-0.1254 -0.1819009,-0.19431 -0.1198892,-0.0689 -0.2700953,-0.0689 z" />
      <path
         id="path67"
         style="font-size:2.82222px;fill:#000000;stroke-width:0.264583"
         d="m 4.461262,276.7795 q 0.2149738,0.003 0.3031682,0.003 0.110243,0 0.2935219,-0.003 l -0.041341,0.58567 q -0.012402,0.16536 -0.019292,0.31006 -0.00551,0.14469 -0.00551,0.19981 0,0.10473 0.015158,0.17501 0.015158,0.0703 0.055122,0.11989 0.039963,0.0482 0.110243,0.073 0.071658,0.0248 0.148828,0.0248 0.066146,0 0.1240233,-0.0152 0.045475,-0.0124 0.081304,-0.0344 0.031695,-0.0207 0.055122,-0.0482 0.028939,-0.0331 0.050987,-0.0827 0.022049,-0.0469 0.033073,-0.12127 0.012402,-0.0758 0.033073,-0.34451 0.017914,-0.22875 0.027561,-0.41892 0.00827,-0.18466 0.015158,-0.42306 0.2080836,0.003 0.3279729,0.003 l 0.2797415,-0.003 -0.067524,0.97841 q -0.00138,0.0276 -0.00138,0.0455 -0.00551,0.28664 -0.035829,0.40515 -0.028939,0.11713 -0.097841,0.20395 -0.068902,0.0868 -0.2011934,0.15709 -0.1322915,0.0689 -0.3004121,0.0978 -0.1681205,0.0289 -0.3403752,0.0289 -0.1543401,0 -0.297656,-0.022 -0.1322915,-0.0221 -0.2384004,-0.0634 -0.1061089,-0.0427 -0.184657,-0.0992 -0.071658,-0.0524 -0.110243,-0.1061 -0.038585,-0.0551 -0.060634,-0.13092 -0.024805,-0.0854 -0.024805,-0.18328 0,-0.0331 0.00276,-0.0992 0.00276,-0.0675 0.012402,-0.19292 l 0.017914,-0.22049 q 0.00689,-0.0868 0.015158,-0.25493 z" />
      <path
         id="path69"
         style="font-size:2.82222px;fill:#000000;stroke-width:0.264583"
         d="m 6.9913383,278.66052 q 0.068902,-0.66972 0.082682,-1.4745 l -0.5870439,0.0152 0.00689,-0.15296 q 0.00551,-0.12265 0.00827,-0.26872 0.3913626,0.003 0.9122606,0.003 l 0.3403752,-10e-4 h 0.3307289 l 0.1791449,-0.001 -0.00827,0.13367 q -0.00551,0.10749 -0.00827,0.17777 -0.00138,0.0703 -0.00138,0.10611 -0.2949,-0.0138 -0.4864471,-0.0138 h -0.096463 q -0.020671,0.24391 -0.031695,0.45061 -0.015158,0.29628 -0.023427,0.57602 -0.00827,0.27837 -0.00827,0.45062 -0.2259981,-0.003 -0.2921439,-0.003 -0.059256,0 -0.3169486,0.003 z" />
    </g>
    <text
       id="text127"
       y="172.05467"
       x="-78.577248"
       style="font-size:10.5833px;line-height:1.25;font-family:'Eras Bold ITC';-inkscape-font-specification:'Eras Bold ITC';stroke-width:0.264583"
       xml:space="preserve"><tspan
         style="stroke-width:0.264583"
         y="172.05467"
         x="-78.577248"
         id="tspan125"
         sodipodi:role="line" /></text>
    <text
       id="text131"
       y="186.46049"
       x="-89.989647"
       style="font-size:10.5833px;line-height:1.25;font-family:'Eras Bold ITC';-inkscape-font-specification:'Eras Bold ITC';stroke-width:0.264583"
       xml:space="preserve"><tspan
         style="stroke-width:0.264583"
         y="186.46049"
         x="-89.989647"
         id="tspan129"
         sodipodi:role="line" /></text>
    <g
       style="font-weight:bold;font-size:6.35px;line-height:1.25;font-family:Tahoma;-inkscape-font-specification:'Tahoma, Bold';fill:#000000;stroke-width:0.264583"
       id="text104"
       aria-label="b">
      <path
         id="path116"
         style="font-style:normal;font-variant:normal;font-weight:bold;font-stretch:normal;font-size:14.1111px;font-family:'Wingdings 2';-inkscape-font-specification:'Wingdings 2 Bold';fill:#000000;stroke-width:0.264583"
         d="m 3.2732611,177.4586 v 0.68213 q 0.3927406,0 0.592556,0.19982 0.2067056,0.19981 0.3927406,0.76481 l 0.110243,0.34451 q 0.37207,1.14377 1.2195628,1.50206 -0.7854811,0.15158 -1.2540138,0.64768 -0.4616424,0.4892 -0.4616424,1.16444 0,0.94395 0.7096891,1.56407 0.7096891,0.61323 1.7983385,0.61323 1.6536445,0 2.5562588,-1.41938 L 8.4064495,183.0741 q -0.5856658,0.62701 -1.2057825,0.62701 -0.5098738,0 -0.8750536,-0.33073 -0.3651799,-0.33762 -0.3651799,-0.79926 0,-0.38585 0.2824977,-0.66835 0.2893878,-0.28249 0.6752382,-0.28249 0.6959087,0 1.9499225,0.98529 l 0.4203013,0.33073 q 2.0463848,1.6123 3.9067348,1.6123 1.612304,0 2.728514,-1.06108 1.1231,-1.06109 1.1231,-2.58382 0,-1.54341 -1.157551,-2.49425 -1.157551,-0.95085 -3.038572,-0.95085 h -0.227376 v 0.68213 q 1.11621,0.0758 1.770778,0.77859 0.654567,0.69591 0.654567,1.81212 0,1.10243 -0.826822,1.88791 -0.826822,0.77859 -1.998154,0.77859 -1.12999,0 -2.011934,-0.68901 -0.8819437,-0.68902 -0.8819437,-1.57097 0,-0.4203 0.2687173,-0.70969 0.2756074,-0.28938 0.6752384,-0.28938 0.399631,0 0.599446,0.22048 0.206705,0.2136 0.206705,0.65457 0,0.26872 -0.151584,0.6339 l 0.620117,0.28249 q 0.413411,-0.9784 0.413411,-1.63986 0,-0.81304 -0.530544,-1.39182 -0.523654,-0.58566 -1.267794,-0.58566 -0.475423,0 -0.8681636,0.23426 -0.3927406,0.23427 -0.7027989,0.70969 -0.3996308,-0.99907 -1.2677942,-1.39871 -0.8612732,-0.39963 -2.6182705,-0.39963 z m 4.9609337,3.36241 Q 7.2213375,180.62809 6.3807349,179.13292 L 6.2636017,178.9331 q -0.3651798,-0.64767 -0.8819437,-0.84749 2.6320509,0 2.8525368,2.7354 z" />
    </g>
    <g
       transform="translate(2.5400003,-78.740009)"
       style="font-weight:bold;font-size:2.82223px;line-height:1.25;font-family:Tahoma;-inkscape-font-specification:'Tahoma, Bold';display:inline;fill:#000000;stroke-width:0.264583"
       id="text223"
       aria-label="CLK">
      <path
         id="path309"
         style="fill:#000000;stroke-width:0.264583"
         d="m 5.9153633,288.94591 q -0.4616441,0 -0.7331183,-0.27837 -0.2714743,-0.27974 -0.2714743,-0.78548 0,-0.48783 0.2714743,-0.77722 0.2728523,-0.29076 0.7344964,-0.29076 0.1226457,0 0.2204867,0.0138 0.097841,0.0138 0.1874137,0.0386 0.07028,0.0207 0.1529627,0.0565 0.082682,0.0358 0.1336701,0.062 v 0.48921 H 6.558909 q -0.037207,-0.0331 -0.093707,-0.0786 -0.0565,-0.0468 -0.1281579,-0.0909 -0.071658,-0.0441 -0.1584748,-0.0744 -0.085439,-0.0317 -0.1791455,-0.0317 -0.1116214,0 -0.2053283,0.0358 -0.092329,0.0344 -0.1763893,0.12127 -0.07717,0.0785 -0.1267799,0.21222 -0.048231,0.13367 -0.048231,0.31557 0,0.19155 0.050988,0.32246 0.050987,0.12954 0.13367,0.20946 0.079927,0.0772 0.1777675,0.11162 0.099219,0.0344 0.19706,0.0344 0.1019751,0 0.1943039,-0.0331 0.092329,-0.0344 0.1557188,-0.0758 0.068902,-0.0427 0.1212677,-0.0868 0.052366,-0.0441 0.090951,-0.0786 h 0.046854 v 0.48232 q -0.0565,0.0262 -0.130914,0.0606 -0.074414,0.0331 -0.1529627,0.0565 -0.096463,0.0289 -0.1805235,0.0441 -0.084061,0.0152 -0.2315111,0.0152 z" />
      <path
         id="path311"
         style="fill:#000000;stroke-width:0.264583"
         d="M 8.2855957,288.90594 H 6.9158219 v -2.0519 h 0.5153877 v 1.66054 h 0.8543861 z" />
      <path
         id="path313"
         style="fill:#000000;stroke-width:0.264583"
         d="M 10.329232,288.90594 H 9.7063569 l -0.559485,-0.83371 -0.1005971,0.14056 v 0.69315 H 8.5308871 v -2.0519 h 0.5153877 v 0.91089 l 0.655948,-0.91089 h 0.5966922 l -0.7317403,0.95223 z" />
    </g>
    <g
       style="font-weight:bold;font-size:2.82223px;line-height:1.25;font-family:Tahoma;-inkscape-font-specification:'Tahoma, Bold';display:inline;fill:#000000;stroke-width:0.264583"
       id="text227"
       aria-label="RST"
       transform="translate(2.5400003,-73.659811)">
      <path
         id="path302"
         style="fill:#000000;stroke-width:0.264583"
         d="M 6.8414074,271.12595 H 6.2130203 L 5.6411328,270.37354 H 5.4564752 v 0.75241 H 4.9438436 v -2.05191 h 0.8254471 q 0.1708773,0 0.2976571,0.022 0.1267799,0.0207 0.2342672,0.0882 0.1102433,0.0703 0.1750113,0.17915 0.064768,0.10749 0.064768,0.27423 0,0.23565 -0.1061093,0.3831 -0.1061092,0.14607 -0.2838766,0.23289 z m -0.8295813,-1.42352 q 0,-0.0772 -0.030317,-0.13229 -0.028939,-0.0565 -0.097841,-0.0868 -0.048231,-0.0207 -0.1074873,-0.0262 -0.059256,-0.006 -0.1474505,-0.006 H 5.4564752 v 0.5526 h 0.1474505 q 0.1074873,0 0.1819015,-0.0124 0.075792,-0.0138 0.128158,-0.0565 0.049609,-0.0386 0.073036,-0.0923 0.024805,-0.0537 0.024805,-0.14056 z" />
      <path
         id="path304"
         style="fill:#000000;stroke-width:0.264583"
         d="m 7.6282695,271.16315 q -0.2356452,0 -0.4147906,-0.0455 -0.1777675,-0.0455 -0.3307301,-0.113 v -0.48783 h 0.046853 q 0.1543407,0.13092 0.3403764,0.2012 0.1860357,0.0703 0.361047,0.0703 0.044097,0 0.1157555,-0.01 0.073036,-0.01 0.1171336,-0.0303 0.053744,-0.0234 0.090951,-0.0648 0.037207,-0.0427 0.037207,-0.11162 0,-0.0772 -0.060634,-0.1254 -0.060634,-0.0482 -0.1446945,-0.0703 -0.1047311,-0.0276 -0.2246208,-0.0524 -0.1185116,-0.0248 -0.2218648,-0.0606 -0.2384012,-0.0841 -0.3417544,-0.226 -0.1033532,-0.14194 -0.1033532,-0.35553 0,-0.28801 0.2439135,-0.46578 0.2439134,-0.17915 0.6090946,-0.17915 0.1832796,0 0.3638031,0.0372 0.1819015,0.0372 0.3252179,0.1006 v 0.46853 h -0.045475 q -0.1143775,-0.0978 -0.2797425,-0.16536 -0.163987,-0.0675 -0.3376203,-0.0675 -0.067524,0 -0.1212677,0.01 -0.053744,0.01 -0.1129995,0.0372 -0.048231,0.0221 -0.084061,0.0661 -0.034451,0.0427 -0.034451,0.0965 0,0.0785 0.055122,0.1254 0.0565,0.0455 0.2163526,0.0827 0.1033531,0.0234 0.198438,0.0455 0.096463,0.022 0.2053283,0.0606 0.2135965,0.0772 0.3169497,0.20808 0.1047312,0.12954 0.1047312,0.34314 0,0.30592 -0.2411574,0.49196 -0.2397793,0.18603 -0.6490578,0.18603 z" />
      <path
         id="path306"
         style="fill:#000000;stroke-width:0.264583"
         d="m 9.1744328,271.12595 v -1.66054 H 8.5680943 v -0.39137 h 1.7280647 v 0.39137 H 9.6898205 v 1.66054 z" />
    </g>
    <g
       style="display:inline;font-weight:bold;font-size:4.23333px;line-height:1.25;font-family:Tahoma;-inkscape-font-specification:'Tahoma, Bold';letter-spacing:0px;fill:#000000;stroke-width:0.264583"
       id="text341"
       aria-label="SEQP16"
       transform="translate(0,168.49998)">
      <path
         id="path343"
         style="fill:#000000;stroke-width:0.264583"
         d="m 3.0648332,125.64961 q -0.3534665,0 -0.6221837,-0.0682 -0.2666502,-0.0682 -0.4960934,-0.1695 v -0.73174 h 0.07028 q 0.2315103,0.19638 0.5105628,0.30179 0.2790525,0.10542 0.5415685,0.10542 0.066146,0 0.1736327,-0.0145 0.1095539,-0.0145 0.1756997,-0.0455 0.080615,-0.0351 0.1364257,-0.0971 0.05581,-0.0641 0.05581,-0.16743 0,-0.11576 -0.09095,-0.1881 -0.09095,-0.0724 -0.2170408,-0.10542 -0.1570962,-0.0413 -0.3369301,-0.0785 -0.1777667,-0.0372 -0.3327959,-0.091 -0.3576006,-0.12609 -0.5126298,-0.339 -0.1550292,-0.21291 -0.1550292,-0.5333 0,-0.43202 0.3658689,-0.69867 0.3658688,-0.26871 0.9136385,-0.26871 0.2749184,0 0.5457027,0.0558 0.2728513,0.0558 0.4878251,0.15089 v 0.7028 H 4.209982 q -0.1715656,-0.14676 -0.4196123,-0.24805 -0.2459796,-0.10128 -0.5064286,-0.10128 -0.1012857,0 -0.1819009,0.0145 -0.080615,0.0145 -0.1694986,0.0558 -0.072347,0.0331 -0.1260903,0.0992 -0.051676,0.0641 -0.051676,0.14469 0,0.11782 0.082682,0.1881 0.084749,0.0682 0.3245277,0.12403 0.1550292,0.0351 0.297656,0.0682 0.1446939,0.0331 0.3079913,0.091 0.3203936,0.11576 0.4754228,0.31213 0.1570962,0.1943 0.1570962,0.51469 0,0.45889 -0.3617347,0.73794 -0.3596677,0.27905 -0.9735832,0.27905 z" />
      <path
         id="path345"
         style="fill:#000000;stroke-width:0.264583"
         d="m 4.7928917,125.5938 v -3.07784 H 6.8744166 V 123.103 H 5.5618364 v 0.5395 h 1.2092275 v 0.58705 H 5.5618364 v 0.77721 h 1.3125802 v 0.58704 z" />
      <path
         id="path347"
         style="fill:#000000;stroke-width:0.264583"
         d="m 10.196175,126.40822 q -0.124024,0.031 -0.250114,0.0455 -0.1240233,0.0145 -0.3906735,0.0145 -0.2439126,0 -0.4154782,-0.062 -0.1694985,-0.06 -0.2831866,-0.17157 -0.113688,-0.10955 -0.1715656,-0.26045 -0.05581,-0.15089 -0.064079,-0.32453 -0.6531896,-0.0289 -1.0293937,-0.45268 -0.374137,-0.42375 -0.374137,-1.14102 0,-0.74207 0.3968746,-1.17202 0.3968747,-0.43201 1.0934724,-0.43201 0.6945307,0 1.0934724,0.42995 0.3989422,0.42788 0.3989422,1.17408 0,0.54364 -0.2273766,0.93431 -0.225309,0.38861 -0.6387201,0.55191 0.00413,0.22531 0.099219,0.31006 0.097152,0.0868 0.3389971,0.0868 0.093018,0 0.1963703,-0.0289 0.1054193,-0.0269 0.1508953,-0.0517 h 0.07648 z m -1.0004552,-1.57303 q 0.099219,-0.13435 0.1529621,-0.31212 0.053743,-0.17984 0.053743,-0.46922 0,-0.27492 -0.057878,-0.46716 -0.055811,-0.1943 -0.150895,-0.31832 -0.099219,-0.12609 -0.2253091,-0.17984 -0.1240233,-0.0558 -0.2583819,-0.0558 -0.1426269,0 -0.258382,0.0517 -0.1157551,0.0496 -0.223242,0.17983 -0.095085,0.11989 -0.1550291,0.31833 -0.057878,0.19844 -0.057878,0.47335 0,0.28319 0.05581,0.47129 0.05581,0.18604 0.1529621,0.31213 0.099219,0.12816 0.2253091,0.18397 0.1260904,0.0537 0.260449,0.0537 0.1364256,0 0.2645831,-0.0579 0.1281574,-0.0599 0.2211749,-0.18397 z" />
      <path
         id="path349"
         style="fill:#000000;stroke-width:0.264583"
         d="m 13.023907,123.48747 q 0,0.21498 -0.06821,0.40928 -0.06821,0.1943 -0.19637,0.32453 -0.07855,0.0806 -0.173633,0.14883 -0.09302,0.0682 -0.206705,0.11575 -0.113688,0.0475 -0.248047,0.0744 -0.132291,0.0269 -0.297656,0.0269 H 11.42814 v 1.00665 h -0.773079 v -3.07784 h 1.194759 q 0.26665,0 0.458886,0.0496 0.194303,0.0475 0.351399,0.15296 0.173633,0.11575 0.268718,0.31006 0.09508,0.19223 0.09508,0.45888 z m -0.793749,0.0186 q 0,-0.13023 -0.06201,-0.22324 -0.06201,-0.0951 -0.148828,-0.13023 -0.109554,-0.0475 -0.21084,-0.0537 -0.09922,-0.008 -0.270784,-0.008 H 11.42814 v 0.92191 h 0.05374 q 0.109554,0 0.206705,-0.002 0.09715,-0.002 0.169499,-0.0145 0.06201,-0.0103 0.130224,-0.0393 0.07028,-0.031 0.107487,-0.0682 0.07855,-0.0765 0.10542,-0.15916 0.02894,-0.0827 0.02894,-0.22324 z" />
      <path
         id="path351"
         style="fill:#000000;stroke-width:0.264583"
         d="m 15.560184,125.5938 h -2.033983 v -0.53743 h 0.649055 v -1.62677 h -0.649055 v -0.5023 q 0.142627,0 0.283187,-0.0186 0.140559,-0.0186 0.225309,-0.06 0.09922,-0.0496 0.152962,-0.13229 0.05581,-0.0847 0.06408,-0.20877 h 0.67386 v 2.54868 h 0.634586 z" />
      <path
         id="path353"
         style="fill:#000000;stroke-width:0.264583"
         d="m 18.373447,124.54581 q 0,0.48575 -0.307991,0.79995 -0.307991,0.31212 -0.845426,0.31212 -0.268717,0 -0.479557,-0.0765 -0.210839,-0.0786 -0.3576,-0.22944 -0.1757,-0.17777 -0.268718,-0.45889 -0.09302,-0.28112 -0.09302,-0.67179 0,-0.40514 0.08682,-0.71934 0.08682,-0.31419 0.283187,-0.55603 0.188102,-0.22945 0.491959,-0.35761 0.303857,-0.13022 0.719335,-0.13022 0.150895,0 0.30179,0.0207 0.152963,0.0186 0.208773,0.031 v 0.60564 h -0.05581 q -0.05374,-0.0269 -0.177767,-0.0599 -0.124024,-0.0351 -0.283187,-0.0351 -0.361735,0 -0.558105,0.19017 -0.19637,0.19017 -0.241845,0.5457 0.150895,-0.0971 0.305924,-0.15503 0.157096,-0.0579 0.353466,-0.0579 0.165365,0 0.310059,0.0455 0.146761,0.0434 0.260449,0.12816 0.159163,0.12195 0.252181,0.32039 0.09508,0.19844 0.09508,0.5085 z m -0.897102,0.46508 q 0.05995,-0.0744 0.09095,-0.16123 0.03307,-0.0889 0.03307,-0.26665 0,-0.14882 -0.03721,-0.24598 -0.03721,-0.0971 -0.10542,-0.15503 -0.06821,-0.0579 -0.155029,-0.0785 -0.08682,-0.0227 -0.183968,-0.0227 -0.08061,0 -0.167431,0.0207 -0.08475,0.0207 -0.159163,0.0517 0,0.0207 -0.0021,0.0682 -0.0021,0.0475 -0.0021,0.11989 0,0.26458 0.04548,0.42581 0.04754,0.16123 0.117822,0.24391 0.05374,0.0661 0.121956,0.0951 0.07028,0.0289 0.146761,0.0289 0.06201,0 0.134359,-0.031 0.07235,-0.031 0.121956,-0.093 z" />
    </g>
    <g
       aria-label="POLY IN"
       id="text393"
       style="font-weight:bold;font-size:2.82222px;line-height:1.25;font-family:Tahoma;-inkscape-font-specification:'Tahoma, Bold';letter-spacing:0px;fill:#000000;stroke-width:0.264583">
      <path
         d="m 5.9955737,274.80171 q 0,0.14332 -0.045475,0.27285 -0.045475,0.12954 -0.1309136,0.21636 -0.052365,0.0537 -0.1157551,0.0992 -0.062012,0.0455 -0.1378037,0.0772 -0.075792,0.0317 -0.1653644,0.0496 -0.088194,0.0179 -0.1984374,0.0179 H 4.931729 v 0.6711 H 4.4163431 v -2.05189 h 0.7965055 q 0.1777668,0 0.3059242,0.0331 0.1295355,0.0317 0.2342664,0.10197 0.1157551,0.0772 0.1791448,0.20671 0.06339,0.12816 0.06339,0.30592 z m -0.5291663,0.0124 q 0,-0.0868 -0.041341,-0.14883 -0.041341,-0.0634 -0.099219,-0.0868 -0.073036,-0.0317 -0.1405597,-0.0358 -0.066146,-0.006 -0.1805229,-0.006 H 4.931729 v 0.6146 h 0.035829 q 0.073036,0 0.1378037,-0.001 0.064768,-0.001 0.112999,-0.01 0.041341,-0.007 0.086816,-0.0262 0.046853,-0.0207 0.071658,-0.0455 0.052365,-0.051 0.07028,-0.10611 0.019292,-0.0551 0.019292,-0.14882 z"
         style="font-size:2.82222px;fill:#000000;stroke-width:0.264583"
         id="path408" />
      <path
         d="m 8.1425556,275.18067 q 0,0.49747 -0.2659611,0.78273 -0.2659612,0.28525 -0.7289817,0.28525 -0.4643985,0 -0.7289816,-0.28801 -0.2645832,-0.28939 -0.2645832,-0.77997 0,-0.49471 0.2645832,-0.78134 0.2645831,-0.28801 0.7289816,-0.28801 0.4630205,0 0.7289817,0.28663 0.2659611,0.28525 0.2659611,0.78272 z m -0.5319223,-0.001 q 0,-0.18327 -0.038585,-0.31143 -0.037207,-0.12954 -0.1005968,-0.21222 -0.066146,-0.0841 -0.150206,-0.11989 -0.082682,-0.0372 -0.1722547,-0.0372 -0.095084,0 -0.1722546,0.0345 -0.07717,0.0331 -0.148828,0.11988 -0.06339,0.0799 -0.1033528,0.21222 -0.038585,0.13229 -0.038585,0.31557 0,0.18879 0.037207,0.3142 0.037207,0.12402 0.1019747,0.20808 0.066146,0.0854 0.1502061,0.12264 0.08406,0.0358 0.1736326,0.0358 0.09095,0 0.1763888,-0.0386 0.085438,-0.04 0.14745,-0.12265 0.066146,-0.0896 0.1019747,-0.20808 0.035829,-0.11989 0.035829,-0.31282 z"
         style="font-size:2.82222px;fill:#000000;stroke-width:0.264583"
         id="path410" />
      <path
         d="m 9.8154929,276.20593 h -1.369769 v -2.05189 h 0.5153859 v 1.66053 h 0.8543831 z"
         style="font-size:2.82222px;fill:#000000;stroke-width:0.264583"
         id="path412" />
      <path
         d="m 11.766793,274.15404 -0.708311,1.19475 v 0.85714 h -0.515386 v -0.83095 l -0.7207131,-1.22094 h 0.5870441 l 0.402387,0.73311 0.387228,-0.73311 z"
         style="font-size:2.82222px;fill:#000000;stroke-width:0.264583"
         id="path414" />
      <path
         d="M 13.800776,276.20593 H 12.69559 v -0.35829 h 0.2949 v -1.33532 h -0.2949 v -0.35828 h 1.105186 v 0.35828 h -0.2949 v 1.33532 h 0.2949 z"
         style="font-size:2.82222px;fill:#000000;stroke-width:0.264583"
         id="path416" />
      <path
         d="m 15.90366,276.20593 h -0.496093 l -0.790993,-1.4304 v 1.4304 h -0.471289 v -2.05189 h 0.632519 l 0.654568,1.17546 v -1.17546 h 0.471288 z"
         style="font-size:2.82222px;fill:#000000;stroke-width:0.264583"
         id="path418" />
    </g>
  </g>
  <g
     style="display:none"
     inkscape:label="components"
     id="layer2"
     inkscape:groupmode="layer">
    <circle
       inkscape:label="monoout"
       r="4"
       cy="96.520012"
       cx="10.160002"
       id="monoout"
       style="display:inline;opacity:1;vector-effect:none;fill:#0000ff;fill-opacity:1;fill-rule:evenodd;stroke:none;stroke-width:1;stroke-linecap:butt;stroke-linejoin:miter;stroke-miterlimit:4;stroke-dasharray:none;stroke-dashoffset:0;stroke-opacity:1;paint-order:normal" />
    <circle
       r="4"
       cy="58.420006"
       cx="10.160002"
       id="chsel2"
       style="display:inline;opacity:1;vector-effect:none;fill:#ff0000;fill-opacity:1;fill-rule:evenodd;stroke:none;stroke-width:1;stroke-linecap:butt;stroke-linejoin:miter;stroke-miterlimit:4;stroke-dasharray:none;stroke-dashoffset:0;stroke-opacity:1;paint-order:normal"
       inkscape:label="Select CH2" />
    <circle
       r="4"
       cy="68.580009"
       cx="10.160002"
       id="chsel3"
       style="display:inline;opacity:1;vector-effect:none;fill:#ff0000;fill-opacity:1;fill-rule:evenodd;stroke:none;stroke-width:1;stroke-linecap:butt;stroke-linejoin:miter;stroke-miterlimit:4;stroke-dasharray:none;stroke-dashoffset:0;stroke-opacity:1;paint-order:normal"
       inkscape:label="Select CH3" />
    <circle
       r="4"
       cy="78.740013"
       cx="10.160002"
       id="chsel4"
       style="display:inline;opacity:1;vector-effect:none;fill:#ff0000;fill-opacity:1;fill-rule:evenodd;stroke:none;stroke-width:1;stroke-linecap:butt;stroke-linejoin:miter;stroke-miterlimit:4;stroke-dasharray:none;stroke-dashoffset:0;stroke-opacity:1;paint-order:normal"
       inkscape:label="Select CH4" />
    <ellipse
       cy="48.260006"
       cx="10.160002"
       id="chsel1"
       style="display:inline;opacity:1;vector-effect:none;fill:#ff0000;fill-opacity:1;fill-rule:evenodd;stroke:none;stroke-width:1;stroke-linecap:butt;stroke-linejoin:miter;stroke-miterlimit:4;stroke-dasharray:none;stroke-dashoffset:0;stroke-opacity:1;paint-order:normal"
       inkscape:label="Select CH1"
       rx="4"
       ry="4.0000014" />
    <circle
       r="0.035242248"
       cy="-48.154167"
       cx="-43.920834"
       style="fill:#000000;stroke:#000000;stroke-width:0.264583"
       id="path30" />
    <circle
       r="0.0088105621"
       cy="-2.5135417"
       cx="-32.279167"
       style="fill:#000000;stroke:#000000;stroke-width:0.264583"
       id="path32" />
    <circle
       r="0.0088105621"
       cy="0.1984375"
       cx="-17.991667"
       style="fill:#000000;stroke:#000000;stroke-width:0.264583"
       id="path34" />
    <circle
       r="0.0088105621"
       cy="2.9104166"
       cx="-25.069271"
       style="fill:#000000;stroke:#000000;stroke-width:0.264583"
       id="path36" />
    <text
       id="text42"
       y="11.90625"
       x="-38.695312"
       style="font-size:10.5833px;line-height:1.25;font-family:'Eras Bold ITC';-inkscape-font-specification:'Eras Bold ITC';stroke-width:0.264583"
       xml:space="preserve"><tspan
         style="font-style:normal;font-variant:normal;font-weight:bold;font-stretch:normal;font-size:3.52778px;font-family:Garamond;-inkscape-font-specification:'Garamond Bold';stroke-width:0.264583"
         y="11.90625"
         x="-38.695312"
         id="tspan40"
         sodipodi:role="line" /></text>
    <text
       id="text78"
       y="16.668749"
       x="-45.111458"
       style="font-size:10.5833px;line-height:1.25;font-family:'Eras Bold ITC';-inkscape-font-specification:'Eras Bold ITC';stroke-width:0.264583"
       xml:space="preserve"><tspan
         style="stroke-width:0.264583"
         y="16.668749"
         x="-45.111458"
         id="tspan76"
         sodipodi:role="line" /></text>
    <circle
       style="display:inline;opacity:1;vector-effect:none;fill:#00ff00;fill-opacity:1;fill-rule:evenodd;stroke:none;stroke-width:1;stroke-linecap:butt;stroke-linejoin:miter;stroke-miterlimit:4;stroke-dasharray:none;stroke-dashoffset:0;stroke-opacity:1;paint-order:normal"
       id="polyin"
       cx="10.160002"
       cy="114.30002"
       r="4"
       inkscape:label="polyin" />
    <circle
       inkscape:label="rst"
       r="4"
       cy="22.860004"
       cx="10.160002"
       id="rst"
       style="display:inline;opacity:1;vector-effect:none;fill:#00ff00;fill-opacity:1;fill-rule:evenodd;stroke:none;stroke-width:1;stroke-linecap:butt;stroke-linejoin:miter;stroke-miterlimit:4;stroke-dasharray:none;stroke-dashoffset:0;stroke-opacity:1;paint-order:normal" />
    <circle
       inkscape:label="clk"
       r="4"
       cy="35.560005"
       cx="10.160002"
       id="clk"
       style="display:inline;opacity:1;vector-effect:none;fill:#00ff00;fill-opacity:1;fill-rule:evenodd;stroke:none;stroke-width:1;stroke-linecap:butt;stroke-linejoin:miter;stroke-miterlimit:4;stroke-dasharray:none;stroke-dashoffset:0;stroke-opacity:1;paint-order:normal" />
    <ellipse
       inkscape:label="blink1"
       ry="1.6694936"
       rx="1.763039"
       cy="53.340008"
       cx="15.240003"
       id="blink1"
       style="display:inline;fill:#ff00ff;stroke-width:0.106655" />
    <ellipse
       style="display:inline;fill:#ff00ff;stroke-width:0.106655"
       id="blink2"
       cx="15.240003"
       cy="63.500008"
       rx="1.763039"
       ry="1.6694936"
       inkscape:label="blink2" />
    <ellipse
       style="display:inline;fill:#ff00ff;stroke-width:0.106655"
       id="blink3"
       cx="15.240003"
       cy="73.660011"
       rx="1.763039"
       ry="1.6694936"
       inkscape:label="blink3" />
    <ellipse
       style="display:inline;fill:#ff00ff;stroke-width:0.106655"
       id="blink4"
       cx="15.134171"
       cy="83.714172"
       rx="1.763039"
       ry="1.6694936"
       inkscape:label="blink4" />
  </g>
</svg>
