<?xml version="1.0" encoding="UTF-8" standalone="no"?>
<svg
   xmlns:dc="http://purl.org/dc/elements/1.1/"
   xmlns:cc="http://creativecommons.org/ns#"
   xmlns:rdf="http://www.w3.org/1999/02/22-rdf-syntax-ns#"
   xmlns:svg="http://www.w3.org/2000/svg"
   xmlns="http://www.w3.org/2000/svg"
   xmlns:sodipodi="http://sodipodi.sourceforge.net/DTD/sodipodi-0.dtd"
   xmlns:inkscape="http://www.inkscape.org/namespaces/inkscape"
   sodipodi:docname="Sequin.svg"
   inkscape:version="1.0 (4035a4fb49, 2020-05-01)"
   id="svg8"
   version="1.1"
   viewBox="0 0 10.160001 128.50002"
   height="128.5mm"
   width="10.16mm">
  <defs
     id="defs2">
    <inkscape:path-effect
       effect="fillet_chamfer"
       id="path-effect81"
       is_visible="true"
       lpeversion="1"
       satellites_param="F,0,0,1,0,0,0,1 @ F,0,0,1,0,0,0,1 @ F,0,0,1,0,0,0,1 @ F,0,0,1,0,0,0,1"
       unit="mm"
       method="auto"
       mode="F"
       radius="0"
       chamfer_steps="1"
       flexible="false"
       use_knot_distance="true"
       apply_no_radius="true"
       apply_with_radius="true"
       only_selected="false"
       hide_knots="false" />
    <inkscape:path-effect
       hide_knots="false"
       only_selected="false"
       apply_with_radius="true"
       apply_no_radius="true"
       use_knot_distance="true"
       flexible="false"
       chamfer_steps="1"
       radius="0"
       mode="F"
       method="auto"
       unit="mm"
       satellites_param="F,0,0,1,0,0,0,1 @ F,0,0,1,0,0,0,1 @ F,0,0,1,0,0,0,1 @ F,0,0,1,0,0,0,1"
       lpeversion="1"
       is_visible="true"
       id="path-effect77"
       effect="fillet_chamfer" />
  </defs>
  <sodipodi:namedview
     inkscape:snap-others="true"
     guidetolerance="10000"
     gridtolerance="10000"
     objecttolerance="10000"
     inkscape:lockguides="false"
     inkscape:document-rotation="0"
     inkscape:snap-nodes="false"
     inkscape:snap-bbox-midpoints="true"
     inkscape:window-maximized="1"
     inkscape:window-y="-11"
     inkscape:window-x="-11"
     inkscape:window-height="1046"
     inkscape:window-width="1780"
     inkscape:snap-bbox-edge-midpoints="false"
     inkscape:bbox-nodes="false"
     inkscape:snap-page="true"
     inkscape:snap-bbox="true"
     units="mm"
     showgrid="true"
     inkscape:current-layer="layer1"
     inkscape:document-units="mm"
     inkscape:cy="199.64911"
     inkscape:cx="79.413194"
     inkscape:zoom="2.8284271"
     inkscape:pageshadow="2"
     inkscape:pageopacity="0.0"
     borderopacity="1.0"
     bordercolor="#666666"
     pagecolor="#ffffff"
     id="base">
    <inkscape:grid
       empspacing="4"
       empopacity="0.25098039"
       empcolor="#71530f"
       spacingy="2.5400004"
       spacingx="2.5400004"
       opacity="0.53333333"
       color="#ffd984"
       units="mm"
       id="grid86"
       type="xygrid" />
  </sodipodi:namedview>
  <metadata
     id="metadata5">
    <rdf:RDF>
      <cc:Work
         rdf:about="">
        <dc:format>image/svg+xml</dc:format>
        <dc:type
           rdf:resource="http://purl.org/dc/dcmitype/StillImage" />
        <dc:title />
        <dc:creator>
          <cc:Agent>
            <dc:title>Firo Lightfog</dc:title>
          </cc:Agent>
        </dc:creator>
      </cc:Work>
    </rdf:RDF>
  </metadata>
  <g
     transform="translate(0,-168.49998)"
     id="layer1"
     inkscape:groupmode="layer"
     inkscape:label="Layer 1"
     style="display:inline">
    <rect
       y="167.74997"
       x="-0.071813658"
       height="129.26068"
       width="10.303629"
       id="rect420"
       style="display:inline;opacity:1;vector-effect:none;fill:#cccccc;fill-opacity:1;fill-rule:evenodd;stroke:none;stroke-width:0.378664;stroke-linecap:butt;stroke-linejoin:miter;stroke-miterlimit:4;stroke-dasharray:none;stroke-dashoffset:0;stroke-opacity:1;paint-order:normal" />
    <text
       id="text59"
       y="277.43234"
       x="1.1693041"
       style="font-size:10.5833px;line-height:1.25;font-family:'Eras Bold ITC';-inkscape-font-specification:'Eras Bold ITC';stroke-width:0.264583"
       xml:space="preserve"><tspan
         style="font-size:2.82222px;fill:#ffff00;stroke-width:0.264583"
         y="277.43234"
         x="1.1693041"
         id="tspan57"
         sodipodi:role="line" /></text>
    <g
       aria-label="b"
       transform="translate(0,168.49998)"
       id="text51"
       style="font-weight:bold;font-size:6.08438px;line-height:1.25;font-family:'Wingdings 2';-inkscape-font-specification:'Wingdings 2 Bold';display:inline;fill:#000000;stroke-width:0.142602">
      <path
         d="M 2.1105974,0.92680782 V 1.2209258 q 0.1693407,0 0.2554965,0.086156 0.089127,0.086156 0.1693406,0.3297686 l 0.047534,0.1485445 Q 2.7433967,2.2785622 3.1088161,2.4330484 2.7701347,2.498408 2.5681143,2.712312 2.3690648,2.9232451 2.3690648,3.2143922 q 0,0.4070117 0.3060015,0.6743917 0.3060015,0.2644091 0.775402,0.2644091 0.7130133,0 1.1021997,-0.6120031 L 4.3239095,3.3480821 Q 4.071384,3.618433 3.804004,3.618433 3.5841583,3.618433 3.4267011,3.4758304 3.269244,3.3302568 3.269244,3.1312073 q 0,-0.1663698 0.1218065,-0.2881762 0.1247773,-0.1218065 0.2911471,-0.1218065 0.3000597,0 0.8407615,0.4248371 l 0.1812242,0.1426027 q 0.882354,0.6951879 1.6844939,0.6951879 0.695188,0 1.176472,-0.4575168 Q 8.049404,3.0688186 8.049404,2.4122522 8.049404,1.7467731 7.5502947,1.3367905 7.0511854,0.92680782 6.2401328,0.92680782 H 6.1420935 V 1.2209258 q 0.4812839,0.03268 0.7635184,0.3357104 0.2822344,0.3000598 0.2822344,0.7813438 0,0.4753422 -0.3565066,0.8140235 -0.3565067,0.3357104 -0.8615578,0.3357104 -0.4872257,0 -0.8674995,-0.2970889 -0.3802738,-0.2970888 -0.3802738,-0.6773626 0,-0.1812242 0.1158647,-0.3060015 0.1188356,-0.1247774 0.2911471,-0.1247774 0.1723115,0 0.2584673,0.095068 0.089127,0.092097 0.089127,0.2822344 0,0.1158647 -0.06536,0.2733218 l 0.26738,0.1218064 Q 5.856888,2.4330479 5.856888,2.1478426 5.856888,1.7972777 5.6281296,1.5477231 5.4023422,1.295198 5.0814862,1.295198 q -0.2049913,0 -0.374332,0.1010102 Q 4.5378135,1.4972185 4.4041235,1.7022098 4.231812,1.2714309 3.85748,1.0991194 3.4861189,0.92680782 2.7285423,0.92680782 Z M 4.2496373,2.3766015 Q 3.8129167,2.2934166 3.4504683,1.6487338 L 3.3999632,1.562578 Q 3.242506,1.2833145 3.0196894,1.1971587 q 1.1348795,0 1.2299479,1.1794428 z"
         style="font-size:6.08438px;fill:#000000;stroke-width:0.142602"
         id="path49" />
    </g>
    <path
       d="M -1.2769526,176.25224 H 9.1113893 V 206.4748 H -1.2769526 Z"
       y="176.25224"
       x="-1.2769526"
       height="30.222557"
       width="10.388342"
       id="rect48-1-6"
       style="display:inline;fill:#de8787;stroke-width:0.361687"
       inkscape:path-effect="#path-effect81"
       sodipodi:type="rect"
       transform="matrix(1,0,0.0060763,0.99998154,0,0)" />
    <g
       style="font-weight:bold;font-size:3.52778px;line-height:1.25;font-family:Tahoma;-inkscape-font-specification:'Tahoma, Bold';letter-spacing:0px;fill:#000000;stroke-width:0.264583"
       id="text85"
       aria-label="RV10">
      <g
         style="font-weight:bold;font-size:3.52778px;line-height:1.25;font-family:Tahoma;-inkscape-font-specification:'Tahoma, Bold';letter-spacing:0px;stroke-width:0.0700042"
         id="text1435"
         aria-label="SQ">
        <path
           id="path1437"
           style="font-size:3.52778px;stroke-width:0.0700042"
           d="m 3.6580366,293.95132 q -0.2945558,0 -0.5184872,-0.0568 -0.2222088,-0.0568 -0.4134117,-0.14125 v -0.60978 h 0.058567 q 0.1929254,0.16364 0.4254695,0.25149 0.2325441,0.0879 0.4513078,0.0879 0.055122,0 0.1446941,-0.0121 0.091295,-0.012 0.1464167,-0.0379 0.067179,-0.0293 0.1136882,-0.081 0.046509,-0.0534 0.046509,-0.13953 0,-0.0965 -0.075792,-0.15675 -0.075792,-0.0603 -0.1808677,-0.0879 -0.1309137,-0.0345 -0.2807754,-0.0655 -0.1481392,-0.031 -0.2773304,-0.0758 -0.2980009,-0.10508 -0.4271921,-0.2825 -0.1291912,-0.17742 -0.1291912,-0.44442 0,-0.36001 0.3048912,-0.58222 0.3048911,-0.22393 0.7613666,-0.22393 0.229099,0 0.4547529,0.0465 0.2273764,0.0465 0.4065215,0.12575 v 0.58566 h -0.056844 q -0.1429716,-0.1223 -0.3496774,-0.2067 -0.2049833,-0.0844 -0.4220245,-0.0844 -0.084405,0 -0.1515843,0.0121 -0.067179,0.0121 -0.141249,0.0465 -0.060289,0.0276 -0.1050755,0.0827 -0.043064,0.0534 -0.043064,0.12058 0,0.0982 0.068902,0.15675 0.070625,0.0569 0.2704402,0.10335 0.1291912,0.0293 0.2480471,0.0568 0.1205784,0.0276 0.2566597,0.0758 0.2669951,0.0965 0.3961863,0.26011 0.1309137,0.16192 0.1309137,0.42891 0,0.38241 -0.3014461,0.61495 -0.2997235,0.23254 -0.8113205,0.23254 z" />
        <path
           id="path1439"
           style="font-size:3.52778px;stroke-width:0.0700042"
           d="m 7.4304186,294.5835 q -0.1033529,0.0258 -0.2084284,0.0379 -0.1033529,0.012 -0.3255617,0.012 -0.2032608,0 -0.3462324,-0.0517 -0.141249,-0.05 -0.2359892,-0.14297 -0.09474,-0.0913 -0.1429715,-0.21705 -0.046509,-0.12574 -0.053399,-0.27044 -0.5443255,-0.0241 -0.8578294,-0.37723 -0.3117813,-0.35313 -0.3117813,-0.95085 0,-0.6184 0.3307294,-0.97669 0.3307294,-0.36001 0.9112283,-0.36001 0.5787764,0 0.9112284,0.35829 0.3324519,0.35657 0.3324519,0.97841 0,0.45303 -0.1894804,0.77859 -0.1877578,0.32384 -0.5322676,0.45992 0.00345,0.18776 0.082682,0.25838 0.08096,0.0723 0.282498,0.0723 0.077515,0 0.1636421,-0.0241 0.08785,-0.0224 0.1257461,-0.0431 h 0.063734 z M 6.596705,293.27264 q 0.082682,-0.11197 0.1274686,-0.2601 0.044786,-0.14987 0.044786,-0.39102 0,-0.2291 -0.048231,-0.3893 -0.046509,-0.16192 -0.1257461,-0.26527 -0.082682,-0.10508 -0.1877578,-0.14986 -0.1033529,-0.0465 -0.2153186,-0.0465 -0.1188559,0 -0.2153186,0.0431 -0.096463,0.0413 -0.1860353,0.14986 -0.079237,0.0999 -0.1291912,0.26528 -0.048231,0.16536 -0.048231,0.39446 0,0.23599 0.046509,0.39274 0.046509,0.15503 0.1274686,0.26011 0.082682,0.10679 0.1877578,0.1533 0.1050755,0.0448 0.2170412,0.0448 0.1136882,0 0.2204862,-0.0482 0.1067981,-0.05 0.1843128,-0.15331 z" />
      </g>
    </g>
    <g
       transform="translate(1.0000005e-7,7.6200064)"
       style="font-weight:bold;font-size:4.23333px;line-height:1.25;font-family:Tahoma;-inkscape-font-specification:'Tahoma, Bold';letter-spacing:0px;stroke-width:0.264583"
       id="text1452"
       aria-label="CLK">
      <path
         id="path1492"
         style="font-size:2.82222px;stroke-width:0.264583"
         d="m 3.3753688,202.58589 q -0.4616425,0 -0.7331158,-0.27836 -0.2714733,-0.27974 -0.2714733,-0.78548 0,-0.48783 0.2714733,-0.77722 0.2728514,-0.29076 0.7344938,-0.29076 0.1226453,0 0.220486,0.0138 0.097841,0.0138 0.187413,0.0386 0.07028,0.0207 0.1529621,0.0565 0.082682,0.0358 0.1336696,0.062 v 0.4892 h -0.052365 q -0.037207,-0.0331 -0.093706,-0.0786 -0.0565,-0.0468 -0.1281575,-0.0909 -0.071658,-0.0441 -0.1584742,-0.0744 -0.085438,-0.0317 -0.1791449,-0.0317 -0.111621,0 -0.2053275,0.0358 -0.092328,0.0344 -0.1763887,0.12127 -0.07717,0.0785 -0.1267795,0.21221 -0.048231,0.13367 -0.048231,0.31558 0,0.19154 0.050987,0.32246 0.050987,0.12953 0.1336696,0.20946 0.079926,0.0772 0.1777668,0.11162 0.099219,0.0345 0.1970593,0.0345 0.1019748,0 0.1943033,-0.0331 0.092328,-0.0344 0.1557182,-0.0758 0.068902,-0.0427 0.1212672,-0.0868 0.052365,-0.0441 0.09095,-0.0786 h 0.046853 v 0.48231 q -0.0565,0.0262 -0.1309135,0.0606 -0.074414,0.0331 -0.1529621,0.0565 -0.096463,0.0289 -0.1805229,0.0441 -0.08406,0.0152 -0.2315102,0.0152 z" />
      <path
         id="path1494"
         style="font-size:2.82222px;stroke-width:0.264583"
         d="M 5.7455927,202.54593 H 4.3758238 v -2.0519 h 0.5153859 v 1.66054 h 0.854383 z" />
      <path
         id="path1496"
         style="font-size:2.82222px;stroke-width:0.264583"
         d="M 7.7892217,202.54593 H 7.166349 l -0.5594831,-0.83371 -0.1005967,0.14056 v 0.69315 H 5.9908833 v -2.0519 h 0.5153859 v 0.91088 l 0.6559456,-0.91088 h 0.5966901 l -0.7317377,0.95223 z" />
    </g>
    <g
       transform="translate(1.7499998e-6,2.5400062)"
       style="font-weight:bold;font-size:2.82222px;line-height:1.25;font-family:Tahoma;-inkscape-font-specification:'Tahoma, Bold';letter-spacing:0px;stroke-width:0.264583"
       id="text1460"
       aria-label="PW">
      <path
         id="path1508"
         style="font-size:2.82222px;stroke-width:0.264583"
         d="m 4.4068279,236.70172 q 0,0.14332 -0.045475,0.27285 -0.045475,0.12954 -0.1309135,0.21636 -0.052365,0.0537 -0.1157551,0.0992 -0.062012,0.0455 -0.1378037,0.0772 -0.075792,0.0317 -0.1653645,0.0496 -0.088194,0.0179 -0.1984373,0.0179 H 3.3429832 v 0.6711 H 2.8275973 v -2.0519 h 0.7965055 q 0.1777668,0 0.3059242,0.0331 0.1295355,0.0317 0.2342663,0.10197 0.1157552,0.0772 0.1791449,0.20671 0.06339,0.12816 0.06339,0.30592 z m -0.5291663,0.0124 q 0,-0.0868 -0.041341,-0.14882 -0.041341,-0.0634 -0.099219,-0.0868 -0.073036,-0.0317 -0.1405598,-0.0358 -0.066146,-0.006 -0.1805228,-0.006 H 3.342983 v 0.6146 h 0.035829 q 0.073036,0 0.1378037,-0.001 0.064768,-0.001 0.112999,-0.01 0.041341,-0.007 0.086816,-0.0262 0.046853,-0.0207 0.071658,-0.0455 0.052365,-0.051 0.07028,-0.10611 0.019293,-0.0551 0.019293,-0.14883 z" />
      <path
         id="path1510"
         style="font-size:2.82222px;stroke-width:0.264583"
         d="m 7.3324008,236.05404 -0.51952,2.0519 H 6.2478856 l -0.3293509,-1.26917 -0.3197046,1.26917 H 5.0338348 l -0.51952,-2.0519 h 0.5346784 l 0.2824976,1.37666 0.3445093,-1.37666 h 0.5112518 l 0.3265948,1.37666 0.2976561,-1.37666 z" />
    </g>
    <g
       transform="translate(0,5.0800036)"
       style="font-weight:bold;font-size:2.82222px;line-height:1.25;font-family:Tahoma;-inkscape-font-specification:'Tahoma, Bold';letter-spacing:0px;stroke-width:0.264583"
       id="text1464"
       aria-label="NOTE  ">
      <path
         id="path1513"
         style="font-size:2.82222px;stroke-width:0.264583"
         d="M 3.1045846,250.80594 H 2.6084912 l -0.7909933,-1.4304 v 1.4304 H 1.3462092 v -2.0519 h 0.6325191 l 0.6545676,1.17547 v -1.17547 h 0.4712887 z" />
      <path
         id="path1515"
         style="font-size:2.82222px;stroke-width:0.264583"
         d="m 5.3921264,249.78068 q 0,0.49747 -0.2659612,0.78272 -0.2659612,0.28526 -0.7289817,0.28526 -0.4643985,0 -0.7289816,-0.28801 -0.2645831,-0.28939 -0.2645831,-0.77997 0,-0.49472 0.2645831,-0.78135 0.2645831,-0.28801 0.7289816,-0.28801 0.4630205,0 0.7289817,0.28663 0.2659612,0.28526 0.2659612,0.78273 z m -0.5319224,-10e-4 q 0,-0.18328 -0.038585,-0.31144 -0.037207,-0.12953 -0.1005967,-0.21221 -0.066146,-0.0841 -0.1502061,-0.11989 -0.082682,-0.0372 -0.1722546,-0.0372 -0.095085,0 -0.1722547,0.0345 -0.07717,0.0331 -0.148828,0.11989 -0.06339,0.0799 -0.1033528,0.21222 -0.038585,0.13229 -0.038585,0.31557 0,0.18879 0.037207,0.31419 0.037207,0.12402 0.1019747,0.20809 0.066146,0.0854 0.1502061,0.12264 0.08406,0.0358 0.1736327,0.0358 0.09095,0 0.1763887,-0.0386 0.085438,-0.04 0.14745,-0.12264 0.066146,-0.0896 0.1019748,-0.20808 0.035829,-0.11989 0.035829,-0.31282 z" />
      <path
         id="path1517"
         style="font-size:2.82222px;stroke-width:0.264583"
         d="M 6.0894132,250.80594 V 249.1454 H 5.4830768 v -0.39136 h 1.7280586 v 0.39136 H 6.6047991 v 1.66054 z" />
      <path
         id="path1519"
         style="font-size:2.82222px;stroke-width:0.264583"
         d="m 7.426109,250.80594 v -2.0519 h 1.3876834 v 0.39136 H 7.9387388 v 0.35967 h 0.8061517 v 0.39136 H 7.9387388 v 0.51815 h 0.8750536 v 0.39136 z" />
    </g>
    <g
       transform="translate(2.85e-6,12.699997)"
       style="font-weight:bold;font-size:2.82222px;line-height:1.25;font-family:Tahoma;-inkscape-font-specification:'Tahoma, Bold';letter-spacing:0px;stroke-width:0.264583"
       id="text1472"
       aria-label="PROB">
      <path
         id="path1522"
         style="font-size:2.82222px;stroke-width:0.264583"
         d="m 2.7986572,262.10173 q 0,0.14332 -0.045475,0.27285 -0.045475,0.12954 -0.1309135,0.21635 -0.052365,0.0537 -0.1157551,0.0992 -0.062012,0.0455 -0.1378038,0.0772 -0.075792,0.0317 -0.1653644,0.0496 -0.088194,0.0179 -0.1984374,0.0179 H 1.7348126 v 0.6711 H 1.2194267 v -2.0519 h 0.7965054 q 0.1777668,0 0.3059243,0.0331 0.1295355,0.0317 0.2342663,0.10197 0.1157551,0.0772 0.1791448,0.20671 0.06339,0.12815 0.06339,0.30592 z m -0.5291662,0.0124 q 0,-0.0868 -0.041341,-0.14882 -0.041341,-0.0634 -0.099219,-0.0868 -0.073036,-0.0317 -0.1405598,-0.0358 -0.066146,-0.006 -0.1805229,-0.006 h -0.073036 v 0.6146 h 0.035829 q 0.073036,0 0.1378037,-10e-4 0.064768,-10e-4 0.1129991,-0.01 0.041341,-0.007 0.086816,-0.0262 0.046853,-0.0207 0.071658,-0.0455 0.052365,-0.051 0.07028,-0.10611 0.019292,-0.0551 0.019292,-0.14883 z" />
      <path
         id="path1524"
         style="font-size:2.82222px;stroke-width:0.264583"
         d="M 4.974578,263.50595 H 4.346193 l -0.5718854,-0.75241 h -0.184657 v 0.75241 H 3.0770208 v -2.0519 h 0.8254443 q 0.1708766,0 0.297656,0.022 0.1267794,0.0207 0.2342663,0.0882 0.110243,0.0703 0.1750107,0.17914 0.064768,0.10749 0.064768,0.27423 0,0.23565 -0.1061089,0.3831 -0.1061089,0.14607 -0.2838757,0.23288 z m -0.8295784,-1.42351 q 0,-0.0772 -0.030317,-0.13229 -0.028939,-0.0565 -0.097841,-0.0868 -0.048231,-0.0207 -0.1074869,-0.0262 -0.059256,-0.006 -0.1474499,-0.006 H 3.5896506 v 0.55259 h 0.14745 q 0.1074869,0 0.1819009,-0.0124 0.075792,-0.0138 0.1281575,-0.0565 0.049609,-0.0386 0.073036,-0.0923 Q 4.145,262.16874 4.145,262.08198 Z" />
      <path
         id="path1526"
         style="font-size:2.82222px;stroke-width:0.264583"
         d="m 6.9961585,262.48069 q 0,0.49747 -0.2659611,0.78273 -0.2659612,0.28525 -0.7289817,0.28525 -0.4643985,0 -0.7289817,-0.28801 -0.2645831,-0.28939 -0.2645831,-0.77997 0,-0.49471 0.2645831,-0.78135 0.2645832,-0.28801 0.7289817,-0.28801 0.4630205,0 0.7289817,0.28664 0.2659611,0.28525 0.2659611,0.78272 z m -0.5319223,-10e-4 q 0,-0.18328 -0.038585,-0.31143 -0.037207,-0.12954 -0.1005967,-0.21222 -0.066146,-0.0841 -0.150206,-0.11989 -0.082682,-0.0372 -0.1722547,-0.0372 -0.095085,0 -0.1722546,0.0344 -0.07717,0.0331 -0.148828,0.11989 -0.06339,0.0799 -0.1033528,0.21222 -0.038585,0.13229 -0.038585,0.31557 0,0.18879 0.037207,0.31419 0.037207,0.12403 0.1019747,0.20809 0.066146,0.0854 0.1502061,0.12264 0.08406,0.0358 0.1736326,0.0358 0.09095,0 0.1763888,-0.0386 0.085438,-0.04 0.14745,-0.12265 0.066146,-0.0896 0.1019747,-0.20808 0.035829,-0.11989 0.035829,-0.31282 z" />
      <path
         id="path1528"
         style="font-size:2.82222px;stroke-width:0.264583"
         d="m 8.9405687,262.87757 q 0,0.15296 -0.057878,0.26871 -0.057878,0.11576 -0.1557182,0.19155 -0.1157551,0.091 -0.2549368,0.12954 -0.1378037,0.0386 -0.3513995,0.0386 H 7.2993265 v -2.0519 H 8.024174 q 0.2259981,0 0.3417532,0.0179 0.1171332,0.0165 0.2191079,0.0717 0.110243,0.0593 0.1639864,0.15847 0.055122,0.0992 0.055122,0.22875 0,0.15021 -0.075792,0.26734 -0.074414,0.11714 -0.2067056,0.17226 v 0.011 q 0.1901691,0.04 0.3045462,0.16399 0.1143771,0.12264 0.1143771,0.33211 z m -0.6600798,-0.84336 q 0,-0.0496 -0.026183,-0.10198 -0.024805,-0.0524 -0.078548,-0.0758 -0.050987,-0.0221 -0.1212673,-0.0234 -0.068902,-0.003 -0.2067056,-0.003 H 7.811956 v 0.43408 h 0.064768 q 0.1322916,0 0.184657,-0.003 0.053743,-0.003 0.110243,-0.0289 0.062012,-0.0289 0.085438,-0.0799 0.023427,-0.051 0.023427,-0.11851 z m 0.1295355,0.83371 q 0,-0.0951 -0.038585,-0.14883 -0.038585,-0.0537 -0.1157552,-0.0813 -0.046853,-0.0179 -0.1295355,-0.0193 -0.081304,-0.003 -0.2191079,-0.003 h -0.095084 v 0.51401 h 0.027561 q 0.2011934,0 0.2783635,-0.003 0.07717,-0.003 0.1570963,-0.0372 0.07028,-0.0303 0.1019747,-0.0882 0.033073,-0.0593 0.033073,-0.13367 z" />
    </g>
    <g
       aria-label="CLK"
       id="text1452-7"
       style="font-weight:bold;font-size:4.23333px;line-height:1.25;font-family:Tahoma;-inkscape-font-specification:'Tahoma, Bold';letter-spacing:0px;display:inline;stroke-width:0.264583"
       transform="translate(9.9999986e-8,-22.859998)">
      <path
         d="m 3.3753688,202.58589 q -0.4616425,0 -0.7331158,-0.27836 -0.2714733,-0.27974 -0.2714733,-0.78548 0,-0.48783 0.2714733,-0.77722 0.2728514,-0.29076 0.7344938,-0.29076 0.1226453,0 0.220486,0.0138 0.097841,0.0138 0.187413,0.0386 0.07028,0.0207 0.1529621,0.0565 0.082682,0.0358 0.1336696,0.062 v 0.4892 h -0.052365 q -0.037207,-0.0331 -0.093706,-0.0786 -0.0565,-0.0468 -0.1281575,-0.0909 -0.071658,-0.0441 -0.1584742,-0.0744 -0.085438,-0.0317 -0.1791449,-0.0317 -0.111621,0 -0.2053275,0.0358 -0.092328,0.0344 -0.1763887,0.12127 -0.07717,0.0785 -0.1267795,0.21221 -0.048231,0.13367 -0.048231,0.31558 0,0.19154 0.050987,0.32246 0.050987,0.12953 0.1336696,0.20946 0.079926,0.0772 0.1777668,0.11162 0.099219,0.0345 0.1970593,0.0345 0.1019748,0 0.1943033,-0.0331 0.092328,-0.0344 0.1557182,-0.0758 0.068902,-0.0427 0.1212672,-0.0868 0.052365,-0.0441 0.09095,-0.0786 h 0.046853 v 0.48231 q -0.0565,0.0262 -0.1309135,0.0606 -0.074414,0.0331 -0.1529621,0.0565 -0.096463,0.0289 -0.1805229,0.0441 -0.08406,0.0152 -0.2315102,0.0152 z"
         style="font-size:2.82222px;stroke-width:0.264583"
         id="path1492-4" />
      <path
         d="M 5.7455927,202.54593 H 4.3758238 v -2.0519 h 0.5153859 v 1.66054 h 0.854383 z"
         style="font-size:2.82222px;stroke-width:0.264583"
         id="path1494-5" />
      <path
         d="M 7.7892217,202.54593 H 7.166349 l -0.5594831,-0.83371 -0.1005967,0.14056 v 0.69315 H 5.9908833 v -2.0519 h 0.5153859 v 0.91088 l 0.6559456,-0.91088 h 0.5966901 l -0.7317377,0.95223 z"
         style="font-size:2.82222px;stroke-width:0.264583"
         id="path1496-2" />
    </g>
    <g
       aria-label="CV"
       id="text929"
       style="font-weight:bold;font-size:2.82222px;line-height:1.25;font-family:Tahoma;-inkscape-font-specification:'Tahoma, Bold';letter-spacing:0px;stroke-width:0.264583">
      <path
         d="m 4.2249288,194.9659 q -0.4616424,0 -0.7331158,-0.27837 -0.2714733,-0.27974 -0.2714733,-0.78548 0,-0.48782 0.2714733,-0.77721 0.2728514,-0.29077 0.7344938,-0.29077 0.1226453,0 0.220486,0.0138 0.097841,0.0138 0.187413,0.0386 0.07028,0.0207 0.1529622,0.0565 0.082682,0.0358 0.1336696,0.062 v 0.4892 h -0.052365 q -0.037207,-0.0331 -0.093706,-0.0785 -0.0565,-0.0469 -0.1281574,-0.091 -0.071658,-0.0441 -0.1584743,-0.0744 -0.085438,-0.0317 -0.1791448,-0.0317 -0.111621,0 -0.2053276,0.0358 -0.092329,0.0345 -0.1763887,0.12127 -0.07717,0.0786 -0.1267794,0.21222 -0.048231,0.13367 -0.048231,0.31557 0,0.19155 0.050987,0.32246 0.050987,0.12954 0.1336696,0.20946 0.079926,0.0772 0.1777668,0.11162 0.099219,0.0345 0.1970593,0.0345 0.1019748,0 0.1943033,-0.0331 0.092328,-0.0344 0.1557182,-0.0758 0.068902,-0.0427 0.1212672,-0.0868 0.052365,-0.0441 0.09095,-0.0785 h 0.046853 v 0.48231 q -0.0565,0.0262 -0.1309136,0.0606 -0.074414,0.0331 -0.1529621,0.0565 -0.096463,0.0289 -0.1805229,0.0441 -0.08406,0.0152 -0.2315102,0.0152 z"
         style="font-size:2.82222px;stroke-width:0.264583"
         id="path936" />
      <path
         d="m 6.939662,192.87404 -0.705555,2.05189 H 5.6966725 l -0.705555,-2.05189 h 0.5346784 l 0.446484,1.39044 0.4464841,-1.39044 z"
         style="font-size:2.82222px;stroke-width:0.264583"
         id="path938" />
    </g>
    <g
       style="font-weight:bold;font-size:2.82222px;line-height:1.25;font-family:Tahoma;-inkscape-font-specification:'Tahoma, Bold';letter-spacing:0px;stroke-width:0.264583"
       id="text900"
       aria-label="ENBL">
      <path
         id="path911"
         style="font-size:2.82222px;stroke-width:0.264583"
         d="m 1.4709215,225.40594 v -2.05189 H 2.858605 v 0.39136 H 1.9835514 v 0.35967 h 0.8061517 v 0.39136 H 1.9835514 v 0.51814 H 2.858605 v 0.39136 z" />
      <path
         id="path913"
         style="font-size:2.82222px;stroke-width:0.264583"
         d="M 4.9656238,225.40594 H 4.4695304 l -0.7909933,-1.4304 v 1.4304 H 3.2072484 v -2.05189 h 0.632519 l 0.6545677,1.17546 v -1.17546 h 0.4712887 z" />
      <path
         id="path915"
         style="font-size:2.82222px;stroke-width:0.264583"
         d="m 7.0257895,224.77756 q 0,0.15296 -0.057878,0.26872 -0.057878,0.11575 -0.1557182,0.19154 -0.1157552,0.0909 -0.2549369,0.12954 -0.1378037,0.0386 -0.3513995,0.0386 H 5.3845473 v -2.05189 h 0.7248475 q 0.2259981,0 0.3417532,0.0179 0.1171332,0.0165 0.2191079,0.0717 0.110243,0.0593 0.1639865,0.15847 0.055121,0.0992 0.055121,0.22876 0,0.1502 -0.075792,0.26734 -0.074414,0.11713 -0.2067056,0.17225 v 0.011 q 0.1901691,0.04 0.3045462,0.16398 0.1143771,0.12265 0.1143771,0.33211 z M 6.3657097,223.9342 q 0,-0.0496 -0.026183,-0.10197 -0.024805,-0.0524 -0.078548,-0.0758 -0.050987,-0.022 -0.1212673,-0.0234 -0.068902,-0.003 -0.2067055,-0.003 h -0.035829 v 0.43408 h 0.064768 q 0.1322916,0 0.184657,-0.003 0.053744,-0.003 0.110243,-0.0289 0.062012,-0.0289 0.085438,-0.0799 0.023427,-0.051 0.023427,-0.11851 z m 0.1295355,0.83371 q 0,-0.0951 -0.038585,-0.14882 -0.038585,-0.0538 -0.1157552,-0.0813 -0.046853,-0.0179 -0.1295354,-0.0193 -0.081304,-0.003 -0.2191079,-0.003 h -0.095085 v 0.51401 h 0.027561 q 0.2011935,0 0.2783635,-0.003 0.07717,-0.003 0.1570963,-0.0372 0.07028,-0.0303 0.1019747,-0.0882 0.033073,-0.0592 0.033073,-0.13367 z" />
      <path
         id="path917"
         style="font-size:2.82222px;stroke-width:0.264583"
         d="M 8.6890801,225.40594 H 7.3193112 v -2.05189 h 0.5153859 v 1.66053 h 0.854383 z" />
    </g>
  </g>
  <g
     style="display:none"
     inkscape:label="components"
     id="layer2"
     inkscape:groupmode="layer">
    <circle
       inkscape:label="out9"
       style="display:inline;opacity:1;vector-effect:none;fill:#0000ff;fill-opacity:1;fill-rule:evenodd;stroke:none;stroke-width:1;stroke-linecap:butt;stroke-linejoin:miter;stroke-miterlimit:4;stroke-dasharray:none;stroke-dashoffset:0;stroke-opacity:1;paint-order:normal"
       id="circle9"
       cx="5.0800009"
       cy="106.68002"
       r="4" />
    <circle
       inkscape:label="polyin"
       r="4"
       cy="66.040009"
       cx="5.0800009"
       id="circle11"
       style="display:inline;opacity:1;vector-effect:none;fill:#00ff00;fill-opacity:1;fill-rule:evenodd;stroke:none;stroke-width:1;stroke-linecap:butt;stroke-linejoin:miter;stroke-miterlimit:4;stroke-dasharray:none;stroke-dashoffset:0;stroke-opacity:1;paint-order:normal" />
    <circle
       r="4"
       cy="10.160002"
       cx="5.0800009"
       id="circle1"
       style="display:inline;opacity:1;vector-effect:none;fill:#0000ff;fill-opacity:1;fill-rule:evenodd;stroke:none;stroke-width:1;stroke-linecap:butt;stroke-linejoin:miter;stroke-miterlimit:4;stroke-dasharray:none;stroke-dashoffset:0;stroke-opacity:1;paint-order:normal"
       inkscape:label="out1" />
    <circle
       r="4"
       cy="40.640007"
       cx="5.0800009"
       id="circle4"
       style="display:inline;opacity:1;vector-effect:none;fill:#0000ff;fill-opacity:1;fill-rule:evenodd;stroke:none;stroke-width:1;stroke-linecap:butt;stroke-linejoin:miter;stroke-miterlimit:4;stroke-dasharray:none;stroke-dashoffset:0;stroke-opacity:1;paint-order:normal"
       inkscape:label="out4" />
    <circle
       r="4"
       cy="50.800007"
       cx="5.0800009"
       id="circle5"
       style="display:inline;opacity:1;vector-effect:none;fill:#0000ff;fill-opacity:1;fill-rule:evenodd;stroke:none;stroke-width:1;stroke-linecap:butt;stroke-linejoin:miter;stroke-miterlimit:4;stroke-dasharray:none;stroke-dashoffset:0;stroke-opacity:1;paint-order:normal"
       inkscape:label="out5" />
    <circle
       r="4"
       cy="76.200012"
       cx="5.0800009"
       id="circle6"
       style="display:inline;opacity:1;vector-effect:none;fill:#0000ff;fill-opacity:1;fill-rule:evenodd;stroke:none;stroke-width:1;stroke-linecap:butt;stroke-linejoin:miter;stroke-miterlimit:4;stroke-dasharray:none;stroke-dashoffset:0;stroke-opacity:1;paint-order:normal"
       inkscape:label="out6" />
    <circle
       r="4"
       cy="86.360016"
       cx="5.0800009"
       id="circle7"
       style="display:inline;opacity:1;vector-effect:none;fill:#0000ff;fill-opacity:1;fill-rule:evenodd;stroke:none;stroke-width:1;stroke-linecap:butt;stroke-linejoin:miter;stroke-miterlimit:4;stroke-dasharray:none;stroke-dashoffset:0;stroke-opacity:1;paint-order:normal"
       inkscape:label="out7" />
    <circle
       r="4"
       cy="96.52002"
       cx="5.0800009"
       id="circle8"
       style="display:inline;opacity:1;vector-effect:none;fill:#0000ff;fill-opacity:1;fill-rule:evenodd;stroke:none;stroke-width:1;stroke-linecap:butt;stroke-linejoin:miter;stroke-miterlimit:4;stroke-dasharray:none;stroke-dashoffset:0;stroke-opacity:1;paint-order:normal"
       inkscape:label="out8" />
    <circle
       r="4"
       cy="30.480005"
       cx="5.0800009"
       id="circle3"
       style="display:inline;opacity:1;vector-effect:none;fill:#0000ff;fill-opacity:1;fill-rule:evenodd;stroke:none;stroke-width:1;stroke-linecap:butt;stroke-linejoin:miter;stroke-miterlimit:4;stroke-dasharray:none;stroke-dashoffset:0;stroke-opacity:1;paint-order:normal"
       inkscape:label="out3" />
    <circle
       r="4"
       cy="20.320004"
       cx="5.0800009"
       id="circle2"
       style="display:inline;opacity:1;vector-effect:none;fill:#0000ff;fill-opacity:1;fill-rule:evenodd;stroke:none;stroke-width:1;stroke-linecap:butt;stroke-linejoin:miter;stroke-miterlimit:4;stroke-dasharray:none;stroke-dashoffset:0;stroke-opacity:1;paint-order:normal"
       inkscape:label="out2" />
    <circle
       r="4"
       cy="116.84002"
       cx="5.0800009"
       id="circle10"
       style="display:inline;opacity:1;vector-effect:none;fill:#0000ff;fill-opacity:1;fill-rule:evenodd;stroke:none;stroke-width:1;stroke-linecap:butt;stroke-linejoin:miter;stroke-miterlimit:4;stroke-dasharray:none;stroke-dashoffset:0;stroke-opacity:1;paint-order:normal"
       inkscape:label="out10" />
    <circle
       r="0.035242248"
       cy="-48.154167"
       cx="-43.920834"
       style="fill:#000000;stroke:#000000;stroke-width:0.264583"
       id="path30" />
    <circle
       r="0.0088105621"
       cy="-2.5135417"
       cx="-32.279167"
       style="fill:#000000;stroke:#000000;stroke-width:0.264583"
       id="path32" />
    <circle
       r="0.0088105621"
       cy="0.1984375"
       cx="-17.991667"
       style="fill:#000000;stroke:#000000;stroke-width:0.264583"
       id="path34" />
    <circle
       r="0.0088105621"
       cy="2.9104166"
       cx="-25.069271"
       style="fill:#000000;stroke:#000000;stroke-width:0.264583"
       id="path36" />
    <text
       id="text42"
       y="11.90625"
       x="-38.695312"
       style="font-size:10.5833px;line-height:1.25;font-family:'Eras Bold ITC';-inkscape-font-specification:'Eras Bold ITC';stroke-width:0.264583"
       xml:space="preserve"><tspan
         style="font-style:normal;font-variant:normal;font-weight:bold;font-stretch:normal;font-size:3.52778px;font-family:Garamond;-inkscape-font-specification:'Garamond Bold';stroke-width:0.264583"
         y="11.90625"
         x="-38.695312"
         id="tspan40"
         sodipodi:role="line" /></text>
  </g>
</svg>
