<?xml version="1.0" encoding="UTF-8" standalone="no"?>
<svg
   xmlns:dc="http://purl.org/dc/elements/1.1/"
   xmlns:cc="http://creativecommons.org/ns#"
   xmlns:rdf="http://www.w3.org/1999/02/22-rdf-syntax-ns#"
   xmlns:svg="http://www.w3.org/2000/svg"
   xmlns="http://www.w3.org/2000/svg"
   xmlns:sodipodi="http://sodipodi.sourceforge.net/DTD/sodipodi-0.dtd"
   xmlns:inkscape="http://www.inkscape.org/namespaces/inkscape"
   sodipodi:docname="SheepWide.svg"
   inkscape:version="1.0 (4035a4fb49, 2020-05-01)"
   id="svg8"
   version="1.1"
   viewBox="0 0 40.640004 128.50002"
   height="128.5mm"
   width="40.639999mm">
  <defs
     id="defs2">
    <inkscape:path-effect
       effect="fillet_chamfer"
       id="path-effect95"
       is_visible="true"
       lpeversion="1"
       satellites_param="F,0,0,1,0,4,0,1 @ F,0,0,1,0,4,0,1 @ F,0,0,1,0,4,0,1 @ F,0,0,1,0,4,0,1"
       unit="mm"
       method="auto"
       mode="F"
       radius="4"
       chamfer_steps="1"
       flexible="false"
       use_knot_distance="true"
       apply_no_radius="true"
       apply_with_radius="true"
       only_selected="false"
       hide_knots="false" />
    <inkscape:path-effect
       effect="fillet_chamfer"
       id="path-effect105"
       is_visible="true"
       lpeversion="1"
       satellites_param="F,0,0,1,0,4,0,1 @ F,0,0,1,0,4,0,1 @ F,0,0,1,0,4,0,1 @ F,0,0,1,0,4,0,1"
       unit="mm"
       method="auto"
       mode="F"
       radius="4"
       chamfer_steps="1"
       flexible="false"
       use_knot_distance="true"
       apply_no_radius="true"
       apply_with_radius="true"
       only_selected="false"
       hide_knots="false" />
    <inkscape:path-effect
       effect="fillet_chamfer"
       id="path-effect96"
       is_visible="true"
       lpeversion="1"
       satellites_param="F,0,0,1,0,4,0,1 @ F,0,0,1,0,4,0,1 @ F,0,0,1,0,4,0,1 @ F,0,0,1,0,4,0,1"
       unit="mm"
       method="auto"
       mode="F"
       radius="4"
       chamfer_steps="1"
       flexible="false"
       use_knot_distance="true"
       apply_no_radius="true"
       apply_with_radius="true"
       only_selected="false"
       hide_knots="false" />
    <inkscape:path-effect
       hide_knots="false"
       only_selected="false"
       apply_with_radius="true"
       apply_no_radius="true"
       use_knot_distance="true"
       flexible="false"
       chamfer_steps="1"
       radius="4"
       mode="F"
       method="auto"
       unit="mm"
       satellites_param="F,0,0,1,0,4,0,1 @ F,0,0,1,0,4,0,1 @ F,0,0,1,0,4,0,1 @ F,0,0,1,0,4,0,1"
       lpeversion="1"
       is_visible="true"
       id="path-effect77"
       effect="fillet_chamfer" />
    <inkscape:path-effect
       hide_knots="false"
       only_selected="false"
       apply_with_radius="true"
       apply_no_radius="true"
       use_knot_distance="true"
       flexible="false"
       chamfer_steps="1"
       radius="4"
       mode="F"
       method="auto"
       unit="mm"
       satellites_param="F,0,0,1,0,4,0,1 @ F,0,0,1,0,4,0,1 @ F,0,0,1,0,4,0,1 @ F,0,0,1,0,4,0,1"
       lpeversion="1"
       is_visible="true"
       id="path-effect161"
       effect="fillet_chamfer" />
    <inkscape:path-effect
       hide_knots="false"
       only_selected="false"
       apply_with_radius="true"
       apply_no_radius="true"
       use_knot_distance="true"
       flexible="false"
       chamfer_steps="1"
       radius="4"
       mode="F"
       method="auto"
       unit="mm"
       satellites_param="F,0,0,1,0,4,0,1 @ F,0,0,1,0,4,0,1 @ F,0,0,1,0,4,0,1 @ F,0,0,1,0,4,0,1"
       lpeversion="1"
       is_visible="true"
       id="path-effect152"
       effect="fillet_chamfer" />
    <inkscape:path-effect
       hide_knots="false"
       only_selected="false"
       apply_with_radius="true"
       apply_no_radius="true"
       use_knot_distance="true"
       flexible="false"
       chamfer_steps="1"
       radius="4"
       mode="F"
       method="auto"
       unit="mm"
       satellites_param="F,0,0,1,0,4,0,1 @ F,0,0,1,0,4,0,1 @ F,0,0,1,0,4,0,1 @ F,0,0,1,0,4,0,1"
       lpeversion="1"
       is_visible="true"
       id="path-effect143"
       effect="fillet_chamfer" />
    <inkscape:path-effect
       effect="fillet_chamfer"
       id="path-effect124"
       is_visible="true"
       lpeversion="1"
       satellites_param="F,0,0,1,0,4,0,1 @ F,0,0,1,0,4,0,1 @ F,0,0,1,0,4,0,1 @ F,0,0,1,0,4,0,1"
       unit="mm"
       method="auto"
       mode="F"
       radius="4"
       chamfer_steps="1"
       flexible="false"
       use_knot_distance="true"
       apply_no_radius="true"
       apply_with_radius="true"
       only_selected="false"
       hide_knots="false" />
    <inkscape:path-effect
       hide_knots="false"
       only_selected="false"
       apply_with_radius="true"
       apply_no_radius="true"
       use_knot_distance="true"
       flexible="false"
       chamfer_steps="1"
       radius="4"
       mode="F"
       method="auto"
       unit="mm"
       satellites_param="F,0,0,1,0,4,0,1 @ F,0,0,1,0,4,0,1 @ F,0,0,1,0,4,0,1 @ F,0,0,1,0,4,0,1"
       lpeversion="1"
       is_visible="true"
       id="path-effect154"
       effect="fillet_chamfer" />
  </defs>
  <sodipodi:namedview
     guidetolerance="28.7"
     gridtolerance="26.6"
     objecttolerance="24.3"
     inkscape:lockguides="false"
     inkscape:document-rotation="0"
     inkscape:snap-nodes="false"
     inkscape:snap-bbox-midpoints="true"
     inkscape:window-maximized="1"
     inkscape:window-y="-11"
     inkscape:window-x="-11"
     inkscape:window-height="1046"
     inkscape:window-width="1780"
     inkscape:snap-bbox-edge-midpoints="false"
     inkscape:bbox-nodes="false"
     inkscape:snap-page="true"
     inkscape:snap-bbox="true"
     units="mm"
     showgrid="true"
     inkscape:current-layer="layer1"
     inkscape:document-units="mm"
     inkscape:cy="153.74475"
     inkscape:cx="131.58386"
     inkscape:zoom="2.5431548"
     inkscape:pageshadow="2"
     inkscape:pageopacity="0.0"
     borderopacity="1.0"
     bordercolor="#666666"
     pagecolor="#ffffff"
     id="base">
    <inkscape:grid
       empspacing="4"
       empopacity="0.25098039"
       empcolor="#71530f"
       spacingy="2.5400004"
       spacingx="2.5400004"
       opacity="0.53333333"
       color="#ffd984"
       units="mm"
       id="grid86"
       type="xygrid" />
  </sodipodi:namedview>
  <metadata
     id="metadata5">
    <rdf:RDF>
      <cc:Work
         rdf:about="">
        <dc:format>image/svg+xml</dc:format>
        <dc:type
           rdf:resource="http://purl.org/dc/dcmitype/StillImage" />
        <dc:title />
        <dc:creator>
          <cc:Agent>
            <dc:title>Firo Lightfog</dc:title>
          </cc:Agent>
        </dc:creator>
      </cc:Work>
    </rdf:RDF>
  </metadata>
  <g
     transform="translate(0,-168.49998)"
     id="layer1"
     inkscape:groupmode="layer"
     inkscape:label="Layer 1"
     style="display:inline">
    <rect
       y="168.49834"
       x="0.068502754"
       height="128.54678"
       width="40.503002"
       id="rect420"
       style="display:inline;opacity:1;vector-effect:none;fill:#cccccc;fill-opacity:1;fill-rule:evenodd;stroke:none;stroke-width:0.748688;stroke-linecap:butt;stroke-linejoin:miter;stroke-miterlimit:4;stroke-dasharray:none;stroke-dashoffset:0;stroke-opacity:1;paint-order:normal" />
    <g
       transform="translate(2.6999999e-6,-15.239991)"
       style="font-weight:bold;font-size:2.82222px;line-height:1.25;font-family:Tahoma;-inkscape-font-specification:'Tahoma, Bold';letter-spacing:0px;stroke-width:0.264583"
       id="text337"
       aria-label="MAXV">
      <path
         id="path348"
         style="font-size:2.82222px;stroke-width:0.264583"
         d="m 31.064568,276.20593 h -0.51263 v -1.36012 l -0.373448,0.87781 h -0.3514 l -0.373448,-0.87781 v 1.36012 h -0.485069 v -2.05189 h 0.593934 l 0.454752,1.01285 0.453375,-1.01285 h 0.593934 z" />
      <path
         id="path350"
         style="font-size:2.82222px;stroke-width:0.264583"
         d="m 31.267139,276.20593 0.693153,-2.05189 h 0.562239 l 0.693153,2.05189 h -0.530545 l -0.128157,-0.41892 H 31.91206 l -0.128157,0.41892 z m 1.176844,-0.79099 -0.209462,-0.67662 -0.209461,0.67662 z" />
      <path
         id="path352"
         style="font-size:2.82222px;stroke-width:0.264583"
         d="m 35.158716,276.20593 h -0.598068 l -0.394119,-0.65457 -0.402386,0.65457 h -0.570508 l 0.665592,-1.03353 -0.639409,-1.01836 h 0.59669 l 0.369314,0.61873 0.37896,-0.61873 h 0.571886 l -0.643544,0.99769 z" />
      <path
         id="path354"
         style="font-size:2.82222px;stroke-width:0.264583"
         d="m 37.071432,274.15404 -0.705555,2.05189 h -0.537435 l -0.705555,-2.05189 h 0.534678 l 0.446484,1.39043 0.446485,-1.39043 z" />
    </g>
    <text
       id="text59"
       y="277.43234"
       x="1.1693041"
       style="font-size:10.5833px;line-height:1.25;font-family:'Eras Bold ITC';-inkscape-font-specification:'Eras Bold ITC';stroke-width:0.264583"
       xml:space="preserve"><tspan
         style="font-size:2.82222px;fill:#ffff00;stroke-width:0.264583"
         y="277.43234"
         x="1.1693041"
         id="tspan57"
         sodipodi:role="line" /></text>
    <text
       id="text127"
       y="172.05467"
       x="-78.577248"
       style="font-size:10.5833px;line-height:1.25;font-family:'Eras Bold ITC';-inkscape-font-specification:'Eras Bold ITC';stroke-width:0.264583"
       xml:space="preserve"><tspan
         style="stroke-width:0.264583"
         y="172.05467"
         x="-78.577248"
         id="tspan125"
         sodipodi:role="line" /></text>
    <text
       id="text131"
       y="186.46049"
       x="-89.989647"
       style="font-size:10.5833px;line-height:1.25;font-family:'Eras Bold ITC';-inkscape-font-specification:'Eras Bold ITC';stroke-width:0.264583"
       xml:space="preserve"><tspan
         style="stroke-width:0.264583"
         y="186.46049"
         x="-89.989647"
         id="tspan129"
         sodipodi:role="line" /></text>
    <g
       style="font-weight:bold;font-size:6.35px;line-height:1.25;font-family:Tahoma;-inkscape-font-specification:'Tahoma, Bold';fill:#000000;stroke-width:0.264583"
       id="text104"
       aria-label="b"
       transform="translate(10.160002)">
      <path
         id="path116"
         style="font-style:normal;font-variant:normal;font-weight:bold;font-stretch:normal;font-size:14.1111px;font-family:'Wingdings 2';-inkscape-font-specification:'Wingdings 2 Bold';fill:#000000;stroke-width:0.264583"
         d="m 3.2732611,177.4586 v 0.68213 q 0.3927406,0 0.592556,0.19982 0.2067056,0.19981 0.3927406,0.76481 l 0.110243,0.34451 q 0.37207,1.14377 1.2195628,1.50206 -0.7854811,0.15158 -1.2540138,0.64768 -0.4616424,0.4892 -0.4616424,1.16444 0,0.94395 0.7096891,1.56407 0.7096891,0.61323 1.7983385,0.61323 1.6536445,0 2.5562588,-1.41938 L 8.4064495,183.0741 q -0.5856658,0.62701 -1.2057825,0.62701 -0.5098738,0 -0.8750536,-0.33073 -0.3651799,-0.33762 -0.3651799,-0.79926 0,-0.38585 0.2824977,-0.66835 0.2893878,-0.28249 0.6752382,-0.28249 0.6959087,0 1.9499225,0.98529 l 0.4203013,0.33073 q 2.0463848,1.6123 3.9067348,1.6123 1.612304,0 2.728514,-1.06108 1.1231,-1.06109 1.1231,-2.58382 0,-1.54341 -1.157551,-2.49425 -1.157551,-0.95085 -3.038572,-0.95085 h -0.227376 v 0.68213 q 1.11621,0.0758 1.770778,0.77859 0.654567,0.69591 0.654567,1.81212 0,1.10243 -0.826822,1.88791 -0.826822,0.77859 -1.998154,0.77859 -1.12999,0 -2.011934,-0.68901 -0.8819437,-0.68902 -0.8819437,-1.57097 0,-0.4203 0.2687173,-0.70969 0.2756074,-0.28938 0.6752384,-0.28938 0.399631,0 0.599446,0.22048 0.206705,0.2136 0.206705,0.65457 0,0.26872 -0.151584,0.6339 l 0.620117,0.28249 q 0.413411,-0.9784 0.413411,-1.63986 0,-0.81304 -0.530544,-1.39182 -0.523654,-0.58566 -1.267794,-0.58566 -0.475423,0 -0.8681636,0.23426 -0.3927406,0.23427 -0.7027989,0.70969 -0.3996308,-0.99907 -1.2677942,-1.39871 -0.8612732,-0.39963 -2.6182705,-0.39963 z m 4.9609337,3.36241 Q 7.2213375,180.62809 6.3807349,179.13292 L 6.2636017,178.9331 q -0.3651798,-0.64767 -0.8819437,-0.84749 2.6320509,0 2.8525368,2.7354 z" />
    </g>
    <g
       aria-label="SHEEPW"
       id="text37"
       style="font-weight:bold;font-size:4.23333px;line-height:1.25;font-family:Tahoma;-inkscape-font-specification:'Tahoma, Bold';letter-spacing:0px;stroke-width:0.264583">
      <path
         d="m 12.415582,294.55474 q -0.353466,0 -0.622184,-0.0682 -0.26665,-0.0682 -0.496093,-0.1695 v -0.73174 h 0.07028 q 0.23151,0.19637 0.510563,0.30179 0.279052,0.10542 0.541568,0.10542 0.06615,0 0.173633,-0.0145 0.109554,-0.0145 0.1757,-0.0455 0.08061,-0.0351 0.136425,-0.0971 0.05581,-0.0641 0.05581,-0.16743 0,-0.11576 -0.09095,-0.18811 -0.09095,-0.0723 -0.217041,-0.10542 -0.157096,-0.0413 -0.33693,-0.0785 -0.177766,-0.0372 -0.332796,-0.0909 -0.3576,-0.1261 -0.512629,-0.339 -0.155029,-0.21291 -0.155029,-0.5333 0,-0.43202 0.365868,-0.69867 0.365869,-0.26871 0.913639,-0.26871 0.274918,0 0.545703,0.0558 0.272851,0.0558 0.487825,0.15089 v 0.7028 h -0.06821 q -0.171566,-0.14676 -0.419612,-0.24805 -0.24598,-0.10128 -0.506429,-0.10128 -0.101286,0 -0.181901,0.0145 -0.08061,0.0145 -0.169498,0.0558 -0.07235,0.0331 -0.126091,0.0992 -0.05168,0.0641 -0.05168,0.14469 0,0.11782 0.08268,0.1881 0.08475,0.0682 0.324528,0.12403 0.155029,0.0351 0.297656,0.0682 0.144694,0.0331 0.307991,0.091 0.320394,0.11575 0.475423,0.31212 0.157096,0.19431 0.157096,0.5147 0,0.45889 -0.361735,0.73794 -0.359667,0.27905 -0.973583,0.27905 z"
         style="stroke-width:0.264583"
         id="path39" />
      <path
         d="m 16.741929,294.49893 h -0.773078 v -1.36425 h -1.052132 v 1.36425 h -0.773078 v -3.07784 h 0.773078 v 1.12654 h 1.052132 v -1.12654 h 0.773078 z"
         style="stroke-width:0.264583"
         id="path41" />
      <path
         d="m 17.376515,294.49893 v -3.07784 h 2.081525 v 0.58704 h -1.31258 v 0.5395 h 1.209228 v 0.58705 H 18.14546 v 0.77721 h 1.31258 v 0.58704 z"
         style="stroke-width:0.264583"
         id="path43" />
      <path
         d="m 19.981005,294.49893 v -3.07784 h 2.081525 v 0.58704 h -1.31258 v 0.5395 h 1.209227 v 0.58705 H 20.74995 v 0.77721 h 1.31258 v 0.58704 z"
         style="stroke-width:0.264583"
         id="path45" />
      <path
         d="m 24.954341,292.3926 q 0,0.21498 -0.06821,0.40928 -0.06821,0.1943 -0.19637,0.32453 -0.07855,0.0806 -0.173633,0.14882 -0.09302,0.0682 -0.206705,0.11576 -0.113688,0.0475 -0.248047,0.0744 -0.132291,0.0269 -0.297656,0.0269 h -0.405143 v 1.00665 h -0.773078 v -3.07784 h 1.194758 q 0.26665,0 0.458886,0.0496 0.194303,0.0475 0.351399,0.15296 0.173633,0.11575 0.268718,0.31006 0.09508,0.19223 0.09508,0.45888 z m -0.793749,0.0186 q 0,-0.13023 -0.06201,-0.22325 -0.06201,-0.0951 -0.148828,-0.13022 -0.109554,-0.0475 -0.210839,-0.0537 -0.09922,-0.008 -0.270785,-0.008 h -0.109554 v 0.9219 h 0.05374 q 0.109554,0 0.206705,-0.002 0.09715,-0.002 0.169499,-0.0145 0.06201,-0.0103 0.130224,-0.0393 0.07028,-0.031 0.107487,-0.0682 0.07855,-0.0765 0.10542,-0.15916 0.02894,-0.0827 0.02894,-0.22324 z"
         style="stroke-width:0.264583"
         id="path47" />
      <path
         d="m 29.342701,291.42109 -0.77928,3.07784 h -0.847493 l -0.494026,-1.90376 -0.479557,1.90376 h -0.847493 l -0.77928,-3.07784 h 0.802017 l 0.423747,2.06498 0.516764,-2.06498 h 0.766877 l 0.489893,2.06498 0.446484,-2.06498 z"
         style="stroke-width:0.264583"
         id="path49" />
    </g>
    <path
       style="display:inline;fill:#de8787;stroke-width:0.825322"
       d="M 0.13603883,212.86226 H 40.409935 l -0.01631,40.59138 H 0.11972427 Z"
       id="rect48-1-6" />
    <g
       transform="translate(20.320005,93.980008)"
       style="font-weight:bold;font-size:2.82222px;line-height:1.25;font-family:Tahoma;-inkscape-font-specification:'Tahoma, Bold';letter-spacing:0px;display:inline;stroke-width:0.264583"
       id="text397"
       aria-label="CLK">
      <path
         id="path435"
         style="font-size:2.82222px;stroke-width:0.264583"
         d="m 3.3753666,187.3459 q -0.4616424,0 -0.7331157,-0.27836 -0.2714734,-0.27974 -0.2714734,-0.78548 0,-0.48783 0.2714734,-0.77722 0.2728513,-0.29076 0.7344938,-0.29076 0.1226453,0 0.2204859,0.0138 0.097841,0.0138 0.1874131,0.0386 0.07028,0.0207 0.1529621,0.0565 0.082682,0.0358 0.1336696,0.062 v 0.48921 H 4.01891 q -0.037207,-0.0331 -0.093707,-0.0785 -0.0565,-0.0469 -0.1281575,-0.091 -0.071658,-0.0441 -0.1584743,-0.0744 -0.085438,-0.0317 -0.1791448,-0.0317 -0.111621,0 -0.2053275,0.0358 -0.092328,0.0345 -0.1763888,0.12127 -0.07717,0.0786 -0.1267794,0.21221 -0.048231,0.13367 -0.048231,0.31558 0,0.19154 0.050987,0.32246 0.050987,0.12953 0.1336696,0.20946 0.079926,0.0772 0.1777668,0.11162 0.099219,0.0345 0.1970593,0.0345 0.1019747,0 0.1943032,-0.0331 0.092329,-0.0344 0.1557182,-0.0758 0.068902,-0.0427 0.1212673,-0.0868 0.052365,-0.0441 0.09095,-0.0786 h 0.046853 v 0.48231 q -0.0565,0.0262 -0.1309135,0.0606 -0.074414,0.0331 -0.1529622,0.0565 -0.096463,0.0289 -0.1805228,0.0441 -0.08406,0.0152 -0.2315103,0.0152 z" />
      <path
         id="path437"
         style="font-size:2.82222px;stroke-width:0.264583"
         d="m 5.7455906,187.30594 h -1.369769 v -2.0519 h 0.5153859 v 1.66054 h 0.8543831 z" />
      <path
         id="path439"
         style="font-size:2.82222px;stroke-width:0.264583"
         d="M 7.7892196,187.30594 H 7.1663468 l -0.5594831,-0.83371 -0.1005967,0.14056 v 0.69315 H 5.9908811 v -2.0519 H 6.506267 v 0.91088 l 0.6559457,-0.91088 h 0.5966901 l -0.7317377,0.95223 z" />
    </g>
    <g
       transform="translate(20.320003,93.980015)"
       style="font-weight:bold;font-size:2.82222px;line-height:1.25;font-family:Tahoma;-inkscape-font-specification:'Tahoma, Bold';letter-spacing:0px;display:inline;stroke-width:0.264583"
       id="text401"
       aria-label="RST">
      <path
         id="path442"
         style="font-size:2.82222px;stroke-width:0.264583"
         d="m 14.461409,187.30594 h -0.628385 l -0.571885,-0.75241 h -0.184657 v 0.75241 h -0.51263 v -2.0519 h 0.825444 q 0.170877,0 0.297656,0.0221 0.126779,0.0207 0.234266,0.0882 0.110243,0.0703 0.175011,0.17915 0.06477,0.10749 0.06477,0.27423 0,0.23564 -0.106109,0.38309 -0.106109,0.14607 -0.283876,0.23289 z m -0.829578,-1.42351 q 0,-0.0772 -0.03032,-0.1323 -0.02894,-0.0565 -0.09784,-0.0868 -0.04823,-0.0207 -0.107487,-0.0262 -0.05926,-0.006 -0.14745,-0.006 H 13.07648 v 0.5526 h 0.14745 q 0.107486,0 0.1819,-0.0124 0.07579,-0.0138 0.128158,-0.0565 0.04961,-0.0386 0.07304,-0.0923 0.02481,-0.0537 0.02481,-0.14056 z" />
      <path
         id="path444"
         style="font-size:2.82222px;stroke-width:0.264583"
         d="m 15.248268,187.34315 q -0.235644,0 -0.414789,-0.0455 -0.177767,-0.0455 -0.330729,-0.113 v -0.48782 h 0.04685 q 0.15434,0.13091 0.340375,0.20119 0.186035,0.0703 0.361046,0.0703 0.0441,0 0.115755,-0.01 0.07304,-0.01 0.117133,-0.0303 0.05374,-0.0234 0.09095,-0.0648 0.03721,-0.0427 0.03721,-0.11162 0,-0.0772 -0.06063,-0.1254 -0.06063,-0.0482 -0.144694,-0.0703 -0.10473,-0.0276 -0.22462,-0.0524 -0.118511,-0.0248 -0.221864,-0.0606 -0.2384,-0.0841 -0.341753,-0.226 -0.103353,-0.14194 -0.103353,-0.35553 0,-0.28801 0.243913,-0.46578 0.243912,-0.17915 0.609092,-0.17915 0.183279,0 0.363802,0.0372 0.181901,0.0372 0.325217,0.1006 v 0.46853 h -0.04547 q -0.114377,-0.0978 -0.279742,-0.16536 -0.163986,-0.0675 -0.337619,-0.0675 -0.06752,0 -0.121267,0.01 -0.05374,0.01 -0.112999,0.0372 -0.04823,0.022 -0.08406,0.0661 -0.03445,0.0427 -0.03445,0.0965 0,0.0785 0.05512,0.12541 0.0565,0.0455 0.216352,0.0827 0.103353,0.0234 0.198437,0.0455 0.09646,0.022 0.205328,0.0606 0.213595,0.0772 0.316948,0.20808 0.104731,0.12954 0.104731,0.34313 0,0.30593 -0.241156,0.49196 -0.239779,0.18604 -0.649056,0.18604 z" />
      <path
         id="path446"
         style="font-size:2.82222px;stroke-width:0.264583"
         d="m 16.794426,187.30594 v -1.66054 h -0.606337 v -0.39136 h 1.728059 v 0.39136 h -0.606336 v 1.66054 z" />
    </g>
    <g
       transform="translate(17.780006,-76.199997)"
       style="font-weight:bold;font-size:2.82222px;line-height:1.25;font-family:Tahoma;-inkscape-font-specification:'Tahoma, Bold';letter-spacing:0px;display:inline;stroke-width:0.264583"
       id="text405"
       aria-label="RND">
      <path
         id="path449"
         style="font-size:2.82222px;stroke-width:0.264583"
         d="m 14.107252,263.50595 h -0.628385 l -0.571885,-0.75241 h -0.184657 v 0.75241 h -0.51263 v -2.0519 h 0.825445 q 0.170876,0 0.297656,0.022 0.126779,0.0207 0.234266,0.0882 0.110243,0.0703 0.175011,0.17914 0.06477,0.10749 0.06477,0.27423 0,0.23565 -0.106109,0.3831 -0.106108,0.14607 -0.283875,0.23288 z m -0.829578,-1.42351 q 0,-0.0772 -0.03032,-0.13229 -0.02894,-0.0565 -0.09784,-0.0868 -0.04823,-0.0207 -0.107487,-0.0262 -0.05926,-0.006 -0.14745,-0.006 h -0.172255 v 0.55259 h 0.14745 q 0.107487,0 0.181901,-0.0124 0.07579,-0.0138 0.128157,-0.0565 0.04961,-0.0386 0.07304,-0.0923 0.0248,-0.0538 0.0248,-0.14056 z" />
      <path
         id="path451"
         style="font-size:2.82222px;stroke-width:0.264583"
         d="m 16.01859,263.50595 h -0.496093 l -0.790994,-1.4304 v 1.4304 h -0.471289 v -2.0519 h 0.63252 l 0.654567,1.17547 v -1.17547 h 0.471289 z" />
      <path
         id="path453"
         style="font-size:2.82222px;stroke-width:0.264583"
         d="m 18.270303,262.48207 q 0,0.28663 -0.125402,0.51401 -0.125401,0.226 -0.316948,0.34726 -0.159853,0.10336 -0.348644,0.13367 -0.187413,0.0289 -0.39963,0.0289 h -0.642166 v -2.0519 h 0.636653 q 0.216352,0 0.405143,0.0276 0.188791,0.0276 0.354156,0.13367 0.202571,0.12954 0.319705,0.35003 0.117133,0.2191 0.117133,0.51676 z m -0.529167,-0.004 q 0,-0.20258 -0.07028,-0.34589 -0.0689,-0.1447 -0.213596,-0.226 -0.104731,-0.0579 -0.220486,-0.0634 -0.114377,-0.006 -0.27423,-0.006 h -0.0096 v 1.28433 h 0.0096 q 0.173633,0 0.292144,-0.006 0.11989,-0.007 0.227376,-0.0744 0.12678,-0.0799 0.192926,-0.22048 0.06615,-0.14056 0.06615,-0.34313 z" />
    </g>
    <g
       transform="translate(2.25e-6,5.0802018)"
       style="font-weight:bold;font-size:2.82222px;line-height:1.25;font-family:Tahoma;-inkscape-font-specification:'Tahoma, Bold';letter-spacing:0px;display:inline;stroke-width:0.264583"
       id="text417"
       aria-label="STR">
      <path
         id="path463"
         style="font-size:2.82222px;stroke-width:0.264583"
         d="m 3.0625522,271.16315 q -0.2356444,0 -0.4147892,-0.0455 -0.1777668,-0.0455 -0.3307289,-0.113 v -0.48783 h 0.046853 q 0.1543402,0.13092 0.3403752,0.2012 0.186035,0.0703 0.3610457,0.0703 0.044097,0 0.1157551,-0.01 0.073036,-0.01 0.1171332,-0.0303 0.053743,-0.0234 0.09095,-0.0648 0.037207,-0.0427 0.037207,-0.11162 0,-0.0772 -0.060634,-0.12541 -0.060634,-0.0482 -0.1446939,-0.0703 -0.1047308,-0.0276 -0.22462,-0.0524 -0.1185112,-0.0248 -0.221864,-0.0606 -0.2384004,-0.0841 -0.3417532,-0.22599 -0.1033528,-0.14194 -0.1033528,-0.35554 0,-0.28801 0.2439126,-0.46577 0.2439125,-0.17915 0.6090924,-0.17915 0.1832789,0 0.3638018,0.0372 0.1819009,0.0372 0.3252168,0.1006 v 0.46853 H 3.825984 q -0.1143771,-0.0978 -0.2797415,-0.16537 -0.1639864,-0.0675 -0.3376191,-0.0675 -0.067524,0 -0.1212673,0.01 -0.053743,0.01 -0.112999,0.0372 -0.048231,0.0221 -0.08406,0.0661 -0.034451,0.0427 -0.034451,0.0965 0,0.0786 0.055121,0.1254 0.0565,0.0455 0.2163518,0.0827 0.1033528,0.0234 0.1984373,0.0455 0.096463,0.022 0.2053276,0.0606 0.2135957,0.0772 0.3169485,0.20809 0.1047309,0.12953 0.1047309,0.34313 0,0.30592 -0.2411566,0.49196 -0.2397784,0.18603 -0.6490554,0.18603 z" />
      <path
         id="path465"
         style="font-size:2.82222px;stroke-width:0.264583"
         d="m 4.6087098,271.12595 v -1.66054 H 4.0023735 v -0.39136 H 5.730432 v 0.39136 H 5.1240957 v 1.66054 z" />
      <path
         id="path467"
         style="font-size:2.82222px;stroke-width:0.264583"
         d="M 7.842963,271.12595 H 7.2145781 l -0.5718854,-0.75241 h -0.184657 v 0.75241 H 5.9454059 v -2.0519 h 0.8254442 q 0.1708766,0 0.2976561,0.022 0.1267794,0.0207 0.2342663,0.0882 0.1102429,0.0703 0.1750107,0.17915 0.064768,0.10748 0.064768,0.27423 0,0.23564 -0.1061088,0.38309 -0.1061089,0.14607 -0.2838757,0.23289 z m -0.8295783,-1.42352 q 0,-0.0772 -0.030317,-0.13229 -0.028939,-0.0565 -0.097841,-0.0868 -0.048231,-0.0207 -0.1074869,-0.0262 -0.059256,-0.006 -0.14745,-0.006 H 6.4580357 v 0.55259 h 0.14745 q 0.1074869,0 0.1819009,-0.0124 0.075792,-0.0138 0.1281574,-0.0565 0.049609,-0.0386 0.073036,-0.0923 0.024805,-0.0537 0.024805,-0.14056 z" />
    </g>
    <g
       transform="translate(20.320006,-2.5399732)"
       style="font-weight:bold;font-size:2.82222px;line-height:1.25;font-family:Tahoma;-inkscape-font-specification:'Tahoma, Bold';letter-spacing:0px;display:inline;stroke-width:0.264583"
       id="text421"
       aria-label="END">
      <path
         id="path470"
         style="font-size:2.82222px;stroke-width:0.264583"
         d="m 12.366792,278.74594 v -2.0519 h 1.387684 v 0.39137 h -0.875054 v 0.35966 h 0.806152 v 0.39137 h -0.806152 v 0.51814 h 0.875054 v 0.39136 z" />
      <path
         id="path472"
         style="font-size:2.82222px;stroke-width:0.264583"
         d="m 15.861494,278.74594 h -0.496093 l -0.790993,-1.4304 v 1.4304 h -0.471289 v -2.0519 h 0.632519 l 0.654568,1.17547 v -1.17547 h 0.471288 z" />
      <path
         id="path474"
         style="font-size:2.82222px;stroke-width:0.264583"
         d="m 18.113207,277.72206 q 0,0.28663 -0.125401,0.51401 -0.125402,0.226 -0.316949,0.34726 -0.159852,0.10336 -0.348643,0.13367 -0.187413,0.0289 -0.399631,0.0289 h -0.642165 v -2.0519 h 0.636653 q 0.216352,0 0.405143,0.0276 0.188791,0.0276 0.354155,0.13367 0.202572,0.12954 0.319705,0.35003 0.117133,0.2191 0.117133,0.51676 z m -0.529166,-0.004 q 0,-0.20258 -0.07028,-0.34589 -0.0689,-0.1447 -0.213596,-0.226 -0.10473,-0.0579 -0.220486,-0.0634 -0.114377,-0.006 -0.274229,-0.006 h -0.0096 v 1.28433 h 0.0096 q 0.173633,0 0.292144,-0.006 0.119889,-0.007 0.227376,-0.0744 0.126779,-0.0799 0.192925,-0.22048 0.06615,-0.14056 0.06615,-0.34313 z" />
    </g>
    <g
       transform="translate(-10.160002,-7.6199824)"
       style="font-weight:bold;font-size:2.82222px;line-height:1.25;font-family:Tahoma;-inkscape-font-specification:'Tahoma, Bold';letter-spacing:0px;display:inline;stroke-width:0.264583"
       id="text429"
       aria-label="DIV">
      <path
         id="path484"
         style="font-size:2.82222px;stroke-width:0.264583"
         d="m 14.46279,287.88206 q 0,0.28663 -0.125401,0.51401 -0.125402,0.226 -0.316949,0.34727 -0.159852,0.10335 -0.348643,0.13367 -0.187413,0.0289 -0.399631,0.0289 h -0.642165 v -2.05189 h 0.636653 q 0.216352,0 0.405143,0.0276 0.188791,0.0276 0.354155,0.13367 0.202572,0.12953 0.319705,0.35002 0.117133,0.21911 0.117133,0.51676 z m -0.529166,-0.004 q 0,-0.20257 -0.07028,-0.34589 -0.0689,-0.14469 -0.213596,-0.226 -0.104731,-0.0579 -0.220486,-0.0634 -0.114377,-0.006 -0.274229,-0.006 h -0.0096 v 1.28433 h 0.0096 q 0.173632,0 0.292144,-0.006 0.119889,-0.007 0.227376,-0.0744 0.126779,-0.0799 0.192925,-0.22049 0.06615,-0.14056 0.06615,-0.34313 z" />
      <path
         id="path486"
         style="font-size:2.82222px;stroke-width:0.264583"
         d="m 15.791218,288.90594 h -1.105186 v -0.35828 h 0.2949 v -1.33532 h -0.2949 v -0.35829 h 1.105186 v 0.35829 h -0.2949 v 1.33532 h 0.2949 z" />
      <path
         id="path488"
         style="font-size:2.82222px;stroke-width:0.264583"
         d="m 17.850005,286.85405 -0.705555,2.05189 h -0.537434 l -0.705555,-2.05189 h 0.534678 l 0.446484,1.39044 0.446484,-1.39044 z" />
    </g>
    <g
       transform="translate(2.5400031,-66.040012)"
       style="font-weight:bold;font-size:2.82222px;line-height:1.25;font-family:Tahoma;-inkscape-font-specification:'Tahoma, Bold';letter-spacing:0px;display:inline;stroke-width:0.264583"
       id="text433"
       aria-label="MUT">
      <path
         id="path491"
         style="font-size:2.82222px;stroke-width:0.264583"
         d="M 4.1167502,253.32458 H 3.6041204 v -1.36012 l -0.3734481,0.87781 H 2.8792728 l -0.373448,-0.87781 v 1.36012 H 2.0207557 v -2.05189 h 0.593934 l 0.4547523,1.01285 0.4533742,-1.01285 h 0.593934 z" />
      <path
         id="path493"
         style="font-size:2.82222px;stroke-width:0.264583"
         d="m 5.3693861,253.3673 q -0.4134112,0 -0.6366532,-0.19981 -0.221864,-0.19982 -0.221864,-0.58429 v -1.31051 h 0.5153859 v 1.28019 q 0,0.2136 0.079926,0.31833 0.081304,0.10473 0.2632051,0.10473 0.1777668,0 0.260449,-0.1006 0.08406,-0.10059 0.08406,-0.32246 v -1.28019 h 0.5153859 v 1.30913 q 0,0.37896 -0.2177299,0.58291 -0.2163518,0.20257 -0.6421648,0.20257 z" />
      <path
         id="path495"
         style="font-size:2.82222px;stroke-width:0.264583"
         d="m 7.0175183,253.32458 v -1.66053 H 6.4111819 v -0.39136 h 1.7280586 v 0.39136 H 7.5329042 v 1.66053 z" />
    </g>
    <g
       transform="translate(2.6999999e-6,-15.239991)"
       style="font-weight:bold;font-size:2.82222px;line-height:1.25;font-family:Tahoma;-inkscape-font-specification:'Tahoma, Bold';letter-spacing:0px;stroke-width:0.264583"
       id="text333"
       aria-label="MINV">
      <path
         id="path339"
         style="font-size:2.82222px;stroke-width:0.264583"
         d="m 18.527174,276.20593 h -0.51263 v -1.36012 l -0.373448,0.87781 h -0.351399 l -0.373448,-0.87781 v 1.36012 h -0.48507 v -2.05189 h 0.593934 l 0.454753,1.01285 0.453374,-1.01285 h 0.593934 z" />
      <path
         id="path341"
         style="font-size:2.82222px;stroke-width:0.264583"
         d="m 19.972735,276.20593 h -1.105186 v -0.35829 h 0.2949 v -1.33532 h -0.2949 v -0.35828 h 1.105186 v 0.35828 h -0.2949 v 1.33532 h 0.2949 z" />
      <path
         id="path343"
         style="font-size:2.82222px;stroke-width:0.264583"
         d="m 22.07562,276.20593 h -0.496094 l -0.790993,-1.4304 v 1.4304 h -0.471289 v -2.05189 h 0.632519 l 0.654568,1.17546 v -1.17546 h 0.471289 z" />
      <path
         id="path345"
         style="font-size:2.82222px;stroke-width:0.264583"
         d="m 24.208821,274.15404 -0.705555,2.05189 h -0.537434 l -0.705555,-2.05189 h 0.534678 l 0.446484,1.39043 0.446484,-1.39043 z" />
    </g>
    <g
       transform="translate(2.5399996,35.559999)"
       style="font-weight:bold;font-size:2.82222px;line-height:1.25;font-family:Tahoma;-inkscape-font-specification:'Tahoma, Bold';letter-spacing:0px;stroke-width:0.264583"
       id="text363"
       aria-label="CV">
      <path
         id="path369"
         style="font-size:2.82222px;stroke-width:0.264583"
         d="m 32.164934,220.36591 q -0.461643,0 -0.733116,-0.27837 -0.271473,-0.27974 -0.271473,-0.78548 0,-0.48782 0.271473,-0.77721 0.272851,-0.29077 0.734494,-0.29077 0.122645,0 0.220486,0.0138 0.09784,0.0138 0.187413,0.0386 0.07028,0.0207 0.152962,0.0565 0.08268,0.0358 0.133669,0.062 v 0.4892 h -0.05236 q -0.03721,-0.0331 -0.09371,-0.0786 -0.0565,-0.0469 -0.128157,-0.0909 -0.07166,-0.0441 -0.158474,-0.0744 -0.08544,-0.0317 -0.179145,-0.0317 -0.111621,0 -0.205328,0.0358 -0.09233,0.0344 -0.176388,0.12127 -0.07717,0.0785 -0.12678,0.21222 -0.04823,0.13367 -0.04823,0.31557 0,0.19155 0.05099,0.32246 0.05099,0.12954 0.13367,0.20946 0.07993,0.0772 0.177767,0.11162 0.09922,0.0344 0.197059,0.0344 0.101975,0 0.194303,-0.0331 0.09233,-0.0345 0.155718,-0.0758 0.0689,-0.0427 0.121268,-0.0868 0.05237,-0.0441 0.09095,-0.0786 h 0.04685 v 0.48232 q -0.0565,0.0262 -0.130913,0.0606 -0.07441,0.0331 -0.152962,0.0565 -0.09646,0.0289 -0.180523,0.0441 -0.08406,0.0152 -0.23151,0.0152 z" />
      <path
         id="path371"
         style="font-size:2.82222px;stroke-width:0.264583"
         d="m 34.879667,218.27405 -0.705555,2.05189 h -0.537435 l -0.705555,-2.05189 h 0.534679 l 0.446484,1.39044 0.446484,-1.39044 z" />
    </g>
    <g
       transform="translate(3.05e-6,35.559974)"
       style="font-weight:bold;font-size:2.82222px;line-height:1.25;font-family:Tahoma;-inkscape-font-specification:'Tahoma, Bold';letter-spacing:0px;stroke-width:0.264583"
       id="text367"
       aria-label="GATE">
      <path
         id="path374"
         style="font-size:2.82222px;stroke-width:0.264583"
         d="m 3.2747692,220.20742 q -0.1350476,0.0551 -0.3513995,0.10749 -0.2149738,0.0524 -0.4244354,0.0524 -0.483691,0 -0.7717008,-0.27836 -0.2866317,-0.27974 -0.2866317,-0.79237 0,-0.48231 0.2866317,-0.77308 0.2880098,-0.29077 0.7868592,-0.29077 0.257693,0 0.4189233,0.0496 0.1612303,0.0482 0.333485,0.13229 v 0.48094 H 3.219648 q -0.037207,-0.0289 -0.1074869,-0.0813 -0.068902,-0.0538 -0.1350476,-0.091 -0.07717,-0.0441 -0.1791448,-0.0758 -0.1005968,-0.0317 -0.2135958,-0.0317 -0.1322916,0 -0.2411565,0.0413 -0.1088649,0.0413 -0.1943032,0.12678 -0.081304,0.0827 -0.1295355,0.20946 -0.046853,0.12678 -0.046853,0.2949 0,0.35967 0.1805229,0.53054 0.1805228,0.17088 0.4933373,0.17088 0.027561,0 0.064768,-0.001 0.037207,-0.001 0.064768,-0.004 v -0.40239 H 2.377667 v -0.38447 h 0.8971022 z" />
      <path
         id="path376"
         style="font-size:2.82222px;stroke-width:0.264583"
         d="m 3.4456457,220.32455 0.6931527,-2.05189 h 0.5622391 l 0.6931527,2.05189 H 4.8636459 L 4.7354885,219.90563 H 4.0905671 l -0.1281575,0.41892 z m 1.1768437,-0.79099 -0.2094616,-0.67662 -0.2094617,0.67662 z" />
      <path
         id="path378"
         style="font-size:2.82222px;stroke-width:0.264583"
         d="m 5.9950144,220.32455 v -1.66053 H 5.3886781 v -0.39136 h 1.7280586 v 0.39136 H 6.5104003 v 1.66053 z" />
      <path
         id="path380"
         style="font-size:2.82222px;stroke-width:0.264583"
         d="m 7.3317103,220.32455 v -2.05189 h 1.3876834 v 0.39136 H 7.8443401 v 0.35967 h 0.8061517 v 0.39136 H 7.8443401 v 0.51814 h 0.8750536 v 0.39136 z" />
    </g>
    <g
       transform="translate(-5.3000003e-6,-2.5400248)"
       style="font-weight:bold;font-size:2.82222px;line-height:1.25;font-family:Tahoma;-inkscape-font-specification:'Tahoma, Bold';letter-spacing:0px;stroke-width:0.264583"
       id="text385"
       aria-label="G">
      <path
         id="path395"
         style="font-size:2.82222px;stroke-width:0.264583"
         d="m 21.237087,204.96742 q -0.135048,0.0551 -0.3514,0.10748 -0.214974,0.0524 -0.424435,0.0524 -0.483691,0 -0.771701,-0.27837 -0.286632,-0.27974 -0.286632,-0.79237 0,-0.48231 0.286632,-0.77308 0.28801,-0.29076 0.786859,-0.29076 0.257693,0 0.418923,0.0496 0.161231,0.0482 0.333485,0.13229 v 0.48093 h -0.04685 q -0.03721,-0.0289 -0.107487,-0.0813 -0.0689,-0.0537 -0.135047,-0.0909 -0.07717,-0.0441 -0.179145,-0.0758 -0.100597,-0.0317 -0.213596,-0.0317 -0.132291,0 -0.241156,0.0413 -0.108865,0.0413 -0.194304,0.12678 -0.0813,0.0827 -0.129535,0.20947 -0.04685,0.12677 -0.04685,0.2949 0,0.35966 0.180522,0.53054 0.180523,0.17088 0.493338,0.17088 0.02756,0 0.06477,-0.001 0.03721,-10e-4 0.06477,-0.004 v -0.40238 h -0.398253 v -0.38448 h 0.897103 z" />
    </g>
    <g
       transform="translate(2.5400014,-2.5400048)"
       style="font-weight:bold;font-size:2.82222px;line-height:1.25;font-family:Tahoma;-inkscape-font-specification:'Tahoma, Bold';letter-spacing:0px;stroke-width:0.264583"
       id="text389"
       aria-label="R">
      <path
         id="path398"
         style="font-size:2.82222px;stroke-width:0.264583"
         d="M 8.5687788,205.08594 H 7.9403939 L 7.3685084,204.33353 H 7.1838515 v 0.75241 H 6.6712216 v -2.0519 h 0.8254443 q 0.1708766,0 0.297656,0.0221 0.1267794,0.0207 0.2342663,0.0882 0.110243,0.0703 0.1750108,0.17915 0.064768,0.10748 0.064768,0.27423 0,0.23564 -0.1061089,0.38309 -0.1061088,0.14607 -0.2838756,0.23289 z m -0.8295784,-1.42351 q 0,-0.0772 -0.030317,-0.1323 -0.028939,-0.0565 -0.097841,-0.0868 -0.048231,-0.0207 -0.1074869,-0.0262 -0.059256,-0.006 -0.14745,-0.006 h -0.172254 v 0.5526 h 0.1474499 q 0.1074869,0 0.1819009,-0.0124 0.075792,-0.0138 0.1281575,-0.0565 0.049609,-0.0386 0.073036,-0.0923 0.024805,-0.0537 0.024805,-0.14055 z" />
    </g>
    <g
       transform="translate(-2.5399977,-2.5400148)"
       style="font-weight:bold;font-size:2.82222px;line-height:1.25;font-family:Tahoma;-inkscape-font-specification:'Tahoma, Bold';letter-spacing:0px;stroke-width:0.264583"
       id="text393"
       aria-label="B">
      <path
         id="path401"
         style="font-size:2.82222px;stroke-width:0.264583"
         d="m 33.840625,204.45755 q 0,0.15296 -0.05788,0.26872 -0.05788,0.11575 -0.155718,0.19155 -0.115755,0.0909 -0.254937,0.12953 -0.137804,0.0386 -0.3514,0.0386 h -0.82131 v -2.0519 h 0.724848 q 0.225998,0 0.341753,0.0179 0.117133,0.0165 0.219108,0.0717 0.110243,0.0593 0.163986,0.15848 0.05512,0.0992 0.05512,0.22875 0,0.15021 -0.07579,0.26734 -0.07441,0.11713 -0.206706,0.17225 v 0.011 q 0.190169,0.04 0.304546,0.16399 0.114377,0.12264 0.114377,0.3321 z m -0.660079,-0.84336 q 0,-0.0496 -0.02618,-0.10197 -0.0248,-0.0524 -0.07855,-0.0758 -0.05099,-0.0221 -0.121267,-0.0234 -0.0689,-0.003 -0.206706,-0.003 h -0.03583 v 0.43409 h 0.06477 q 0.132291,0 0.184657,-0.003 0.05374,-0.003 0.110243,-0.0289 0.06201,-0.0289 0.08544,-0.0799 0.02343,-0.051 0.02343,-0.11852 z m 0.129535,0.83372 q 0,-0.0951 -0.03858,-0.14883 -0.03858,-0.0538 -0.115755,-0.0813 -0.04685,-0.0179 -0.129536,-0.0193 -0.0813,-0.003 -0.219107,-0.003 h -0.09509 v 0.514 h 0.02756 q 0.201193,0 0.278363,-0.003 0.07717,-0.003 0.157096,-0.0372 0.07028,-0.0303 0.101975,-0.0882 0.03307,-0.0593 0.03307,-0.13367 z" />
    </g>
    <g
       transform="translate(-20.320002,7.6199076)"
       style="font-weight:bold;font-size:2.82222px;line-height:1.25;font-family:Tahoma;-inkscape-font-specification:'Tahoma, Bold';letter-spacing:0px;stroke-width:0.264583"
       id="text406"
       aria-label="INC">
      <path
         id="path421"
         style="font-size:2.82222px;stroke-width:0.264583"
         d="m 34.061389,273.66595 h -1.105186 v -0.35829 h 0.2949 v -1.33531 h -0.2949 v -0.35829 h 1.105186 v 0.35829 h -0.2949 v 1.33531 h 0.2949 z" />
      <path
         id="path423"
         style="font-size:2.82222px;stroke-width:0.264583"
         d="M 36.164274,273.66595 H 35.66818 l -0.790993,-1.4304 v 1.4304 h -0.471289 v -2.05189 h 0.632519 l 0.654568,1.17546 v -1.17546 h 0.471289 z" />
      <path
         id="path425"
         style="font-size:2.82222px;stroke-width:0.264583"
         d="m 37.467897,273.70592 q -0.461643,0 -0.733116,-0.27837 -0.271473,-0.27974 -0.271473,-0.78548 0,-0.48782 0.271473,-0.77721 0.272851,-0.29077 0.734494,-0.29077 0.122645,0 0.220486,0.0138 0.09784,0.0138 0.187413,0.0386 0.07028,0.0207 0.152962,0.0565 0.08268,0.0358 0.13367,0.062 v 0.4892 h -0.05237 q -0.03721,-0.0331 -0.09371,-0.0785 -0.0565,-0.0469 -0.128158,-0.0909 -0.07166,-0.0441 -0.158474,-0.0744 -0.08544,-0.0317 -0.179145,-0.0317 -0.111621,0 -0.205327,0.0358 -0.09233,0.0344 -0.176389,0.12126 -0.07717,0.0786 -0.12678,0.21222 -0.04823,0.13367 -0.04823,0.31557 0,0.19155 0.05099,0.32246 0.05099,0.12954 0.133669,0.20946 0.07993,0.0772 0.177767,0.11162 0.09922,0.0345 0.197059,0.0345 0.101975,0 0.194303,-0.0331 0.09233,-0.0344 0.155719,-0.0758 0.0689,-0.0427 0.121267,-0.0868 0.05237,-0.0441 0.09095,-0.0785 h 0.04685 v 0.48231 q -0.0565,0.0262 -0.130914,0.0606 -0.07441,0.0331 -0.152962,0.0565 -0.09646,0.0289 -0.180523,0.0441 -0.08406,0.0152 -0.23151,0.0152 z" />
    </g>
    <g
       transform="translate(-5.0000026e-7,-5.0800008)"
       style="font-weight:bold;font-size:2.82222px;line-height:1.25;font-family:Tahoma;-inkscape-font-specification:'Tahoma, Bold';letter-spacing:0px;stroke-width:0.264583"
       id="text410"
       aria-label="TRSH">
      <path
         id="path412"
         style="font-size:2.82222px;stroke-width:0.264583"
         d="m 4.4704971,266.04593 v -1.66054 H 3.8641608 v -0.39136 h 1.7280586 v 0.39136 H 4.985883 v 1.66054 z" />
      <path
         id="path414"
         style="font-size:2.82222px;stroke-width:0.264583"
         d="M 7.7047504,266.04593 H 7.0763654 L 6.50448,265.29352 H 6.319823 v 0.75241 H 5.8071932 v -2.0519 h 0.8254442 q 0.1708767,0 0.2976561,0.022 0.1267794,0.0207 0.2342663,0.0882 0.110243,0.0703 0.1750107,0.17915 0.064768,0.10749 0.064768,0.27423 0,0.23564 -0.1061089,0.38309 -0.1061089,0.14608 -0.2838757,0.23289 z M 6.875172,264.62242 q 0,-0.0772 -0.030317,-0.13229 -0.028939,-0.0565 -0.097841,-0.0868 -0.048231,-0.0207 -0.1074869,-0.0262 -0.059256,-0.006 -0.1474499,-0.006 H 6.319823 v 0.5526 h 0.14745 q 0.1074869,0 0.1819009,-0.0124 0.075792,-0.0138 0.1281574,-0.0565 0.049609,-0.0386 0.073036,-0.0923 0.024805,-0.0538 0.024805,-0.14056 z" />
      <path
         id="path416"
         style="font-size:2.82222px;stroke-width:0.264583"
         d="m 8.4916095,266.08314 q -0.2356443,0 -0.4147892,-0.0455 -0.1777668,-0.0455 -0.3307289,-0.113 v -0.48782 h 0.046853 q 0.1543401,0.13091 0.3403752,0.20119 0.186035,0.0703 0.3610457,0.0703 0.044097,0 0.1157551,-0.01 0.073036,-0.01 0.1171332,-0.0303 0.053743,-0.0234 0.09095,-0.0648 0.037207,-0.0427 0.037207,-0.11162 0,-0.0772 -0.060634,-0.1254 -0.060634,-0.0482 -0.1446939,-0.0703 -0.1047308,-0.0276 -0.2246201,-0.0524 -0.1185112,-0.0248 -0.221864,-0.0606 -0.2384004,-0.0841 -0.3417532,-0.226 -0.1033528,-0.14194 -0.1033528,-0.35553 0,-0.28801 0.2439126,-0.46578 0.2439126,-0.17915 0.6090924,-0.17915 0.183279,0 0.3638019,0.0372 0.1819009,0.0372 0.3252167,0.1006 v 0.46853 h -0.045475 q -0.1143771,-0.0978 -0.2797415,-0.16536 -0.1639865,-0.0675 -0.3376192,-0.0675 -0.067524,0 -0.1212672,0.01 -0.053743,0.01 -0.1129991,0.0372 -0.048231,0.022 -0.08406,0.0661 -0.034451,0.0427 -0.034451,0.0965 0,0.0786 0.055122,0.12541 0.056499,0.0455 0.2163519,0.0827 0.1033527,0.0234 0.1984373,0.0455 0.096463,0.022 0.2053275,0.0606 0.2135958,0.0772 0.3169486,0.20808 0.1047308,0.12954 0.1047308,0.34313 0,0.30593 -0.2411565,0.49196 -0.2397785,0.18604 -0.6490555,0.18604 z" />
      <path
         id="path418"
         style="font-size:2.82222px;stroke-width:0.264583"
         d="m 11.375841,266.04593 h -0.515385 v -0.90951 h -0.701421 v 0.90951 H 9.6436488 v -2.0519 h 0.5153862 v 0.75103 h 0.701421 v -0.75103 h 0.515385 z" />
    </g>
  </g>
  <g
     style="display:inline"
     inkscape:label="components"
     id="layer2"
     inkscape:groupmode="layer">
    <circle
       r="0.035242248"
       cy="-48.154167"
       cx="-43.920834"
       style="fill:#000000;stroke:#000000;stroke-width:0.264583"
       id="path30" />
    <circle
       r="0.0088105621"
       cy="-2.5135417"
       cx="-32.279167"
       style="fill:#000000;stroke:#000000;stroke-width:0.264583"
       id="path32" />
    <circle
       r="0.0088105621"
       cy="0.1984375"
       cx="-17.991667"
       style="fill:#000000;stroke:#000000;stroke-width:0.264583"
       id="path34" />
    <circle
       r="0.0088105621"
       cy="2.9104166"
       cx="-25.069271"
       style="fill:#000000;stroke:#000000;stroke-width:0.264583"
       id="path36" />
    <text
       id="text42"
       y="11.90625"
       x="-38.695312"
       style="font-size:10.5833px;line-height:1.25;font-family:'Eras Bold ITC';-inkscape-font-specification:'Eras Bold ITC';stroke-width:0.264583"
       xml:space="preserve"><tspan
         style="font-style:normal;font-variant:normal;font-weight:bold;font-stretch:normal;font-size:3.52778px;font-family:Garamond;-inkscape-font-specification:'Garamond Bold';stroke-width:0.264583"
         y="11.90625"
         x="-38.695312"
         id="tspan40"
         sodipodi:role="line" /></text>
    <text
       id="text78"
       y="16.668749"
       x="-45.111458"
       style="font-size:10.5833px;line-height:1.25;font-family:'Eras Bold ITC';-inkscape-font-specification:'Eras Bold ITC';stroke-width:0.264583"
       xml:space="preserve"><tspan
         style="stroke-width:0.264583"
         y="16.668749"
         x="-45.111458"
         id="tspan76"
         sodipodi:role="line" /></text>
  </g>
</svg>
