<?xml version="1.0" encoding="UTF-8" standalone="no"?>
<svg
   xmlns:dc="http://purl.org/dc/elements/1.1/"
   xmlns:cc="http://creativecommons.org/ns#"
   xmlns:rdf="http://www.w3.org/1999/02/22-rdf-syntax-ns#"
   xmlns:svg="http://www.w3.org/2000/svg"
   xmlns="http://www.w3.org/2000/svg"
   xmlns:sodipodi="http://sodipodi.sourceforge.net/DTD/sodipodi-0.dtd"
   xmlns:inkscape="http://www.inkscape.org/namespaces/inkscape"
   sodipodi:docname="SimpleLFO.svg"
   inkscape:version="1.0 (4035a4fb49, 2020-05-01)"
   id="svg8"
   version="1.1"
   viewBox="0 0 10.160001 128.50002"
   height="128.5mm"
   width="10.16mm">
  <defs
     id="defs2">
    <rect
       id="rect94"
       height="8.2501881"
       width="18.061223"
       y="288.90813"
       x="-31.439906" />
    <rect
       x="24.134438"
       y="294.41065"
       width="30.121276"
       height="10.476965"
       id="rect124" />
    <inkscape:path-effect
       hide_knots="false"
       only_selected="false"
       apply_with_radius="true"
       apply_no_radius="true"
       use_knot_distance="true"
       flexible="false"
       chamfer_steps="1"
       radius="0"
       mode="F"
       method="auto"
       unit="mm"
       satellites_param="F,0,0,1,0,0,0,1 @ F,0,0,1,0,0,0,1 @ F,0,0,1,0,0,0,1 @ F,0,0,1,0,0,0,1"
       lpeversion="1"
       is_visible="true"
       id="path-effect120"
       effect="fillet_chamfer" />
    <inkscape:path-effect
       hide_knots="false"
       only_selected="false"
       apply_with_radius="true"
       apply_no_radius="true"
       use_knot_distance="true"
       flexible="false"
       chamfer_steps="1"
       radius="0"
       mode="F"
       method="auto"
       unit="mm"
       satellites_param="F,0,0,1,0,0,0,1 @ F,0,0,1,0,0,0,1 @ F,0,0,1,0,0,0,1 @ F,0,0,1,0,0,0,1"
       lpeversion="1"
       is_visible="true"
       id="path-effect109"
       effect="fillet_chamfer" />
    <inkscape:path-effect
       effect="fillet_chamfer"
       id="path-effect81"
       is_visible="true"
       lpeversion="1"
       satellites_param="F,0,0,1,0,0,0,1 @ F,0,0,1,0,0,0,1 @ F,0,0,1,0,0,0,1 @ F,0,0,1,0,0,0,1"
       unit="mm"
       method="auto"
       mode="F"
       radius="0"
       chamfer_steps="1"
       flexible="false"
       use_knot_distance="true"
       apply_no_radius="true"
       apply_with_radius="true"
       only_selected="false"
       hide_knots="false" />
    <inkscape:path-effect
       hide_knots="false"
       only_selected="false"
       apply_with_radius="true"
       apply_no_radius="true"
       use_knot_distance="true"
       flexible="false"
       chamfer_steps="1"
       radius="0"
       mode="F"
       method="auto"
       unit="mm"
       satellites_param="F,0,0,1,0,0,0,1 @ F,0,0,1,0,0,0,1 @ F,0,0,1,0,0,0,1 @ F,0,0,1,0,0,0,1"
       lpeversion="1"
       is_visible="true"
       id="path-effect77"
       effect="fillet_chamfer" />
  </defs>
  <sodipodi:namedview
     inkscape:snap-others="true"
     guidetolerance="10000"
     gridtolerance="10000"
     objecttolerance="10000"
     inkscape:lockguides="false"
     inkscape:document-rotation="0"
     inkscape:snap-nodes="false"
     inkscape:snap-bbox-midpoints="true"
     inkscape:window-maximized="0"
     inkscape:window-y="0"
     inkscape:window-x="880"
     inkscape:window-height="1024"
     inkscape:window-width="966"
     inkscape:snap-bbox-edge-midpoints="false"
     inkscape:bbox-nodes="false"
     inkscape:snap-page="true"
     inkscape:snap-bbox="true"
     units="mm"
     showgrid="true"
     inkscape:current-layer="layer1"
     inkscape:document-units="mm"
     inkscape:cy="347.65712"
     inkscape:cx="45.541331"
     inkscape:zoom="2.9876115"
     inkscape:pageshadow="2"
     inkscape:pageopacity="0.0"
     borderopacity="1.0"
     bordercolor="#666666"
     pagecolor="#ffffff"
     id="base">
    <inkscape:grid
       empspacing="4"
       empopacity="0.25098039"
       empcolor="#71530f"
       spacingy="2.5400004"
       spacingx="2.5400004"
       opacity="0.53333333"
       color="#ffd984"
       units="mm"
       id="grid86"
       type="xygrid" />
  </sodipodi:namedview>
  <metadata
     id="metadata5">
    <rdf:RDF>
      <cc:Work
         rdf:about="">
        <dc:format>image/svg+xml</dc:format>
        <dc:type
           rdf:resource="http://purl.org/dc/dcmitype/StillImage" />
        <dc:title />
        <dc:creator>
          <cc:Agent>
            <dc:title>Firo Lightfog</dc:title>
          </cc:Agent>
        </dc:creator>
      </cc:Work>
    </rdf:RDF>
  </metadata>
  <g
     transform="translate(0,-168.49998)"
     id="layer1"
     inkscape:groupmode="layer"
     inkscape:label="Layer 1"
     style="display:inline">
    <g
       transform="translate(-12.700003,1.4636939e-5)"
       style="font-weight:bold;font-size:3.52778px;line-height:1.25;font-family:Tahoma;-inkscape-font-specification:'Tahoma, Bold';letter-spacing:0px;fill:#ffeeaa;stroke-width:0.264583"
       id="text53"
       aria-label="RV10" />
    <rect
       y="167.74997"
       x="-0.071813658"
       height="129.26068"
       width="10.303629"
       id="rect420"
       style="display:inline;opacity:1;vector-effect:none;fill:#cccccc;fill-opacity:1;fill-rule:evenodd;stroke:none;stroke-width:0.378664;stroke-linecap:butt;stroke-linejoin:miter;stroke-miterlimit:4;stroke-dasharray:none;stroke-dashoffset:0;stroke-opacity:1;paint-order:normal" />
    <g
       style="font-weight:bold;font-size:4.93889px;line-height:1.25;font-family:Tahoma;-inkscape-font-specification:'Tahoma, Bold';letter-spacing:0px;white-space:pre;shape-inside:url(#rect94)"
       id="text92"
       transform="translate(31.662557,1.3413093)"
       aria-label="LFO">
      <path
         id="path98"
         style="font-size:4.93889px"
         d="m -28.670974,293.4141 h -2.397098 v -3.59082 h 0.901926 v 2.90594 h 1.495172 z" />
      <path
         id="path100"
         style="font-size:4.93889px"
         d="m -25.837382,290.50816 h -1.50723 v 0.67765 h 1.386651 v 0.68489 h -1.386651 v 1.5434 h -0.897103 v -3.59082 h 2.404333 z" />
      <path
         id="path102"
         style="font-size:4.93889px"
         d="m -22.097041,291.6199 q 0,0.87057 -0.465433,1.36977 -0.465432,0.49919 -1.275719,0.49919 -0.812698,0 -1.275719,-0.50402 -0.463021,-0.50643 -0.463021,-1.36494 0,-0.86576 0.463021,-1.36736 0.463021,-0.50402 1.275719,-0.50402 0.810287,0 1.275719,0.50161 0.465433,0.49919 0.465433,1.36977 z m -0.930865,-0.002 q 0,-0.32073 -0.06752,-0.54501 -0.06511,-0.22669 -0.176045,-0.37138 -0.115755,-0.14711 -0.262861,-0.20981 -0.144694,-0.0651 -0.301446,-0.0651 -0.166398,0 -0.301445,0.0603 -0.135048,0.0579 -0.26045,0.20981 -0.110932,0.13987 -0.180867,0.37138 -0.06752,0.23151 -0.06752,0.55225 0,0.33038 0.06511,0.54983 0.06511,0.21704 0.178456,0.36415 0.115755,0.14952 0.262861,0.21463 0.147106,0.0627 0.303857,0.0627 0.159164,0 0.308681,-0.0675 0.149517,-0.0699 0.258038,-0.21463 0.115755,-0.15675 0.178456,-0.36415 0.0627,-0.20981 0.0627,-0.54743 z" />
    </g>
    <text
       id="text59"
       y="277.43234"
       x="1.1693041"
       style="font-size:10.5833px;line-height:1.25;font-family:'Eras Bold ITC';-inkscape-font-specification:'Eras Bold ITC';stroke-width:0.264583"
       xml:space="preserve"><tspan
         style="font-size:2.82222px;fill:#ffff00;stroke-width:0.264583"
         y="277.43234"
         x="1.1693041"
         id="tspan57"
         sodipodi:role="line" /></text>
    <g
       aria-label="b"
       transform="translate(0,168.49998)"
       id="text51"
       style="font-weight:bold;font-size:6.08438px;line-height:1.25;font-family:'Wingdings 2';-inkscape-font-specification:'Wingdings 2 Bold';display:inline;fill:#000000;stroke-width:0.142602">
      <path
         d="M 2.1105974,0.92680782 V 1.2209258 q 0.1693407,0 0.2554965,0.086156 0.089127,0.086156 0.1693406,0.3297686 l 0.047534,0.1485445 Q 2.7433967,2.2785622 3.1088161,2.4330484 2.7701347,2.498408 2.5681143,2.712312 2.3690648,2.9232451 2.3690648,3.2143922 q 0,0.4070117 0.3060015,0.6743917 0.3060015,0.2644091 0.775402,0.2644091 0.7130133,0 1.1021997,-0.6120031 L 4.3239095,3.3480821 Q 4.071384,3.618433 3.804004,3.618433 3.5841583,3.618433 3.4267011,3.4758304 3.269244,3.3302568 3.269244,3.1312073 q 0,-0.1663698 0.1218065,-0.2881762 0.1247773,-0.1218065 0.2911471,-0.1218065 0.3000597,0 0.8407615,0.4248371 l 0.1812242,0.1426027 q 0.882354,0.6951879 1.6844939,0.6951879 0.695188,0 1.176472,-0.4575168 Q 8.049404,3.0688186 8.049404,2.4122522 8.049404,1.7467731 7.5502947,1.3367905 7.0511854,0.92680782 6.2401328,0.92680782 H 6.1420935 V 1.2209258 q 0.4812839,0.03268 0.7635184,0.3357104 0.2822344,0.3000598 0.2822344,0.7813438 0,0.4753422 -0.3565066,0.8140235 -0.3565067,0.3357104 -0.8615578,0.3357104 -0.4872257,0 -0.8674995,-0.2970889 -0.3802738,-0.2970888 -0.3802738,-0.6773626 0,-0.1812242 0.1158647,-0.3060015 0.1188356,-0.1247774 0.2911471,-0.1247774 0.1723115,0 0.2584673,0.095068 0.089127,0.092097 0.089127,0.2822344 0,0.1158647 -0.06536,0.2733218 l 0.26738,0.1218064 Q 5.856888,2.4330479 5.856888,2.1478426 5.856888,1.7972777 5.6281296,1.5477231 5.4023422,1.295198 5.0814862,1.295198 q -0.2049913,0 -0.374332,0.1010102 Q 4.5378135,1.4972185 4.4041235,1.7022098 4.231812,1.2714309 3.85748,1.0991194 3.4861189,0.92680782 2.7285423,0.92680782 Z M 4.2496373,2.3766015 Q 3.8129167,2.2934166 3.4504683,1.6487338 L 3.3999632,1.562578 Q 3.242506,1.2833145 3.0196894,1.1971587 q 1.1348795,0 1.2299479,1.1794428 z"
         style="font-size:6.08438px;fill:#000000;stroke-width:0.142602"
         id="path49" />
    </g>
    <path
       style="display:inline;fill:#de8787;stroke-width:0.207448"
       d="M -3.8044147,199.09149 H 6.5189304 v 10.0049 H -3.8044147 Z"
       transform="matrix(1,0,0.01824034,0.99983363,0,0)"
       id="rect48-1-6" />
    <path
       style="display:inline;fill:#de8787;stroke-width:0.207448"
       d="M -4.2214584,221.95531 H 6.1018867 V 231.9602 H -4.2214584 Z"
       transform="matrix(1,0,0.01824034,0.99983363,0,0)"
       id="rect48-1-6-7" />
    <path
       style="display:inline;fill:#de8787;stroke-width:0.207448"
       d="M -4.6385021,244.81911 H 5.6848431 V 254.824 H -4.6385021 Z"
       inkscape:transform-center-y="-19.644313"
       transform="matrix(1,0,0.01824034,0.99983363,0,0)"
       id="rect48-1-6-3" />
    <g
       style="font-weight:bold;font-size:3.52778px;line-height:1.25;font-family:Tahoma;-inkscape-font-specification:'Tahoma, Bold';letter-spacing:0px;stroke-width:0.264583"
       id="text107"
       aria-label="FRQ">
      <path
         id="path152"
         style="font-size:3.52778px;stroke-width:0.264583"
         d="m 3.3212812,210.54913 h -1.076593 v 0.48404 h 0.9904655 v 0.4892 H 2.2446882 v 1.10243 H 1.6039 v -2.56487 h 1.7173812 z" />
      <path
         id="path154"
         style="font-size:3.52778px;stroke-width:0.264583"
         d="M 6.029128,212.6248 H 5.2436457 L 4.5287879,211.68429 H 4.2979664 v 0.94051 H 3.6571782 v -2.56487 H 4.688985 q 0.213596,0 0.3720705,0.0276 0.1584745,0.0258 0.2928333,0.11024 0.1378039,0.0879 0.2187637,0.22393 0.08096,0.13436 0.08096,0.34279 0,0.29455 -0.1326362,0.47887 -0.1326363,0.18259 -0.3548451,0.29111 z m -1.0369744,-1.77939 q 0,-0.0965 -0.037896,-0.16537 -0.036173,-0.0706 -0.122301,-0.10852 -0.060289,-0.0258 -0.1343588,-0.0327 -0.07407,-0.007 -0.1843127,-0.007 H 4.2979664 v 0.69075 h 0.1843127 q 0.1343588,0 0.2273764,-0.0155 0.09474,-0.0172 0.1601971,-0.0706 0.062012,-0.0482 0.091295,-0.11541 0.031006,-0.0672 0.031006,-0.1757 z" />
      <path
         id="path156"
         style="font-size:3.52778px;stroke-width:0.264583"
         d="m 8.5526624,213.30349 q -0.103353,0.0258 -0.2084284,0.0379 -0.103353,0.0121 -0.3255618,0.0121 -0.2032607,0 -0.3462323,-0.0517 -0.141249,-0.0499 -0.2359892,-0.14297 -0.09474,-0.0913 -0.1429715,-0.21704 -0.046509,-0.12575 -0.053399,-0.27044 -0.5443254,-0.0241 -0.8578293,-0.37724 -0.3117813,-0.35312 -0.3117813,-0.95084 0,-0.6184 0.3307293,-0.97669 0.3307294,-0.36001 0.9112284,-0.36001 0.5787764,0 0.9112283,0.35829 0.332452,0.35657 0.332452,0.97841 0,0.45303 -0.1894804,0.77859 -0.1877578,0.32384 -0.5322676,0.45992 0.00345,0.18776 0.082682,0.25838 0.08096,0.0724 0.2824981,0.0724 0.077515,0 0.1636421,-0.0241 0.08785,-0.0224 0.1257461,-0.0431 h 0.063734 z m -0.8337137,-1.31086 q 0.082682,-0.11197 0.1274686,-0.26011 0.044786,-0.14986 0.044786,-0.39102 0,-0.2291 -0.048231,-0.38929 -0.046509,-0.16192 -0.125746,-0.26528 -0.082682,-0.10507 -0.1877579,-0.14986 -0.1033529,-0.0465 -0.2153186,-0.0465 -0.1188558,0 -0.2153186,0.0431 -0.096463,0.0413 -0.1860352,0.14986 -0.079237,0.0999 -0.1291912,0.26527 -0.048231,0.16537 -0.048231,0.39447 0,0.23598 0.046509,0.39274 0.046509,0.15503 0.1274687,0.2601 0.082682,0.1068 0.1877578,0.15331 0.1050755,0.0448 0.2170411,0.0448 0.1136883,0 0.2204863,-0.0482 0.106798,-0.0499 0.1843127,-0.1533 z" />
    </g>
    <g
       style="font-weight:bold;font-size:3.52777px;line-height:1.25;font-family:Tahoma;-inkscape-font-specification:'Tahoma, Bold';letter-spacing:0px;display:inline;stroke-width:0.264583"
       id="text107-5"
       aria-label="FRQ">
      <path
         id="path159"
         style="font-size:3.52777px;stroke-width:0.264583"
         d="M 3.3212834,233.40914 H 2.2446935 v 0.48403 h 0.9904627 v 0.4892 H 2.2446935 v 1.10243 H 1.6039071 v -2.56487 h 1.7173763 z" />
      <path
         id="path161"
         style="font-size:3.52777px;stroke-width:0.264583"
         d="m 6.0291226,235.4848 h -0.78548 L 4.5287868,234.54429 H 4.2979659 v 0.94051 H 3.6571796 v -2.56487 h 1.0318038 q 0.2135955,0 0.3720695,0.0276 0.1584741,0.0258 0.2928325,0.11025 0.1378035,0.0879 0.2187631,0.22393 0.08096,0.13436 0.08096,0.34278 0,0.29456 -0.1326358,0.47887 -0.1326359,0.18259 -0.3548441,0.29111 z m -1.0369714,-1.77939 q 0,-0.0965 -0.037896,-0.16536 -0.036173,-0.0706 -0.1223006,-0.10852 -0.060289,-0.0258 -0.1343585,-0.0327 -0.074069,-0.007 -0.1843122,-0.007 h -0.215318 v 0.69074 h 0.1843122 q 0.1343585,0 0.2273758,-0.0155 0.09474,-0.0172 0.1601966,-0.0706 0.062012,-0.0482 0.091295,-0.11541 0.031006,-0.0672 0.031006,-0.1757 z" />
      <path
         id="path163"
         style="font-size:3.52777px;stroke-width:0.264583"
         d="m 8.5526495,236.16348 q -0.1033526,0.0258 -0.2084278,0.0379 -0.1033526,0.0121 -0.3255608,0.0121 -0.2032602,0 -0.3462314,-0.0517 -0.1412486,-0.0499 -0.2359885,-0.14297 -0.09474,-0.0913 -0.1429711,-0.21704 -0.046509,-0.12575 -0.053399,-0.27044 -0.5443239,-0.0241 -0.8578269,-0.37724 -0.3117804,-0.35312 -0.3117804,-0.95084 0,-0.61839 0.3307284,-0.97668 0.3307284,-0.36001 0.9112258,-0.36001 0.5787747,0 0.9112257,0.35828 0.332451,0.35657 0.332451,0.97841 0,0.45303 -0.1894798,0.77859 -0.1877573,0.32384 -0.5322661,0.45992 0.00345,0.18776 0.082682,0.25838 0.08096,0.0724 0.2824972,0.0724 0.077514,0 0.1636417,-0.0241 0.08785,-0.0224 0.1257457,-0.0431 h 0.063734 z m -0.8337113,-1.31085 q 0.082682,-0.11197 0.1274683,-0.26011 0.044786,-0.14986 0.044786,-0.39101 0,-0.2291 -0.048231,-0.3893 -0.046509,-0.16192 -0.1257457,-0.26527 -0.082682,-0.10507 -0.1877573,-0.14986 -0.1033526,-0.0465 -0.215318,-0.0465 -0.1188555,0 -0.215318,0.0431 -0.096463,0.0413 -0.1860347,0.14987 -0.079237,0.0999 -0.1291908,0.26527 -0.048231,0.16536 -0.048231,0.39446 0,0.23599 0.046509,0.39274 0.046509,0.15503 0.1274683,0.2601 0.082682,0.1068 0.1877573,0.15331 0.1050751,0.0448 0.2170405,0.0448 0.1136879,0 0.2204856,-0.0482 0.1067978,-0.05 0.1843122,-0.15331 z" />
    </g>
    <g
       style="font-weight:bold;font-size:3.52777px;line-height:1.25;font-family:Tahoma;-inkscape-font-specification:'Tahoma, Bold';letter-spacing:0px;display:inline;stroke-width:0.264583"
       id="text107-6"
       aria-label="FRQ">
      <path
         id="path166"
         style="font-size:3.52777px;stroke-width:0.264583"
         d="M 3.3212834,187.68914 H 2.2446935 v 0.48403 h 0.9904627 v 0.4892 H 2.2446935 v 1.10243 H 1.6039071 v -2.56487 h 1.7173763 z" />
      <path
         id="path168"
         style="font-size:3.52777px;stroke-width:0.264583"
         d="m 6.0291226,189.7648 h -0.78548 L 4.5287868,188.82429 H 4.2979659 v 0.94051 H 3.6571796 v -2.56487 h 1.0318038 q 0.2135955,0 0.3720695,0.0276 0.1584741,0.0258 0.2928325,0.11025 0.1378035,0.0879 0.2187631,0.22393 0.08096,0.13436 0.08096,0.34278 0,0.29456 -0.1326358,0.47887 -0.1326359,0.18259 -0.3548441,0.29111 z m -1.0369714,-1.77939 q 0,-0.0965 -0.037896,-0.16536 -0.036173,-0.0706 -0.1223006,-0.10852 -0.060289,-0.0258 -0.1343585,-0.0327 -0.074069,-0.007 -0.1843122,-0.007 h -0.215318 v 0.69074 h 0.1843122 q 0.1343585,0 0.2273758,-0.0155 0.09474,-0.0172 0.1601966,-0.0706 0.062012,-0.0482 0.091295,-0.11541 0.031006,-0.0672 0.031006,-0.1757 z" />
      <path
         id="path170"
         style="font-size:3.52777px;stroke-width:0.264583"
         d="m 8.5526495,190.44348 q -0.1033526,0.0258 -0.2084278,0.0379 -0.1033526,0.0121 -0.3255608,0.0121 -0.2032602,0 -0.3462314,-0.0517 -0.1412486,-0.0499 -0.2359885,-0.14297 -0.09474,-0.0913 -0.1429711,-0.21704 -0.046509,-0.12575 -0.053399,-0.27044 -0.5443239,-0.0241 -0.8578269,-0.37724 -0.3117804,-0.35312 -0.3117804,-0.95084 0,-0.61839 0.3307284,-0.97668 0.3307284,-0.36002 0.9112258,-0.36002 0.5787747,0 0.9112257,0.35829 0.332451,0.35657 0.332451,0.97841 0,0.45303 -0.1894798,0.77859 -0.1877573,0.32384 -0.5322661,0.45992 0.00345,0.18775 0.082682,0.25838 0.08096,0.0724 0.2824972,0.0724 0.077514,0 0.1636417,-0.0241 0.08785,-0.0224 0.1257457,-0.0431 h 0.063734 z m -0.8337113,-1.31085 q 0.082682,-0.11197 0.1274683,-0.26011 0.044786,-0.14986 0.044786,-0.39101 0,-0.2291 -0.048231,-0.3893 -0.046509,-0.16192 -0.1257457,-0.26527 -0.082682,-0.10508 -0.1877573,-0.14986 -0.1033526,-0.0465 -0.215318,-0.0465 -0.1188555,0 -0.215318,0.0431 -0.096463,0.0413 -0.1860347,0.14986 -0.079237,0.0999 -0.1291908,0.26528 -0.048231,0.16536 -0.048231,0.39446 0,0.23599 0.046509,0.39274 0.046509,0.15503 0.1274683,0.2601 0.082682,0.1068 0.1877573,0.15331 0.1050751,0.0448 0.2170405,0.0448 0.1136879,0 0.2204856,-0.0482 0.1067978,-0.0499 0.1843122,-0.1533 z" />
    </g>
    <g
       style="font-weight:bold;font-size:3.52778px;line-height:1.25;font-family:Tahoma;-inkscape-font-specification:'Tahoma, Bold';letter-spacing:0px;stroke-width:0.264583"
       id="text137"
       aria-label="BLD">
      <path
         id="path173"
         style="font-size:3.52778px;stroke-width:0.264583"
         d="m 3.7674186,176.61694 q 0,0.1912 -0.072347,0.33589 -0.072347,0.1447 -0.194648,0.23944 -0.1446941,0.11369 -0.3186715,0.16192 -0.1722549,0.0482 -0.43925,0.0482 H 1.7158629 v -2.56488 h 0.9060607 q 0.282498,0 0.4271921,0.0224 0.1464167,0.0207 0.2738853,0.0896 0.1378039,0.0741 0.2049833,0.19809 0.068902,0.12403 0.068902,0.28595 0,0.18775 -0.09474,0.33417 -0.093018,0.14642 -0.2583824,0.21532 v 0.0138 q 0.2377118,0.0499 0.3806833,0.20498 0.1429716,0.15331 0.1429716,0.41514 z m -0.8251009,-1.0542 q 0,-0.062 -0.032728,-0.12747 -0.031006,-0.0655 -0.098185,-0.0947 -0.063734,-0.0276 -0.1515843,-0.0293 -0.086127,-0.003 -0.2583824,-0.003 h -0.044786 v 0.5426 h 0.08096 q 0.1653647,0 0.2308215,-0.003 0.067179,-0.003 0.1378039,-0.0362 0.077515,-0.0362 0.1067981,-0.0999 0.029283,-0.0637 0.029283,-0.14814 z m 0.1619196,1.04214 q 0,-0.11886 -0.048231,-0.18604 -0.048231,-0.0672 -0.1446941,-0.10163 -0.058567,-0.0224 -0.1619196,-0.0241 -0.1016304,-0.003 -0.2738853,-0.003 H 2.3566511 v 0.64251 h 0.034451 q 0.2514922,0 0.3479549,-0.003 0.096463,-0.003 0.1963706,-0.0465 0.08785,-0.0379 0.1274686,-0.11024 0.041341,-0.0741 0.041341,-0.16709 z" />
      <path
         id="path175"
         style="font-size:3.52778px;stroke-width:0.264583"
         d="M 5.8465352,177.40242 H 4.1343216 v -2.56488 h 0.6442333 v 2.07568 h 1.0679803 z" />
      <path
         id="path177"
         style="font-size:3.52778px;stroke-width:0.264583"
         d="m 8.4441388,176.12257 q 0,0.35829 -0.156752,0.64251 -0.1567519,0.28249 -0.3961862,0.43408 -0.1998157,0.12919 -0.4358049,0.16709 -0.2342666,0.0362 -0.4995391,0.0362 H 6.1531488 v -2.56488 h 0.7958176 q 0.2704401,0 0.5064293,0.0345 0.2359892,0.0344 0.4426951,0.16708 0.2532147,0.16192 0.3996313,0.43753 0.1464167,0.27389 0.1464167,0.64596 z M 7.78268,176.1174 q 0,-0.25322 -0.08785,-0.43236 -0.086127,-0.18087 -0.2669951,-0.2825 -0.1309137,-0.0724 -0.2756078,-0.0792 -0.1429715,-0.007 -0.3427872,-0.007 h -0.012058 v 1.60542 h 0.012058 q 0.2170412,0 0.3651804,-0.007 0.1498617,-0.009 0.2842205,-0.093 0.1584745,-0.0999 0.2411569,-0.27561 0.082682,-0.1757 0.082682,-0.42891 z" />
    </g>
    <g
       transform="translate(-3.25e-6,-2.5400324)"
       style="font-weight:bold;font-size:3.52778px;line-height:1.25;font-family:Tahoma;-inkscape-font-specification:'Tahoma, Bold';letter-spacing:0px;stroke-width:0.264583"
       id="text147"
       aria-label="SYNC">
      <path
         id="path180"
         style="font-size:3.52778px;stroke-width:0.264583"
         d="m 1.2955641,284.12894 q -0.2945558,0 -0.51848717,-0.0568 -0.2222088,-0.0568 -0.41341173,-0.14125 v -0.60978 h 0.0585667 q 0.19292548,0.16364 0.42546957,0.25149 0.23254403,0.0879 0.45130773,0.0879 0.055122,0 0.1446941,-0.012 0.091295,-0.0121 0.1464167,-0.0379 0.067179,-0.0293 0.1136882,-0.081 0.046509,-0.0534 0.046509,-0.13953 0,-0.0965 -0.075792,-0.15675 -0.075792,-0.0603 -0.1808676,-0.0879 -0.1309138,-0.0344 -0.2807755,-0.0655 -0.1481392,-0.031 -0.27733034,-0.0758 -0.29800095,-0.10507 -0.42719211,-0.2825 -0.12919117,-0.17742 -0.12919117,-0.44441 0,-0.36002 0.30489115,-0.58222 0.30489115,-0.22394 0.76136657,-0.22394 0.229099,0 0.4547529,0.0465 0.2273764,0.0465 0.4065215,0.12575 v 0.58567 h -0.056844 q -0.1429716,-0.12231 -0.3496774,-0.20671 -0.2049833,-0.0844 -0.4220245,-0.0844 -0.084405,0 -0.1515843,0.0121 -0.067179,0.0121 -0.141249,0.0465 -0.060289,0.0276 -0.1050755,0.0827 -0.043064,0.0534 -0.043064,0.12058 0,0.0982 0.068902,0.15675 0.070625,0.0568 0.2704401,0.10336 0.1291912,0.0293 0.2480471,0.0568 0.1205784,0.0276 0.2566597,0.0758 0.2669951,0.0965 0.3961863,0.26011 0.1309137,0.16192 0.1309137,0.42891 0,0.38241 -0.3014461,0.61495 -0.2997235,0.23255 -0.8113205,0.23255 z" />
      <path
         id="path182"
         style="font-size:3.52778px;stroke-width:0.264583"
         d="M 4.8681304,281.51755 3.9827403,283.011 v 1.07143 H 3.3385071 v -1.0387 L 2.437614,281.51755 h 0.7338058 l 0.5029843,0.9164 0.4840362,-0.9164 z" />
      <path
         id="path184"
         style="font-size:3.52778px;stroke-width:0.264583"
         d="M 7.2969243,284.08243 H 6.6768068 l -0.9887431,-1.78801 v 1.78801 H 5.098952 v -2.56488 h 0.7906499 l 0.8182107,1.46934 v -1.46934 h 0.5891117 z" />
      <path
         id="path186"
         style="font-size:3.52778px;stroke-width:0.264583"
         d="m 8.9264556,284.13238 q -0.5770539,0 -0.916396,-0.34795 -0.3393421,-0.34968 -0.3393421,-0.98186 0,-0.60978 0.3393421,-0.97151 0.3410647,-0.36346 0.9181186,-0.36346 0.1533068,0 0.2756078,0.0172 0.1223009,0.0172 0.2342666,0.0482 0.08785,0.0258 0.1912029,0.0706 0.103353,0.0448 0.1670873,0.0775 v 0.61151 h -0.065457 q -0.046509,-0.0413 -0.1171333,-0.0982 -0.070624,-0.0586 -0.160197,-0.11368 -0.089573,-0.0551 -0.1980932,-0.093 -0.106798,-0.0396 -0.2239313,-0.0396 -0.1395265,0 -0.2566598,0.0448 -0.1154108,0.0431 -0.2204862,0.15158 -0.096463,0.0982 -0.1584745,0.26527 -0.060289,0.16709 -0.060289,0.39447 0,0.23943 0.063734,0.40307 0.063734,0.16192 0.1670872,0.26183 0.099908,0.0965 0.2222088,0.13953 0.1240235,0.0431 0.2463245,0.0431 0.1274686,0 0.2428794,-0.0413 0.1154107,-0.0431 0.194648,-0.0947 0.086127,-0.0534 0.1515843,-0.10852 0.065457,-0.0551 0.1136882,-0.0982 h 0.058567 v 0.6029 q -0.070624,0.0327 -0.1636422,0.0758 -0.093018,0.0413 -0.1912029,0.0706 -0.1205784,0.0362 -0.2256539,0.0551 -0.1050755,0.019 -0.2893882,0.019 z" />
    </g>
  </g>
  <g
     style="display:none"
     inkscape:label="components"
     id="layer2"
     inkscape:groupmode="layer">
    <circle
       inkscape:label="out9"
       style="display:inline;opacity:1;vector-effect:none;fill:#0000ff;fill-opacity:1;fill-rule:evenodd;stroke:none;stroke-width:1;stroke-linecap:butt;stroke-linejoin:miter;stroke-miterlimit:4;stroke-dasharray:none;stroke-dashoffset:0;stroke-opacity:1;paint-order:normal"
       id="circle9"
       cx="5.0800009"
       cy="106.68002"
       r="4" />
    <circle
       inkscape:label="polyin"
       r="4"
       cy="66.040009"
       cx="5.0800009"
       id="circle11"
       style="display:inline;opacity:1;vector-effect:none;fill:#00ff00;fill-opacity:1;fill-rule:evenodd;stroke:none;stroke-width:1;stroke-linecap:butt;stroke-linejoin:miter;stroke-miterlimit:4;stroke-dasharray:none;stroke-dashoffset:0;stroke-opacity:1;paint-order:normal" />
    <circle
       r="4"
       cy="10.160002"
       cx="5.0800009"
       id="circle1"
       style="display:inline;opacity:1;vector-effect:none;fill:#0000ff;fill-opacity:1;fill-rule:evenodd;stroke:none;stroke-width:1;stroke-linecap:butt;stroke-linejoin:miter;stroke-miterlimit:4;stroke-dasharray:none;stroke-dashoffset:0;stroke-opacity:1;paint-order:normal"
       inkscape:label="out1" />
    <circle
       r="4"
       cy="40.640007"
       cx="5.0800009"
       id="circle4"
       style="display:inline;opacity:1;vector-effect:none;fill:#0000ff;fill-opacity:1;fill-rule:evenodd;stroke:none;stroke-width:1;stroke-linecap:butt;stroke-linejoin:miter;stroke-miterlimit:4;stroke-dasharray:none;stroke-dashoffset:0;stroke-opacity:1;paint-order:normal"
       inkscape:label="out4" />
    <circle
       r="4"
       cy="50.800007"
       cx="5.0800009"
       id="circle5"
       style="display:inline;opacity:1;vector-effect:none;fill:#0000ff;fill-opacity:1;fill-rule:evenodd;stroke:none;stroke-width:1;stroke-linecap:butt;stroke-linejoin:miter;stroke-miterlimit:4;stroke-dasharray:none;stroke-dashoffset:0;stroke-opacity:1;paint-order:normal"
       inkscape:label="out5" />
    <circle
       r="4"
       cy="76.200012"
       cx="5.0800009"
       id="circle6"
       style="display:inline;opacity:1;vector-effect:none;fill:#0000ff;fill-opacity:1;fill-rule:evenodd;stroke:none;stroke-width:1;stroke-linecap:butt;stroke-linejoin:miter;stroke-miterlimit:4;stroke-dasharray:none;stroke-dashoffset:0;stroke-opacity:1;paint-order:normal"
       inkscape:label="out6" />
    <circle
       r="4"
       cy="86.360016"
       cx="5.0800009"
       id="circle7"
       style="display:inline;opacity:1;vector-effect:none;fill:#0000ff;fill-opacity:1;fill-rule:evenodd;stroke:none;stroke-width:1;stroke-linecap:butt;stroke-linejoin:miter;stroke-miterlimit:4;stroke-dasharray:none;stroke-dashoffset:0;stroke-opacity:1;paint-order:normal"
       inkscape:label="out7" />
    <circle
       r="4"
       cy="96.52002"
       cx="5.0800009"
       id="circle8"
       style="display:inline;opacity:1;vector-effect:none;fill:#0000ff;fill-opacity:1;fill-rule:evenodd;stroke:none;stroke-width:1;stroke-linecap:butt;stroke-linejoin:miter;stroke-miterlimit:4;stroke-dasharray:none;stroke-dashoffset:0;stroke-opacity:1;paint-order:normal"
       inkscape:label="out8" />
    <circle
       r="4"
       cy="30.480005"
       cx="5.0800009"
       id="circle3"
       style="display:inline;opacity:1;vector-effect:none;fill:#0000ff;fill-opacity:1;fill-rule:evenodd;stroke:none;stroke-width:1;stroke-linecap:butt;stroke-linejoin:miter;stroke-miterlimit:4;stroke-dasharray:none;stroke-dashoffset:0;stroke-opacity:1;paint-order:normal"
       inkscape:label="out3" />
    <circle
       r="4"
       cy="20.320004"
       cx="5.0800009"
       id="circle2"
       style="display:inline;opacity:1;vector-effect:none;fill:#0000ff;fill-opacity:1;fill-rule:evenodd;stroke:none;stroke-width:1;stroke-linecap:butt;stroke-linejoin:miter;stroke-miterlimit:4;stroke-dasharray:none;stroke-dashoffset:0;stroke-opacity:1;paint-order:normal"
       inkscape:label="out2" />
    <circle
       r="4"
       cy="116.84002"
       cx="5.0800009"
       id="circle10"
       style="display:inline;opacity:1;vector-effect:none;fill:#0000ff;fill-opacity:1;fill-rule:evenodd;stroke:none;stroke-width:1;stroke-linecap:butt;stroke-linejoin:miter;stroke-miterlimit:4;stroke-dasharray:none;stroke-dashoffset:0;stroke-opacity:1;paint-order:normal"
       inkscape:label="out10" />
    <circle
       r="0.035242248"
       cy="-48.154167"
       cx="-43.920834"
       style="fill:#000000;stroke:#000000;stroke-width:0.264583"
       id="path30" />
    <circle
       r="0.0088105621"
       cy="-2.5135417"
       cx="-32.279167"
       style="fill:#000000;stroke:#000000;stroke-width:0.264583"
       id="path32" />
    <circle
       r="0.0088105621"
       cy="0.1984375"
       cx="-17.991667"
       style="fill:#000000;stroke:#000000;stroke-width:0.264583"
       id="path34" />
    <circle
       r="0.0088105621"
       cy="2.9104166"
       cx="-25.069271"
       style="fill:#000000;stroke:#000000;stroke-width:0.264583"
       id="path36" />
    <text
       id="text42"
       y="11.90625"
       x="-38.695312"
       style="font-size:10.5833px;line-height:1.25;font-family:'Eras Bold ITC';-inkscape-font-specification:'Eras Bold ITC';stroke-width:0.264583"
       xml:space="preserve"><tspan
         style="font-style:normal;font-variant:normal;font-weight:bold;font-stretch:normal;font-size:3.52778px;font-family:Garamond;-inkscape-font-specification:'Garamond Bold';stroke-width:0.264583"
         y="11.90625"
         x="-38.695312"
         id="tspan40"
         sodipodi:role="line" /></text>
  </g>
</svg>
