<?xml version="1.0" encoding="UTF-8" standalone="no"?>
<svg
   xmlns:dc="http://purl.org/dc/elements/1.1/"
   xmlns:cc="http://creativecommons.org/ns#"
   xmlns:rdf="http://www.w3.org/1999/02/22-rdf-syntax-ns#"
   xmlns:svg="http://www.w3.org/2000/svg"
   xmlns="http://www.w3.org/2000/svg"
   xmlns:sodipodi="http://sodipodi.sourceforge.net/DTD/sodipodi-0.dtd"
   xmlns:inkscape="http://www.inkscape.org/namespaces/inkscape"
   sodipodi:docname="Slide6.svg"
   inkscape:version="1.0 (4035a4fb49, 2020-05-01)"
   id="svg8"
   version="1.1"
   viewBox="0 0 20.320002 128.50002"
   height="128.5mm"
   width="20.32mm">
  <defs
     id="defs2">
    <inkscape:path-effect
       effect="fillet_chamfer"
       id="path-effect443"
       is_visible="true"
       lpeversion="1"
       satellites_param="F,0,0,1,0,4,0,1 @ F,0,0,1,0,4,0,1 @ F,0,0,1,0,4,0,1 @ F,0,0,1,0,4,0,1"
       unit="mm"
       method="auto"
       mode="F"
       radius="4"
       chamfer_steps="1"
       flexible="false"
       use_knot_distance="true"
       apply_no_radius="true"
       apply_with_radius="true"
       only_selected="false"
       hide_knots="false" />
    <inkscape:path-effect
       hide_knots="false"
       only_selected="false"
       apply_with_radius="true"
       apply_no_radius="true"
       use_knot_distance="true"
       flexible="false"
       chamfer_steps="1"
       radius="4"
       mode="F"
       method="auto"
       unit="mm"
       satellites_param="F,0,0,1,0,4,0,1 @ F,0,0,1,0,4,0,1 @ F,0,0,1,0,4,0,1 @ F,0,0,1,0,4,0,1"
       lpeversion="1"
       is_visible="true"
       id="path-effect154"
       effect="fillet_chamfer" />
  </defs>
  <sodipodi:namedview
     inkscape:snap-others="true"
     inkscape:snap-grids="true"
     guidetolerance="10000"
     gridtolerance="10000"
     objecttolerance="10"
     inkscape:lockguides="false"
     inkscape:document-rotation="0"
     inkscape:snap-nodes="false"
     inkscape:snap-bbox-midpoints="true"
     inkscape:window-maximized="1"
     inkscape:window-y="-11"
     inkscape:window-x="-11"
     inkscape:window-height="1046"
     inkscape:window-width="1780"
     inkscape:snap-bbox-edge-midpoints="false"
     inkscape:bbox-nodes="false"
     inkscape:snap-page="true"
     inkscape:snap-bbox="true"
     units="mm"
     showgrid="true"
     inkscape:current-layer="layer1"
     inkscape:document-units="mm"
     inkscape:cy="273.41969"
     inkscape:cx="-20.276464"
     inkscape:zoom="1.4142136"
     inkscape:pageshadow="2"
     inkscape:pageopacity="0.0"
     borderopacity="1.0"
     bordercolor="#666666"
     pagecolor="#ffffff"
     id="base">
    <inkscape:grid
       snapvisiblegridlinesonly="false"
       empspacing="4"
       empopacity="0.25098039"
       empcolor="#71530f"
       spacingy="2.5400004"
       spacingx="2.5400004"
       opacity="0.53333333"
       color="#ffd984"
       units="mm"
       id="grid86"
       type="xygrid" />
  </sodipodi:namedview>
  <metadata
     id="metadata5">
    <rdf:RDF>
      <cc:Work
         rdf:about="">
        <dc:format>image/svg+xml</dc:format>
        <dc:type
           rdf:resource="http://purl.org/dc/dcmitype/StillImage" />
        <dc:title />
        <dc:creator>
          <cc:Agent>
            <dc:title>Firo Lightfog</dc:title>
          </cc:Agent>
        </dc:creator>
      </cc:Work>
    </rdf:RDF>
  </metadata>
  <g
     transform="translate(0,-168.49998)"
     id="layer1"
     inkscape:groupmode="layer"
     inkscape:label="Layer 1"
     style="display:inline">
    <rect
       y="167.74997"
       x="-0.071813658"
       height="129.3419"
       width="20.463631"
       id="rect420"
       style="display:inline;opacity:1;vector-effect:none;fill:#cccccc;fill-opacity:1;fill-rule:evenodd;stroke:none;stroke-width:0.53381;stroke-linecap:butt;stroke-linejoin:miter;stroke-miterlimit:4;stroke-dasharray:none;stroke-dashoffset:0;stroke-opacity:1;paint-order:normal" />
    <text
       id="text59"
       y="277.43234"
       x="1.1693041"
       style="font-size:10.5833px;line-height:1.25;font-family:'Eras Bold ITC';-inkscape-font-specification:'Eras Bold ITC';stroke-width:0.264583"
       xml:space="preserve"><tspan
         style="font-size:2.82222px;fill:#ffff00;stroke-width:0.264583"
         y="277.43234"
         x="1.1693041"
         id="tspan57"
         sodipodi:role="line" /></text>
    <text
       id="text127"
       y="172.05467"
       x="-78.577248"
       style="font-size:10.5833px;line-height:1.25;font-family:'Eras Bold ITC';-inkscape-font-specification:'Eras Bold ITC';stroke-width:0.264583"
       xml:space="preserve"><tspan
         style="stroke-width:0.264583"
         y="172.05467"
         x="-78.577248"
         id="tspan125"
         sodipodi:role="line" /></text>
    <text
       id="text131"
       y="186.46049"
       x="-89.989647"
       style="font-size:10.5833px;line-height:1.25;font-family:'Eras Bold ITC';-inkscape-font-specification:'Eras Bold ITC';stroke-width:0.264583"
       xml:space="preserve"><tspan
         style="stroke-width:0.264583"
         y="186.46049"
         x="-89.989647"
         id="tspan129"
         sodipodi:role="line" /></text>
    <g
       aria-label="b"
       id="text104"
       style="font-weight:bold;font-size:6.35px;line-height:1.25;font-family:Tahoma;-inkscape-font-specification:'Tahoma, Bold';display:inline;fill:#000000;stroke-width:0.264583"
       transform="translate(1.2291667e-7,-0.10583296)">
      <path
         d="m 3.2732611,177.4586 v 0.68213 q 0.3927406,0 0.592556,0.19982 0.2067056,0.19981 0.3927406,0.76481 l 0.110243,0.34451 q 0.37207,1.14377 1.2195628,1.50206 -0.7854811,0.15158 -1.2540138,0.64768 -0.4616424,0.4892 -0.4616424,1.16444 0,0.94395 0.7096891,1.56407 0.7096891,0.61323 1.7983385,0.61323 1.6536445,0 2.5562588,-1.41938 L 8.4064495,183.0741 q -0.5856658,0.62701 -1.2057825,0.62701 -0.5098738,0 -0.8750536,-0.33073 -0.3651799,-0.33762 -0.3651799,-0.79926 0,-0.38585 0.2824977,-0.66835 0.2893878,-0.28249 0.6752382,-0.28249 0.6959087,0 1.9499225,0.98529 l 0.4203013,0.33073 q 2.0463848,1.6123 3.9067348,1.6123 1.612304,0 2.728514,-1.06108 1.1231,-1.06109 1.1231,-2.58382 0,-1.54341 -1.157551,-2.49425 -1.157551,-0.95085 -3.038572,-0.95085 h -0.227376 v 0.68213 q 1.11621,0.0758 1.770778,0.77859 0.654567,0.69591 0.654567,1.81212 0,1.10243 -0.826822,1.88791 -0.826822,0.77859 -1.998154,0.77859 -1.12999,0 -2.011934,-0.68901 -0.8819437,-0.68902 -0.8819437,-1.57097 0,-0.4203 0.2687173,-0.70969 0.2756074,-0.28938 0.6752384,-0.28938 0.399631,0 0.599446,0.22048 0.206705,0.2136 0.206705,0.65457 0,0.26872 -0.151584,0.6339 l 0.620117,0.28249 q 0.413411,-0.9784 0.413411,-1.63986 0,-0.81304 -0.530544,-1.39182 -0.523654,-0.58566 -1.267794,-0.58566 -0.475423,0 -0.8681636,0.23426 -0.3927406,0.23427 -0.7027989,0.70969 -0.3996308,-0.99907 -1.2677942,-1.39871 -0.8612732,-0.39963 -2.6182705,-0.39963 z m 4.9609337,3.36241 Q 7.2213375,180.62809 6.3807349,179.13292 L 6.2636017,178.9331 q -0.3651798,-0.64767 -0.8819437,-0.84749 2.6320509,0 2.8525368,2.7354 z"
         style="font-style:normal;font-variant:normal;font-weight:bold;font-stretch:normal;font-size:14.1111px;font-family:'Wingdings 2';-inkscape-font-specification:'Wingdings 2 Bold';fill:#000000;stroke-width:0.264583"
         id="path116" />
    </g>
    <g
       transform="translate(2.2999999e-6,4.2334502)"
       style="font-weight:bold;font-size:2.82222px;line-height:1.25;font-family:Tahoma;-inkscape-font-specification:'Tahoma, Bold';fill:#000000;stroke-width:0.264583"
       id="text152"
       aria-label="MIN">
      <path
         id="path254"
         style="font-size:2.82222px;fill:#000000;stroke-width:0.264583"
         d="M 4.3537728,198.31248 H 3.841143 v -1.36012 l -0.3734481,0.87781 H 3.1162955 l -0.3734481,-0.87781 v 1.36012 H 2.2577783 v -2.05189 h 0.593934 l 0.4547523,1.01285 0.4533742,-1.01285 h 0.593934 z" />
      <path
         id="path256"
         style="font-size:2.82222px;fill:#000000;stroke-width:0.264583"
         d="M 5.7993339,198.31248 H 4.6941481 v -0.35828 h 0.2949 v -1.33532 h -0.2949 v -0.35829 h 1.1051858 v 0.35829 H 5.504434 v 1.33532 h 0.2948999 z" />
      <path
         id="path258"
         style="font-size:2.82222px;fill:#000000;stroke-width:0.264583"
         d="M 7.9022187,198.31248 H 7.4061254 l -0.7909934,-1.4304 v 1.4304 H 6.1438433 v -2.05189 h 0.6325191 l 0.6545676,1.17546 v -1.17546 h 0.4712887 z" />
    </g>
    <g
       transform="translate(-1.1000001e-6,4.2334502)"
       style="font-weight:bold;font-size:2.82222px;line-height:1.25;font-family:Tahoma;-inkscape-font-specification:'Tahoma, Bold';fill:#000000;stroke-width:0.264583"
       id="text156"
       aria-label="MAX">
      <path
         id="path261"
         style="font-size:2.82222px;fill:#000000;stroke-width:0.264583"
         d="m 14.240927,198.31248 h -0.51263 v -1.36012 l -0.373448,0.87781 h -0.3514 l -0.373448,-0.87781 v 1.36012 h -0.485069 v -2.05189 h 0.593934 l 0.454752,1.01285 0.453375,-1.01285 h 0.593934 z" />
      <path
         id="path263"
         style="font-size:2.82222px;fill:#000000;stroke-width:0.264583"
         d="m 14.443498,198.31248 0.693153,-2.05189 h 0.562239 l 0.693153,2.05189 h -0.530545 l -0.128157,-0.41892 H 15.08842 l -0.128158,0.41892 z m 1.176844,-0.79099 -0.209462,-0.67661 -0.209461,0.67661 z" />
      <path
         id="path265"
         style="font-size:2.82222px;fill:#000000;stroke-width:0.264583"
         d="m 18.335075,198.31248 h -0.598068 l -0.394118,-0.65456 -0.402387,0.65456 h -0.570508 l 0.665592,-1.03352 -0.639409,-1.01837 h 0.59669 l 0.369314,0.61874 0.37896,-0.61874 h 0.571886 l -0.643544,0.9977 z" />
    </g>
    <g
       style="font-weight:bold;font-size:4.23333px;line-height:1.25;font-family:Tahoma;-inkscape-font-specification:'Tahoma, Bold';fill:#000000;stroke-width:0.264583"
       id="text190"
       aria-label="SLD6">
      <path
         id="path245"
         style="fill:#000000;stroke-width:0.264583"
         d="m 5.9215039,294.55163 q -0.3534665,0 -0.6221837,-0.0682 -0.2666501,-0.0682 -0.4960933,-0.1695 v -0.73174 h 0.07028 q 0.2315102,0.19637 0.5105627,0.30179 0.2790525,0.10542 0.5415685,0.10542 0.066146,0 0.1736327,-0.0145 0.109554,-0.0145 0.1756997,-0.0455 0.080615,-0.0351 0.1364257,-0.0972 0.05581,-0.0641 0.05581,-0.16743 0,-0.11575 -0.09095,-0.1881 -0.09095,-0.0724 -0.2170409,-0.10542 -0.1570962,-0.0413 -0.33693,-0.0785 -0.1777668,-0.0372 -0.332796,-0.091 -0.3576006,-0.12609 -0.5126297,-0.33899 -0.1550292,-0.21291 -0.1550292,-0.53331 0,-0.43201 0.3658688,-0.69866 0.3658689,-0.26872 0.9136386,-0.26872 0.2749184,0 0.5457026,0.0558 0.2728514,0.0558 0.4878251,0.1509 v 0.7028 h -0.068213 q -0.1715656,-0.14676 -0.4196123,-0.24805 -0.2459796,-0.10129 -0.5064286,-0.10129 -0.1012857,0 -0.1819009,0.0145 -0.080615,0.0145 -0.1694985,0.0558 -0.072347,0.0331 -0.1260904,0.0992 -0.051676,0.0641 -0.051676,0.1447 0,0.11782 0.082682,0.1881 0.084749,0.0682 0.3245277,0.12402 0.1550292,0.0351 0.297656,0.0682 0.1446939,0.0331 0.3079913,0.091 0.3203936,0.11575 0.4754228,0.31212 0.1570962,0.1943 0.1570962,0.5147 0,0.45888 -0.3617347,0.73794 -0.3596677,0.27905 -0.9735832,0.27905 z" />
      <path
         id="path247"
         style="fill:#000000;stroke-width:0.264583"
         d="M 9.7042157,294.49582 H 7.6495624 v -3.07785 h 0.7730788 v 2.49081 h 1.2815745 z" />
      <path
         id="path249"
         style="fill:#000000;stroke-width:0.264583"
         d="m 12.821335,292.96 q 0,0.42994 -0.188102,0.77101 -0.188102,0.339 -0.475423,0.5209 -0.239778,0.15503 -0.522965,0.2005 -0.281119,0.0434 -0.599446,0.0434 h -0.963248 v -3.07785 h 0.95498 q 0.324528,0 0.607714,0.0413 0.283187,0.0413 0.531234,0.20051 0.303857,0.1943 0.479556,0.52503 0.1757,0.32866 0.1757,0.77515 z m -0.793749,-0.006 q 0,-0.30386 -0.10542,-0.51884 -0.103353,-0.21704 -0.320394,-0.33899 -0.157096,-0.0868 -0.330729,-0.0951 -0.171565,-0.008 -0.411344,-0.008 h -0.01447 v 1.9265 h 0.01447 q 0.260449,0 0.438216,-0.008 0.179834,-0.0103 0.341064,-0.11162 0.190169,-0.11989 0.289388,-0.33073 0.09922,-0.21084 0.09922,-0.51469 z" />
      <path
         id="path251"
         style="fill:#000000;stroke-width:0.264583"
         d="m 15.516776,293.44782 q 0,0.48576 -0.307991,0.79995 -0.307991,0.31213 -0.845426,0.31213 -0.268717,0 -0.479557,-0.0765 -0.210839,-0.0786 -0.3576,-0.22945 -0.1757,-0.17776 -0.268718,-0.45888 -0.09302,-0.28112 -0.09302,-0.6718 0,-0.40514 0.08682,-0.71933 0.08682,-0.31419 0.283187,-0.55604 0.188102,-0.22944 0.491959,-0.3576 0.303857,-0.13022 0.719335,-0.13022 0.150895,0 0.301791,0.0207 0.152962,0.0186 0.208772,0.031 v 0.60565 h -0.05581 q -0.05374,-0.0269 -0.177767,-0.06 -0.124023,-0.0351 -0.283187,-0.0351 -0.361734,0 -0.558105,0.19017 -0.19637,0.19017 -0.241845,0.54571 0.150895,-0.0971 0.305924,-0.15503 0.157096,-0.0579 0.353466,-0.0579 0.165365,0 0.310059,0.0455 0.146761,0.0434 0.260449,0.12815 0.159163,0.12196 0.252181,0.3204 0.09508,0.19843 0.09508,0.50849 z m -0.897102,0.46509 q 0.05995,-0.0744 0.09095,-0.16123 0.03307,-0.0889 0.03307,-0.26665 0,-0.14883 -0.03721,-0.24598 -0.03721,-0.0971 -0.105419,-0.15503 -0.06821,-0.0579 -0.15503,-0.0786 -0.08682,-0.0227 -0.183968,-0.0227 -0.08061,0 -0.167431,0.0207 -0.08475,0.0207 -0.159163,0.0517 0,0.0207 -0.0021,0.0682 -0.0021,0.0476 -0.0021,0.11989 0,0.26459 0.04547,0.42582 0.04754,0.16123 0.117822,0.24391 0.05374,0.0661 0.121956,0.0951 0.07028,0.0289 0.146761,0.0289 0.06201,0 0.134359,-0.031 0.07235,-0.031 0.121956,-0.093 z" />
    </g>
    <path
       d="m 6.3283343,271.14273 h 7.6633347 a 4,4 45 0 1 4,4 v 8.7132 a 4,4 135 0 1 -4,4 H 6.3283343 a 4,4 45 0 1 -4,-4 v -8.7132 a 4,4 135 0 1 4,-4 z"
       y="271.14273"
       x="2.3283343"
       height="16.7132"
       width="15.663335"
       id="rect48-4"
       style="display:inline;fill:#a02c2c;stroke-width:0.330269"
       inkscape:path-effect="#path-effect443"
       sodipodi:type="rect" />
    <g
       aria-label="OUT"
       id="text63"
       style="font-size:10.5833px;line-height:1.25;font-family:'Eras Bold ITC';-inkscape-font-specification:'Eras Bold ITC';display:inline;fill:#000000;stroke-width:0.264583"
       transform="translate(5.0800001,-3.2676338)">
      <path
         d="m 3.0694446,276.74367 q 0.2204859,0 0.4244354,0.0593 0.2039495,0.0593 0.3569116,0.19017 0.1529622,0.12953 0.2287542,0.29903 0.075792,0.1695 0.075792,0.38999 0,0.23151 -0.08406,0.42581 -0.082682,0.19292 -0.2397785,0.32797 -0.1570962,0.13505 -0.3748261,0.19844 -0.2177299,0.062 -0.4533742,0.062 -0.2328883,0 -0.4464841,-0.0606 -0.2135957,-0.062 -0.37207,-0.19844 -0.1570962,-0.1378 -0.223242,-0.30592 -0.066146,-0.16812 -0.066146,-0.37345 0,-0.30179 0.1391818,-0.52917 0.1405598,-0.22875 0.4147892,-0.35691 0.2756074,-0.12816 0.6201167,-0.12816 z m -0.024805,0.41479 q -0.1584743,0 -0.2866317,0.0786 -0.1281575,0.0772 -0.1970593,0.21635 -0.068902,0.13781 -0.068902,0.29628 0,0.14607 0.062012,0.26734 0.06339,0.12127 0.1915471,0.19017 0.1281575,0.0675 0.2714734,0.0675 0.1529621,0 0.2797415,-0.0758 0.1281575,-0.0772 0.1943032,-0.21497 0.067524,-0.13919 0.067524,-0.29077 0,-0.14745 -0.062012,-0.27147 -0.062012,-0.1254 -0.1819009,-0.19431 -0.1198892,-0.0689 -0.2700953,-0.0689 z"
         style="font-size:2.82222px;fill:#000000;stroke-width:0.264583"
         id="path65" />
      <path
         d="m 4.461262,276.7795 q 0.2149738,0.003 0.3031682,0.003 0.110243,0 0.2935219,-0.003 l -0.041341,0.58567 q -0.012402,0.16536 -0.019292,0.31006 -0.00551,0.14469 -0.00551,0.19981 0,0.10473 0.015158,0.17501 0.015158,0.0703 0.055122,0.11989 0.039963,0.0482 0.110243,0.073 0.071658,0.0248 0.148828,0.0248 0.066146,0 0.1240233,-0.0152 0.045475,-0.0124 0.081304,-0.0344 0.031695,-0.0207 0.055122,-0.0482 0.028939,-0.0331 0.050987,-0.0827 0.022049,-0.0469 0.033073,-0.12127 0.012402,-0.0758 0.033073,-0.34451 0.017914,-0.22875 0.027561,-0.41892 0.00827,-0.18466 0.015158,-0.42306 0.2080836,0.003 0.3279729,0.003 l 0.2797415,-0.003 -0.067524,0.97841 q -0.00138,0.0276 -0.00138,0.0455 -0.00551,0.28664 -0.035829,0.40515 -0.028939,0.11713 -0.097841,0.20395 -0.068902,0.0868 -0.2011934,0.15709 -0.1322915,0.0689 -0.3004121,0.0978 -0.1681205,0.0289 -0.3403752,0.0289 -0.1543401,0 -0.297656,-0.022 -0.1322915,-0.0221 -0.2384004,-0.0634 -0.1061089,-0.0427 -0.184657,-0.0992 -0.071658,-0.0524 -0.110243,-0.1061 -0.038585,-0.0551 -0.060634,-0.13092 -0.024805,-0.0854 -0.024805,-0.18328 0,-0.0331 0.00276,-0.0992 0.00276,-0.0675 0.012402,-0.19292 l 0.017914,-0.22049 q 0.00689,-0.0868 0.015158,-0.25493 z"
         style="font-size:2.82222px;fill:#000000;stroke-width:0.264583"
         id="path67" />
      <path
         d="m 6.9913383,278.66052 q 0.068902,-0.66972 0.082682,-1.4745 l -0.5870439,0.0152 0.00689,-0.15296 q 0.00551,-0.12265 0.00827,-0.26872 0.3913626,0.003 0.9122606,0.003 l 0.3403752,-10e-4 h 0.3307289 l 0.1791449,-0.001 -0.00827,0.13367 q -0.00551,0.10749 -0.00827,0.17777 -0.00138,0.0703 -0.00138,0.10611 -0.2949,-0.0138 -0.4864471,-0.0138 h -0.096463 q -0.020671,0.24391 -0.031695,0.45061 -0.015158,0.29628 -0.023427,0.57602 -0.00827,0.27837 -0.00827,0.45062 -0.2259981,-0.003 -0.2921439,-0.003 -0.059256,0 -0.3169486,0.003 z"
         style="font-size:2.82222px;fill:#000000;stroke-width:0.264583"
         id="path69" />
    </g>
  </g>
  <g
     style="display:none"
     inkscape:label="components"
     id="layer2"
     inkscape:groupmode="layer">
    <circle
       r="4"
       cy="25.400003"
       cx="15.240003"
       id="knobmax"
       style="display:inline;opacity:1;vector-effect:none;fill:#ff0000;fill-opacity:1;fill-rule:evenodd;stroke:none;stroke-width:1;stroke-linecap:butt;stroke-linejoin:miter;stroke-miterlimit:4;stroke-dasharray:none;stroke-dashoffset:0;stroke-opacity:1;paint-order:normal"
       inkscape:label="knobmax" />
    <circle
       inkscape:transform-center-y="-4.9578503"
       inkscape:transform-center-x="0.65481041"
       r="4"
       cy="25.400003"
       cx="5.0800009"
       id="knobmin"
       style="display:inline;opacity:1;vector-effect:none;fill:#ff0000;fill-opacity:1;fill-rule:evenodd;stroke:none;stroke-width:1;stroke-linecap:butt;stroke-linejoin:miter;stroke-miterlimit:4;stroke-dasharray:none;stroke-dashoffset:0;stroke-opacity:1;paint-order:normal"
       inkscape:label="knobmin" />
    <circle
       r="0.035242248"
       cy="-48.154167"
       cx="-43.920834"
       style="fill:#000000;stroke:#000000;stroke-width:0.264583"
       id="path30" />
    <circle
       r="0.0088105621"
       cy="-2.5135417"
       cx="-32.279167"
       style="fill:#000000;stroke:#000000;stroke-width:0.264583"
       id="path32" />
    <circle
       r="0.0088105621"
       cy="0.1984375"
       cx="-17.991667"
       style="fill:#000000;stroke:#000000;stroke-width:0.264583"
       id="path34" />
    <circle
       r="0.0088105621"
       cy="2.9104166"
       cx="-25.069271"
       style="fill:#000000;stroke:#000000;stroke-width:0.264583"
       id="path36" />
    <text
       id="text42"
       y="11.90625"
       x="-38.695312"
       style="font-size:10.5833px;line-height:1.25;font-family:'Eras Bold ITC';-inkscape-font-specification:'Eras Bold ITC';stroke-width:0.264583"
       xml:space="preserve"><tspan
         style="font-style:normal;font-variant:normal;font-weight:bold;font-stretch:normal;font-size:3.52778px;font-family:Garamond;-inkscape-font-specification:'Garamond Bold';stroke-width:0.264583"
         y="11.90625"
         x="-38.695312"
         id="tspan40"
         sodipodi:role="line" /></text>
    <text
       id="text78"
       y="16.668749"
       x="-45.111458"
       style="font-size:10.5833px;line-height:1.25;font-family:'Eras Bold ITC';-inkscape-font-specification:'Eras Bold ITC';stroke-width:0.264583"
       xml:space="preserve"><tspan
         style="stroke-width:0.264583"
         y="16.668749"
         x="-45.111458"
         id="tspan76"
         sodipodi:role="line" /></text>
    <circle
       style="display:inline;opacity:1;vector-effect:none;fill:#0000ff;fill-opacity:1;fill-rule:evenodd;stroke:none;stroke-width:1;stroke-linecap:butt;stroke-linejoin:miter;stroke-miterlimit:4;stroke-dasharray:none;stroke-dashoffset:0;stroke-opacity:1;paint-order:normal"
       id="out1"
       cx="10.160002"
       cy="111.76002"
       r="4"
       inkscape:label="polyout" />
    <circle
       inkscape:label="socketmax"
       r="4"
       cy="40.640007"
       cx="15.240003"
       id="socketmax"
       style="display:inline;opacity:1;vector-effect:none;fill:#00ff00;fill-opacity:1;fill-rule:evenodd;stroke:none;stroke-width:1;stroke-linecap:butt;stroke-linejoin:miter;stroke-miterlimit:4;stroke-dasharray:none;stroke-dashoffset:0;stroke-opacity:1;paint-order:normal" />
    <circle
       style="display:inline;opacity:1;vector-effect:none;fill:#00ff00;fill-opacity:1;fill-rule:evenodd;stroke:none;stroke-width:1;stroke-linecap:butt;stroke-linejoin:miter;stroke-miterlimit:4;stroke-dasharray:none;stroke-dashoffset:0;stroke-opacity:1;paint-order:normal"
       id="socketmin"
       cx="5.0800009"
       cy="40.640007"
       r="4"
       inkscape:label="socketmin" />
    <ellipse
       inkscape:label=""
       style="display:inline;opacity:1;vector-effect:none;fill:#ff0000;fill-opacity:1;fill-rule:evenodd;stroke:none;stroke-width:0.365;stroke-linecap:butt;stroke-linejoin:miter;stroke-miterlimit:4;stroke-dasharray:none;stroke-dashoffset:0;stroke-opacity:1;paint-order:normal"
       id="rect1"
       cx="5.0800009"
       cy="61.065845"
       inkscape:transform-center-x="0.23900592"
       inkscape:transform-center-y="-1.8096121"
       rx="1.4599993"
       ry="1.4599981" />
    <ellipse
       inkscape:label=""
       style="display:inline;opacity:1;vector-effect:none;fill:#ff0000;fill-opacity:1;fill-rule:evenodd;stroke:none;stroke-width:0.365001;stroke-linecap:butt;stroke-linejoin:miter;stroke-miterlimit:4;stroke-dasharray:none;stroke-dashoffset:0;stroke-opacity:1;paint-order:normal"
       id="rect3"
       cx="15.240003"
       cy="61.065838"
       inkscape:transform-center-x="0.23900592"
       inkscape:transform-center-y="-1.8096121"
       rx="1.4599993"
       ry="1.4599981" />
    <ellipse
       inkscape:label=""
       style="display:inline;opacity:1;vector-effect:none;fill:#ff0000;fill-opacity:1;fill-rule:evenodd;stroke:none;stroke-width:0.365001;stroke-linecap:butt;stroke-linejoin:miter;stroke-miterlimit:4;stroke-dasharray:none;stroke-dashoffset:0;stroke-opacity:1;paint-order:normal"
       id="rect4"
       cx="5.0800009"
       cy="89.005844"
       inkscape:transform-center-x="0.23900592"
       inkscape:transform-center-y="-1.8096121"
       rx="1.4599993"
       ry="1.4599981" />
    <ellipse
       inkscape:label=""
       style="display:inline;opacity:1;vector-effect:none;fill:#ff0000;fill-opacity:1;fill-rule:evenodd;stroke:none;stroke-width:0.365001;stroke-linecap:butt;stroke-linejoin:miter;stroke-miterlimit:4;stroke-dasharray:none;stroke-dashoffset:0;stroke-opacity:1;paint-order:normal"
       id="rect5"
       cx="10.160002"
       cy="89.005844"
       inkscape:transform-center-x="0.23900592"
       inkscape:transform-center-y="-1.8096121"
       rx="1.4599993"
       ry="1.4599981" />
    <ellipse
       inkscape:label=""
       style="display:inline;opacity:1;vector-effect:none;fill:#ff0000;fill-opacity:1;fill-rule:evenodd;stroke:none;stroke-width:0.365001;stroke-linecap:butt;stroke-linejoin:miter;stroke-miterlimit:4;stroke-dasharray:none;stroke-dashoffset:0;stroke-opacity:1;paint-order:normal"
       id="rect6"
       cx="15.240003"
       cy="89.005844"
       inkscape:transform-center-x="0.23900592"
       inkscape:transform-center-y="-1.8096121"
       rx="1.4599993"
       ry="1.4599981" />
    <ellipse
       ry="1.4599981"
       rx="1.4599993"
       inkscape:transform-center-y="-1.8096121"
       inkscape:transform-center-x="0.23900592"
       cy="61.065845"
       cx="10.160002"
       id="rect2"
       style="display:inline;opacity:1;vector-effect:none;fill:#ff0000;fill-opacity:1;fill-rule:evenodd;stroke:none;stroke-width:0.365001;stroke-linecap:butt;stroke-linejoin:miter;stroke-miterlimit:4;stroke-dasharray:none;stroke-dashoffset:0;stroke-opacity:1;paint-order:normal"
       inkscape:label="" />
  </g>
</svg>
