<?xml version="1.0" encoding="UTF-8" standalone="no"?>
<svg
   xmlns:dc="http://purl.org/dc/elements/1.1/"
   xmlns:cc="http://creativecommons.org/ns#"
   xmlns:rdf="http://www.w3.org/1999/02/22-rdf-syntax-ns#"
   xmlns:svg="http://www.w3.org/2000/svg"
   xmlns="http://www.w3.org/2000/svg"
   xmlns:sodipodi="http://sodipodi.sourceforge.net/DTD/sodipodi-0.dtd"
   xmlns:inkscape="http://www.inkscape.org/namespaces/inkscape"
   sodipodi:docname="Slide16.svg"
   inkscape:version="1.0 (4035a4fb49, 2020-05-01)"
   id="svg8"
   version="1.1"
   viewBox="0 0 50.800005 128.50002"
   height="128.5mm"
   width="50.799999mm">
  <defs
     id="defs2">
    <rect
       id="rect305"
       height="6.9222804"
       width="15.902536"
       y="238.47114"
       x="-26.005324" />
    <rect
       id="rect215"
       height="9.354433"
       width="23.76026"
       y="117.49168"
       x="-37.230643" />
    <rect
       id="rect209"
       height="13.096206"
       width="27.314944"
       y="75.583819"
       x="-38.540264" />
    <rect
       id="rect203"
       height="12.909118"
       width="45.462544"
       y="73.712932"
       x="-85.873695" />
    <rect
       id="rect197"
       height="11.973674"
       width="23.386082"
       y="82.693188"
       x="-40.036973" />
    <rect
       id="rect191"
       height="7.6706351"
       width="59.868371"
       y="82.880276"
       x="-27.87621" />
    <inkscape:path-effect
       hide_knots="false"
       only_selected="false"
       apply_with_radius="true"
       apply_no_radius="true"
       use_knot_distance="true"
       flexible="false"
       chamfer_steps="1"
       radius="4"
       mode="F"
       method="auto"
       unit="mm"
       satellites_param="F,0,0,1,0,4,0,1 @ F,0,0,1,0,4,0,1 @ F,0,0,1,0,4,0,1 @ F,0,0,1,0,4,0,1"
       lpeversion="1"
       is_visible="true"
       id="path-effect166"
       effect="fillet_chamfer" />
    <inkscape:path-effect
       effect="fillet_chamfer"
       id="path-effect443"
       is_visible="true"
       lpeversion="1"
       satellites_param="F,0,0,1,0,4,0,1 @ F,0,0,1,0,4,0,1 @ F,0,0,1,0,4,0,1 @ F,0,0,1,0,4,0,1"
       unit="mm"
       method="auto"
       mode="F"
       radius="4"
       chamfer_steps="1"
       flexible="false"
       use_knot_distance="true"
       apply_no_radius="true"
       apply_with_radius="true"
       only_selected="false"
       hide_knots="false" />
    <inkscape:path-effect
       hide_knots="false"
       only_selected="false"
       apply_with_radius="true"
       apply_no_radius="true"
       use_knot_distance="true"
       flexible="false"
       chamfer_steps="1"
       radius="4"
       mode="F"
       method="auto"
       unit="mm"
       satellites_param="F,0,0,1,0,4,0,1 @ F,0,0,1,0,4,0,1 @ F,0,0,1,0,4,0,1 @ F,0,0,1,0,4,0,1"
       lpeversion="1"
       is_visible="true"
       id="path-effect154"
       effect="fillet_chamfer" />
  </defs>
  <sodipodi:namedview
     inkscape:snap-others="true"
     inkscape:snap-grids="true"
     guidetolerance="10000"
     gridtolerance="10000"
     objecttolerance="10"
     inkscape:lockguides="false"
     inkscape:document-rotation="0"
     inkscape:snap-nodes="false"
     inkscape:snap-bbox-midpoints="true"
     inkscape:window-maximized="1"
     inkscape:window-y="-11"
     inkscape:window-x="-11"
     inkscape:window-height="1046"
     inkscape:window-width="1780"
     inkscape:snap-bbox-edge-midpoints="false"
     inkscape:bbox-nodes="false"
     inkscape:snap-page="true"
     inkscape:snap-bbox="true"
     units="mm"
     showgrid="true"
     inkscape:current-layer="layer1"
     inkscape:document-units="mm"
     inkscape:cy="270.88577"
     inkscape:cx="45.459104"
     inkscape:zoom="1.4142136"
     inkscape:pageshadow="2"
     inkscape:pageopacity="0.0"
     borderopacity="1.0"
     bordercolor="#666666"
     pagecolor="#ffffff"
     id="base">
    <inkscape:grid
       snapvisiblegridlinesonly="false"
       empspacing="4"
       empopacity="0.25098039"
       empcolor="#71530f"
       spacingy="2.5400004"
       spacingx="2.5400004"
       opacity="0.53333333"
       color="#ffd984"
       units="mm"
       id="grid86"
       type="xygrid" />
  </sodipodi:namedview>
  <metadata
     id="metadata5">
    <rdf:RDF>
      <cc:Work
         rdf:about="">
        <dc:format>image/svg+xml</dc:format>
        <dc:type
           rdf:resource="http://purl.org/dc/dcmitype/StillImage" />
        <dc:title />
        <dc:creator>
          <cc:Agent>
            <dc:title>Firo Lightfog</dc:title>
          </cc:Agent>
        </dc:creator>
      </cc:Work>
    </rdf:RDF>
  </metadata>
  <g
     transform="translate(0,-168.49998)"
     id="layer1"
     inkscape:groupmode="layer"
     inkscape:label="Layer 1"
     style="display:inline">
    <rect
       y="168.54372"
       x="0.06047802"
       height="128.34972"
       width="50.679054"
       id="rect420"
       style="display:inline;opacity:1;vector-effect:none;fill:#cccccc;fill-opacity:1;fill-rule:evenodd;stroke:none;stroke-width:0.83683;stroke-linecap:butt;stroke-linejoin:miter;stroke-miterlimit:4;stroke-dasharray:none;stroke-dashoffset:0;stroke-opacity:1;paint-order:normal" />
    <text
       id="text59"
       y="277.43234"
       x="1.1693041"
       style="font-size:10.5833px;line-height:1.25;font-family:'Eras Bold ITC';-inkscape-font-specification:'Eras Bold ITC';stroke-width:0.264583"
       xml:space="preserve"><tspan
         style="font-size:2.82222px;fill:#ffff00;stroke-width:0.264583"
         y="277.43234"
         x="1.1693041"
         id="tspan57"
         sodipodi:role="line" /></text>
    <text
       id="text127"
       y="172.05467"
       x="-78.577248"
       style="font-size:10.5833px;line-height:1.25;font-family:'Eras Bold ITC';-inkscape-font-specification:'Eras Bold ITC';stroke-width:0.264583"
       xml:space="preserve"><tspan
         style="stroke-width:0.264583"
         y="172.05467"
         x="-78.577248"
         id="tspan125"
         sodipodi:role="line" /></text>
    <text
       id="text131"
       y="186.46049"
       x="-89.989647"
       style="font-size:10.5833px;line-height:1.25;font-family:'Eras Bold ITC';-inkscape-font-specification:'Eras Bold ITC';stroke-width:0.264583"
       xml:space="preserve"><tspan
         style="stroke-width:0.264583"
         y="186.46049"
         x="-89.989647"
         id="tspan129"
         sodipodi:role="line" /></text>
    <g
       aria-label="b"
       id="text104"
       style="font-weight:bold;font-size:6.35px;line-height:1.25;font-family:Tahoma;-inkscape-font-specification:'Tahoma, Bold';display:inline;fill:#000000;stroke-width:0.264583"
       transform="translate(2.5400003,-0.10583239)">
      <path
         d="m 3.2732611,177.4586 v 0.68213 q 0.3927406,0 0.592556,0.19982 0.2067056,0.19981 0.3927406,0.76481 l 0.110243,0.34451 q 0.37207,1.14377 1.2195628,1.50206 -0.7854811,0.15158 -1.2540138,0.64768 -0.4616424,0.4892 -0.4616424,1.16444 0,0.94395 0.7096891,1.56407 0.7096891,0.61323 1.7983385,0.61323 1.6536445,0 2.5562588,-1.41938 L 8.4064495,183.0741 q -0.5856658,0.62701 -1.2057825,0.62701 -0.5098738,0 -0.8750536,-0.33073 -0.3651799,-0.33762 -0.3651799,-0.79926 0,-0.38585 0.2824977,-0.66835 0.2893878,-0.28249 0.6752382,-0.28249 0.6959087,0 1.9499225,0.98529 l 0.4203013,0.33073 q 2.0463848,1.6123 3.9067348,1.6123 1.612304,0 2.728514,-1.06108 1.1231,-1.06109 1.1231,-2.58382 0,-1.54341 -1.157551,-2.49425 -1.157551,-0.95085 -3.038572,-0.95085 h -0.227376 v 0.68213 q 1.11621,0.0758 1.770778,0.77859 0.654567,0.69591 0.654567,1.81212 0,1.10243 -0.826822,1.88791 -0.826822,0.77859 -1.998154,0.77859 -1.12999,0 -2.011934,-0.68901 -0.8819437,-0.68902 -0.8819437,-1.57097 0,-0.4203 0.2687173,-0.70969 0.2756074,-0.28938 0.6752384,-0.28938 0.399631,0 0.599446,0.22048 0.206705,0.2136 0.206705,0.65457 0,0.26872 -0.151584,0.6339 l 0.620117,0.28249 q 0.413411,-0.9784 0.413411,-1.63986 0,-0.81304 -0.530544,-1.39182 -0.523654,-0.58566 -1.267794,-0.58566 -0.475423,0 -0.8681636,0.23426 -0.3927406,0.23427 -0.7027989,0.70969 -0.3996308,-0.99907 -1.2677942,-1.39871 -0.8612732,-0.39963 -2.6182705,-0.39963 z m 4.9609337,3.36241 Q 7.2213375,180.62809 6.3807349,179.13292 L 6.2636017,178.9331 q -0.3651798,-0.64767 -0.8819437,-0.84749 2.6320509,0 2.8525368,2.7354 z"
         style="font-style:normal;font-variant:normal;font-weight:bold;font-stretch:normal;font-size:14.1111px;font-family:'Wingdings 2';-inkscape-font-specification:'Wingdings 2 Bold';fill:#000000;stroke-width:0.264583"
         id="path116" />
    </g>
    <g
       transform="translate(2.5400025,4.2334508)"
       style="font-weight:bold;font-size:2.82222px;line-height:1.25;font-family:Tahoma;-inkscape-font-specification:'Tahoma, Bold';fill:#000000;stroke-width:0.264583"
       id="text152"
       aria-label="MIN">
      <path
         id="path254"
         style="font-size:2.82222px;fill:#000000;stroke-width:0.264583"
         d="M 4.3537728,198.31248 H 3.841143 v -1.36012 l -0.3734481,0.87781 H 3.1162955 l -0.3734481,-0.87781 v 1.36012 H 2.2577783 v -2.05189 h 0.593934 l 0.4547523,1.01285 0.4533742,-1.01285 h 0.593934 z" />
      <path
         id="path256"
         style="font-size:2.82222px;fill:#000000;stroke-width:0.264583"
         d="M 5.7993339,198.31248 H 4.6941481 v -0.35828 h 0.2949 v -1.33532 h -0.2949 v -0.35829 h 1.1051858 v 0.35829 H 5.504434 v 1.33532 h 0.2948999 z" />
      <path
         id="path258"
         style="font-size:2.82222px;fill:#000000;stroke-width:0.264583"
         d="M 7.9022187,198.31248 H 7.4061254 l -0.7909934,-1.4304 v 1.4304 H 6.1438433 v -2.05189 h 0.6325191 l 0.6545676,1.17546 v -1.17546 h 0.4712887 z" />
    </g>
    <g
       transform="translate(2.5399991,4.2334508)"
       style="font-weight:bold;font-size:2.82222px;line-height:1.25;font-family:Tahoma;-inkscape-font-specification:'Tahoma, Bold';fill:#000000;stroke-width:0.264583"
       id="text156"
       aria-label="MAX">
      <path
         id="path261"
         style="font-size:2.82222px;fill:#000000;stroke-width:0.264583"
         d="m 14.240927,198.31248 h -0.51263 v -1.36012 l -0.373448,0.87781 h -0.3514 l -0.373448,-0.87781 v 1.36012 h -0.485069 v -2.05189 h 0.593934 l 0.454752,1.01285 0.453375,-1.01285 h 0.593934 z" />
      <path
         id="path263"
         style="font-size:2.82222px;fill:#000000;stroke-width:0.264583"
         d="m 14.443498,198.31248 0.693153,-2.05189 h 0.562239 l 0.693153,2.05189 h -0.530545 l -0.128157,-0.41892 H 15.08842 l -0.128158,0.41892 z m 1.176844,-0.79099 -0.209462,-0.67661 -0.209461,0.67661 z" />
      <path
         id="path265"
         style="font-size:2.82222px;fill:#000000;stroke-width:0.264583"
         d="m 18.335075,198.31248 h -0.598068 l -0.394118,-0.65456 -0.402387,0.65456 h -0.570508 l 0.665592,-1.03352 -0.639409,-1.01837 h 0.59669 l 0.369314,0.61874 0.37896,-0.61874 h 0.571886 l -0.643544,0.9977 z" />
    </g>
    <path
       d="m 8.8683343,215.26274 h 7.6633347 a 4,4 45 0 1 4,4 v 8.7132 a 4,4 135 0 1 -4,4 H 8.8683343 a 4,4 45 0 1 -4,-4 v -8.7132 a 4,4 135 0 1 4,-4 z"
       y="215.26274"
       x="4.8683343"
       height="16.7132"
       width="15.663335"
       id="rect48-4"
       style="display:inline;fill:#a02c2c;stroke-width:0.330269"
       inkscape:path-effect="#path-effect443"
       sodipodi:type="rect" />
    <g
       aria-label="OUT"
       id="text63"
       style="font-size:10.5833px;line-height:1.25;font-family:'Eras Bold ITC';-inkscape-font-specification:'Eras Bold ITC';display:inline;fill:#000000;stroke-width:0.264583"
       transform="translate(7.62,-59.14764)">
      <path
         d="m 3.0694446,276.74367 q 0.2204859,0 0.4244354,0.0593 0.2039495,0.0593 0.3569116,0.19017 0.1529622,0.12953 0.2287542,0.29903 0.075792,0.1695 0.075792,0.38999 0,0.23151 -0.08406,0.42581 -0.082682,0.19292 -0.2397785,0.32797 -0.1570962,0.13505 -0.3748261,0.19844 -0.2177299,0.062 -0.4533742,0.062 -0.2328883,0 -0.4464841,-0.0606 -0.2135957,-0.062 -0.37207,-0.19844 -0.1570962,-0.1378 -0.223242,-0.30592 -0.066146,-0.16812 -0.066146,-0.37345 0,-0.30179 0.1391818,-0.52917 0.1405598,-0.22875 0.4147892,-0.35691 0.2756074,-0.12816 0.6201167,-0.12816 z m -0.024805,0.41479 q -0.1584743,0 -0.2866317,0.0786 -0.1281575,0.0772 -0.1970593,0.21635 -0.068902,0.13781 -0.068902,0.29628 0,0.14607 0.062012,0.26734 0.06339,0.12127 0.1915471,0.19017 0.1281575,0.0675 0.2714734,0.0675 0.1529621,0 0.2797415,-0.0758 0.1281575,-0.0772 0.1943032,-0.21497 0.067524,-0.13919 0.067524,-0.29077 0,-0.14745 -0.062012,-0.27147 -0.062012,-0.1254 -0.1819009,-0.19431 -0.1198892,-0.0689 -0.2700953,-0.0689 z"
         style="font-size:2.82222px;fill:#000000;stroke-width:0.264583"
         id="path65" />
      <path
         d="m 4.461262,276.7795 q 0.2149738,0.003 0.3031682,0.003 0.110243,0 0.2935219,-0.003 l -0.041341,0.58567 q -0.012402,0.16536 -0.019292,0.31006 -0.00551,0.14469 -0.00551,0.19981 0,0.10473 0.015158,0.17501 0.015158,0.0703 0.055122,0.11989 0.039963,0.0482 0.110243,0.073 0.071658,0.0248 0.148828,0.0248 0.066146,0 0.1240233,-0.0152 0.045475,-0.0124 0.081304,-0.0344 0.031695,-0.0207 0.055122,-0.0482 0.028939,-0.0331 0.050987,-0.0827 0.022049,-0.0469 0.033073,-0.12127 0.012402,-0.0758 0.033073,-0.34451 0.017914,-0.22875 0.027561,-0.41892 0.00827,-0.18466 0.015158,-0.42306 0.2080836,0.003 0.3279729,0.003 l 0.2797415,-0.003 -0.067524,0.97841 q -0.00138,0.0276 -0.00138,0.0455 -0.00551,0.28664 -0.035829,0.40515 -0.028939,0.11713 -0.097841,0.20395 -0.068902,0.0868 -0.2011934,0.15709 -0.1322915,0.0689 -0.3004121,0.0978 -0.1681205,0.0289 -0.3403752,0.0289 -0.1543401,0 -0.297656,-0.022 -0.1322915,-0.0221 -0.2384004,-0.0634 -0.1061089,-0.0427 -0.184657,-0.0992 -0.071658,-0.0524 -0.110243,-0.1061 -0.038585,-0.0551 -0.060634,-0.13092 -0.024805,-0.0854 -0.024805,-0.18328 0,-0.0331 0.00276,-0.0992 0.00276,-0.0675 0.012402,-0.19292 l 0.017914,-0.22049 q 0.00689,-0.0868 0.015158,-0.25493 z"
         style="font-size:2.82222px;fill:#000000;stroke-width:0.264583"
         id="path67" />
      <path
         d="m 6.9913383,278.66052 q 0.068902,-0.66972 0.082682,-1.4745 l -0.5870439,0.0152 0.00689,-0.15296 q 0.00551,-0.12265 0.00827,-0.26872 0.3913626,0.003 0.9122606,0.003 l 0.3403752,-10e-4 h 0.3307289 l 0.1791449,-0.001 -0.00827,0.13367 q -0.00551,0.10749 -0.00827,0.17777 -0.00138,0.0703 -0.00138,0.10611 -0.2949,-0.0138 -0.4864471,-0.0138 h -0.096463 q -0.020671,0.24391 -0.031695,0.45061 -0.015158,0.29628 -0.023427,0.57602 -0.00827,0.27837 -0.00827,0.45062 -0.2259981,-0.003 -0.2921439,-0.003 -0.059256,0 -0.3169486,0.003 z"
         style="font-size:2.82222px;fill:#000000;stroke-width:0.264583"
         id="path69" />
    </g>
    <path
       d="m 8.8683343,102.64276 h 7.6633347 a 4,4 45 0 1 4,4 v 8.7132 a 4,4 135 0 1 -4,4 H 8.8683343 a 4,4 45 0 1 -4,-4 v -8.7132 a 4,4 135 0 1 4,-4 z"
       sodipodi:type="rect"
       inkscape:path-effect="#path-effect166"
       style="display:inline;fill:#de8787;stroke-width:0.330269"
       id="rect48-4-8"
       width="15.663335"
       height="16.7132"
       x="4.8683343"
       y="102.64276"
       transform="translate(0,168.49998)" />
    <g
       transform="translate(7.6199992,-3.2674512)"
       style="font-size:10.5833px;line-height:1.25;font-family:'Eras Bold ITC';-inkscape-font-specification:'Eras Bold ITC';display:inline;fill:#000000;stroke-width:0.264583"
       id="text63-4"
       aria-label="OUT">
      <path
         id="path65-9"
         style="font-size:2.82222px;fill:#000000;stroke-width:0.264583"
         d="m 3.0694446,276.74367 q 0.2204859,0 0.4244354,0.0593 0.2039495,0.0593 0.3569116,0.19017 0.1529622,0.12953 0.2287542,0.29903 0.075792,0.1695 0.075792,0.38999 0,0.23151 -0.08406,0.42581 -0.082682,0.19292 -0.2397785,0.32797 -0.1570962,0.13505 -0.3748261,0.19844 -0.2177299,0.062 -0.4533742,0.062 -0.2328883,0 -0.4464841,-0.0606 -0.2135957,-0.062 -0.37207,-0.19844 -0.1570962,-0.1378 -0.223242,-0.30592 -0.066146,-0.16812 -0.066146,-0.37345 0,-0.30179 0.1391818,-0.52917 0.1405598,-0.22875 0.4147892,-0.35691 0.2756074,-0.12816 0.6201167,-0.12816 z m -0.024805,0.41479 q -0.1584743,0 -0.2866317,0.0786 -0.1281575,0.0772 -0.1970593,0.21635 -0.068902,0.13781 -0.068902,0.29628 0,0.14607 0.062012,0.26734 0.06339,0.12127 0.1915471,0.19017 0.1281575,0.0675 0.2714734,0.0675 0.1529621,0 0.2797415,-0.0758 0.1281575,-0.0772 0.1943032,-0.21497 0.067524,-0.13919 0.067524,-0.29077 0,-0.14745 -0.062012,-0.27147 -0.062012,-0.1254 -0.1819009,-0.19431 -0.1198892,-0.0689 -0.2700953,-0.0689 z" />
      <path
         id="path67-7"
         style="font-size:2.82222px;fill:#000000;stroke-width:0.264583"
         d="m 4.461262,276.7795 q 0.2149738,0.003 0.3031682,0.003 0.110243,0 0.2935219,-0.003 l -0.041341,0.58567 q -0.012402,0.16536 -0.019292,0.31006 -0.00551,0.14469 -0.00551,0.19981 0,0.10473 0.015158,0.17501 0.015158,0.0703 0.055122,0.11989 0.039963,0.0482 0.110243,0.073 0.071658,0.0248 0.148828,0.0248 0.066146,0 0.1240233,-0.0152 0.045475,-0.0124 0.081304,-0.0344 0.031695,-0.0207 0.055122,-0.0482 0.028939,-0.0331 0.050987,-0.0827 0.022049,-0.0469 0.033073,-0.12127 0.012402,-0.0758 0.033073,-0.34451 0.017914,-0.22875 0.027561,-0.41892 0.00827,-0.18466 0.015158,-0.42306 0.2080836,0.003 0.3279729,0.003 l 0.2797415,-0.003 -0.067524,0.97841 q -0.00138,0.0276 -0.00138,0.0455 -0.00551,0.28664 -0.035829,0.40515 -0.028939,0.11713 -0.097841,0.20395 -0.068902,0.0868 -0.2011934,0.15709 -0.1322915,0.0689 -0.3004121,0.0978 -0.1681205,0.0289 -0.3403752,0.0289 -0.1543401,0 -0.297656,-0.022 -0.1322915,-0.0221 -0.2384004,-0.0634 -0.1061089,-0.0427 -0.184657,-0.0992 -0.071658,-0.0524 -0.110243,-0.1061 -0.038585,-0.0551 -0.060634,-0.13092 -0.024805,-0.0854 -0.024805,-0.18328 0,-0.0331 0.00276,-0.0992 0.00276,-0.0675 0.012402,-0.19292 l 0.017914,-0.22049 q 0.00689,-0.0868 0.015158,-0.25493 z" />
      <path
         id="path69-9"
         style="font-size:2.82222px;fill:#000000;stroke-width:0.264583"
         d="m 6.9913383,278.66052 q 0.068902,-0.66972 0.082682,-1.4745 l -0.5870439,0.0152 0.00689,-0.15296 q 0.00551,-0.12265 0.00827,-0.26872 0.3913626,0.003 0.9122606,0.003 l 0.3403752,-10e-4 h 0.3307289 l 0.1791449,-0.001 -0.00827,0.13367 q -0.00551,0.10749 -0.00827,0.17777 -0.00138,0.0703 -0.00138,0.10611 -0.2949,-0.0138 -0.4864471,-0.0138 h -0.096463 q -0.020671,0.24391 -0.031695,0.45061 -0.015158,0.29628 -0.023427,0.57602 -0.00827,0.27837 -0.00827,0.45062 -0.2259981,-0.003 -0.2921439,-0.003 -0.059256,0 -0.3169486,0.003 z" />
    </g>
    <g
       style="font-weight:bold;font-size:4.23333px;line-height:1.25;font-family:Tahoma;-inkscape-font-specification:'Tahoma, Bold';letter-spacing:0px;white-space:pre;shape-inside:url(#rect215);display:inline;fill:#000000"
       id="text213"
       transform="translate(43.075082,173.14144)"
       aria-label="SLD16">
      <path
         id="path282"
         style="fill:#000000"
         d="m -35.961297,121.41019 q -0.353466,0 -0.622183,-0.0682 -0.266651,-0.0682 -0.496094,-0.1695 v -0.73174 h 0.07028 q 0.23151,0.19637 0.510563,0.30179 0.279052,0.10542 0.541568,0.10542 0.06615,0 0.173633,-0.0145 0.109554,-0.0145 0.1757,-0.0455 0.08062,-0.0351 0.136426,-0.0971 0.05581,-0.0641 0.05581,-0.16743 0,-0.11576 -0.09095,-0.18811 -0.09095,-0.0723 -0.217041,-0.10542 -0.157096,-0.0413 -0.33693,-0.0785 -0.177767,-0.0372 -0.332796,-0.0909 -0.357601,-0.12609 -0.51263,-0.339 -0.155029,-0.21291 -0.155029,-0.5333 0,-0.43202 0.365869,-0.69867 0.365868,-0.26871 0.913638,-0.26871 0.274919,0 0.545703,0.0558 0.272851,0.0558 0.487825,0.15089 v 0.7028 h -0.06821 q -0.171565,-0.14676 -0.419612,-0.24805 -0.24598,-0.10128 -0.506429,-0.10128 -0.101285,0 -0.181901,0.0145 -0.08062,0.0145 -0.169498,0.0558 -0.07235,0.0331 -0.126091,0.0992 -0.05168,0.0641 -0.05168,0.14469 0,0.11782 0.08268,0.1881 0.08475,0.0682 0.324528,0.12403 0.155029,0.0351 0.297656,0.0682 0.144694,0.0331 0.307991,0.0909 0.320394,0.11575 0.475423,0.31212 0.157096,0.19431 0.157096,0.5147 0,0.45889 -0.361734,0.73794 -0.359668,0.27905 -0.973584,0.27905 z" />
      <path
         id="path284"
         style="fill:#000000"
         d="m -32.178585,121.35438 h -2.054653 v -3.07784 h 0.773079 v 2.4908 h 1.281574 z" />
      <path
         id="path286"
         style="fill:#000000"
         d="m -29.061465,119.81856 q 0,0.42995 -0.188102,0.77101 -0.188103,0.339 -0.475423,0.5209 -0.239779,0.15503 -0.522965,0.2005 -0.28112,0.0434 -0.599446,0.0434 h -0.963248 v -3.07784 h 0.954979 q 0.324528,0 0.607715,0.0413 0.283186,0.0413 0.531233,0.2005 0.303857,0.19431 0.479557,0.52503 0.1757,0.32867 0.1757,0.77515 z m -0.79375,-0.006 q 0,-0.30386 -0.10542,-0.51883 -0.103352,-0.21704 -0.320393,-0.339 -0.157096,-0.0868 -0.330729,-0.0951 -0.171566,-0.008 -0.411344,-0.008 h -0.01447 v 1.92649 h 0.01447 q 0.260449,0 0.438216,-0.008 0.179833,-0.0103 0.341064,-0.11163 0.190169,-0.11988 0.289388,-0.33072 0.09922,-0.21084 0.09922,-0.5147 z" />
      <path
         id="path288"
         style="fill:#000000"
         d="m -26.483847,121.35438 h -2.033982 v -0.53743 h 0.649055 v -1.62677 h -0.649055 v -0.5023 q 0.142627,0 0.283186,-0.0186 0.14056,-0.0186 0.225309,-0.06 0.09922,-0.0496 0.152962,-0.13229 0.05581,-0.0847 0.06408,-0.20877 h 0.67386 v 2.54868 h 0.634586 z" />
      <path
         id="path290"
         style="fill:#000000"
         d="m -23.670584,120.30639 q 0,0.48575 -0.307991,0.79995 -0.307992,0.31212 -0.845426,0.31212 -0.268717,0 -0.479557,-0.0765 -0.21084,-0.0786 -0.357601,-0.22944 -0.175699,-0.17777 -0.268717,-0.45889 -0.09302,-0.28112 -0.09302,-0.67179 0,-0.40515 0.08682,-0.71934 0.08682,-0.31419 0.283187,-0.55604 0.188102,-0.22944 0.491959,-0.3576 0.303857,-0.13022 0.719335,-0.13022 0.150895,0 0.30179,0.0207 0.152962,0.0186 0.208773,0.031 v 0.60564 h -0.05581 q -0.05374,-0.0269 -0.177766,-0.0599 -0.124024,-0.0351 -0.283187,-0.0351 -0.361735,0 -0.558105,0.19017 -0.19637,0.19017 -0.241846,0.5457 0.150896,-0.0971 0.305925,-0.15503 0.157096,-0.0579 0.353466,-0.0579 0.165365,0 0.310059,0.0455 0.14676,0.0434 0.260449,0.12816 0.159163,0.12195 0.25218,0.32039 0.09508,0.19844 0.09508,0.5085 z m -0.897102,0.46508 q 0.05994,-0.0744 0.09095,-0.16123 0.03307,-0.0889 0.03307,-0.26665 0,-0.14883 -0.03721,-0.24598 -0.03721,-0.0971 -0.10542,-0.15503 -0.06821,-0.0579 -0.155029,-0.0785 -0.08682,-0.0227 -0.183968,-0.0227 -0.08061,0 -0.167431,0.0207 -0.08475,0.0207 -0.159164,0.0517 0,0.0207 -0.0021,0.0682 -0.0021,0.0475 -0.0021,0.11989 0,0.26458 0.04547,0.42581 0.04754,0.16123 0.117823,0.24391 0.05374,0.0662 0.121956,0.0951 0.07028,0.0289 0.146761,0.0289 0.06201,0 0.134358,-0.031 0.07235,-0.031 0.121957,-0.093 z" />
    </g>
    <g
       style="font-weight:bold;font-size:2.82222px;line-height:1.25;font-family:Tahoma;-inkscape-font-specification:'Tahoma, Bold';letter-spacing:0px;display:inline;fill:#000000;stroke-width:0.264583"
       id="text335"
       aria-label="RESET"
       transform="translate(0,168.49998)">
      <path
         id="path345"
         style="font-size:2.82222px;fill:#000000;stroke-width:0.264583"
         d="M 10.185081,74.685959 H 9.5566959 L 8.9848105,73.933551 h -0.184657 v 0.752408 H 8.2875237 v -2.051897 h 0.8254442 q 0.1708766,0 0.297656,0.02205 0.1267795,0.02067 0.2342664,0.08819 0.1102429,0.07028 0.1750107,0.179144 0.064768,0.107487 0.064768,0.27423 0,0.235644 -0.1061088,0.383094 -0.1061089,0.146072 -0.2838757,0.232888 z M 9.3555025,73.262446 q 0,-0.07717 -0.030317,-0.132291 -0.028939,-0.0565 -0.097841,-0.08682 -0.048231,-0.02067 -0.1074869,-0.02618 -0.059256,-0.0055 -0.14745,-0.0055 H 8.8001535 v 0.552593 h 0.14745 q 0.1074869,0 0.1819009,-0.0124 0.075792,-0.01378 0.1281574,-0.0565 0.049609,-0.03858 0.073036,-0.09233 0.024805,-0.05374 0.024805,-0.14056 z" />
      <path
         id="path347"
         style="font-size:2.82222px;fill:#000000;stroke-width:0.264583"
         d="m 10.338043,74.685959 v -2.051897 h 1.387683 v 0.391362 h -0.875053 v 0.359668 h 0.806151 v 0.391362 h -0.806151 v 0.518142 h 0.875053 v 0.391363 z" />
      <path
         id="path349"
         style="font-size:2.82222px;fill:#000000;stroke-width:0.264583"
         d="m 12.708267,74.723166 q -0.235644,0 -0.414789,-0.04548 -0.177767,-0.04548 -0.330729,-0.112999 v -0.487826 h 0.04685 q 0.15434,0.130914 0.340375,0.201194 0.186035,0.07028 0.361046,0.07028 0.0441,0 0.115755,-0.0096 0.07304,-0.0096 0.117133,-0.03032 0.05374,-0.02343 0.09095,-0.06477 0.03721,-0.04272 0.03721,-0.111621 0,-0.07717 -0.06063,-0.125401 -0.06063,-0.04823 -0.144694,-0.07028 -0.104731,-0.02756 -0.22462,-0.05237 -0.118511,-0.0248 -0.221864,-0.06063 -0.2384,-0.08406 -0.341753,-0.225998 -0.103353,-0.141938 -0.103353,-0.355534 0,-0.28801 0.243913,-0.465777 0.243912,-0.179144 0.609092,-0.179144 0.183279,0 0.363802,0.03721 0.181901,0.03721 0.325217,0.100596 v 0.468533 h -0.04548 q -0.114377,-0.09784 -0.279741,-0.165365 -0.163986,-0.06752 -0.337619,-0.06752 -0.06752,0 -0.121267,0.0096 -0.05374,0.0096 -0.112999,0.03721 -0.04823,0.02205 -0.08406,0.06615 -0.03445,0.04272 -0.03445,0.09646 0,0.07855 0.05512,0.125402 0.0565,0.04547 0.216352,0.08268 0.103352,0.02343 0.198437,0.04547 0.09646,0.02205 0.205328,0.06063 0.213595,0.07717 0.316948,0.208083 0.104731,0.129536 0.104731,0.343132 0,0.305924 -0.241157,0.491959 -0.239778,0.186035 -0.649055,0.186035 z" />
      <path
         id="path351"
         style="font-size:2.82222px;fill:#000000;stroke-width:0.264583"
         d="m 13.860306,74.685959 v -2.051897 h 1.387683 v 0.391362 h -0.875053 v 0.359668 h 0.806151 v 0.391362 h -0.806151 v 0.518142 h 0.875053 v 0.391363 z" />
      <path
         id="path353"
         style="font-size:2.82222px;fill:#000000;stroke-width:0.264583"
         d="m 15.990751,74.685959 v -1.660535 h -0.606336 v -0.391362 h 1.728058 v 0.391362 h -0.606336 v 1.660535 z" />
    </g>
    <g
       style="font-weight:bold;font-size:2.82222px;line-height:1.25;font-family:Tahoma;-inkscape-font-specification:'Tahoma, Bold';letter-spacing:0px;display:inline;fill:#000000;stroke-width:0.264583"
       id="text339"
       aria-label="STEP"
       transform="translate(0,168.49998)">
      <path
         id="path356"
         style="font-size:2.82222px;fill:#000000;stroke-width:0.264583"
         d="m 9.9735524,87.42317 q -0.2356444,0 -0.4147892,-0.04547 -0.1777668,-0.04547 -0.3307289,-0.112999 v -0.487825 h 0.046853 q 0.1543401,0.130914 0.3403751,0.201193 0.1860351,0.07028 0.3610458,0.07028 0.044097,0 0.1157558,-0.0096 0.07304,-0.0096 0.117133,-0.03032 0.05374,-0.02343 0.09095,-0.06477 0.03721,-0.04272 0.03721,-0.111621 0,-0.07717 -0.06063,-0.125402 -0.06063,-0.04823 -0.144694,-0.07028 -0.104731,-0.02756 -0.2246207,-0.05237 -0.1185112,-0.02481 -0.221864,-0.06063 -0.2384004,-0.08406 -0.3417532,-0.225998 -0.1033528,-0.141938 -0.1033528,-0.355533 0,-0.28801 0.2439126,-0.465777 0.2439126,-0.179145 0.6090931,-0.179145 0.183279,0 0.363801,0.03721 0.181901,0.03721 0.325217,0.100597 v 0.468532 h -0.04547 q -0.114377,-0.09784 -0.279742,-0.165364 -0.163986,-0.06752 -0.337619,-0.06752 -0.06752,0 -0.1212672,0.0096 -0.053743,0.0096 -0.1129991,0.03721 -0.048231,0.02205 -0.08406,0.06615 -0.034451,0.04272 -0.034451,0.09646 0,0.07855 0.055122,0.125401 0.056499,0.04547 0.2163513,0.08268 0.103353,0.02343 0.198437,0.04548 0.09646,0.02205 0.205328,0.06063 0.213596,0.07717 0.316949,0.208084 0.10473,0.129535 0.10473,0.343131 0,0.305924 -0.241156,0.491959 -0.239779,0.186035 -0.6490552,0.186035 z" />
      <path
         id="path358"
         style="font-size:2.82222px;fill:#000000;stroke-width:0.264583"
         d="m 11.51971,87.385963 v -1.660534 h -0.606336 v -0.391363 h 1.728058 v 0.391363 h -0.606336 v 1.660534 z" />
      <path
         id="path360"
         style="font-size:2.82222px;fill:#000000;stroke-width:0.264583"
         d="m 12.856406,87.385963 v -2.051897 h 1.387684 v 0.391363 h -0.875054 v 0.359667 h 0.806152 v 0.391363 h -0.806152 v 0.518142 h 0.875054 v 0.391362 z" />
      <path
         id="path362"
         style="font-size:2.82222px;fill:#000000;stroke-width:0.264583"
         d="m 16.171963,85.981744 q 0,0.143315 -0.04548,0.272851 -0.04547,0.129535 -0.130913,0.216352 -0.05237,0.05374 -0.115755,0.09922 -0.06201,0.04548 -0.137804,0.07717 -0.07579,0.03169 -0.165365,0.04961 -0.08819,0.01791 -0.198437,0.01791 h -0.270095 v 0.671104 h -0.515386 v -2.051897 h 0.796505 q 0.177767,0 0.305925,0.03307 0.129535,0.03169 0.234266,0.101975 0.115755,0.07717 0.179145,0.206705 0.06339,0.128158 0.06339,0.305925 z m -0.529166,0.0124 q 0,-0.08682 -0.04134,-0.148828 -0.04134,-0.06339 -0.09922,-0.08682 -0.07304,-0.03169 -0.140559,-0.03583 -0.06615,-0.0055 -0.180523,-0.0055 h -0.07304 v 0.614605 h 0.03583 q 0.07304,0 0.137803,-0.0014 0.06477,-0.0014 0.112999,-0.0096 0.04134,-0.0069 0.08682,-0.02618 0.04685,-0.02067 0.07166,-0.04547 0.05236,-0.05099 0.07028,-0.106109 0.01929,-0.05512 0.01929,-0.148828 z" />
    </g>
    <g
       style="font-weight:bold;font-size:2.82222px;line-height:1.25;font-family:Tahoma;-inkscape-font-specification:'Tahoma, Bold';letter-spacing:0px;display:inline;fill:#000000;stroke-width:0.264583"
       id="text343"
       aria-label="JUMP"
       transform="translate(0,168.49998)">
      <path
         id="path365"
         style="font-size:2.82222px;fill:#000000;stroke-width:0.264583"
         d="m 10.019717,99.462411 q 0,0.13367 -0.045476,0.252181 -0.045475,0.117133 -0.1378037,0.199815 -0.1033528,0.0937 -0.2439126,0.137803 -0.1405598,0.0441 -0.3238387,0.0441 -0.1364257,0 -0.256315,-0.011 -0.1198892,-0.01 -0.2108396,-0.0289 v -0.416172 h 0.046853 q 0.062012,0.02481 0.1295355,0.04685 0.067524,0.02067 0.1736327,0.02067 0.1364257,0 0.2094616,-0.03858 0.074414,-0.03858 0.1047309,-0.107487 0.031695,-0.06752 0.034451,-0.155718 0.00413,-0.08957 0.00413,-0.198438 V 98.384786 H 9.0344199 v -0.37207 h 0.9852971 z" />
      <path
         id="path367"
         style="font-size:2.82222px;fill:#000000;stroke-width:0.264583"
         d="m 11.24617,100.10733 q -0.413412,0 -0.636654,-0.199813 -0.221864,-0.199815 -0.221864,-0.584288 v -1.310513 h 0.515386 v 1.280197 q 0,0.213595 0.07993,0.318326 0.0813,0.104731 0.263206,0.104731 0.177766,0 0.260449,-0.100597 0.08406,-0.100596 0.08406,-0.32246 v -1.280197 h 0.515386 v 1.309135 q 0,0.378961 -0.21773,0.58291 -0.216352,0.202569 -0.642165,0.202569 z" />
      <path
         id="path369"
         style="font-size:2.82222px;fill:#000000;stroke-width:0.264583"
         d="m 14.596178,100.06461 h -0.51263 V 98.704491 L 13.7101,99.5823 h -0.351399 l -0.373448,-0.877809 v 1.360119 h -0.48507 v -2.051894 h 0.593935 l 0.454752,1.012857 0.453374,-1.012857 h 0.593934 z" />
      <path
         id="path371"
         style="font-size:2.82222px;fill:#000000;stroke-width:0.264583"
         d="m 16.598466,98.660393 q 0,0.143316 -0.04547,0.272852 -0.04547,0.129535 -0.130914,0.216352 -0.05237,0.05374 -0.115755,0.09922 -0.06201,0.04548 -0.137803,0.07717 -0.07579,0.03169 -0.165365,0.04961 -0.08819,0.01791 -0.198437,0.01791 h -0.270096 v 0.671103 h -0.515385 v -2.051896 h 0.796505 q 0.177767,0 0.305924,0.03307 0.129536,0.03169 0.234267,0.101975 0.115755,0.07717 0.179144,0.206705 0.06339,0.128158 0.06339,0.305924 z m -0.529166,0.0124 q 0,-0.08682 -0.04134,-0.148828 -0.04134,-0.06339 -0.09922,-0.08682 -0.07304,-0.03169 -0.14056,-0.03583 -0.06615,-0.0055 -0.180523,-0.0055 h -0.07304 v 0.614605 h 0.03583 q 0.07304,0 0.137804,-0.0014 0.06477,-0.0014 0.112999,-0.0096 0.04134,-0.0069 0.08682,-0.02618 0.04685,-0.02067 0.07166,-0.04547 0.05237,-0.05099 0.07028,-0.106109 0.01929,-0.05512 0.01929,-0.148828 z" />
    </g>
  </g>
  <g
     style="display:none"
     inkscape:label="components"
     id="layer2"
     inkscape:groupmode="layer">
    <circle
       r="4"
       cy="25.400003"
       cx="17.780003"
       id="knobmax"
       style="display:inline;opacity:1;vector-effect:none;fill:#ff0000;fill-opacity:1;fill-rule:evenodd;stroke:none;stroke-width:1;stroke-linecap:butt;stroke-linejoin:miter;stroke-miterlimit:4;stroke-dasharray:none;stroke-dashoffset:0;stroke-opacity:1;paint-order:normal"
       inkscape:label="knobmax" />
    <circle
       inkscape:transform-center-y="-4.9578503"
       inkscape:transform-center-x="0.65481041"
       r="4"
       cy="25.400003"
       cx="7.6200008"
       id="knobmin"
       style="display:inline;opacity:1;vector-effect:none;fill:#ff0000;fill-opacity:1;fill-rule:evenodd;stroke:none;stroke-width:1;stroke-linecap:butt;stroke-linejoin:miter;stroke-miterlimit:4;stroke-dasharray:none;stroke-dashoffset:0;stroke-opacity:1;paint-order:normal"
       inkscape:label="knobmin" />
    <circle
       r="0.035242248"
       cy="-48.154167"
       cx="-43.920834"
       style="fill:#000000;stroke:#000000;stroke-width:0.264583"
       id="path30" />
    <circle
       r="0.0088105621"
       cy="-2.5135417"
       cx="-32.279167"
       style="fill:#000000;stroke:#000000;stroke-width:0.264583"
       id="path32" />
    <circle
       r="0.0088105621"
       cy="0.1984375"
       cx="-17.991667"
       style="fill:#000000;stroke:#000000;stroke-width:0.264583"
       id="path34" />
    <circle
       r="0.0088105621"
       cy="2.9104166"
       cx="-25.069271"
       style="fill:#000000;stroke:#000000;stroke-width:0.264583"
       id="path36" />
    <text
       id="text42"
       y="11.90625"
       x="-38.695312"
       style="font-size:10.5833px;line-height:1.25;font-family:'Eras Bold ITC';-inkscape-font-specification:'Eras Bold ITC';stroke-width:0.264583"
       xml:space="preserve"><tspan
         style="font-style:normal;font-variant:normal;font-weight:bold;font-stretch:normal;font-size:3.52778px;font-family:Garamond;-inkscape-font-specification:'Garamond Bold';stroke-width:0.264583"
         y="11.90625"
         x="-38.695312"
         id="tspan40"
         sodipodi:role="line" /></text>
    <text
       id="text78"
       y="16.668749"
       x="-45.111458"
       style="font-size:10.5833px;line-height:1.25;font-family:'Eras Bold ITC';-inkscape-font-specification:'Eras Bold ITC';stroke-width:0.264583"
       xml:space="preserve"><tspan
         style="stroke-width:0.264583"
         y="16.668749"
         x="-45.111458"
         id="tspan76"
         sodipodi:role="line" /></text>
    <circle
       style="display:inline;opacity:1;vector-effect:none;fill:#0000ff;fill-opacity:1;fill-rule:evenodd;stroke:none;stroke-width:1;stroke-linecap:butt;stroke-linejoin:miter;stroke-miterlimit:4;stroke-dasharray:none;stroke-dashoffset:0;stroke-opacity:1;paint-order:normal"
       id="out1"
       cx="12.700002"
       cy="55.880009"
       r="4"
       inkscape:label="polyout" />
    <circle
       inkscape:label="socketmax"
       r="4"
       cy="40.640007"
       cx="17.780003"
       id="socketmax"
       style="display:inline;opacity:1;vector-effect:none;fill:#00ff00;fill-opacity:1;fill-rule:evenodd;stroke:none;stroke-width:1;stroke-linecap:butt;stroke-linejoin:miter;stroke-miterlimit:4;stroke-dasharray:none;stroke-dashoffset:0;stroke-opacity:1;paint-order:normal" />
    <circle
       style="display:inline;opacity:1;vector-effect:none;fill:#00ff00;fill-opacity:1;fill-rule:evenodd;stroke:none;stroke-width:1;stroke-linecap:butt;stroke-linejoin:miter;stroke-miterlimit:4;stroke-dasharray:none;stroke-dashoffset:0;stroke-opacity:1;paint-order:normal"
       id="socketmin"
       cx="7.6200008"
       cy="40.640007"
       r="4"
       inkscape:label="socketmin" />
    <ellipse
       inkscape:label="slide1"
       style="display:inline;opacity:1;vector-effect:none;fill:#ff0000;fill-opacity:1;fill-rule:evenodd;stroke:none;stroke-width:0.365;stroke-linecap:butt;stroke-linejoin:miter;stroke-miterlimit:4;stroke-dasharray:none;stroke-dashoffset:0;stroke-opacity:1;paint-order:normal"
       id="slide1"
       cx="30.480003"
       cy="22.86001"
       inkscape:transform-center-x="0.23900592"
       inkscape:transform-center-y="-1.8096121"
       rx="1.4599993"
       ry="1.4599981" />
    <ellipse
       inkscape:label="slide3"
       style="display:inline;opacity:1;vector-effect:none;fill:#ff0000;fill-opacity:1;fill-rule:evenodd;stroke:none;stroke-width:0.365001;stroke-linecap:butt;stroke-linejoin:miter;stroke-miterlimit:4;stroke-dasharray:none;stroke-dashoffset:0;stroke-opacity:1;paint-order:normal"
       id="slide3"
       cx="40.640007"
       cy="22.860003"
       inkscape:transform-center-x="0.23900592"
       inkscape:transform-center-y="-1.8096121"
       rx="1.4599993"
       ry="1.4599981" />
    <ellipse
       inkscape:label="slide5"
       style="display:inline;opacity:1;vector-effect:none;fill:#ff0000;fill-opacity:1;fill-rule:evenodd;stroke:none;stroke-width:0.365001;stroke-linecap:butt;stroke-linejoin:miter;stroke-miterlimit:4;stroke-dasharray:none;stroke-dashoffset:0;stroke-opacity:1;paint-order:normal"
       id="slide5"
       cx="30.480003"
       cy="50.800003"
       inkscape:transform-center-x="0.23900592"
       inkscape:transform-center-y="-1.8096121"
       rx="1.4599993"
       ry="1.4599981" />
    <ellipse
       inkscape:label="slide6"
       style="display:inline;opacity:1;vector-effect:none;fill:#ff0000;fill-opacity:1;fill-rule:evenodd;stroke:none;stroke-width:0.365001;stroke-linecap:butt;stroke-linejoin:miter;stroke-miterlimit:4;stroke-dasharray:none;stroke-dashoffset:0;stroke-opacity:1;paint-order:normal"
       id="slide6"
       cx="35.560005"
       cy="50.800003"
       inkscape:transform-center-x="0.23900592"
       inkscape:transform-center-y="-1.8096121"
       rx="1.4599993"
       ry="1.4599981" />
    <ellipse
       inkscape:label="slide7"
       style="display:inline;opacity:1;vector-effect:none;fill:#ff0000;fill-opacity:1;fill-rule:evenodd;stroke:none;stroke-width:0.365001;stroke-linecap:butt;stroke-linejoin:miter;stroke-miterlimit:4;stroke-dasharray:none;stroke-dashoffset:0;stroke-opacity:1;paint-order:normal"
       id="slide7"
       cx="40.640007"
       cy="50.800003"
       inkscape:transform-center-x="0.23900592"
       inkscape:transform-center-y="-1.8096121"
       rx="1.4599993"
       ry="1.4599981" />
    <ellipse
       ry="1.4599981"
       rx="1.4599993"
       inkscape:transform-center-y="-1.8096121"
       inkscape:transform-center-x="0.23900592"
       cy="22.86001"
       cx="35.560005"
       id="slide2"
       style="display:inline;opacity:1;vector-effect:none;fill:#ff0000;fill-opacity:1;fill-rule:evenodd;stroke:none;stroke-width:0.365001;stroke-linecap:butt;stroke-linejoin:miter;stroke-miterlimit:4;stroke-dasharray:none;stroke-dashoffset:0;stroke-opacity:1;paint-order:normal"
       inkscape:label="slide2" />
    <circle
       inkscape:label="seqout"
       r="4"
       cy="111.76002"
       cx="12.700002"
       id="out2"
       style="display:inline;opacity:1;vector-effect:none;fill:#0000ff;fill-opacity:1;fill-rule:evenodd;stroke:none;stroke-width:1;stroke-linecap:butt;stroke-linejoin:miter;stroke-miterlimit:4;stroke-dasharray:none;stroke-dashoffset:0;stroke-opacity:1;paint-order:normal" />
    <circle
       inkscape:label="socketstep"
       r="4"
       cy="81.280014"
       cx="12.700002"
       id="socketstep"
       style="display:inline;opacity:1;vector-effect:none;fill:#00ff00;fill-opacity:1;fill-rule:evenodd;stroke:none;stroke-width:1;stroke-linecap:butt;stroke-linejoin:miter;stroke-miterlimit:4;stroke-dasharray:none;stroke-dashoffset:0;stroke-opacity:1;paint-order:normal" />
    <circle
       inkscape:label="socketjump"
       r="4"
       cy="93.980011"
       cx="12.700002"
       id="socketjump"
       style="display:inline;opacity:1;vector-effect:none;fill:#00ff00;fill-opacity:1;fill-rule:evenodd;stroke:none;stroke-width:1;stroke-linecap:butt;stroke-linejoin:miter;stroke-miterlimit:4;stroke-dasharray:none;stroke-dashoffset:0;stroke-opacity:1;paint-order:normal" />
    <circle
       inkscape:label="socketreset"
       style="display:inline;opacity:1;vector-effect:none;fill:#00ff00;fill-opacity:1;fill-rule:evenodd;stroke:none;stroke-width:1;stroke-linecap:butt;stroke-linejoin:miter;stroke-miterlimit:4;stroke-dasharray:none;stroke-dashoffset:0;stroke-opacity:1;paint-order:normal"
       id="socketreset"
       cx="12.700002"
       cy="68.580009"
       r="4"
       inkscape:transform-center-x="0.65481041"
       inkscape:transform-center-y="-4.9578503" />
    <ellipse
       ry="1.4599981"
       rx="1.4599993"
       inkscape:transform-center-y="-1.8096121"
       inkscape:transform-center-x="0.23900592"
       cy="78.740013"
       cx="30.480003"
       id="slide9"
       style="display:inline;opacity:1;vector-effect:none;fill:#ff0000;fill-opacity:1;fill-rule:evenodd;stroke:none;stroke-width:0.365001;stroke-linecap:butt;stroke-linejoin:miter;stroke-miterlimit:4;stroke-dasharray:none;stroke-dashoffset:0;stroke-opacity:1;paint-order:normal"
       inkscape:label="slide9" />
    <ellipse
       ry="1.4599981"
       rx="1.4599993"
       inkscape:transform-center-y="-1.8096121"
       inkscape:transform-center-x="0.23900592"
       cy="78.739998"
       cx="40.640007"
       id="slide11"
       style="display:inline;opacity:1;vector-effect:none;fill:#ff0000;fill-opacity:1;fill-rule:evenodd;stroke:none;stroke-width:0.365001;stroke-linecap:butt;stroke-linejoin:miter;stroke-miterlimit:4;stroke-dasharray:none;stroke-dashoffset:0;stroke-opacity:1;paint-order:normal"
       inkscape:label="slide11" />
    <ellipse
       ry="1.4599981"
       rx="1.4599993"
       inkscape:transform-center-y="-1.8096121"
       inkscape:transform-center-x="0.23900592"
       cy="106.68056"
       cx="30.480003"
       id="slide13"
       style="display:inline;opacity:1;vector-effect:none;fill:#ff0000;fill-opacity:1;fill-rule:evenodd;stroke:none;stroke-width:0.365001;stroke-linecap:butt;stroke-linejoin:miter;stroke-miterlimit:4;stroke-dasharray:none;stroke-dashoffset:0;stroke-opacity:1;paint-order:normal"
       inkscape:label="slide13" />
    <ellipse
       ry="1.4599981"
       rx="1.4599993"
       inkscape:transform-center-y="-1.8096121"
       inkscape:transform-center-x="0.23900592"
       cy="106.68056"
       cx="35.560005"
       id="slide14"
       style="display:inline;opacity:1;vector-effect:none;fill:#ff0000;fill-opacity:1;fill-rule:evenodd;stroke:none;stroke-width:0.365001;stroke-linecap:butt;stroke-linejoin:miter;stroke-miterlimit:4;stroke-dasharray:none;stroke-dashoffset:0;stroke-opacity:1;paint-order:normal"
       inkscape:label="slide14" />
    <ellipse
       ry="1.4599981"
       rx="1.4599993"
       inkscape:transform-center-y="-1.8096121"
       inkscape:transform-center-x="0.23900592"
       cy="106.68056"
       cx="40.640007"
       id="slide15"
       style="display:inline;opacity:1;vector-effect:none;fill:#ff0000;fill-opacity:1;fill-rule:evenodd;stroke:none;stroke-width:0.365001;stroke-linecap:butt;stroke-linejoin:miter;stroke-miterlimit:4;stroke-dasharray:none;stroke-dashoffset:0;stroke-opacity:1;paint-order:normal"
       inkscape:label="slide15" />
    <ellipse
       inkscape:label="slide10"
       style="display:inline;opacity:1;vector-effect:none;fill:#ff0000;fill-opacity:1;fill-rule:evenodd;stroke:none;stroke-width:0.365001;stroke-linecap:butt;stroke-linejoin:miter;stroke-miterlimit:4;stroke-dasharray:none;stroke-dashoffset:0;stroke-opacity:1;paint-order:normal"
       id="slide10"
       cx="35.560005"
       cy="78.740013"
       inkscape:transform-center-x="0.23900592"
       inkscape:transform-center-y="-1.8096121"
       rx="1.4599993"
       ry="1.4599981" />
    <ellipse
       inkscape:label="slide12"
       style="display:inline;opacity:1;vector-effect:none;fill:#ff0000;fill-opacity:1;fill-rule:evenodd;stroke:none;stroke-width:0.365001;stroke-linecap:butt;stroke-linejoin:miter;stroke-miterlimit:4;stroke-dasharray:none;stroke-dashoffset:0;stroke-opacity:1;paint-order:normal"
       id="slide12"
       cx="45.720009"
       cy="78.739998"
       inkscape:transform-center-x="0.23900592"
       inkscape:transform-center-y="-1.8096121"
       rx="1.4599993"
       ry="1.4599981" />
    <ellipse
       inkscape:label="slide16"
       style="display:inline;opacity:1;vector-effect:none;fill:#ff0000;fill-opacity:1;fill-rule:evenodd;stroke:none;stroke-width:0.365001;stroke-linecap:butt;stroke-linejoin:miter;stroke-miterlimit:4;stroke-dasharray:none;stroke-dashoffset:0;stroke-opacity:1;paint-order:normal"
       id="slide16"
       cx="45.720009"
       cy="106.68056"
       inkscape:transform-center-x="0.23900592"
       inkscape:transform-center-y="-1.8096121"
       rx="1.4599993"
       ry="1.4599981" />
    <ellipse
       ry="1.4599981"
       rx="1.4599993"
       inkscape:transform-center-y="-1.8096121"
       inkscape:transform-center-x="0.23900592"
       cy="22.860004"
       cx="45.720009"
       id="slide4"
       style="display:inline;opacity:1;vector-effect:none;fill:#ff0000;fill-opacity:1;fill-rule:evenodd;stroke:none;stroke-width:0.365001;stroke-linecap:butt;stroke-linejoin:miter;stroke-miterlimit:4;stroke-dasharray:none;stroke-dashoffset:0;stroke-opacity:1;paint-order:normal"
       inkscape:label="slide4" />
    <ellipse
       ry="1.4599981"
       rx="1.4599993"
       inkscape:transform-center-y="-1.8096121"
       inkscape:transform-center-x="0.23900592"
       cy="50.800003"
       cx="45.720009"
       id="slide8"
       style="display:inline;opacity:1;vector-effect:none;fill:#ff0000;fill-opacity:1;fill-rule:evenodd;stroke:none;stroke-width:0.365001;stroke-linecap:butt;stroke-linejoin:miter;stroke-miterlimit:4;stroke-dasharray:none;stroke-dashoffset:0;stroke-opacity:1;paint-order:normal"
       inkscape:label="slide8" />
  </g>
</svg>
