<?xml version="1.0" encoding="UTF-8" standalone="no"?>
<svg
   xmlns:dc="http://purl.org/dc/elements/1.1/"
   xmlns:cc="http://creativecommons.org/ns#"
   xmlns:rdf="http://www.w3.org/1999/02/22-rdf-syntax-ns#"
   xmlns:svg="http://www.w3.org/2000/svg"
   xmlns="http://www.w3.org/2000/svg"
   xmlns:sodipodi="http://sodipodi.sourceforge.net/DTD/sodipodi-0.dtd"
   xmlns:inkscape="http://www.inkscape.org/namespaces/inkscape"
   sodipodi:docname="TrigPrec2.svg"
   inkscape:version="1.0 (4035a4fb49, 2020-05-01)"
   id="svg8"
   version="1.1"
   viewBox="0 0 10.160001 128.50002"
   height="128.5mm"
   width="10.16mm">
  <defs
     id="defs2">
    <rect
       id="rect495"
       height="8.2020826"
       width="28.178123"
       y="120.12083"
       x="-33.734375" />
    <inkscape:path-effect
       effect="fillet_chamfer"
       id="path-effect77"
       is_visible="true"
       lpeversion="1"
       satellites_param="F,0,0,1,0,4,0,1 @ F,0,0,1,0,4,0,1 @ F,0,0,1,0,4,0,1 @ F,0,0,1,0,4,0,1"
       unit="mm"
       method="auto"
       mode="F"
       radius="4"
       chamfer_steps="1"
       flexible="false"
       use_knot_distance="true"
       apply_no_radius="true"
       apply_with_radius="true"
       only_selected="false"
       hide_knots="false" />
    <inkscape:path-effect
       hide_knots="false"
       only_selected="false"
       apply_with_radius="true"
       apply_no_radius="true"
       use_knot_distance="true"
       flexible="false"
       chamfer_steps="1"
       radius="4"
       mode="F"
       method="auto"
       unit="mm"
       satellites_param="F,0,0,1,0,4,0,1 @ F,0,0,1,0,4,0,1 @ F,0,0,1,0,4,0,1 @ F,0,0,1,0,4,0,1"
       lpeversion="1"
       is_visible="true"
       id="path-effect154"
       effect="fillet_chamfer" />
  </defs>
  <sodipodi:namedview
     guidetolerance="10"
     gridtolerance="10"
     objecttolerance="10"
     inkscape:lockguides="false"
     inkscape:document-rotation="0"
     inkscape:snap-nodes="false"
     inkscape:snap-bbox-midpoints="true"
     inkscape:window-maximized="1"
     inkscape:window-y="-11"
     inkscape:window-x="-11"
     inkscape:window-height="1046"
     inkscape:window-width="1780"
     inkscape:snap-bbox-edge-midpoints="false"
     inkscape:bbox-nodes="false"
     inkscape:snap-page="true"
     inkscape:snap-bbox="true"
     units="mm"
     showgrid="true"
     inkscape:current-layer="layer1"
     inkscape:document-units="mm"
     inkscape:cy="229.30577"
     inkscape:cx="100.58288"
     inkscape:zoom="1.4142136"
     inkscape:pageshadow="2"
     inkscape:pageopacity="0.0"
     borderopacity="1.0"
     bordercolor="#666666"
     pagecolor="#ffffff"
     id="base">
    <inkscape:grid
       empspacing="4"
       empopacity="0.25098039"
       empcolor="#71530f"
       spacingy="2.5400004"
       spacingx="2.5400004"
       opacity="0.53333333"
       color="#ffd984"
       units="mm"
       id="grid86"
       type="xygrid" />
  </sodipodi:namedview>
  <metadata
     id="metadata5">
    <rdf:RDF>
      <cc:Work
         rdf:about="">
        <dc:format>image/svg+xml</dc:format>
        <dc:type
           rdf:resource="http://purl.org/dc/dcmitype/StillImage" />
        <dc:title />
        <dc:creator>
          <cc:Agent>
            <dc:title>Firo Lightfog</dc:title>
          </cc:Agent>
        </dc:creator>
      </cc:Work>
    </rdf:RDF>
  </metadata>
  <g
     transform="translate(0,-168.49998)"
     id="layer1"
     inkscape:groupmode="layer"
     inkscape:label="Layer 1"
     style="display:inline">
    <text
       id="text59"
       y="277.43234"
       x="1.1693041"
       style="font-size:10.5833px;line-height:1.25;font-family:'Eras Bold ITC';-inkscape-font-specification:'Eras Bold ITC';stroke-width:0.264583"
       xml:space="preserve"><tspan
         style="font-size:2.82222px;fill:#ffff00;stroke-width:0.264583"
         y="277.43234"
         x="1.1693041"
         id="tspan57"
         sodipodi:role="line" /></text>
    <text
       id="text127"
       y="172.05467"
       x="-78.577248"
       style="font-size:10.5833px;line-height:1.25;font-family:'Eras Bold ITC';-inkscape-font-specification:'Eras Bold ITC';stroke-width:0.264583"
       xml:space="preserve"><tspan
         style="stroke-width:0.264583"
         y="172.05467"
         x="-78.577248"
         id="tspan125"
         sodipodi:role="line" /></text>
    <text
       id="text131"
       y="186.46049"
       x="-89.989647"
       style="font-size:10.5833px;line-height:1.25;font-family:'Eras Bold ITC';-inkscape-font-specification:'Eras Bold ITC';stroke-width:0.264583"
       xml:space="preserve"><tspan
         style="stroke-width:0.264583"
         y="186.46049"
         x="-89.989647"
         id="tspan129"
         sodipodi:role="line" /></text>
    <rect
       style="display:inline;fill:#cccccc;fill-opacity:1;stroke-width:0.157672"
       id="rect232"
       width="10.287958"
       height="128.54594"
       x="0.06831339"
       y="168.71921" />
    <g
       style="font-weight:bold;font-size:2.82223px;line-height:1.25;font-family:Tahoma;-inkscape-font-specification:'Tahoma, Bold';display:inline;fill:#000000;stroke-width:0.264583"
       id="text223"
       aria-label="CLK"
       transform="translate(-2.5400006,-101.60001)">
      <path
         id="path309"
         style="fill:#000000;stroke-width:0.264583"
         d="m 5.9153633,288.94591 q -0.4616441,0 -0.7331183,-0.27837 -0.2714743,-0.27974 -0.2714743,-0.78548 0,-0.48783 0.2714743,-0.77722 0.2728523,-0.29076 0.7344964,-0.29076 0.1226457,0 0.2204867,0.0138 0.097841,0.0138 0.1874137,0.0386 0.07028,0.0207 0.1529627,0.0565 0.082682,0.0358 0.1336701,0.062 v 0.48921 H 6.558909 q -0.037207,-0.0331 -0.093707,-0.0786 -0.0565,-0.0468 -0.1281579,-0.0909 -0.071658,-0.0441 -0.1584748,-0.0744 -0.085439,-0.0317 -0.1791455,-0.0317 -0.1116214,0 -0.2053283,0.0358 -0.092329,0.0344 -0.1763893,0.12127 -0.07717,0.0785 -0.1267799,0.21222 -0.048231,0.13367 -0.048231,0.31557 0,0.19155 0.050988,0.32246 0.050987,0.12954 0.13367,0.20946 0.079927,0.0772 0.1777675,0.11162 0.099219,0.0344 0.19706,0.0344 0.1019751,0 0.1943039,-0.0331 0.092329,-0.0344 0.1557188,-0.0758 0.068902,-0.0427 0.1212677,-0.0868 0.052366,-0.0441 0.090951,-0.0786 h 0.046854 v 0.48232 q -0.0565,0.0262 -0.130914,0.0606 -0.074414,0.0331 -0.1529627,0.0565 -0.096463,0.0289 -0.1805235,0.0441 -0.084061,0.0152 -0.2315111,0.0152 z" />
      <path
         id="path311"
         style="fill:#000000;stroke-width:0.264583"
         d="M 8.2855957,288.90594 H 6.9158219 v -2.0519 h 0.5153877 v 1.66054 h 0.8543861 z" />
      <path
         id="path313"
         style="fill:#000000;stroke-width:0.264583"
         d="M 10.329232,288.90594 H 9.7063569 l -0.559485,-0.83371 -0.1005971,0.14056 v 0.69315 H 8.5308871 v -2.0519 h 0.5153877 v 0.91089 l 0.655948,-0.91089 h 0.5966922 l -0.7317403,0.95223 z" />
    </g>
    <g
       style="font-weight:bold;font-size:2.82222px;line-height:1.25;font-family:Tahoma;-inkscape-font-specification:'Tahoma, Bold';letter-spacing:0px;display:inline;fill:#000000;stroke-width:0.264583"
       id="text211"
       transform="translate(2.0857178e-6,97.380192)"
       aria-label="SKIP">
      <path
         id="path291"
         style="font-size:2.82222px;fill:#000000;stroke-width:0.264583"
         d="m 2.4196973,110.28316 q -0.2356443,0 -0.4147891,-0.0455 -0.1777668,-0.0455 -0.330729,-0.113 v -0.48783 h 0.046853 q 0.1543402,0.13092 0.3403752,0.2012 0.186035,0.0703 0.3610457,0.0703 0.044097,0 0.1157551,-0.01 0.073036,-0.01 0.1171332,-0.0303 0.053743,-0.0234 0.09095,-0.0648 0.037207,-0.0427 0.037207,-0.11162 0,-0.0772 -0.060634,-0.12541 -0.060634,-0.0482 -0.1446939,-0.0703 -0.1047308,-0.0276 -0.22462,-0.0524 -0.1185112,-0.0248 -0.221864,-0.0606 -0.2384005,-0.0841 -0.3417532,-0.226 -0.1033528,-0.14194 -0.1033528,-0.35554 0,-0.28801 0.2439126,-0.46577 0.2439125,-0.17915 0.6090924,-0.17915 0.1832789,0 0.3638018,0.0372 0.1819009,0.0372 0.3252167,0.1006 v 0.46853 H 3.183129 q -0.1143771,-0.0978 -0.2797415,-0.16537 -0.1639864,-0.0675 -0.3376191,-0.0675 -0.067524,0 -0.1212673,0.01 -0.053743,0.01 -0.112999,0.0372 -0.048231,0.022 -0.08406,0.0661 -0.034451,0.0427 -0.034451,0.0965 0,0.0785 0.055121,0.1254 0.0565,0.0455 0.2163518,0.0827 0.1033528,0.0234 0.1984373,0.0455 0.096463,0.0221 0.2053276,0.0606 0.2135957,0.0772 0.3169485,0.20809 0.1047308,0.12953 0.1047308,0.34313 0,0.30592 -0.2411565,0.49196 -0.2397784,0.18603 -0.6490555,0.18603 z" />
      <path
         id="path293"
         style="font-size:2.82222px;fill:#000000;stroke-width:0.264583"
         d="M 5.3700749,110.24596 H 4.7472021 L 4.187719,109.41224 4.0871223,109.5528 v 0.69316 H 3.5717364 v -2.0519 h 0.5153859 v 0.91088 l 0.6559456,-0.91088 H 5.339758 l -0.7317377,0.95222 z" />
      <path
         id="path295"
         style="font-size:2.82222px;fill:#000000;stroke-width:0.264583"
         d="M 6.562077,110.24596 H 5.4568912 v -0.35829 h 0.2949 v -1.33532 h -0.2949 v -0.35829 H 6.562077 v 0.35829 H 6.2671771 v 1.33532 H 6.562077 Z" />
      <path
         id="path297"
         style="font-size:2.82222px;fill:#000000;stroke-width:0.264583"
         d="m 8.485817,108.84174 q 0,0.14331 -0.045475,0.27285 -0.045475,0.12953 -0.1309135,0.21635 -0.052365,0.0537 -0.1157552,0.0992 -0.062012,0.0455 -0.1378037,0.0772 -0.075792,0.0317 -0.1653644,0.0496 -0.088194,0.0179 -0.1984374,0.0179 H 7.4219723 v 0.67111 H 6.9065864 v -2.0519 h 0.7965055 q 0.1777668,0 0.3059243,0.0331 0.1295355,0.0317 0.2342663,0.10198 0.1157551,0.0772 0.1791448,0.2067 0.06339,0.12816 0.06339,0.30593 z m -0.5291662,0.0124 q 0,-0.0868 -0.041341,-0.14883 -0.041341,-0.0634 -0.099219,-0.0868 -0.073036,-0.0317 -0.1405598,-0.0358 -0.066146,-0.006 -0.1805229,-0.006 h -0.073036 v 0.61461 h 0.035829 q 0.073036,0 0.1378037,-0.001 0.064768,-0.001 0.1129991,-0.01 0.041341,-0.007 0.086816,-0.0262 0.046853,-0.0207 0.071658,-0.0455 0.052365,-0.051 0.07028,-0.10611 0.019293,-0.0551 0.019293,-0.14883 z" />
    </g>
    <g
       style="font-weight:bold;font-size:2.82222px;line-height:1.25;font-family:Tahoma;-inkscape-font-specification:'Tahoma, Bold';letter-spacing:0px;display:inline;fill:#000000;stroke-width:0.264583"
       id="text215"
       transform="translate(2.0952393e-6,79.599984)"
       aria-label="ADD">
      <path
         id="path284"
         style="font-size:2.82222px;fill:#000000;stroke-width:0.264583"
         d="m 2.016622,117.86597 0.6931526,-2.0519 h 0.5622392 l 0.6931527,2.0519 H 3.4346222 L 3.3064647,117.44704 H 2.6615433 l -0.1281574,0.41893 z m 1.1768437,-0.791 -0.2094617,-0.67661 -0.2094616,0.67661 z" />
      <path
         id="path286"
         style="font-size:2.82222px;fill:#000000;stroke-width:0.264583"
         d="m 6.0046615,116.84209 q 0,0.28663 -0.1254014,0.514 -0.1254014,0.226 -0.3169486,0.34727 -0.1598523,0.10335 -0.3486434,0.13367 -0.187413,0.0289 -0.3996307,0.0289 H 4.1718721 v -2.0519 h 0.6366531 q 0.2163518,0 0.4051429,0.0276 0.1887911,0.0276 0.3541556,0.13367 0.2025714,0.12954 0.3197046,0.35002 0.1171332,0.21911 0.1171332,0.51677 z m -0.5291663,-0.004 q 0,-0.20257 -0.07028,-0.34589 -0.068902,-0.14469 -0.2135958,-0.22599 -0.1047308,-0.0579 -0.2204859,-0.0634 -0.1143771,-0.006 -0.2742294,-0.006 h -0.00965 v 1.28433 h 0.00965 q 0.1736327,0 0.2921439,-0.006 0.1198892,-0.007 0.2273761,-0.0744 0.1267794,-0.0799 0.1929252,-0.22049 0.066146,-0.14056 0.066146,-0.34313 z" />
      <path
         id="path288"
         style="font-size:2.82222px;fill:#000000;stroke-width:0.264583"
         d="m 8.1433751,116.84209 q 0,0.28663 -0.1254014,0.514 -0.1254014,0.226 -0.3169486,0.34727 -0.1598523,0.10335 -0.3486434,0.13367 -0.187413,0.0289 -0.3996307,0.0289 H 6.3105857 v -2.0519 h 0.6366531 q 0.2163518,0 0.4051429,0.0276 0.1887911,0.0276 0.3541556,0.13367 0.2025714,0.12954 0.3197046,0.35002 0.1171332,0.21911 0.1171332,0.51677 z m -0.5291663,-0.004 q 0,-0.20257 -0.07028,-0.34589 -0.068902,-0.14469 -0.2135958,-0.22599 -0.1047308,-0.0579 -0.2204859,-0.0634 -0.1143771,-0.006 -0.2742294,-0.006 h -0.00965 v 1.28433 h 0.00965 q 0.1736327,0 0.2921439,-0.006 0.1198892,-0.007 0.2273761,-0.0744 0.1267794,-0.0799 0.1929252,-0.22049 0.066146,-0.14056 0.066146,-0.34313 z" />
    </g>
    <g
       aria-label="b"
       transform="translate(-1.0416667e-8,168.49998)"
       id="text51"
       style="font-weight:bold;font-size:6.08438px;line-height:1.25;font-family:'Wingdings 2';-inkscape-font-specification:'Wingdings 2 Bold';display:inline;fill:#000000;stroke-width:0.142602">
      <path
         d="M 2.1105974,0.92680782 V 1.2209258 q 0.1693407,0 0.2554965,0.086156 0.089127,0.086156 0.1693406,0.3297686 l 0.047534,0.1485445 Q 2.7433967,2.2785622 3.1088161,2.4330484 2.7701347,2.498408 2.5681143,2.712312 2.3690648,2.9232451 2.3690648,3.2143922 q 0,0.4070117 0.3060015,0.6743917 0.3060015,0.2644091 0.775402,0.2644091 0.7130133,0 1.1021997,-0.6120031 L 4.3239095,3.3480821 Q 4.071384,3.618433 3.804004,3.618433 3.5841583,3.618433 3.4267011,3.4758304 3.269244,3.3302568 3.269244,3.1312073 q 0,-0.1663698 0.1218065,-0.2881762 0.1247773,-0.1218065 0.2911471,-0.1218065 0.3000597,0 0.8407615,0.4248371 l 0.1812242,0.1426027 q 0.882354,0.6951879 1.6844939,0.6951879 0.695188,0 1.176472,-0.4575168 Q 8.049404,3.0688186 8.049404,2.4122522 8.049404,1.7467731 7.5502947,1.3367905 7.0511854,0.92680782 6.2401328,0.92680782 H 6.1420935 V 1.2209258 q 0.4812839,0.03268 0.7635184,0.3357104 0.2822344,0.3000598 0.2822344,0.7813438 0,0.4753422 -0.3565066,0.8140235 -0.3565067,0.3357104 -0.8615578,0.3357104 -0.4872257,0 -0.8674995,-0.2970889 -0.3802738,-0.2970888 -0.3802738,-0.6773626 0,-0.1812242 0.1158647,-0.3060015 0.1188356,-0.1247774 0.2911471,-0.1247774 0.1723115,0 0.2584673,0.095068 0.089127,0.092097 0.089127,0.2822344 0,0.1158647 -0.06536,0.2733218 l 0.26738,0.1218064 Q 5.856888,2.4330479 5.856888,2.1478426 5.856888,1.7972777 5.6281296,1.5477231 5.4023422,1.295198 5.0814862,1.295198 q -0.2049913,0 -0.374332,0.1010102 Q 4.5378135,1.4972185 4.4041235,1.7022098 4.231812,1.2714309 3.85748,1.0991194 3.4861189,0.92680782 2.7285423,0.92680782 Z M 4.2496373,2.3766015 Q 3.8129167,2.2934166 3.4504683,1.6487338 L 3.3999632,1.562578 Q 3.242506,1.2833145 3.0196894,1.1971587 q 1.1348795,0 1.2299479,1.1794428 z"
         style="font-size:6.08438px;fill:#000000;stroke-width:0.142602"
         id="path49" />
    </g>
    <rect
       y="236.9297"
       x="-0.2116657"
       height="10.460567"
       width="10.583333"
       id="rect48-7"
       style="display:inline;fill:#e9afaf;stroke-width:0.214773" />
    <rect
       style="display:inline;fill:#e9afaf;stroke-width:0.214773"
       id="rect48-7-4"
       width="10.583333"
       height="10.460567"
       x="-0.21166769"
       y="275.02966" />
    <g
       style="font-weight:bold;font-size:3.52778px;line-height:1.25;font-family:Tahoma;-inkscape-font-specification:'Tahoma, Bold';letter-spacing:0px;fill:#000000;stroke-width:0.264583"
       id="text408"
       aria-label="TRP2"
       transform="translate(-3.1200002e-6,-3.04e-5)">
      <path
         id="path419"
         style="font-size:3.52778px;fill:#000000;stroke-width:0.264583"
         d="m 1.2413038,294.26743 v -2.07568 H 0.48338234 v -0.4892 H 2.6434586 v 0.4892 H 1.8855371 v 2.07568 z" />
      <path
         id="path421"
         style="font-size:3.52778px;fill:#000000;stroke-width:0.264583"
         d="M 5.2841259,294.26743 H 4.4986437 L 3.7837859,293.32691 H 3.5529643 v 0.94052 H 2.9121762 v -2.56488 h 1.0318067 q 0.2135961,0 0.3720706,0.0276 0.1584745,0.0258 0.2928333,0.11024 0.1378039,0.0879 0.2187637,0.22394 0.08096,0.13435 0.08096,0.34278 0,0.29456 -0.1326363,0.47887 -0.1326362,0.18259 -0.354845,0.29111 z m -1.0369744,-1.7794 q 0,-0.0965 -0.037896,-0.16536 -0.036174,-0.0706 -0.1223009,-0.10852 -0.060289,-0.0258 -0.1343588,-0.0327 -0.07407,-0.007 -0.1843128,-0.007 H 3.5529643 v 0.69074 h 0.1843128 q 0.1343588,0 0.2273764,-0.0155 0.09474,-0.0172 0.1601971,-0.0706 0.062012,-0.0482 0.091295,-0.11541 0.031006,-0.0672 0.031006,-0.1757 z" />
      <path
         id="path423"
         style="font-size:3.52778px;fill:#000000;stroke-width:0.264583"
         d="m 7.4493699,292.51215 q 0,0.17914 -0.056844,0.34106 -0.056844,0.16192 -0.1636421,0.27044 -0.065457,0.0672 -0.1446941,0.12403 -0.077515,0.0568 -0.1722549,0.0965 -0.09474,0.0396 -0.2067059,0.062 -0.1102431,0.0224 -0.248047,0.0224 H 6.1195622 v 0.83889 H 5.4753289 v -2.56488 h 0.9956333 q 0.2222088,0 0.3824058,0.0413 0.1619196,0.0396 0.2928333,0.12747 0.1446941,0.0965 0.2239314,0.25838 0.079237,0.1602 0.079237,0.38241 z m -0.6614587,0.0155 q 0,-0.10852 -0.051677,-0.18603 -0.051677,-0.0792 -0.1240235,-0.10852 -0.091295,-0.0396 -0.1757,-0.0448 -0.082682,-0.007 -0.2256539,-0.007 h -0.091295 v 0.76826 h 0.044786 q 0.091295,0 0.1722549,-0.002 0.08096,-0.002 0.141249,-0.012 0.051676,-0.009 0.1085206,-0.0327 0.058567,-0.0258 0.089573,-0.0568 0.065457,-0.0637 0.08785,-0.13263 0.024116,-0.0689 0.024116,-0.18604 z" />
      <path
         id="path425"
         style="font-size:3.52778px;fill:#000000;stroke-width:0.264583"
         d="M 9.6766255,294.26743 H 7.792157 v -0.41858 q 0.2394343,-0.18948 0.4289147,-0.35829 0.1912029,-0.16881 0.335897,-0.3204 0.1877579,-0.19809 0.2721627,-0.34795 0.084405,-0.14986 0.084405,-0.30834 0,-0.17914 -0.106798,-0.27388 -0.106798,-0.0965 -0.2980009,-0.0965 -0.098185,0 -0.1860353,0.0241 -0.086127,0.0241 -0.1757,0.062 -0.08785,0.0396 -0.1498617,0.081 -0.062012,0.0413 -0.093018,0.062 h -0.049954 v -0.55983 q 0.1085206,-0.0517 0.3393421,-0.10507 0.2308216,-0.0551 0.4444176,-0.0551 0.4564755,0 0.6907421,0.20326 0.2359892,0.20326 0.2359892,0.57188 0,0.22738 -0.106798,0.44614 -0.106798,0.21704 -0.3548451,0.46681 -0.1550294,0.15331 -0.301446,0.27389 -0.1464167,0.11886 -0.2118735,0.16881 h 1.0869283 z" />
    </g>
  </g>
  <g
     style="display:none"
     inkscape:label="components"
     id="layer2"
     inkscape:groupmode="layer">
    <circle
       r="0.035242248"
       cy="-48.154167"
       cx="-43.920834"
       style="fill:#000000;stroke:#000000;stroke-width:0.264583"
       id="path30" />
    <circle
       r="0.0088105621"
       cy="-2.5135417"
       cx="-32.279167"
       style="fill:#000000;stroke:#000000;stroke-width:0.264583"
       id="path32" />
    <circle
       r="0.0088105621"
       cy="0.1984375"
       cx="-17.991667"
       style="fill:#000000;stroke:#000000;stroke-width:0.264583"
       id="path34" />
    <circle
       r="0.0088105621"
       cy="2.9104166"
       cx="-25.069271"
       style="fill:#000000;stroke:#000000;stroke-width:0.264583"
       id="path36" />
    <text
       id="text42"
       y="11.90625"
       x="-38.695312"
       style="font-size:10.5833px;line-height:1.25;font-family:'Eras Bold ITC';-inkscape-font-specification:'Eras Bold ITC';stroke-width:0.264583"
       xml:space="preserve"><tspan
         style="font-style:normal;font-variant:normal;font-weight:bold;font-stretch:normal;font-size:3.52778px;font-family:Garamond;-inkscape-font-specification:'Garamond Bold';stroke-width:0.264583"
         y="11.90625"
         x="-38.695312"
         id="tspan40"
         sodipodi:role="line" /></text>
    <text
       id="text78"
       y="16.668749"
       x="-45.111458"
       style="font-size:10.5833px;line-height:1.25;font-family:'Eras Bold ITC';-inkscape-font-specification:'Eras Bold ITC';stroke-width:0.264583"
       xml:space="preserve"><tspan
         style="stroke-width:0.264583"
         y="16.668749"
         x="-45.111458"
         id="tspan76"
         sodipodi:role="line" /></text>
    <circle
       r="4"
       cy="73.660011"
       cx="5.0800009"
       id="out1"
       style="display:inline;opacity:1;vector-effect:none;fill:#0000ff;fill-opacity:1;fill-rule:evenodd;stroke:none;stroke-width:0.999999;stroke-linecap:butt;stroke-linejoin:miter;stroke-miterlimit:4;stroke-dasharray:none;stroke-dashoffset:0;stroke-opacity:1;paint-order:normal"
       inkscape:label="out1" />
    <circle
       r="4"
       cy="10.160002"
       cx="5.0800009"
       id="clk"
       style="display:inline;opacity:1;vector-effect:none;fill:#00ff00;fill-opacity:1;fill-rule:evenodd;stroke:none;stroke-width:1;stroke-linecap:butt;stroke-linejoin:miter;stroke-miterlimit:4;stroke-dasharray:none;stroke-dashoffset:0;stroke-opacity:1;paint-order:normal"
       inkscape:label="clk" />
    <circle
       r="4"
       cy="111.76002"
       cx="5.0800009"
       id="out2"
       style="display:inline;opacity:1;vector-effect:none;fill:#0000ff;fill-opacity:1;fill-rule:evenodd;stroke:none;stroke-width:1;stroke-linecap:butt;stroke-linejoin:miter;stroke-miterlimit:4;stroke-dasharray:none;stroke-dashoffset:0;stroke-opacity:1;paint-order:normal"
       inkscape:label="out2" />
    <ellipse
       style="display:inline;fill:#00ff00;stroke-width:0.264583"
       id="in1"
       cx="5.079999"
       cy="60.959969"
       rx="4.3030391"
       ry="4.2094946"
       inkscape:label="in1" />
    <ellipse
       inkscape:label="in2"
       ry="4.2094946"
       rx="4.3030391"
       cy="99.060013"
       cx="5.0800009"
       id="in2"
       style="display:inline;fill:#00ff00;stroke-width:0.264583" />
    <ellipse
       inkscape:label="rndbutton1"
       ry="2.9466462"
       rx="3.2740514"
       cy="33.020004"
       cx="5.0800009"
       id="rndbutton1"
       style="display:inline;fill:#ff0000;stroke-width:0.193093" />
    <ellipse
       style="display:inline;fill:#ff0000;stroke-width:0.193093"
       id="rndbutton2"
       cx="5.0800009"
       cy="22.860004"
       rx="3.2740514"
       ry="2.9466462"
       inkscape:label="rndbutton2" />
    <ellipse
       inkscape:label="rndled1"
       ry="1.6694936"
       rx="1.763039"
       cy="33.020004"
       cx="5.0800009"
       id="rndled1"
       style="display:inline;fill:#ff00ff;stroke-width:0.106655" />
    <ellipse
       inkscape:label="rndled2"
       ry="1.6694936"
       rx="1.763039"
       cy="22.860004"
       cx="5.0800009"
       id="rndled2"
       style="display:inline;fill:#ff00ff;stroke-width:0.106655" />
    <ellipse
       inkscape:label="knob1"
       ry="4.2094946"
       rx="4.3030391"
       cy="48.260006"
       cx="5.0800009"
       id="knob1"
       style="display:inline;fill:#ff0000;stroke-width:0.264583" />
    <ellipse
       inkscape:label="knob2"
       ry="4.2094946"
       rx="4.3030391"
       cy="86.360016"
       cx="5.0800009"
       id="knob2"
       style="display:inline;fill:#ff0000;stroke-width:0.264583" />
  </g>
</svg>
