<?xml version="1.0" encoding="UTF-8" standalone="no"?>
<svg
   xmlns:dc="http://purl.org/dc/elements/1.1/"
   xmlns:cc="http://creativecommons.org/ns#"
   xmlns:rdf="http://www.w3.org/1999/02/22-rdf-syntax-ns#"
   xmlns:svg="http://www.w3.org/2000/svg"
   xmlns="http://www.w3.org/2000/svg"
   xmlns:sodipodi="http://sodipodi.sourceforge.net/DTD/sodipodi-0.dtd"
   xmlns:inkscape="http://www.inkscape.org/namespaces/inkscape"
   width="40.639999mm"
   height="128.5mm"
   viewBox="0 0 40.640004 128.50002"
   version="1.1"
   id="svg8"
   inkscape:version="1.0 (4035a4fb49, 2020-05-01)"
   sodipodi:docname="TrigPrec6.svg">
  <defs
     id="defs2">
    <rect
       x="-33.734375"
       y="120.12083"
       width="28.178123"
       height="8.2020826"
       id="rect495" />
    <inkscape:path-effect
       hide_knots="false"
       only_selected="false"
       apply_with_radius="true"
       apply_no_radius="true"
       use_knot_distance="true"
       flexible="false"
       chamfer_steps="1"
       radius="4"
       mode="F"
       method="auto"
       unit="mm"
       satellites_param="F,0,0,1,0,4,0,1 @ F,0,0,1,0,4,0,1 @ F,0,0,1,0,4,0,1 @ F,0,0,1,0,4,0,1"
       lpeversion="1"
       is_visible="true"
       id="path-effect77"
       effect="fillet_chamfer" />
    <inkscape:path-effect
       effect="fillet_chamfer"
       id="path-effect154"
       is_visible="true"
       lpeversion="1"
       satellites_param="F,0,0,1,0,4,0,1 @ F,0,0,1,0,4,0,1 @ F,0,0,1,0,4,0,1 @ F,0,0,1,0,4,0,1"
       unit="mm"
       method="auto"
       mode="F"
       radius="4"
       chamfer_steps="1"
       flexible="false"
       use_knot_distance="true"
       apply_no_radius="true"
       apply_with_radius="true"
       only_selected="false"
       hide_knots="false" />
  </defs>
  <sodipodi:namedview
     id="base"
     pagecolor="#ffffff"
     bordercolor="#666666"
     borderopacity="1.0"
     inkscape:pageopacity="0.0"
     inkscape:pageshadow="2"
     inkscape:zoom="1.4142136"
     inkscape:cx="165.42986"
     inkscape:cy="287.73111"
     inkscape:document-units="mm"
     inkscape:current-layer="layer1"
     showgrid="true"
     units="mm"
     inkscape:snap-bbox="true"
     inkscape:snap-page="true"
     inkscape:bbox-nodes="false"
     inkscape:snap-bbox-edge-midpoints="false"
     inkscape:window-width="1780"
     inkscape:window-height="1046"
     inkscape:window-x="-11"
     inkscape:window-y="-11"
     inkscape:window-maximized="1"
     inkscape:snap-bbox-midpoints="true"
     inkscape:snap-nodes="false"
     inkscape:document-rotation="0"
     inkscape:lockguides="false"
     objecttolerance="10"
     gridtolerance="10"
     guidetolerance="10">
    <inkscape:grid
       type="xygrid"
       id="grid86"
       units="mm"
       color="#ffd984"
       opacity="0.53333333"
       spacingx="2.5400004"
       spacingy="2.5400004"
       empcolor="#71530f"
       empopacity="0.25098039"
       empspacing="4" />
  </sodipodi:namedview>
  <metadata
     id="metadata5">
    <rdf:RDF>
      <cc:Work
         rdf:about="">
        <dc:format>image/svg+xml</dc:format>
        <dc:type
           rdf:resource="http://purl.org/dc/dcmitype/StillImage" />
        <dc:title />
        <dc:creator>
          <cc:Agent>
            <dc:title>Firo Lightfog</dc:title>
          </cc:Agent>
        </dc:creator>
      </cc:Work>
    </rdf:RDF>
  </metadata>
  <g
     style="display:inline"
     inkscape:label="Layer 1"
     inkscape:groupmode="layer"
     id="layer1"
     transform="translate(0,-168.49998)">
    <text
       xml:space="preserve"
       style="font-size:10.5833px;line-height:1.25;font-family:'Eras Bold ITC';-inkscape-font-specification:'Eras Bold ITC';stroke-width:0.264583"
       x="1.1693041"
       y="277.43234"
       id="text59"><tspan
         sodipodi:role="line"
         id="tspan57"
         x="1.1693041"
         y="277.43234"
         style="font-size:2.82222px;fill:#ffff00;stroke-width:0.264583" /></text>
    <text
       xml:space="preserve"
       style="font-size:10.5833px;line-height:1.25;font-family:'Eras Bold ITC';-inkscape-font-specification:'Eras Bold ITC';stroke-width:0.264583"
       x="-78.577248"
       y="172.05467"
       id="text127"><tspan
         sodipodi:role="line"
         id="tspan125"
         x="-78.577248"
         y="172.05467"
         style="stroke-width:0.264583" /></text>
    <text
       xml:space="preserve"
       style="font-size:10.5833px;line-height:1.25;font-family:'Eras Bold ITC';-inkscape-font-specification:'Eras Bold ITC';stroke-width:0.264583"
       x="-89.989647"
       y="186.46049"
       id="text131"><tspan
         sodipodi:role="line"
         id="tspan129"
         x="-89.989647"
         y="186.46049"
         style="stroke-width:0.264583" /></text>
    <path
       transform="matrix(1,0,0.01689384,0.99985729,0,0)"
       sodipodi:type="rect"
       inkscape:path-effect="#path-effect77"
       style="display:inline;fill:#de8787;stroke-width:0.326106"
       id="rect48-1"
       width="15.617659"
       height="16.342276"
       x="0.15582936"
       y="272.12888"
       d="m 4.1558294,272.12888 h 7.6176586 a 4,4 45 0 1 4,4 v 8.34227 a 4,4 135 0 1 -4,4 H 4.1558294 a 4,4 45 0 1 -4.00000004,-4 v -8.34227 a 4,4 135 0 1 4.00000004,-4 z" />
    <g
       transform="translate(2.9633341,163.41998)"
       aria-label="b"
       id="text104"
       style="font-weight:bold;font-size:6.35px;line-height:1.25;font-family:Tahoma;-inkscape-font-specification:'Tahoma, Bold';display:inline;fill:#ffeeaa;stroke-width:0.264583">
      <path
         d="m 3.2732611,14.038632 v 0.682129 q 0.3927406,0 0.592556,0.199815 0.2067056,0.199815 0.3927406,0.764811 l 0.110243,0.344509 q 0.37207,1.143771 1.2195628,1.50206 -0.7854811,0.151584 -1.2540138,0.647678 -0.4616424,0.489203 -0.4616424,1.164441 0,0.943956 0.7096891,1.564072 0.7096891,0.613227 1.7983385,0.613227 1.6536445,0 2.5562588,-1.419378 L 8.4064495,19.654133 Q 7.8207837,20.28114 7.200667,20.28114 q -0.5098738,0 -0.8750536,-0.330729 -0.3651799,-0.337619 -0.3651799,-0.799261 0,-0.385851 0.2824977,-0.668348 0.2893878,-0.282498 0.6752382,-0.282498 0.6959087,0 1.9499225,0.985297 l 0.4203013,0.330729 q 2.0463848,1.612303 3.9067348,1.612303 1.612304,0 2.728514,-1.061088 1.1231,-1.061089 1.1231,-2.58382 0,-1.543402 -1.157551,-2.494247 -1.157551,-0.950846 -3.038572,-0.950846 h -0.227376 v 0.682129 q 1.11621,0.07579 1.770778,0.77859 0.654567,0.695909 0.654567,1.812119 0,1.10243 -0.826822,1.887911 -0.826822,0.778591 -1.998154,0.778591 -1.12999,0 -2.011934,-0.689018 -0.8819437,-0.689019 -0.8819437,-1.570963 0,-0.420301 0.2687173,-0.709689 0.2756074,-0.289388 0.6752384,-0.289388 0.399631,0 0.599446,0.220486 0.206705,0.213596 0.206705,0.654568 0,0.268717 -0.151584,0.633897 l 0.620117,0.282498 q 0.413411,-0.978407 0.413411,-1.639865 0,-0.813041 -0.530544,-1.391817 -0.523654,-0.585666 -1.267794,-0.585666 -0.475423,0 -0.8681636,0.234266 -0.3927406,0.234267 -0.7027989,0.70969 Q 8.1928537,14.837894 7.3246903,14.438263 6.4634171,14.038632 4.7064198,14.038632 Z m 4.9609337,3.362411 Q 7.2213375,17.208118 6.3807349,15.712947 L 6.2636017,15.513132 Q 5.8984219,14.865454 5.381658,14.665639 q 2.6320509,0 2.8525368,2.735404 z"
         style="font-style:normal;font-variant:normal;font-weight:bold;font-stretch:normal;font-size:14.1111px;font-family:'Wingdings 2';-inkscape-font-specification:'Wingdings 2 Bold';fill:#ffeeaa;stroke-width:0.264583"
         id="path197" />
    </g>
    <rect
       y="168.65306"
       x="-0.063979395"
       height="128.54594"
       width="40.767963"
       id="rect232"
       style="display:inline;fill:#cccccc;fill-opacity:1;stroke-width:0.313869" />
    <g
       aria-label="b"
       id="text104-0"
       style="font-weight:bold;font-size:6.35px;line-height:1.25;font-family:Tahoma;-inkscape-font-specification:'Tahoma, Bold';display:inline;fill:#000000;stroke-width:0.264583"
       transform="translate(2.5400004)">
      <path
         d="m 3.2732611,177.4586 v 0.68213 q 0.3927406,0 0.592556,0.19982 0.2067056,0.19981 0.3927406,0.76481 l 0.110243,0.34451 q 0.37207,1.14377 1.2195628,1.50206 -0.7854811,0.15158 -1.2540138,0.64768 -0.4616424,0.4892 -0.4616424,1.16444 0,0.94395 0.7096891,1.56407 0.7096891,0.61323 1.7983385,0.61323 1.6536445,0 2.5562588,-1.41938 L 8.4064495,183.0741 q -0.5856658,0.62701 -1.2057825,0.62701 -0.5098738,0 -0.8750536,-0.33073 -0.3651799,-0.33762 -0.3651799,-0.79926 0,-0.38585 0.2824977,-0.66835 0.2893878,-0.28249 0.6752382,-0.28249 0.6959087,0 1.9499225,0.98529 l 0.4203013,0.33073 q 2.0463848,1.6123 3.9067348,1.6123 1.612304,0 2.728514,-1.06108 1.1231,-1.06109 1.1231,-2.58382 0,-1.54341 -1.157551,-2.49425 -1.157551,-0.95085 -3.038572,-0.95085 h -0.227376 v 0.68213 q 1.11621,0.0758 1.770778,0.77859 0.654567,0.69591 0.654567,1.81212 0,1.10243 -0.826822,1.88791 -0.826822,0.77859 -1.998154,0.77859 -1.12999,0 -2.011934,-0.68901 -0.8819437,-0.68902 -0.8819437,-1.57097 0,-0.4203 0.2687173,-0.70969 0.2756074,-0.28938 0.6752384,-0.28938 0.399631,0 0.599446,0.22048 0.206705,0.2136 0.206705,0.65457 0,0.26872 -0.151584,0.6339 l 0.620117,0.28249 q 0.413411,-0.9784 0.413411,-1.63986 0,-0.81304 -0.530544,-1.39182 -0.523654,-0.58566 -1.267794,-0.58566 -0.475423,0 -0.8681636,0.23426 -0.3927406,0.23427 -0.7027989,0.70969 -0.3996308,-0.99907 -1.2677942,-1.39871 -0.8612732,-0.39963 -2.6182705,-0.39963 z m 4.9609337,3.36241 Q 7.2213375,180.62809 6.3807349,179.13292 L 6.2636017,178.9331 q -0.3651798,-0.64767 -0.8819437,-0.84749 2.6320509,0 2.8525368,2.7354 z"
         style="font-style:normal;font-variant:normal;font-weight:bold;font-stretch:normal;font-size:14.1111px;font-family:'Wingdings 2';-inkscape-font-specification:'Wingdings 2 Bold';fill:#000000;stroke-width:0.264583"
         id="path116" />
    </g>
    <path
       y="191.32727"
       x="27.728338"
       height="83.899742"
       width="10.583333"
       id="rect48"
       style="display:inline;fill:#de8787;stroke-width:0.608257"
       inkscape:path-effect="#path-effect154"
       sodipodi:type="rect"
       d="m 31.728338,191.32727 h 2.583333 a 4,4 45 0 1 4,4 v 75.89974 a 4,4 135 0 1 -4,4 h -2.583333 a 4,4 45 0 1 -4,-4 v -75.89974 a 4,4 135 0 1 4,-4 z" />
    <g
       transform="translate(25.400003,-99.060022)"
       aria-label="CLK"
       id="text223"
       style="font-weight:bold;font-size:2.82223px;line-height:1.25;font-family:Tahoma;-inkscape-font-specification:'Tahoma, Bold';display:inline;fill:#000000;stroke-width:0.264583">
      <path
         d="m 5.9153633,288.94591 q -0.4616441,0 -0.7331183,-0.27837 -0.2714743,-0.27974 -0.2714743,-0.78548 0,-0.48783 0.2714743,-0.77722 0.2728523,-0.29076 0.7344964,-0.29076 0.1226457,0 0.2204867,0.0138 0.097841,0.0138 0.1874137,0.0386 0.07028,0.0207 0.1529627,0.0565 0.082682,0.0358 0.1336701,0.062 v 0.48921 H 6.558909 q -0.037207,-0.0331 -0.093707,-0.0786 -0.0565,-0.0468 -0.1281579,-0.0909 -0.071658,-0.0441 -0.1584748,-0.0744 -0.085439,-0.0317 -0.1791455,-0.0317 -0.1116214,0 -0.2053283,0.0358 -0.092329,0.0344 -0.1763893,0.12127 -0.07717,0.0785 -0.1267799,0.21222 -0.048231,0.13367 -0.048231,0.31557 0,0.19155 0.050988,0.32246 0.050987,0.12954 0.13367,0.20946 0.079927,0.0772 0.1777675,0.11162 0.099219,0.0344 0.19706,0.0344 0.1019751,0 0.1943039,-0.0331 0.092329,-0.0344 0.1557188,-0.0758 0.068902,-0.0427 0.1212677,-0.0868 0.052366,-0.0441 0.090951,-0.0786 h 0.046854 v 0.48232 q -0.0565,0.0262 -0.130914,0.0606 -0.074414,0.0331 -0.1529627,0.0565 -0.096463,0.0289 -0.1805235,0.0441 -0.084061,0.0152 -0.2315111,0.0152 z"
         style="fill:#000000;stroke-width:0.264583"
         id="path309" />
      <path
         d="M 8.2855957,288.90594 H 6.9158219 v -2.0519 h 0.5153877 v 1.66054 h 0.8543861 z"
         style="fill:#000000;stroke-width:0.264583"
         id="path311" />
      <path
         d="M 10.329232,288.90594 H 9.7063569 l -0.559485,-0.83371 -0.1005971,0.14056 v 0.69315 H 8.5308871 v -2.0519 h 0.5153877 v 0.91089 l 0.655948,-0.91089 h 0.5966922 l -0.7317403,0.95223 z"
         style="fill:#000000;stroke-width:0.264583"
         id="path313" />
    </g>
    <g
       aria-label="TRP6"
       id="text219"
       style="font-weight:bold;font-size:4.23333px;line-height:1.25;font-family:Tahoma;-inkscape-font-specification:'Tahoma, Bold';letter-spacing:0px;display:inline;fill:#000000;stroke-width:0.264583"
       transform="translate(5.0799977)">
      <path
         d="m 10.64287,294.49582 v -2.4908 H 9.733366 v -0.58705 h 2.592088 v 0.58705 h -0.909505 v 2.4908 z"
         style="fill:#000000;stroke-width:0.264583"
         id="path317" />
      <path
         d="m 15.49425,294.49582 h -0.942578 l -0.857828,-1.12861 h -0.276985 v 1.12861 h -0.768945 v -3.07785 h 1.238167 q 0.256314,0 0.446484,0.0331 0.190169,0.031 0.351399,0.13229 0.165364,0.10542 0.262516,0.26872 0.09715,0.16123 0.09715,0.41134 0,0.35347 -0.159164,0.57464 -0.159163,0.21911 -0.425813,0.34933 z m -1.244368,-2.13527 q 0,-0.11575 -0.04547,-0.19844 -0.04341,-0.0847 -0.146761,-0.13022 -0.07235,-0.031 -0.16123,-0.0393 -0.08888,-0.008 -0.221175,-0.008 h -0.258382 v 0.82889 h 0.221175 q 0.16123,0 0.272851,-0.0186 0.113688,-0.0207 0.192236,-0.0847 0.07441,-0.0579 0.109554,-0.13849 0.03721,-0.0806 0.03721,-0.21084 z"
         style="fill:#000000;stroke-width:0.264583"
         id="path319" />
      <path
         d="m 18.092539,292.38949 q 0,0.21497 -0.06821,0.40928 -0.06821,0.1943 -0.19637,0.32452 -0.07855,0.0806 -0.173633,0.14883 -0.09302,0.0682 -0.206706,0.11576 -0.113688,0.0475 -0.248046,0.0744 -0.132292,0.0269 -0.297656,0.0269 h -0.405143 v 1.00666 h -0.773079 v -3.07785 h 1.194758 q 0.26665,0 0.458886,0.0496 0.194304,0.0475 0.3514,0.15296 0.173633,0.11576 0.268717,0.31006 0.09508,0.19224 0.09508,0.45889 z m -0.79375,0.0186 q 0,-0.13022 -0.06201,-0.22324 -0.06201,-0.0951 -0.148828,-0.13022 -0.109554,-0.0476 -0.21084,-0.0537 -0.09922,-0.008 -0.270784,-0.008 h -0.109554 v 0.92191 h 0.05374 q 0.109554,0 0.206706,-0.002 0.09715,-0.002 0.169498,-0.0145 0.06201,-0.0103 0.130225,-0.0393 0.07028,-0.031 0.107487,-0.0682 0.07855,-0.0765 0.10542,-0.15917 0.02894,-0.0827 0.02894,-0.22324 z"
         style="fill:#000000;stroke-width:0.264583"
         id="path321" />
      <path
         d="m 20.746638,293.44782 q 0,0.48576 -0.307991,0.79995 -0.307992,0.31213 -0.845426,0.31213 -0.268717,0 -0.479557,-0.0765 -0.21084,-0.0786 -0.357601,-0.22945 -0.175699,-0.17776 -0.268717,-0.45888 -0.09302,-0.28112 -0.09302,-0.6718 0,-0.40514 0.08682,-0.71933 0.08682,-0.31419 0.283187,-0.55604 0.188102,-0.22944 0.491959,-0.3576 0.303857,-0.13022 0.719335,-0.13022 0.150895,0 0.30179,0.0207 0.152962,0.0186 0.208773,0.031 v 0.60565 h -0.05581 q -0.05374,-0.0269 -0.177766,-0.06 -0.124024,-0.0351 -0.283187,-0.0351 -0.361735,0 -0.558105,0.19017 -0.19637,0.19017 -0.241846,0.54571 0.150896,-0.0971 0.305925,-0.15503 0.157096,-0.0579 0.353466,-0.0579 0.165365,0 0.310059,0.0455 0.14676,0.0434 0.260449,0.12815 0.159163,0.12196 0.25218,0.3204 0.09509,0.19843 0.09509,0.50849 z m -0.897102,0.46509 q 0.05994,-0.0744 0.09095,-0.16123 0.03307,-0.0889 0.03307,-0.26665 0,-0.14883 -0.03721,-0.24598 -0.03721,-0.0971 -0.10542,-0.15503 -0.06821,-0.0579 -0.155029,-0.0786 -0.08682,-0.0227 -0.183968,-0.0227 -0.08062,0 -0.167431,0.0207 -0.08475,0.0207 -0.159164,0.0517 0,0.0207 -0.0021,0.0682 -0.0021,0.0476 -0.0021,0.11989 0,0.26459 0.04547,0.42582 0.04754,0.16123 0.117823,0.24391 0.05374,0.0661 0.121956,0.0951 0.07028,0.0289 0.146761,0.0289 0.06201,0 0.134358,-0.031 0.07235,-0.031 0.121957,-0.093 z"
         style="fill:#000000;stroke-width:0.264583"
         id="path323" />
    </g>
    <g
       transform="translate(-2.2919513,81.280011)"
       aria-label="PREC"
       id="text255"
       style="font-weight:bold;font-size:2.82222px;line-height:1.25;font-family:Tahoma;-inkscape-font-specification:'Tahoma, Bold';letter-spacing:0px;display:inline;fill:#000000;stroke-width:0.264583">
      <path
         d="m 20.578661,188.44171 q 0,0.14332 -0.04548,0.27285 -0.04547,0.12954 -0.130913,0.21636 -0.05236,0.0537 -0.115755,0.0992 -0.06201,0.0455 -0.137804,0.0772 -0.07579,0.0317 -0.165364,0.0496 -0.08819,0.0179 -0.198438,0.0179 h -0.270095 v 0.6711 H 18.99943 v -2.0519 h 0.796506 q 0.177766,0 0.305924,0.0331 0.129535,0.0317 0.234266,0.10197 0.115755,0.0772 0.179145,0.20671 0.06339,0.12816 0.06339,0.30592 z m -0.529167,0.0124 q 0,-0.0868 -0.04134,-0.14882 -0.04134,-0.0634 -0.09922,-0.0868 -0.07304,-0.0317 -0.14056,-0.0358 -0.06615,-0.006 -0.180523,-0.006 h -0.07304 v 0.6146 h 0.03583 q 0.07304,0 0.137804,-0.001 0.06477,-0.001 0.112999,-0.01 0.04134,-0.007 0.08682,-0.0262 0.04685,-0.0207 0.07166,-0.0455 0.05237,-0.051 0.07028,-0.10611 0.01929,-0.0551 0.01929,-0.14883 z"
         style="font-size:2.82222px;fill:#000000;stroke-width:0.264583"
         id="path307" />
      <path
         d="m 22.754581,189.84593 h -0.628385 l -0.571885,-0.75241 h -0.184657 v 0.75241 h -0.51263 v -2.0519 h 0.825444 q 0.170877,0 0.297657,0.0221 0.126779,0.0207 0.234266,0.0882 0.110243,0.0703 0.175011,0.17914 0.06477,0.10749 0.06477,0.27423 0,0.23565 -0.106109,0.3831 -0.106108,0.14607 -0.283875,0.23288 z m -0.829578,-1.42351 q 0,-0.0772 -0.03032,-0.13229 -0.02894,-0.0565 -0.09784,-0.0868 -0.04823,-0.0207 -0.107487,-0.0262 -0.05926,-0.006 -0.14745,-0.006 h -0.172255 v 0.55259 h 0.14745 q 0.107487,0 0.181901,-0.0124 0.07579,-0.0138 0.128157,-0.0565 0.04961,-0.0386 0.07304,-0.0923 0.02481,-0.0537 0.02481,-0.14056 z"
         style="font-size:2.82222px;fill:#000000;stroke-width:0.264583"
         id="path310" />
      <path
         d="m 22.907544,189.84593 v -2.0519 h 1.387683 v 0.39137 h -0.875054 v 0.35966 h 0.806152 v 0.39137 h -0.806152 v 0.51814 h 0.875054 v 0.39136 z"
         style="font-size:2.82222px;fill:#000000;stroke-width:0.264583"
         id="path312" />
      <path
         d="m 25.52857,189.8859 q -0.461642,0 -0.733116,-0.27837 -0.271473,-0.27974 -0.271473,-0.78548 0,-0.48782 0.271473,-0.77721 0.272852,-0.29077 0.734494,-0.29077 0.122645,0 0.220486,0.0138 0.09784,0.0138 0.187413,0.0386 0.07028,0.0207 0.152962,0.0565 0.08268,0.0358 0.13367,0.062 v 0.4892 h -0.05237 q -0.03721,-0.0331 -0.09371,-0.0786 -0.0565,-0.0469 -0.128158,-0.0909 -0.07166,-0.0441 -0.158474,-0.0744 -0.08544,-0.0317 -0.179145,-0.0317 -0.111621,0 -0.205327,0.0358 -0.09233,0.0344 -0.176389,0.12127 -0.07717,0.0786 -0.126779,0.21222 -0.04823,0.13367 -0.04823,0.31557 0,0.19155 0.05099,0.32246 0.05099,0.12953 0.133669,0.20946 0.07993,0.0772 0.177767,0.11162 0.09922,0.0344 0.197059,0.0344 0.101975,0 0.194304,-0.0331 0.09233,-0.0344 0.155718,-0.0758 0.0689,-0.0427 0.121267,-0.0868 0.05237,-0.0441 0.09095,-0.0785 h 0.04685 v 0.48232 q -0.0565,0.0262 -0.130914,0.0606 -0.07441,0.0331 -0.152962,0.0565 -0.09646,0.0289 -0.180523,0.0441 -0.08406,0.0152 -0.23151,0.0152 z"
         style="font-size:2.82222px;fill:#000000;stroke-width:0.264583"
         id="path314" />
    </g>
    <g
       aria-label="OUT"
       transform="translate(10.160001,168.49997)"
       id="text207"
       style="font-weight:bold;font-size:2.82222px;line-height:1.25;font-family:Tahoma;-inkscape-font-specification:'Tahoma, Bold';letter-spacing:0px;display:inline;fill:#000000;stroke-width:0.264583">
      <path
         d="m 21.902955,101.6007 q 0,0.49747 -0.265961,0.78273 -0.265961,0.28525 -0.728982,0.28525 -0.464398,0 -0.728982,-0.28801 -0.264583,-0.28939 -0.264583,-0.77997 0,-0.49471 0.264583,-0.78135 0.264584,-0.28801 0.728982,-0.28801 0.463021,0 0.728982,0.28664 0.265961,0.28525 0.265961,0.78272 z m -0.531922,-0.001 q 0,-0.18328 -0.03859,-0.31143 -0.03721,-0.12954 -0.100596,-0.21222 -0.06615,-0.0841 -0.150206,-0.11989 -0.08268,-0.0372 -0.172255,-0.0372 -0.09508,0 -0.172255,0.0344 -0.07717,0.0331 -0.148828,0.11989 -0.06339,0.0799 -0.103352,0.21222 -0.03858,0.13229 -0.03858,0.31557 0,0.18879 0.03721,0.31419 0.03721,0.12403 0.101974,0.20809 0.06615,0.0854 0.150206,0.12264 0.08406,0.0358 0.173633,0.0358 0.09095,0 0.176389,-0.0386 0.08544,-0.04 0.14745,-0.12265 0.06615,-0.0896 0.101975,-0.20808 0.03583,-0.11989 0.03583,-0.31282 z"
         style="font-size:2.82222px;fill:#000000;stroke-width:0.264583"
         id="path300" />
      <path
         d="m 23.035701,102.66868 q -0.413411,0 -0.636653,-0.19981 -0.221864,-0.19982 -0.221864,-0.58429 v -1.31052 h 0.515386 v 1.2802 q 0,0.2136 0.07993,0.31833 0.0813,0.10473 0.263205,0.10473 0.177767,0 0.260449,-0.1006 0.08406,-0.1006 0.08406,-0.32246 v -1.2802 H 23.8956 v 1.30914 q 0,0.37896 -0.21773,0.58291 -0.216352,0.20257 -0.642166,0.20257 z"
         style="font-size:2.82222px;fill:#000000;stroke-width:0.264583"
         id="path302" />
      <path
         d="m 24.683834,102.62596 v -1.66053 h -0.606337 v -0.39137 h 1.728059 v 0.39137 H 25.19922 v 1.66053 z"
         style="font-size:2.82222px;fill:#000000;stroke-width:0.264583"
         id="path304" />
    </g>
    <g
       aria-label="SKIP"
       transform="translate(2.5400007,173.57998)"
       id="text211"
       style="font-weight:bold;font-size:2.82222px;line-height:1.25;font-family:Tahoma;-inkscape-font-specification:'Tahoma, Bold';letter-spacing:0px;display:inline;fill:#000000;stroke-width:0.264583">
      <path
         d="m 2.4196973,110.28316 q -0.2356443,0 -0.4147891,-0.0455 -0.1777668,-0.0455 -0.330729,-0.113 v -0.48783 h 0.046853 q 0.1543402,0.13092 0.3403752,0.2012 0.186035,0.0703 0.3610457,0.0703 0.044097,0 0.1157551,-0.01 0.073036,-0.01 0.1171332,-0.0303 0.053743,-0.0234 0.09095,-0.0648 0.037207,-0.0427 0.037207,-0.11162 0,-0.0772 -0.060634,-0.12541 -0.060634,-0.0482 -0.1446939,-0.0703 -0.1047308,-0.0276 -0.22462,-0.0524 -0.1185112,-0.0248 -0.221864,-0.0606 -0.2384005,-0.0841 -0.3417532,-0.226 -0.1033528,-0.14194 -0.1033528,-0.35554 0,-0.28801 0.2439126,-0.46577 0.2439125,-0.17915 0.6090924,-0.17915 0.1832789,0 0.3638018,0.0372 0.1819009,0.0372 0.3252167,0.1006 v 0.46853 H 3.183129 q -0.1143771,-0.0978 -0.2797415,-0.16537 -0.1639864,-0.0675 -0.3376191,-0.0675 -0.067524,0 -0.1212673,0.01 -0.053743,0.01 -0.112999,0.0372 -0.048231,0.022 -0.08406,0.0661 -0.034451,0.0427 -0.034451,0.0965 0,0.0785 0.055121,0.1254 0.0565,0.0455 0.2163518,0.0827 0.1033528,0.0234 0.1984373,0.0455 0.096463,0.0221 0.2053276,0.0606 0.2135957,0.0772 0.3169485,0.20809 0.1047308,0.12953 0.1047308,0.34313 0,0.30592 -0.2411565,0.49196 -0.2397784,0.18603 -0.6490555,0.18603 z"
         style="font-size:2.82222px;fill:#000000;stroke-width:0.264583"
         id="path291" />
      <path
         d="M 5.3700749,110.24596 H 4.7472021 L 4.187719,109.41224 4.0871223,109.5528 v 0.69316 H 3.5717364 v -2.0519 h 0.5153859 v 0.91088 l 0.6559456,-0.91088 H 5.339758 l -0.7317377,0.95222 z"
         style="font-size:2.82222px;fill:#000000;stroke-width:0.264583"
         id="path293" />
      <path
         d="M 6.562077,110.24596 H 5.4568912 v -0.35829 h 0.2949 v -1.33532 h -0.2949 v -0.35829 H 6.562077 v 0.35829 H 6.2671771 v 1.33532 H 6.562077 Z"
         style="font-size:2.82222px;fill:#000000;stroke-width:0.264583"
         id="path295" />
      <path
         d="m 8.485817,108.84174 q 0,0.14331 -0.045475,0.27285 -0.045475,0.12953 -0.1309135,0.21635 -0.052365,0.0537 -0.1157552,0.0992 -0.062012,0.0455 -0.1378037,0.0772 -0.075792,0.0317 -0.1653644,0.0496 -0.088194,0.0179 -0.1984374,0.0179 H 7.4219723 v 0.67111 H 6.9065864 v -2.0519 h 0.7965055 q 0.1777668,0 0.3059243,0.0331 0.1295355,0.0317 0.2342663,0.10198 0.1157551,0.0772 0.1791448,0.2067 0.06339,0.12816 0.06339,0.30593 z m -0.5291662,0.0124 q 0,-0.0868 -0.041341,-0.14883 -0.041341,-0.0634 -0.099219,-0.0868 -0.073036,-0.0317 -0.1405598,-0.0358 -0.066146,-0.006 -0.1805229,-0.006 h -0.073036 v 0.61461 h 0.035829 q 0.073036,0 0.1378037,-0.001 0.064768,-0.001 0.1129991,-0.01 0.041341,-0.007 0.086816,-0.0262 0.046853,-0.0207 0.071658,-0.0455 0.052365,-0.051 0.07028,-0.10611 0.019293,-0.0551 0.019293,-0.14883 z"
         style="font-size:2.82222px;fill:#000000;stroke-width:0.264583"
         id="path297" />
    </g>
    <g
       aria-label="ADD"
       transform="translate(20.320006,165.96)"
       id="text215"
       style="font-weight:bold;font-size:2.82222px;line-height:1.25;font-family:Tahoma;-inkscape-font-specification:'Tahoma, Bold';letter-spacing:0px;display:inline;fill:#000000;stroke-width:0.264583">
      <path
         d="m 2.016622,117.86597 0.6931526,-2.0519 h 0.5622392 l 0.6931527,2.0519 H 3.4346222 L 3.3064647,117.44704 H 2.6615433 l -0.1281574,0.41893 z m 1.1768437,-0.791 -0.2094617,-0.67661 -0.2094616,0.67661 z"
         style="font-size:2.82222px;fill:#000000;stroke-width:0.264583"
         id="path284" />
      <path
         d="m 6.0046615,116.84209 q 0,0.28663 -0.1254014,0.514 -0.1254014,0.226 -0.3169486,0.34727 -0.1598523,0.10335 -0.3486434,0.13367 -0.187413,0.0289 -0.3996307,0.0289 H 4.1718721 v -2.0519 h 0.6366531 q 0.2163518,0 0.4051429,0.0276 0.1887911,0.0276 0.3541556,0.13367 0.2025714,0.12954 0.3197046,0.35002 0.1171332,0.21911 0.1171332,0.51677 z m -0.5291663,-0.004 q 0,-0.20257 -0.07028,-0.34589 -0.068902,-0.14469 -0.2135958,-0.22599 -0.1047308,-0.0579 -0.2204859,-0.0634 -0.1143771,-0.006 -0.2742294,-0.006 h -0.00965 v 1.28433 h 0.00965 q 0.1736327,0 0.2921439,-0.006 0.1198892,-0.007 0.2273761,-0.0744 0.1267794,-0.0799 0.1929252,-0.22049 0.066146,-0.14056 0.066146,-0.34313 z"
         style="font-size:2.82222px;fill:#000000;stroke-width:0.264583"
         id="path286" />
      <path
         d="m 8.1433751,116.84209 q 0,0.28663 -0.1254014,0.514 -0.1254014,0.226 -0.3169486,0.34727 -0.1598523,0.10335 -0.3486434,0.13367 -0.187413,0.0289 -0.3996307,0.0289 H 6.3105857 v -2.0519 h 0.6366531 q 0.2163518,0 0.4051429,0.0276 0.1887911,0.0276 0.3541556,0.13367 0.2025714,0.12954 0.3197046,0.35002 0.1171332,0.21911 0.1171332,0.51677 z m -0.5291663,-0.004 q 0,-0.20257 -0.07028,-0.34589 -0.068902,-0.14469 -0.2135958,-0.22599 -0.1047308,-0.0579 -0.2204859,-0.0634 -0.1143771,-0.006 -0.2742294,-0.006 h -0.00965 v 1.28433 h 0.00965 q 0.1736327,0 0.2921439,-0.006 0.1198892,-0.007 0.2273761,-0.0744 0.1267794,-0.0799 0.1929252,-0.22049 0.066146,-0.14056 0.066146,-0.34313 z"
         style="font-size:2.82222px;fill:#000000;stroke-width:0.264583"
         id="path288" />
    </g>
    <g
       aria-label="IN"
       id="text133"
       style="font-weight:bold;font-size:2.82222px;line-height:1.25;font-family:Tahoma;-inkscape-font-specification:'Tahoma, Bold';letter-spacing:0px;fill:#000000;stroke-width:0.264583">
      <path
         d="M 7.1211506,271.12595 H 6.0159648 v -0.35829 h 0.2949 v -1.33532 h -0.2949 v -0.35829 h 1.1051858 v 0.35829 h -0.2949 v 1.33532 h 0.2949 z"
         style="font-size:2.82222px;fill:#000000;stroke-width:0.264583"
         id="path135" />
      <path
         d="M 9.2240353,271.12595 H 8.7279419 l -0.7909933,-1.43041 v 1.43041 H 7.4656599 v -2.0519 h 0.632519 l 0.6545677,1.17546 v -1.17546 h 0.4712887 z"
         style="font-size:2.82222px;fill:#000000;stroke-width:0.264583"
         id="path137" />
    </g>
  </g>
  <g
     inkscape:groupmode="layer"
     id="layer2"
     inkscape:label="components"
     style="display:none">
    <circle
       id="path30"
       style="fill:#000000;stroke:#000000;stroke-width:0.264583"
       cx="-43.920834"
       cy="-48.154167"
       r="0.035242248" />
    <circle
       id="path32"
       style="fill:#000000;stroke:#000000;stroke-width:0.264583"
       cx="-32.279167"
       cy="-2.5135417"
       r="0.0088105621" />
    <circle
       id="path34"
       style="fill:#000000;stroke:#000000;stroke-width:0.264583"
       cx="-17.991667"
       cy="0.1984375"
       r="0.0088105621" />
    <circle
       id="path36"
       style="fill:#000000;stroke:#000000;stroke-width:0.264583"
       cx="-25.069271"
       cy="2.9104166"
       r="0.0088105621" />
    <text
       xml:space="preserve"
       style="font-size:10.5833px;line-height:1.25;font-family:'Eras Bold ITC';-inkscape-font-specification:'Eras Bold ITC';stroke-width:0.264583"
       x="-38.695312"
       y="11.90625"
       id="text42"><tspan
         sodipodi:role="line"
         id="tspan40"
         x="-38.695312"
         y="11.90625"
         style="font-style:normal;font-variant:normal;font-weight:bold;font-stretch:normal;font-size:3.52778px;font-family:Garamond;-inkscape-font-specification:'Garamond Bold';stroke-width:0.264583" /></text>
    <text
       xml:space="preserve"
       style="font-size:10.5833px;line-height:1.25;font-family:'Eras Bold ITC';-inkscape-font-specification:'Eras Bold ITC';stroke-width:0.264583"
       x="-45.111458"
       y="16.668749"
       id="text78"><tspan
         sodipodi:role="line"
         id="tspan76"
         x="-45.111458"
         y="16.668749"
         style="stroke-width:0.264583" /></text>
    <circle
       inkscape:label="out1"
       style="display:inline;opacity:1;vector-effect:none;fill:#0000ff;fill-opacity:1;fill-rule:evenodd;stroke:none;stroke-width:0.999999;stroke-linecap:butt;stroke-linejoin:miter;stroke-miterlimit:4;stroke-dasharray:none;stroke-dashoffset:0;stroke-opacity:1;paint-order:normal"
       id="out1"
       cx="33.020004"
       cy="30.480005"
       r="4" />
    <circle
       inkscape:label="out4"
       style="display:inline;opacity:1;vector-effect:none;fill:#0000ff;fill-opacity:1;fill-rule:evenodd;stroke:none;stroke-width:1;stroke-linecap:butt;stroke-linejoin:miter;stroke-miterlimit:4;stroke-dasharray:none;stroke-dashoffset:0;stroke-opacity:1;paint-order:normal"
       id="out4"
       cx="33.020004"
       cy="68.580009"
       r="4" />
    <circle
       inkscape:label="clk"
       style="display:inline;opacity:1;vector-effect:none;fill:#00ff00;fill-opacity:1;fill-rule:evenodd;stroke:none;stroke-width:1;stroke-linecap:butt;stroke-linejoin:miter;stroke-miterlimit:4;stroke-dasharray:none;stroke-dashoffset:0;stroke-opacity:1;paint-order:normal"
       id="clk"
       cx="33.020004"
       cy="12.699992"
       r="4" />
    <circle
       inkscape:label="out3"
       style="display:inline;opacity:1;vector-effect:none;fill:#0000ff;fill-opacity:1;fill-rule:evenodd;stroke:none;stroke-width:1;stroke-linecap:butt;stroke-linejoin:miter;stroke-miterlimit:4;stroke-dasharray:none;stroke-dashoffset:0;stroke-opacity:1;paint-order:normal"
       id="out3"
       cx="33.020004"
       cy="55.880009"
       r="4" />
    <circle
       inkscape:label="out2"
       style="display:inline;opacity:1;vector-effect:none;fill:#0000ff;fill-opacity:1;fill-rule:evenodd;stroke:none;stroke-width:1;stroke-linecap:butt;stroke-linejoin:miter;stroke-miterlimit:4;stroke-dasharray:none;stroke-dashoffset:0;stroke-opacity:1;paint-order:normal"
       id="out2"
       cx="33.020004"
       cy="43.180008"
       r="4" />
    <ellipse
       inkscape:label="in1"
       ry="4.2094946"
       rx="4.3030391"
       cy="30.480003"
       cx="7.6200013"
       id="in1"
       style="display:inline;fill:#00ff00;stroke-width:0.264583" />
    <ellipse
       style="display:inline;fill:#00ff00;stroke-width:0.264583"
       id="in2"
       cx="7.6200013"
       cy="43.180008"
       rx="4.3030391"
       ry="4.2094946"
       inkscape:label="in2" />
    <ellipse
       style="display:inline;fill:#00ff00;stroke-width:0.264583"
       id="in3"
       cx="7.6200013"
       cy="55.880009"
       rx="4.3030391"
       ry="4.2094946"
       inkscape:label="in3" />
    <ellipse
       style="display:inline;fill:#00ff00;stroke-width:0.264583"
       id="in4"
       cx="7.6200013"
       cy="68.580002"
       rx="4.3030391"
       ry="4.2094946"
       inkscape:label="in4" />
    <ellipse
       inkscape:label="knob6"
       ry="4.2094946"
       rx="4.3030391"
       cy="93.980011"
       cx="20.320004"
       id="knob6"
       style="display:inline;fill:#ff0000;stroke-width:0.264583" />
    <ellipse
       style="display:inline;fill:#ff0000;stroke-width:0.193093"
       id="rndbutton1"
       cx="15.240003"
       cy="114.30002"
       rx="3.2740514"
       ry="2.9466462"
       inkscape:label="rndbutton1" />
    <ellipse
       inkscape:label="rndbutton2"
       ry="2.9466462"
       rx="3.2740514"
       cy="114.30002"
       cx="33.020004"
       id="rndbutton2"
       style="display:inline;fill:#ff0000;stroke-width:0.193093" />
    <ellipse
       style="display:inline;fill:#ff00ff;stroke-width:0.106655"
       id="rndled1"
       cx="15.240003"
       cy="114.30002"
       rx="1.763039"
       ry="1.6694936"
       inkscape:label="rndled1" />
    <ellipse
       style="display:inline;fill:#ff00ff;stroke-width:0.106655"
       id="rndled2"
       cx="33.020004"
       cy="114.30002"
       rx="1.763039"
       ry="1.6694936"
       inkscape:label="rndled2" />
    <ellipse
       inkscape:label="in5"
       ry="4.2094946"
       rx="4.3030391"
       cy="81.280006"
       cx="7.6200013"
       id="in5"
       style="display:inline;fill:#00ff00;stroke-width:0.264583" />
    <ellipse
       inkscape:label="in6"
       ry="4.2094946"
       rx="4.3030391"
       cy="93.980003"
       cx="7.6200013"
       id="in6"
       style="display:inline;fill:#00ff00;stroke-width:0.264583" />
    <circle
       r="4"
       cy="81.280014"
       cx="33.020004"
       id="out5"
       style="display:inline;opacity:1;vector-effect:none;fill:#0000ff;fill-opacity:1;fill-rule:evenodd;stroke:none;stroke-width:1;stroke-linecap:butt;stroke-linejoin:miter;stroke-miterlimit:4;stroke-dasharray:none;stroke-dashoffset:0;stroke-opacity:1;paint-order:normal"
       inkscape:label="out5" />
    <circle
       r="4"
       cy="93.979988"
       cx="33.020004"
       id="out6"
       style="display:inline;opacity:1;vector-effect:none;fill:#0000ff;fill-opacity:1;fill-rule:evenodd;stroke:none;stroke-width:1;stroke-linecap:butt;stroke-linejoin:miter;stroke-miterlimit:4;stroke-dasharray:none;stroke-dashoffset:0;stroke-opacity:1;paint-order:normal"
       inkscape:label="out6" />
    <ellipse
       style="display:inline;fill:#ff0000;stroke-width:0.264583"
       id="knob1"
       cx="20.320002"
       cy="30.479998"
       rx="4.3030391"
       ry="4.2094946"
       inkscape:label="knob1" />
    <ellipse
       style="display:inline;fill:#ff0000;stroke-width:0.264583"
       id="knob2"
       cx="20.320002"
       cy="43.18"
       rx="4.3030391"
       ry="4.2094946"
       inkscape:label="knob2" />
    <ellipse
       style="display:inline;fill:#ff0000;stroke-width:0.264583"
       id="knob3"
       cx="20.320002"
       cy="55.880001"
       rx="4.3030391"
       ry="4.2094946"
       inkscape:label="knob3" />
    <ellipse
       style="display:inline;fill:#ff0000;stroke-width:0.264583"
       id="knob4"
       cx="20.320002"
       cy="68.580002"
       rx="4.3030391"
       ry="4.2094946"
       inkscape:label="knob4" />
    <ellipse
       style="display:inline;fill:#ff0000;stroke-width:0.264583"
       id="knob5"
       cx="20.320004"
       cy="81.280014"
       rx="4.3030391"
       ry="4.2094946"
       inkscape:label="knob5" />
  </g>
</svg>
