<?xml version="1.0" encoding="UTF-8" standalone="no"?>
<svg
   xmlns:dc="http://purl.org/dc/elements/1.1/"
   xmlns:cc="http://creativecommons.org/ns#"
   xmlns:rdf="http://www.w3.org/1999/02/22-rdf-syntax-ns#"
   xmlns:svg="http://www.w3.org/2000/svg"
   xmlns="http://www.w3.org/2000/svg"
   xmlns:sodipodi="http://sodipodi.sourceforge.net/DTD/sodipodi-0.dtd"
   xmlns:inkscape="http://www.inkscape.org/namespaces/inkscape"
   sodipodi:docname="tXOr.svg"
   inkscape:version="1.0 (4035a4fb49, 2020-05-01)"
   id="svg8"
   version="1.1"
   viewBox="0 0 20.320002 128.50002"
   height="128.5mm"
   width="20.32mm">
  <defs
     id="defs2">
    <inkscape:path-effect
       effect="fillet_chamfer"
       id="path-effect105"
       is_visible="true"
       lpeversion="1"
       satellites_param="F,0,0,1,0,4,0,1 @ F,0,0,1,0,4,0,1 @ F,0,0,1,0,4,0,1 @ F,0,0,1,0,4,0,1"
       unit="mm"
       method="auto"
       mode="F"
       radius="4"
       chamfer_steps="1"
       flexible="false"
       use_knot_distance="true"
       apply_no_radius="true"
       apply_with_radius="true"
       only_selected="false"
       hide_knots="false" />
    <inkscape:path-effect
       effect="fillet_chamfer"
       id="path-effect96"
       is_visible="true"
       lpeversion="1"
       satellites_param="F,0,0,1,0,4,0,1 @ F,0,0,1,0,4,0,1 @ F,0,0,1,0,4,0,1 @ F,0,0,1,0,4,0,1"
       unit="mm"
       method="auto"
       mode="F"
       radius="4"
       chamfer_steps="1"
       flexible="false"
       use_knot_distance="true"
       apply_no_radius="true"
       apply_with_radius="true"
       only_selected="false"
       hide_knots="false" />
    <inkscape:path-effect
       hide_knots="false"
       only_selected="false"
       apply_with_radius="true"
       apply_no_radius="true"
       use_knot_distance="true"
       flexible="false"
       chamfer_steps="1"
       radius="4"
       mode="F"
       method="auto"
       unit="mm"
       satellites_param="F,0,0,1,0,4,0,1 @ F,0,0,1,0,4,0,1 @ F,0,0,1,0,4,0,1 @ F,0,0,1,0,4,0,1"
       lpeversion="1"
       is_visible="true"
       id="path-effect77"
       effect="fillet_chamfer" />
    <inkscape:path-effect
       hide_knots="false"
       only_selected="false"
       apply_with_radius="true"
       apply_no_radius="true"
       use_knot_distance="true"
       flexible="false"
       chamfer_steps="1"
       radius="4"
       mode="F"
       method="auto"
       unit="mm"
       satellites_param="F,0,0,1,0,4,0,1 @ F,0,0,1,0,4,0,1 @ F,0,0,1,0,4,0,1 @ F,0,0,1,0,4,0,1"
       lpeversion="1"
       is_visible="true"
       id="path-effect161"
       effect="fillet_chamfer" />
    <inkscape:path-effect
       hide_knots="false"
       only_selected="false"
       apply_with_radius="true"
       apply_no_radius="true"
       use_knot_distance="true"
       flexible="false"
       chamfer_steps="1"
       radius="4"
       mode="F"
       method="auto"
       unit="mm"
       satellites_param="F,0,0,1,0,4,0,1 @ F,0,0,1,0,4,0,1 @ F,0,0,1,0,4,0,1 @ F,0,0,1,0,4,0,1"
       lpeversion="1"
       is_visible="true"
       id="path-effect152"
       effect="fillet_chamfer" />
    <inkscape:path-effect
       hide_knots="false"
       only_selected="false"
       apply_with_radius="true"
       apply_no_radius="true"
       use_knot_distance="true"
       flexible="false"
       chamfer_steps="1"
       radius="4"
       mode="F"
       method="auto"
       unit="mm"
       satellites_param="F,0,0,1,0,4,0,1 @ F,0,0,1,0,4,0,1 @ F,0,0,1,0,4,0,1 @ F,0,0,1,0,4,0,1"
       lpeversion="1"
       is_visible="true"
       id="path-effect143"
       effect="fillet_chamfer" />
    <inkscape:path-effect
       effect="fillet_chamfer"
       id="path-effect124"
       is_visible="true"
       lpeversion="1"
       satellites_param="F,0,0,1,0,4,0,1 @ F,0,0,1,0,4,0,1 @ F,0,0,1,0,4,0,1 @ F,0,0,1,0,4,0,1"
       unit="mm"
       method="auto"
       mode="F"
       radius="4"
       chamfer_steps="1"
       flexible="false"
       use_knot_distance="true"
       apply_no_radius="true"
       apply_with_radius="true"
       only_selected="false"
       hide_knots="false" />
    <inkscape:path-effect
       hide_knots="false"
       only_selected="false"
       apply_with_radius="true"
       apply_no_radius="true"
       use_knot_distance="true"
       flexible="false"
       chamfer_steps="1"
       radius="4"
       mode="F"
       method="auto"
       unit="mm"
       satellites_param="F,0,0,1,0,4,0,1 @ F,0,0,1,0,4,0,1 @ F,0,0,1,0,4,0,1 @ F,0,0,1,0,4,0,1"
       lpeversion="1"
       is_visible="true"
       id="path-effect154"
       effect="fillet_chamfer" />
  </defs>
  <sodipodi:namedview
     guidetolerance="28.7"
     gridtolerance="26.6"
     objecttolerance="24.3"
     inkscape:lockguides="false"
     inkscape:document-rotation="0"
     inkscape:snap-nodes="false"
     inkscape:snap-bbox-midpoints="true"
     inkscape:window-maximized="1"
     inkscape:window-y="-11"
     inkscape:window-x="-11"
     inkscape:window-height="1046"
     inkscape:window-width="1812"
     inkscape:snap-bbox-edge-midpoints="false"
     inkscape:bbox-nodes="false"
     inkscape:snap-page="true"
     inkscape:snap-bbox="true"
     units="mm"
     showgrid="true"
     inkscape:current-layer="layer1"
     inkscape:document-units="mm"
     inkscape:cy="132.10306"
     inkscape:cx="52.995794"
     inkscape:zoom="2.8284272"
     inkscape:pageshadow="2"
     inkscape:pageopacity="0.0"
     borderopacity="1.0"
     bordercolor="#666666"
     pagecolor="#ffffff"
     id="base">
    <inkscape:grid
       empspacing="4"
       empopacity="0.25098039"
       empcolor="#71530f"
       spacingy="2.5400004"
       spacingx="2.5400004"
       opacity="0.53333333"
       color="#ffd984"
       units="mm"
       id="grid86"
       type="xygrid" />
  </sodipodi:namedview>
  <metadata
     id="metadata5">
    <rdf:RDF>
      <cc:Work
         rdf:about="">
        <dc:format>image/svg+xml</dc:format>
        <dc:type
           rdf:resource="http://purl.org/dc/dcmitype/StillImage" />
        <dc:title></dc:title>
        <dc:creator>
          <cc:Agent>
            <dc:title>Firo Lightfog</dc:title>
          </cc:Agent>
        </dc:creator>
      </cc:Work>
    </rdf:RDF>
  </metadata>
  <g
     transform="translate(0,-168.49998)"
     id="layer1"
     inkscape:groupmode="layer"
     inkscape:label="Layer 1"
     style="display:inline">
    <rect
       y="168.54512"
       x="-0.11858591"
       height="129.3419"
       width="20.463631"
       id="rect420"
       style="display:inline;opacity:1;vector-effect:none;fill:#cccccc;fill-opacity:1;fill-rule:evenodd;stroke:none;stroke-width:0.53381;stroke-linecap:butt;stroke-linejoin:miter;stroke-miterlimit:4;stroke-dasharray:none;stroke-dashoffset:0;stroke-opacity:1;paint-order:normal" />
    <path
       d="M 3.7883347,200.96259 H 16.531669 a 4,4 45 0 1 4,4 v 8.3548 a 4,4 135 0 1 -4,4 H 3.7883347 a 4,4 45 0 1 -4,-4 v -8.3548 a 4,4 135 0 1 4,-4 z"
       y="200.96259"
       x="-0.2116653"
       height="16.354801"
       width="20.743334"
       id="recta"
       style="display:inline;fill:#de8787;stroke-width:0.375975"
       inkscape:path-effect="#path-effect124"
       sodipodi:type="rect" />
    <text
       id="text59"
       y="277.43234"
       x="1.1693041"
       style="font-size:10.5833px;line-height:1.25;font-family:'Eras Bold ITC';-inkscape-font-specification:'Eras Bold ITC';stroke-width:0.264583"
       xml:space="preserve"><tspan
         style="font-size:2.82222px;fill:#ffff00;stroke-width:0.264583"
         y="277.43234"
         x="1.1693041"
         id="tspan57"
         sodipodi:role="line" /></text>
    <text
       id="text127"
       y="172.05467"
       x="-78.577248"
       style="font-size:10.5833px;line-height:1.25;font-family:'Eras Bold ITC';-inkscape-font-specification:'Eras Bold ITC';stroke-width:0.264583"
       xml:space="preserve"><tspan
         style="stroke-width:0.264583"
         y="172.05467"
         x="-78.577248"
         id="tspan125"
         sodipodi:role="line" /></text>
    <text
       id="text131"
       y="186.46049"
       x="-89.989647"
       style="font-size:10.5833px;line-height:1.25;font-family:'Eras Bold ITC';-inkscape-font-specification:'Eras Bold ITC';stroke-width:0.264583"
       xml:space="preserve"><tspan
         style="stroke-width:0.264583"
         y="186.46049"
         x="-89.989647"
         id="tspan129"
         sodipodi:role="line" /></text>
    <g
       style="font-weight:bold;font-size:6.35px;line-height:1.25;font-family:Tahoma;-inkscape-font-specification:'Tahoma, Bold';fill:#000000;stroke-width:0.264583"
       id="text104"
       aria-label="b">
      <path
         id="path116"
         style="font-style:normal;font-variant:normal;font-weight:bold;font-stretch:normal;font-size:14.1111px;font-family:'Wingdings 2';-inkscape-font-specification:'Wingdings 2 Bold';fill:#000000;stroke-width:0.264583"
         d="m 3.2732611,177.4586 v 0.68213 q 0.3927406,0 0.592556,0.19982 0.2067056,0.19981 0.3927406,0.76481 l 0.110243,0.34451 q 0.37207,1.14377 1.2195628,1.50206 -0.7854811,0.15158 -1.2540138,0.64768 -0.4616424,0.4892 -0.4616424,1.16444 0,0.94395 0.7096891,1.56407 0.7096891,0.61323 1.7983385,0.61323 1.6536445,0 2.5562588,-1.41938 L 8.4064495,183.0741 q -0.5856658,0.62701 -1.2057825,0.62701 -0.5098738,0 -0.8750536,-0.33073 -0.3651799,-0.33762 -0.3651799,-0.79926 0,-0.38585 0.2824977,-0.66835 0.2893878,-0.28249 0.6752382,-0.28249 0.6959087,0 1.9499225,0.98529 l 0.4203013,0.33073 q 2.0463848,1.6123 3.9067348,1.6123 1.612304,0 2.728514,-1.06108 1.1231,-1.06109 1.1231,-2.58382 0,-1.54341 -1.157551,-2.49425 -1.157551,-0.95085 -3.038572,-0.95085 h -0.227376 v 0.68213 q 1.11621,0.0758 1.770778,0.77859 0.654567,0.69591 0.654567,1.81212 0,1.10243 -0.826822,1.88791 -0.826822,0.77859 -1.998154,0.77859 -1.12999,0 -2.011934,-0.68901 -0.8819437,-0.68902 -0.8819437,-1.57097 0,-0.4203 0.2687173,-0.70969 0.2756074,-0.28938 0.6752384,-0.28938 0.399631,0 0.599446,0.22048 0.206705,0.2136 0.206705,0.65457 0,0.26872 -0.151584,0.6339 l 0.620117,0.28249 q 0.413411,-0.9784 0.413411,-1.63986 0,-0.81304 -0.530544,-1.39182 -0.523654,-0.58566 -1.267794,-0.58566 -0.475423,0 -0.8681636,0.23426 -0.3927406,0.23427 -0.7027989,0.70969 -0.3996308,-0.99907 -1.2677942,-1.39871 -0.8612732,-0.39963 -2.6182705,-0.39963 z m 4.9609337,3.36241 Q 7.2213375,180.62809 6.3807349,179.13292 L 6.2636017,178.9331 q -0.3651798,-0.64767 -0.8819437,-0.84749 2.6320509,0 2.8525368,2.7354 z" />
    </g>
    <g
       transform="translate(10.941741,0.3920282)"
       style="font-weight:bold;font-size:2.82222px;line-height:1.25;font-family:Tahoma;-inkscape-font-specification:'Tahoma, Bold';letter-spacing:0px;stroke-width:0.264583"
       id="text44"
       aria-label="CLK">
      <path
         id="path74"
         style="font-size:2.82222px;stroke-width:0.264583"
         d="m 2.5936278,189.49387 q -0.4616428,0 -0.7331164,-0.27837 -0.2714735,-0.27974 -0.2714735,-0.78548 0,-0.48782 0.2714735,-0.77721 0.2728516,-0.29077 0.7344944,-0.29077 0.1226454,0 0.2204861,0.0138 0.097841,0.0138 0.1874132,0.0386 0.07028,0.0207 0.1529622,0.0565 0.082682,0.0358 0.1336697,0.062 v 0.4892 H 3.237172 q -0.037207,-0.0331 -0.093707,-0.0786 -0.0565,-0.0469 -0.1281576,-0.0909 -0.071658,-0.0441 -0.1584744,-0.0744 -0.085438,-0.0317 -0.1791449,-0.0317 -0.1116211,0 -0.2053277,0.0358 -0.092329,0.0344 -0.1763889,0.12127 -0.07717,0.0786 -0.1267795,0.21222 -0.048231,0.13367 -0.048231,0.31557 0,0.19155 0.050987,0.32246 0.050987,0.12954 0.1336697,0.20946 0.079926,0.0772 0.1777669,0.11162 0.099219,0.0344 0.1970595,0.0344 0.1019748,0 0.1943033,-0.0331 0.092329,-0.0345 0.1557184,-0.0758 0.068902,-0.0427 0.1212673,-0.0868 0.052366,-0.0441 0.090951,-0.0786 h 0.046853 v 0.48232 q -0.0565,0.0262 -0.1309136,0.0606 -0.074414,0.0331 -0.1529622,0.0565 -0.096463,0.0289 -0.180523,0.0441 -0.08406,0.0152 -0.2315104,0.0152 z" />
      <path
         id="path76"
         style="font-size:2.82222px;stroke-width:0.264583"
         d="m 4.9638535,189.4539 h -1.36977 v -2.0519 h 0.5153863 v 1.66054 h 0.8543837 z" />
      <path
         id="path78"
         style="font-size:2.82222px;stroke-width:0.264583"
         d="M 7.007484,189.4539 H 6.3846108 l -0.5594835,-0.83371 -0.1005968,0.14056 v 0.69315 H 5.2091442 v -2.0519 h 0.5153863 v 0.91089 L 6.3804767,187.402 h 0.5966905 l -0.7317383,0.95223 z" />
    </g>
    <g
       transform="translate(-8.4724202,-0.5432318)"
       style="font-weight:bold;font-size:2.82222px;line-height:1.25;font-family:Tahoma;-inkscape-font-specification:'Tahoma, Bold';letter-spacing:0px;stroke-width:0.264583"
       id="text48"
       aria-label="RST">
      <path
         id="path81"
         style="font-size:2.82222px;stroke-width:0.264583"
         d="m 12.773829,190.38936 h -0.628385 l -0.571886,-0.75241 h -0.184657 v 0.75241 h -0.51263 v -2.0519 h 0.825445 q 0.170876,0 0.297656,0.0221 0.126779,0.0207 0.234266,0.0882 0.110244,0.0703 0.175011,0.17915 0.06477,0.10748 0.06477,0.27423 0,0.23564 -0.106109,0.38309 -0.106109,0.14607 -0.283876,0.23289 z m -0.829579,-1.42351 q 0,-0.0772 -0.03032,-0.1323 -0.02894,-0.0565 -0.09784,-0.0868 -0.04823,-0.0207 -0.107487,-0.0262 -0.05926,-0.006 -0.14745,-0.006 h -0.172255 v 0.5526 h 0.14745 q 0.107487,0 0.181901,-0.0124 0.07579,-0.0138 0.128158,-0.0565 0.04961,-0.0386 0.07304,-0.0923 0.0248,-0.0537 0.0248,-0.14055 z" />
      <path
         id="path83"
         style="font-size:2.82222px;stroke-width:0.264583"
         d="m 13.560689,190.42657 q -0.235644,0 -0.414789,-0.0455 -0.177767,-0.0455 -0.330729,-0.113 v -0.48782 h 0.04685 q 0.15434,0.13091 0.340375,0.20119 0.186036,0.0703 0.361046,0.0703 0.0441,0 0.115756,-0.01 0.07304,-0.01 0.117133,-0.0303 0.05374,-0.0234 0.09095,-0.0648 0.03721,-0.0427 0.03721,-0.11162 0,-0.0772 -0.06063,-0.1254 -0.06063,-0.0482 -0.144694,-0.0703 -0.104731,-0.0276 -0.224621,-0.0524 -0.118511,-0.0248 -0.221864,-0.0606 -0.2384,-0.0841 -0.341753,-0.226 -0.103353,-0.14194 -0.103353,-0.35554 0,-0.28801 0.243913,-0.46577 0.243913,-0.17915 0.609093,-0.17915 0.183279,0 0.363802,0.0372 0.181901,0.0372 0.325217,0.1006 v 0.46853 h -0.04548 q -0.114377,-0.0978 -0.279741,-0.16537 -0.163987,-0.0675 -0.33762,-0.0675 -0.06752,0 -0.121267,0.01 -0.05374,0.01 -0.112999,0.0372 -0.04823,0.0221 -0.08406,0.0661 -0.03445,0.0427 -0.03445,0.0965 0,0.0786 0.05512,0.1254 0.0565,0.0455 0.216352,0.0827 0.103353,0.0234 0.198438,0.0455 0.09646,0.0221 0.205327,0.0606 0.213596,0.0772 0.316949,0.20808 0.104731,0.12953 0.104731,0.34313 0,0.30593 -0.241157,0.49196 -0.239778,0.18604 -0.649056,0.18604 z" />
      <path
         id="path85"
         style="font-size:2.82222px;stroke-width:0.264583"
         d="m 15.106848,190.38936 v -1.66054 h -0.606337 v -0.39136 h 1.72806 v 0.39136 h -0.606336 v 1.66054 z" />
    </g>
    <g
       transform="translate(-1.2228964,6.0904956)"
       style="font-weight:bold;font-size:2.82222px;line-height:1.25;font-family:Tahoma;-inkscape-font-specification:'Tahoma, Bold';letter-spacing:0px;stroke-width:0.264583"
       id="text52"
       aria-label="OR">
      <path
         id="path88"
         style="font-size:2.82222px;stroke-width:0.264583"
         d="m 6.1967883,197.97018 q 0,0.49747 -0.2659614,0.78272 -0.2659614,0.28526 -0.7289822,0.28526 -0.4643989,0 -0.7289822,-0.28801 -0.2645834,-0.28939 -0.2645834,-0.77997 0,-0.49472 0.2645834,-0.78135 0.2645833,-0.28801 0.7289822,-0.28801 0.4630208,0 0.7289822,0.28663 0.2659614,0.28526 0.2659614,0.78273 z m -0.5319228,-0.001 q 0,-0.18328 -0.038585,-0.31144 -0.037207,-0.12953 -0.1005968,-0.21222 -0.066146,-0.0841 -0.1502062,-0.11988 -0.082682,-0.0372 -0.1722548,-0.0372 -0.095085,0 -0.1722548,0.0344 -0.07717,0.0331 -0.1488281,0.11989 -0.06339,0.0799 -0.1033528,0.21222 -0.038585,0.13229 -0.038585,0.31557 0,0.18879 0.037207,0.31419 0.037207,0.12402 0.1019748,0.20808 0.066146,0.0854 0.1502062,0.12265 0.08406,0.0358 0.1736328,0.0358 0.09095,0 0.1763889,-0.0386 0.085438,-0.04 0.1474501,-0.12264 0.066146,-0.0896 0.1019748,-0.20809 0.035829,-0.11989 0.035829,-0.31281 z" />
      <path
         id="path90"
         style="font-size:2.82222px;stroke-width:0.264583"
         d="M 8.3975153,198.99544 H 7.7691299 L 7.197244,198.24303 H 7.0125869 v 0.75241 H 6.4999567 v -2.0519 h 0.8254449 q 0.1708767,0 0.2976562,0.022 0.1267795,0.0207 0.2342665,0.0882 0.1102431,0.0703 0.1750109,0.17915 0.064768,0.10748 0.064768,0.27423 0,0.23564 -0.106109,0.38309 -0.1061089,0.14607 -0.2838759,0.23289 z m -0.829579,-1.42352 q 0,-0.0772 -0.030317,-0.13229 -0.028939,-0.0565 -0.097841,-0.0868 -0.048231,-0.0207 -0.1074869,-0.0262 -0.059256,-0.006 -0.1474501,-0.006 H 7.0125869 v 0.55259 H 7.160037 q 0.107487,0 0.181901,-0.0124 0.075792,-0.0138 0.1281576,-0.0565 0.049609,-0.0386 0.073036,-0.0923 0.024805,-0.0537 0.024805,-0.14056 z" />
    </g>
    <g
       transform="translate(-2.6399001,5.1550556)"
       style="font-weight:bold;font-size:2.82222px;line-height:1.25;font-family:Tahoma;-inkscape-font-specification:'Tahoma, Bold';letter-spacing:0px;stroke-width:0.264583"
       id="text56"
       aria-label="XOR">
      <path
         id="path93"
         style="font-size:2.82222px;stroke-width:0.264583"
         d="m 16.728551,199.93088 h -0.598068 l -0.394119,-0.65457 -0.402387,0.65457 h -0.570508 l 0.665592,-1.03353 -0.639409,-1.01837 h 0.59669 l 0.369315,0.61874 0.37896,-0.61874 h 0.571886 l -0.643544,0.9977 z" />
      <path
         id="path95"
         style="font-size:2.82222px;stroke-width:0.264583"
         d="m 18.795609,198.90562 q 0,0.49747 -0.265962,0.78272 -0.265961,0.28526 -0.728982,0.28526 -0.464399,0 -0.728982,-0.28801 -0.264583,-0.28939 -0.264583,-0.77997 0,-0.49472 0.264583,-0.78135 0.264583,-0.28801 0.728982,-0.28801 0.463021,0 0.728982,0.28663 0.265962,0.28526 0.265962,0.78273 z m -0.531923,-0.001 q 0,-0.18328 -0.03859,-0.31144 -0.03721,-0.12953 -0.100597,-0.21222 -0.06615,-0.0841 -0.150206,-0.11988 -0.08268,-0.0372 -0.172255,-0.0372 -0.09508,0 -0.172255,0.0344 -0.07717,0.0331 -0.148828,0.11989 -0.06339,0.0799 -0.103353,0.21222 -0.03859,0.13229 -0.03859,0.31557 0,0.18879 0.03721,0.31419 0.03721,0.12402 0.101975,0.20808 0.06615,0.0854 0.150206,0.12265 0.08406,0.0358 0.173633,0.0358 0.09095,0 0.176389,-0.0386 0.08544,-0.04 0.14745,-0.12264 0.06615,-0.0896 0.101975,-0.20809 0.03583,-0.11989 0.03583,-0.31281 z" />
      <path
         id="path97"
         style="font-size:2.82222px;stroke-width:0.264583"
         d="m 20.996336,199.93088 h -0.628385 l -0.571886,-0.75241 h -0.184657 v 0.75241 h -0.512631 v -2.0519 h 0.825445 q 0.170877,0 0.297657,0.022 0.126779,0.0207 0.234266,0.0882 0.110243,0.0703 0.175011,0.17915 0.06477,0.10748 0.06477,0.27423 0,0.23564 -0.106109,0.38309 -0.106109,0.14607 -0.283876,0.23289 z m -0.829579,-1.42352 q 0,-0.0772 -0.03032,-0.13229 -0.02894,-0.0565 -0.09784,-0.0868 -0.04823,-0.0207 -0.107487,-0.0262 -0.05926,-0.006 -0.14745,-0.006 h -0.172254 v 0.55259 h 0.14745 q 0.107487,0 0.181901,-0.0124 0.07579,-0.0138 0.128157,-0.0565 0.04961,-0.0386 0.07304,-0.0923 0.02481,-0.0537 0.02481,-0.14056 z" />
    </g>
    <g
       transform="translate(-4.2257528,19.70393)"
       style="font-weight:bold;font-size:2.82222px;line-height:1.25;font-family:Tahoma;-inkscape-font-specification:'Tahoma, Bold';letter-spacing:0px;stroke-width:0.264583"
       id="text60"
       aria-label="A">
      <path
         id="path100"
         style="font-size:2.82222px;stroke-width:0.264583"
         d="m 5.7914802,210.78201 0.6931532,-2.0519 H 7.046873 l 0.6931532,2.0519 H 7.2094815 L 7.0813239,210.36309 H 6.4364021 l -0.1281576,0.41892 z m 1.1768446,-0.79099 -0.2094618,-0.67662 -0.2094618,0.67662 z" />
    </g>
    <g
       transform="translate(-2.5399998,-5.0800214)"
       style="font-weight:bold;font-size:2.82222px;line-height:1.25;font-family:Tahoma;-inkscape-font-specification:'Tahoma, Bold';letter-spacing:0px;stroke-width:0.264583"
       id="text64"
       aria-label="B">
      <path
         id="path103"
         style="font-size:2.82222px;stroke-width:0.264583"
         d="m 5.9006211,260.33756 q 0,0.15296 -0.057878,0.26871 -0.057878,0.11576 -0.1557182,0.19155 -0.1157551,0.091 -0.2549369,0.12954 -0.1378037,0.0386 -0.3513994,0.0386 H 4.2593788 v -2.05189 h 0.7248476 q 0.2259981,0 0.3417532,0.0179 0.1171331,0.0165 0.2191079,0.0717 0.110243,0.0592 0.1639864,0.15847 0.055122,0.0992 0.055122,0.22876 0,0.1502 -0.075792,0.26734 -0.074414,0.11713 -0.2067056,0.17225 v 0.011 q 0.1901691,0.04 0.3045462,0.16399 0.1143771,0.12265 0.1143771,0.33211 z M 5.2405413,259.4942 q 0,-0.0496 -0.026183,-0.10198 -0.024805,-0.0524 -0.078548,-0.0758 -0.050987,-0.0221 -0.1212673,-0.0234 -0.068902,-0.003 -0.2067056,-0.003 h -0.035829 v 0.43408 h 0.064768 q 0.1322916,0 0.184657,-0.003 0.053743,-0.003 0.1102429,-0.0289 0.062012,-0.0289 0.085438,-0.0799 0.023427,-0.051 0.023427,-0.11851 z m 0.1295355,0.83371 q 0,-0.0951 -0.038585,-0.14883 -0.038585,-0.0537 -0.1157551,-0.0813 -0.046853,-0.0179 -0.1295355,-0.0193 -0.081304,-0.003 -0.2191079,-0.003 h -0.095085 v 0.51401 h 0.027561 q 0.2011934,0 0.2783635,-0.003 0.07717,-0.003 0.1570962,-0.0372 0.07028,-0.0303 0.1019748,-0.0882 0.033073,-0.0593 0.033073,-0.13367 z" />
    </g>
    <g
       transform="translate(-2.5399996)"
       style="font-weight:bold;font-size:2.82222px;line-height:1.25;font-family:Tahoma;-inkscape-font-specification:'Tahoma, Bold';letter-spacing:0px;stroke-width:0.264583"
       id="text68"
       aria-label="C">
      <path
         id="path106"
         style="font-size:2.82222px;stroke-width:0.264583"
         d="m 5.2343401,281.32591 q -0.4616424,0 -0.7331157,-0.27836 -0.2714733,-0.27974 -0.2714733,-0.78548 0,-0.48783 0.2714733,-0.77721 0.2728513,-0.29077 0.7344938,-0.29077 0.1226453,0 0.2204859,0.0138 0.097841,0.0138 0.1874131,0.0386 0.07028,0.0207 0.1529621,0.0565 0.082682,0.0358 0.1336696,0.062 v 0.4892 h -0.052365 q -0.037207,-0.0331 -0.093707,-0.0786 -0.0565,-0.0469 -0.1281575,-0.091 -0.071658,-0.0441 -0.1584743,-0.0744 -0.085438,-0.0317 -0.1791448,-0.0317 -0.111621,0 -0.2053275,0.0358 -0.092328,0.0344 -0.1763888,0.12127 -0.07717,0.0786 -0.1267794,0.21222 -0.048231,0.13367 -0.048231,0.31557 0,0.19154 0.050987,0.32246 0.050987,0.12953 0.1336696,0.20946 0.079926,0.0772 0.1777668,0.11162 0.099219,0.0344 0.1970593,0.0344 0.1019747,0 0.1943032,-0.0331 0.092328,-0.0344 0.1557182,-0.0758 0.068902,-0.0427 0.1212673,-0.0868 0.052365,-0.0441 0.09095,-0.0786 h 0.046853 v 0.48231 q -0.056499,0.0262 -0.1309135,0.0606 -0.074414,0.0331 -0.1529622,0.0565 -0.096463,0.0289 -0.1805228,0.0441 -0.08406,0.0152 -0.2315103,0.0152 z" />
    </g>
    <g
       style="font-weight:bold;font-size:4.23333px;line-height:1.25;font-family:Tahoma;-inkscape-font-specification:'Tahoma, Bold';letter-spacing:0px;stroke-width:0.264583"
       id="text72"
       aria-label="TXOR">
      <path
         id="path109"
         style="stroke-width:0.264583"
         d="m 5.1091514,294.49893 v -2.4908 H 4.1996469 v -0.58704 h 2.5920877 v 0.58704 H 5.8822302 v 2.4908 z" />
      <path
         id="path111"
         style="stroke-width:0.264583"
         d="M 9.7186852,294.49893 H 8.8215831 L 8.2304052,293.51708 7.626825,294.49893 H 6.771064 l 0.9983878,-1.55029 -0.9591138,-1.52755 h 0.8950351 l 0.5539709,0.9281 0.5684402,-0.9281 h 0.8578281 l -0.9653149,1.49654 z" />
      <path
         id="path113"
         style="stroke-width:0.264583"
         d="m 12.819269,292.96104 q 0,0.74621 -0.398942,1.17409 -0.398942,0.42788 -1.093472,0.42788 -0.696598,0 -1.093473,-0.43201 -0.3968745,-0.43409 -0.3968745,-1.16996 0,-0.74207 0.3968745,-1.17202 0.396875,-0.43201 1.093473,-0.43201 0.69453,0 1.093472,0.42994 0.398942,0.42789 0.398942,1.17409 z m -0.797884,-0.002 q 0,-0.27492 -0.05788,-0.46716 -0.05581,-0.1943 -0.150895,-0.31833 -0.09922,-0.12609 -0.225309,-0.17983 -0.124024,-0.0558 -0.258382,-0.0558 -0.142627,0 -0.258382,0.0517 -0.115755,0.0496 -0.223242,0.17983 -0.09509,0.11989 -0.15503,0.31833 -0.05788,0.19843 -0.05788,0.47335 0,0.28319 0.05581,0.47129 0.05581,0.18604 0.152963,0.31213 0.09922,0.12815 0.225309,0.18396 0.12609,0.0537 0.260449,0.0537 0.136425,0 0.264583,-0.0579 0.128157,-0.0599 0.221175,-0.18397 0.09922,-0.13436 0.152962,-0.31212 0.05374,-0.17984 0.05374,-0.46922 z" />
      <path
         id="path115"
         style="stroke-width:0.264583"
         d="m 16.120356,294.49893 h -0.942577 l -0.857828,-1.12861 h -0.276986 v 1.12861 h -0.768944 v -3.07784 h 1.238166 q 0.256315,0 0.446484,0.0331 0.190169,0.031 0.351399,0.13229 0.165365,0.10542 0.262517,0.26872 0.09715,0.16123 0.09715,0.41134 0,0.35347 -0.159163,0.57464 -0.159163,0.21911 -0.425814,0.34934 z m -1.244367,-2.13527 q 0,-0.11575 -0.04547,-0.19843 -0.04341,-0.0847 -0.146761,-0.13023 -0.07235,-0.031 -0.161231,-0.0393 -0.08888,-0.008 -0.221175,-0.008 h -0.258382 v 0.82889 h 0.221175 q 0.161231,0 0.272852,-0.0186 0.113688,-0.0207 0.192236,-0.0847 0.07441,-0.0579 0.109554,-0.1385 0.03721,-0.0806 0.03721,-0.21084 z" />
    </g>
  </g>
  <g
     style="display:inline"
     inkscape:label="components"
     id="layer2"
     inkscape:groupmode="layer">
    <circle
       r="0.035242248"
       cy="-48.154167"
       cx="-43.920834"
       style="fill:#000000;stroke:#000000;stroke-width:0.264583"
       id="path30" />
    <circle
       r="0.0088105621"
       cy="-2.5135417"
       cx="-32.279167"
       style="fill:#000000;stroke:#000000;stroke-width:0.264583"
       id="path32" />
    <circle
       r="0.0088105621"
       cy="0.1984375"
       cx="-17.991667"
       style="fill:#000000;stroke:#000000;stroke-width:0.264583"
       id="path34" />
    <circle
       r="0.0088105621"
       cy="2.9104166"
       cx="-25.069271"
       style="fill:#000000;stroke:#000000;stroke-width:0.264583"
       id="path36" />
    <text
       id="text42"
       y="11.90625"
       x="-38.695312"
       style="font-size:10.5833px;line-height:1.25;font-family:'Eras Bold ITC';-inkscape-font-specification:'Eras Bold ITC';stroke-width:0.264583"
       xml:space="preserve"><tspan
         style="font-style:normal;font-variant:normal;font-weight:bold;font-stretch:normal;font-size:3.52778px;font-family:Garamond;-inkscape-font-specification:'Garamond Bold';stroke-width:0.264583"
         y="11.90625"
         x="-38.695312"
         id="tspan40"
         sodipodi:role="line" /></text>
    <text
       id="text78"
       y="16.668749"
       x="-45.111458"
       style="font-size:10.5833px;line-height:1.25;font-family:'Eras Bold ITC';-inkscape-font-specification:'Eras Bold ITC';stroke-width:0.264583"
       xml:space="preserve"><tspan
         style="stroke-width:0.264583"
         y="16.668749"
         x="-45.111458"
         id="tspan76"
         sodipodi:role="line" /></text>
  </g>
</svg>
