<?xml version="1.0" encoding="UTF-8" standalone="no"?>
<svg
   xmlns:dc="http://purl.org/dc/elements/1.1/"
   xmlns:cc="http://creativecommons.org/ns#"
   xmlns:rdf="http://www.w3.org/1999/02/22-rdf-syntax-ns#"
   xmlns:svg="http://www.w3.org/2000/svg"
   xmlns="http://www.w3.org/2000/svg"
   xmlns:sodipodi="http://sodipodi.sourceforge.net/DTD/sodipodi-0.dtd"
   xmlns:inkscape="http://www.inkscape.org/namespaces/inkscape"
   width="20.32mm"
   height="128.5mm"
   viewBox="0 0 20.320002 128.50002"
   version="1.1"
   id="svg8"
   inkscape:version="1.0 (4035a4fb49, 2020-05-01)"
   sodipodi:docname="tXOr.svg">
  <defs
     id="defs2">
    <inkscape:path-effect
       effect="fillet_chamfer"
       id="path-effect154"
       is_visible="true"
       lpeversion="1"
       satellites_param="F,0,0,1,0,4,0,1 @ F,0,0,1,0,4,0,1 @ F,0,0,1,0,4,0,1 @ F,0,0,1,0,4,0,1"
       unit="mm"
       method="auto"
       mode="F"
       radius="4"
       chamfer_steps="1"
       flexible="false"
       use_knot_distance="true"
       apply_no_radius="true"
       apply_with_radius="true"
       only_selected="false"
       hide_knots="false" />
  </defs>
  <sodipodi:namedview
     id="base"
     pagecolor="#ffffff"
     bordercolor="#666666"
     borderopacity="1.0"
     inkscape:pageopacity="0.0"
     inkscape:pageshadow="2"
     inkscape:zoom="1.4142136"
     inkscape:cx="-2.8959935"
     inkscape:cy="242.68078"
     inkscape:document-units="mm"
     inkscape:current-layer="layer1"
     showgrid="true"
     units="mm"
     inkscape:snap-bbox="true"
     inkscape:snap-page="true"
     inkscape:bbox-nodes="false"
     inkscape:snap-bbox-edge-midpoints="false"
     inkscape:window-width="1780"
     inkscape:window-height="1046"
     inkscape:window-x="-11"
     inkscape:window-y="-11"
     inkscape:window-maximized="1"
     inkscape:snap-bbox-midpoints="true"
     inkscape:snap-nodes="false"
     inkscape:document-rotation="0"
     inkscape:lockguides="false"
     objecttolerance="24.3"
     gridtolerance="26.6"
     guidetolerance="28.7">
    <inkscape:grid
       type="xygrid"
       id="grid86"
       units="mm"
       color="#ffd984"
       opacity="0.53333333"
       spacingx="2.5400004"
       spacingy="2.5400004"
       empcolor="#71530f"
       empopacity="0.25098039"
       empspacing="4" />
  </sodipodi:namedview>
  <metadata
     id="metadata5">
    <rdf:RDF>
      <cc:Work
         rdf:about="">
        <dc:format>image/svg+xml</dc:format>
        <dc:type
           rdf:resource="http://purl.org/dc/dcmitype/StillImage" />
        <dc:title />
        <dc:creator>
          <cc:Agent>
            <dc:title>Firo Lightfog</dc:title>
          </cc:Agent>
        </dc:creator>
      </cc:Work>
    </rdf:RDF>
  </metadata>
  <g
     style="display:inline"
     inkscape:label="Layer 1"
     inkscape:groupmode="layer"
     id="layer1"
     transform="translate(0,-168.49998)">
    <g
       style="font-weight:bold;font-size:4.23333px;line-height:1.25;font-family:Tahoma;-inkscape-font-specification:'Tahoma, Bold';letter-spacing:0px;fill:#ffeeaa;stroke-width:0.264583"
       id="text82"
       aria-label="TXOR">
      <path
         id="path85"
         style="fill:#ffeeaa;stroke-width:0.264583"
         d="m 5.1091514,294.49893 v -2.4908 H 4.1996469 v -0.58704 h 2.5920877 v 0.58704 H 5.8822302 v 2.4908 z" />
      <path
         id="path87"
         style="fill:#ffeeaa;stroke-width:0.264583"
         d="M 9.7186852,294.49893 H 8.8215831 L 8.2304052,293.51708 7.626825,294.49893 H 6.771064 l 0.9983878,-1.55029 -0.9591138,-1.52755 h 0.8950351 l 0.5539709,0.9281 0.5684402,-0.9281 h 0.8578281 l -0.9653149,1.49654 z" />
      <path
         id="path89"
         style="fill:#ffeeaa;stroke-width:0.264583"
         d="m 12.819269,292.96104 q 0,0.74621 -0.398942,1.17409 -0.398942,0.42788 -1.093472,0.42788 -0.696598,0 -1.093473,-0.43201 -0.3968745,-0.43409 -0.3968745,-1.16996 0,-0.74207 0.3968745,-1.17202 0.396875,-0.43201 1.093473,-0.43201 0.69453,0 1.093472,0.42994 0.398942,0.42789 0.398942,1.17409 z m -0.797884,-0.002 q 0,-0.27492 -0.05788,-0.46716 -0.05581,-0.1943 -0.150895,-0.31833 -0.09922,-0.12609 -0.225309,-0.17983 -0.124024,-0.0558 -0.258382,-0.0558 -0.142627,0 -0.258382,0.0517 -0.115755,0.0496 -0.223242,0.17983 -0.09509,0.11989 -0.15503,0.31833 -0.05788,0.19843 -0.05788,0.47335 0,0.28319 0.05581,0.47129 0.05581,0.18604 0.152963,0.31213 0.09922,0.12815 0.225309,0.18396 0.12609,0.0537 0.260449,0.0537 0.136425,0 0.264583,-0.0579 0.128157,-0.0599 0.221175,-0.18397 0.09922,-0.13436 0.152962,-0.31212 0.05374,-0.17984 0.05374,-0.46922 z" />
      <path
         id="path91"
         style="fill:#ffeeaa;stroke-width:0.264583"
         d="m 16.120356,294.49893 h -0.942577 l -0.857828,-1.12861 h -0.276986 v 1.12861 h -0.768944 v -3.07784 h 1.238166 q 0.256315,0 0.446484,0.0331 0.190169,0.031 0.351399,0.13229 0.165365,0.10542 0.262517,0.26872 0.09715,0.16123 0.09715,0.41134 0,0.35347 -0.159163,0.57464 -0.159163,0.21911 -0.425814,0.34934 z m -1.244367,-2.13527 q 0,-0.11575 -0.04547,-0.19843 -0.04341,-0.0847 -0.146761,-0.13023 -0.07235,-0.031 -0.161231,-0.0393 -0.08888,-0.008 -0.221175,-0.008 h -0.258382 v 0.82889 h 0.221175 q 0.161231,0 0.272852,-0.0186 0.113688,-0.0207 0.192236,-0.0847 0.07441,-0.0579 0.109554,-0.1385 0.03721,-0.0806 0.03721,-0.21084 z" />
    </g>
    <rect
       style="display:inline;opacity:1;vector-effect:none;fill:#cccccc;fill-opacity:1;fill-rule:evenodd;stroke:none;stroke-width:0.53381;stroke-linecap:butt;stroke-linejoin:miter;stroke-miterlimit:4;stroke-dasharray:none;stroke-dashoffset:0;stroke-opacity:1;paint-order:normal"
       id="rect420"
       width="20.463631"
       height="129.3419"
       x="-0.11858591"
       y="168.54512" />
    <path
       y="199.81157"
       x="2.3283267"
       height="16.7132"
       width="15.663334"
       id="rect48"
       style="fill:#de8787;stroke-width:0.330268"
       inkscape:path-effect="#path-effect154"
       d="m 6.3283267,199.81157 7.6633343,0 a 4,4 45 0 1 4,4 v 8.7132 a 4,4 135 0 1 -4,4 l -7.6633343,0 a 4,4 45 0 1 -4,-4 v -8.7132 a 4,4 135 0 1 4,-4 z"
       sodipodi:type="rect" />
    <text
       xml:space="preserve"
       style="font-size:10.5833px;line-height:1.25;font-family:'Eras Bold ITC';-inkscape-font-specification:'Eras Bold ITC';stroke-width:0.264583"
       x="1.1693041"
       y="277.43234"
       id="text59"><tspan
         sodipodi:role="line"
         id="tspan57"
         x="1.1693041"
         y="277.43234"
         style="font-size:2.82222px;fill:#ffff00;stroke-width:0.264583" /></text>
    <g
       aria-label="OUT"
       id="text63"
       style="font-size:10.5833px;line-height:1.25;font-family:'Eras Bold ITC';-inkscape-font-specification:'Eras Bold ITC';fill:#000000;stroke-width:0.264583"
       transform="translate(5.080001,-74.599332)">
      <path
         d="m 3.0694446,276.74367 q 0.2204859,0 0.4244354,0.0593 0.2039495,0.0593 0.3569116,0.19017 0.1529622,0.12953 0.2287542,0.29903 0.075792,0.1695 0.075792,0.38999 0,0.23151 -0.08406,0.42581 -0.082682,0.19292 -0.2397785,0.32797 -0.1570962,0.13505 -0.3748261,0.19844 -0.2177299,0.062 -0.4533742,0.062 -0.2328883,0 -0.4464841,-0.0606 -0.2135957,-0.062 -0.37207,-0.19844 -0.1570962,-0.1378 -0.223242,-0.30592 -0.066146,-0.16812 -0.066146,-0.37345 0,-0.30179 0.1391818,-0.52917 0.1405598,-0.22875 0.4147892,-0.35691 0.2756074,-0.12816 0.6201167,-0.12816 z m -0.024805,0.41479 q -0.1584743,0 -0.2866317,0.0786 -0.1281575,0.0772 -0.1970593,0.21635 -0.068902,0.13781 -0.068902,0.29628 0,0.14607 0.062012,0.26734 0.06339,0.12127 0.1915471,0.19017 0.1281575,0.0675 0.2714734,0.0675 0.1529621,0 0.2797415,-0.0758 0.1281575,-0.0772 0.1943032,-0.21497 0.067524,-0.13919 0.067524,-0.29077 0,-0.14745 -0.062012,-0.27147 -0.062012,-0.1254 -0.1819009,-0.19431 -0.1198892,-0.0689 -0.2700953,-0.0689 z"
         style="font-size:2.82222px;fill:#000000;stroke-width:0.264583"
         id="path65" />
      <path
         d="m 4.461262,276.7795 q 0.2149738,0.003 0.3031682,0.003 0.110243,0 0.2935219,-0.003 l -0.041341,0.58567 q -0.012402,0.16536 -0.019292,0.31006 -0.00551,0.14469 -0.00551,0.19981 0,0.10473 0.015158,0.17501 0.015158,0.0703 0.055122,0.11989 0.039963,0.0482 0.110243,0.073 0.071658,0.0248 0.148828,0.0248 0.066146,0 0.1240233,-0.0152 0.045475,-0.0124 0.081304,-0.0344 0.031695,-0.0207 0.055122,-0.0482 0.028939,-0.0331 0.050987,-0.0827 0.022049,-0.0469 0.033073,-0.12127 0.012402,-0.0758 0.033073,-0.34451 0.017914,-0.22875 0.027561,-0.41892 0.00827,-0.18466 0.015158,-0.42306 0.2080836,0.003 0.3279729,0.003 l 0.2797415,-0.003 -0.067524,0.97841 q -0.00138,0.0276 -0.00138,0.0455 -0.00551,0.28664 -0.035829,0.40515 -0.028939,0.11713 -0.097841,0.20395 -0.068902,0.0868 -0.2011934,0.15709 -0.1322915,0.0689 -0.3004121,0.0978 -0.1681205,0.0289 -0.3403752,0.0289 -0.1543401,0 -0.297656,-0.022 -0.1322915,-0.0221 -0.2384004,-0.0634 -0.1061089,-0.0427 -0.184657,-0.0992 -0.071658,-0.0524 -0.110243,-0.1061 -0.038585,-0.0551 -0.060634,-0.13092 -0.024805,-0.0854 -0.024805,-0.18328 0,-0.0331 0.00276,-0.0992 0.00276,-0.0675 0.012402,-0.19292 l 0.017914,-0.22049 q 0.00689,-0.0868 0.015158,-0.25493 z"
         style="font-size:2.82222px;fill:#000000;stroke-width:0.264583"
         id="path67" />
      <path
         d="m 6.9913383,278.66052 q 0.068902,-0.66972 0.082682,-1.4745 l -0.5870439,0.0152 0.00689,-0.15296 q 0.00551,-0.12265 0.00827,-0.26872 0.3913626,0.003 0.9122606,0.003 l 0.3403752,-10e-4 h 0.3307289 l 0.1791449,-0.001 -0.00827,0.13367 q -0.00551,0.10749 -0.00827,0.17777 -0.00138,0.0703 -0.00138,0.10611 -0.2949,-0.0138 -0.4864471,-0.0138 h -0.096463 q -0.020671,0.24391 -0.031695,0.45061 -0.015158,0.29628 -0.023427,0.57602 -0.00827,0.27837 -0.00827,0.45062 -0.2259981,-0.003 -0.2921439,-0.003 -0.059256,0 -0.3169486,0.003 z"
         style="font-size:2.82222px;fill:#000000;stroke-width:0.264583"
         id="path69" />
    </g>
    <text
       xml:space="preserve"
       style="font-size:10.5833px;line-height:1.25;font-family:'Eras Bold ITC';-inkscape-font-specification:'Eras Bold ITC';stroke-width:0.264583"
       x="-78.577248"
       y="172.05467"
       id="text127"><tspan
         sodipodi:role="line"
         id="tspan125"
         x="-78.577248"
         y="172.05467"
         style="stroke-width:0.264583" /></text>
    <text
       xml:space="preserve"
       style="font-size:10.5833px;line-height:1.25;font-family:'Eras Bold ITC';-inkscape-font-specification:'Eras Bold ITC';stroke-width:0.264583"
       x="-89.989647"
       y="186.46049"
       id="text131"><tspan
         sodipodi:role="line"
         id="tspan129"
         x="-89.989647"
         y="186.46049"
         style="stroke-width:0.264583" /></text>
    <g
       aria-label="b"
       id="text104"
       style="font-weight:bold;font-size:6.35px;line-height:1.25;font-family:Tahoma;-inkscape-font-specification:'Tahoma, Bold';fill:#000000;stroke-width:0.264583">
      <path
         d="m 3.2732611,177.4586 v 0.68213 q 0.3927406,0 0.592556,0.19982 0.2067056,0.19981 0.3927406,0.76481 l 0.110243,0.34451 q 0.37207,1.14377 1.2195628,1.50206 -0.7854811,0.15158 -1.2540138,0.64768 -0.4616424,0.4892 -0.4616424,1.16444 0,0.94395 0.7096891,1.56407 0.7096891,0.61323 1.7983385,0.61323 1.6536445,0 2.5562588,-1.41938 L 8.4064495,183.0741 q -0.5856658,0.62701 -1.2057825,0.62701 -0.5098738,0 -0.8750536,-0.33073 -0.3651799,-0.33762 -0.3651799,-0.79926 0,-0.38585 0.2824977,-0.66835 0.2893878,-0.28249 0.6752382,-0.28249 0.6959087,0 1.9499225,0.98529 l 0.4203013,0.33073 q 2.0463848,1.6123 3.9067348,1.6123 1.612304,0 2.728514,-1.06108 1.1231,-1.06109 1.1231,-2.58382 0,-1.54341 -1.157551,-2.49425 -1.157551,-0.95085 -3.038572,-0.95085 h -0.227376 v 0.68213 q 1.11621,0.0758 1.770778,0.77859 0.654567,0.69591 0.654567,1.81212 0,1.10243 -0.826822,1.88791 -0.826822,0.77859 -1.998154,0.77859 -1.12999,0 -2.011934,-0.68901 -0.8819437,-0.68902 -0.8819437,-1.57097 0,-0.4203 0.2687173,-0.70969 0.2756074,-0.28938 0.6752384,-0.28938 0.399631,0 0.599446,0.22048 0.206705,0.2136 0.206705,0.65457 0,0.26872 -0.151584,0.6339 l 0.620117,0.28249 q 0.413411,-0.9784 0.413411,-1.63986 0,-0.81304 -0.530544,-1.39182 -0.523654,-0.58566 -1.267794,-0.58566 -0.475423,0 -0.8681636,0.23426 -0.3927406,0.23427 -0.7027989,0.70969 -0.3996308,-0.99907 -1.2677942,-1.39871 -0.8612732,-0.39963 -2.6182705,-0.39963 z m 4.9609337,3.36241 Q 7.2213375,180.62809 6.3807349,179.13292 L 6.2636017,178.9331 q -0.3651798,-0.64767 -0.8819437,-0.84749 2.6320509,0 2.8525368,2.7354 z"
         style="font-style:normal;font-variant:normal;font-weight:bold;font-stretch:normal;font-size:14.1111px;font-family:'Wingdings 2';-inkscape-font-specification:'Wingdings 2 Bold';fill:#000000;stroke-width:0.264583"
         id="path116" />
    </g>
    <g
       aria-label="RST"
       id="text94"
       style="font-weight:bold;font-size:2.82222px;line-height:1.25;font-family:Tahoma;-inkscape-font-specification:'Tahoma, Bold';display:inline;fill:#000000;stroke-width:0.264583">
      <path
         d="M 4.3014095,188.57681 H 3.6730246 L 3.1011392,187.8244 h -0.184657 v 0.75241 H 2.4038524 v -2.05189 h 0.8254442 q 0.1708766,0 0.2976561,0.022 0.1267794,0.0207 0.2342663,0.0882 0.1102429,0.0703 0.1750107,0.17914 0.064768,0.10749 0.064768,0.27423 0,0.23565 -0.1061088,0.3831 -0.1061089,0.14607 -0.2838757,0.23289 z M 3.4718312,187.1533 q 0,-0.0772 -0.030317,-0.13229 -0.028939,-0.0565 -0.097841,-0.0868 -0.048231,-0.0207 -0.1074869,-0.0262 -0.059256,-0.006 -0.14745,-0.006 H 2.9164822 v 0.55259 h 0.14745 q 0.1074869,0 0.1819009,-0.0124 0.075792,-0.0138 0.1281574,-0.0565 0.049609,-0.0386 0.073036,-0.0923 0.024805,-0.0537 0.024805,-0.14056 z"
         style="font-size:2.82222px;fill:#000000;stroke-width:0.264583"
         id="path160" />
      <path
         d="m 5.0882687,188.61402 q -0.2356444,0 -0.4147892,-0.0455 -0.1777668,-0.0455 -0.3307289,-0.11299 v -0.48783 h 0.046853 q 0.1543401,0.13091 0.3403751,0.20119 0.1860351,0.0703 0.3610458,0.0703 0.044097,0 0.1157551,-0.01 0.073036,-0.01 0.1171331,-0.0303 0.053743,-0.0234 0.09095,-0.0648 0.037207,-0.0427 0.037207,-0.11162 0,-0.0772 -0.060634,-0.1254 -0.060634,-0.0482 -0.1446939,-0.0703 -0.1047309,-0.0276 -0.2246201,-0.0524 -0.1185112,-0.0248 -0.221864,-0.0606 -0.2384004,-0.0841 -0.3417532,-0.226 -0.1033528,-0.14193 -0.1033528,-0.35553 0,-0.28801 0.2439126,-0.46578 0.2439126,-0.17914 0.6090924,-0.17914 0.183279,0 0.3638018,0.0372 0.1819009,0.0372 0.3252168,0.10059 v 0.46853 h -0.045475 q -0.1143771,-0.0978 -0.2797416,-0.16536 -0.1639864,-0.0675 -0.3376191,-0.0675 -0.067524,0 -0.1212672,0.01 -0.053744,0.01 -0.1129991,0.0372 -0.048231,0.0221 -0.08406,0.0662 -0.034451,0.0427 -0.034451,0.0965 0,0.0786 0.055122,0.1254 0.056499,0.0455 0.2163518,0.0827 0.1033528,0.0234 0.1984374,0.0455 0.096463,0.022 0.2053275,0.0606 0.2135958,0.0772 0.3169486,0.20808 0.1047308,0.12954 0.1047308,0.34314 0,0.30592 -0.2411565,0.49195 -0.2397785,0.18604 -0.6490555,0.18604 z"
         style="font-size:2.82222px;fill:#000000;stroke-width:0.264583"
         id="path162" />
      <path
         d="m 6.6344263,188.57681 v -1.66053 H 6.02809 v -0.39136 h 1.7280586 v 0.39136 H 7.1498122 v 1.66053 z"
         style="font-size:2.82222px;fill:#000000;stroke-width:0.264583"
         id="path164" />
    </g>
    <g
       aria-label="CLK"
       id="text98"
       style="font-weight:bold;font-size:2.82222px;line-height:1.25;font-family:Tahoma;-inkscape-font-specification:'Tahoma, Bold';display:inline;fill:#000000;stroke-width:0.264583">
      <path
         d="m 13.53537,188.61678 q -0.461642,0 -0.733115,-0.27837 -0.271474,-0.27974 -0.271474,-0.78548 0,-0.48782 0.271474,-0.77721 0.272851,-0.29077 0.734493,-0.29077 0.122646,0 0.220486,0.0138 0.09784,0.0138 0.187413,0.0386 0.07028,0.0207 0.152962,0.0565 0.08268,0.0358 0.13367,0.062 v 0.4892 h -0.05236 q -0.03721,-0.0331 -0.09371,-0.0785 -0.0565,-0.0469 -0.128157,-0.091 -0.07166,-0.0441 -0.158475,-0.0744 -0.08544,-0.0317 -0.179144,-0.0317 -0.111621,0 -0.205328,0.0358 -0.09233,0.0344 -0.176389,0.12127 -0.07717,0.0786 -0.126779,0.21222 -0.04823,0.13367 -0.04823,0.31557 0,0.19155 0.05099,0.32246 0.05099,0.12954 0.13367,0.20946 0.07993,0.0772 0.177766,0.11162 0.09922,0.0345 0.19706,0.0345 0.101974,0 0.194303,-0.0331 0.09233,-0.0344 0.155718,-0.0758 0.0689,-0.0427 0.121267,-0.0868 0.05237,-0.0441 0.09095,-0.0786 h 0.04685 v 0.48232 q -0.0565,0.0262 -0.130913,0.0606 -0.07441,0.0331 -0.152963,0.0565 -0.09646,0.0289 -0.180522,0.0441 -0.08406,0.0152 -0.231511,0.0152 z"
         style="font-size:2.82222px;fill:#000000;stroke-width:0.264583"
         id="path153" />
      <path
         d="m 15.905594,188.57681 h -1.369769 v -2.05189 h 0.515386 v 1.66053 h 0.854383 z"
         style="font-size:2.82222px;fill:#000000;stroke-width:0.264583"
         id="path155" />
      <path
         d="M 17.949223,188.57681 H 17.32635 l -0.559483,-0.83371 -0.100596,0.14056 v 0.69315 h -0.515386 v -2.05189 h 0.515386 v 0.91088 l 0.655945,-0.91088 h 0.59669 l -0.731737,0.95222 z"
         style="font-size:2.82222px;fill:#000000;stroke-width:0.264583"
         id="path157" />
    </g>
    <g
       style="font-weight:bold;font-size:2.82222px;line-height:1.25;font-family:Tahoma;-inkscape-font-specification:'Tahoma, Bold';letter-spacing:0px;fill:#000000;stroke-width:0.264583"
       id="text96"
       aria-label="DIV A DIV B DIV C">
      <path
         id="path118"
         style="font-size:2.82222px;fill:#000000;stroke-width:0.264583"
         d="m 8.0088858,251.3143 q 0,0.28663 -0.1254014,0.51401 -0.1254014,0.22599 -0.3169486,0.34726 -0.1598523,0.10335 -0.3486434,0.13367 -0.187413,0.0289 -0.3996307,0.0289 H 6.1760964 v -2.0519 h 0.6366531 q 0.2163518,0 0.4051429,0.0276 0.1887911,0.0276 0.3541556,0.13367 0.2025714,0.12954 0.3197046,0.35003 0.1171332,0.2191 0.1171332,0.51676 z m -0.5291663,-0.004 q 0,-0.20257 -0.07028,-0.34588 -0.068902,-0.1447 -0.2135958,-0.226 -0.1047308,-0.0579 -0.2204859,-0.0634 -0.1143771,-0.006 -0.2742294,-0.006 h -0.00965 v 1.28433 h 0.00965 q 0.1736327,0 0.2921439,-0.006 0.1198892,-0.007 0.2273761,-0.0744 0.1267794,-0.0799 0.1929252,-0.22048 0.066146,-0.14056 0.066146,-0.34314 z" />
      <path
         id="path120"
         style="font-size:2.82222px;fill:#000000;stroke-width:0.264583"
         d="M 9.3373135,252.33818 H 8.2321277 v -0.35829 h 0.2949 v -1.33532 h -0.2949 v -0.35829 h 1.1051858 v 0.35829 H 9.0424136 v 1.33532 h 0.2948999 z" />
      <path
         id="path122"
         style="font-size:2.82222px;fill:#000000;stroke-width:0.264583"
         d="m 11.396101,250.28628 -0.705555,2.0519 h -0.537435 l -0.7055546,-2.0519 h 0.5346784 l 0.4464842,1.39044 0.446484,-1.39044 z" />
      <path
         id="path124"
         style="font-size:2.82222px;fill:#000000;stroke-width:0.264583"
         d="m 12.195363,252.33818 0.693152,-2.0519 h 0.56224 l 0.693152,2.0519 h -0.530544 l -0.128158,-0.41892 h -0.644921 l -0.128157,0.41892 z m 1.176843,-0.79099 -0.209461,-0.67662 -0.209462,0.67662 z" />
      <path
         id="path126"
         style="font-size:2.82222px;fill:#000000;stroke-width:0.264583"
         d="m 8.0088858,254.84207 q 0,0.28664 -0.1254014,0.51401 -0.1254014,0.226 -0.3169486,0.34727 -0.1598523,0.10335 -0.3486434,0.13367 -0.187413,0.0289 -0.3996307,0.0289 H 6.1760964 v -2.0519 h 0.6366531 q 0.2163518,0 0.4051429,0.0276 0.1887911,0.0276 0.3541556,0.13367 0.2025714,0.12953 0.3197046,0.35002 0.1171332,0.21911 0.1171332,0.51676 z m -0.5291663,-0.004 q 0,-0.20257 -0.07028,-0.34589 -0.068902,-0.14469 -0.2135958,-0.226 -0.1047308,-0.0579 -0.2204859,-0.0634 -0.1143771,-0.006 -0.2742294,-0.006 h -0.00965 v 1.28433 h 0.00965 q 0.1736327,0 0.2921439,-0.006 0.1198892,-0.007 0.2273761,-0.0744 0.1267794,-0.0799 0.1929252,-0.22049 0.066146,-0.14056 0.066146,-0.34313 z" />
      <path
         id="path128"
         style="font-size:2.82222px;fill:#000000;stroke-width:0.264583"
         d="M 9.3373135,255.86596 H 8.2321277 v -0.35829 h 0.2949 v -1.33532 h -0.2949 v -0.35829 h 1.1051858 v 0.35829 H 9.0424136 v 1.33532 h 0.2948999 z" />
      <path
         id="path130"
         style="font-size:2.82222px;fill:#000000;stroke-width:0.264583"
         d="m 11.396101,253.81406 -0.705555,2.0519 h -0.537435 l -0.7055546,-2.0519 h 0.5346784 l 0.4464842,1.39044 0.446484,-1.39044 z" />
      <path
         id="path132"
         style="font-size:2.82222px;fill:#000000;stroke-width:0.264583"
         d="m 14.057091,255.23757 q 0,0.15296 -0.05788,0.26872 -0.05788,0.11575 -0.155718,0.19155 -0.115755,0.0909 -0.254937,0.12953 -0.137803,0.0386 -0.351399,0.0386 h -0.82131 v -2.0519 h 0.724847 q 0.225998,0 0.341753,0.0179 0.117134,0.0165 0.219108,0.0717 0.110243,0.0593 0.163987,0.15848 0.05512,0.0992 0.05512,0.22875 0,0.15021 -0.07579,0.26734 -0.07441,0.11713 -0.206705,0.17225 v 0.011 q 0.190169,0.04 0.304546,0.16398 0.114377,0.12265 0.114377,0.33211 z m -0.66008,-0.84336 q 0,-0.0496 -0.02618,-0.10197 -0.0248,-0.0524 -0.07855,-0.0758 -0.05099,-0.0221 -0.121267,-0.0234 -0.0689,-0.003 -0.206706,-0.003 h -0.03583 v 0.43408 h 0.06477 q 0.132292,0 0.184657,-0.003 0.05374,-0.003 0.110243,-0.0289 0.06201,-0.0289 0.08544,-0.0799 0.02343,-0.051 0.02343,-0.11851 z m 0.129536,0.83371 q 0,-0.0951 -0.03859,-0.14882 -0.03858,-0.0538 -0.115756,-0.0813 -0.04685,-0.0179 -0.129535,-0.0193 -0.0813,-0.003 -0.219108,-0.003 h -0.09508 v 0.51401 h 0.02756 q 0.201194,0 0.278364,-0.003 0.07717,-0.003 0.157096,-0.0372 0.07028,-0.0303 0.101975,-0.0882 0.03307,-0.0593 0.03307,-0.13367 z" />
      <path
         id="path134"
         style="font-size:2.82222px;fill:#000000;stroke-width:0.264583"
         d="m 8.0088858,258.36985 q 0,0.28663 -0.1254014,0.51401 -0.1254014,0.226 -0.3169486,0.34726 -0.1598523,0.10336 -0.3486434,0.13367 -0.187413,0.0289 -0.3996307,0.0289 H 6.1760964 v -2.0519 h 0.6366531 q 0.2163518,0 0.4051429,0.0276 0.1887911,0.0276 0.3541556,0.13367 0.2025714,0.12954 0.3197046,0.35003 0.1171332,0.2191 0.1171332,0.51676 z m -0.5291663,-0.004 q 0,-0.20258 -0.07028,-0.34589 -0.068902,-0.1447 -0.2135958,-0.226 -0.1047308,-0.0579 -0.2204859,-0.0634 -0.1143771,-0.006 -0.2742294,-0.006 h -0.00965 v 1.28433 h 0.00965 q 0.1736327,0 0.2921439,-0.006 0.1198892,-0.007 0.2273761,-0.0744 0.1267794,-0.0799 0.1929252,-0.22048 0.066146,-0.14056 0.066146,-0.34313 z" />
      <path
         id="path136"
         style="font-size:2.82222px;fill:#000000;stroke-width:0.264583"
         d="M 9.3373135,259.39373 H 8.2321277 v -0.35829 h 0.2949 v -1.33532 h -0.2949 v -0.35829 h 1.1051858 v 0.35829 H 9.0424136 v 1.33532 h 0.2948999 z" />
      <path
         id="path138"
         style="font-size:2.82222px;fill:#000000;stroke-width:0.264583"
         d="m 11.396101,257.34183 -0.705555,2.0519 h -0.537435 l -0.7055546,-2.0519 h 0.5346784 l 0.4464842,1.39044 0.446484,-1.39044 z" />
      <path
         id="path140"
         style="font-size:2.82222px;fill:#000000;stroke-width:0.264583"
         d="m 13.300548,259.43369 q -0.461642,0 -0.733115,-0.27836 -0.271474,-0.27974 -0.271474,-0.78548 0,-0.48783 0.271474,-0.77721 0.272851,-0.29077 0.734494,-0.29077 0.122645,0 0.220485,0.0138 0.09784,0.0138 0.187414,0.0386 0.07028,0.0207 0.152962,0.0565 0.08268,0.0358 0.133669,0.062 v 0.4892 h -0.05236 q -0.03721,-0.0331 -0.09371,-0.0786 -0.0565,-0.0469 -0.128157,-0.091 -0.07166,-0.0441 -0.158474,-0.0744 -0.08544,-0.0317 -0.179145,-0.0317 -0.111621,0 -0.205328,0.0358 -0.09233,0.0344 -0.176389,0.12127 -0.07717,0.0786 -0.126779,0.21222 -0.04823,0.13367 -0.04823,0.31557 0,0.19154 0.05099,0.32246 0.05099,0.12953 0.13367,0.20946 0.07993,0.0772 0.177767,0.11162 0.09922,0.0344 0.197059,0.0344 0.101975,0 0.194303,-0.0331 0.09233,-0.0344 0.155718,-0.0758 0.0689,-0.0427 0.121268,-0.0868 0.05236,-0.0441 0.09095,-0.0786 h 0.04685 v 0.48232 q -0.0565,0.0262 -0.130913,0.0606 -0.07441,0.0331 -0.152962,0.0565 -0.09646,0.0289 -0.180523,0.0441 -0.08406,0.0152 -0.231511,0.0152 z" />
    </g>
    <g
       style="font-weight:bold;font-size:4.23333px;line-height:1.25;font-family:Tahoma;-inkscape-font-specification:'Tahoma, Bold';letter-spacing:0px;display:inline;fill:#000000;stroke-width:0.264583"
       id="text105"
       transform="translate(0,168.49998)"
       aria-label="TXOR">
      <path
         id="path109"
         style="fill:#000000;stroke-width:0.264583"
         d="m 5.1091514,125.99894 v -2.4908 H 4.1996469 v -0.58705 h 2.5920877 v 0.58705 H 5.8822302 v 2.4908 z" />
      <path
         id="path111"
         style="fill:#000000;stroke-width:0.264583"
         d="M 9.7186852,125.99894 H 8.8215831 L 8.2304052,125.01709 7.626825,125.99894 H 6.771064 l 0.9983878,-1.55029 -0.9591138,-1.52756 h 0.8950351 l 0.5539709,0.92811 0.5684402,-0.92811 h 0.8578281 l -0.9653149,1.49655 z" />
      <path
         id="path113"
         style="fill:#000000;stroke-width:0.264583"
         d="m 12.819269,124.46105 q 0,0.74621 -0.398942,1.17409 -0.398942,0.42788 -1.093472,0.42788 -0.696598,0 -1.093473,-0.43202 -0.3968745,-0.43408 -0.3968745,-1.16995 0,-0.74207 0.3968745,-1.17202 0.396875,-0.43201 1.093473,-0.43201 0.69453,0 1.093472,0.42994 0.398942,0.42788 0.398942,1.17409 z m -0.797884,-0.002 q 0,-0.27492 -0.05788,-0.46715 -0.05581,-0.1943 -0.150895,-0.31833 -0.09922,-0.12609 -0.225309,-0.17983 -0.124024,-0.0558 -0.258382,-0.0558 -0.142627,0 -0.258382,0.0517 -0.115755,0.0496 -0.223242,0.17984 -0.09509,0.11989 -0.15503,0.31832 -0.05788,0.19844 -0.05788,0.47336 0,0.28319 0.05581,0.47129 0.05581,0.18603 0.152963,0.31212 0.09922,0.12816 0.225309,0.18397 0.12609,0.0537 0.260449,0.0537 0.136425,0 0.264583,-0.0579 0.128157,-0.06 0.221175,-0.18397 0.09922,-0.13436 0.152962,-0.31213 0.05374,-0.17983 0.05374,-0.46922 z" />
      <path
         id="path115"
         style="fill:#000000;stroke-width:0.264583"
         d="m 16.120356,125.99894 h -0.942577 l -0.857828,-1.12861 h -0.276986 v 1.12861 h -0.768944 v -3.07785 h 1.238166 q 0.256315,0 0.446484,0.0331 0.190169,0.031 0.351399,0.13229 0.165365,0.10542 0.262517,0.26872 0.09715,0.16123 0.09715,0.41134 0,0.35347 -0.159163,0.57464 -0.159163,0.21911 -0.425814,0.34933 z m -1.244367,-2.13527 q 0,-0.11575 -0.04547,-0.19844 -0.04341,-0.0847 -0.146761,-0.13022 -0.07235,-0.031 -0.161231,-0.0393 -0.08888,-0.008 -0.221175,-0.008 h -0.258382 v 0.82889 h 0.221175 q 0.161231,0 0.272852,-0.0186 0.113688,-0.0207 0.192236,-0.0847 0.07441,-0.0579 0.109554,-0.13849 0.03721,-0.0806 0.03721,-0.21084 z" />
    </g>
  </g>
  <g
     inkscape:groupmode="layer"
     id="layer2"
     inkscape:label="components"
     style="display:none">
    <circle
       style="display:inline;opacity:1;vector-effect:none;fill:#0000ff;fill-opacity:1;fill-rule:evenodd;stroke:none;stroke-width:1;stroke-linecap:butt;stroke-linejoin:miter;stroke-miterlimit:4;stroke-dasharray:none;stroke-dashoffset:0;stroke-opacity:1;paint-order:normal"
       id="circle11"
       cx="10.160002"
       cy="40.428322"
       r="4"
       inkscape:label="polyout" />
    <circle
       inkscape:label="monoin1"
       style="display:inline;opacity:1;vector-effect:none;fill:#ff0000;fill-opacity:1;fill-rule:evenodd;stroke:none;stroke-width:1;stroke-linecap:butt;stroke-linejoin:miter;stroke-miterlimit:4;stroke-dasharray:none;stroke-dashoffset:0;stroke-opacity:1;paint-order:normal"
       id="circle1"
       cx="10.160002"
       cy="55.880009"
       r="4" />
    <circle
       inkscape:label="monoin4"
       style="display:inline;opacity:1;vector-effect:none;fill:#00ff00;fill-opacity:1;fill-rule:evenodd;stroke:none;stroke-width:1;stroke-linecap:butt;stroke-linejoin:miter;stroke-miterlimit:4;stroke-dasharray:none;stroke-dashoffset:0;stroke-opacity:1;paint-order:normal"
       id="circle4"
       cx="10.160002"
       cy="106.68001"
       r="4" />
    <circle
       inkscape:label="monoin5"
       style="display:inline;opacity:1;vector-effect:none;fill:#ff0000;fill-opacity:1;fill-rule:evenodd;stroke:none;stroke-width:1;stroke-linecap:butt;stroke-linejoin:miter;stroke-miterlimit:4;stroke-dasharray:none;stroke-dashoffset:0;stroke-opacity:1;paint-order:normal"
       id="circle5"
       cx="10.160002"
       cy="76.200012"
       r="4" />
    <circle
       inkscape:label="monoin6"
       style="display:inline;opacity:1;vector-effect:none;fill:#00ff00;fill-opacity:1;fill-rule:evenodd;stroke:none;stroke-width:1;stroke-linecap:butt;stroke-linejoin:miter;stroke-miterlimit:4;stroke-dasharray:none;stroke-dashoffset:0;stroke-opacity:1;paint-order:normal"
       id="circle6"
       cx="10.160002"
       cy="116.83996"
       r="4" />
    <circle
       inkscape:label="monoin7"
       style="display:inline;opacity:1;vector-effect:none;fill:#00ff00;fill-opacity:1;fill-rule:evenodd;stroke:none;stroke-width:1;stroke-linecap:butt;stroke-linejoin:miter;stroke-miterlimit:4;stroke-dasharray:none;stroke-dashoffset:0;stroke-opacity:1;paint-order:normal"
       id="circle7"
       cx="5.0800009"
       cy="25.400003"
       r="4" />
    <circle
       inkscape:label="monoin8"
       style="display:inline;opacity:1;vector-effect:none;fill:#00ff00;fill-opacity:1;fill-rule:evenodd;stroke:none;stroke-width:1;stroke-linecap:butt;stroke-linejoin:miter;stroke-miterlimit:4;stroke-dasharray:none;stroke-dashoffset:0;stroke-opacity:1;paint-order:normal"
       id="circle8"
       cx="15.240003"
       cy="25.400003"
       r="4" />
    <ellipse
       ry="4.0000014"
       rx="4"
       inkscape:label="monoin3"
       style="display:inline;opacity:1;vector-effect:none;fill:#ff0000;fill-opacity:1;fill-rule:evenodd;stroke:none;stroke-width:1;stroke-linecap:butt;stroke-linejoin:miter;stroke-miterlimit:4;stroke-dasharray:none;stroke-dashoffset:0;stroke-opacity:1;paint-order:normal"
       id="circle3"
       cx="10.160002"
       cy="66.040016" />
    <circle
       inkscape:label="monoin2"
       style="display:inline;opacity:1;vector-effect:none;fill:#00ff00;fill-opacity:1;fill-rule:evenodd;stroke:none;stroke-width:1;stroke-linecap:butt;stroke-linejoin:miter;stroke-miterlimit:4;stroke-dasharray:none;stroke-dashoffset:0;stroke-opacity:1;paint-order:normal"
       id="circle2"
       cx="10.160002"
       cy="96.520012"
       r="4" />
    <circle
       id="path30"
       style="fill:#000000;stroke:#000000;stroke-width:0.264583"
       cx="-43.920834"
       cy="-48.154167"
       r="0.035242248" />
    <circle
       id="path32"
       style="fill:#000000;stroke:#000000;stroke-width:0.264583"
       cx="-32.279167"
       cy="-2.5135417"
       r="0.0088105621" />
    <circle
       id="path34"
       style="fill:#000000;stroke:#000000;stroke-width:0.264583"
       cx="-17.991667"
       cy="0.1984375"
       r="0.0088105621" />
    <circle
       id="path36"
       style="fill:#000000;stroke:#000000;stroke-width:0.264583"
       cx="-25.069271"
       cy="2.9104166"
       r="0.0088105621" />
    <text
       xml:space="preserve"
       style="font-size:10.5833px;line-height:1.25;font-family:'Eras Bold ITC';-inkscape-font-specification:'Eras Bold ITC';stroke-width:0.264583"
       x="-38.695312"
       y="11.90625"
       id="text42"><tspan
         sodipodi:role="line"
         id="tspan40"
         x="-38.695312"
         y="11.90625"
         style="font-style:normal;font-variant:normal;font-weight:bold;font-stretch:normal;font-size:3.52778px;font-family:Garamond;-inkscape-font-specification:'Garamond Bold';stroke-width:0.264583" /></text>
    <text
       xml:space="preserve"
       style="font-size:10.5833px;line-height:1.25;font-family:'Eras Bold ITC';-inkscape-font-specification:'Eras Bold ITC';stroke-width:0.264583"
       x="-45.111458"
       y="16.668749"
       id="text78"><tspan
         sodipodi:role="line"
         id="tspan76"
         x="-45.111458"
         y="16.668749"
         style="stroke-width:0.264583" /></text>
  </g>
</svg>
